%TF.GenerationSoftware,KiCad,Pcbnew,7.0.1*%
%TF.CreationDate,2024-04-01T23:51:06+01:00*%
%TF.ProjectId,Hardware,48617264-7761-4726-952e-6b696361645f,rev?*%
%TF.SameCoordinates,Original*%
%TF.FileFunction,Legend,Top*%
%TF.FilePolarity,Positive*%
%FSLAX46Y46*%
G04 Gerber Fmt 4.6, Leading zero omitted, Abs format (unit mm)*
G04 Created by KiCad (PCBNEW 7.0.1) date 2024-04-01 23:51:06*
%MOMM*%
%LPD*%
G01*
G04 APERTURE LIST*
%ADD10C,0.150000*%
%ADD11C,0.200000*%
%ADD12C,0.240000*%
%ADD13C,0.750000*%
%ADD14C,0.650000*%
%ADD15O,1.000000X1.800000*%
%ADD16O,1.000000X2.100000*%
G04 APERTURE END LIST*
D10*
X181500000Y-64000000D02*
X208000000Y-64000000D01*
X208000000Y-94500000D01*
X181500000Y-94500000D01*
X181500000Y-64000000D01*
X183500000Y-70000000D02*
X206000000Y-70000000D01*
X206000000Y-92500000D01*
X183500000Y-92500000D01*
X183500000Y-70000000D01*
G36*
X183500000Y-70000000D02*
G01*
X206000000Y-70000000D01*
X206000000Y-92500000D01*
X183500000Y-92500000D01*
X183500000Y-70000000D01*
G37*
D11*
G36*
X183254477Y-95266966D02*
G01*
X183276126Y-95267641D01*
X183297430Y-95268767D01*
X183318389Y-95270343D01*
X183339004Y-95272370D01*
X183359275Y-95274846D01*
X183379201Y-95277774D01*
X183398783Y-95281151D01*
X183418021Y-95284979D01*
X183455463Y-95293985D01*
X183491526Y-95304793D01*
X183526213Y-95317402D01*
X183559521Y-95331812D01*
X183591452Y-95348024D01*
X183622006Y-95366037D01*
X183651181Y-95385851D01*
X183678979Y-95407466D01*
X183705399Y-95430883D01*
X183730442Y-95456101D01*
X183754107Y-95483121D01*
X183765422Y-95497306D01*
X183787072Y-95526863D01*
X183807325Y-95558015D01*
X183826182Y-95590763D01*
X183843641Y-95625106D01*
X183851847Y-95642876D01*
X183859704Y-95661044D01*
X183867212Y-95679611D01*
X183874370Y-95698577D01*
X183881179Y-95717942D01*
X183887639Y-95737706D01*
X183893750Y-95757868D01*
X183899512Y-95778429D01*
X183904924Y-95799389D01*
X183909987Y-95820748D01*
X183914702Y-95842506D01*
X183919066Y-95864662D01*
X183923082Y-95887218D01*
X183926749Y-95910172D01*
X183930066Y-95933525D01*
X183933034Y-95957276D01*
X183935653Y-95981427D01*
X183937923Y-96005976D01*
X183939843Y-96030924D01*
X183941415Y-96056271D01*
X183942637Y-96082017D01*
X183943510Y-96108161D01*
X183944034Y-96134704D01*
X183944208Y-96161646D01*
X183944042Y-96187410D01*
X183943544Y-96212800D01*
X183942714Y-96237816D01*
X183941552Y-96262458D01*
X183940058Y-96286725D01*
X183938232Y-96310619D01*
X183936074Y-96334139D01*
X183933584Y-96357285D01*
X183930761Y-96380057D01*
X183927607Y-96402455D01*
X183924121Y-96424478D01*
X183920303Y-96446128D01*
X183916153Y-96467404D01*
X183911670Y-96488306D01*
X183906856Y-96508834D01*
X183901710Y-96528988D01*
X183896260Y-96548775D01*
X183890536Y-96568204D01*
X183884537Y-96587274D01*
X183878263Y-96605985D01*
X183868336Y-96633380D01*
X183857792Y-96659967D01*
X183846629Y-96685747D01*
X183834848Y-96710720D01*
X183822449Y-96734885D01*
X183809432Y-96758244D01*
X183795796Y-96780795D01*
X183781542Y-96802540D01*
X183766730Y-96823485D01*
X183751420Y-96843641D01*
X183735612Y-96863007D01*
X183719306Y-96881583D01*
X183702502Y-96899369D01*
X183685200Y-96916364D01*
X183667400Y-96932570D01*
X183649102Y-96947986D01*
X183630306Y-96962612D01*
X183611011Y-96976448D01*
X183597872Y-96985233D01*
X183577925Y-96997770D01*
X183557652Y-97009551D01*
X183537052Y-97020576D01*
X183516127Y-97030846D01*
X183494875Y-97040360D01*
X183473297Y-97049118D01*
X183451392Y-97057121D01*
X183429161Y-97064368D01*
X183406604Y-97070859D01*
X183383720Y-97076595D01*
X183368284Y-97080000D01*
X183371314Y-97100653D01*
X183374787Y-97120361D01*
X183379750Y-97143664D01*
X183385405Y-97165488D01*
X183391752Y-97185834D01*
X183398791Y-97204701D01*
X183404920Y-97218729D01*
X183414772Y-97238439D01*
X183425276Y-97256534D01*
X183436433Y-97273014D01*
X183450274Y-97290201D01*
X183465004Y-97305191D01*
X183480672Y-97318148D01*
X183496900Y-97329234D01*
X183516134Y-97339614D01*
X183536101Y-97347552D01*
X183541207Y-97349155D01*
X183562121Y-97354498D01*
X183583339Y-97358314D01*
X183604863Y-97360604D01*
X183626692Y-97361367D01*
X183648823Y-97360491D01*
X183670885Y-97357864D01*
X183692878Y-97353485D01*
X183714803Y-97347354D01*
X183736659Y-97339471D01*
X183743929Y-97336454D01*
X183761961Y-97328204D01*
X183779421Y-97319024D01*
X183796308Y-97308913D01*
X183812622Y-97297872D01*
X183828365Y-97285901D01*
X183843534Y-97272999D01*
X183849442Y-97267578D01*
X184004780Y-97495212D01*
X183988427Y-97508376D01*
X183971790Y-97520938D01*
X183954870Y-97532899D01*
X183937667Y-97544259D01*
X183920180Y-97555018D01*
X183902410Y-97565176D01*
X183884357Y-97574733D01*
X183866020Y-97583689D01*
X183847400Y-97592044D01*
X183828496Y-97599798D01*
X183815736Y-97604633D01*
X183796585Y-97611442D01*
X183777417Y-97617582D01*
X183758232Y-97623052D01*
X183739029Y-97627851D01*
X183719809Y-97631982D01*
X183700572Y-97635442D01*
X183674896Y-97639014D01*
X183649190Y-97641396D01*
X183623452Y-97642586D01*
X183610572Y-97642735D01*
X183586537Y-97642439D01*
X183562974Y-97641550D01*
X183539883Y-97640069D01*
X183517264Y-97637995D01*
X183495118Y-97635329D01*
X183473443Y-97632070D01*
X183452242Y-97628219D01*
X183431512Y-97623776D01*
X183411255Y-97618740D01*
X183391469Y-97613111D01*
X183378542Y-97609030D01*
X183359661Y-97602484D01*
X183341304Y-97595302D01*
X183317643Y-97584739D01*
X183294913Y-97573046D01*
X183273115Y-97560223D01*
X183252247Y-97546271D01*
X183232311Y-97531189D01*
X183213306Y-97514977D01*
X183204152Y-97506448D01*
X183186582Y-97488534D01*
X183170019Y-97469475D01*
X183154464Y-97449272D01*
X183139916Y-97427923D01*
X183129667Y-97411161D01*
X183119984Y-97393754D01*
X183110868Y-97375704D01*
X183102318Y-97357009D01*
X183094336Y-97337670D01*
X183091801Y-97331081D01*
X183084682Y-97310862D01*
X183078165Y-97289957D01*
X183072249Y-97268364D01*
X183066934Y-97246085D01*
X183062220Y-97223118D01*
X183058107Y-97199465D01*
X183054595Y-97175124D01*
X183051684Y-97150097D01*
X183049374Y-97124383D01*
X183047665Y-97097982D01*
X183046860Y-97080000D01*
X183012906Y-97073040D01*
X182980044Y-97064742D01*
X182948274Y-97055104D01*
X182917594Y-97044126D01*
X182888007Y-97031809D01*
X182859510Y-97018153D01*
X182832106Y-97003157D01*
X182805792Y-96986821D01*
X182780570Y-96969146D01*
X182756440Y-96950131D01*
X182733401Y-96929777D01*
X182711453Y-96908083D01*
X182690597Y-96885050D01*
X182670833Y-96860677D01*
X182652160Y-96834965D01*
X182634578Y-96807913D01*
X182618134Y-96779485D01*
X182602750Y-96749768D01*
X182588428Y-96718761D01*
X182575166Y-96686463D01*
X182562965Y-96652876D01*
X182551826Y-96617999D01*
X182541747Y-96581832D01*
X182532729Y-96544375D01*
X182528618Y-96525163D01*
X182524772Y-96505628D01*
X182521191Y-96485771D01*
X182517876Y-96465591D01*
X182514826Y-96445089D01*
X182512041Y-96424265D01*
X182509521Y-96403118D01*
X182507266Y-96381648D01*
X182505277Y-96359856D01*
X182503553Y-96337742D01*
X182502094Y-96315305D01*
X182500901Y-96292545D01*
X182499973Y-96269463D01*
X182499309Y-96246059D01*
X182498912Y-96222332D01*
X182498779Y-96198283D01*
X182498906Y-96181186D01*
X182855862Y-96181186D01*
X182856198Y-96219173D01*
X182857205Y-96255955D01*
X182858885Y-96291530D01*
X182861235Y-96325900D01*
X182864258Y-96359063D01*
X182867952Y-96391021D01*
X182872318Y-96421773D01*
X182877355Y-96451318D01*
X182883065Y-96479658D01*
X182889445Y-96506792D01*
X182896498Y-96532720D01*
X182904222Y-96557442D01*
X182912618Y-96580958D01*
X182921686Y-96603268D01*
X182931425Y-96624372D01*
X182941836Y-96644270D01*
X182953002Y-96662962D01*
X182965008Y-96680449D01*
X182977854Y-96696729D01*
X182991539Y-96711803D01*
X183006064Y-96725672D01*
X183021428Y-96738334D01*
X183037632Y-96749791D01*
X183054676Y-96760041D01*
X183072559Y-96769086D01*
X183091282Y-96776925D01*
X183110844Y-96783557D01*
X183131246Y-96788984D01*
X183152487Y-96793205D01*
X183174568Y-96796220D01*
X183197489Y-96798029D01*
X183221249Y-96798632D01*
X183245231Y-96798014D01*
X183268327Y-96796159D01*
X183290538Y-96793068D01*
X183311863Y-96788740D01*
X183332304Y-96783176D01*
X183351858Y-96776375D01*
X183370528Y-96768338D01*
X183388311Y-96759064D01*
X183405256Y-96748592D01*
X183421406Y-96736960D01*
X183436763Y-96724168D01*
X183451326Y-96710216D01*
X183465095Y-96695103D01*
X183478071Y-96678831D01*
X183490252Y-96661398D01*
X183501640Y-96642805D01*
X183512379Y-96623082D01*
X183522370Y-96602260D01*
X183531613Y-96580340D01*
X183540108Y-96557320D01*
X183547855Y-96533201D01*
X183553175Y-96514390D01*
X183558074Y-96494962D01*
X183562552Y-96474915D01*
X183566609Y-96454249D01*
X183570275Y-96432896D01*
X183573581Y-96410967D01*
X183576526Y-96388463D01*
X183579111Y-96365383D01*
X183581335Y-96341728D01*
X183583198Y-96317498D01*
X183584701Y-96292693D01*
X183585843Y-96267312D01*
X183586624Y-96241356D01*
X183587045Y-96214825D01*
X183587125Y-96196817D01*
X183586797Y-96158540D01*
X183585812Y-96121499D01*
X183584171Y-96085695D01*
X183581874Y-96051127D01*
X183578920Y-96017795D01*
X183575310Y-95985700D01*
X183571043Y-95954841D01*
X183566120Y-95925219D01*
X183560541Y-95896834D01*
X183554305Y-95869685D01*
X183547413Y-95843772D01*
X183539864Y-95819096D01*
X183531659Y-95795656D01*
X183522798Y-95773453D01*
X183513280Y-95752486D01*
X183503106Y-95732756D01*
X183492239Y-95714182D01*
X183480521Y-95696806D01*
X183467952Y-95680629D01*
X183454532Y-95665650D01*
X183440261Y-95651870D01*
X183425139Y-95639287D01*
X183409166Y-95627903D01*
X183392341Y-95617718D01*
X183374666Y-95608730D01*
X183356140Y-95600941D01*
X183336763Y-95594350D01*
X183316535Y-95588958D01*
X183295455Y-95584764D01*
X183273525Y-95581768D01*
X183250744Y-95579971D01*
X183227111Y-95579371D01*
X183203114Y-95579990D01*
X183179972Y-95581844D01*
X183157685Y-95584936D01*
X183136253Y-95589263D01*
X183115675Y-95594827D01*
X183095953Y-95601628D01*
X183077085Y-95609665D01*
X183059072Y-95618939D01*
X183041990Y-95629418D01*
X183025672Y-95641073D01*
X183010117Y-95653904D01*
X182995325Y-95667909D01*
X182981296Y-95683091D01*
X182968031Y-95699447D01*
X182955528Y-95716979D01*
X182943789Y-95735687D01*
X182932806Y-95755532D01*
X182922571Y-95776475D01*
X182913084Y-95798518D01*
X182904344Y-95821660D01*
X182896353Y-95845901D01*
X182890850Y-95864804D01*
X182885768Y-95884324D01*
X182881107Y-95904462D01*
X182876867Y-95925219D01*
X182873113Y-95946477D01*
X182869729Y-95968301D01*
X182866713Y-95990693D01*
X182864067Y-96013650D01*
X182861790Y-96037175D01*
X182859883Y-96061266D01*
X182858344Y-96085924D01*
X182857175Y-96111149D01*
X182856375Y-96136941D01*
X182855944Y-96163299D01*
X182855862Y-96181186D01*
X182498906Y-96181186D01*
X182499000Y-96168613D01*
X182499664Y-96139443D01*
X182500771Y-96110773D01*
X182502321Y-96082603D01*
X182504313Y-96054933D01*
X182506747Y-96027763D01*
X182509625Y-96001093D01*
X182512945Y-95974923D01*
X182516708Y-95949252D01*
X182520914Y-95924082D01*
X182525562Y-95899412D01*
X182530653Y-95875241D01*
X182536186Y-95851571D01*
X182542163Y-95828400D01*
X182548582Y-95805729D01*
X182555443Y-95783558D01*
X182562753Y-95761876D01*
X182570396Y-95740671D01*
X182578370Y-95719943D01*
X182586676Y-95699692D01*
X182595314Y-95679917D01*
X182604284Y-95660620D01*
X182613587Y-95641800D01*
X182623221Y-95623457D01*
X182633187Y-95605591D01*
X182643485Y-95588202D01*
X182654116Y-95571290D01*
X182665078Y-95554856D01*
X182676372Y-95538898D01*
X182693936Y-95515855D01*
X182712247Y-95493886D01*
X182731232Y-95472878D01*
X182750819Y-95452899D01*
X182771006Y-95433952D01*
X182791794Y-95416034D01*
X182813183Y-95399147D01*
X182835174Y-95383290D01*
X182857765Y-95368464D01*
X182880958Y-95354668D01*
X182904752Y-95341903D01*
X182929146Y-95330167D01*
X182945743Y-95322916D01*
X182971090Y-95312877D01*
X182996754Y-95303825D01*
X183022736Y-95295761D01*
X183049035Y-95288684D01*
X183075652Y-95282595D01*
X183102587Y-95277493D01*
X183129840Y-95273379D01*
X183157410Y-95270252D01*
X183185298Y-95268112D01*
X183213504Y-95266960D01*
X183232485Y-95266741D01*
X183254477Y-95266966D01*
G37*
G36*
X185413085Y-96423963D02*
G01*
X185412905Y-96445111D01*
X185412367Y-96465935D01*
X185411470Y-96486434D01*
X185410215Y-96506609D01*
X185408601Y-96526459D01*
X185406627Y-96545985D01*
X185402995Y-96574666D01*
X185398556Y-96602617D01*
X185393310Y-96629838D01*
X185387256Y-96656330D01*
X185380395Y-96682091D01*
X185372727Y-96707123D01*
X185367167Y-96723405D01*
X185358205Y-96747207D01*
X185348540Y-96770254D01*
X185338170Y-96792545D01*
X185327096Y-96814080D01*
X185315318Y-96834860D01*
X185302836Y-96854884D01*
X185289649Y-96874152D01*
X185275759Y-96892665D01*
X185261165Y-96910422D01*
X185245866Y-96927424D01*
X185235276Y-96938339D01*
X185218825Y-96954002D01*
X185201713Y-96968936D01*
X185183941Y-96983140D01*
X185165506Y-96996613D01*
X185146411Y-97009358D01*
X185126655Y-97021372D01*
X185106237Y-97032656D01*
X185085158Y-97043210D01*
X185063418Y-97053035D01*
X185041017Y-97062130D01*
X185025716Y-97067787D01*
X185002277Y-97075557D01*
X184978306Y-97082562D01*
X184953802Y-97088803D01*
X184928766Y-97094280D01*
X184903198Y-97098993D01*
X184877098Y-97102941D01*
X184850465Y-97106125D01*
X184823299Y-97108545D01*
X184795602Y-97110201D01*
X184767371Y-97111093D01*
X184748256Y-97111263D01*
X184726833Y-97111093D01*
X184705796Y-97110583D01*
X184685144Y-97109734D01*
X184664877Y-97108545D01*
X184644996Y-97107017D01*
X184625501Y-97105149D01*
X184596980Y-97101710D01*
X184569327Y-97097507D01*
X184542541Y-97092539D01*
X184516622Y-97086808D01*
X184491570Y-97080312D01*
X184467386Y-97073052D01*
X184451745Y-97067787D01*
X184428980Y-97059214D01*
X184407031Y-97049979D01*
X184385898Y-97040082D01*
X184365581Y-97029525D01*
X184346079Y-97018307D01*
X184327393Y-97006427D01*
X184309522Y-96993886D01*
X184292468Y-96980684D01*
X184276229Y-96966821D01*
X184260806Y-96952297D01*
X184250977Y-96942247D01*
X184236967Y-96926550D01*
X184223695Y-96910235D01*
X184211161Y-96893303D01*
X184199366Y-96875751D01*
X184188309Y-96857582D01*
X184177991Y-96838794D01*
X184168411Y-96819389D01*
X184159569Y-96799364D01*
X184151466Y-96778722D01*
X184144102Y-96757462D01*
X184139602Y-96742944D01*
X184133492Y-96720714D01*
X184127982Y-96697985D01*
X184123073Y-96674758D01*
X184118765Y-96651033D01*
X184115059Y-96626810D01*
X184111953Y-96602089D01*
X184109449Y-96576870D01*
X184107546Y-96551153D01*
X184106243Y-96524938D01*
X184105542Y-96498224D01*
X184105408Y-96480139D01*
X184105408Y-95298004D01*
X184443441Y-95298004D01*
X184443441Y-96456203D01*
X184443685Y-96478239D01*
X184444418Y-96499648D01*
X184445639Y-96520432D01*
X184447348Y-96540589D01*
X184449547Y-96560121D01*
X184452981Y-96583656D01*
X184457179Y-96606212D01*
X184459072Y-96614961D01*
X184464670Y-96636125D01*
X184471389Y-96656263D01*
X184479229Y-96675375D01*
X184488190Y-96693462D01*
X184498273Y-96710524D01*
X184509476Y-96726559D01*
X184514271Y-96732686D01*
X184529630Y-96749980D01*
X184546397Y-96765590D01*
X184564572Y-96779518D01*
X184584155Y-96791762D01*
X184601550Y-96800681D01*
X184612457Y-96805471D01*
X184631655Y-96812507D01*
X184652308Y-96818351D01*
X184674417Y-96823002D01*
X184697980Y-96826460D01*
X184717878Y-96828368D01*
X184738707Y-96829513D01*
X184760468Y-96829895D01*
X184781061Y-96829567D01*
X184800829Y-96828582D01*
X184824380Y-96826428D01*
X184846644Y-96823249D01*
X184867619Y-96819044D01*
X184887306Y-96813813D01*
X184902129Y-96808890D01*
X184923057Y-96800103D01*
X184942612Y-96789496D01*
X184960793Y-96777068D01*
X184977600Y-96762820D01*
X184993033Y-96746751D01*
X184997872Y-96740990D01*
X185011656Y-96722478D01*
X185022094Y-96705633D01*
X185031577Y-96687501D01*
X185040107Y-96668081D01*
X185047682Y-96647373D01*
X185054303Y-96625377D01*
X185055513Y-96620823D01*
X185061142Y-96597021D01*
X185064958Y-96576898D01*
X185068164Y-96555813D01*
X185070759Y-96533766D01*
X185072744Y-96510758D01*
X185074118Y-96486788D01*
X185074881Y-96461856D01*
X185075053Y-96442526D01*
X185075053Y-95298004D01*
X185413085Y-95298004D01*
X185413085Y-96423963D01*
G37*
G36*
X185776518Y-97080000D02*
G01*
X185776518Y-95298004D01*
X186857537Y-95298004D01*
X186857537Y-95579371D01*
X186119923Y-95579371D01*
X186119923Y-96017055D01*
X186823343Y-96017055D01*
X186823343Y-96298422D01*
X186119923Y-96298422D01*
X186119923Y-96798632D01*
X186857537Y-96798632D01*
X186857537Y-97080000D01*
X185776518Y-97080000D01*
G37*
G36*
X188440719Y-97017473D02*
G01*
X188418348Y-97026143D01*
X188396114Y-97034383D01*
X188374018Y-97042194D01*
X188352059Y-97049576D01*
X188330237Y-97056528D01*
X188308553Y-97063051D01*
X188287006Y-97069145D01*
X188265597Y-97074809D01*
X188244325Y-97080044D01*
X188223190Y-97084850D01*
X188209177Y-97087815D01*
X188188121Y-97092006D01*
X188166902Y-97095784D01*
X188145520Y-97099150D01*
X188123974Y-97102103D01*
X188102266Y-97104645D01*
X188080394Y-97106775D01*
X188058359Y-97108492D01*
X188036161Y-97109797D01*
X188013800Y-97110690D01*
X187991276Y-97111171D01*
X187976169Y-97111263D01*
X187952163Y-97111041D01*
X187928504Y-97110377D01*
X187905192Y-97109270D01*
X187882227Y-97107721D01*
X187859610Y-97105729D01*
X187837340Y-97103294D01*
X187815417Y-97100417D01*
X187793842Y-97097096D01*
X187772614Y-97093334D01*
X187751733Y-97089128D01*
X187731199Y-97084480D01*
X187711013Y-97079389D01*
X187691174Y-97073855D01*
X187671682Y-97067879D01*
X187652538Y-97061460D01*
X187633741Y-97054598D01*
X187615298Y-97047239D01*
X187597219Y-97039448D01*
X187570779Y-97026953D01*
X187545155Y-97013487D01*
X187520347Y-96999052D01*
X187496354Y-96983646D01*
X187473177Y-96967270D01*
X187450816Y-96949923D01*
X187429271Y-96931606D01*
X187408541Y-96912319D01*
X187388627Y-96892062D01*
X187382170Y-96885094D01*
X187363457Y-96863460D01*
X187345603Y-96840872D01*
X187328607Y-96817332D01*
X187312470Y-96792839D01*
X187302189Y-96775980D01*
X187292289Y-96758698D01*
X187282771Y-96740992D01*
X187273635Y-96722863D01*
X187264881Y-96704310D01*
X187256508Y-96685334D01*
X187248516Y-96665933D01*
X187240907Y-96646110D01*
X187233678Y-96625862D01*
X187226832Y-96605191D01*
X187220444Y-96584099D01*
X187214467Y-96562586D01*
X187208903Y-96540654D01*
X187203751Y-96518302D01*
X187199011Y-96495530D01*
X187194684Y-96472339D01*
X187190768Y-96448727D01*
X187187265Y-96424696D01*
X187184174Y-96400245D01*
X187181494Y-96375374D01*
X187179228Y-96350084D01*
X187177373Y-96324373D01*
X187175930Y-96298243D01*
X187174900Y-96271693D01*
X187174282Y-96244723D01*
X187174076Y-96217334D01*
X187174301Y-96189198D01*
X187174976Y-96161456D01*
X187176102Y-96134106D01*
X187177678Y-96107150D01*
X187179705Y-96080586D01*
X187182181Y-96054416D01*
X187185109Y-96028639D01*
X187188486Y-96003255D01*
X187192314Y-95978264D01*
X187196592Y-95953666D01*
X187201320Y-95929461D01*
X187206499Y-95905649D01*
X187212128Y-95882231D01*
X187218207Y-95859205D01*
X187224737Y-95836573D01*
X187231717Y-95814333D01*
X187239115Y-95792445D01*
X187246898Y-95770988D01*
X187255067Y-95749962D01*
X187263621Y-95729367D01*
X187272561Y-95709204D01*
X187281886Y-95689472D01*
X187291596Y-95670171D01*
X187301692Y-95651301D01*
X187312174Y-95632863D01*
X187323041Y-95614855D01*
X187334293Y-95597279D01*
X187345931Y-95580135D01*
X187357954Y-95563421D01*
X187370363Y-95547139D01*
X187383157Y-95531288D01*
X187396337Y-95515868D01*
X187409947Y-95500891D01*
X187423913Y-95486368D01*
X187438234Y-95472300D01*
X187452909Y-95458685D01*
X187467940Y-95445524D01*
X187483325Y-95432818D01*
X187499066Y-95420566D01*
X187515161Y-95408768D01*
X187531611Y-95397424D01*
X187548416Y-95386534D01*
X187565576Y-95376098D01*
X187583091Y-95366117D01*
X187600961Y-95356590D01*
X187619185Y-95347516D01*
X187637765Y-95338897D01*
X187656699Y-95330732D01*
X187676019Y-95322983D01*
X187695633Y-95315734D01*
X187715541Y-95308985D01*
X187735743Y-95302736D01*
X187756238Y-95296987D01*
X187777027Y-95291737D01*
X187798110Y-95286988D01*
X187819487Y-95282739D01*
X187841158Y-95278989D01*
X187863123Y-95275739D01*
X187885381Y-95272990D01*
X187907934Y-95270740D01*
X187930780Y-95268990D01*
X187953920Y-95267740D01*
X187977354Y-95266991D01*
X188001082Y-95266741D01*
X188024071Y-95266844D01*
X188046511Y-95267153D01*
X188068401Y-95267668D01*
X188089742Y-95268389D01*
X188110533Y-95269317D01*
X188117341Y-95269672D01*
X188137606Y-95270759D01*
X188157733Y-95272190D01*
X188177723Y-95273965D01*
X188197575Y-95276083D01*
X188217290Y-95278544D01*
X188223831Y-95279441D01*
X188243466Y-95282361D01*
X188263170Y-95285624D01*
X188282942Y-95289230D01*
X188302783Y-95293180D01*
X188322692Y-95297473D01*
X188329344Y-95298981D01*
X188349632Y-95303617D01*
X188370194Y-95308735D01*
X188391031Y-95314334D01*
X188412143Y-95320413D01*
X188433529Y-95326973D01*
X188440719Y-95329267D01*
X188440719Y-95673161D01*
X188418923Y-95663893D01*
X188397316Y-95655140D01*
X188375898Y-95646903D01*
X188354669Y-95639180D01*
X188333629Y-95631973D01*
X188312778Y-95625281D01*
X188292115Y-95619105D01*
X188271642Y-95613443D01*
X188251357Y-95608297D01*
X188231262Y-95603666D01*
X188217970Y-95600865D01*
X188198353Y-95597024D01*
X188179072Y-95593560D01*
X188153884Y-95589530D01*
X188129292Y-95586172D01*
X188105295Y-95583485D01*
X188081894Y-95581470D01*
X188059088Y-95580127D01*
X188036877Y-95579455D01*
X188025995Y-95579371D01*
X188002324Y-95579771D01*
X187979306Y-95580969D01*
X187956941Y-95582965D01*
X187935228Y-95585760D01*
X187914168Y-95589353D01*
X187893760Y-95593746D01*
X187874005Y-95598936D01*
X187854903Y-95604925D01*
X187836453Y-95611713D01*
X187812868Y-95622006D01*
X187807153Y-95624801D01*
X187785057Y-95636608D01*
X187763953Y-95649561D01*
X187743841Y-95663658D01*
X187724721Y-95678900D01*
X187706594Y-95695288D01*
X187689459Y-95712820D01*
X187673316Y-95731497D01*
X187658165Y-95751318D01*
X187644106Y-95772194D01*
X187630993Y-95794030D01*
X187618827Y-95816829D01*
X187610323Y-95834559D01*
X187602352Y-95852830D01*
X187594913Y-95871642D01*
X187588006Y-95890995D01*
X187581632Y-95910889D01*
X187575790Y-95931323D01*
X187572191Y-95945247D01*
X187567303Y-95966511D01*
X187562895Y-95988169D01*
X187558968Y-96010223D01*
X187555522Y-96032671D01*
X187552557Y-96055514D01*
X187550072Y-96078753D01*
X187548069Y-96102386D01*
X187546546Y-96126414D01*
X187545504Y-96150838D01*
X187544943Y-96175656D01*
X187544836Y-96192421D01*
X187545081Y-96218904D01*
X187545815Y-96244863D01*
X187547039Y-96270298D01*
X187548752Y-96295209D01*
X187550954Y-96319597D01*
X187553646Y-96343460D01*
X187556828Y-96366800D01*
X187560498Y-96389617D01*
X187564659Y-96411909D01*
X187569308Y-96433678D01*
X187572680Y-96447899D01*
X187578263Y-96468664D01*
X187584386Y-96488829D01*
X187591051Y-96508392D01*
X187598257Y-96527354D01*
X187606003Y-96545715D01*
X187614291Y-96563475D01*
X187626182Y-96586221D01*
X187639036Y-96607897D01*
X187652851Y-96628505D01*
X187660119Y-96638408D01*
X187675407Y-96657368D01*
X187691718Y-96675167D01*
X187709051Y-96691806D01*
X187727408Y-96707285D01*
X187746787Y-96721604D01*
X187767189Y-96734762D01*
X187788613Y-96746761D01*
X187811061Y-96757599D01*
X187834676Y-96767216D01*
X187859360Y-96775551D01*
X187878574Y-96780960D01*
X187898389Y-96785649D01*
X187918805Y-96789616D01*
X187939823Y-96792862D01*
X187961441Y-96795386D01*
X187983660Y-96797189D01*
X188006481Y-96798271D01*
X188029903Y-96798632D01*
X188050128Y-96798258D01*
X188071056Y-96797136D01*
X188092684Y-96795266D01*
X188115014Y-96792648D01*
X188128088Y-96790816D01*
X188147923Y-96787713D01*
X188167862Y-96784267D01*
X188187903Y-96780478D01*
X188208047Y-96776345D01*
X188228295Y-96771868D01*
X188235067Y-96770300D01*
X188255514Y-96765382D01*
X188275825Y-96760156D01*
X188295997Y-96754620D01*
X188316033Y-96748776D01*
X188335931Y-96742622D01*
X188342533Y-96740502D01*
X188362059Y-96733890D01*
X188381070Y-96727244D01*
X188399566Y-96720564D01*
X188420493Y-96712726D01*
X188440719Y-96704842D01*
X188440719Y-97017473D01*
G37*
G36*
X189545674Y-95579371D02*
G01*
X189545674Y-97080000D01*
X189199337Y-97080000D01*
X189199337Y-95579371D01*
X188707432Y-95579371D01*
X188707432Y-95298004D01*
X190037579Y-95298004D01*
X190037579Y-95579371D01*
X189545674Y-95579371D01*
G37*
G36*
X190943242Y-95266969D02*
G01*
X190964891Y-95267653D01*
X190986195Y-95268793D01*
X191007154Y-95270389D01*
X191027769Y-95272441D01*
X191048040Y-95274949D01*
X191067966Y-95277914D01*
X191087548Y-95281334D01*
X191106786Y-95285211D01*
X191144227Y-95294331D01*
X191180291Y-95305277D01*
X191214978Y-95318046D01*
X191248286Y-95332639D01*
X191280217Y-95349057D01*
X191310770Y-95367299D01*
X191339946Y-95387365D01*
X191367744Y-95409255D01*
X191394164Y-95432970D01*
X191419207Y-95458508D01*
X191442871Y-95485871D01*
X191454187Y-95500237D01*
X191475837Y-95530200D01*
X191496090Y-95561839D01*
X191514946Y-95595154D01*
X191532406Y-95630143D01*
X191540612Y-95648267D01*
X191548469Y-95666808D01*
X191555976Y-95685769D01*
X191563135Y-95705149D01*
X191569944Y-95724947D01*
X191576404Y-95745165D01*
X191582515Y-95765801D01*
X191588277Y-95786856D01*
X191593689Y-95808330D01*
X191598752Y-95830222D01*
X191603466Y-95852534D01*
X191607831Y-95875264D01*
X191611847Y-95898413D01*
X191615513Y-95921981D01*
X191618831Y-95945968D01*
X191621799Y-95970374D01*
X191624418Y-95995198D01*
X191626688Y-96020442D01*
X191628608Y-96046104D01*
X191630179Y-96072185D01*
X191631402Y-96098685D01*
X191632275Y-96125603D01*
X191632798Y-96152941D01*
X191632973Y-96180697D01*
X191632750Y-96210785D01*
X191632080Y-96240354D01*
X191630964Y-96269403D01*
X191629401Y-96297934D01*
X191627392Y-96325946D01*
X191624936Y-96353438D01*
X191622034Y-96380412D01*
X191618685Y-96406866D01*
X191614889Y-96432802D01*
X191610648Y-96458218D01*
X191605959Y-96483116D01*
X191600825Y-96507494D01*
X191595243Y-96531354D01*
X191589215Y-96554694D01*
X191582741Y-96577516D01*
X191575820Y-96599818D01*
X191568569Y-96621556D01*
X191560982Y-96642805D01*
X191553060Y-96663565D01*
X191544801Y-96683838D01*
X191536207Y-96703621D01*
X191527277Y-96722916D01*
X191518011Y-96741723D01*
X191508409Y-96760041D01*
X191498472Y-96777871D01*
X191488198Y-96795212D01*
X191477589Y-96812065D01*
X191466644Y-96828429D01*
X191449596Y-96852060D01*
X191431793Y-96874591D01*
X191419505Y-96889002D01*
X191400515Y-96909736D01*
X191380916Y-96929439D01*
X191360708Y-96948112D01*
X191339889Y-96965755D01*
X191318461Y-96982367D01*
X191296424Y-96997949D01*
X191273776Y-97012501D01*
X191250519Y-97026022D01*
X191226653Y-97038513D01*
X191202176Y-97049973D01*
X191185520Y-97057041D01*
X191160261Y-97066731D01*
X191134676Y-97075468D01*
X191108764Y-97083251D01*
X191082526Y-97090082D01*
X191055962Y-97095960D01*
X191029071Y-97100884D01*
X191001854Y-97104856D01*
X190974311Y-97107874D01*
X190946442Y-97109939D01*
X190918246Y-97111051D01*
X190899267Y-97111263D01*
X190877274Y-97111034D01*
X190855624Y-97110349D01*
X190834318Y-97109206D01*
X190813355Y-97107607D01*
X190792736Y-97105550D01*
X190772460Y-97103037D01*
X190752527Y-97100066D01*
X190732938Y-97096639D01*
X190713693Y-97092754D01*
X190676232Y-97083614D01*
X190640145Y-97072646D01*
X190605432Y-97059850D01*
X190572093Y-97045226D01*
X190540127Y-97028774D01*
X190509536Y-97010494D01*
X190480319Y-96990386D01*
X190452475Y-96968450D01*
X190426005Y-96944686D01*
X190400909Y-96919094D01*
X190377187Y-96891673D01*
X190365841Y-96877278D01*
X190344250Y-96847202D01*
X190324053Y-96815469D01*
X190305248Y-96782080D01*
X190287836Y-96747035D01*
X190279652Y-96728892D01*
X190271817Y-96710334D01*
X190264330Y-96691362D01*
X190257191Y-96671977D01*
X190250401Y-96652177D01*
X190243958Y-96631963D01*
X190237864Y-96611335D01*
X190232118Y-96590293D01*
X190226720Y-96568836D01*
X190221671Y-96546966D01*
X190216970Y-96524682D01*
X190212617Y-96501984D01*
X190208612Y-96478871D01*
X190204956Y-96455345D01*
X190201647Y-96431404D01*
X190198687Y-96407049D01*
X190196076Y-96382281D01*
X190193812Y-96357098D01*
X190191897Y-96331501D01*
X190190330Y-96305490D01*
X190189111Y-96279065D01*
X190188240Y-96252226D01*
X190187718Y-96224973D01*
X190187544Y-96197306D01*
X190187662Y-96181186D01*
X190544627Y-96181186D01*
X190544963Y-96219465D01*
X190545970Y-96256512D01*
X190547649Y-96292326D01*
X190550000Y-96326907D01*
X190553023Y-96360256D01*
X190556717Y-96392372D01*
X190561083Y-96423255D01*
X190566120Y-96452906D01*
X190571829Y-96481324D01*
X190578210Y-96508509D01*
X190585263Y-96534462D01*
X190592987Y-96559182D01*
X190601383Y-96582670D01*
X190610450Y-96604924D01*
X190620190Y-96625946D01*
X190630600Y-96645736D01*
X190641767Y-96664250D01*
X190653773Y-96681571D01*
X190666619Y-96697696D01*
X190680304Y-96712628D01*
X190694829Y-96726364D01*
X190710193Y-96738907D01*
X190726397Y-96750254D01*
X190743441Y-96760408D01*
X190761324Y-96769366D01*
X190780046Y-96777131D01*
X190799609Y-96783700D01*
X190820011Y-96789076D01*
X190841252Y-96793256D01*
X190863333Y-96796243D01*
X190886254Y-96798034D01*
X190910014Y-96798632D01*
X190933996Y-96798014D01*
X190957092Y-96796159D01*
X190979303Y-96793068D01*
X191000628Y-96788740D01*
X191021068Y-96783176D01*
X191040623Y-96776375D01*
X191059292Y-96768338D01*
X191077076Y-96759064D01*
X191094021Y-96748592D01*
X191110171Y-96736960D01*
X191125528Y-96724168D01*
X191140091Y-96710216D01*
X191153860Y-96695103D01*
X191166836Y-96678831D01*
X191179017Y-96661398D01*
X191190405Y-96642805D01*
X191201144Y-96623082D01*
X191211135Y-96602260D01*
X191220378Y-96580340D01*
X191228873Y-96557320D01*
X191236620Y-96533201D01*
X191241940Y-96514390D01*
X191246838Y-96494962D01*
X191251316Y-96474915D01*
X191255374Y-96454249D01*
X191259040Y-96432896D01*
X191262346Y-96410967D01*
X191265291Y-96388463D01*
X191267876Y-96365383D01*
X191270100Y-96341728D01*
X191271963Y-96317498D01*
X191273466Y-96292693D01*
X191274608Y-96267312D01*
X191275389Y-96241356D01*
X191275810Y-96214825D01*
X191275890Y-96196817D01*
X191275556Y-96158540D01*
X191274554Y-96121499D01*
X191272885Y-96085695D01*
X191270547Y-96051127D01*
X191267542Y-96017795D01*
X191263869Y-95985700D01*
X191259528Y-95954841D01*
X191254519Y-95925219D01*
X191248842Y-95896834D01*
X191242497Y-95869685D01*
X191235485Y-95843772D01*
X191227805Y-95819096D01*
X191219457Y-95795656D01*
X191210441Y-95773453D01*
X191200757Y-95752486D01*
X191190405Y-95732756D01*
X191179349Y-95714182D01*
X191167431Y-95696806D01*
X191154650Y-95680629D01*
X191141007Y-95665650D01*
X191126501Y-95651870D01*
X191111133Y-95639287D01*
X191094902Y-95627903D01*
X191077809Y-95617718D01*
X191059853Y-95608730D01*
X191041035Y-95600941D01*
X191021355Y-95594350D01*
X191000811Y-95588958D01*
X190979406Y-95584764D01*
X190957138Y-95581768D01*
X190934007Y-95579971D01*
X190910014Y-95579371D01*
X190886155Y-95579990D01*
X190863181Y-95581844D01*
X190841092Y-95584936D01*
X190819889Y-95589263D01*
X190799571Y-95594827D01*
X190780138Y-95601628D01*
X190761591Y-95609665D01*
X190743929Y-95618939D01*
X190727084Y-95629411D01*
X190710987Y-95641043D01*
X190695638Y-95653835D01*
X190681037Y-95667787D01*
X190667183Y-95682900D01*
X190654078Y-95699173D01*
X190641721Y-95716605D01*
X190630112Y-95735198D01*
X190619373Y-95754929D01*
X190609382Y-95775773D01*
X190600139Y-95797732D01*
X190591644Y-95820806D01*
X190583897Y-95844993D01*
X190578577Y-95863865D01*
X190573678Y-95883364D01*
X190569200Y-95903490D01*
X190565143Y-95924242D01*
X190561477Y-95945509D01*
X190558171Y-95967359D01*
X190555226Y-95989793D01*
X190552641Y-96012811D01*
X190550417Y-96036413D01*
X190548554Y-96060599D01*
X190547051Y-96085368D01*
X190545909Y-96110722D01*
X190545128Y-96136659D01*
X190544707Y-96163181D01*
X190544627Y-96181186D01*
X190187662Y-96181186D01*
X190187765Y-96167220D01*
X190188429Y-96137657D01*
X190189536Y-96108617D01*
X190191085Y-96080100D01*
X190193077Y-96052105D01*
X190195512Y-96024634D01*
X190198390Y-95997685D01*
X190201710Y-95971259D01*
X190205473Y-95945356D01*
X190209678Y-95919976D01*
X190214327Y-95895118D01*
X190219418Y-95870784D01*
X190224951Y-95846972D01*
X190230927Y-95823683D01*
X190237346Y-95800917D01*
X190244208Y-95778674D01*
X190251518Y-95756877D01*
X190259160Y-95735572D01*
X190267135Y-95714760D01*
X190275441Y-95694440D01*
X190284079Y-95674613D01*
X190293049Y-95655278D01*
X190302351Y-95636435D01*
X190311986Y-95618084D01*
X190321952Y-95600226D01*
X190332250Y-95582860D01*
X190342880Y-95565986D01*
X190353843Y-95549604D01*
X190370909Y-95525955D01*
X190388722Y-95503414D01*
X190401012Y-95489002D01*
X190419997Y-95468272D01*
X190439583Y-95448581D01*
X190459771Y-95429930D01*
X190480559Y-95412317D01*
X190501948Y-95395743D01*
X190523939Y-95380209D01*
X190546530Y-95365713D01*
X190569723Y-95352256D01*
X190593516Y-95339838D01*
X190617911Y-95328460D01*
X190634508Y-95321451D01*
X190659855Y-95311674D01*
X190685519Y-95302858D01*
X190711501Y-95295004D01*
X190737800Y-95288112D01*
X190764417Y-95282181D01*
X190791352Y-95277213D01*
X190818605Y-95273205D01*
X190846175Y-95270160D01*
X190874063Y-95268076D01*
X190902269Y-95266954D01*
X190921249Y-95266741D01*
X190943242Y-95266969D01*
G37*
G36*
X193075960Y-97080000D02*
G01*
X192678821Y-97080000D01*
X192501501Y-96503098D01*
X192437020Y-96268625D01*
X192374983Y-96508960D01*
X192200593Y-97080000D01*
X191820063Y-97080000D01*
X191719923Y-95298004D01*
X192017900Y-95298004D01*
X192060398Y-96438129D01*
X192071633Y-96749783D01*
X192152722Y-96481116D01*
X192350558Y-95829476D01*
X192563538Y-95829476D01*
X192772122Y-96530942D01*
X192839533Y-96746852D01*
X192844906Y-96469392D01*
X192890335Y-95298004D01*
X193177565Y-95298004D01*
X193075960Y-97080000D01*
G37*
G36*
X194753908Y-97080000D02*
G01*
X194380217Y-97080000D01*
X194281054Y-96736106D01*
X193654815Y-96736106D01*
X193553210Y-97080000D01*
X193217621Y-97080000D01*
X193404274Y-96454738D01*
X193735904Y-96454738D01*
X194205339Y-96454738D01*
X193971843Y-95603796D01*
X193735904Y-96454738D01*
X193404274Y-96454738D01*
X193749582Y-95298004D01*
X194221947Y-95298004D01*
X194753908Y-97080000D01*
G37*
G36*
X195696686Y-95579371D02*
G01*
X195696686Y-97080000D01*
X195350349Y-97080000D01*
X195350349Y-95579371D01*
X194858444Y-95579371D01*
X194858444Y-95298004D01*
X196188591Y-95298004D01*
X196188591Y-95579371D01*
X195696686Y-95579371D01*
G37*
G36*
X197667237Y-97017473D02*
G01*
X197644866Y-97026143D01*
X197622632Y-97034383D01*
X197600536Y-97042194D01*
X197578577Y-97049576D01*
X197556755Y-97056528D01*
X197535071Y-97063051D01*
X197513524Y-97069145D01*
X197492115Y-97074809D01*
X197470843Y-97080044D01*
X197449708Y-97084850D01*
X197435695Y-97087815D01*
X197414639Y-97092006D01*
X197393420Y-97095784D01*
X197372037Y-97099150D01*
X197350492Y-97102103D01*
X197328783Y-97104645D01*
X197306912Y-97106775D01*
X197284877Y-97108492D01*
X197262679Y-97109797D01*
X197240318Y-97110690D01*
X197217794Y-97111171D01*
X197202687Y-97111263D01*
X197178680Y-97111041D01*
X197155021Y-97110377D01*
X197131710Y-97109270D01*
X197108745Y-97107721D01*
X197086128Y-97105729D01*
X197063858Y-97103294D01*
X197041935Y-97100417D01*
X197020360Y-97097096D01*
X196999131Y-97093334D01*
X196978251Y-97089128D01*
X196957717Y-97084480D01*
X196937531Y-97079389D01*
X196917692Y-97073855D01*
X196898200Y-97067879D01*
X196879056Y-97061460D01*
X196860258Y-97054598D01*
X196841816Y-97047239D01*
X196823736Y-97039448D01*
X196797297Y-97026953D01*
X196771673Y-97013487D01*
X196746864Y-96999052D01*
X196722872Y-96983646D01*
X196699695Y-96967270D01*
X196677334Y-96949923D01*
X196655789Y-96931606D01*
X196635059Y-96912319D01*
X196615145Y-96892062D01*
X196608688Y-96885094D01*
X196589975Y-96863460D01*
X196572121Y-96840872D01*
X196555125Y-96817332D01*
X196538987Y-96792839D01*
X196528706Y-96775980D01*
X196518807Y-96758698D01*
X196509289Y-96740992D01*
X196500153Y-96722863D01*
X196491398Y-96704310D01*
X196483025Y-96685334D01*
X196475034Y-96665933D01*
X196467424Y-96646110D01*
X196460196Y-96625862D01*
X196453350Y-96605191D01*
X196446961Y-96584099D01*
X196440985Y-96562586D01*
X196435421Y-96540654D01*
X196430269Y-96518302D01*
X196425529Y-96495530D01*
X196421201Y-96472339D01*
X196417286Y-96448727D01*
X196413783Y-96424696D01*
X196410691Y-96400245D01*
X196408012Y-96375374D01*
X196405745Y-96350084D01*
X196403891Y-96324373D01*
X196402448Y-96298243D01*
X196401418Y-96271693D01*
X196400799Y-96244723D01*
X196400593Y-96217334D01*
X196400819Y-96189198D01*
X196401494Y-96161456D01*
X196402620Y-96134106D01*
X196404196Y-96107150D01*
X196406222Y-96080586D01*
X196408699Y-96054416D01*
X196411626Y-96028639D01*
X196415004Y-96003255D01*
X196418831Y-95978264D01*
X196423110Y-95953666D01*
X196427838Y-95929461D01*
X196433017Y-95905649D01*
X196438646Y-95882231D01*
X196444725Y-95859205D01*
X196451255Y-95836573D01*
X196458235Y-95814333D01*
X196465633Y-95792445D01*
X196473416Y-95770988D01*
X196481585Y-95749962D01*
X196490139Y-95729367D01*
X196499079Y-95709204D01*
X196508404Y-95689472D01*
X196518114Y-95670171D01*
X196528210Y-95651301D01*
X196538692Y-95632863D01*
X196549559Y-95614855D01*
X196560811Y-95597279D01*
X196572449Y-95580135D01*
X196584472Y-95563421D01*
X196596881Y-95547139D01*
X196609675Y-95531288D01*
X196622854Y-95515868D01*
X196636465Y-95500891D01*
X196650431Y-95486368D01*
X196664752Y-95472300D01*
X196679427Y-95458685D01*
X196694458Y-95445524D01*
X196709843Y-95432818D01*
X196725583Y-95420566D01*
X196741679Y-95408768D01*
X196758129Y-95397424D01*
X196774934Y-95386534D01*
X196792094Y-95376098D01*
X196809609Y-95366117D01*
X196827478Y-95356590D01*
X196845703Y-95347516D01*
X196864283Y-95338897D01*
X196883217Y-95330732D01*
X196902537Y-95322983D01*
X196922151Y-95315734D01*
X196942059Y-95308985D01*
X196962260Y-95302736D01*
X196982756Y-95296987D01*
X197003545Y-95291737D01*
X197024628Y-95286988D01*
X197046005Y-95282739D01*
X197067676Y-95278989D01*
X197089641Y-95275739D01*
X197111899Y-95272990D01*
X197134452Y-95270740D01*
X197157298Y-95268990D01*
X197180438Y-95267740D01*
X197203872Y-95266991D01*
X197227600Y-95266741D01*
X197250589Y-95266844D01*
X197273029Y-95267153D01*
X197294919Y-95267668D01*
X197316260Y-95268389D01*
X197337051Y-95269317D01*
X197343859Y-95269672D01*
X197364124Y-95270759D01*
X197384251Y-95272190D01*
X197404241Y-95273965D01*
X197424093Y-95276083D01*
X197443808Y-95278544D01*
X197450349Y-95279441D01*
X197469984Y-95282361D01*
X197489688Y-95285624D01*
X197509460Y-95289230D01*
X197529301Y-95293180D01*
X197549210Y-95297473D01*
X197555862Y-95298981D01*
X197576149Y-95303617D01*
X197596712Y-95308735D01*
X197617549Y-95314334D01*
X197638660Y-95320413D01*
X197660047Y-95326973D01*
X197667237Y-95329267D01*
X197667237Y-95673161D01*
X197645441Y-95663893D01*
X197623834Y-95655140D01*
X197602416Y-95646903D01*
X197581187Y-95639180D01*
X197560147Y-95631973D01*
X197539296Y-95625281D01*
X197518633Y-95619105D01*
X197498160Y-95613443D01*
X197477875Y-95608297D01*
X197457779Y-95603666D01*
X197444487Y-95600865D01*
X197424871Y-95597024D01*
X197405590Y-95593560D01*
X197380402Y-95589530D01*
X197355810Y-95586172D01*
X197331813Y-95583485D01*
X197308412Y-95581470D01*
X197285605Y-95580127D01*
X197263395Y-95579455D01*
X197252512Y-95579371D01*
X197228842Y-95579771D01*
X197205824Y-95580969D01*
X197183458Y-95582965D01*
X197161746Y-95585760D01*
X197140685Y-95589353D01*
X197120278Y-95593746D01*
X197100523Y-95598936D01*
X197081420Y-95604925D01*
X197062970Y-95611713D01*
X197039386Y-95622006D01*
X197033671Y-95624801D01*
X197011575Y-95636608D01*
X196990470Y-95649561D01*
X196970359Y-95663658D01*
X196951239Y-95678900D01*
X196933111Y-95695288D01*
X196915976Y-95712820D01*
X196899833Y-95731497D01*
X196884683Y-95751318D01*
X196870623Y-95772194D01*
X196857511Y-95794030D01*
X196845344Y-95816829D01*
X196836841Y-95834559D01*
X196828869Y-95852830D01*
X196821430Y-95871642D01*
X196814524Y-95890995D01*
X196808150Y-95910889D01*
X196802308Y-95931323D01*
X196798709Y-95945247D01*
X196793821Y-95966511D01*
X196789413Y-95988169D01*
X196785486Y-96010223D01*
X196782040Y-96032671D01*
X196779074Y-96055514D01*
X196776590Y-96078753D01*
X196774586Y-96102386D01*
X196773064Y-96126414D01*
X196772022Y-96150838D01*
X196771461Y-96175656D01*
X196771354Y-96192421D01*
X196771599Y-96218904D01*
X196772333Y-96244863D01*
X196773557Y-96270298D01*
X196775270Y-96295209D01*
X196777472Y-96319597D01*
X196780164Y-96343460D01*
X196783345Y-96366800D01*
X196787016Y-96389617D01*
X196791176Y-96411909D01*
X196795826Y-96433678D01*
X196799198Y-96447899D01*
X196804780Y-96468664D01*
X196810904Y-96488829D01*
X196817569Y-96508392D01*
X196824775Y-96527354D01*
X196832521Y-96545715D01*
X196840809Y-96563475D01*
X196852700Y-96586221D01*
X196865554Y-96607897D01*
X196879369Y-96628505D01*
X196886637Y-96638408D01*
X196901925Y-96657368D01*
X196918236Y-96675167D01*
X196935569Y-96691806D01*
X196953926Y-96707285D01*
X196973305Y-96721604D01*
X196993707Y-96734762D01*
X197015131Y-96746761D01*
X197037579Y-96757599D01*
X197061194Y-96767216D01*
X197085878Y-96775551D01*
X197105092Y-96780960D01*
X197124907Y-96785649D01*
X197145323Y-96789616D01*
X197166341Y-96792862D01*
X197187959Y-96795386D01*
X197210178Y-96797189D01*
X197232999Y-96798271D01*
X197256420Y-96798632D01*
X197276646Y-96798258D01*
X197297573Y-96797136D01*
X197319202Y-96795266D01*
X197341531Y-96792648D01*
X197354606Y-96790816D01*
X197374441Y-96787713D01*
X197394379Y-96784267D01*
X197414421Y-96780478D01*
X197434565Y-96776345D01*
X197454812Y-96771868D01*
X197461584Y-96770300D01*
X197482032Y-96765382D01*
X197502342Y-96760156D01*
X197522515Y-96754620D01*
X197542551Y-96748776D01*
X197562449Y-96742622D01*
X197569051Y-96740502D01*
X197588577Y-96733890D01*
X197607588Y-96727244D01*
X197626084Y-96720564D01*
X197647011Y-96712726D01*
X197667237Y-96704842D01*
X197667237Y-97017473D01*
G37*
G36*
X198904083Y-97080000D02*
G01*
X198904083Y-96298422D01*
X198293964Y-96298422D01*
X198293964Y-97080000D01*
X197955932Y-97080000D01*
X197955932Y-95298004D01*
X198293964Y-95298004D01*
X198293964Y-96017055D01*
X198904083Y-96017055D01*
X198904083Y-95298004D01*
X199242115Y-95298004D01*
X199242115Y-97080000D01*
X198904083Y-97080000D01*
G37*
G36*
X201897034Y-97080000D02*
G01*
X201449093Y-97080000D01*
X200901012Y-95298004D01*
X201284473Y-95298004D01*
X201587823Y-96371207D01*
X201685520Y-96722916D01*
X201787125Y-96350690D01*
X202088032Y-95298004D01*
X202448046Y-95298004D01*
X201897034Y-97080000D01*
G37*
G36*
X203260593Y-95267196D02*
G01*
X203287740Y-95268561D01*
X203314483Y-95270836D01*
X203340823Y-95274022D01*
X203366759Y-95278118D01*
X203392291Y-95283124D01*
X203417420Y-95289040D01*
X203442145Y-95295867D01*
X203466467Y-95303603D01*
X203490385Y-95312250D01*
X203506106Y-95318520D01*
X203529244Y-95328748D01*
X203551764Y-95340015D01*
X203573666Y-95352321D01*
X203594950Y-95365667D01*
X203615615Y-95380051D01*
X203635662Y-95395474D01*
X203655091Y-95411936D01*
X203673901Y-95429437D01*
X203692093Y-95447977D01*
X203709667Y-95467556D01*
X203721040Y-95481186D01*
X203737637Y-95502439D01*
X203753538Y-95524800D01*
X203768743Y-95548269D01*
X203783253Y-95572846D01*
X203797068Y-95598530D01*
X203805891Y-95616268D01*
X203814405Y-95634498D01*
X203822610Y-95653221D01*
X203830506Y-95672436D01*
X203838093Y-95692143D01*
X203845371Y-95712343D01*
X203852339Y-95733035D01*
X203858999Y-95754219D01*
X203862212Y-95764996D01*
X203868364Y-95786884D01*
X203874119Y-95809318D01*
X203879477Y-95832298D01*
X203884438Y-95855824D01*
X203889003Y-95879895D01*
X203893170Y-95904512D01*
X203896941Y-95929675D01*
X203900314Y-95955383D01*
X203903291Y-95981638D01*
X203905871Y-96008437D01*
X203908054Y-96035783D01*
X203909840Y-96063674D01*
X203911229Y-96092112D01*
X203912221Y-96121094D01*
X203912816Y-96150623D01*
X203913015Y-96180697D01*
X203912826Y-96207993D01*
X203912259Y-96234927D01*
X203911315Y-96261498D01*
X203909992Y-96287706D01*
X203908292Y-96313552D01*
X203906214Y-96339035D01*
X203903758Y-96364156D01*
X203900925Y-96388914D01*
X203897713Y-96413310D01*
X203894124Y-96437343D01*
X203890157Y-96461014D01*
X203885812Y-96484322D01*
X203881090Y-96507267D01*
X203875989Y-96529850D01*
X203870511Y-96552070D01*
X203864655Y-96573928D01*
X203858495Y-96595336D01*
X203851985Y-96616327D01*
X203845123Y-96636903D01*
X203837910Y-96657062D01*
X203830346Y-96676806D01*
X203822431Y-96696134D01*
X203814165Y-96715045D01*
X203805548Y-96733541D01*
X203796580Y-96751621D01*
X203787260Y-96769284D01*
X203777590Y-96786532D01*
X203767568Y-96803364D01*
X203751878Y-96827832D01*
X203735397Y-96851363D01*
X203723971Y-96866531D01*
X203706212Y-96888386D01*
X203687741Y-96909253D01*
X203668557Y-96929132D01*
X203648660Y-96948024D01*
X203628051Y-96965929D01*
X203606729Y-96982846D01*
X203584694Y-96998776D01*
X203561946Y-97013718D01*
X203538486Y-97027673D01*
X203514313Y-97040640D01*
X203497802Y-97048736D01*
X203472546Y-97059911D01*
X203446603Y-97069986D01*
X203419973Y-97078961D01*
X203392655Y-97086838D01*
X203364652Y-97093616D01*
X203335961Y-97099295D01*
X203316452Y-97102470D01*
X203296638Y-97105157D01*
X203276518Y-97107355D01*
X203256093Y-97109064D01*
X203235363Y-97110286D01*
X203214328Y-97111018D01*
X203192987Y-97111263D01*
X203165349Y-97110807D01*
X203138124Y-97109442D01*
X203111311Y-97107167D01*
X203084910Y-97103981D01*
X203058921Y-97099885D01*
X203033344Y-97094879D01*
X203008179Y-97088963D01*
X202983427Y-97082137D01*
X202959086Y-97074400D01*
X202935158Y-97065753D01*
X202919435Y-97059483D01*
X202896288Y-97049251D01*
X202873742Y-97037971D01*
X202851798Y-97025643D01*
X202830454Y-97012268D01*
X202809712Y-96997845D01*
X202789570Y-96982375D01*
X202770030Y-96965857D01*
X202751091Y-96948292D01*
X202732752Y-96929679D01*
X202715015Y-96910018D01*
X202703524Y-96896329D01*
X202686928Y-96874905D01*
X202671027Y-96852400D01*
X202655821Y-96828812D01*
X202641311Y-96804142D01*
X202627497Y-96778391D01*
X202618673Y-96760622D01*
X202610159Y-96742373D01*
X202601954Y-96723643D01*
X202594058Y-96704431D01*
X202586471Y-96684739D01*
X202579194Y-96664566D01*
X202572225Y-96643912D01*
X202565566Y-96622778D01*
X202562352Y-96612030D01*
X202556200Y-96590088D01*
X202553563Y-96579790D01*
X202903315Y-96579790D01*
X202911872Y-96603029D01*
X202921055Y-96625116D01*
X202930865Y-96646053D01*
X202941302Y-96665840D01*
X202952366Y-96684476D01*
X202964057Y-96701961D01*
X202976375Y-96718296D01*
X202989319Y-96733480D01*
X203007553Y-96751936D01*
X203026902Y-96768346D01*
X203047220Y-96782771D01*
X203068362Y-96795273D01*
X203090329Y-96805852D01*
X203113120Y-96814508D01*
X203136735Y-96821239D01*
X203161174Y-96826048D01*
X203186438Y-96828933D01*
X203212526Y-96829895D01*
X203236242Y-96828941D01*
X203259457Y-96826079D01*
X203282171Y-96821308D01*
X203304385Y-96814630D01*
X203326097Y-96806043D01*
X203347308Y-96795548D01*
X203355653Y-96790816D01*
X203376125Y-96777638D01*
X203391867Y-96765704D01*
X203407044Y-96752534D01*
X203421657Y-96738128D01*
X203435705Y-96722485D01*
X203449188Y-96705605D01*
X203462106Y-96687489D01*
X203471424Y-96673091D01*
X203483300Y-96652658D01*
X203494505Y-96630928D01*
X203505038Y-96607901D01*
X203512497Y-96589779D01*
X203519578Y-96570927D01*
X203526281Y-96551345D01*
X203532607Y-96531033D01*
X203538554Y-96509992D01*
X203544124Y-96488220D01*
X203547628Y-96473300D01*
X203552516Y-96450304D01*
X203556924Y-96426560D01*
X203560851Y-96402070D01*
X203564297Y-96376832D01*
X203567262Y-96350847D01*
X203569747Y-96324116D01*
X203571750Y-96296637D01*
X203573273Y-96268411D01*
X203574315Y-96239438D01*
X203574742Y-96219708D01*
X203574956Y-96199646D01*
X203574983Y-96189490D01*
X203574616Y-96169829D01*
X203573517Y-96149923D01*
X203572418Y-96129895D01*
X203572052Y-96110844D01*
X202903315Y-96579790D01*
X202553563Y-96579790D01*
X202550445Y-96567616D01*
X202545087Y-96544613D01*
X202540126Y-96521080D01*
X202535562Y-96497017D01*
X202531394Y-96472423D01*
X202527624Y-96447298D01*
X202524250Y-96421643D01*
X202521273Y-96395457D01*
X202518694Y-96368741D01*
X202516511Y-96341495D01*
X202514725Y-96313718D01*
X202513335Y-96285411D01*
X202512343Y-96256573D01*
X202512063Y-96242735D01*
X202849582Y-96242735D01*
X202849994Y-96263389D01*
X202851230Y-96284317D01*
X202852512Y-96298422D01*
X203525646Y-95798213D01*
X203516395Y-95774892D01*
X203506595Y-95752738D01*
X203496245Y-95731752D01*
X203485346Y-95711934D01*
X203473897Y-95693284D01*
X203461898Y-95675802D01*
X203449350Y-95659487D01*
X203436253Y-95644340D01*
X203417935Y-95625961D01*
X203398639Y-95609658D01*
X203378421Y-95595232D01*
X203357332Y-95582730D01*
X203335373Y-95572151D01*
X203312544Y-95563496D01*
X203288845Y-95556764D01*
X203264275Y-95551955D01*
X203238836Y-95549070D01*
X203219185Y-95548168D01*
X203212526Y-95548108D01*
X203188682Y-95549039D01*
X203165386Y-95551829D01*
X203142638Y-95556480D01*
X203120439Y-95562992D01*
X203098789Y-95571364D01*
X203077687Y-95581596D01*
X203069400Y-95586210D01*
X203049210Y-95599119D01*
X203029854Y-95614031D01*
X203014970Y-95627403D01*
X203000621Y-95642058D01*
X202986806Y-95657995D01*
X202973525Y-95675214D01*
X202960779Y-95693715D01*
X202954606Y-95703447D01*
X202942714Y-95723856D01*
X202931464Y-95745518D01*
X202920855Y-95768431D01*
X202910886Y-95792595D01*
X202903831Y-95811540D01*
X202897136Y-95831190D01*
X202890802Y-95851543D01*
X202884829Y-95872600D01*
X202879216Y-95894362D01*
X202877425Y-95901772D01*
X202872449Y-95924507D01*
X202867963Y-95948014D01*
X202863966Y-95972294D01*
X202860458Y-95997347D01*
X202857440Y-96023173D01*
X202854911Y-96049772D01*
X202852872Y-96077143D01*
X202851322Y-96105287D01*
X202850261Y-96134204D01*
X202849826Y-96153912D01*
X202849609Y-96173963D01*
X202849582Y-96184117D01*
X202849582Y-96205148D01*
X202849582Y-96225256D01*
X202849582Y-96242735D01*
X202512063Y-96242735D01*
X202511748Y-96227205D01*
X202511549Y-96197306D01*
X202511740Y-96170012D01*
X202512313Y-96143084D01*
X202513267Y-96116523D01*
X202514602Y-96090327D01*
X202516320Y-96064499D01*
X202518419Y-96039036D01*
X202520899Y-96013941D01*
X202523762Y-95989211D01*
X202527005Y-95964848D01*
X202530631Y-95940851D01*
X202534638Y-95917220D01*
X202539027Y-95893956D01*
X202543797Y-95871058D01*
X202548949Y-95848527D01*
X202554483Y-95826362D01*
X202560398Y-95804563D01*
X202566672Y-95783099D01*
X202573282Y-95762057D01*
X202580227Y-95741440D01*
X202587509Y-95721246D01*
X202595126Y-95701476D01*
X202603079Y-95682129D01*
X202611368Y-95663206D01*
X202619993Y-95644706D01*
X202628954Y-95626631D01*
X202638250Y-95608978D01*
X202647883Y-95591750D01*
X202662961Y-95566701D01*
X202678795Y-95542605D01*
X202695384Y-95519463D01*
X202701082Y-95511960D01*
X202718762Y-95490023D01*
X202737180Y-95469090D01*
X202756337Y-95449162D01*
X202776232Y-95430238D01*
X202796866Y-95412319D01*
X202818238Y-95395405D01*
X202840349Y-95379495D01*
X202863198Y-95364590D01*
X202886786Y-95350690D01*
X202911112Y-95337794D01*
X202927739Y-95329755D01*
X202953332Y-95318494D01*
X202979551Y-95308340D01*
X203006397Y-95299294D01*
X203033870Y-95291356D01*
X203061970Y-95284525D01*
X203090697Y-95278802D01*
X203110196Y-95275602D01*
X203129974Y-95272894D01*
X203150031Y-95270679D01*
X203170366Y-95268956D01*
X203190980Y-95267725D01*
X203211872Y-95266987D01*
X203233043Y-95266741D01*
X203260593Y-95267196D01*
G37*
G36*
X204741975Y-96579790D02*
G01*
X204763299Y-96580529D01*
X204784038Y-96582744D01*
X204804194Y-96586436D01*
X204823766Y-96591605D01*
X204842754Y-96598251D01*
X204848953Y-96600795D01*
X204867157Y-96609204D01*
X204884399Y-96618678D01*
X204903299Y-96631077D01*
X204920891Y-96644925D01*
X204934927Y-96657948D01*
X204950184Y-96674180D01*
X204963898Y-96691674D01*
X204976070Y-96710431D01*
X204986699Y-96730450D01*
X204992080Y-96742456D01*
X204999052Y-96761015D01*
X205004582Y-96780054D01*
X205008669Y-96799574D01*
X205011314Y-96819576D01*
X205012516Y-96840058D01*
X205012596Y-96846992D01*
X205011875Y-96867119D01*
X205009711Y-96886834D01*
X205006105Y-96906137D01*
X205001056Y-96925027D01*
X204994564Y-96943506D01*
X204992080Y-96949574D01*
X204982332Y-96969957D01*
X204971042Y-96989217D01*
X204958210Y-97007356D01*
X204943834Y-97024373D01*
X204934927Y-97033593D01*
X204918458Y-97048493D01*
X204900680Y-97061990D01*
X204881592Y-97074085D01*
X204864190Y-97083336D01*
X204848953Y-97090258D01*
X204830160Y-97097396D01*
X204810783Y-97103058D01*
X204790822Y-97107242D01*
X204770277Y-97109950D01*
X204749148Y-97111181D01*
X204741975Y-97111263D01*
X204721533Y-97110524D01*
X204701606Y-97108309D01*
X204682195Y-97104617D01*
X204663298Y-97099447D01*
X204644917Y-97092801D01*
X204638905Y-97090258D01*
X204618522Y-97080367D01*
X204599261Y-97069073D01*
X204581122Y-97056378D01*
X204564105Y-97042279D01*
X204554885Y-97033593D01*
X204540009Y-97017218D01*
X204526582Y-96999720D01*
X204514604Y-96981100D01*
X204504075Y-96961359D01*
X204498709Y-96949574D01*
X204491737Y-96931233D01*
X204486207Y-96912479D01*
X204482120Y-96893314D01*
X204479475Y-96873736D01*
X204478273Y-96853747D01*
X204478193Y-96846992D01*
X204478914Y-96826349D01*
X204481078Y-96806188D01*
X204484684Y-96786507D01*
X204489733Y-96767308D01*
X204496225Y-96748589D01*
X204498709Y-96742456D01*
X204506935Y-96724601D01*
X204517878Y-96704943D01*
X204530270Y-96686547D01*
X204544111Y-96669413D01*
X204554885Y-96657948D01*
X204571261Y-96642858D01*
X204588759Y-96629217D01*
X204607378Y-96617025D01*
X204627120Y-96606283D01*
X204638905Y-96600795D01*
X204657114Y-96593657D01*
X204675839Y-96587995D01*
X204695079Y-96583811D01*
X204714834Y-96581103D01*
X204735104Y-96579872D01*
X204741975Y-96579790D01*
G37*
G36*
X205691591Y-97080000D02*
G01*
X205691591Y-96829406D01*
X206116085Y-96412728D01*
X206130858Y-96398018D01*
X206145257Y-96383564D01*
X206159282Y-96369365D01*
X206179618Y-96348547D01*
X206199113Y-96328304D01*
X206217766Y-96308636D01*
X206235577Y-96289544D01*
X206252547Y-96271027D01*
X206268676Y-96253085D01*
X206283963Y-96235718D01*
X206298409Y-96218927D01*
X206307572Y-96208053D01*
X206320835Y-96192096D01*
X206333515Y-96176465D01*
X206349513Y-96156132D01*
X206364473Y-96136379D01*
X206378395Y-96117206D01*
X206391278Y-96098613D01*
X206403124Y-96080600D01*
X206413932Y-96063167D01*
X206418946Y-96054668D01*
X206430503Y-96033712D01*
X206440747Y-96013280D01*
X206449680Y-95993374D01*
X206457300Y-95973992D01*
X206463609Y-95955134D01*
X206469448Y-95933198D01*
X206470237Y-95929616D01*
X206474554Y-95908029D01*
X206477977Y-95886133D01*
X206480507Y-95863928D01*
X206482144Y-95841413D01*
X206482889Y-95818590D01*
X206482938Y-95810914D01*
X206482143Y-95790608D01*
X206479759Y-95770722D01*
X206475785Y-95751258D01*
X206470222Y-95732214D01*
X206466330Y-95721521D01*
X206458339Y-95703298D01*
X206447432Y-95683904D01*
X206434632Y-95666036D01*
X206419939Y-95649695D01*
X206417970Y-95647759D01*
X206401269Y-95632922D01*
X206384904Y-95621241D01*
X206366902Y-95610776D01*
X206347264Y-95601526D01*
X206338346Y-95597934D01*
X206316748Y-95590701D01*
X206297193Y-95585915D01*
X206276677Y-95582435D01*
X206255199Y-95580260D01*
X206232759Y-95579390D01*
X206228926Y-95579371D01*
X206209183Y-95579745D01*
X206183275Y-95581405D01*
X206157839Y-95584393D01*
X206132877Y-95588709D01*
X206108387Y-95594354D01*
X206084371Y-95601326D01*
X206060829Y-95609627D01*
X206037759Y-95619255D01*
X206032066Y-95621870D01*
X206009618Y-95632945D01*
X205987461Y-95644920D01*
X205965594Y-95657796D01*
X205944016Y-95671573D01*
X205922729Y-95686251D01*
X205906954Y-95697850D01*
X205891342Y-95709956D01*
X205875893Y-95722568D01*
X205860607Y-95735687D01*
X205683287Y-95506587D01*
X205697995Y-95493140D01*
X205712932Y-95480033D01*
X205728098Y-95467266D01*
X205743493Y-95454838D01*
X205759117Y-95442750D01*
X205774970Y-95431002D01*
X205791052Y-95419593D01*
X205807362Y-95408524D01*
X205823902Y-95397794D01*
X205840671Y-95387404D01*
X205857669Y-95377354D01*
X205874896Y-95367643D01*
X205892351Y-95358273D01*
X205910036Y-95349241D01*
X205927950Y-95340550D01*
X205946092Y-95332198D01*
X205964504Y-95324271D01*
X205983103Y-95316856D01*
X206001888Y-95309953D01*
X206020861Y-95303560D01*
X206040021Y-95297679D01*
X206059368Y-95292310D01*
X206078901Y-95287452D01*
X206098622Y-95283105D01*
X206118530Y-95279269D01*
X206138624Y-95275946D01*
X206158906Y-95273133D01*
X206179375Y-95270832D01*
X206200030Y-95269042D01*
X206220873Y-95267763D01*
X206241903Y-95266996D01*
X206263120Y-95266741D01*
X206287630Y-95267037D01*
X206311703Y-95267926D01*
X206335338Y-95269407D01*
X206358535Y-95271480D01*
X206381294Y-95274147D01*
X206403615Y-95277405D01*
X206425498Y-95281256D01*
X206446943Y-95285700D01*
X206467950Y-95290736D01*
X206488519Y-95296365D01*
X206501989Y-95300446D01*
X206521777Y-95306958D01*
X206541024Y-95314036D01*
X206559730Y-95321681D01*
X206577895Y-95329893D01*
X206595519Y-95338671D01*
X206618177Y-95351257D01*
X206639872Y-95364851D01*
X206660606Y-95379452D01*
X206680378Y-95395061D01*
X206685171Y-95399120D01*
X206703688Y-95415996D01*
X206721136Y-95433894D01*
X206737515Y-95452815D01*
X206752826Y-95472759D01*
X206767069Y-95493726D01*
X206780243Y-95515716D01*
X206792348Y-95538728D01*
X206800726Y-95556658D01*
X206803385Y-95562763D01*
X206810892Y-95581439D01*
X206817661Y-95600647D01*
X206823692Y-95620388D01*
X206828984Y-95640661D01*
X206833538Y-95661467D01*
X206837354Y-95682804D01*
X206840430Y-95704675D01*
X206842769Y-95727077D01*
X206844369Y-95750012D01*
X206845230Y-95773480D01*
X206845395Y-95789420D01*
X206845141Y-95809263D01*
X206844381Y-95828856D01*
X206842580Y-95854593D01*
X206839878Y-95879887D01*
X206836275Y-95904739D01*
X206831772Y-95929148D01*
X206826368Y-95953115D01*
X206820064Y-95976638D01*
X206816574Y-95988234D01*
X206808957Y-96011124D01*
X206800515Y-96033877D01*
X206791249Y-96056492D01*
X206781159Y-96078970D01*
X206770244Y-96101311D01*
X206758505Y-96123514D01*
X206745942Y-96145580D01*
X206732554Y-96167508D01*
X206718472Y-96189253D01*
X206707380Y-96205572D01*
X206695832Y-96221900D01*
X206683829Y-96238236D01*
X206671371Y-96254581D01*
X206658459Y-96270934D01*
X206645091Y-96287296D01*
X206631267Y-96303666D01*
X206616989Y-96320046D01*
X206602256Y-96336433D01*
X206597244Y-96341898D01*
X206582021Y-96358374D01*
X206566395Y-96375014D01*
X206550365Y-96391816D01*
X206533931Y-96408782D01*
X206517094Y-96425911D01*
X206499854Y-96443203D01*
X206482210Y-96460658D01*
X206464162Y-96478277D01*
X206445711Y-96496058D01*
X206426856Y-96514003D01*
X206414062Y-96526057D01*
X206153210Y-96767369D01*
X206910363Y-96767369D01*
X206910363Y-97080000D01*
X205691591Y-97080000D01*
G37*
D12*
G36*
X180789500Y-90081380D02*
G01*
X179631202Y-90081380D01*
X179631202Y-89378718D01*
X179814091Y-89378718D01*
X179814091Y-89858167D01*
X180098585Y-89858167D01*
X180098585Y-89400944D01*
X180281474Y-89400944D01*
X180281474Y-89858167D01*
X180606610Y-89858167D01*
X180606610Y-89378718D01*
X180789500Y-89378718D01*
X180789500Y-90081380D01*
G37*
G36*
X180212477Y-88288183D02*
G01*
X180229015Y-88288578D01*
X180245359Y-88289235D01*
X180261511Y-88290155D01*
X180277468Y-88291338D01*
X180293232Y-88292785D01*
X180308803Y-88294494D01*
X180324180Y-88296466D01*
X180339364Y-88298701D01*
X180354354Y-88301199D01*
X180369151Y-88303960D01*
X180383754Y-88306984D01*
X180398164Y-88310270D01*
X180412380Y-88313820D01*
X180426403Y-88317633D01*
X180440232Y-88321708D01*
X180453840Y-88326023D01*
X180467196Y-88330634D01*
X180480302Y-88335539D01*
X180493158Y-88340739D01*
X180505763Y-88346235D01*
X180518118Y-88352026D01*
X180530222Y-88358112D01*
X180542075Y-88364494D01*
X180553678Y-88371170D01*
X180565031Y-88378142D01*
X180576133Y-88385409D01*
X180586984Y-88392971D01*
X180597585Y-88400828D01*
X180607935Y-88408981D01*
X180618035Y-88417428D01*
X180627884Y-88426171D01*
X180637431Y-88435178D01*
X180646702Y-88444498D01*
X180655698Y-88454130D01*
X180664418Y-88464074D01*
X180672863Y-88474332D01*
X180681033Y-88484901D01*
X180688928Y-88495784D01*
X180696547Y-88506979D01*
X180703891Y-88518486D01*
X180710959Y-88530306D01*
X180717752Y-88542439D01*
X180724270Y-88554884D01*
X180730512Y-88567642D01*
X180736479Y-88580712D01*
X180742171Y-88594095D01*
X180747587Y-88607790D01*
X180752663Y-88621812D01*
X180757411Y-88636173D01*
X180761831Y-88650874D01*
X180765924Y-88665915D01*
X180769689Y-88681296D01*
X180773128Y-88697017D01*
X180776238Y-88713077D01*
X180779021Y-88729478D01*
X180781477Y-88746218D01*
X180783606Y-88763298D01*
X180785407Y-88780718D01*
X180786880Y-88798478D01*
X180788026Y-88816578D01*
X180788845Y-88835017D01*
X180789336Y-88853796D01*
X180789500Y-88872916D01*
X180789500Y-89169475D01*
X179631202Y-89169475D01*
X179631202Y-88949754D01*
X179814091Y-88949754D01*
X180606610Y-88949754D01*
X180606610Y-88853230D01*
X180606237Y-88833370D01*
X180605117Y-88814116D01*
X180603250Y-88795467D01*
X180600637Y-88777423D01*
X180597277Y-88759984D01*
X180593171Y-88743151D01*
X180588317Y-88726923D01*
X180582717Y-88711300D01*
X180576371Y-88696283D01*
X180569278Y-88681870D01*
X180561438Y-88668063D01*
X180552851Y-88654862D01*
X180543518Y-88642265D01*
X180533438Y-88630274D01*
X180522611Y-88618888D01*
X180511038Y-88608108D01*
X180498663Y-88597918D01*
X180485429Y-88588387D01*
X180471336Y-88579512D01*
X180456386Y-88571296D01*
X180440577Y-88563736D01*
X180423910Y-88556834D01*
X180406385Y-88550589D01*
X180388001Y-88545001D01*
X180368759Y-88540071D01*
X180348659Y-88535798D01*
X180327700Y-88532183D01*
X180305883Y-88529225D01*
X180283208Y-88526924D01*
X180259675Y-88525281D01*
X180235283Y-88524295D01*
X180210033Y-88523966D01*
X180192593Y-88524100D01*
X180175515Y-88524502D01*
X180158800Y-88525171D01*
X180142447Y-88526109D01*
X180126458Y-88527315D01*
X180110831Y-88528788D01*
X180095567Y-88530529D01*
X180080666Y-88532539D01*
X180066127Y-88534816D01*
X180051951Y-88537361D01*
X180042703Y-88539207D01*
X180029092Y-88542248D01*
X180015882Y-88545659D01*
X180003075Y-88549437D01*
X179990670Y-88553584D01*
X179978666Y-88558099D01*
X179963286Y-88564693D01*
X179948621Y-88571941D01*
X179934670Y-88579844D01*
X179921434Y-88588402D01*
X179918236Y-88590644D01*
X179905843Y-88600006D01*
X179894224Y-88610152D01*
X179883379Y-88621081D01*
X179873308Y-88632794D01*
X179864011Y-88645292D01*
X179855487Y-88658573D01*
X179847738Y-88672638D01*
X179840763Y-88687486D01*
X179834511Y-88703109D01*
X179830370Y-88715432D01*
X179826698Y-88728274D01*
X179823494Y-88741634D01*
X179820759Y-88755514D01*
X179818493Y-88769913D01*
X179816696Y-88784831D01*
X179815368Y-88800268D01*
X179814508Y-88816224D01*
X179814117Y-88832699D01*
X179814091Y-88838306D01*
X179814091Y-88949754D01*
X179631202Y-88949754D01*
X179631202Y-88824018D01*
X179631332Y-88807401D01*
X179631723Y-88791046D01*
X179632374Y-88774955D01*
X179633286Y-88759126D01*
X179634458Y-88743560D01*
X179635891Y-88728257D01*
X179637584Y-88713218D01*
X179639537Y-88698441D01*
X179641751Y-88683927D01*
X179644225Y-88669676D01*
X179646960Y-88655688D01*
X179649955Y-88641963D01*
X179653211Y-88628500D01*
X179656728Y-88615301D01*
X179660504Y-88602365D01*
X179664541Y-88589692D01*
X179668810Y-88577242D01*
X179673362Y-88565054D01*
X179678197Y-88553130D01*
X179683314Y-88541469D01*
X179691521Y-88524470D01*
X179700364Y-88508063D01*
X179709843Y-88492247D01*
X179719958Y-88477023D01*
X179730709Y-88462391D01*
X179742097Y-88448350D01*
X179754121Y-88434901D01*
X179766781Y-88422043D01*
X179780086Y-88409777D01*
X179794044Y-88398103D01*
X179808655Y-88387020D01*
X179823919Y-88376529D01*
X179839836Y-88366630D01*
X179856406Y-88357322D01*
X179867816Y-88351446D01*
X179879516Y-88345832D01*
X179891506Y-88340481D01*
X179903786Y-88335394D01*
X179916356Y-88330569D01*
X179929217Y-88326007D01*
X179942368Y-88321708D01*
X179955822Y-88317633D01*
X179969595Y-88313820D01*
X179983684Y-88310270D01*
X179998092Y-88306984D01*
X180012816Y-88303960D01*
X180027859Y-88301199D01*
X180043219Y-88298701D01*
X180058896Y-88296466D01*
X180074891Y-88294494D01*
X180091203Y-88292785D01*
X180107833Y-88291338D01*
X180124780Y-88290155D01*
X180142045Y-88289235D01*
X180159628Y-88288578D01*
X180177528Y-88288183D01*
X180195745Y-88288052D01*
X180212477Y-88288183D01*
G37*
G36*
X180789500Y-86488055D02*
G01*
X180565968Y-86552511D01*
X180565968Y-86959566D01*
X180789500Y-87025609D01*
X180789500Y-87243743D01*
X179631202Y-86897968D01*
X179631202Y-86753498D01*
X179829967Y-86753498D01*
X180383079Y-86906858D01*
X180383079Y-86601726D01*
X179829967Y-86753498D01*
X179631202Y-86753498D01*
X179631202Y-86590930D01*
X180789500Y-86245156D01*
X180789500Y-86488055D01*
G37*
G36*
X179814091Y-85632350D02*
G01*
X180789500Y-85632350D01*
X180789500Y-85857469D01*
X179814091Y-85857469D01*
X179814091Y-86177207D01*
X179631202Y-86177207D01*
X179631202Y-85312612D01*
X179814091Y-85312612D01*
X179814091Y-85632350D01*
G37*
G36*
X180789500Y-84558830D02*
G01*
X180229402Y-84909685D01*
X180789500Y-84909685D01*
X180789500Y-85132898D01*
X179631202Y-85132898D01*
X179631202Y-84909685D01*
X180171296Y-84909685D01*
X179631202Y-84560417D01*
X179631202Y-84295292D01*
X180188442Y-84691869D01*
X180789500Y-84274653D01*
X180789500Y-84558830D01*
G37*
G36*
X179814091Y-84114625D02*
G01*
X179631202Y-84114625D01*
X179631202Y-83377036D01*
X179814091Y-83377036D01*
X179814091Y-83634224D01*
X180606610Y-83634224D01*
X180606610Y-83377036D01*
X180789500Y-83377036D01*
X180789500Y-84114625D01*
X180606610Y-84114625D01*
X180606610Y-83857438D01*
X179814091Y-83857438D01*
X179814091Y-84114625D01*
G37*
G36*
X180789500Y-82588327D02*
G01*
X180098268Y-82900763D01*
X179949353Y-82965218D01*
X180429754Y-82965218D01*
X180789500Y-82965218D01*
X180789500Y-83165253D01*
X179631202Y-83165253D01*
X179631202Y-82895365D01*
X180326879Y-82576579D01*
X180462458Y-82520379D01*
X179951258Y-82520379D01*
X179631202Y-82520379D01*
X179631202Y-82320344D01*
X180789500Y-82320344D01*
X180789500Y-82588327D01*
G37*
G36*
X180438962Y-81338586D02*
G01*
X180456545Y-81338895D01*
X180473693Y-81339825D01*
X180490405Y-81341373D01*
X180506682Y-81343542D01*
X180522524Y-81346330D01*
X180537930Y-81349737D01*
X180552901Y-81353764D01*
X180567437Y-81358410D01*
X180581537Y-81363676D01*
X180595202Y-81369562D01*
X180604070Y-81373830D01*
X180617013Y-81380686D01*
X180629525Y-81388040D01*
X180641608Y-81395890D01*
X180653260Y-81404237D01*
X180664484Y-81413080D01*
X180675277Y-81422421D01*
X180685641Y-81432258D01*
X180695574Y-81442592D01*
X180705078Y-81453422D01*
X180714153Y-81464750D01*
X180719964Y-81472577D01*
X180728273Y-81484696D01*
X180736175Y-81497239D01*
X180743670Y-81510206D01*
X180750758Y-81523598D01*
X180757438Y-81537414D01*
X180763710Y-81551653D01*
X180769575Y-81566317D01*
X180775033Y-81581406D01*
X180780083Y-81596918D01*
X180784726Y-81612855D01*
X180787594Y-81623715D01*
X180791566Y-81640229D01*
X180795148Y-81657028D01*
X180798338Y-81674111D01*
X180801138Y-81691479D01*
X180803548Y-81709132D01*
X180805566Y-81727070D01*
X180807194Y-81745292D01*
X180808431Y-81763799D01*
X180809278Y-81782590D01*
X180809734Y-81801666D01*
X180809821Y-81814542D01*
X180809737Y-81831751D01*
X180809486Y-81848848D01*
X180809067Y-81865834D01*
X180808481Y-81882708D01*
X180807728Y-81899471D01*
X180806807Y-81916122D01*
X180805718Y-81932661D01*
X180804462Y-81949089D01*
X180803039Y-81965405D01*
X180801449Y-81981609D01*
X180800295Y-81992350D01*
X180798457Y-82008408D01*
X180796396Y-82024432D01*
X180794111Y-82040422D01*
X180791603Y-82056379D01*
X180788872Y-82072303D01*
X180785918Y-82088193D01*
X180782740Y-82104050D01*
X180779339Y-82119873D01*
X180775715Y-82135662D01*
X180771867Y-82151418D01*
X180769178Y-82161904D01*
X180545647Y-82161904D01*
X180549578Y-82149019D01*
X180553430Y-82135963D01*
X180557205Y-82122737D01*
X180560903Y-82109340D01*
X180564523Y-82095773D01*
X180568066Y-82082035D01*
X180569461Y-82076492D01*
X180572864Y-82062494D01*
X180576128Y-82048480D01*
X180579252Y-82034451D01*
X180582236Y-82020406D01*
X180585081Y-82006346D01*
X180587786Y-81992270D01*
X180588830Y-81986635D01*
X180591324Y-81972553D01*
X180593648Y-81958487D01*
X180595802Y-81944436D01*
X180597785Y-81930400D01*
X180599597Y-81916380D01*
X180601239Y-81902376D01*
X180601848Y-81896778D01*
X180603220Y-81882857D01*
X180604359Y-81869076D01*
X180605266Y-81855434D01*
X180605941Y-81841932D01*
X180606383Y-81828570D01*
X180606592Y-81815347D01*
X180606610Y-81810096D01*
X180606457Y-81794826D01*
X180605995Y-81780131D01*
X180605226Y-81766011D01*
X180604150Y-81752467D01*
X180602766Y-81739499D01*
X180600603Y-81724097D01*
X180597959Y-81709595D01*
X180596767Y-81704046D01*
X180593513Y-81690749D01*
X180589902Y-81678242D01*
X180585099Y-81664277D01*
X180579782Y-81651451D01*
X180573951Y-81639764D01*
X180569779Y-81632605D01*
X180561835Y-81621249D01*
X180553283Y-81611351D01*
X180542765Y-81601826D01*
X180531453Y-81594206D01*
X180528502Y-81592598D01*
X180516138Y-81587042D01*
X180503180Y-81583073D01*
X180489626Y-81580691D01*
X180475476Y-81579897D01*
X180462514Y-81580502D01*
X180447839Y-81582824D01*
X180434123Y-81586887D01*
X180421368Y-81592692D01*
X180409573Y-81600238D01*
X180404035Y-81604664D01*
X180393446Y-81614390D01*
X180383347Y-81625233D01*
X180375307Y-81635121D01*
X180367608Y-81645784D01*
X180360250Y-81657223D01*
X180353233Y-81669437D01*
X180346396Y-81682218D01*
X180339776Y-81695558D01*
X180333373Y-81709455D01*
X180327187Y-81723911D01*
X180322394Y-81735877D01*
X180317741Y-81748201D01*
X180313226Y-81760881D01*
X180308741Y-81773696D01*
X180304177Y-81786580D01*
X180299533Y-81799534D01*
X180294810Y-81812557D01*
X180290008Y-81825650D01*
X180285126Y-81838812D01*
X180280165Y-81852043D01*
X180275124Y-81865344D01*
X180269959Y-81878576D01*
X180264626Y-81891757D01*
X180259124Y-81904890D01*
X180253454Y-81917972D01*
X180247614Y-81931005D01*
X180241606Y-81943989D01*
X180235430Y-81956923D01*
X180229084Y-81969807D01*
X180222461Y-81982418D01*
X180215451Y-81994692D01*
X180208054Y-82006629D01*
X180200270Y-82018228D01*
X180192099Y-82029490D01*
X180183541Y-82040414D01*
X180174596Y-82051001D01*
X180165264Y-82061251D01*
X180155436Y-82071015D01*
X180145161Y-82080302D01*
X180134440Y-82089113D01*
X180123272Y-82097448D01*
X180111658Y-82105307D01*
X180099597Y-82112689D01*
X180087090Y-82119595D01*
X180074137Y-82126024D01*
X180060617Y-82131755D01*
X180046414Y-82136721D01*
X180031525Y-82140923D01*
X180015952Y-82144361D01*
X179999694Y-82147035D01*
X179987051Y-82148539D01*
X179974024Y-82149614D01*
X179960611Y-82150258D01*
X179946813Y-82150473D01*
X179934077Y-82150253D01*
X179917296Y-82149273D01*
X179900743Y-82147509D01*
X179884418Y-82144962D01*
X179868322Y-82141630D01*
X179852453Y-82137515D01*
X179836813Y-82132616D01*
X179821401Y-82126933D01*
X179817584Y-82125389D01*
X179802507Y-82118677D01*
X179787916Y-82111081D01*
X179773811Y-82102603D01*
X179760193Y-82093241D01*
X179747061Y-82082996D01*
X179734415Y-82071868D01*
X179725249Y-82062943D01*
X179716357Y-82053521D01*
X179710581Y-82046963D01*
X179702173Y-82036637D01*
X179694094Y-82025780D01*
X179686344Y-82014393D01*
X179678924Y-82002476D01*
X179671833Y-81990029D01*
X179665071Y-81977051D01*
X179658638Y-81963544D01*
X179652535Y-81949506D01*
X179646761Y-81934937D01*
X179641317Y-81919839D01*
X179637870Y-81909479D01*
X179633047Y-81893398D01*
X179628698Y-81876709D01*
X179624824Y-81859411D01*
X179621424Y-81841506D01*
X179618498Y-81822991D01*
X179616811Y-81810311D01*
X179615335Y-81797359D01*
X179614070Y-81784138D01*
X179613016Y-81770646D01*
X179612173Y-81756884D01*
X179611540Y-81742851D01*
X179611118Y-81728548D01*
X179610908Y-81713974D01*
X179610881Y-81706586D01*
X179610948Y-81693388D01*
X179611149Y-81679989D01*
X179611484Y-81666389D01*
X179611953Y-81652589D01*
X179612556Y-81638587D01*
X179612786Y-81633875D01*
X179613426Y-81619632D01*
X179614156Y-81605477D01*
X179614974Y-81591412D01*
X179615882Y-81577437D01*
X179616879Y-81563550D01*
X179617232Y-81558941D01*
X179618229Y-81545111D01*
X179619315Y-81531481D01*
X179620491Y-81518053D01*
X179621756Y-81504825D01*
X179623111Y-81491798D01*
X179623582Y-81487500D01*
X179625011Y-81474734D01*
X179626678Y-81460376D01*
X179628345Y-81446595D01*
X179630012Y-81433392D01*
X179631202Y-81424315D01*
X179834412Y-81424315D01*
X179830599Y-81437075D01*
X179826937Y-81450352D01*
X179823427Y-81464146D01*
X179820069Y-81478456D01*
X179818219Y-81486865D01*
X179815547Y-81499684D01*
X179813010Y-81512659D01*
X179810606Y-81525790D01*
X179808336Y-81539077D01*
X179806201Y-81552520D01*
X179805518Y-81557036D01*
X179803476Y-81570621D01*
X179801634Y-81584229D01*
X179799993Y-81597858D01*
X179798553Y-81611510D01*
X179797314Y-81625184D01*
X179796945Y-81629747D01*
X179795866Y-81643329D01*
X179795011Y-81656687D01*
X179794378Y-81669821D01*
X179793969Y-81682733D01*
X179793773Y-81697514D01*
X179793770Y-81699601D01*
X179793924Y-81713775D01*
X179794385Y-81727403D01*
X179795154Y-81740486D01*
X179796548Y-81756072D01*
X179798423Y-81770805D01*
X179800778Y-81784685D01*
X179803613Y-81797713D01*
X179807442Y-81812333D01*
X179811784Y-81825947D01*
X179816640Y-81838557D01*
X179822009Y-81850163D01*
X179828922Y-81862433D01*
X179829967Y-81864074D01*
X179837709Y-81874657D01*
X179847488Y-81885116D01*
X179858259Y-81893827D01*
X179870021Y-81900793D01*
X179871562Y-81901541D01*
X179884282Y-81906542D01*
X179897677Y-81910114D01*
X179911747Y-81912257D01*
X179924612Y-81912960D01*
X179926492Y-81912971D01*
X179939816Y-81912112D01*
X179952404Y-81909533D01*
X179966159Y-81904352D01*
X179978910Y-81896831D01*
X179989042Y-81888523D01*
X179998627Y-81878677D01*
X180007855Y-81867716D01*
X180016726Y-81855638D01*
X180023845Y-81844720D01*
X180030716Y-81833027D01*
X180036035Y-81823114D01*
X180042514Y-81810158D01*
X180048853Y-81796690D01*
X180055053Y-81782710D01*
X180061114Y-81768219D01*
X180065861Y-81756258D01*
X180070520Y-81743969D01*
X180075089Y-81731352D01*
X180079658Y-81718453D01*
X180084317Y-81705475D01*
X180089065Y-81692417D01*
X180093902Y-81679280D01*
X180098828Y-81666063D01*
X180103844Y-81652767D01*
X180108949Y-81639392D01*
X180114144Y-81625937D01*
X180119397Y-81612413D01*
X180124840Y-81598988D01*
X180130471Y-81585662D01*
X180136290Y-81572436D01*
X180142298Y-81559309D01*
X180148495Y-81546280D01*
X180154880Y-81533352D01*
X180161453Y-81520522D01*
X180168300Y-81507831D01*
X180175504Y-81495478D01*
X180183064Y-81483462D01*
X180190982Y-81471783D01*
X180199258Y-81460442D01*
X180207890Y-81449438D01*
X180216880Y-81438772D01*
X180226227Y-81428442D01*
X180235970Y-81418535D01*
X180246151Y-81409134D01*
X180256768Y-81400238D01*
X180267821Y-81391849D01*
X180279311Y-81383965D01*
X180291238Y-81376588D01*
X180303601Y-81369717D01*
X180316401Y-81363352D01*
X180329638Y-81357547D01*
X180343469Y-81352517D01*
X180357896Y-81348260D01*
X180372919Y-81344777D01*
X180388537Y-81342068D01*
X180404750Y-81340133D01*
X180421558Y-81338973D01*
X180434555Y-81338610D01*
X180438962Y-81338586D01*
G37*
G36*
X180224510Y-80277593D02*
G01*
X180243730Y-80278029D01*
X180262612Y-80278754D01*
X180281157Y-80279770D01*
X180299364Y-80281076D01*
X180317235Y-80282672D01*
X180334767Y-80284559D01*
X180351963Y-80286735D01*
X180368821Y-80289202D01*
X180385342Y-80291960D01*
X180401525Y-80295007D01*
X180417371Y-80298345D01*
X180432880Y-80301972D01*
X180448051Y-80305891D01*
X180462885Y-80310099D01*
X180477382Y-80314597D01*
X180491511Y-80319311D01*
X180505323Y-80324242D01*
X180518817Y-80329392D01*
X180531994Y-80334760D01*
X180544854Y-80340346D01*
X180557396Y-80346151D01*
X180569620Y-80352173D01*
X180581527Y-80358415D01*
X180593116Y-80364874D01*
X180604388Y-80371552D01*
X180615342Y-80378448D01*
X180625979Y-80385562D01*
X180641339Y-80396643D01*
X180655984Y-80408215D01*
X180665351Y-80416202D01*
X180678828Y-80428546D01*
X180691635Y-80441285D01*
X180703773Y-80454421D01*
X180715241Y-80467953D01*
X180726039Y-80481881D01*
X180736167Y-80496205D01*
X180745625Y-80510926D01*
X180754414Y-80526043D01*
X180762533Y-80541556D01*
X180769982Y-80557466D01*
X180774576Y-80568292D01*
X180780875Y-80584711D01*
X180786554Y-80601341D01*
X180791613Y-80618184D01*
X180796053Y-80635239D01*
X180799874Y-80652505D01*
X180803075Y-80669984D01*
X180805656Y-80687675D01*
X180807618Y-80705578D01*
X180808960Y-80723693D01*
X180809683Y-80742021D01*
X180809821Y-80754357D01*
X180809672Y-80768652D01*
X180809226Y-80782725D01*
X180808484Y-80796574D01*
X180807444Y-80810200D01*
X180806107Y-80823602D01*
X180804474Y-80836782D01*
X180802543Y-80849738D01*
X180800315Y-80862471D01*
X180797790Y-80874980D01*
X180791849Y-80899330D01*
X180784720Y-80922786D01*
X180776402Y-80945350D01*
X180766897Y-80967020D01*
X180756203Y-80987798D01*
X180744321Y-81007682D01*
X180731251Y-81026673D01*
X180716992Y-81044772D01*
X180701545Y-81061977D01*
X180684911Y-81078290D01*
X180667088Y-81093709D01*
X180657730Y-81101084D01*
X180638181Y-81115118D01*
X180617555Y-81128246D01*
X180595852Y-81140469D01*
X180573073Y-81151787D01*
X180561280Y-81157106D01*
X180549217Y-81162199D01*
X180536885Y-81167066D01*
X180524285Y-81171706D01*
X180511415Y-81176120D01*
X180498276Y-81180308D01*
X180484867Y-81184269D01*
X180471190Y-81188004D01*
X180457244Y-81191512D01*
X180443028Y-81194794D01*
X180428543Y-81197850D01*
X180413789Y-81200680D01*
X180398766Y-81203283D01*
X180383474Y-81205659D01*
X180367912Y-81207810D01*
X180352082Y-81209734D01*
X180335982Y-81211431D01*
X180319613Y-81212903D01*
X180302976Y-81214148D01*
X180286068Y-81215166D01*
X180268892Y-81215958D01*
X180251447Y-81216524D01*
X180233732Y-81216864D01*
X180215749Y-81216977D01*
X180196193Y-81216833D01*
X180176977Y-81216402D01*
X180158101Y-81215682D01*
X180139565Y-81214675D01*
X180121368Y-81213380D01*
X180103512Y-81211798D01*
X180085995Y-81209927D01*
X180068818Y-81207769D01*
X180051981Y-81205323D01*
X180035484Y-81202590D01*
X180019327Y-81199568D01*
X180003509Y-81196259D01*
X179988032Y-81192662D01*
X179972894Y-81188778D01*
X179958096Y-81184605D01*
X179943638Y-81180145D01*
X179929470Y-81175394D01*
X179915622Y-81170426D01*
X179902094Y-81165243D01*
X179888886Y-81159844D01*
X179875998Y-81154229D01*
X179863430Y-81148399D01*
X179851182Y-81142352D01*
X179839254Y-81136090D01*
X179827646Y-81129612D01*
X179816359Y-81122918D01*
X179805391Y-81116008D01*
X179794743Y-81108883D01*
X179779371Y-81097790D01*
X179764719Y-81086211D01*
X179755351Y-81078223D01*
X179741877Y-81065882D01*
X179729078Y-81053151D01*
X179716954Y-81040030D01*
X179705506Y-81026517D01*
X179694733Y-81012614D01*
X179684635Y-80998320D01*
X179675213Y-80983636D01*
X179666466Y-80968561D01*
X179658395Y-80953095D01*
X179650999Y-80937238D01*
X179646443Y-80926450D01*
X179640088Y-80909975D01*
X179634358Y-80893293D01*
X179629252Y-80876405D01*
X179624773Y-80859310D01*
X179620918Y-80842009D01*
X179617688Y-80824502D01*
X179615083Y-80806787D01*
X179613104Y-80788867D01*
X179611749Y-80770739D01*
X179611020Y-80752406D01*
X179610963Y-80747371D01*
X179814091Y-80747371D01*
X179814493Y-80762880D01*
X179815699Y-80777813D01*
X179817708Y-80792171D01*
X179820521Y-80805953D01*
X179824138Y-80819160D01*
X179828558Y-80831791D01*
X179833782Y-80843846D01*
X179839810Y-80855327D01*
X179846617Y-80866276D01*
X179854178Y-80876739D01*
X179862493Y-80886716D01*
X179871562Y-80896207D01*
X179881385Y-80905211D01*
X179891962Y-80913730D01*
X179903293Y-80921762D01*
X179915379Y-80929308D01*
X179928203Y-80936288D01*
X179941752Y-80942782D01*
X179956026Y-80948790D01*
X179971023Y-80954312D01*
X179986745Y-80959348D01*
X179999012Y-80962805D01*
X180011686Y-80965990D01*
X180024768Y-80968900D01*
X180038257Y-80971537D01*
X180052080Y-80973921D01*
X180066283Y-80976069D01*
X180080865Y-80977984D01*
X180095827Y-80979664D01*
X180111168Y-80981109D01*
X180126889Y-80982321D01*
X180142989Y-80983297D01*
X180159469Y-80984040D01*
X180176328Y-80984547D01*
X180193567Y-80984821D01*
X180205271Y-80984873D01*
X180230152Y-80984655D01*
X180254233Y-80984000D01*
X180277512Y-80982908D01*
X180299990Y-80981380D01*
X180321666Y-80979416D01*
X180342542Y-80977015D01*
X180362616Y-80974177D01*
X180381889Y-80970902D01*
X180400360Y-80967191D01*
X180418031Y-80963044D01*
X180434900Y-80958460D01*
X180450968Y-80953439D01*
X180466235Y-80947982D01*
X180480701Y-80942088D01*
X180494365Y-80935757D01*
X180507228Y-80928990D01*
X180519263Y-80921732D01*
X180530521Y-80913928D01*
X180541003Y-80905578D01*
X180550708Y-80896683D01*
X180559637Y-80887242D01*
X180567789Y-80877255D01*
X180575165Y-80866722D01*
X180581765Y-80855644D01*
X180587588Y-80844020D01*
X180592635Y-80831850D01*
X180596905Y-80819135D01*
X180600399Y-80805874D01*
X180603117Y-80792067D01*
X180605058Y-80777714D01*
X180606222Y-80762815D01*
X180606610Y-80747371D01*
X180606209Y-80731783D01*
X180605003Y-80716771D01*
X180602994Y-80702334D01*
X180600181Y-80688472D01*
X180596564Y-80675186D01*
X180592144Y-80662476D01*
X180586920Y-80650340D01*
X180580892Y-80638781D01*
X180574085Y-80627767D01*
X180566524Y-80617269D01*
X180558209Y-80607287D01*
X180549140Y-80597821D01*
X180539317Y-80588871D01*
X180528740Y-80580437D01*
X180517408Y-80572519D01*
X180505323Y-80565117D01*
X180492503Y-80558137D01*
X180478969Y-80551643D01*
X180464721Y-80545635D01*
X180449758Y-80540113D01*
X180434080Y-80535077D01*
X180421854Y-80531620D01*
X180409225Y-80528436D01*
X180396194Y-80525525D01*
X180382762Y-80522888D01*
X180368882Y-80520504D01*
X180354628Y-80518356D01*
X180340001Y-80516441D01*
X180324999Y-80514761D01*
X180309623Y-80513316D01*
X180293874Y-80512105D01*
X180277750Y-80511128D01*
X180261253Y-80510386D01*
X180244381Y-80509878D01*
X180227136Y-80509604D01*
X180215431Y-80509552D01*
X180190551Y-80509769D01*
X180166474Y-80510420D01*
X180143201Y-80511506D01*
X180120732Y-80513025D01*
X180099067Y-80514978D01*
X180078205Y-80517366D01*
X180058147Y-80520188D01*
X180038892Y-80523443D01*
X180020442Y-80527133D01*
X180002795Y-80531257D01*
X179985952Y-80535815D01*
X179969912Y-80540807D01*
X179954676Y-80546234D01*
X179940244Y-80552094D01*
X179926616Y-80558389D01*
X179913791Y-80565117D01*
X179901718Y-80572304D01*
X179890424Y-80580050D01*
X179879909Y-80588358D01*
X179870172Y-80597226D01*
X179861215Y-80606655D01*
X179853037Y-80616644D01*
X179845637Y-80627194D01*
X179839016Y-80638305D01*
X179833174Y-80649976D01*
X179828112Y-80662208D01*
X179823828Y-80675000D01*
X179820323Y-80688353D01*
X179817596Y-80702267D01*
X179815649Y-80716741D01*
X179814481Y-80731776D01*
X179814091Y-80747371D01*
X179610963Y-80747371D01*
X179610881Y-80740068D01*
X179611029Y-80725773D01*
X179611474Y-80711702D01*
X179612215Y-80697854D01*
X179613253Y-80684230D01*
X179614587Y-80670830D01*
X179616217Y-80657655D01*
X179618144Y-80644702D01*
X179620367Y-80631974D01*
X179622887Y-80619470D01*
X179628815Y-80595133D01*
X179635930Y-80571691D01*
X179644230Y-80549145D01*
X179653715Y-80527494D01*
X179664387Y-80506739D01*
X179676244Y-80486880D01*
X179689287Y-80467916D01*
X179703516Y-80449847D01*
X179718930Y-80432674D01*
X179735530Y-80416396D01*
X179753316Y-80401014D01*
X179762654Y-80393659D01*
X179782130Y-80379586D01*
X179802695Y-80366422D01*
X179824350Y-80354165D01*
X179847093Y-80342817D01*
X179858873Y-80337483D01*
X179870925Y-80332376D01*
X179883250Y-80327496D01*
X179895847Y-80322843D01*
X179908716Y-80318417D01*
X179921857Y-80314218D01*
X179935270Y-80310246D01*
X179948956Y-80306501D01*
X179962914Y-80302983D01*
X179977144Y-80299692D01*
X179991647Y-80296627D01*
X180006421Y-80293790D01*
X180021468Y-80291180D01*
X180036788Y-80288797D01*
X180052379Y-80286641D01*
X180068243Y-80284711D01*
X180084379Y-80283009D01*
X180100787Y-80281534D01*
X180117467Y-80280285D01*
X180134420Y-80279264D01*
X180151645Y-80278469D01*
X180169142Y-80277902D01*
X180186911Y-80277562D01*
X180204953Y-80277448D01*
X180224510Y-80277593D01*
G37*
G36*
X180789500Y-79589709D02*
G01*
X180098268Y-79902144D01*
X179949353Y-79966600D01*
X180429754Y-79966600D01*
X180789500Y-79966600D01*
X180789500Y-80166635D01*
X179631202Y-80166635D01*
X179631202Y-79896747D01*
X180326879Y-79577961D01*
X180462458Y-79521761D01*
X179951258Y-79521761D01*
X179631202Y-79521761D01*
X179631202Y-79321726D01*
X180789500Y-79321726D01*
X180789500Y-79589709D01*
G37*
G36*
X181134957Y-77978952D02*
G01*
X179488955Y-77978952D01*
X179488955Y-77509346D01*
X179651523Y-77509346D01*
X179651523Y-77777964D01*
X180972389Y-77777964D01*
X180972389Y-77509346D01*
X181134957Y-77509346D01*
X181134957Y-77978952D01*
G37*
G36*
X180789500Y-77136583D02*
G01*
X180626614Y-77136583D01*
X180355773Y-76860662D01*
X180346212Y-76851059D01*
X180336816Y-76841700D01*
X180327587Y-76832584D01*
X180314055Y-76819365D01*
X180300897Y-76806694D01*
X180288113Y-76794569D01*
X180275703Y-76782992D01*
X180263667Y-76771961D01*
X180252005Y-76761478D01*
X180240717Y-76751541D01*
X180229802Y-76742151D01*
X180222734Y-76736195D01*
X180212362Y-76727574D01*
X180202202Y-76719332D01*
X180188986Y-76708934D01*
X180176146Y-76699210D01*
X180163683Y-76690161D01*
X180151598Y-76681786D01*
X180139890Y-76674086D01*
X180128558Y-76667061D01*
X180123034Y-76663802D01*
X180109412Y-76656290D01*
X180096132Y-76649631D01*
X180083193Y-76643825D01*
X180070594Y-76638872D01*
X180058337Y-76634771D01*
X180044079Y-76630976D01*
X180041750Y-76630463D01*
X180027719Y-76627657D01*
X180013486Y-76625432D01*
X179999053Y-76623787D01*
X179984419Y-76622723D01*
X179969583Y-76622240D01*
X179964594Y-76622207D01*
X179951395Y-76622724D01*
X179938469Y-76624274D01*
X179925817Y-76626857D01*
X179913439Y-76630473D01*
X179906488Y-76633003D01*
X179894644Y-76638197D01*
X179882037Y-76645286D01*
X179870423Y-76653606D01*
X179859801Y-76663157D01*
X179858543Y-76664437D01*
X179848899Y-76675292D01*
X179841306Y-76685930D01*
X179834504Y-76697631D01*
X179828492Y-76710396D01*
X179826157Y-76716192D01*
X179821456Y-76730231D01*
X179818345Y-76742941D01*
X179816083Y-76756277D01*
X179814669Y-76770238D01*
X179814103Y-76784824D01*
X179814091Y-76787315D01*
X179814334Y-76800148D01*
X179815413Y-76816989D01*
X179817355Y-76833522D01*
X179820161Y-76849747D01*
X179823830Y-76865665D01*
X179828362Y-76881276D01*
X179833757Y-76896578D01*
X179840016Y-76911574D01*
X179841715Y-76915274D01*
X179848914Y-76929865D01*
X179856698Y-76944267D01*
X179865067Y-76958481D01*
X179874022Y-76972507D01*
X179883563Y-76986343D01*
X179891102Y-76996597D01*
X179898971Y-77006745D01*
X179907169Y-77016787D01*
X179915696Y-77026722D01*
X179766781Y-77141981D01*
X179758041Y-77132420D01*
X179749521Y-77122711D01*
X179741223Y-77112853D01*
X179733145Y-77102847D01*
X179725287Y-77092691D01*
X179717651Y-77082387D01*
X179710235Y-77071934D01*
X179703040Y-77061332D01*
X179696066Y-77050581D01*
X179689313Y-77039681D01*
X179682780Y-77028632D01*
X179676468Y-77017435D01*
X179670377Y-77006089D01*
X179664507Y-76994594D01*
X179658857Y-76982950D01*
X179653428Y-76971157D01*
X179648276Y-76959189D01*
X179643456Y-76947100D01*
X179638969Y-76934890D01*
X179634814Y-76922557D01*
X179630991Y-76910104D01*
X179627501Y-76897528D01*
X179624343Y-76884831D01*
X179621518Y-76872013D01*
X179619025Y-76859073D01*
X179616864Y-76846011D01*
X179615036Y-76832828D01*
X179613540Y-76819523D01*
X179612377Y-76806097D01*
X179611546Y-76792550D01*
X179611047Y-76778880D01*
X179610881Y-76765089D01*
X179611074Y-76749157D01*
X179611651Y-76733510D01*
X179612614Y-76718148D01*
X179613962Y-76703070D01*
X179615695Y-76688276D01*
X179617813Y-76673768D01*
X179620316Y-76659544D01*
X179623205Y-76645604D01*
X179626478Y-76631950D01*
X179630137Y-76618579D01*
X179632790Y-76609824D01*
X179637022Y-76596962D01*
X179641623Y-76584451D01*
X179646592Y-76572293D01*
X179651930Y-76560485D01*
X179657636Y-76549030D01*
X179665817Y-76534302D01*
X179674653Y-76520200D01*
X179684144Y-76506723D01*
X179694289Y-76493871D01*
X179696928Y-76490756D01*
X179707897Y-76478720D01*
X179719531Y-76467379D01*
X179731830Y-76456732D01*
X179744793Y-76446780D01*
X179758422Y-76437522D01*
X179772715Y-76428959D01*
X179787673Y-76421091D01*
X179799328Y-76415645D01*
X179803296Y-76413917D01*
X179815435Y-76409037D01*
X179827921Y-76404637D01*
X179840752Y-76400717D01*
X179853930Y-76397277D01*
X179867453Y-76394317D01*
X179881323Y-76391837D01*
X179895538Y-76389837D01*
X179910100Y-76388317D01*
X179925008Y-76387277D01*
X179940262Y-76386717D01*
X179950623Y-76386611D01*
X179963521Y-76386775D01*
X179976256Y-76387269D01*
X179992985Y-76388440D01*
X180009427Y-76390196D01*
X180025580Y-76392538D01*
X180041446Y-76395465D01*
X180057024Y-76398978D01*
X180072315Y-76403076D01*
X180079852Y-76405344D01*
X180094730Y-76410295D01*
X180109520Y-76415782D01*
X180124220Y-76421805D01*
X180138830Y-76428364D01*
X180153352Y-76435458D01*
X180167784Y-76443089D01*
X180182127Y-76451255D01*
X180196380Y-76459957D01*
X180210515Y-76469110D01*
X180221122Y-76476320D01*
X180231735Y-76483826D01*
X180242353Y-76491628D01*
X180252977Y-76499726D01*
X180263607Y-76508119D01*
X180274242Y-76516808D01*
X180284883Y-76525793D01*
X180295529Y-76535074D01*
X180306181Y-76544651D01*
X180309733Y-76547909D01*
X180320443Y-76557803D01*
X180331259Y-76567960D01*
X180342180Y-76578380D01*
X180353208Y-76589062D01*
X180364342Y-76600006D01*
X180375582Y-76611212D01*
X180386928Y-76622681D01*
X180398380Y-76634412D01*
X180409938Y-76646405D01*
X180421602Y-76658661D01*
X180429437Y-76666977D01*
X180586289Y-76836530D01*
X180586289Y-76344381D01*
X180789500Y-76344381D01*
X180789500Y-77136583D01*
G37*
G36*
X180222696Y-75294162D02*
G01*
X180240202Y-75294530D01*
X180257473Y-75295144D01*
X180274509Y-75296004D01*
X180291309Y-75297109D01*
X180307873Y-75298460D01*
X180324201Y-75300056D01*
X180340294Y-75301898D01*
X180356151Y-75303985D01*
X180371773Y-75306318D01*
X180387159Y-75308897D01*
X180402309Y-75311721D01*
X180417224Y-75314791D01*
X180431902Y-75318106D01*
X180446346Y-75321667D01*
X180460553Y-75325473D01*
X180474468Y-75329477D01*
X180488113Y-75333709D01*
X180501487Y-75338169D01*
X180514590Y-75342857D01*
X180527424Y-75347774D01*
X180539987Y-75352918D01*
X180552279Y-75358291D01*
X180564301Y-75363893D01*
X180576053Y-75369722D01*
X180587535Y-75375780D01*
X180598746Y-75382065D01*
X180609686Y-75388579D01*
X180625590Y-75398778D01*
X180640886Y-75409491D01*
X180650745Y-75416918D01*
X180664951Y-75428461D01*
X180678514Y-75440467D01*
X180691436Y-75452937D01*
X180703716Y-75465870D01*
X180715354Y-75479266D01*
X180726350Y-75493125D01*
X180736704Y-75507448D01*
X180746417Y-75522234D01*
X180755487Y-75537483D01*
X180763916Y-75553195D01*
X180769178Y-75563927D01*
X180776442Y-75580344D01*
X180782990Y-75597207D01*
X180788825Y-75614517D01*
X180793945Y-75632273D01*
X180798350Y-75650475D01*
X180802041Y-75669124D01*
X180804105Y-75681805D01*
X180805852Y-75694684D01*
X180807280Y-75707762D01*
X180808392Y-75721038D01*
X180809185Y-75734513D01*
X180809662Y-75748186D01*
X180809821Y-75762057D01*
X180809525Y-75780022D01*
X180808637Y-75797718D01*
X180807158Y-75815147D01*
X180805088Y-75832308D01*
X180802425Y-75849200D01*
X180799171Y-75865825D01*
X180795326Y-75882182D01*
X180790889Y-75898272D01*
X180785860Y-75914093D01*
X180780239Y-75929646D01*
X180776164Y-75939866D01*
X180769513Y-75954911D01*
X180762181Y-75969566D01*
X180754168Y-75983830D01*
X180745474Y-75997704D01*
X180736099Y-76011186D01*
X180726043Y-76024278D01*
X180715307Y-76036979D01*
X180703889Y-76049290D01*
X180691791Y-76061210D01*
X180679011Y-76072739D01*
X180670114Y-76080208D01*
X180656188Y-76090996D01*
X180641560Y-76101331D01*
X180626228Y-76111215D01*
X180610192Y-76120647D01*
X180593454Y-76129626D01*
X180581904Y-76135361D01*
X180570042Y-76140895D01*
X180557867Y-76146229D01*
X180545380Y-76151361D01*
X180532580Y-76156292D01*
X180519468Y-76161023D01*
X180506043Y-76165552D01*
X180492305Y-76169881D01*
X180485319Y-76171970D01*
X180471057Y-76175969D01*
X180456450Y-76179709D01*
X180441499Y-76183192D01*
X180426202Y-76186417D01*
X180410561Y-76189384D01*
X180394574Y-76192093D01*
X180378243Y-76194543D01*
X180361568Y-76196736D01*
X180344547Y-76198671D01*
X180327182Y-76200348D01*
X180309472Y-76201767D01*
X180291417Y-76202928D01*
X180273017Y-76203831D01*
X180254272Y-76204476D01*
X180235183Y-76204863D01*
X180215749Y-76204992D01*
X180198007Y-76204868D01*
X180180504Y-76204496D01*
X180163239Y-76203875D01*
X180146213Y-76203007D01*
X180129424Y-76201891D01*
X180112874Y-76200527D01*
X180096561Y-76198914D01*
X180080487Y-76197054D01*
X180064651Y-76194945D01*
X180049053Y-76192589D01*
X180033693Y-76189984D01*
X180018571Y-76187131D01*
X180003688Y-76184031D01*
X179989042Y-76180682D01*
X179974635Y-76177085D01*
X179960466Y-76173240D01*
X179946514Y-76169162D01*
X179932837Y-76164866D01*
X179919436Y-76160351D01*
X179906310Y-76155618D01*
X179893459Y-76150667D01*
X179880884Y-76145497D01*
X179868584Y-76140109D01*
X179856559Y-76134503D01*
X179844810Y-76128679D01*
X179833336Y-76122636D01*
X179822137Y-76116375D01*
X179805855Y-76106574D01*
X179790193Y-76096282D01*
X179775151Y-76085499D01*
X179770274Y-76081796D01*
X179756015Y-76070304D01*
X179742408Y-76058332D01*
X179729455Y-76045880D01*
X179717155Y-76032948D01*
X179705507Y-76019536D01*
X179694513Y-76005644D01*
X179684172Y-75991272D01*
X179674484Y-75976420D01*
X179665448Y-75961088D01*
X179657066Y-75945276D01*
X179651841Y-75934468D01*
X179644521Y-75917833D01*
X179637921Y-75900791D01*
X179632041Y-75883341D01*
X179626881Y-75865483D01*
X179622441Y-75847218D01*
X179618721Y-75828546D01*
X179616641Y-75815871D01*
X179614881Y-75803016D01*
X179613441Y-75789979D01*
X179612321Y-75776761D01*
X179611521Y-75763362D01*
X179611041Y-75749782D01*
X179611036Y-75749357D01*
X179793770Y-75749357D01*
X179794375Y-75764856D01*
X179796189Y-75779998D01*
X179799212Y-75794784D01*
X179803445Y-75809213D01*
X179808886Y-75823286D01*
X179815537Y-75837002D01*
X179818536Y-75842389D01*
X179826927Y-75855513D01*
X179836620Y-75868094D01*
X179845312Y-75877768D01*
X179854837Y-75887095D01*
X179865196Y-75896075D01*
X179876389Y-75904707D01*
X179888415Y-75912993D01*
X179894740Y-75917005D01*
X179908006Y-75924734D01*
X179922086Y-75932047D01*
X179936980Y-75938943D01*
X179952687Y-75945423D01*
X179965001Y-75950009D01*
X179977773Y-75954360D01*
X179991003Y-75958477D01*
X180004690Y-75962360D01*
X180018835Y-75966008D01*
X180023652Y-75967172D01*
X180038429Y-75970407D01*
X180053709Y-75973323D01*
X180069491Y-75975921D01*
X180085776Y-75978201D01*
X180102562Y-75980163D01*
X180119851Y-75981807D01*
X180137643Y-75983132D01*
X180155937Y-75984140D01*
X180174733Y-75984829D01*
X180187542Y-75985112D01*
X180200575Y-75985253D01*
X180207176Y-75985271D01*
X180220846Y-75985271D01*
X180233916Y-75985271D01*
X180245278Y-75985271D01*
X180258703Y-75985003D01*
X180272306Y-75984199D01*
X180281474Y-75983366D01*
X179956338Y-75545829D01*
X179941179Y-75551842D01*
X179926780Y-75558212D01*
X179913139Y-75564940D01*
X179900257Y-75572024D01*
X179888134Y-75579466D01*
X179876771Y-75587265D01*
X179866166Y-75595421D01*
X179856321Y-75603934D01*
X179844374Y-75615841D01*
X179833777Y-75628383D01*
X179824401Y-75641525D01*
X179816274Y-75655233D01*
X179809398Y-75669506D01*
X179803772Y-75684345D01*
X179799396Y-75699750D01*
X179796271Y-75715720D01*
X179794395Y-75732255D01*
X179793809Y-75745028D01*
X179793770Y-75749357D01*
X179611036Y-75749357D01*
X179610881Y-75736021D01*
X179611177Y-75718113D01*
X179612064Y-75700468D01*
X179613544Y-75683085D01*
X179615614Y-75665964D01*
X179618276Y-75649106D01*
X179621530Y-75632510D01*
X179625376Y-75616176D01*
X179629813Y-75600104D01*
X179634842Y-75584295D01*
X179640462Y-75568749D01*
X179644538Y-75558530D01*
X179651186Y-75543490D01*
X179658510Y-75528852D01*
X179665920Y-75515665D01*
X180159548Y-75515665D01*
X180464363Y-75950344D01*
X180479468Y-75944782D01*
X180493825Y-75938813D01*
X180507435Y-75932436D01*
X180520296Y-75925652D01*
X180532409Y-75918461D01*
X180543775Y-75910862D01*
X180554392Y-75902855D01*
X180564262Y-75894441D01*
X180576258Y-75882589D01*
X180586924Y-75870013D01*
X180596301Y-75856806D01*
X180604428Y-75843063D01*
X180611304Y-75828785D01*
X180616930Y-75813971D01*
X180621305Y-75798621D01*
X180624431Y-75782735D01*
X180626306Y-75766314D01*
X180626931Y-75749357D01*
X180626311Y-75733941D01*
X180624451Y-75718852D01*
X180621350Y-75704087D01*
X180617009Y-75689649D01*
X180611428Y-75675536D01*
X180604606Y-75661748D01*
X180601530Y-75656325D01*
X180592964Y-75643018D01*
X180585208Y-75632785D01*
X180576647Y-75622920D01*
X180567283Y-75613422D01*
X180557115Y-75604291D01*
X180546143Y-75595527D01*
X180534368Y-75587130D01*
X180525009Y-75581073D01*
X180511728Y-75573354D01*
X180497603Y-75566071D01*
X180482635Y-75559224D01*
X180470856Y-75554376D01*
X180458602Y-75549773D01*
X180445874Y-75545416D01*
X180432671Y-75541304D01*
X180418994Y-75537438D01*
X180404843Y-75533818D01*
X180395145Y-75531541D01*
X180380197Y-75528363D01*
X180364764Y-75525498D01*
X180348845Y-75522946D01*
X180332441Y-75520706D01*
X180315551Y-75518778D01*
X180298175Y-75517163D01*
X180280314Y-75515861D01*
X180261967Y-75514871D01*
X180243135Y-75514194D01*
X180230310Y-75513916D01*
X180217270Y-75513777D01*
X180210668Y-75513760D01*
X180197888Y-75513998D01*
X180184950Y-75514713D01*
X180171931Y-75515427D01*
X180159548Y-75515665D01*
X179665920Y-75515665D01*
X179666509Y-75514616D01*
X179675183Y-75500782D01*
X179684533Y-75487349D01*
X179694558Y-75474319D01*
X179705258Y-75461690D01*
X179716634Y-75449463D01*
X179728685Y-75437638D01*
X179741411Y-75426215D01*
X179750271Y-75418823D01*
X179764085Y-75408035D01*
X179778620Y-75397699D01*
X179793875Y-75387816D01*
X179809849Y-75378384D01*
X179826544Y-75369405D01*
X179838074Y-75363670D01*
X179849924Y-75358135D01*
X179862094Y-75352802D01*
X179874583Y-75347670D01*
X179887393Y-75342738D01*
X179900523Y-75338008D01*
X179913973Y-75333478D01*
X179927742Y-75329150D01*
X179934747Y-75327061D01*
X179948975Y-75323062D01*
X179963557Y-75319321D01*
X179978494Y-75315839D01*
X179993785Y-75312614D01*
X180009432Y-75309647D01*
X180025433Y-75306938D01*
X180041788Y-75304487D01*
X180058499Y-75302295D01*
X180075564Y-75300360D01*
X180092984Y-75298683D01*
X180110759Y-75297264D01*
X180128888Y-75296103D01*
X180147372Y-75295200D01*
X180166211Y-75294555D01*
X180185405Y-75294168D01*
X180204953Y-75294039D01*
X180222696Y-75294162D01*
G37*
G36*
X180789500Y-75137504D02*
G01*
X180626614Y-75137504D01*
X180355773Y-74861583D01*
X180346212Y-74851980D01*
X180336816Y-74842621D01*
X180327587Y-74833505D01*
X180314055Y-74820286D01*
X180300897Y-74807615D01*
X180288113Y-74795490D01*
X180275703Y-74783913D01*
X180263667Y-74772882D01*
X180252005Y-74762399D01*
X180240717Y-74752462D01*
X180229802Y-74743072D01*
X180222734Y-74737117D01*
X180212362Y-74728495D01*
X180202202Y-74720254D01*
X180188986Y-74709855D01*
X180176146Y-74700131D01*
X180163683Y-74691082D01*
X180151598Y-74682707D01*
X180139890Y-74675008D01*
X180128558Y-74667983D01*
X180123034Y-74664723D01*
X180109412Y-74657211D01*
X180096132Y-74650553D01*
X180083193Y-74644746D01*
X180070594Y-74639793D01*
X180058337Y-74635692D01*
X180044079Y-74631897D01*
X180041750Y-74631384D01*
X180027719Y-74628578D01*
X180013486Y-74626353D01*
X179999053Y-74624709D01*
X179984419Y-74623644D01*
X179969583Y-74623161D01*
X179964594Y-74623128D01*
X179951395Y-74623645D01*
X179938469Y-74625195D01*
X179925817Y-74627778D01*
X179913439Y-74631394D01*
X179906488Y-74633924D01*
X179894644Y-74639118D01*
X179882037Y-74646208D01*
X179870423Y-74654527D01*
X179859801Y-74664078D01*
X179858543Y-74665358D01*
X179848899Y-74676213D01*
X179841306Y-74686851D01*
X179834504Y-74698552D01*
X179828492Y-74711317D01*
X179826157Y-74717113D01*
X179821456Y-74731152D01*
X179818345Y-74743863D01*
X179816083Y-74757198D01*
X179814669Y-74771159D01*
X179814103Y-74785745D01*
X179814091Y-74788237D01*
X179814334Y-74801069D01*
X179815413Y-74817910D01*
X179817355Y-74834443D01*
X179820161Y-74850668D01*
X179823830Y-74866586D01*
X179828362Y-74882197D01*
X179833757Y-74897500D01*
X179840016Y-74912495D01*
X179841715Y-74916195D01*
X179848914Y-74930786D01*
X179856698Y-74945189D01*
X179865067Y-74959402D01*
X179874022Y-74973428D01*
X179883563Y-74987264D01*
X179891102Y-74997518D01*
X179898971Y-75007666D01*
X179907169Y-75017708D01*
X179915696Y-75027643D01*
X179766781Y-75142902D01*
X179758041Y-75133341D01*
X179749521Y-75123632D01*
X179741223Y-75113775D01*
X179733145Y-75103768D01*
X179725287Y-75093612D01*
X179717651Y-75083308D01*
X179710235Y-75072855D01*
X179703040Y-75062253D01*
X179696066Y-75051502D01*
X179689313Y-75040602D01*
X179682780Y-75029554D01*
X179676468Y-75018356D01*
X179670377Y-75007010D01*
X179664507Y-74995515D01*
X179658857Y-74983871D01*
X179653428Y-74972078D01*
X179648276Y-74960111D01*
X179643456Y-74948021D01*
X179638969Y-74935811D01*
X179634814Y-74923478D01*
X179630991Y-74911025D01*
X179627501Y-74898449D01*
X179624343Y-74885752D01*
X179621518Y-74872934D01*
X179619025Y-74859994D01*
X179616864Y-74846932D01*
X179615036Y-74833749D01*
X179613540Y-74820445D01*
X179612377Y-74807018D01*
X179611546Y-74793471D01*
X179611047Y-74779801D01*
X179610881Y-74766011D01*
X179611074Y-74750079D01*
X179611651Y-74734431D01*
X179612614Y-74719069D01*
X179613962Y-74703991D01*
X179615695Y-74689197D01*
X179617813Y-74674689D01*
X179620316Y-74660465D01*
X179623205Y-74646525D01*
X179626478Y-74632871D01*
X179630137Y-74619501D01*
X179632790Y-74610745D01*
X179637022Y-74597883D01*
X179641623Y-74585373D01*
X179646592Y-74573214D01*
X179651930Y-74561406D01*
X179657636Y-74549951D01*
X179665817Y-74535223D01*
X179674653Y-74521121D01*
X179684144Y-74507644D01*
X179694289Y-74494792D01*
X179696928Y-74491677D01*
X179707897Y-74479641D01*
X179719531Y-74468300D01*
X179731830Y-74457653D01*
X179744793Y-74447701D01*
X179758422Y-74438443D01*
X179772715Y-74429880D01*
X179787673Y-74422012D01*
X179799328Y-74416566D01*
X179803296Y-74414838D01*
X179815435Y-74409958D01*
X179827921Y-74405558D01*
X179840752Y-74401638D01*
X179853930Y-74398198D01*
X179867453Y-74395238D01*
X179881323Y-74392758D01*
X179895538Y-74390758D01*
X179910100Y-74389238D01*
X179925008Y-74388198D01*
X179940262Y-74387638D01*
X179950623Y-74387532D01*
X179963521Y-74387696D01*
X179976256Y-74388190D01*
X179992985Y-74389361D01*
X180009427Y-74391117D01*
X180025580Y-74393459D01*
X180041446Y-74396386D01*
X180057024Y-74399899D01*
X180072315Y-74403997D01*
X180079852Y-74406265D01*
X180094730Y-74411216D01*
X180109520Y-74416704D01*
X180124220Y-74422726D01*
X180138830Y-74429285D01*
X180153352Y-74436380D01*
X180167784Y-74444010D01*
X180182127Y-74452176D01*
X180196380Y-74460878D01*
X180210515Y-74470031D01*
X180221122Y-74477241D01*
X180231735Y-74484747D01*
X180242353Y-74492549D01*
X180252977Y-74500647D01*
X180263607Y-74509040D01*
X180274242Y-74517729D01*
X180284883Y-74526714D01*
X180295529Y-74535995D01*
X180306181Y-74545572D01*
X180309733Y-74548830D01*
X180320443Y-74558725D01*
X180331259Y-74568882D01*
X180342180Y-74579301D01*
X180353208Y-74589983D01*
X180364342Y-74600927D01*
X180375582Y-74612133D01*
X180386928Y-74623602D01*
X180398380Y-74635333D01*
X180409938Y-74647326D01*
X180421602Y-74659582D01*
X180429437Y-74667898D01*
X180586289Y-74837452D01*
X180586289Y-74345302D01*
X180789500Y-74345302D01*
X180789500Y-75137504D01*
G37*
G36*
X180545647Y-73462926D02*
G01*
X180789500Y-73462926D01*
X180789500Y-73675344D01*
X180545647Y-73675344D01*
X180545647Y-74218296D01*
X180368156Y-74218296D01*
X179631202Y-73762978D01*
X179631202Y-73672804D01*
X179838540Y-73672804D01*
X180362758Y-74004925D01*
X180362758Y-73672804D01*
X179838540Y-73672804D01*
X179631202Y-73672804D01*
X179631202Y-73462926D01*
X180362758Y-73462926D01*
X180362758Y-73286070D01*
X180545647Y-73286070D01*
X180545647Y-73462926D01*
G37*
G36*
X181134957Y-73017769D02*
G01*
X180972389Y-73017769D01*
X180972389Y-72751056D01*
X179651523Y-72751056D01*
X179651523Y-73017769D01*
X179488955Y-73017769D01*
X179488955Y-72550068D01*
X181134957Y-72550068D01*
X181134957Y-73017769D01*
G37*
%LPC*%
D13*
%TO.C,SW1*%
X205125000Y-81250000D03*
X207875000Y-81250000D03*
%TD*%
%TO.C,SW2*%
X205125000Y-70250000D03*
X207875000Y-70250000D03*
%TD*%
%TO.C,SW3*%
X205125000Y-92250000D03*
X207875000Y-92250000D03*
%TD*%
D14*
%TO.C,J1*%
X197640000Y-99395000D03*
X191860000Y-99395000D03*
D15*
X199070000Y-103075000D03*
D16*
X199070000Y-98875000D03*
D15*
X190430000Y-103075000D03*
D16*
X190430000Y-98875000D03*
%TD*%
M02*
