M48
; DRILL file {KiCad 7.0.1} date Mon Apr  1 23:51:06 2024
; FORMAT={-:-/ absolute / inch / decimal}
; #@! TF.CreationDate,2024-04-01T23:51:06+01:00
; #@! TF.GenerationSoftware,Kicad,Pcbnew,7.0.1
; #@! TF.FileFunction,Plated,1,2,PTH
FMAT,2
INCH
; #@! TA.AperFunction,Plated,PTH,ViaDrill
T1C0.0118
; #@! TA.AperFunction,Plated,PTH,ComponentDrill
T2C0.0118
; #@! TA.AperFunction,Plated,PTH,ComponentDrill
T3C0.0236
%
G90
G05
T1
X7.0669Y-3.8386
X7.126Y-2.7854
X7.1555Y-3.9272
X7.1752Y-3.6024
X7.1949Y-3.7402
X7.2146Y-2.7461
X7.2343Y-2.6378
X7.2539Y-2.5098
X7.2638Y-3.6614
X7.3031Y-3.4646
X7.313Y-3.2579
X7.3228Y-2.9429
X7.3228Y-3.4449
X7.3228Y-3.4843
X7.3228Y-3.7402
X7.3228Y-3.7992
X7.3524Y-3.4055
X7.3819Y-3.1988
X7.3819Y-3.3563
X7.4016Y-2.8346
X7.4213Y-2.7264
X7.4213Y-3.2874
X7.4213Y-3.3957
X7.4213Y-3.5236
X7.4508Y-3.0118
X7.4606Y-3.1004
X7.4705Y-3.5236
X7.4705Y-3.8091
X7.4803Y-2.6181
X7.4803Y-3.0512
X7.4902Y-3.435
X7.5098Y-3.6516
X7.5188Y-3.2097
X7.5197Y-3.2972
X7.5197Y-3.7776
X7.5492Y-2.815
X7.5492Y-2.9823
X7.564Y-3.2628
X7.564Y-3.4695
X7.5787Y-3.1102
X7.5787Y-3.8287
X7.5787Y-4.0354
X7.5821Y-3.5728
X7.5984Y-2.8051
X7.6378Y-3.6713
X7.6476Y-2.7559
X7.6575Y-3.6516
X7.6595Y-3.5171
X7.6673Y-3.1102
X7.6772Y-3.7008
X7.6772Y-3.7402
X7.6772Y-3.7992
X7.6969Y-2.874
X7.7067Y-3.6024
X7.7264Y-3.0709
X7.7264Y-3.9665
X7.7362Y-3.6417
X7.7461Y-3.2283
X7.7657Y-3.0709
X7.7657Y-3.6417
X7.7854Y-2.9528
X7.815Y-3.2382
X7.815Y-3.7008
X7.8248Y-2.6476
X7.8642Y-2.9134
X7.874Y-3.1299
X7.874Y-3.4449
X7.8839Y-3.5531
X7.8839Y-3.622
X7.8839Y-3.8484
X7.8839Y-3.878
X7.9035Y-3.7303
X7.9134Y-3.2185
X7.9134Y-3.2677
X7.9232Y-3.7106
X7.9331Y-3.1299
X7.9331Y-3.5039
X7.9528Y-3.002
X7.9528Y-3.0315
X7.9626Y-2.5197
X7.9724Y-3.0512
X7.9724Y-3.2776
X7.9724Y-3.4252
X7.9921Y-3.1791
X8.002Y-3.0413
X8.002Y-3.8878
X8.0217Y-2.8445
X8.0217Y-2.874
X8.0315Y-2.9035
X8.0413Y-3.7402
X8.0512Y-2.7165
X8.0512Y-3.0217
X8.061Y-3.4843
X8.0709Y-3.248
X8.0906Y-3.8091
X8.1004Y-2.8051
X8.1201Y-2.9429
X8.1201Y-3.1594
X8.1299Y-3.5827
X8.1299Y-3.6811
X8.1398Y-3.9272
X8.1791Y-3.3563
X8.2087Y-3.8091
X8.2283Y-2.9626
X8.2382Y-2.5886
X8.2382Y-3.4744
X8.2677Y-3.7894
T2
X7.2687Y-3.4606
T3
G00X7.4972Y-3.9144
M15
G01X7.4972Y-3.8711
M16
G05
G00X7.4972Y-4.0738
M15
G01X7.4972Y-4.0423
M16
G05
G00X7.8374Y-3.9144
M15
G01X7.8374Y-3.8711
M16
G05
G00X7.8374Y-4.0738
M15
G01X7.8374Y-4.0423
M16
G05
T0
M30
