%TF.GenerationSoftware,KiCad,Pcbnew,7.0.1*%
%TF.CreationDate,2024-04-01T23:51:06+01:00*%
%TF.ProjectId,Hardware,48617264-7761-4726-952e-6b696361645f,rev?*%
%TF.SameCoordinates,Original*%
%TF.FileFunction,Profile,NP*%
%FSLAX46Y46*%
G04 Gerber Fmt 4.6, Leading zero omitted, Abs format (unit mm)*
G04 Created by KiCad (PCBNEW 7.0.1) date 2024-04-01 23:51:06*
%MOMM*%
%LPD*%
G01*
G04 APERTURE LIST*
%TA.AperFunction,Profile*%
%ADD10C,0.100000*%
%TD*%
G04 APERTURE END LIST*
D10*
X208500000Y-95750000D02*
X210500000Y-95750000D01*
X208500000Y-73750000D02*
X210500000Y-73750000D01*
X210000000Y-62250000D02*
X210500000Y-62750000D01*
X185250000Y-100250000D02*
X189250000Y-104250000D01*
X187250000Y-62250000D02*
X179500000Y-62250000D01*
X208500000Y-84750000D02*
X210500000Y-84750000D01*
X210000000Y-100250000D02*
X210500000Y-99750000D01*
X189250000Y-64000000D02*
X200250000Y-64000000D01*
X202250000Y-62250000D02*
X210000000Y-62250000D01*
X200250000Y-64000000D02*
X202250000Y-62250000D01*
X200250000Y-104250000D02*
X204250000Y-100250000D01*
X208500000Y-88750000D02*
X208500000Y-95750000D01*
X210500000Y-62750000D02*
X210500000Y-66750000D01*
X208500000Y-66750000D02*
X208500000Y-73750000D01*
X208500000Y-77750000D02*
X208500000Y-84750000D01*
X189250000Y-104250000D02*
X200250000Y-104250000D01*
X208500000Y-77750000D02*
X210500000Y-77750000D01*
X210500000Y-95750000D02*
X210500000Y-99750000D01*
X210500000Y-84750000D02*
X210500000Y-88750000D01*
X189250000Y-64000000D02*
X187250000Y-62250000D01*
X208500000Y-66750000D02*
X210500000Y-66750000D01*
X179000000Y-99750000D02*
X179000000Y-62750000D01*
X208500000Y-88750000D02*
X210500000Y-88750000D01*
X179000000Y-62750000D02*
X179500000Y-62250000D01*
X204250000Y-100250000D02*
X210000000Y-100250000D01*
X210500000Y-73750000D02*
X210500000Y-77750000D01*
X185250000Y-100250000D02*
X179500000Y-100250000D01*
X179000000Y-99750000D02*
X179500000Y-100250000D01*
M02*
