%TF.GenerationSoftware,KiCad,Pcbnew,7.0.1*%
%TF.CreationDate,2024-04-01T23:51:06+01:00*%
%TF.ProjectId,Hardware,48617264-7761-4726-952e-6b696361645f,rev?*%
%TF.SameCoordinates,Original*%
%TF.FileFunction,Copper,L1,Top*%
%TF.FilePolarity,Positive*%
%FSLAX46Y46*%
G04 Gerber Fmt 4.6, Leading zero omitted, Abs format (unit mm)*
G04 Created by KiCad (PCBNEW 7.0.1) date 2024-04-01 23:51:06*
%MOMM*%
%LPD*%
G01*
G04 APERTURE LIST*
%TA.AperFunction,ComponentPad*%
%ADD10R,0.500000X0.900000*%
%TD*%
%TA.AperFunction,ComponentPad*%
%ADD11O,1.000000X1.800000*%
%TD*%
%TA.AperFunction,ComponentPad*%
%ADD12O,1.000000X2.100000*%
%TD*%
%TA.AperFunction,ViaPad*%
%ADD13C,0.500000*%
%TD*%
%TA.AperFunction,Conductor*%
%ADD14C,0.200000*%
%TD*%
%TA.AperFunction,Conductor*%
%ADD15C,0.100000*%
%TD*%
G04 APERTURE END LIST*
D10*
%TO.P,AE1,2,PCB_Trace*%
%TO.N,GND*%
X184625000Y-87900000D03*
%TD*%
D11*
%TO.P,J1,S1,SHIELD*%
%TO.N,GND*%
X199070000Y-103075000D03*
D12*
X199070000Y-98875000D03*
D11*
X190430000Y-103075000D03*
D12*
X190430000Y-98875000D03*
%TD*%
D13*
%TO.N,GND*%
X203000000Y-80750000D03*
X188500000Y-69250000D03*
X181750000Y-99750000D03*
X203250000Y-98750000D03*
X189750000Y-96750000D03*
X183250000Y-69750000D03*
X192500000Y-102500000D03*
X200250000Y-90250000D03*
X186000000Y-74750000D03*
X207750000Y-85250000D03*
X196250000Y-100750000D03*
X201500000Y-89000000D03*
X186000000Y-95000000D03*
X195000000Y-95000000D03*
X209250000Y-65750000D03*
X185750000Y-82750000D03*
X204750000Y-88500000D03*
X190976257Y-81527341D03*
X187500000Y-81250000D03*
X186000000Y-96500000D03*
X205750000Y-71250000D03*
X194551600Y-89334090D03*
X191750000Y-75750000D03*
X201000000Y-81750000D03*
X202250000Y-64000000D03*
X188500000Y-89500000D03*
X200000000Y-79500000D03*
X195000000Y-94000000D03*
X199750000Y-74000000D03*
X186000000Y-87500000D03*
X210000000Y-96250000D03*
X191750000Y-71500000D03*
X206500000Y-91000000D03*
X187500000Y-85250000D03*
X179500000Y-97500000D03*
X195000000Y-96500000D03*
X204500000Y-69000000D03*
X190000000Y-66500000D03*
X198750000Y-67250000D03*
X206250000Y-74750000D03*
X188000000Y-72000000D03*
X208500000Y-96750000D03*
X186750000Y-86500000D03*
X194250000Y-70000000D03*
X204250000Y-95000000D03*
X198500000Y-94000000D03*
X205500000Y-96750000D03*
X197750000Y-75000000D03*
X205000000Y-82500000D03*
X206500000Y-93500000D03*
X188500000Y-83500000D03*
X201000000Y-83000000D03*
X209000000Y-75250000D03*
X206250000Y-80250000D03*
X192125000Y-88125000D03*
X184250000Y-63750000D03*
X188500000Y-86250000D03*
X196250000Y-78000000D03*
X197250000Y-78000000D03*
X183750000Y-67000000D03*
X206750000Y-99750000D03*
X202500000Y-83250000D03*
X185500000Y-88000000D03*
X204500000Y-76750000D03*
X186000000Y-88500000D03*
X194500000Y-92750000D03*
X209250000Y-88250000D03*
X182750000Y-95000000D03*
X194000000Y-93250000D03*
X200250000Y-92000000D03*
X192125000Y-82875000D03*
X190000000Y-77500000D03*
X184500000Y-93000000D03*
X192500000Y-97250000D03*
X189500000Y-78750000D03*
X201500000Y-79500000D03*
X204000000Y-73750000D03*
%TO.N,VBUS*%
X197250000Y-92500000D03*
X196500000Y-92500000D03*
X202000000Y-77000000D03*
X202000000Y-76250000D03*
%TO.N,+BATT*%
X200250000Y-97750000D03*
X203250000Y-77250000D03*
X200750000Y-94750000D03*
X200250000Y-98500000D03*
X201250000Y-94250000D03*
X202500000Y-77500000D03*
%TO.N,Net-(U1-DEC4)*%
X196750000Y-82000000D03*
X191000000Y-83750000D03*
%TO.N,+3V3*%
X195750000Y-91500000D03*
X190750000Y-92750000D03*
X198500000Y-82250000D03*
X182250000Y-91500000D03*
X202500000Y-87000000D03*
X203750000Y-72250000D03*
X181000000Y-70750000D03*
X192500000Y-79000000D03*
X203750000Y-73000000D03*
X192585189Y-90750000D03*
X189750000Y-89500000D03*
X194750000Y-79000000D03*
X200000000Y-87500000D03*
X195500000Y-73000000D03*
%TO.N,/IMU_INT*%
X191000000Y-95950497D03*
X190250000Y-87250000D03*
%TO.N,Net-(J5-Pin_1)*%
X193000000Y-71250000D03*
X189250000Y-76500000D03*
%TD*%
D14*
%TO.N,VBUS*%
X197250000Y-92500000D02*
X196500000Y-92500000D01*
X203650000Y-80400000D02*
X203650000Y-91100000D01*
X202000000Y-78750000D02*
X203650000Y-80400000D01*
X202000000Y-76250000D02*
X202000000Y-78750000D01*
X202250000Y-92500000D02*
X197250000Y-92500000D01*
X203650000Y-91100000D02*
X202250000Y-92500000D01*
%TO.N,+BATT*%
X200250000Y-97750000D02*
X200250000Y-98500000D01*
X200250000Y-95250000D02*
X200250000Y-97750000D01*
X204000000Y-78000000D02*
X203250000Y-77250000D01*
X204000000Y-91500000D02*
X204000000Y-78000000D01*
X200750000Y-94750000D02*
X204000000Y-91500000D01*
X203250000Y-77250000D02*
X203000000Y-77500000D01*
X203000000Y-77500000D02*
X202500000Y-77500000D01*
X200750000Y-94750000D02*
X200250000Y-95250000D01*
D15*
%TO.N,Net-(U1-DEC4)*%
X195000000Y-83750000D02*
X196750000Y-82000000D01*
X191000000Y-83750000D02*
X195000000Y-83750000D01*
%TO.N,+3V3*%
X202000000Y-87500000D02*
X202500000Y-87000000D01*
X182250000Y-91500000D02*
X187750000Y-91500000D01*
D14*
X190250000Y-79000000D02*
X189750000Y-79500000D01*
D15*
X193250000Y-70750000D02*
X195500000Y-73000000D01*
X181000000Y-70750000D02*
X193250000Y-70750000D01*
D14*
X193052699Y-90282490D02*
X195750000Y-90282490D01*
X195750000Y-90282490D02*
X197217510Y-90282490D01*
X192585189Y-90750000D02*
X193052699Y-90282490D01*
X197217510Y-90282490D02*
X200000000Y-87500000D01*
D15*
X195750000Y-91500000D02*
X195750000Y-90282490D01*
D14*
X195500000Y-73000000D02*
X194750000Y-73750000D01*
X190750000Y-92585189D02*
X190750000Y-92750000D01*
X192585189Y-90750000D02*
X190750000Y-92585189D01*
X203750000Y-72250000D02*
X203750000Y-73000000D01*
X189750000Y-79500000D02*
X189750000Y-89500000D01*
D15*
X200000000Y-87500000D02*
X202000000Y-87500000D01*
D14*
X200000000Y-83750000D02*
X200000000Y-87500000D01*
X192500000Y-79000000D02*
X190250000Y-79000000D01*
D15*
X187750000Y-91500000D02*
X189750000Y-89500000D01*
D14*
X198500000Y-82250000D02*
X200000000Y-83750000D01*
X192500000Y-79000000D02*
X194750000Y-79000000D01*
X203750000Y-73000000D02*
X195500000Y-73000000D01*
X198500000Y-82250000D02*
X195250000Y-79000000D01*
X195250000Y-79000000D02*
X194750000Y-79000000D01*
X194750000Y-73750000D02*
X194750000Y-79000000D01*
D15*
%TO.N,/IMU_INT*%
X191000000Y-95950497D02*
X190250000Y-95200497D01*
X190250000Y-95200497D02*
X190250000Y-87250000D01*
D14*
%TO.N,Net-(J5-Pin_1)*%
X193000000Y-71250000D02*
X193000000Y-72750000D01*
X193000000Y-72750000D02*
X189250000Y-76500000D01*
%TD*%
%TA.AperFunction,Conductor*%
%TO.N,GND*%
G36*
X192182564Y-79254230D02*
G01*
X192198460Y-79264852D01*
X192261656Y-79328049D01*
X192261658Y-79328050D01*
X192374696Y-79385646D01*
X192500000Y-79405492D01*
X192625304Y-79385646D01*
X192738342Y-79328050D01*
X192801540Y-79264852D01*
X192817436Y-79254230D01*
X192836188Y-79250500D01*
X194413812Y-79250500D01*
X194432564Y-79254230D01*
X194448460Y-79264852D01*
X194511656Y-79328049D01*
X194511658Y-79328050D01*
X194624696Y-79385646D01*
X194750000Y-79405492D01*
X194875304Y-79385646D01*
X194988342Y-79328050D01*
X195051540Y-79264852D01*
X195067436Y-79254230D01*
X195086188Y-79250500D01*
X195125944Y-79250500D01*
X195160592Y-79264852D01*
X198083858Y-82188118D01*
X198095812Y-82207624D01*
X198097607Y-82230430D01*
X198094507Y-82250000D01*
X198114354Y-82375305D01*
X198171950Y-82488343D01*
X198261656Y-82578049D01*
X198261658Y-82578050D01*
X198374696Y-82635646D01*
X198500000Y-82655492D01*
X198519570Y-82652392D01*
X198542374Y-82654187D01*
X198561881Y-82666141D01*
X199735148Y-83839408D01*
X199749500Y-83874056D01*
X199749500Y-87163812D01*
X199745770Y-87182564D01*
X199735148Y-87198460D01*
X199671950Y-87261656D01*
X199614354Y-87374694D01*
X199594507Y-87500002D01*
X199597606Y-87519570D01*
X199595810Y-87542376D01*
X199583857Y-87561881D01*
X197128102Y-90017638D01*
X197112205Y-90028260D01*
X197093454Y-90031990D01*
X195774674Y-90031990D01*
X193082197Y-90031990D01*
X193072637Y-90031048D01*
X193052698Y-90027081D01*
X192954958Y-90046523D01*
X192925166Y-90066428D01*
X192925162Y-90066432D01*
X192872096Y-90101889D01*
X192860799Y-90118797D01*
X192854706Y-90126221D01*
X192647070Y-90333857D01*
X192627565Y-90345810D01*
X192604759Y-90347606D01*
X192585191Y-90344507D01*
X192459883Y-90364354D01*
X192346845Y-90421950D01*
X192257139Y-90511656D01*
X192199543Y-90624694D01*
X192179696Y-90750002D01*
X192182795Y-90769570D01*
X192180999Y-90792376D01*
X192169046Y-90811881D01*
X190613626Y-92367301D01*
X190601224Y-92376312D01*
X190521746Y-92416809D01*
X190489313Y-92421079D01*
X190461420Y-92403987D01*
X190450500Y-92373150D01*
X190450500Y-87627359D01*
X190457721Y-87601757D01*
X190477254Y-87583700D01*
X190480732Y-87581927D01*
X190488342Y-87578050D01*
X190578050Y-87488342D01*
X190635646Y-87375304D01*
X190655492Y-87250000D01*
X190635646Y-87124696D01*
X190578050Y-87011658D01*
X190578049Y-87011656D01*
X190488343Y-86921950D01*
X190375305Y-86864354D01*
X190250000Y-86844507D01*
X190124694Y-86864354D01*
X190071746Y-86891333D01*
X190039312Y-86895603D01*
X190011420Y-86878511D01*
X190000500Y-86847674D01*
X190000500Y-83750000D01*
X190594507Y-83750000D01*
X190614354Y-83875305D01*
X190671950Y-83988343D01*
X190761656Y-84078049D01*
X190761658Y-84078050D01*
X190874696Y-84135646D01*
X190976418Y-84151757D01*
X190999999Y-84155492D01*
X190999999Y-84155491D01*
X191000000Y-84155492D01*
X191125304Y-84135646D01*
X191238342Y-84078050D01*
X191328050Y-83988342D01*
X191333699Y-83977254D01*
X191351757Y-83957721D01*
X191377359Y-83950500D01*
X194957612Y-83950500D01*
X194973796Y-83953250D01*
X194976973Y-83954362D01*
X194976973Y-83954361D01*
X194976974Y-83954362D01*
X195008521Y-83950808D01*
X195014007Y-83950500D01*
X195022591Y-83950500D01*
X195026980Y-83949497D01*
X195030954Y-83948590D01*
X195036364Y-83947670D01*
X195067924Y-83944116D01*
X195070778Y-83942322D01*
X195085944Y-83936040D01*
X195089231Y-83935290D01*
X195114067Y-83915482D01*
X195118523Y-83912320D01*
X195125801Y-83907748D01*
X195131869Y-83901678D01*
X195135945Y-83898034D01*
X195160788Y-83878224D01*
X195162250Y-83875186D01*
X195171747Y-83861800D01*
X196627077Y-82406471D01*
X196646581Y-82394519D01*
X196669386Y-82392724D01*
X196750000Y-82405492D01*
X196875304Y-82385646D01*
X196988342Y-82328050D01*
X197078050Y-82238342D01*
X197135646Y-82125304D01*
X197155492Y-82000000D01*
X197135646Y-81874696D01*
X197078050Y-81761658D01*
X197078049Y-81761656D01*
X196988343Y-81671950D01*
X196875305Y-81614354D01*
X196750000Y-81594507D01*
X196624694Y-81614354D01*
X196511656Y-81671950D01*
X196421950Y-81761656D01*
X196364354Y-81874694D01*
X196344507Y-82000000D01*
X196357274Y-82080610D01*
X196355479Y-82103417D01*
X196343525Y-82122923D01*
X194931303Y-83535148D01*
X194915407Y-83545770D01*
X194896655Y-83549500D01*
X191377359Y-83549500D01*
X191351757Y-83542279D01*
X191333700Y-83522746D01*
X191328049Y-83511656D01*
X191238343Y-83421950D01*
X191125305Y-83364354D01*
X191000000Y-83344507D01*
X190874694Y-83364354D01*
X190761656Y-83421950D01*
X190671950Y-83511656D01*
X190614354Y-83624694D01*
X190594507Y-83750000D01*
X190000500Y-83750000D01*
X190000500Y-79624056D01*
X190004230Y-79605304D01*
X190014852Y-79589408D01*
X190339409Y-79264852D01*
X190374057Y-79250500D01*
X192163812Y-79250500D01*
X192182564Y-79254230D01*
G37*
%TD.AperFunction*%
%TA.AperFunction,Conductor*%
G36*
X187263668Y-62262624D02*
G01*
X189247896Y-63998823D01*
X189247947Y-63998867D01*
X189249697Y-64000506D01*
X189249889Y-64000578D01*
X189252258Y-64000500D01*
X200247742Y-64000500D01*
X200250154Y-64000579D01*
X200250283Y-64000531D01*
X200252092Y-63998832D01*
X202236330Y-62262624D01*
X202268598Y-62250500D01*
X209979496Y-62250500D01*
X210014144Y-62264852D01*
X210485148Y-62735855D01*
X210495770Y-62751751D01*
X210499500Y-62770503D01*
X210499500Y-66700500D01*
X210485148Y-66735148D01*
X210450500Y-66749500D01*
X208509844Y-66749500D01*
X208509638Y-66749459D01*
X208500001Y-66749459D01*
X208500000Y-66749459D01*
X208499901Y-66749500D01*
X208499759Y-66749558D01*
X208499616Y-66749617D01*
X208499459Y-66749999D01*
X208499465Y-66759672D01*
X208499500Y-66759843D01*
X208499500Y-70097450D01*
X208486877Y-70130279D01*
X208455511Y-70146193D01*
X208421563Y-70136993D01*
X208402525Y-70107419D01*
X208393836Y-70065605D01*
X208324848Y-69932464D01*
X208222496Y-69822872D01*
X208222495Y-69822871D01*
X208094371Y-69744957D01*
X208094368Y-69744956D01*
X207949977Y-69704500D01*
X207837684Y-69704500D01*
X207782062Y-69712145D01*
X207726440Y-69719790D01*
X207588902Y-69779531D01*
X207472581Y-69874164D01*
X207386105Y-69996675D01*
X207335888Y-70137970D01*
X207325655Y-70287577D01*
X207356163Y-70434394D01*
X207425151Y-70567535D01*
X207457320Y-70601980D01*
X207527505Y-70677129D01*
X207655629Y-70755043D01*
X207800023Y-70795500D01*
X207912314Y-70795500D01*
X207912316Y-70795500D01*
X208023558Y-70780210D01*
X208161098Y-70720468D01*
X208277419Y-70625834D01*
X208363895Y-70503325D01*
X208404329Y-70389552D01*
X208425759Y-70363668D01*
X208458826Y-70357675D01*
X208487976Y-70374395D01*
X208499500Y-70405963D01*
X208499500Y-73740156D01*
X208499459Y-73740362D01*
X208499459Y-73749999D01*
X208499459Y-73750000D01*
X208499465Y-73750015D01*
X208499483Y-73750104D01*
X208499500Y-73750098D01*
X208499500Y-73750099D01*
X208499617Y-73750383D01*
X208500000Y-73750541D01*
X208500002Y-73750539D01*
X208509672Y-73750534D01*
X208509843Y-73750500D01*
X210450500Y-73750500D01*
X210485148Y-73764852D01*
X210499500Y-73799500D01*
X210499500Y-77700500D01*
X210485148Y-77735148D01*
X210450500Y-77749500D01*
X208509844Y-77749500D01*
X208509638Y-77749459D01*
X208500001Y-77749459D01*
X208500000Y-77749459D01*
X208499901Y-77749500D01*
X208499758Y-77749558D01*
X208499616Y-77749617D01*
X208499459Y-77749999D01*
X208499465Y-77759672D01*
X208499500Y-77759843D01*
X208499500Y-81097450D01*
X208486877Y-81130279D01*
X208455511Y-81146193D01*
X208421563Y-81136993D01*
X208402525Y-81107419D01*
X208393836Y-81065605D01*
X208324848Y-80932464D01*
X208222496Y-80822872D01*
X208222495Y-80822871D01*
X208094371Y-80744957D01*
X208094368Y-80744956D01*
X207949977Y-80704500D01*
X207837684Y-80704500D01*
X207782063Y-80712144D01*
X207726440Y-80719790D01*
X207588902Y-80779531D01*
X207472581Y-80874164D01*
X207386105Y-80996675D01*
X207335888Y-81137970D01*
X207325655Y-81287577D01*
X207356163Y-81434394D01*
X207425151Y-81567535D01*
X207425153Y-81567537D01*
X207527505Y-81677129D01*
X207655629Y-81755043D01*
X207800023Y-81795500D01*
X207912314Y-81795500D01*
X207912316Y-81795500D01*
X208023558Y-81780210D01*
X208161098Y-81720468D01*
X208277419Y-81625834D01*
X208363895Y-81503325D01*
X208404329Y-81389552D01*
X208425759Y-81363668D01*
X208458826Y-81357675D01*
X208487976Y-81374395D01*
X208499500Y-81405963D01*
X208499500Y-84740156D01*
X208499459Y-84740362D01*
X208499459Y-84749999D01*
X208499459Y-84750000D01*
X208499465Y-84750015D01*
X208499483Y-84750104D01*
X208499500Y-84750098D01*
X208499500Y-84750099D01*
X208499617Y-84750383D01*
X208500000Y-84750541D01*
X208500002Y-84750539D01*
X208509672Y-84750534D01*
X208509843Y-84750500D01*
X210450500Y-84750500D01*
X210485148Y-84764852D01*
X210499500Y-84799500D01*
X210499500Y-88700500D01*
X210485148Y-88735148D01*
X210450500Y-88749500D01*
X208509844Y-88749500D01*
X208509638Y-88749459D01*
X208500001Y-88749459D01*
X208500000Y-88749459D01*
X208499901Y-88749500D01*
X208499759Y-88749558D01*
X208499616Y-88749617D01*
X208499459Y-88749999D01*
X208499465Y-88759672D01*
X208499500Y-88759843D01*
X208499500Y-92097450D01*
X208486877Y-92130279D01*
X208455511Y-92146193D01*
X208421563Y-92136993D01*
X208402525Y-92107419D01*
X208393836Y-92065605D01*
X208324848Y-91932464D01*
X208222496Y-91822872D01*
X208222495Y-91822871D01*
X208094371Y-91744957D01*
X208094368Y-91744956D01*
X207949977Y-91704500D01*
X207837684Y-91704500D01*
X207782063Y-91712144D01*
X207726440Y-91719790D01*
X207588902Y-91779531D01*
X207472581Y-91874164D01*
X207386105Y-91996675D01*
X207335888Y-92137970D01*
X207325655Y-92287577D01*
X207356163Y-92434394D01*
X207425151Y-92567535D01*
X207425153Y-92567537D01*
X207527505Y-92677129D01*
X207655629Y-92755043D01*
X207800023Y-92795500D01*
X207912314Y-92795500D01*
X207912316Y-92795500D01*
X208023558Y-92780210D01*
X208161098Y-92720468D01*
X208277419Y-92625834D01*
X208363895Y-92503325D01*
X208404329Y-92389552D01*
X208425759Y-92363668D01*
X208458826Y-92357675D01*
X208487976Y-92374395D01*
X208499500Y-92405963D01*
X208499500Y-95740156D01*
X208499459Y-95740362D01*
X208499459Y-95749999D01*
X208499459Y-95750000D01*
X208499465Y-95750015D01*
X208499483Y-95750104D01*
X208499500Y-95750098D01*
X208499500Y-95750099D01*
X208499617Y-95750383D01*
X208500000Y-95750541D01*
X208500002Y-95750539D01*
X208509672Y-95750534D01*
X208509843Y-95750500D01*
X210450500Y-95750500D01*
X210485148Y-95764852D01*
X210499500Y-95799500D01*
X210499500Y-99729497D01*
X210495770Y-99748249D01*
X210485148Y-99764145D01*
X210014144Y-100235148D01*
X209979496Y-100249500D01*
X204259844Y-100249500D01*
X204259638Y-100249459D01*
X204250001Y-100249459D01*
X204250000Y-100249459D01*
X204249901Y-100249499D01*
X204249901Y-100249500D01*
X204249616Y-100249617D01*
X204242982Y-100256206D01*
X204242770Y-100256521D01*
X200264144Y-104235148D01*
X200248247Y-104245770D01*
X200229496Y-104249500D01*
X189270503Y-104249500D01*
X189251752Y-104245770D01*
X189235855Y-104235148D01*
X188325707Y-103325000D01*
X189830000Y-103325000D01*
X189830000Y-103514322D01*
X189845444Y-103631631D01*
X189905902Y-103777589D01*
X190002074Y-103902925D01*
X190127409Y-103999097D01*
X190180000Y-104020881D01*
X190180000Y-103325000D01*
X190680000Y-103325000D01*
X190680000Y-104020881D01*
X190732589Y-103999097D01*
X190857925Y-103902925D01*
X190954097Y-103777589D01*
X191014555Y-103631631D01*
X191030000Y-103514322D01*
X191030000Y-103325000D01*
X198470000Y-103325000D01*
X198470000Y-103514322D01*
X198485444Y-103631631D01*
X198545902Y-103777589D01*
X198642074Y-103902925D01*
X198767409Y-103999097D01*
X198820000Y-104020881D01*
X198820000Y-103325000D01*
X199320000Y-103325000D01*
X199320000Y-104020881D01*
X199372589Y-103999097D01*
X199497925Y-103902925D01*
X199594097Y-103777589D01*
X199654555Y-103631631D01*
X199670000Y-103514322D01*
X199670000Y-103325000D01*
X199320000Y-103325000D01*
X198820000Y-103325000D01*
X198470000Y-103325000D01*
X191030000Y-103325000D01*
X190680000Y-103325000D01*
X190180000Y-103325000D01*
X189830000Y-103325000D01*
X188325707Y-103325000D01*
X187825707Y-102825000D01*
X189830000Y-102825000D01*
X190180000Y-102825000D01*
X190180000Y-102129118D01*
X190680000Y-102129118D01*
X190680000Y-102825000D01*
X191030000Y-102825000D01*
X198470000Y-102825000D01*
X198820000Y-102825000D01*
X198820000Y-102129118D01*
X199320000Y-102129118D01*
X199320000Y-102825000D01*
X199670000Y-102825000D01*
X199670000Y-102635678D01*
X199654555Y-102518368D01*
X199594097Y-102372410D01*
X199497925Y-102247074D01*
X199372590Y-102150902D01*
X199320000Y-102129118D01*
X198820000Y-102129118D01*
X198767410Y-102150902D01*
X198642074Y-102247074D01*
X198545902Y-102372410D01*
X198485444Y-102518368D01*
X198470000Y-102635678D01*
X198470000Y-102825000D01*
X191030000Y-102825000D01*
X191030000Y-102635678D01*
X191014555Y-102518368D01*
X190954097Y-102372410D01*
X190857925Y-102247074D01*
X190732590Y-102150902D01*
X190680000Y-102129118D01*
X190180000Y-102129118D01*
X190127410Y-102150902D01*
X190002074Y-102247074D01*
X189905902Y-102372410D01*
X189845444Y-102518368D01*
X189830000Y-102635678D01*
X189830000Y-102825000D01*
X187825707Y-102825000D01*
X187247781Y-102247074D01*
X185257408Y-100256700D01*
X185257317Y-100256562D01*
X185257305Y-100256575D01*
X185250383Y-100249618D01*
X185250383Y-100249617D01*
X185250381Y-100249616D01*
X185250380Y-100249615D01*
X185250333Y-100249596D01*
X185250294Y-100249561D01*
X185250288Y-100249577D01*
X185250001Y-100249457D01*
X185240321Y-100249458D01*
X185240115Y-100249500D01*
X179520503Y-100249500D01*
X179501751Y-100245770D01*
X179485855Y-100235148D01*
X179014852Y-99764144D01*
X179000500Y-99729496D01*
X179000500Y-99125000D01*
X189830000Y-99125000D01*
X189830000Y-99464322D01*
X189845444Y-99581631D01*
X189905902Y-99727589D01*
X190002074Y-99852925D01*
X190127409Y-99949097D01*
X190180000Y-99970881D01*
X190180000Y-99125000D01*
X190680000Y-99125000D01*
X190680000Y-99970881D01*
X190732589Y-99949097D01*
X190857925Y-99852925D01*
X190954097Y-99727589D01*
X191014555Y-99581631D01*
X191029747Y-99466242D01*
X191364500Y-99466242D01*
X191404643Y-99602955D01*
X191481676Y-99722820D01*
X191589358Y-99816127D01*
X191718966Y-99875317D01*
X191761205Y-99881390D01*
X191824561Y-99890500D01*
X191824564Y-99890500D01*
X191895436Y-99890500D01*
X191895439Y-99890500D01*
X191948235Y-99882908D01*
X192001034Y-99875317D01*
X192130642Y-99816127D01*
X192238324Y-99722820D01*
X192315357Y-99602955D01*
X192355500Y-99466242D01*
X197144500Y-99466242D01*
X197184643Y-99602955D01*
X197261676Y-99722820D01*
X197369358Y-99816127D01*
X197498966Y-99875317D01*
X197541205Y-99881390D01*
X197604561Y-99890500D01*
X197604564Y-99890500D01*
X197675436Y-99890500D01*
X197675439Y-99890500D01*
X197728235Y-99882908D01*
X197781034Y-99875317D01*
X197910642Y-99816127D01*
X198018324Y-99722820D01*
X198095357Y-99602955D01*
X198135500Y-99466242D01*
X198135500Y-99323758D01*
X198095357Y-99187045D01*
X198055483Y-99125000D01*
X198470000Y-99125000D01*
X198470000Y-99464322D01*
X198485444Y-99581631D01*
X198545902Y-99727589D01*
X198642074Y-99852925D01*
X198767409Y-99949097D01*
X198820000Y-99970881D01*
X198820000Y-99125000D01*
X199320000Y-99125000D01*
X199320000Y-99970881D01*
X199372589Y-99949097D01*
X199497925Y-99852925D01*
X199594097Y-99727589D01*
X199654555Y-99581631D01*
X199670000Y-99464322D01*
X199670000Y-99125000D01*
X199320000Y-99125000D01*
X198820000Y-99125000D01*
X198470000Y-99125000D01*
X198055483Y-99125000D01*
X198018324Y-99067180D01*
X197910642Y-98973873D01*
X197781034Y-98914683D01*
X197781032Y-98914682D01*
X197781031Y-98914682D01*
X197675439Y-98899500D01*
X197675436Y-98899500D01*
X197604564Y-98899500D01*
X197604561Y-98899500D01*
X197498968Y-98914682D01*
X197369357Y-98973873D01*
X197261676Y-99067179D01*
X197261676Y-99067180D01*
X197184643Y-99187045D01*
X197144500Y-99323758D01*
X197144500Y-99466242D01*
X192355500Y-99466242D01*
X192355500Y-99323758D01*
X192315357Y-99187045D01*
X192238324Y-99067180D01*
X192130642Y-98973873D01*
X192001034Y-98914683D01*
X192001032Y-98914682D01*
X192001031Y-98914682D01*
X191895439Y-98899500D01*
X191895436Y-98899500D01*
X191824564Y-98899500D01*
X191824561Y-98899500D01*
X191718968Y-98914682D01*
X191589357Y-98973873D01*
X191481676Y-99067179D01*
X191481676Y-99067180D01*
X191404643Y-99187045D01*
X191364500Y-99323758D01*
X191364500Y-99466242D01*
X191029747Y-99466242D01*
X191030000Y-99464322D01*
X191030000Y-99125000D01*
X190680000Y-99125000D01*
X190180000Y-99125000D01*
X189830000Y-99125000D01*
X179000500Y-99125000D01*
X179000500Y-98625000D01*
X189830000Y-98625000D01*
X190180000Y-98625000D01*
X190180000Y-97779118D01*
X190680000Y-97779118D01*
X190680000Y-98625000D01*
X191030000Y-98625000D01*
X198470000Y-98625000D01*
X198820000Y-98625000D01*
X198820000Y-97779118D01*
X199320000Y-97779118D01*
X199320000Y-98625000D01*
X199670000Y-98625000D01*
X199670000Y-98285678D01*
X199654555Y-98168368D01*
X199594097Y-98022410D01*
X199497925Y-97897074D01*
X199372590Y-97800902D01*
X199320000Y-97779118D01*
X198820000Y-97779118D01*
X198767410Y-97800902D01*
X198642074Y-97897074D01*
X198545902Y-98022410D01*
X198485444Y-98168368D01*
X198470000Y-98285678D01*
X198470000Y-98625000D01*
X191030000Y-98625000D01*
X191030000Y-98285678D01*
X191014555Y-98168368D01*
X190954097Y-98022410D01*
X190857925Y-97897074D01*
X190732590Y-97800902D01*
X190680000Y-97779118D01*
X190180000Y-97779118D01*
X190127410Y-97800902D01*
X190002074Y-97897074D01*
X189905902Y-98022410D01*
X189845444Y-98168368D01*
X189830000Y-98285678D01*
X189830000Y-98625000D01*
X179000500Y-98625000D01*
X179000500Y-91638291D01*
X179010237Y-91608975D01*
X179035580Y-91591310D01*
X185250000Y-89750000D01*
X185250000Y-72750000D01*
X179035580Y-70908690D01*
X179010237Y-70891025D01*
X179000500Y-70861709D01*
X179000500Y-70750000D01*
X180594507Y-70750000D01*
X180614354Y-70875305D01*
X180671950Y-70988343D01*
X180761656Y-71078049D01*
X180853205Y-71124696D01*
X180874696Y-71135646D01*
X180976418Y-71151757D01*
X180999999Y-71155492D01*
X180999999Y-71155491D01*
X181000000Y-71155492D01*
X181125304Y-71135646D01*
X181238342Y-71078050D01*
X181328050Y-70988342D01*
X181333699Y-70977254D01*
X181351757Y-70957721D01*
X181377359Y-70950500D01*
X192623150Y-70950500D01*
X192653987Y-70961420D01*
X192671079Y-70989312D01*
X192666809Y-71021746D01*
X192614354Y-71124694D01*
X192594507Y-71249999D01*
X192614354Y-71375305D01*
X192671950Y-71488343D01*
X192735148Y-71551540D01*
X192745770Y-71567436D01*
X192749500Y-71586188D01*
X192749500Y-72625943D01*
X192745770Y-72644694D01*
X192735148Y-72660591D01*
X189311881Y-76083857D01*
X189292376Y-76095810D01*
X189269570Y-76097606D01*
X189250002Y-76094507D01*
X189124694Y-76114354D01*
X189011656Y-76171950D01*
X188921950Y-76261656D01*
X188864354Y-76374694D01*
X188844507Y-76499999D01*
X188864354Y-76625305D01*
X188921950Y-76738343D01*
X189011656Y-76828049D01*
X189103205Y-76874696D01*
X189124696Y-76885646D01*
X189250000Y-76905492D01*
X189375304Y-76885646D01*
X189488342Y-76828050D01*
X189578050Y-76738342D01*
X189635646Y-76625304D01*
X189655492Y-76500000D01*
X189652392Y-76480428D01*
X189654187Y-76457623D01*
X189666139Y-76438119D01*
X193156272Y-72947987D01*
X193163686Y-72941902D01*
X193180601Y-72930601D01*
X193235966Y-72847740D01*
X193250500Y-72774674D01*
X193255408Y-72750000D01*
X193251441Y-72730061D01*
X193250500Y-72720502D01*
X193250500Y-71586188D01*
X193254230Y-71567436D01*
X193264852Y-71551540D01*
X193328049Y-71488343D01*
X193385645Y-71375305D01*
X193385646Y-71375304D01*
X193398783Y-71292357D01*
X193416342Y-71261945D01*
X193449743Y-71251092D01*
X193481827Y-71265377D01*
X195093525Y-72877075D01*
X195105479Y-72896581D01*
X195107274Y-72919387D01*
X195094507Y-73000001D01*
X195097606Y-73019570D01*
X195095810Y-73042376D01*
X195083857Y-73061881D01*
X194593731Y-73552007D01*
X194586307Y-73558100D01*
X194569399Y-73569397D01*
X194533942Y-73622463D01*
X194533938Y-73622467D01*
X194514033Y-73652259D01*
X194494591Y-73749999D01*
X194498558Y-73769938D01*
X194499500Y-73779498D01*
X194499500Y-78663812D01*
X194485148Y-78698460D01*
X194448460Y-78735148D01*
X194413812Y-78749500D01*
X192836188Y-78749500D01*
X192817436Y-78745770D01*
X192801540Y-78735148D01*
X192738343Y-78671950D01*
X192625305Y-78614354D01*
X192500000Y-78594507D01*
X192374694Y-78614354D01*
X192261656Y-78671950D01*
X192198460Y-78735148D01*
X192182564Y-78745770D01*
X192163812Y-78749500D01*
X190279503Y-78749500D01*
X190269943Y-78748558D01*
X190249999Y-78744590D01*
X190152260Y-78764033D01*
X190112189Y-78790807D01*
X190112188Y-78790808D01*
X190112188Y-78790809D01*
X190069399Y-78819398D01*
X190069399Y-78819399D01*
X190058102Y-78836305D01*
X190052009Y-78843728D01*
X189593731Y-79302006D01*
X189586310Y-79308098D01*
X189569399Y-79319399D01*
X189533942Y-79372463D01*
X189533939Y-79372466D01*
X189533934Y-79372472D01*
X189514033Y-79402259D01*
X189494591Y-79499999D01*
X189498558Y-79519938D01*
X189499500Y-79529498D01*
X189499500Y-89163812D01*
X189495770Y-89182564D01*
X189485148Y-89198460D01*
X189421950Y-89261656D01*
X189364354Y-89374694D01*
X189344507Y-89500000D01*
X189357274Y-89580612D01*
X189355479Y-89603418D01*
X189343525Y-89622924D01*
X187681303Y-91285148D01*
X187665407Y-91295770D01*
X187646655Y-91299500D01*
X182627359Y-91299500D01*
X182601757Y-91292279D01*
X182583700Y-91272746D01*
X182578049Y-91261656D01*
X182488343Y-91171950D01*
X182375305Y-91114354D01*
X182250000Y-91094507D01*
X182124694Y-91114354D01*
X182011656Y-91171950D01*
X181921950Y-91261656D01*
X181864354Y-91374694D01*
X181844507Y-91499999D01*
X181864354Y-91625305D01*
X181921950Y-91738343D01*
X182011656Y-91828049D01*
X182011658Y-91828050D01*
X182124696Y-91885646D01*
X182250000Y-91905492D01*
X182375304Y-91885646D01*
X182488342Y-91828050D01*
X182578050Y-91738342D01*
X182583699Y-91727254D01*
X182601757Y-91707721D01*
X182627359Y-91700500D01*
X187707612Y-91700500D01*
X187723796Y-91703250D01*
X187726973Y-91704362D01*
X187726973Y-91704361D01*
X187726974Y-91704362D01*
X187758521Y-91700808D01*
X187764007Y-91700500D01*
X187772591Y-91700500D01*
X187776980Y-91699497D01*
X187780954Y-91698590D01*
X187786364Y-91697670D01*
X187817924Y-91694116D01*
X187820778Y-91692322D01*
X187835944Y-91686040D01*
X187839231Y-91685290D01*
X187864067Y-91665482D01*
X187868523Y-91662320D01*
X187875801Y-91657748D01*
X187881869Y-91651678D01*
X187885945Y-91648034D01*
X187910788Y-91628224D01*
X187912250Y-91625186D01*
X187921747Y-91611800D01*
X189627076Y-89906471D01*
X189646580Y-89894519D01*
X189669385Y-89892724D01*
X189750000Y-89905492D01*
X189875304Y-89885646D01*
X189912045Y-89866925D01*
X189978254Y-89833191D01*
X190010688Y-89828921D01*
X190038580Y-89846013D01*
X190049500Y-89876850D01*
X190049500Y-95158109D01*
X190046750Y-95174293D01*
X190045637Y-95177470D01*
X190049192Y-95209019D01*
X190049500Y-95214504D01*
X190049500Y-95223087D01*
X190051409Y-95231453D01*
X190052329Y-95236868D01*
X190055883Y-95268421D01*
X190057678Y-95271277D01*
X190063959Y-95286439D01*
X190064710Y-95289728D01*
X190084508Y-95314554D01*
X190087684Y-95319030D01*
X190092252Y-95326298D01*
X190098316Y-95332362D01*
X190101970Y-95336450D01*
X190121776Y-95361285D01*
X190124813Y-95362747D01*
X190138201Y-95372247D01*
X190593525Y-95827571D01*
X190605479Y-95847077D01*
X190607274Y-95869883D01*
X190594507Y-95950496D01*
X190614354Y-96075802D01*
X190671950Y-96188840D01*
X190761656Y-96278546D01*
X190761658Y-96278547D01*
X190874696Y-96336143D01*
X191000000Y-96355989D01*
X191125304Y-96336143D01*
X191238342Y-96278547D01*
X191328050Y-96188839D01*
X191385646Y-96075801D01*
X191405492Y-95950497D01*
X191385646Y-95825193D01*
X191328050Y-95712155D01*
X191328049Y-95712153D01*
X191238343Y-95622447D01*
X191125305Y-95564851D01*
X190999999Y-95545004D01*
X190919386Y-95557771D01*
X190896580Y-95555976D01*
X190877074Y-95544022D01*
X190464852Y-95131800D01*
X190450500Y-95097152D01*
X190450500Y-93126850D01*
X190461420Y-93096013D01*
X190489312Y-93078921D01*
X190521746Y-93083191D01*
X190607433Y-93126850D01*
X190624696Y-93135646D01*
X190750000Y-93155492D01*
X190875304Y-93135646D01*
X190988342Y-93078050D01*
X191078050Y-92988342D01*
X191135646Y-92875304D01*
X191155492Y-92750000D01*
X191144500Y-92680601D01*
X191135646Y-92624695D01*
X191132089Y-92617715D01*
X191127878Y-92609452D01*
X191123140Y-92579542D01*
X191136887Y-92552560D01*
X191189447Y-92500000D01*
X196094507Y-92500000D01*
X196114354Y-92625305D01*
X196171950Y-92738343D01*
X196261656Y-92828049D01*
X196261658Y-92828050D01*
X196374696Y-92885646D01*
X196500000Y-92905492D01*
X196625304Y-92885646D01*
X196738342Y-92828050D01*
X196801539Y-92764852D01*
X196817436Y-92754230D01*
X196836188Y-92750500D01*
X196913812Y-92750500D01*
X196932564Y-92754230D01*
X196948460Y-92764852D01*
X197011656Y-92828049D01*
X197011658Y-92828050D01*
X197124696Y-92885646D01*
X197250000Y-92905492D01*
X197375304Y-92885646D01*
X197488342Y-92828050D01*
X197551539Y-92764852D01*
X197567436Y-92754230D01*
X197586188Y-92750500D01*
X202220502Y-92750500D01*
X202230062Y-92751442D01*
X202249998Y-92755408D01*
X202249998Y-92755407D01*
X202250000Y-92755408D01*
X202266749Y-92752076D01*
X202297257Y-92755838D01*
X202319522Y-92777035D01*
X202324778Y-92807323D01*
X202310956Y-92834782D01*
X201311881Y-93833857D01*
X201292376Y-93845810D01*
X201269570Y-93847606D01*
X201250002Y-93844507D01*
X201124694Y-93864354D01*
X201011656Y-93921950D01*
X200921950Y-94011656D01*
X200864354Y-94124694D01*
X200844507Y-94250002D01*
X200847606Y-94269570D01*
X200845810Y-94292376D01*
X200833857Y-94311881D01*
X200811881Y-94333857D01*
X200792376Y-94345810D01*
X200769570Y-94347606D01*
X200750002Y-94344507D01*
X200624694Y-94364354D01*
X200511656Y-94421950D01*
X200421950Y-94511656D01*
X200364354Y-94624694D01*
X200344507Y-94750001D01*
X200347606Y-94769569D01*
X200345810Y-94792375D01*
X200333857Y-94811880D01*
X200093731Y-95052006D01*
X200086310Y-95058098D01*
X200069399Y-95069399D01*
X200033942Y-95122463D01*
X200033939Y-95122466D01*
X200033934Y-95122472D01*
X200014033Y-95152259D01*
X199994591Y-95249999D01*
X199998558Y-95269938D01*
X199999500Y-95279498D01*
X199999500Y-97413812D01*
X199995770Y-97432564D01*
X199985148Y-97448460D01*
X199921950Y-97511656D01*
X199864354Y-97624694D01*
X199844507Y-97750000D01*
X199864354Y-97875305D01*
X199921950Y-97988343D01*
X199985148Y-98051540D01*
X199995770Y-98067436D01*
X199999500Y-98086188D01*
X199999500Y-98163812D01*
X199995770Y-98182564D01*
X199985148Y-98198460D01*
X199921950Y-98261656D01*
X199864354Y-98374694D01*
X199844507Y-98500000D01*
X199864354Y-98625305D01*
X199921950Y-98738343D01*
X200011656Y-98828049D01*
X200011658Y-98828050D01*
X200124696Y-98885646D01*
X200250000Y-98905492D01*
X200375304Y-98885646D01*
X200488342Y-98828050D01*
X200578050Y-98738342D01*
X200635646Y-98625304D01*
X200655492Y-98500000D01*
X200635646Y-98374696D01*
X200578050Y-98261658D01*
X200578049Y-98261656D01*
X200514852Y-98198460D01*
X200504230Y-98182564D01*
X200500500Y-98163812D01*
X200500500Y-98086188D01*
X200504230Y-98067436D01*
X200514852Y-98051540D01*
X200578049Y-97988343D01*
X200624553Y-97897074D01*
X200635646Y-97875304D01*
X200655492Y-97750000D01*
X200635646Y-97624696D01*
X200578050Y-97511658D01*
X200578049Y-97511656D01*
X200514852Y-97448460D01*
X200504230Y-97432564D01*
X200500500Y-97413812D01*
X200500500Y-95374056D01*
X200514852Y-95339408D01*
X200585839Y-95268421D01*
X200688120Y-95166139D01*
X200707625Y-95154187D01*
X200730429Y-95152392D01*
X200750000Y-95155492D01*
X200875304Y-95135646D01*
X200988342Y-95078050D01*
X201078050Y-94988342D01*
X201135646Y-94875304D01*
X201155492Y-94750000D01*
X201152392Y-94730428D01*
X201154187Y-94707624D01*
X201166139Y-94688119D01*
X201188119Y-94666139D01*
X201207624Y-94654187D01*
X201230428Y-94652392D01*
X201250000Y-94655492D01*
X201375304Y-94635646D01*
X201488342Y-94578050D01*
X201578050Y-94488342D01*
X201635646Y-94375304D01*
X201655492Y-94250000D01*
X201652392Y-94230428D01*
X201654187Y-94207624D01*
X201666139Y-94188119D01*
X203566681Y-92287577D01*
X204575655Y-92287577D01*
X204606163Y-92434394D01*
X204675151Y-92567535D01*
X204675153Y-92567537D01*
X204777505Y-92677129D01*
X204905629Y-92755043D01*
X205050023Y-92795500D01*
X205162314Y-92795500D01*
X205162316Y-92795500D01*
X205273558Y-92780210D01*
X205411098Y-92720468D01*
X205527419Y-92625834D01*
X205613895Y-92503325D01*
X205664112Y-92362029D01*
X205674345Y-92212424D01*
X205643836Y-92065606D01*
X205643836Y-92065605D01*
X205574848Y-91932464D01*
X205472496Y-91822872D01*
X205472495Y-91822871D01*
X205344371Y-91744957D01*
X205344368Y-91744956D01*
X205199977Y-91704500D01*
X205087684Y-91704500D01*
X205032063Y-91712144D01*
X204976440Y-91719790D01*
X204838902Y-91779531D01*
X204722581Y-91874164D01*
X204636105Y-91996675D01*
X204585888Y-92137970D01*
X204575655Y-92287577D01*
X203566681Y-92287577D01*
X204156269Y-91697989D01*
X204163683Y-91691904D01*
X204180601Y-91680601D01*
X204217549Y-91625304D01*
X204235966Y-91597741D01*
X204255408Y-91500000D01*
X204251441Y-91480061D01*
X204250500Y-91470502D01*
X204250500Y-81287577D01*
X204575655Y-81287577D01*
X204606163Y-81434394D01*
X204675151Y-81567535D01*
X204675153Y-81567537D01*
X204777505Y-81677129D01*
X204905629Y-81755043D01*
X205050023Y-81795500D01*
X205162314Y-81795500D01*
X205162316Y-81795500D01*
X205273558Y-81780210D01*
X205411098Y-81720468D01*
X205527419Y-81625834D01*
X205613895Y-81503325D01*
X205664112Y-81362029D01*
X205674345Y-81212424D01*
X205643836Y-81065606D01*
X205643836Y-81065605D01*
X205574848Y-80932464D01*
X205472496Y-80822872D01*
X205472495Y-80822871D01*
X205344371Y-80744957D01*
X205344368Y-80744956D01*
X205199977Y-80704500D01*
X205087684Y-80704500D01*
X205032063Y-80712144D01*
X204976440Y-80719790D01*
X204838902Y-80779531D01*
X204722581Y-80874164D01*
X204636105Y-80996675D01*
X204585888Y-81137970D01*
X204575655Y-81287577D01*
X204250500Y-81287577D01*
X204250500Y-78029498D01*
X204251442Y-78019938D01*
X204255408Y-77999999D01*
X204235966Y-77902260D01*
X204235966Y-77902259D01*
X204216057Y-77872463D01*
X204180601Y-77819399D01*
X204163691Y-77808100D01*
X204156266Y-77802006D01*
X203666141Y-77311881D01*
X203654187Y-77292374D01*
X203652392Y-77269570D01*
X203655492Y-77250000D01*
X203635646Y-77124696D01*
X203578050Y-77011658D01*
X203578049Y-77011656D01*
X203488343Y-76921950D01*
X203375305Y-76864354D01*
X203250000Y-76844507D01*
X203124694Y-76864354D01*
X203011656Y-76921950D01*
X202921950Y-77011656D01*
X202864354Y-77124694D01*
X202855707Y-77179288D01*
X202838146Y-77209702D01*
X202804745Y-77220555D01*
X202772662Y-77206270D01*
X202738342Y-77171950D01*
X202734265Y-77169872D01*
X202625305Y-77114354D01*
X202499998Y-77094507D01*
X202454317Y-77101742D01*
X202424406Y-77097004D01*
X202402993Y-77075590D01*
X202398256Y-77045681D01*
X202405492Y-77000000D01*
X202385646Y-76874696D01*
X202328050Y-76761658D01*
X202328049Y-76761656D01*
X202264852Y-76698460D01*
X202254230Y-76682564D01*
X202250500Y-76663812D01*
X202250500Y-76586188D01*
X202254230Y-76567436D01*
X202264852Y-76551540D01*
X202328049Y-76488343D01*
X202332080Y-76480431D01*
X202385646Y-76375304D01*
X202405492Y-76250000D01*
X202385646Y-76124696D01*
X202328050Y-76011658D01*
X202328049Y-76011656D01*
X202238343Y-75921950D01*
X202125305Y-75864354D01*
X202000000Y-75844507D01*
X201874694Y-75864354D01*
X201761656Y-75921950D01*
X201671950Y-76011656D01*
X201614354Y-76124694D01*
X201594507Y-76250000D01*
X201614354Y-76375305D01*
X201671950Y-76488343D01*
X201735148Y-76551540D01*
X201745770Y-76567436D01*
X201749500Y-76586188D01*
X201749500Y-76663812D01*
X201745770Y-76682564D01*
X201735148Y-76698460D01*
X201671950Y-76761656D01*
X201614354Y-76874694D01*
X201594507Y-77000000D01*
X201614354Y-77125305D01*
X201671950Y-77238343D01*
X201735148Y-77301540D01*
X201745770Y-77317436D01*
X201749500Y-77336188D01*
X201749500Y-78720502D01*
X201748558Y-78730062D01*
X201744591Y-78750000D01*
X201764033Y-78847739D01*
X201782045Y-78874696D01*
X201819399Y-78930601D01*
X201836306Y-78941898D01*
X201843732Y-78947992D01*
X203385148Y-80489408D01*
X203399500Y-80524056D01*
X203399500Y-90975944D01*
X203385148Y-91010592D01*
X202160592Y-92235148D01*
X202125944Y-92249500D01*
X197586188Y-92249500D01*
X197567436Y-92245770D01*
X197551540Y-92235148D01*
X197488343Y-92171950D01*
X197375305Y-92114354D01*
X197250000Y-92094507D01*
X197124694Y-92114354D01*
X197011656Y-92171950D01*
X196948460Y-92235148D01*
X196932564Y-92245770D01*
X196913812Y-92249500D01*
X196836188Y-92249500D01*
X196817436Y-92245770D01*
X196801540Y-92235148D01*
X196738343Y-92171950D01*
X196625305Y-92114354D01*
X196500000Y-92094507D01*
X196374694Y-92114354D01*
X196261656Y-92171950D01*
X196171950Y-92261656D01*
X196114354Y-92374694D01*
X196094507Y-92500000D01*
X191189447Y-92500000D01*
X192523308Y-91166139D01*
X192542813Y-91154187D01*
X192565617Y-91152392D01*
X192585189Y-91155492D01*
X192710493Y-91135646D01*
X192823531Y-91078050D01*
X192913239Y-90988342D01*
X192970835Y-90875304D01*
X192990681Y-90750000D01*
X192987581Y-90730428D01*
X192989376Y-90707623D01*
X193001328Y-90688119D01*
X193142106Y-90547342D01*
X193176755Y-90532990D01*
X195500500Y-90532990D01*
X195535148Y-90547342D01*
X195549500Y-90581990D01*
X195549500Y-91122641D01*
X195542279Y-91148243D01*
X195522746Y-91166300D01*
X195511656Y-91171950D01*
X195421950Y-91261656D01*
X195364354Y-91374694D01*
X195344507Y-91499999D01*
X195364354Y-91625305D01*
X195421950Y-91738343D01*
X195511656Y-91828049D01*
X195511658Y-91828050D01*
X195624696Y-91885646D01*
X195750000Y-91905492D01*
X195875304Y-91885646D01*
X195988342Y-91828050D01*
X196078050Y-91738342D01*
X196135646Y-91625304D01*
X196155492Y-91500000D01*
X196135646Y-91374696D01*
X196078050Y-91261658D01*
X196078049Y-91261656D01*
X195988343Y-91171950D01*
X195977254Y-91166300D01*
X195957721Y-91148243D01*
X195950500Y-91122641D01*
X195950500Y-90581990D01*
X195964852Y-90547342D01*
X195999500Y-90532990D01*
X197188012Y-90532990D01*
X197197571Y-90533931D01*
X197217510Y-90537898D01*
X197315251Y-90518456D01*
X197345046Y-90498547D01*
X197398111Y-90463091D01*
X197409414Y-90446173D01*
X197415499Y-90438759D01*
X199938119Y-87916139D01*
X199957624Y-87904187D01*
X199980428Y-87902392D01*
X200000000Y-87905492D01*
X200125304Y-87885646D01*
X200238342Y-87828050D01*
X200328050Y-87738342D01*
X200333699Y-87727254D01*
X200351757Y-87707721D01*
X200377359Y-87700500D01*
X201957612Y-87700500D01*
X201973796Y-87703250D01*
X201976973Y-87704362D01*
X201976973Y-87704361D01*
X201976974Y-87704362D01*
X202008521Y-87700808D01*
X202014007Y-87700500D01*
X202022591Y-87700500D01*
X202026980Y-87699497D01*
X202030954Y-87698590D01*
X202036364Y-87697670D01*
X202067924Y-87694116D01*
X202070778Y-87692322D01*
X202085944Y-87686040D01*
X202089231Y-87685290D01*
X202114067Y-87665482D01*
X202118523Y-87662320D01*
X202125801Y-87657748D01*
X202131869Y-87651678D01*
X202135945Y-87648034D01*
X202160788Y-87628224D01*
X202162250Y-87625186D01*
X202171747Y-87611800D01*
X202377077Y-87406471D01*
X202396581Y-87394519D01*
X202419386Y-87392724D01*
X202500000Y-87405492D01*
X202625304Y-87385646D01*
X202738342Y-87328050D01*
X202828050Y-87238342D01*
X202885646Y-87125304D01*
X202905492Y-87000000D01*
X202885646Y-86874696D01*
X202828050Y-86761658D01*
X202828049Y-86761656D01*
X202738343Y-86671950D01*
X202625305Y-86614354D01*
X202500000Y-86594507D01*
X202374694Y-86614354D01*
X202261656Y-86671950D01*
X202171950Y-86761656D01*
X202114354Y-86874694D01*
X202094507Y-87000000D01*
X202107274Y-87080610D01*
X202105479Y-87103417D01*
X202093525Y-87122923D01*
X201931300Y-87285150D01*
X201915407Y-87295770D01*
X201896655Y-87299500D01*
X200377359Y-87299500D01*
X200351757Y-87292279D01*
X200333700Y-87272746D01*
X200328049Y-87261656D01*
X200264852Y-87198460D01*
X200254230Y-87182564D01*
X200250500Y-87163812D01*
X200250500Y-83779498D01*
X200251442Y-83769938D01*
X200255408Y-83749999D01*
X200235966Y-83652260D01*
X200235966Y-83652259D01*
X200215598Y-83621776D01*
X200180601Y-83569399D01*
X200163691Y-83558100D01*
X200156266Y-83552006D01*
X198916141Y-82311881D01*
X198904187Y-82292374D01*
X198902392Y-82269570D01*
X198905492Y-82250000D01*
X198885646Y-82124696D01*
X198828050Y-82011658D01*
X198828049Y-82011656D01*
X198738343Y-81921950D01*
X198625305Y-81864354D01*
X198500000Y-81844507D01*
X198480430Y-81847607D01*
X198457624Y-81845812D01*
X198438118Y-81833858D01*
X195447992Y-78843732D01*
X195441898Y-78836306D01*
X195430601Y-78819399D01*
X195377536Y-78783942D01*
X195347740Y-78764033D01*
X195250000Y-78744591D01*
X195230062Y-78748558D01*
X195220502Y-78749500D01*
X195086188Y-78749500D01*
X195051540Y-78735148D01*
X195014852Y-78698460D01*
X195000500Y-78663812D01*
X195000500Y-73874056D01*
X195014852Y-73839408D01*
X195114104Y-73740156D01*
X195438119Y-73416139D01*
X195457623Y-73404187D01*
X195480428Y-73402392D01*
X195500000Y-73405492D01*
X195625304Y-73385646D01*
X195738342Y-73328050D01*
X195801540Y-73264851D01*
X195817436Y-73254230D01*
X195836188Y-73250500D01*
X203413812Y-73250500D01*
X203432564Y-73254230D01*
X203448460Y-73264852D01*
X203511656Y-73328049D01*
X203511658Y-73328050D01*
X203624696Y-73385646D01*
X203750000Y-73405492D01*
X203875304Y-73385646D01*
X203988342Y-73328050D01*
X204078050Y-73238342D01*
X204135646Y-73125304D01*
X204155492Y-73000000D01*
X204135646Y-72874696D01*
X204078050Y-72761658D01*
X204078049Y-72761656D01*
X204014852Y-72698460D01*
X204004230Y-72682564D01*
X204000500Y-72663812D01*
X204000500Y-72586188D01*
X204004230Y-72567436D01*
X204014852Y-72551540D01*
X204078049Y-72488343D01*
X204135645Y-72375305D01*
X204135646Y-72375304D01*
X204155492Y-72250000D01*
X204135646Y-72124696D01*
X204078050Y-72011658D01*
X204078049Y-72011656D01*
X203988343Y-71921950D01*
X203875305Y-71864354D01*
X203749999Y-71844507D01*
X203624694Y-71864354D01*
X203511656Y-71921950D01*
X203421950Y-72011656D01*
X203364354Y-72124694D01*
X203344507Y-72250000D01*
X203364354Y-72375305D01*
X203421950Y-72488343D01*
X203485148Y-72551540D01*
X203495770Y-72567436D01*
X203499500Y-72586188D01*
X203499500Y-72663812D01*
X203485148Y-72698460D01*
X203448460Y-72735148D01*
X203413812Y-72749500D01*
X195836188Y-72749500D01*
X195817436Y-72745770D01*
X195801540Y-72735148D01*
X195738343Y-72671950D01*
X195625305Y-72614354D01*
X195499999Y-72594507D01*
X195419387Y-72607274D01*
X195396581Y-72605479D01*
X195377075Y-72593525D01*
X193421750Y-70638201D01*
X193412249Y-70624811D01*
X193412193Y-70624694D01*
X193410788Y-70621776D01*
X193385953Y-70601970D01*
X193381865Y-70598316D01*
X193375801Y-70592252D01*
X193368533Y-70587684D01*
X193364057Y-70584508D01*
X193339231Y-70564710D01*
X193335942Y-70563959D01*
X193320780Y-70557678D01*
X193317924Y-70555883D01*
X193286371Y-70552329D01*
X193280956Y-70551409D01*
X193272590Y-70549500D01*
X193264007Y-70549500D01*
X193258522Y-70549192D01*
X193226973Y-70545637D01*
X193223796Y-70546750D01*
X193207612Y-70549500D01*
X181377359Y-70549500D01*
X181351757Y-70542279D01*
X181333700Y-70522746D01*
X181328049Y-70511656D01*
X181238343Y-70421950D01*
X181125305Y-70364354D01*
X180999999Y-70344507D01*
X180874694Y-70364354D01*
X180761656Y-70421950D01*
X180671950Y-70511656D01*
X180614354Y-70624694D01*
X180594507Y-70750000D01*
X179000500Y-70750000D01*
X179000500Y-70287577D01*
X204575655Y-70287577D01*
X204606163Y-70434394D01*
X204675151Y-70567535D01*
X204707320Y-70601980D01*
X204777505Y-70677129D01*
X204905629Y-70755043D01*
X205050023Y-70795500D01*
X205162314Y-70795500D01*
X205162316Y-70795500D01*
X205273558Y-70780210D01*
X205411098Y-70720468D01*
X205527419Y-70625834D01*
X205613895Y-70503325D01*
X205664112Y-70362029D01*
X205674345Y-70212424D01*
X205643836Y-70065606D01*
X205643836Y-70065605D01*
X205574848Y-69932464D01*
X205472496Y-69822872D01*
X205472495Y-69822871D01*
X205344371Y-69744957D01*
X205344368Y-69744956D01*
X205199977Y-69704500D01*
X205087684Y-69704500D01*
X205032062Y-69712145D01*
X204976440Y-69719790D01*
X204838902Y-69779531D01*
X204722581Y-69874164D01*
X204636105Y-69996675D01*
X204585888Y-70137970D01*
X204575655Y-70287577D01*
X179000500Y-70287577D01*
X179000500Y-62770504D01*
X179014852Y-62735856D01*
X179485855Y-62264852D01*
X179501751Y-62254230D01*
X179520503Y-62250500D01*
X187231401Y-62250500D01*
X187263668Y-62262624D01*
G37*
%TD.AperFunction*%
%TD*%
M02*
