%TF.GenerationSoftware,KiCad,Pcbnew,7.0.1*%
%TF.CreationDate,2024-08-17T13:05:23+01:00*%
%TF.ProjectId,Hardware,48617264-7761-4726-952e-6b696361645f,rev?*%
%TF.SameCoordinates,Original*%
%TF.FileFunction,Copper,L2,Bot*%
%TF.FilePolarity,Positive*%
%FSLAX46Y46*%
G04 Gerber Fmt 4.6, Leading zero omitted, Abs format (unit mm)*
G04 Created by KiCad (PCBNEW 7.0.1) date 2024-08-17 13:05:23*
%MOMM*%
%LPD*%
G01*
G04 APERTURE LIST*
G04 Aperture macros list*
%AMRoundRect*
0 Rectangle with rounded corners*
0 $1 Rounding radius*
0 $2 $3 $4 $5 $6 $7 $8 $9 X,Y pos of 4 corners*
0 Add a 4 corners polygon primitive as box body*
4,1,4,$2,$3,$4,$5,$6,$7,$8,$9,$2,$3,0*
0 Add four circle primitives for the rounded corners*
1,1,$1+$1,$2,$3*
1,1,$1+$1,$4,$5*
1,1,$1+$1,$6,$7*
1,1,$1+$1,$8,$9*
0 Add four rect primitives between the rounded corners*
20,1,$1+$1,$2,$3,$4,$5,0*
20,1,$1+$1,$4,$5,$6,$7,0*
20,1,$1+$1,$6,$7,$8,$9,0*
20,1,$1+$1,$8,$9,$2,$3,0*%
%AMFreePoly0*
4,1,6,1.000000,0.000000,0.500000,-0.750000,-0.500000,-0.750000,-0.500000,0.750000,0.500000,0.750000,1.000000,0.000000,1.000000,0.000000,$1*%
%AMFreePoly1*
4,1,6,0.500000,-0.750000,-0.650000,-0.750000,-0.150000,0.000000,-0.650000,0.750000,0.500000,0.750000,0.500000,-0.750000,0.500000,-0.750000,$1*%
G04 Aperture macros list end*
%TA.AperFunction,SMDPad,CuDef*%
%ADD10FreePoly0,0.000000*%
%TD*%
%TA.AperFunction,SMDPad,CuDef*%
%ADD11FreePoly1,0.000000*%
%TD*%
%TA.AperFunction,SMDPad,CuDef*%
%ADD12RoundRect,0.135000X0.135000X0.185000X-0.135000X0.185000X-0.135000X-0.185000X0.135000X-0.185000X0*%
%TD*%
%TA.AperFunction,SMDPad,CuDef*%
%ADD13R,1.000000X0.600000*%
%TD*%
%TA.AperFunction,SMDPad,CuDef*%
%ADD14R,1.000000X0.300000*%
%TD*%
%TA.AperFunction,SMDPad,CuDef*%
%ADD15R,2.600000X1.550000*%
%TD*%
%TA.AperFunction,SMDPad,CuDef*%
%ADD16RoundRect,0.140000X-0.140000X-0.170000X0.140000X-0.170000X0.140000X0.170000X-0.140000X0.170000X0*%
%TD*%
%TA.AperFunction,SMDPad,CuDef*%
%ADD17RoundRect,0.140000X-0.170000X0.140000X-0.170000X-0.140000X0.170000X-0.140000X0.170000X0.140000X0*%
%TD*%
%TA.AperFunction,SMDPad,CuDef*%
%ADD18RoundRect,0.135000X0.185000X-0.135000X0.185000X0.135000X-0.185000X0.135000X-0.185000X-0.135000X0*%
%TD*%
%TA.AperFunction,SMDPad,CuDef*%
%ADD19R,2.300000X2.300000*%
%TD*%
%TA.AperFunction,SMDPad,CuDef*%
%ADD20O,2.300000X2.300000*%
%TD*%
%TA.AperFunction,SMDPad,CuDef*%
%ADD21RoundRect,0.112500X0.112500X-0.187500X0.112500X0.187500X-0.112500X0.187500X-0.112500X-0.187500X0*%
%TD*%
%TA.AperFunction,SMDPad,CuDef*%
%ADD22RoundRect,0.135000X-0.135000X-0.185000X0.135000X-0.185000X0.135000X0.185000X-0.135000X0.185000X0*%
%TD*%
%TA.AperFunction,SMDPad,CuDef*%
%ADD23RoundRect,0.140000X0.170000X-0.140000X0.170000X0.140000X-0.170000X0.140000X-0.170000X-0.140000X0*%
%TD*%
%TA.AperFunction,SMDPad,CuDef*%
%ADD24R,1.000000X1.550000*%
%TD*%
%TA.AperFunction,SMDPad,CuDef*%
%ADD25RoundRect,0.150000X-0.512500X-0.150000X0.512500X-0.150000X0.512500X0.150000X-0.512500X0.150000X0*%
%TD*%
%TA.AperFunction,SMDPad,CuDef*%
%ADD26RoundRect,0.250000X-0.262500X-0.450000X0.262500X-0.450000X0.262500X0.450000X-0.262500X0.450000X0*%
%TD*%
%TA.AperFunction,SMDPad,CuDef*%
%ADD27R,0.300000X1.000000*%
%TD*%
%TA.AperFunction,SMDPad,CuDef*%
%ADD28R,1.650000X1.300000*%
%TD*%
%TA.AperFunction,SMDPad,CuDef*%
%ADD29RoundRect,0.135000X-0.185000X0.135000X-0.185000X-0.135000X0.185000X-0.135000X0.185000X0.135000X0*%
%TD*%
%TA.AperFunction,SMDPad,CuDef*%
%ADD30RoundRect,0.087500X0.187500X0.087500X-0.187500X0.087500X-0.187500X-0.087500X0.187500X-0.087500X0*%
%TD*%
%TA.AperFunction,SMDPad,CuDef*%
%ADD31RoundRect,0.087500X0.087500X0.187500X-0.087500X0.187500X-0.087500X-0.187500X0.087500X-0.187500X0*%
%TD*%
%TA.AperFunction,SMDPad,CuDef*%
%ADD32RoundRect,0.150000X-0.150000X0.587500X-0.150000X-0.587500X0.150000X-0.587500X0.150000X0.587500X0*%
%TD*%
%TA.AperFunction,SMDPad,CuDef*%
%ADD33R,0.300000X0.300000*%
%TD*%
%TA.AperFunction,SMDPad,CuDef*%
%ADD34R,0.350000X0.250000*%
%TD*%
%TA.AperFunction,SMDPad,CuDef*%
%ADD35R,0.250000X0.350000*%
%TD*%
%TA.AperFunction,SMDPad,CuDef*%
%ADD36R,0.600000X0.600000*%
%TD*%
%TA.AperFunction,SMDPad,CuDef*%
%ADD37R,0.430000X0.430000*%
%TD*%
%TA.AperFunction,SMDPad,CuDef*%
%ADD38RoundRect,0.140000X0.140000X0.170000X-0.140000X0.170000X-0.140000X-0.170000X0.140000X-0.170000X0*%
%TD*%
%TA.AperFunction,SMDPad,CuDef*%
%ADD39R,1.700000X1.700000*%
%TD*%
%TA.AperFunction,SMDPad,CuDef*%
%ADD40O,1.700000X1.700000*%
%TD*%
%TA.AperFunction,SMDPad,CuDef*%
%ADD41R,0.200000X0.200000*%
%TD*%
%TA.AperFunction,SMDPad,CuDef*%
%ADD42O,0.200000X0.850000*%
%TD*%
%TA.AperFunction,SMDPad,CuDef*%
%ADD43R,0.575000X0.400000*%
%TD*%
%TA.AperFunction,SMDPad,CuDef*%
%ADD44R,0.675000X0.400000*%
%TD*%
%TA.AperFunction,ComponentPad*%
%ADD45C,0.600000*%
%TD*%
%TA.AperFunction,SMDPad,CuDef*%
%ADD46R,0.975000X1.300000*%
%TD*%
%TA.AperFunction,SMDPad,CuDef*%
%ADD47R,1.950000X2.600000*%
%TD*%
%TA.AperFunction,SMDPad,CuDef*%
%ADD48RoundRect,0.112500X0.187500X0.112500X-0.187500X0.112500X-0.187500X-0.112500X0.187500X-0.112500X0*%
%TD*%
%TA.AperFunction,SMDPad,CuDef*%
%ADD49RoundRect,0.150000X-0.587500X-0.150000X0.587500X-0.150000X0.587500X0.150000X-0.587500X0.150000X0*%
%TD*%
%TA.AperFunction,SMDPad,CuDef*%
%ADD50RoundRect,0.150000X0.512500X0.150000X-0.512500X0.150000X-0.512500X-0.150000X0.512500X-0.150000X0*%
%TD*%
%TA.AperFunction,ViaPad*%
%ADD51C,0.500000*%
%TD*%
%TA.AperFunction,Conductor*%
%ADD52C,0.200000*%
%TD*%
G04 APERTURE END LIST*
D10*
%TO.P,JP1,1,A*%
%TO.N,/~{SW_RESET}*%
X104025000Y-99000000D03*
D11*
%TO.P,JP1,2,B*%
%TO.N,Net-(JP1-B)*%
X105475000Y-99000000D03*
%TD*%
D12*
%TO.P,R10,1*%
%TO.N,GND*%
X109760000Y-86000000D03*
%TO.P,R10,2*%
%TO.N,VBUS*%
X108740000Y-86000000D03*
%TD*%
D13*
%TO.P,J1,A1,GND*%
%TO.N,GND*%
X104220000Y-90210000D03*
%TO.P,J1,A4,VBUS*%
%TO.N,VBUS*%
X104220000Y-89410000D03*
D14*
%TO.P,J1,A5,CC1*%
%TO.N,Net-(J1-CC1)*%
X104220000Y-88250000D03*
%TO.P,J1,A6,D+*%
%TO.N,Net-(J1-D+-PadA6)*%
X104220000Y-87250000D03*
%TO.P,J1,A7,D-*%
%TO.N,Net-(J1-D--PadA7)*%
X104220000Y-86750000D03*
%TO.P,J1,A8,SBU1*%
%TO.N,unconnected-(J1-SBU1-PadA8)*%
X104220000Y-85750000D03*
D13*
%TO.P,J1,A9,VBUS*%
%TO.N,VBUS*%
X104220000Y-84590000D03*
%TO.P,J1,A12,GND*%
%TO.N,GND*%
X104220000Y-83790000D03*
%TO.P,J1,B1,GND*%
X104220000Y-83790000D03*
%TO.P,J1,B4,VBUS*%
%TO.N,VBUS*%
X104220000Y-84590000D03*
D14*
%TO.P,J1,B5,CC2*%
%TO.N,Net-(J1-CC2)*%
X104220000Y-85250000D03*
%TO.P,J1,B6,D+*%
%TO.N,Net-(J1-D+-PadA6)*%
X104220000Y-86250000D03*
%TO.P,J1,B7,D-*%
%TO.N,Net-(J1-D--PadA7)*%
X104220000Y-87750000D03*
%TO.P,J1,B8,SBU2*%
%TO.N,unconnected-(J1-SBU2-PadB8)*%
X104220000Y-88750000D03*
D13*
%TO.P,J1,B9,VBUS*%
%TO.N,VBUS*%
X104220000Y-89410000D03*
%TO.P,J1,B12,GND*%
%TO.N,GND*%
X104220000Y-90210000D03*
D15*
%TO.P,J1,S1,SHIELD*%
X101000000Y-92600000D03*
X101000000Y-81400000D03*
%TD*%
D16*
%TO.P,C4,1*%
%TO.N,Net-(U2-PB10)*%
X117770000Y-102500000D03*
%TO.P,C4,2*%
%TO.N,GND*%
X118730000Y-102500000D03*
%TD*%
D17*
%TO.P,C7,1*%
%TO.N,+3V3*%
X114250000Y-82020000D03*
%TO.P,C7,2*%
%TO.N,GND*%
X114250000Y-82980000D03*
%TD*%
D18*
%TO.P,R7,1*%
%TO.N,+3V3*%
X108750000Y-101510000D03*
%TO.P,R7,2*%
%TO.N,/FG_SDA*%
X108750000Y-100490000D03*
%TD*%
D19*
%TO.P,J3,1,Pin_1*%
%TO.N,GND*%
X99250000Y-70000000D03*
D20*
%TO.P,J3,2,Pin_2*%
%TO.N,Net-(#FLG03-pwr)*%
X102750000Y-70000000D03*
%TD*%
D21*
%TO.P,D4,1,K*%
%TO.N,+3V3*%
X124250000Y-82550000D03*
%TO.P,D4,2,A*%
%TO.N,Net-(D4-A)*%
X124250000Y-80450000D03*
%TD*%
D22*
%TO.P,R13,1*%
%TO.N,+3V3*%
X109990000Y-94250000D03*
%TO.P,R13,2*%
%TO.N,/IMU_SDA*%
X111010000Y-94250000D03*
%TD*%
D23*
%TO.P,C11,1*%
%TO.N,+3V3*%
X111250000Y-89730000D03*
%TO.P,C11,2*%
%TO.N,GND*%
X111250000Y-88770000D03*
%TD*%
D19*
%TO.P,J5,1,Pin_1*%
%TO.N,+3V3*%
X122000000Y-82750000D03*
D20*
%TO.P,J5,2,Pin_2*%
%TO.N,Net-(D4-A)*%
X122000000Y-79250000D03*
%TD*%
D24*
%TO.P,SW2,1,1*%
%TO.N,/~{SW_RESET}*%
X99900000Y-95375000D03*
X99900000Y-100625000D03*
%TO.P,SW2,2,2*%
%TO.N,GND*%
X101600000Y-95375000D03*
X101600000Y-100625000D03*
%TD*%
D23*
%TO.P,C12,1*%
%TO.N,+3V3*%
X112250000Y-89730000D03*
%TO.P,C12,2*%
%TO.N,GND*%
X112250000Y-88770000D03*
%TD*%
D24*
%TO.P,SW4,1,1*%
%TO.N,/~{SW_MENU}*%
X126600000Y-89625000D03*
X126600000Y-84375000D03*
%TO.P,SW4,2,2*%
%TO.N,GND*%
X124900000Y-89625000D03*
X124900000Y-84375000D03*
%TD*%
D25*
%TO.P,U1,1,I/O1*%
%TO.N,Net-(J1-D--PadA7)*%
X107362500Y-89200000D03*
%TO.P,U1,2,GND*%
%TO.N,GND*%
X107362500Y-88250000D03*
%TO.P,U1,3,I/O2*%
%TO.N,Net-(J1-D+-PadA6)*%
X107362500Y-87300000D03*
%TO.P,U1,4,I/O2*%
%TO.N,/USB_DP*%
X109637500Y-87300000D03*
%TO.P,U1,5,VBUS*%
%TO.N,VBUS*%
X109637500Y-88250000D03*
%TO.P,U1,6,I/O1*%
%TO.N,/USB_DN*%
X109637500Y-89200000D03*
%TD*%
D17*
%TO.P,C9,1*%
%TO.N,+3V3*%
X116250000Y-82020000D03*
%TO.P,C9,2*%
%TO.N,GND*%
X116250000Y-82980000D03*
%TD*%
D26*
%TO.P,R3,1*%
%TO.N,Net-(#FLG03-pwr)*%
X104337500Y-79000000D03*
%TO.P,R3,2*%
%TO.N,+BATT*%
X106162500Y-79000000D03*
%TD*%
D25*
%TO.P,U4,1,~{CHRG}*%
%TO.N,unconnected-(U4-~{CHRG}-Pad1)*%
X109975000Y-84700000D03*
%TO.P,U4,2,GND*%
%TO.N,GND*%
X109975000Y-83750000D03*
%TO.P,U4,3,BAT*%
%TO.N,+BATT*%
X109975000Y-82800000D03*
%TO.P,U4,4,VCC*%
%TO.N,VBUS*%
X112250000Y-82800000D03*
%TO.P,U4,5,PROG*%
%TO.N,Net-(U4-PROG)*%
X112250000Y-84700000D03*
%TD*%
D27*
%TO.P,J4,1,Pin_1*%
%TO.N,/LCD_SCLK*%
X111000000Y-80400000D03*
%TO.P,J4,2,Pin_2*%
%TO.N,/LCD_SDI*%
X111500000Y-80400000D03*
%TO.P,J4,3,Pin_3*%
%TO.N,/LCD_CS*%
X112000000Y-80400000D03*
%TO.P,J4,4,Pin_4*%
%TO.N,/LCD_REFRESH*%
X112500000Y-80400000D03*
%TO.P,J4,5,Pin_5*%
%TO.N,+3V3*%
X113000000Y-80400000D03*
%TO.P,J4,6,Pin_6*%
X113500000Y-80400000D03*
%TO.P,J4,7,Pin_7*%
X114000000Y-80400000D03*
%TO.P,J4,8,Pin_8*%
X114500000Y-80400000D03*
%TO.P,J4,9,Pin_9*%
%TO.N,GND*%
X115000000Y-80400000D03*
%TO.P,J4,10,Pin_10*%
X115500000Y-80400000D03*
D28*
%TO.P,J4,MP*%
%TO.N,N/C*%
X108725000Y-78500000D03*
X117775000Y-78500000D03*
%TD*%
D18*
%TO.P,R8,1*%
%TO.N,+3V3*%
X107250000Y-101510000D03*
%TO.P,R8,2*%
%TO.N,/FG_SCL*%
X107250000Y-100490000D03*
%TD*%
D12*
%TO.P,R6,1*%
%TO.N,Net-(U3-BIN)*%
X105010000Y-77250000D03*
%TO.P,R6,2*%
%TO.N,GND*%
X103990000Y-77250000D03*
%TD*%
D29*
%TO.P,R4,1*%
%TO.N,VBUS*%
X117750000Y-96240000D03*
%TO.P,R4,2*%
%TO.N,Net-(#FLG04-pwr)*%
X117750000Y-97260000D03*
%TD*%
D30*
%TO.P,U5,1,VDD_IO*%
%TO.N,+3V3*%
X112475000Y-91000000D03*
%TO.P,U5,2,NC*%
%TO.N,unconnected-(U5-NC-Pad2)*%
X112475000Y-91500000D03*
%TO.P,U5,3,NC*%
%TO.N,unconnected-(U5-NC-Pad3)*%
X112475000Y-92000000D03*
%TO.P,U5,4,SCL/SPC*%
%TO.N,/IMU_SCL*%
X112475000Y-92500000D03*
%TO.P,U5,5,GND*%
%TO.N,GND*%
X112475000Y-93000000D03*
D31*
%TO.P,U5,6,SDA/SDI/SDO*%
%TO.N,/IMU_SDA*%
X111750000Y-93225000D03*
%TO.P,U5,7,SDO/SA0*%
%TO.N,GND*%
X111250000Y-93225000D03*
%TO.P,U5,8,CS*%
%TO.N,+3V3*%
X110750000Y-93225000D03*
D30*
%TO.P,U5,9,INT2*%
%TO.N,/IMU_INT2*%
X110025000Y-93000000D03*
%TO.P,U5,10,GND*%
%TO.N,GND*%
X110025000Y-92500000D03*
%TO.P,U5,11,INT1*%
%TO.N,/IMU_INT1*%
X110025000Y-92000000D03*
%TO.P,U5,12,GND*%
%TO.N,GND*%
X110025000Y-91500000D03*
%TO.P,U5,13,ADC3*%
%TO.N,unconnected-(U5-ADC3-Pad13)*%
X110025000Y-91000000D03*
D31*
%TO.P,U5,14,VDD*%
%TO.N,+3V3*%
X110750000Y-90775000D03*
%TO.P,U5,15,ADC2*%
%TO.N,unconnected-(U5-ADC2-Pad15)*%
X111250000Y-90775000D03*
%TO.P,U5,16,ADC1*%
%TO.N,unconnected-(U5-ADC1-Pad16)*%
X111750000Y-90775000D03*
%TD*%
D32*
%TO.P,Q3,1,G*%
%TO.N,/AUX_EN*%
X120550000Y-74875000D03*
%TO.P,Q3,2,S*%
%TO.N,GND*%
X122450000Y-74875000D03*
%TO.P,Q3,3,D*%
%TO.N,Net-(D4-A)*%
X121500000Y-76750000D03*
%TD*%
D33*
%TO.P,U2,1,PA2*%
%TO.N,unconnected-(U2-PA2-Pad1)*%
X110070000Y-102500000D03*
D34*
%TO.P,U2,2,PA1*%
%TO.N,unconnected-(U2-PA1-Pad2)*%
X110070000Y-102020000D03*
%TO.P,U2,3,PA0*%
%TO.N,unconnected-(U2-PA0-Pad3)*%
X110070000Y-101570000D03*
%TO.P,U2,4,VREF+*%
%TO.N,+3V3*%
X110070000Y-101120000D03*
%TO.P,U2,5,VSS*%
%TO.N,GND*%
X110070000Y-100670000D03*
%TO.P,U2,6,VDDA*%
%TO.N,+3V3*%
X110070000Y-100220000D03*
%TO.P,U2,7,PC3*%
%TO.N,unconnected-(U2-PC3-Pad7)*%
X110070000Y-99770000D03*
%TO.P,U2,8,PC2*%
%TO.N,/FG_INT*%
X110070000Y-99320000D03*
%TO.P,U2,9,PC1*%
%TO.N,/FG_SDA*%
X110070000Y-98870000D03*
%TO.P,U2,10,NRST*%
%TO.N,Net-(JP1-B)*%
X110070000Y-98420000D03*
%TO.P,U2,11,PB9*%
%TO.N,/~{SW_RESET}*%
X110070000Y-97970000D03*
%TO.P,U2,12,PC0*%
%TO.N,/IMU_INT2*%
X110070000Y-97520000D03*
%TO.P,U2,13,PH3-BOOT0*%
%TO.N,/SW_LIGHT*%
X110070000Y-97070000D03*
%TO.P,U2,14,PB8*%
%TO.N,/IMU_INT1*%
X110070000Y-96620000D03*
%TO.P,U2,15,VBAT*%
%TO.N,+3V3*%
X110070000Y-96170000D03*
%TO.P,U2,16,VSS*%
%TO.N,GND*%
X110070000Y-95720000D03*
D33*
%TO.P,U2,17,VDDA*%
%TO.N,+3V3*%
X110070000Y-95250000D03*
D35*
%TO.P,U2,18,PB7*%
%TO.N,/IMU_SDA*%
X110550000Y-95250000D03*
%TO.P,U2,19,PB5*%
%TO.N,/LCD_SDI*%
X111000000Y-95250000D03*
%TO.P,U2,20,PB4*%
%TO.N,unconnected-(U2-PB4-Pad20)*%
X111450000Y-95250000D03*
%TO.P,U2,21,PB3*%
%TO.N,/LCD_SCLK*%
X111900000Y-95250000D03*
%TO.P,U2,22,PC10*%
%TO.N,GND*%
X112350000Y-95250000D03*
%TO.P,U2,23,PC11*%
X112800000Y-95250000D03*
%TO.P,U2,24,PC12*%
X113250000Y-95250000D03*
%TO.P,U2,25,PA13*%
%TO.N,/SWDIO*%
X113700000Y-95250000D03*
%TO.P,U2,26,PA14*%
%TO.N,/SWDCLK*%
X114150000Y-95250000D03*
%TO.P,U2,27,PA15*%
%TO.N,/LCD_CS*%
X114600000Y-95250000D03*
%TO.P,U2,28,PA10*%
%TO.N,unconnected-(U2-PA10-Pad28)*%
X115050000Y-95250000D03*
%TO.P,U2,29,PA12*%
%TO.N,/USB_DP*%
X115500000Y-95250000D03*
%TO.P,U2,30,PA11*%
%TO.N,/USB_DN*%
X115950000Y-95250000D03*
D33*
%TO.P,U2,31,VSS*%
%TO.N,GND*%
X116420000Y-95250000D03*
D34*
%TO.P,U2,32,VDDUSB*%
%TO.N,Net-(#FLG04-pwr)*%
X116420000Y-95720000D03*
%TO.P,U2,33,PD0*%
%TO.N,unconnected-(U2-PD0-Pad33)*%
X116420000Y-96170000D03*
%TO.P,U2,34,PD1*%
%TO.N,unconnected-(U2-PD1-Pad34)*%
X116420000Y-96620000D03*
%TO.P,U2,35,PB13*%
%TO.N,unconnected-(U2-PB13-Pad35)*%
X116420000Y-97070000D03*
%TO.P,U2,36,PC6*%
%TO.N,unconnected-(U2-PC6-Pad36)*%
X116420000Y-97520000D03*
%TO.P,U2,37,PB14*%
%TO.N,/~{SW_UP}*%
X116420000Y-97970000D03*
%TO.P,U2,38,PB15*%
%TO.N,/~{SW_MENU}*%
X116420000Y-98420000D03*
%TO.P,U2,39,PB6*%
%TO.N,/~{SW_DOWN}*%
X116420000Y-98870000D03*
%TO.P,U2,40,PC13*%
%TO.N,/LCD_REFRESH*%
X116420000Y-99320000D03*
%TO.P,U2,41,PB12*%
%TO.N,GND*%
X116420000Y-99770000D03*
%TO.P,U2,42,PE4*%
X116420000Y-100220000D03*
%TO.P,U2,43,PB0*%
%TO.N,unconnected-(U2-PB0-Pad43)*%
X116420000Y-100670000D03*
%TO.P,U2,44,PB1*%
%TO.N,unconnected-(U2-PB1-Pad44)*%
X116420000Y-101120000D03*
%TO.P,U2,45,PC5*%
%TO.N,Net-(U2-PC5)*%
X116420000Y-101570000D03*
%TO.P,U2,46,PB11*%
%TO.N,Net-(U2-PB11)*%
X116420000Y-102020000D03*
D33*
%TO.P,U2,47,PB10*%
%TO.N,Net-(U2-PB10)*%
X116420000Y-102500000D03*
D35*
%TO.P,U2,48,PB2*%
%TO.N,/LIGHT_EN*%
X115950000Y-102500000D03*
%TO.P,U2,49,PC4*%
%TO.N,GND*%
X115500000Y-102500000D03*
%TO.P,U2,50,PA8*%
X115050000Y-102500000D03*
%TO.P,U2,51,PA9*%
%TO.N,/IMU_SCL*%
X114600000Y-102500000D03*
%TO.P,U2,52,PA7*%
%TO.N,/FG_SCL*%
X114150000Y-102500000D03*
%TO.P,U2,53,PA6*%
%TO.N,unconnected-(U2-PA6-Pad53)*%
X113700000Y-102500000D03*
%TO.P,U2,54,PA5*%
%TO.N,unconnected-(U2-PA5-Pad54)*%
X113250000Y-102500000D03*
%TO.P,U2,55,PA4*%
%TO.N,unconnected-(U2-PA4-Pad55)*%
X112800000Y-102500000D03*
%TO.P,U2,56,PA3*%
%TO.N,/AUX_EN*%
X112350000Y-102500000D03*
%TO.P,U2,57,VSS*%
%TO.N,GND*%
X111900000Y-102500000D03*
%TO.P,U2,58,ANT_IN*%
X111450000Y-102500000D03*
%TO.P,U2,59,RF_OUT*%
X111000000Y-102500000D03*
%TO.P,U2,60,VSS*%
X110550000Y-102500000D03*
D36*
%TO.P,U2,61,PH0*%
%TO.N,unconnected-(U2-PH0-Pad61)*%
X111900000Y-101120000D03*
%TO.P,U2,62,PH1*%
%TO.N,unconnected-(U2-PH1-Pad62)*%
X111900000Y-100220000D03*
%TO.P,U2,63,PD14*%
%TO.N,GND*%
X111900000Y-99320000D03*
%TO.P,U2,64,PE1*%
X111900000Y-98420000D03*
%TO.P,U2,65,PD13*%
X111900000Y-97520000D03*
%TO.P,U2,66,PD12*%
X111900000Y-96620000D03*
%TO.P,U2,67,PD7*%
X112800000Y-96620000D03*
%TO.P,U2,68,PD2*%
X113700000Y-96620000D03*
%TO.P,U2,69,PC9*%
X114600000Y-96620000D03*
%TO.P,U2,70,PD3*%
X114600000Y-97520000D03*
%TO.P,U2,71,PC7*%
X114600000Y-98420000D03*
%TO.P,U2,72,PE3*%
X114600000Y-99320000D03*
%TO.P,U2,73,PD4*%
X114600000Y-100220000D03*
%TO.P,U2,74,PD9*%
X114600000Y-101120000D03*
%TO.P,U2,75,PD8*%
X113700000Y-101120000D03*
%TO.P,U2,76,PD15*%
X112800000Y-101120000D03*
%TO.P,U2,77,PD10*%
X112800000Y-100220000D03*
%TO.P,U2,78,PE2*%
X112800000Y-99320000D03*
%TO.P,U2,79,PE0*%
X112800000Y-98420000D03*
%TO.P,U2,80,PD5*%
X112800000Y-97520000D03*
%TO.P,U2,81,PD6*%
X113700000Y-97520000D03*
%TO.P,U2,82,PD11*%
X113700000Y-98420000D03*
%TO.P,U2,83,PC8*%
X113700000Y-99320000D03*
%TO.P,U2,84,VSS*%
X113700000Y-100220000D03*
D37*
%TO.P,U2,85,ANT_NC*%
%TO.N,unconnected-(U2-ANT_NC-Pad85)*%
X110200000Y-105450000D03*
%TO.P,U2,86,VSS*%
%TO.N,GND*%
X116300000Y-105450000D03*
%TD*%
D12*
%TO.P,R12,1*%
%TO.N,/LIGHT_EN*%
X118760000Y-99500000D03*
%TO.P,R12,2*%
%TO.N,GND*%
X117740000Y-99500000D03*
%TD*%
D17*
%TO.P,C10,1*%
%TO.N,GND*%
X103250000Y-92520000D03*
%TO.P,C10,2*%
%TO.N,Net-(#FLG06-pwr)*%
X103250000Y-93480000D03*
%TD*%
D29*
%TO.P,R15,1*%
%TO.N,/AUX_EN*%
X120250000Y-78490000D03*
%TO.P,R15,2*%
%TO.N,GND*%
X120250000Y-79510000D03*
%TD*%
D23*
%TO.P,C13,1*%
%TO.N,+3V3*%
X108750000Y-93980000D03*
%TO.P,C13,2*%
%TO.N,GND*%
X108750000Y-93020000D03*
%TD*%
D24*
%TO.P,SW3,1,1*%
%TO.N,/~{SW_UP}*%
X126600000Y-78625000D03*
X126600000Y-73375000D03*
%TO.P,SW3,2,2*%
%TO.N,GND*%
X124900000Y-78625000D03*
X124900000Y-73375000D03*
%TD*%
D32*
%TO.P,Q2,1,G*%
%TO.N,/LIGHT_EN*%
X120100000Y-100000000D03*
%TO.P,Q2,2,S*%
%TO.N,GND*%
X122000000Y-100000000D03*
%TO.P,Q2,3,D*%
%TO.N,Net-(J7-Pin_1)*%
X121050000Y-101875000D03*
%TD*%
D29*
%TO.P,R5,1*%
%TO.N,GND*%
X119000000Y-96240000D03*
%TO.P,R5,2*%
%TO.N,Net-(#FLG04-pwr)*%
X119000000Y-97260000D03*
%TD*%
D17*
%TO.P,C8,1*%
%TO.N,+3V3*%
X115250000Y-82020000D03*
%TO.P,C8,2*%
%TO.N,GND*%
X115250000Y-82980000D03*
%TD*%
D38*
%TO.P,C5,1*%
%TO.N,Net-(U3-V_{DD})*%
X105980000Y-70500000D03*
%TO.P,C5,2*%
%TO.N,GND*%
X105020000Y-70500000D03*
%TD*%
D22*
%TO.P,R1,1*%
%TO.N,Net-(J1-CC2)*%
X106740000Y-86000000D03*
%TO.P,R1,2*%
%TO.N,GND*%
X107760000Y-86000000D03*
%TD*%
D17*
%TO.P,C6,1*%
%TO.N,VBUS*%
X113750000Y-84020000D03*
%TO.P,C6,2*%
%TO.N,GND*%
X113750000Y-84980000D03*
%TD*%
D39*
%TO.P,J2,1,Pin_1*%
%TO.N,GND*%
X127920000Y-69750000D03*
D40*
%TO.P,J2,2,Pin_2*%
%TO.N,/SWDCLK*%
X125380000Y-69750000D03*
%TO.P,J2,3,Pin_3*%
%TO.N,/SWDIO*%
X122840000Y-69750000D03*
%TO.P,J2,4,Pin_4*%
%TO.N,+3V3*%
X120300000Y-69750000D03*
%TD*%
D16*
%TO.P,C3,1*%
%TO.N,Net-(U2-PB11)*%
X117770000Y-101500000D03*
%TO.P,C3,2*%
%TO.N,GND*%
X118730000Y-101500000D03*
%TD*%
D41*
%TO.P,U3,1,SDA*%
%TO.N,/FG_SDA*%
X104250000Y-71600000D03*
D42*
X104250000Y-71925000D03*
D41*
%TO.P,U3,2,SCL*%
%TO.N,/FG_SCL*%
X104650000Y-71600000D03*
D42*
X104650000Y-71925000D03*
D41*
%TO.P,U3,3,V_{SS}*%
%TO.N,GND*%
X105050000Y-71600000D03*
D42*
X105050000Y-71925000D03*
D41*
%TO.P,U3,4,NC*%
%TO.N,unconnected-(U3-NC-Pad4)*%
X105450000Y-71600000D03*
D42*
X105450000Y-71925000D03*
D41*
%TO.P,U3,5,V_{DD}*%
%TO.N,Net-(U3-V_{DD})*%
X105850000Y-71600000D03*
D42*
X105850000Y-71925000D03*
D41*
%TO.P,U3,6,BAT*%
%TO.N,Net-(#FLG03-pwr)*%
X106250000Y-71600000D03*
D42*
X106250000Y-71925000D03*
%TO.P,U3,7,SRN*%
%TO.N,+BATT*%
X106250000Y-75875000D03*
D41*
X106250000Y-76200000D03*
D42*
%TO.P,U3,8,SRP*%
%TO.N,Net-(#FLG03-pwr)*%
X105850000Y-75875000D03*
D41*
X105850000Y-76200000D03*
D42*
%TO.P,U3,9,NC*%
%TO.N,unconnected-(U3-NC-Pad9)*%
X105450000Y-75875000D03*
D41*
X105450000Y-76200000D03*
D42*
%TO.P,U3,10,BIN*%
%TO.N,Net-(U3-BIN)*%
X105050000Y-75875000D03*
D41*
X105050000Y-76200000D03*
D42*
%TO.P,U3,11,NC*%
%TO.N,unconnected-(U3-NC-Pad11)*%
X104650000Y-75875000D03*
D41*
X104650000Y-76200000D03*
D42*
%TO.P,U3,12,GPOUT*%
%TO.N,/FG_INT*%
X104250000Y-75875000D03*
D41*
X104250000Y-76200000D03*
D43*
%TO.P,U3,13,PAD*%
%TO.N,GND*%
X106615000Y-72800000D03*
D44*
X106562500Y-72800000D03*
X103937500Y-72800000D03*
D43*
X103885000Y-72800000D03*
D45*
X105750000Y-73000000D03*
X104750000Y-73000000D03*
D46*
X105737500Y-73250000D03*
X104762500Y-73250000D03*
D45*
X105750000Y-73900000D03*
D47*
X105250000Y-73900000D03*
D45*
X104750000Y-73900000D03*
D46*
X105737500Y-74550000D03*
X104762500Y-74550000D03*
D45*
X105750000Y-74800000D03*
X104750000Y-74800000D03*
D43*
X106615000Y-75000000D03*
D44*
X106562500Y-75000000D03*
X103937500Y-75000000D03*
D43*
X103885000Y-75000000D03*
%TD*%
D48*
%TO.P,D1,1,K*%
%TO.N,Net-(#FLG06-pwr)*%
X106300000Y-81000000D03*
%TO.P,D1,2,A*%
%TO.N,VBUS*%
X104200000Y-81000000D03*
%TD*%
D49*
%TO.P,Q1,1,G*%
%TO.N,VBUS*%
X106125000Y-84700000D03*
%TO.P,Q1,2,S*%
%TO.N,Net-(#FLG06-pwr)*%
X106125000Y-82800000D03*
%TO.P,Q1,3,D*%
%TO.N,+BATT*%
X108000000Y-83750000D03*
%TD*%
D22*
%TO.P,R9,1*%
%TO.N,GND*%
X110740000Y-86000000D03*
%TO.P,R9,2*%
%TO.N,Net-(U4-PROG)*%
X111760000Y-86000000D03*
%TD*%
D24*
%TO.P,SW1,1,1*%
%TO.N,/SW_LIGHT*%
X99900000Y-73375000D03*
X99900000Y-78625000D03*
%TO.P,SW1,2,2*%
%TO.N,+3V3*%
X101600000Y-73375000D03*
X101600000Y-78625000D03*
%TD*%
D50*
%TO.P,U6,1,GND*%
%TO.N,GND*%
X107137500Y-91800000D03*
%TO.P,U6,2,VO*%
%TO.N,+3V3*%
X107137500Y-93700000D03*
%TO.P,U6,3,VI*%
%TO.N,Net-(#FLG06-pwr)*%
X104862500Y-92750000D03*
%TD*%
D16*
%TO.P,C2,1*%
%TO.N,Net-(U2-PC5)*%
X117770000Y-100500000D03*
%TO.P,C2,2*%
%TO.N,GND*%
X118730000Y-100500000D03*
%TD*%
D24*
%TO.P,SW5,1,1*%
%TO.N,/~{SW_DOWN}*%
X126600000Y-100625000D03*
X126600000Y-95375000D03*
%TO.P,SW5,2,2*%
%TO.N,GND*%
X124900000Y-100625000D03*
X124900000Y-95375000D03*
%TD*%
D22*
%TO.P,R2,1*%
%TO.N,Net-(J1-CC1)*%
X106990000Y-90500000D03*
%TO.P,R2,2*%
%TO.N,GND*%
X108010000Y-90500000D03*
%TD*%
D17*
%TO.P,C1,1*%
%TO.N,Net-(JP1-B)*%
X107250000Y-98520000D03*
%TO.P,C1,2*%
%TO.N,GND*%
X107250000Y-99480000D03*
%TD*%
D29*
%TO.P,R14,1*%
%TO.N,+3V3*%
X113750000Y-92740000D03*
%TO.P,R14,2*%
%TO.N,/IMU_SCL*%
X113750000Y-93760000D03*
%TD*%
D51*
%TO.N,+3V3*%
X113750000Y-81250000D03*
X104500000Y-104500000D03*
X110775000Y-90205000D03*
X102200500Y-75750000D03*
%TO.N,GND*%
X110250000Y-86000000D03*
X107250000Y-85250000D03*
X124500000Y-93000000D03*
X127549502Y-100000000D03*
X108500000Y-77000000D03*
X121000000Y-73500000D03*
X123750000Y-100000000D03*
X110250000Y-73750000D03*
X108500000Y-74500000D03*
X100250000Y-94000000D03*
X112750000Y-77000000D03*
X117250000Y-104750000D03*
X116500000Y-77250000D03*
X114250000Y-77500000D03*
X121500000Y-95500000D03*
X107750000Y-76000000D03*
X103000000Y-80750000D03*
X119000000Y-74500000D03*
X110750000Y-71500000D03*
X110750000Y-74750000D03*
X100750000Y-96750000D03*
X119500000Y-104750000D03*
X121250000Y-96500000D03*
X102500000Y-99000000D03*
X127500000Y-80250000D03*
X125750000Y-83000000D03*
X125750000Y-98000000D03*
X100750000Y-71750000D03*
X115500000Y-99750000D03*
X121000000Y-104750000D03*
X113500000Y-83250000D03*
X109000000Y-73250000D03*
X109250000Y-71750000D03*
X126500000Y-94000000D03*
X125750000Y-88250000D03*
X125500000Y-104000000D03*
X107250000Y-81000000D03*
X118000000Y-104750000D03*
X107250000Y-69250000D03*
X113250000Y-70500000D03*
X119500000Y-104000000D03*
X127750000Y-101250000D03*
X104500000Y-70250000D03*
X126000000Y-93250000D03*
X116250000Y-104000000D03*
X126000000Y-77250000D03*
X108500000Y-70250000D03*
X125750000Y-75750000D03*
X127500000Y-94000000D03*
X120250000Y-80750000D03*
X118750000Y-104000000D03*
X105750000Y-91000000D03*
X113250000Y-74000000D03*
X121500000Y-68250000D03*
X108750000Y-82000000D03*
X117750000Y-72500000D03*
X107000000Y-73500000D03*
X111500000Y-78750000D03*
X105250000Y-81000000D03*
X127250000Y-81750000D03*
X125857000Y-72136000D03*
X123000000Y-97000000D03*
X102799500Y-76763556D03*
X115250000Y-70250000D03*
X110250000Y-79500000D03*
X125250000Y-94000000D03*
X117250000Y-95250000D03*
X105500000Y-100750000D03*
X108500000Y-88750000D03*
X128250000Y-81000000D03*
X106500000Y-88000000D03*
X99000000Y-81500000D03*
X127000000Y-83000000D03*
X126750000Y-102500000D03*
X101000000Y-98750000D03*
X116000000Y-79250000D03*
X103500000Y-101250000D03*
X115000000Y-78250000D03*
X107000000Y-74250000D03*
X123250000Y-102500000D03*
X118500000Y-80000000D03*
X121750000Y-74250000D03*
X108000000Y-73750000D03*
X103500000Y-73500000D03*
X121000000Y-105500000D03*
X122000000Y-73250000D03*
X116250000Y-74500000D03*
X125750000Y-80000000D03*
X128250000Y-82250000D03*
X113299500Y-86000000D03*
X114750000Y-74250000D03*
X109250000Y-81500000D03*
X113750000Y-79000000D03*
X105500000Y-95000000D03*
X122000000Y-102250000D03*
X107500000Y-75000000D03*
X121750000Y-103250000D03*
X109750000Y-77000000D03*
X103000000Y-81750000D03*
X123250000Y-101250000D03*
X127381000Y-72136000D03*
X107250000Y-79000000D03*
X115750000Y-75500000D03*
X126000000Y-68250000D03*
X109500000Y-75750000D03*
X109750000Y-74750000D03*
X108500000Y-89500000D03*
X117000000Y-70500000D03*
X112500000Y-78250000D03*
X115750000Y-71750000D03*
X119500000Y-105500000D03*
X109250000Y-102750000D03*
X106500000Y-92750000D03*
X128000000Y-92000000D03*
X117250000Y-105500000D03*
X103000000Y-100750000D03*
X110000000Y-70250000D03*
X97750000Y-80750000D03*
X121285000Y-71501000D03*
X102750000Y-96500000D03*
X110000000Y-72500000D03*
X120250000Y-104000000D03*
X113250000Y-75500000D03*
X119250000Y-73000000D03*
X123250000Y-73000000D03*
X123000000Y-99500000D03*
X125250000Y-97000000D03*
X126750000Y-104000000D03*
X118000000Y-105500000D03*
X121500000Y-81000000D03*
X107500000Y-83000000D03*
X121000000Y-99500000D03*
X121000000Y-100500000D03*
X117750000Y-74000000D03*
X111500000Y-70000000D03*
X124500000Y-98000000D03*
X117500000Y-75500000D03*
X118500000Y-70250000D03*
X123500000Y-74000000D03*
X112000000Y-74250000D03*
X128000000Y-104000000D03*
X124500000Y-68250000D03*
X103250000Y-77500000D03*
X119750500Y-101250000D03*
X119750000Y-102000000D03*
X115750000Y-83750000D03*
X99750000Y-71750000D03*
X117000000Y-100500000D03*
X122500000Y-72250000D03*
X114250000Y-71500000D03*
X97750000Y-93250000D03*
X105750000Y-68750000D03*
X110736444Y-103013556D03*
X105750000Y-93750000D03*
X125750000Y-87000000D03*
X117250000Y-104000000D03*
X108000000Y-79750000D03*
X112500000Y-71750000D03*
X125750000Y-85750000D03*
X123000000Y-77500000D03*
X108250000Y-72500000D03*
X123500000Y-75500000D03*
X111500000Y-73000000D03*
X113250000Y-73000000D03*
X121500000Y-70500000D03*
X111000000Y-101500000D03*
X108500000Y-75500000D03*
X125250000Y-92250000D03*
X115750000Y-73000000D03*
X122500000Y-76500000D03*
X106750000Y-95000000D03*
X107750000Y-92750000D03*
X106250000Y-96000000D03*
X101750000Y-71750000D03*
X127500000Y-68250000D03*
X114750000Y-76000000D03*
X104250000Y-68500000D03*
X118000000Y-104000000D03*
X118500000Y-81000000D03*
X101000000Y-70000000D03*
X99000000Y-92500000D03*
X111500000Y-75500000D03*
X106000000Y-92000000D03*
X127549502Y-95750000D03*
X114750000Y-72500000D03*
X99000000Y-94000000D03*
X106250000Y-101500000D03*
X118750000Y-104750000D03*
X109450500Y-95500000D03*
X113500000Y-82500000D03*
X111750000Y-71000000D03*
X125000000Y-102500000D03*
X117000000Y-80500000D03*
X121500000Y-75500000D03*
X115250000Y-77250000D03*
X125750000Y-91000000D03*
X99000000Y-80000000D03*
X119000000Y-71500000D03*
X101250000Y-80000000D03*
X103250000Y-97250000D03*
X127000000Y-92750000D03*
X120000000Y-97250000D03*
X118750000Y-105500000D03*
X108500000Y-102750000D03*
X110500000Y-77750000D03*
X127500000Y-91000000D03*
X102000000Y-94000000D03*
X107250000Y-76750000D03*
X123000000Y-68250000D03*
X101750000Y-97250000D03*
X123250000Y-81000000D03*
X103500000Y-74250000D03*
X128250000Y-102500000D03*
X120250000Y-104750000D03*
X108000000Y-85250000D03*
X107750000Y-71500000D03*
X111250000Y-77000000D03*
X103000000Y-95000000D03*
X128250000Y-93250000D03*
X101250000Y-68500000D03*
X122250000Y-98000000D03*
X118500000Y-77000000D03*
X121250000Y-72500000D03*
X97750000Y-71750000D03*
X108000000Y-99750000D03*
X101750000Y-99250000D03*
X108750000Y-80500000D03*
X120250000Y-105500000D03*
X111750000Y-92250000D03*
X112450500Y-94000000D03*
%TO.N,VBUS*%
X117750000Y-95749500D03*
X106250000Y-90500000D03*
X114500000Y-84000000D03*
X108500000Y-87500000D03*
%TO.N,/USB_DP*%
X110600500Y-87250000D03*
X120750000Y-95821149D03*
%TO.N,/USB_DN*%
X109527112Y-90250000D03*
X120452819Y-96454383D03*
%TO.N,/LCD_SCLK*%
X110553229Y-81483430D03*
X111750000Y-94500000D03*
%TO.N,/LCD_SDI*%
X111468750Y-95874502D03*
X111250000Y-81545188D03*
%TO.N,/LCD_CS*%
X112001892Y-81500843D03*
X114500000Y-94500000D03*
%TO.N,/LCD_REFRESH*%
X115693955Y-96800500D03*
X112750000Y-81500000D03*
%TO.N,Net-(J1-D--PadA7)*%
X105673389Y-86950500D03*
X105750000Y-88049500D03*
%TO.N,/SWDCLK*%
X124750000Y-70750000D03*
X114332037Y-95870498D03*
%TO.N,/SWDIO*%
X113500000Y-95870498D03*
X123500000Y-70750000D03*
%TO.N,/SW_LIGHT*%
X103875000Y-96625000D03*
X100250000Y-77250000D03*
%TO.N,Net-(J7-Pin_1)*%
X122000000Y-104500000D03*
%TO.N,/AUX_EN*%
X120250000Y-77750000D03*
X125500000Y-81250000D03*
X111903413Y-101925499D03*
X123750000Y-81750000D03*
%TO.N,/FG_SDA*%
X103299500Y-72263479D03*
X108263556Y-98986444D03*
%TO.N,/FG_SCL*%
X103299500Y-71563976D03*
X108000000Y-101000000D03*
X112740743Y-103257805D03*
%TO.N,/IMU_SCL*%
X113750000Y-94500000D03*
X115500000Y-100500000D03*
%TO.N,/FG_INT*%
X103500000Y-76299500D03*
X109299500Y-99750000D03*
%TO.N,/IMU_INT2*%
X107500000Y-97299500D03*
X108500000Y-92250000D03*
%TO.N,/IMU_INT1*%
X108500000Y-91500000D03*
X108273806Y-96496694D03*
%TO.N,Net-(#FLG06-pwr)*%
X106000000Y-83750000D03*
X105250000Y-92000000D03*
%TD*%
D52*
%TO.N,+3V3*%
X112500000Y-89980000D02*
X112250000Y-89730000D01*
X114250000Y-82020000D02*
X119500000Y-82020000D01*
X110070000Y-100220000D02*
X109780000Y-100220000D01*
X108750000Y-95750000D02*
X108750000Y-93980000D01*
X109070000Y-101550000D02*
X107540000Y-101550000D01*
X110720000Y-100220000D02*
X110750000Y-100250000D01*
X107500000Y-101510000D02*
X104510000Y-104500000D01*
X110070000Y-94330000D02*
X110070000Y-95250000D01*
X111150000Y-91584314D02*
X110775000Y-91209314D01*
X113750000Y-81520000D02*
X114250000Y-82020000D01*
X113750000Y-81250000D02*
X113750000Y-80400000D01*
X112250000Y-89730000D02*
X111250000Y-89730000D01*
X121020000Y-82020000D02*
X122000000Y-83000000D01*
X101600000Y-75750000D02*
X101600000Y-78625000D01*
X109780000Y-100220000D02*
X109500000Y-100500000D01*
X101600000Y-75750000D02*
X102200500Y-75750000D01*
X110775000Y-91209314D02*
X110775000Y-90205000D01*
X111250000Y-89730000D02*
X110775000Y-90205000D01*
X109500000Y-93980000D02*
X110270000Y-93980000D01*
X110775000Y-92790686D02*
X111150000Y-92415686D01*
X112798008Y-91000000D02*
X113750000Y-91951992D01*
X109500000Y-101120000D02*
X109070000Y-101550000D01*
X110070000Y-96170000D02*
X110420000Y-96170000D01*
X108750000Y-93980000D02*
X109500000Y-93980000D01*
X111150000Y-92415686D02*
X111150000Y-91584314D01*
X113750000Y-81250000D02*
X113750000Y-81520000D01*
X122450000Y-82550000D02*
X124250000Y-82550000D01*
X108470000Y-93700000D02*
X108750000Y-93980000D01*
X112475000Y-91000000D02*
X112798008Y-91000000D01*
X110270000Y-93980000D02*
X110240000Y-94010000D01*
X110070000Y-96170000D02*
X109170000Y-96170000D01*
X110775000Y-93475000D02*
X110775000Y-92790686D01*
X109500000Y-100500000D02*
X109500000Y-101120000D01*
X101600000Y-73375000D02*
X101600000Y-75750000D01*
X119500000Y-74000000D02*
X119500000Y-82020000D01*
X119500000Y-82020000D02*
X121020000Y-82020000D01*
X110420000Y-96170000D02*
X110750000Y-96500000D01*
X113750000Y-80400000D02*
X114500000Y-80400000D01*
X122000000Y-83000000D02*
X122450000Y-82550000D01*
X113000000Y-80400000D02*
X113750000Y-80400000D01*
X109170000Y-96170000D02*
X108750000Y-95750000D01*
X110070000Y-101120000D02*
X109500000Y-101120000D01*
X107137500Y-93700000D02*
X108470000Y-93700000D01*
X107540000Y-101550000D02*
X107500000Y-101510000D01*
X112500000Y-91000000D02*
X112500000Y-89980000D01*
X110070000Y-100220000D02*
X110720000Y-100220000D01*
X120300000Y-69750000D02*
X120300000Y-73200000D01*
X120300000Y-73200000D02*
X119500000Y-74000000D01*
X110750000Y-96500000D02*
X110750000Y-100250000D01*
X113750000Y-91951992D02*
X113750000Y-92740000D01*
X109990000Y-94250000D02*
X110070000Y-94330000D01*
X104510000Y-104500000D02*
X104500000Y-104500000D01*
X110270000Y-93980000D02*
X110775000Y-93475000D01*
%TO.N,GND*%
X117740000Y-99510000D02*
X118730000Y-100500000D01*
X124900000Y-83850000D02*
X125750000Y-83000000D01*
X111000000Y-101150000D02*
X111000000Y-101500000D01*
X116780000Y-100220000D02*
X116420000Y-100220000D01*
X117200000Y-95200000D02*
X116470000Y-95200000D01*
X109670500Y-95720000D02*
X110070000Y-95720000D01*
X104220000Y-91530000D02*
X104220000Y-90210000D01*
X104000000Y-91770000D02*
X104000000Y-91750000D01*
X105050000Y-72962500D02*
X104762500Y-73250000D01*
X105050000Y-71925000D02*
X105050000Y-70530000D01*
X114600000Y-99320000D02*
X114820000Y-99320000D01*
X115500000Y-99750000D02*
X115970000Y-100220000D01*
X110750000Y-92250000D02*
X110500000Y-92500000D01*
X115500000Y-102500000D02*
X115500000Y-103250000D01*
X109450500Y-95500000D02*
X109670500Y-95720000D01*
X116470000Y-95200000D02*
X116420000Y-95250000D01*
X110025000Y-91500000D02*
X110500000Y-91500000D01*
X119000000Y-95500000D02*
X118700000Y-95200000D01*
X110500000Y-91500000D02*
X110750000Y-91750000D01*
X115500000Y-103250000D02*
X115050000Y-102800000D01*
X110500000Y-92500000D02*
X110025000Y-92500000D01*
X117740000Y-99500000D02*
X117740000Y-99510000D01*
X111250000Y-93225000D02*
X111250000Y-92881372D01*
X103250000Y-92520000D02*
X104000000Y-91770000D01*
X105050000Y-70530000D02*
X105020000Y-70500000D01*
X111250000Y-92881372D02*
X111750000Y-92381372D01*
X115500000Y-103250000D02*
X116250000Y-104000000D01*
X105050000Y-71925000D02*
X105050000Y-72962500D01*
X115050000Y-102800000D02*
X115050000Y-102500000D01*
X117230000Y-99770000D02*
X116780000Y-100220000D01*
X119000000Y-96240000D02*
X119000000Y-95500000D01*
X115970000Y-100220000D02*
X116420000Y-100220000D01*
X115500000Y-99750000D02*
X115520000Y-99770000D01*
X111750000Y-92381372D02*
X111750000Y-92250000D01*
X117230000Y-99770000D02*
X117500000Y-99500000D01*
X116420000Y-99770000D02*
X117230000Y-99770000D01*
X110025000Y-91500000D02*
X109500000Y-91500000D01*
X117740000Y-99500000D02*
X117500000Y-99500000D01*
X115520000Y-99770000D02*
X116420000Y-99770000D01*
X110750000Y-91750000D02*
X110750000Y-92250000D01*
X117250000Y-95250000D02*
X117200000Y-95200000D01*
X103170000Y-92600000D02*
X103250000Y-92520000D01*
X104000000Y-91750000D02*
X104220000Y-91530000D01*
X110520000Y-100670000D02*
X111000000Y-101150000D01*
X117300000Y-95200000D02*
X117250000Y-95250000D01*
X118700000Y-95200000D02*
X117300000Y-95200000D01*
X124900000Y-84375000D02*
X124900000Y-83850000D01*
X111900000Y-102500000D02*
X111000000Y-102500000D01*
X101000000Y-92600000D02*
X103170000Y-92600000D01*
X110070000Y-100670000D02*
X110520000Y-100670000D01*
%TO.N,VBUS*%
X108790000Y-85300000D02*
X110673896Y-85300000D01*
X108740000Y-86000000D02*
X108740000Y-85250000D01*
X105087500Y-84427500D02*
X105087500Y-81887500D01*
X108740000Y-85250000D02*
X108740000Y-84990000D01*
X109250000Y-88250000D02*
X109637500Y-88250000D01*
X111250000Y-84250000D02*
X111500000Y-84000000D01*
X106015000Y-84590000D02*
X106125000Y-84700000D01*
X111500000Y-84000000D02*
X112250000Y-84000000D01*
X108500000Y-87500000D02*
X108500000Y-86694302D01*
X106125000Y-84700000D02*
X108450000Y-84700000D01*
X104220000Y-84590000D02*
X105250000Y-84590000D01*
X113750000Y-84020000D02*
X114480000Y-84020000D01*
X105250000Y-84590000D02*
X106015000Y-84590000D01*
X112250000Y-84000000D02*
X112270000Y-84020000D01*
X112250000Y-83485189D02*
X112250000Y-84000000D01*
X108500000Y-87500000D02*
X109250000Y-88250000D01*
X117750000Y-95749500D02*
X117750000Y-96240000D01*
X108500000Y-86694302D02*
X108740000Y-86454302D01*
X106250000Y-90500000D02*
X105160000Y-89410000D01*
X105160000Y-89410000D02*
X104220000Y-89410000D01*
X105250000Y-84590000D02*
X105087500Y-84427500D01*
X108450000Y-84700000D02*
X108500000Y-84750000D01*
X108740000Y-86454302D02*
X108740000Y-86000000D01*
X111250000Y-84723896D02*
X111250000Y-84250000D01*
X110673896Y-85300000D02*
X111250000Y-84723896D01*
X105087500Y-81887500D02*
X104200000Y-81000000D01*
X112270000Y-84020000D02*
X113750000Y-84020000D01*
X108740000Y-85250000D02*
X108790000Y-85300000D01*
X112250000Y-82800000D02*
X112250000Y-83485189D01*
X108740000Y-84990000D02*
X108500000Y-84750000D01*
X114480000Y-84020000D02*
X114500000Y-84000000D01*
X109500000Y-88250000D02*
X110137500Y-88250000D01*
%TO.N,Net-(J1-CC1)*%
X106990000Y-90380000D02*
X106990000Y-90500000D01*
X104860000Y-88250000D02*
X106990000Y-90380000D01*
X104220000Y-88250000D02*
X104860000Y-88250000D01*
%TO.N,/USB_DP*%
X109637500Y-87300000D02*
X110550500Y-87300000D01*
X115500000Y-94704314D02*
X115500000Y-95250000D01*
X110550500Y-87300000D02*
X110600500Y-87250000D01*
X115954314Y-94250000D02*
X115500000Y-94704314D01*
X120636834Y-95821149D02*
X119065685Y-94250000D01*
X120750000Y-95821149D02*
X120636834Y-95821149D01*
X119065685Y-94250000D02*
X115954314Y-94250000D01*
%TO.N,/USB_DN*%
X120452819Y-96454383D02*
X120200000Y-96201564D01*
X118900000Y-94650000D02*
X116120000Y-94650000D01*
X115950000Y-95250000D02*
X115945000Y-95255000D01*
X116120000Y-94650000D02*
X115950000Y-94820000D01*
X120200000Y-96201564D02*
X120200000Y-95950000D01*
X109637500Y-89200000D02*
X109637500Y-90139612D01*
X109637500Y-90139612D02*
X109527112Y-90250000D01*
X115950000Y-94820000D02*
X115950000Y-95250000D01*
X120200000Y-95950000D02*
X118900000Y-94650000D01*
%TO.N,Net-(J1-CC2)*%
X105000000Y-85250000D02*
X105500000Y-85750000D01*
X105500000Y-85750000D02*
X106490000Y-85750000D01*
X106490000Y-85750000D02*
X106740000Y-86000000D01*
X104220000Y-85250000D02*
X105000000Y-85250000D01*
%TO.N,/LCD_SCLK*%
X111900000Y-94650000D02*
X111900000Y-95250000D01*
X110553229Y-81382862D02*
X111000000Y-80936091D01*
X111000000Y-80936091D02*
X111000000Y-80400000D01*
X110553229Y-81483430D02*
X110553229Y-81382862D01*
X111750000Y-94500000D02*
X111900000Y-94650000D01*
%TO.N,/LCD_SDI*%
X111000000Y-95700000D02*
X111000000Y-95250000D01*
X111468750Y-95874502D02*
X111174502Y-95874502D01*
X111174502Y-95874502D02*
X111000000Y-95700000D01*
X111500000Y-81224917D02*
X111500000Y-80400000D01*
X111250000Y-81545188D02*
X111250000Y-81474917D01*
X111250000Y-81474917D02*
X111500000Y-81224917D01*
%TO.N,/LCD_CS*%
X114600000Y-94600000D02*
X114600000Y-95250000D01*
X114500000Y-94500000D02*
X114600000Y-94600000D01*
X112000000Y-81498951D02*
X112001892Y-81500843D01*
X112000000Y-80400000D02*
X112000000Y-81498951D01*
%TO.N,/LCD_REFRESH*%
X115693955Y-96800500D02*
X115693955Y-99043955D01*
X115693955Y-99043955D02*
X115970000Y-99320000D01*
X115970000Y-99320000D02*
X116420000Y-99320000D01*
X112500000Y-81250000D02*
X112750000Y-81500000D01*
X112500000Y-80400000D02*
X112500000Y-81250000D01*
%TO.N,/~{SW_RESET}*%
X105500000Y-97970000D02*
X104000000Y-97970000D01*
X99900000Y-95375000D02*
X99900000Y-97750000D01*
X105525000Y-97995000D02*
X105500000Y-97970000D01*
X99900000Y-98000000D02*
X99900000Y-97750000D01*
X99900000Y-98500000D02*
X99900000Y-100625000D01*
X99930000Y-97970000D02*
X99900000Y-98000000D01*
X104000000Y-97970000D02*
X99930000Y-97970000D01*
X99900000Y-97750000D02*
X99900000Y-100625000D01*
X104025000Y-99000000D02*
X104025000Y-97995000D01*
X104025000Y-97995000D02*
X104000000Y-97970000D01*
X110070000Y-97970000D02*
X105500000Y-97970000D01*
%TO.N,Net-(U2-PC5)*%
X116420000Y-101570000D02*
X116700000Y-101570000D01*
X116700000Y-101570000D02*
X117770000Y-100500000D01*
%TO.N,Net-(U2-PB11)*%
X117250000Y-102020000D02*
X117770000Y-101500000D01*
X116420000Y-102020000D02*
X117250000Y-102020000D01*
%TO.N,Net-(U2-PB10)*%
X116420000Y-102500000D02*
X117770000Y-102500000D01*
%TO.N,Net-(J1-D+-PadA6)*%
X106250000Y-87250000D02*
X106250000Y-86750000D01*
X107662500Y-87500000D02*
X107862500Y-87300000D01*
X104220000Y-87250000D02*
X104991372Y-87250000D01*
X106250000Y-86750000D02*
X105750000Y-86250000D01*
X106250000Y-87250000D02*
X107312500Y-87250000D01*
X106000000Y-87500000D02*
X106250000Y-87250000D01*
X104220000Y-86250000D02*
X105750000Y-86250000D01*
X107312500Y-87250000D02*
X107362500Y-87300000D01*
X104991372Y-87250000D02*
X105241372Y-87500000D01*
X105241372Y-87500000D02*
X106000000Y-87500000D01*
X107162500Y-87500000D02*
X107362500Y-87300000D01*
%TO.N,Net-(J1-D--PadA7)*%
X105750000Y-88049500D02*
X105750000Y-88250000D01*
X105750000Y-88049500D02*
X105225186Y-88049500D01*
X105750000Y-88250000D02*
X106700000Y-89200000D01*
X105472889Y-86750000D02*
X104220000Y-86750000D01*
X106950000Y-89200000D02*
X107862500Y-89200000D01*
X105225186Y-88049500D02*
X104925686Y-87750000D01*
X104925686Y-87750000D02*
X104220000Y-87750000D01*
X106700000Y-89200000D02*
X107362500Y-89200000D01*
X105673389Y-86950500D02*
X105472889Y-86750000D01*
%TO.N,/SWDCLK*%
X114150000Y-95700000D02*
X114150000Y-95250000D01*
X114320498Y-95870498D02*
X114150000Y-95700000D01*
X124750000Y-70750000D02*
X125380000Y-70120000D01*
X125380000Y-70120000D02*
X125380000Y-69750000D01*
X114332037Y-95870498D02*
X114320498Y-95870498D01*
%TO.N,/SWDIO*%
X113500000Y-95870498D02*
X113700000Y-95670498D01*
X122840000Y-70090000D02*
X122840000Y-69750000D01*
X113700000Y-95670498D02*
X113700000Y-95250000D01*
X123500000Y-70750000D02*
X122840000Y-70090000D01*
%TO.N,Net-(U3-V_{DD})*%
X105850000Y-71600000D02*
X105850000Y-70630000D01*
X105850000Y-70630000D02*
X105980000Y-70500000D01*
%TO.N,/SW_LIGHT*%
X104000000Y-96750000D02*
X107750000Y-96750000D01*
X99900000Y-73375000D02*
X99900000Y-77250000D01*
X99900000Y-77250000D02*
X100250000Y-77250000D01*
X107750000Y-96750000D02*
X108070000Y-97070000D01*
X99900000Y-77250000D02*
X99900000Y-78625000D01*
X103875000Y-96625000D02*
X104000000Y-96750000D01*
X108070000Y-97070000D02*
X110070000Y-97070000D01*
%TO.N,/~{SW_UP}*%
X126600000Y-78625000D02*
X126600000Y-73375000D01*
X124150000Y-83250000D02*
X123750000Y-83650000D01*
X122100000Y-96650000D02*
X120780000Y-97970000D01*
X126600000Y-81150000D02*
X124500000Y-83250000D01*
X123750000Y-83650000D02*
X123750000Y-93934314D01*
X122100000Y-95584314D02*
X122100000Y-96650000D01*
X120780000Y-97970000D02*
X116420000Y-97970000D01*
X126600000Y-78625000D02*
X126600000Y-81150000D01*
X123750000Y-93934314D02*
X122100000Y-95584314D01*
X124500000Y-83250000D02*
X124150000Y-83250000D01*
%TO.N,/~{SW_MENU}*%
X116420000Y-98420000D02*
X120895686Y-98420000D01*
X122500000Y-95750000D02*
X126600000Y-91650000D01*
X126600000Y-91650000D02*
X126600000Y-89625000D01*
X120895686Y-98420000D02*
X122500000Y-96815686D01*
X126600000Y-89625000D02*
X126600000Y-84375000D01*
X122500000Y-96815686D02*
X122500000Y-95750000D01*
%TO.N,/~{SW_DOWN}*%
X126600000Y-98870000D02*
X126600000Y-98750000D01*
X126600000Y-100625000D02*
X126600000Y-99250000D01*
X126600000Y-98750000D02*
X126600000Y-95375000D01*
X116420000Y-98870000D02*
X126600000Y-98870000D01*
X126600000Y-99250000D02*
X126600000Y-98750000D01*
%TO.N,Net-(JP1-B)*%
X106055000Y-98420000D02*
X110070000Y-98420000D01*
X105475000Y-99000000D02*
X106055000Y-98420000D01*
%TO.N,Net-(J7-Pin_1)*%
X121050000Y-101875000D02*
X121050000Y-103550000D01*
X121050000Y-103550000D02*
X122000000Y-104500000D01*
%TO.N,Net-(D4-A)*%
X121500000Y-79000000D02*
X122000000Y-79500000D01*
X121500000Y-77125000D02*
X121500000Y-79000000D01*
X124250000Y-80450000D02*
X122950000Y-80450000D01*
X122950000Y-80450000D02*
X122000000Y-79500000D01*
%TO.N,+BATT*%
X106162500Y-79000000D02*
X106250000Y-78912500D01*
X108050000Y-82800000D02*
X108000000Y-82750000D01*
X106162500Y-79500000D02*
X106250000Y-79412500D01*
X109975000Y-82800000D02*
X108050000Y-82800000D01*
X106162500Y-79000000D02*
X108000000Y-80837500D01*
X108000000Y-80837500D02*
X108000000Y-82250000D01*
X106250000Y-78912500D02*
X106250000Y-75875000D01*
X108000000Y-82750000D02*
X108000000Y-83750000D01*
X108000000Y-82250000D02*
X108000000Y-82750000D01*
%TO.N,/LIGHT_EN*%
X120100000Y-100000000D02*
X120250000Y-100150000D01*
X115950000Y-102950000D02*
X115950000Y-102500000D01*
X119750000Y-103250000D02*
X116250000Y-103250000D01*
X119600000Y-99500000D02*
X120100000Y-100000000D01*
X116250000Y-103250000D02*
X115950000Y-102950000D01*
X120250000Y-102750000D02*
X119750000Y-103250000D01*
X120250000Y-100150000D02*
X120250000Y-102750000D01*
X118760000Y-99500000D02*
X119600000Y-99500000D01*
%TO.N,/AUX_EN*%
X111903413Y-101925499D02*
X112150499Y-101925499D01*
X120250000Y-78490000D02*
X120250000Y-77750000D01*
X123750000Y-81750000D02*
X125000000Y-81750000D01*
X125000000Y-81750000D02*
X125500000Y-81250000D01*
X112150499Y-101925499D02*
X112350000Y-102125000D01*
X112350000Y-102125000D02*
X112350000Y-102500000D01*
X120550000Y-77450000D02*
X120250000Y-77750000D01*
X120550000Y-74875000D02*
X120550000Y-77450000D01*
%TO.N,Net-(U3-BIN)*%
X105010000Y-77250000D02*
X105050000Y-77210000D01*
X105050000Y-77210000D02*
X105050000Y-75875000D01*
%TO.N,/FG_SDA*%
X108380000Y-98870000D02*
X110070000Y-98870000D01*
X108263556Y-98986444D02*
X108750000Y-99472888D01*
X103716294Y-71925000D02*
X104250000Y-71925000D01*
X108263556Y-98986444D02*
X108380000Y-98870000D01*
X103377815Y-72263479D02*
X103716294Y-71925000D01*
X108750000Y-99472888D02*
X108750000Y-100240000D01*
X103299500Y-72263479D02*
X103377815Y-72263479D01*
X108750000Y-100240000D02*
X109000000Y-100490000D01*
%TO.N,/FG_SCL*%
X112740743Y-103257805D02*
X113714377Y-103257805D01*
X104400000Y-71000000D02*
X104650000Y-71250000D01*
X107250000Y-100490000D02*
X107490000Y-100490000D01*
X103299500Y-71563976D02*
X103863476Y-71000000D01*
X113714377Y-103257805D02*
X114150000Y-102822182D01*
X107490000Y-100490000D02*
X108000000Y-101000000D01*
X114150000Y-102822182D02*
X114150000Y-102500000D01*
X104650000Y-71250000D02*
X104650000Y-71600000D01*
X103863476Y-71000000D02*
X104400000Y-71000000D01*
%TO.N,Net-(U4-PROG)*%
X112250000Y-85510000D02*
X111760000Y-86000000D01*
X112250000Y-84700000D02*
X112250000Y-85510000D01*
%TO.N,/IMU_SDA*%
X111750000Y-93225000D02*
X111750000Y-93548008D01*
X110550000Y-94710000D02*
X111010000Y-94250000D01*
X111048008Y-94250000D02*
X111010000Y-94250000D01*
X111750000Y-93548008D02*
X111048008Y-94250000D01*
X110550000Y-95250000D02*
X110550000Y-94710000D01*
%TO.N,/IMU_SCL*%
X112798008Y-92500000D02*
X112475000Y-92500000D01*
X113130000Y-92831992D02*
X112798008Y-92500000D01*
X113750000Y-94500000D02*
X113750000Y-94000000D01*
X113130000Y-93380000D02*
X113130000Y-92831992D01*
X115500000Y-100500000D02*
X115500000Y-101250000D01*
X113750000Y-94000000D02*
X113130000Y-93380000D01*
X115500000Y-101250000D02*
X114600000Y-102150000D01*
X114600000Y-102150000D02*
X114600000Y-102500000D01*
%TO.N,/FG_INT*%
X103500000Y-76299500D02*
X103924500Y-75875000D01*
X109729500Y-99320000D02*
X110070000Y-99320000D01*
X103924500Y-75875000D02*
X104250000Y-75875000D01*
X109299500Y-99750000D02*
X109729500Y-99320000D01*
%TO.N,/IMU_INT2*%
X109701992Y-93000000D02*
X110025000Y-93000000D01*
X108500000Y-92250000D02*
X108951992Y-92250000D01*
X107720500Y-97520000D02*
X110070000Y-97520000D01*
X108951992Y-92250000D02*
X109701992Y-93000000D01*
X107500000Y-97299500D02*
X107720500Y-97520000D01*
%TO.N,/IMU_INT1*%
X108273806Y-96496694D02*
X108397112Y-96620000D01*
X109267678Y-92000000D02*
X110025000Y-92000000D01*
X108767678Y-91500000D02*
X109267678Y-92000000D01*
X108397112Y-96620000D02*
X110070000Y-96620000D01*
X108500000Y-91500000D02*
X108767678Y-91500000D01*
%TO.N,Net-(#FLG06-pwr)*%
X106300000Y-81000000D02*
X106300000Y-82625000D01*
X103770000Y-93480000D02*
X103250000Y-93480000D01*
X106125000Y-82800000D02*
X106125000Y-83625000D01*
X105250000Y-92000000D02*
X103770000Y-93480000D01*
X106300000Y-82625000D02*
X106125000Y-82800000D01*
X106125000Y-83625000D02*
X106000000Y-83750000D01*
%TO.N,Net-(#FLG03-pwr)*%
X103750000Y-79000000D02*
X104337500Y-79000000D01*
X102250000Y-76500000D02*
X102250000Y-77500000D01*
X102750000Y-70000000D02*
X103250000Y-70500000D01*
X106750000Y-71000000D02*
X106750000Y-70000000D01*
X103250000Y-69500000D02*
X102750000Y-70000000D01*
X106250000Y-71925000D02*
X106250000Y-71500000D01*
X106250000Y-71500000D02*
X106750000Y-71000000D01*
X102750000Y-76000000D02*
X102250000Y-76500000D01*
X106750000Y-70000000D02*
X106250000Y-69500000D01*
X105850000Y-75875000D02*
X105850000Y-77487500D01*
X103250000Y-70500000D02*
X102750000Y-71000000D01*
X105850000Y-77487500D02*
X104337500Y-79000000D01*
X106250000Y-69500000D02*
X103250000Y-69500000D01*
X102750000Y-71000000D02*
X102750000Y-76000000D01*
X102250000Y-77500000D02*
X103750000Y-79000000D01*
X104500000Y-79500000D02*
X104337500Y-79500000D01*
%TO.N,Net-(#FLG04-pwr)*%
X117000000Y-95850000D02*
X117000000Y-96880000D01*
X116420000Y-95720000D02*
X116870000Y-95720000D01*
X117000000Y-96880000D02*
X117380000Y-97260000D01*
X118750000Y-97260000D02*
X117750000Y-97260000D01*
X117380000Y-97260000D02*
X117750000Y-97260000D01*
X116870000Y-95720000D02*
X117000000Y-95850000D01*
%TD*%
%TA.AperFunction,Conductor*%
%TO.N,GND*%
G36*
X128255392Y-68000972D02*
G01*
X128267433Y-68002025D01*
X128294880Y-68004426D01*
X128295961Y-68004526D01*
X128421776Y-68016918D01*
X128441685Y-68020541D01*
X128506467Y-68037899D01*
X128510203Y-68038966D01*
X128601570Y-68066682D01*
X128617959Y-68072952D01*
X128683867Y-68103686D01*
X128689867Y-68106685D01*
X128732639Y-68129548D01*
X128769046Y-68149008D01*
X128781715Y-68156791D01*
X128842889Y-68199625D01*
X128850430Y-68205346D01*
X128918455Y-68261172D01*
X128927472Y-68269345D01*
X128980653Y-68322526D01*
X128988826Y-68331543D01*
X129044652Y-68399568D01*
X129050373Y-68407109D01*
X129093207Y-68468283D01*
X129100990Y-68480952D01*
X129143304Y-68560114D01*
X129146330Y-68566167D01*
X129151741Y-68577772D01*
X129162931Y-68640445D01*
X129141547Y-68700409D01*
X129093227Y-68741860D01*
X129030706Y-68753871D01*
X128970466Y-68733275D01*
X128867544Y-68664504D01*
X128794625Y-68650000D01*
X128045000Y-68650000D01*
X128045000Y-70850000D01*
X128794625Y-70850000D01*
X128867543Y-70835495D01*
X128950239Y-70780239D01*
X129013097Y-70686165D01*
X129029647Y-70651175D01*
X129078048Y-70615279D01*
X129137654Y-70606437D01*
X129194391Y-70626738D01*
X129234858Y-70671387D01*
X129249500Y-70729840D01*
X129249500Y-71875500D01*
X129232887Y-71937500D01*
X129187500Y-71982887D01*
X129125500Y-71999500D01*
X128024760Y-71999500D01*
X128024554Y-71999459D01*
X127999998Y-71999459D01*
X127999807Y-71999538D01*
X127999619Y-71999615D01*
X127999615Y-71999618D01*
X127999459Y-71999999D01*
X127999476Y-72024616D01*
X127999471Y-72024616D01*
X127999500Y-72024760D01*
X127999500Y-79975240D01*
X127999459Y-79975446D01*
X127999459Y-80000000D01*
X127999500Y-80000099D01*
X127999617Y-80000383D01*
X127999618Y-80000384D01*
X127999808Y-80000461D01*
X128000000Y-80000541D01*
X128000002Y-80000539D01*
X128024616Y-80000524D01*
X128024616Y-80000528D01*
X128024760Y-80000500D01*
X129125500Y-80000500D01*
X129187500Y-80017113D01*
X129232887Y-80062500D01*
X129249500Y-80124500D01*
X129249500Y-82875500D01*
X129232887Y-82937500D01*
X129187500Y-82982887D01*
X129125500Y-82999500D01*
X128024760Y-82999500D01*
X128024554Y-82999459D01*
X127999998Y-82999459D01*
X127999807Y-82999538D01*
X127999619Y-82999615D01*
X127999615Y-82999618D01*
X127999459Y-82999999D01*
X127999476Y-83024616D01*
X127999471Y-83024616D01*
X127999500Y-83024760D01*
X127999500Y-90975240D01*
X127999459Y-90975446D01*
X127999459Y-91000000D01*
X127999500Y-91000099D01*
X127999617Y-91000383D01*
X127999618Y-91000384D01*
X127999808Y-91000461D01*
X128000000Y-91000541D01*
X128000002Y-91000539D01*
X128024616Y-91000524D01*
X128024616Y-91000528D01*
X128024760Y-91000500D01*
X129125500Y-91000500D01*
X129187500Y-91017113D01*
X129232887Y-91062500D01*
X129249500Y-91124500D01*
X129249500Y-93875500D01*
X129232887Y-93937500D01*
X129187500Y-93982887D01*
X129125500Y-93999500D01*
X128024760Y-93999500D01*
X128024554Y-93999459D01*
X127999998Y-93999459D01*
X127999807Y-93999538D01*
X127999619Y-93999615D01*
X127999615Y-93999618D01*
X127999459Y-93999999D01*
X127999476Y-94024616D01*
X127999471Y-94024616D01*
X127999500Y-94024760D01*
X127999500Y-101975240D01*
X127999459Y-101975446D01*
X127999459Y-102000000D01*
X127999500Y-102000099D01*
X127999616Y-102000382D01*
X127999617Y-102000383D01*
X127999618Y-102000384D01*
X127999808Y-102000462D01*
X128000000Y-102000541D01*
X128000002Y-102000539D01*
X128024616Y-102000524D01*
X128024616Y-102000528D01*
X128024760Y-102000500D01*
X129125500Y-102000500D01*
X129187500Y-102017113D01*
X129232887Y-102062500D01*
X129249500Y-102124500D01*
X129249500Y-104994584D01*
X129249028Y-105005397D01*
X129245581Y-105044776D01*
X129245456Y-105046116D01*
X129233082Y-105171760D01*
X129229454Y-105191700D01*
X129212123Y-105256382D01*
X129211008Y-105260285D01*
X129183319Y-105351562D01*
X129177041Y-105367971D01*
X129146328Y-105433835D01*
X129143304Y-105439884D01*
X129100990Y-105519046D01*
X129093207Y-105531715D01*
X129050373Y-105592889D01*
X129044652Y-105600430D01*
X128988826Y-105668455D01*
X128980653Y-105677472D01*
X128927472Y-105730653D01*
X128918455Y-105738826D01*
X128850430Y-105794652D01*
X128842889Y-105800373D01*
X128781715Y-105843207D01*
X128769046Y-105850990D01*
X128689884Y-105893304D01*
X128683835Y-105896328D01*
X128617971Y-105927041D01*
X128601562Y-105933319D01*
X128510285Y-105961008D01*
X128506382Y-105962123D01*
X128441700Y-105979454D01*
X128421760Y-105983082D01*
X128296116Y-105995456D01*
X128294776Y-105995581D01*
X128259760Y-105998646D01*
X128255392Y-105999028D01*
X128244584Y-105999500D01*
X116824154Y-105999500D01*
X116760405Y-105981858D01*
X116714796Y-105933953D01*
X116700303Y-105869416D01*
X116721052Y-105806610D01*
X116750494Y-105762545D01*
X116765000Y-105689625D01*
X116765000Y-105575000D01*
X115835000Y-105575000D01*
X115835000Y-105689625D01*
X115849505Y-105762545D01*
X115878948Y-105806610D01*
X115899697Y-105869416D01*
X115885204Y-105933953D01*
X115839595Y-105981858D01*
X115775846Y-105999500D01*
X115624000Y-105999500D01*
X115562000Y-105982887D01*
X115516613Y-105937500D01*
X115500000Y-105875500D01*
X115500000Y-105325000D01*
X115835000Y-105325000D01*
X116175000Y-105325000D01*
X116175000Y-104985000D01*
X116425000Y-104985000D01*
X116425000Y-105325000D01*
X116765000Y-105325000D01*
X116765000Y-105210375D01*
X116750495Y-105137456D01*
X116695239Y-105054760D01*
X116612543Y-104999504D01*
X116539625Y-104985000D01*
X116425000Y-104985000D01*
X116175000Y-104985000D01*
X116060375Y-104985000D01*
X115987456Y-104999504D01*
X115904760Y-105054760D01*
X115849504Y-105137456D01*
X115835000Y-105210375D01*
X115835000Y-105325000D01*
X115500000Y-105325000D01*
X115500000Y-103500000D01*
X114267225Y-103500000D01*
X114210930Y-103486485D01*
X114166907Y-103448885D01*
X114144752Y-103395398D01*
X114149294Y-103337682D01*
X114179544Y-103288319D01*
X114266633Y-103201230D01*
X114363046Y-103104816D01*
X114382903Y-103088692D01*
X114390669Y-103083619D01*
X114408496Y-103060713D01*
X114418232Y-103049689D01*
X114424678Y-103040660D01*
X114429561Y-103033819D01*
X114432610Y-103029730D01*
X114462517Y-102991308D01*
X114462516Y-102991308D01*
X114475231Y-102974974D01*
X114476290Y-102975798D01*
X114482425Y-102965506D01*
X114523842Y-102935941D01*
X114573645Y-102925500D01*
X114749672Y-102925500D01*
X114749674Y-102925500D01*
X114802093Y-102915073D01*
X114850473Y-102915073D01*
X114900377Y-102925000D01*
X114925000Y-102925000D01*
X114925000Y-102864182D01*
X114930340Y-102828185D01*
X114945900Y-102795288D01*
X114946792Y-102793954D01*
X114947899Y-102792295D01*
X114994708Y-102750703D01*
X115055871Y-102737285D01*
X115115791Y-102755462D01*
X115159190Y-102800601D01*
X115175000Y-102861189D01*
X115175000Y-102925000D01*
X115199623Y-102925000D01*
X115250807Y-102914818D01*
X115299193Y-102914818D01*
X115350377Y-102925000D01*
X115374999Y-102925000D01*
X115389326Y-102910673D01*
X115447811Y-102877839D01*
X115514839Y-102880265D01*
X115570798Y-102917240D01*
X115599317Y-102977946D01*
X115602665Y-102998012D01*
X115603403Y-103003078D01*
X115610351Y-103058809D01*
X115637081Y-103108202D01*
X115639421Y-103112747D01*
X115660802Y-103156484D01*
X115660803Y-103156485D01*
X115664084Y-103163196D01*
X115669581Y-103168256D01*
X115669582Y-103168258D01*
X115705399Y-103201230D01*
X115709097Y-103204779D01*
X115967361Y-103463043D01*
X115983489Y-103482903D01*
X115988563Y-103490669D01*
X116011473Y-103508500D01*
X116022492Y-103518232D01*
X116031120Y-103524391D01*
X116038359Y-103529559D01*
X116042420Y-103532587D01*
X116080874Y-103562517D01*
X116080876Y-103562517D01*
X116086775Y-103567109D01*
X116140593Y-103583131D01*
X116145437Y-103584682D01*
X116191512Y-103600500D01*
X116191514Y-103600500D01*
X116198578Y-103602925D01*
X116206043Y-103602616D01*
X116206046Y-103602617D01*
X116254668Y-103600605D01*
X116259792Y-103600500D01*
X119700788Y-103600500D01*
X119726234Y-103603139D01*
X119727556Y-103603416D01*
X119735315Y-103605043D01*
X119761364Y-103601795D01*
X119764123Y-103601452D01*
X119778795Y-103600541D01*
X119798013Y-103597334D01*
X119803069Y-103596596D01*
X119851393Y-103590573D01*
X119851394Y-103590572D01*
X119858808Y-103589648D01*
X119865378Y-103586092D01*
X119865381Y-103586092D01*
X119908201Y-103562918D01*
X119912747Y-103560577D01*
X119956484Y-103539198D01*
X119956484Y-103539197D01*
X119963197Y-103535916D01*
X120001231Y-103494598D01*
X120004758Y-103490921D01*
X120463043Y-103032636D01*
X120482896Y-103016514D01*
X120490669Y-103011437D01*
X120490670Y-103011435D01*
X120507682Y-103000322D01*
X120570379Y-102980239D01*
X120634519Y-102995079D01*
X120682023Y-103040660D01*
X120699500Y-103104133D01*
X120699500Y-103500788D01*
X120696861Y-103526234D01*
X120694957Y-103535314D01*
X120698548Y-103564123D01*
X120699458Y-103578795D01*
X120702665Y-103598013D01*
X120703403Y-103603078D01*
X120710351Y-103658809D01*
X120737081Y-103708202D01*
X120739421Y-103712747D01*
X120760802Y-103756484D01*
X120760803Y-103756485D01*
X120764084Y-103763196D01*
X120769581Y-103768256D01*
X120769582Y-103768258D01*
X120805399Y-103801230D01*
X120809097Y-103804779D01*
X121463496Y-104459178D01*
X121486699Y-104491355D01*
X121498553Y-104529212D01*
X121514834Y-104642457D01*
X121574623Y-104773374D01*
X121668870Y-104882141D01*
X121668872Y-104882143D01*
X121789947Y-104959953D01*
X121928039Y-105000500D01*
X122071961Y-105000500D01*
X122210053Y-104959953D01*
X122331128Y-104882143D01*
X122425377Y-104773373D01*
X122485165Y-104642457D01*
X122505647Y-104500000D01*
X122485165Y-104357543D01*
X122425377Y-104226627D01*
X122425376Y-104226626D01*
X122425376Y-104226625D01*
X122331129Y-104117858D01*
X122331128Y-104117857D01*
X122210053Y-104040047D01*
X122071961Y-103999500D01*
X122046544Y-103999500D01*
X121999091Y-103990061D01*
X121958863Y-103963181D01*
X121436819Y-103441137D01*
X121409939Y-103400909D01*
X121400500Y-103353456D01*
X121400500Y-102879754D01*
X121409939Y-102832301D01*
X121436819Y-102792072D01*
X121438339Y-102790551D01*
X121438342Y-102790550D01*
X121528050Y-102700842D01*
X121585646Y-102587804D01*
X121600500Y-102494019D01*
X121600499Y-101255982D01*
X121585646Y-101162196D01*
X121578861Y-101148880D01*
X121565728Y-101082859D01*
X121589027Y-101019702D01*
X121641893Y-100978026D01*
X121708744Y-100970114D01*
X121818517Y-100987500D01*
X121875000Y-100987500D01*
X121875000Y-100125000D01*
X122125000Y-100125000D01*
X122125000Y-100987499D01*
X122181478Y-100987499D01*
X122275149Y-100972663D01*
X122388045Y-100915141D01*
X122477640Y-100825546D01*
X122516132Y-100750000D01*
X124150000Y-100750000D01*
X124150000Y-101424625D01*
X124164504Y-101497543D01*
X124219760Y-101580239D01*
X124302456Y-101635495D01*
X124375375Y-101650000D01*
X124775000Y-101650000D01*
X124775000Y-100750000D01*
X124150000Y-100750000D01*
X122516132Y-100750000D01*
X122535165Y-100712646D01*
X122550000Y-100618984D01*
X122550000Y-100500000D01*
X124150000Y-100500000D01*
X124775000Y-100500000D01*
X124775000Y-99600000D01*
X124375375Y-99600000D01*
X124302456Y-99614504D01*
X124219760Y-99669760D01*
X124164504Y-99752456D01*
X124150000Y-99825375D01*
X124150000Y-100500000D01*
X122550000Y-100500000D01*
X122550000Y-100125000D01*
X122125000Y-100125000D01*
X121875000Y-100125000D01*
X121450001Y-100125000D01*
X121450001Y-100618978D01*
X121464835Y-100712649D01*
X121471468Y-100725666D01*
X121484600Y-100791690D01*
X121461300Y-100854845D01*
X121408434Y-100896520D01*
X121341584Y-100904432D01*
X121231521Y-100887000D01*
X120868484Y-100887000D01*
X120759023Y-100904336D01*
X120692172Y-100896422D01*
X120639308Y-100854746D01*
X120616009Y-100791589D01*
X120629142Y-100725568D01*
X120635646Y-100712804D01*
X120650500Y-100619019D01*
X120650499Y-99380982D01*
X120647792Y-99363895D01*
X120650923Y-99310839D01*
X120675978Y-99263967D01*
X120718354Y-99231890D01*
X120770267Y-99220500D01*
X121330238Y-99220500D01*
X121382151Y-99231890D01*
X121424528Y-99263968D01*
X121449582Y-99310840D01*
X121452712Y-99363896D01*
X121450000Y-99381020D01*
X121450000Y-99875000D01*
X122549999Y-99875000D01*
X122549999Y-99381021D01*
X122547287Y-99363895D01*
X122550417Y-99310839D01*
X122575472Y-99263967D01*
X122617848Y-99231890D01*
X122669761Y-99220500D01*
X126125500Y-99220500D01*
X126187500Y-99237113D01*
X126232887Y-99282500D01*
X126249500Y-99344500D01*
X126249500Y-99475500D01*
X126232887Y-99537500D01*
X126187500Y-99582887D01*
X126125500Y-99599500D01*
X126075325Y-99599500D01*
X126002261Y-99614033D01*
X125919399Y-99669399D01*
X125852802Y-99769070D01*
X125808152Y-99809538D01*
X125749699Y-99824180D01*
X125691246Y-99809538D01*
X125646597Y-99769070D01*
X125580241Y-99669761D01*
X125497543Y-99614504D01*
X125424625Y-99600000D01*
X125025000Y-99600000D01*
X125025000Y-101650000D01*
X125424625Y-101650000D01*
X125497543Y-101635495D01*
X125580239Y-101580239D01*
X125646596Y-101480929D01*
X125691245Y-101440461D01*
X125749699Y-101425819D01*
X125808153Y-101440461D01*
X125852802Y-101480929D01*
X125864033Y-101497738D01*
X125864034Y-101497740D01*
X125919399Y-101580601D01*
X126002260Y-101635966D01*
X126038792Y-101643232D01*
X126075325Y-101650500D01*
X126075326Y-101650500D01*
X127124674Y-101650500D01*
X127124675Y-101650500D01*
X127149966Y-101645469D01*
X127197740Y-101635966D01*
X127280601Y-101580601D01*
X127335966Y-101497740D01*
X127345655Y-101449029D01*
X127350500Y-101424675D01*
X127350500Y-99825325D01*
X127335966Y-99752261D01*
X127335966Y-99752260D01*
X127280601Y-99669399D01*
X127197740Y-99614034D01*
X127197739Y-99614033D01*
X127197738Y-99614033D01*
X127124675Y-99599500D01*
X127124674Y-99599500D01*
X127074500Y-99599500D01*
X127012500Y-99582887D01*
X126967113Y-99537500D01*
X126950500Y-99475500D01*
X126950500Y-98889624D01*
X126950923Y-98879386D01*
X126950973Y-98878779D01*
X126954132Y-98840656D01*
X126954131Y-98840652D01*
X126954164Y-98840255D01*
X126950500Y-98810858D01*
X126950500Y-96524500D01*
X126967113Y-96462500D01*
X127012500Y-96417113D01*
X127074500Y-96400500D01*
X127124675Y-96400500D01*
X127163685Y-96392740D01*
X127197740Y-96385966D01*
X127280601Y-96330601D01*
X127335966Y-96247740D01*
X127350500Y-96174674D01*
X127350500Y-94575326D01*
X127335966Y-94502260D01*
X127280601Y-94419399D01*
X127197740Y-94364034D01*
X127197739Y-94364033D01*
X127197738Y-94364033D01*
X127124675Y-94349500D01*
X127124674Y-94349500D01*
X126075326Y-94349500D01*
X126075325Y-94349500D01*
X126002261Y-94364033D01*
X125919399Y-94419399D01*
X125852802Y-94519070D01*
X125808152Y-94559538D01*
X125749699Y-94574180D01*
X125691246Y-94559538D01*
X125646597Y-94519070D01*
X125580241Y-94419761D01*
X125497543Y-94364504D01*
X125424625Y-94350000D01*
X125025000Y-94350000D01*
X125025000Y-96400000D01*
X125424625Y-96400000D01*
X125497543Y-96385495D01*
X125580239Y-96330239D01*
X125646596Y-96230929D01*
X125691245Y-96190461D01*
X125749699Y-96175819D01*
X125808153Y-96190461D01*
X125852802Y-96230929D01*
X125864033Y-96247738D01*
X125864034Y-96247740D01*
X125919399Y-96330601D01*
X126002260Y-96385966D01*
X126032288Y-96391939D01*
X126075325Y-96400500D01*
X126075326Y-96400500D01*
X126125500Y-96400500D01*
X126187500Y-96417113D01*
X126232887Y-96462500D01*
X126249500Y-96524500D01*
X126249500Y-98395500D01*
X126232887Y-98457500D01*
X126187500Y-98502887D01*
X126125500Y-98519500D01*
X121591230Y-98519500D01*
X121534935Y-98505985D01*
X121490912Y-98468385D01*
X121468757Y-98414898D01*
X121473299Y-98357182D01*
X121503549Y-98307819D01*
X121804137Y-98007231D01*
X122713046Y-97098320D01*
X122732903Y-97082196D01*
X122740669Y-97077123D01*
X122758496Y-97054217D01*
X122768228Y-97043197D01*
X122768370Y-97042997D01*
X122768376Y-97042992D01*
X122779586Y-97027289D01*
X122782600Y-97023247D01*
X122812517Y-96984812D01*
X122812517Y-96984810D01*
X122817108Y-96978913D01*
X122819240Y-96971752D01*
X122833131Y-96925090D01*
X122834686Y-96920235D01*
X122850500Y-96874174D01*
X122850500Y-96874170D01*
X122852925Y-96867106D01*
X122852616Y-96859640D01*
X122852617Y-96859639D01*
X122850606Y-96811007D01*
X122850500Y-96805884D01*
X122850500Y-95946544D01*
X122859939Y-95899091D01*
X122886819Y-95858863D01*
X123245682Y-95500000D01*
X124150000Y-95500000D01*
X124150000Y-96174625D01*
X124164504Y-96247543D01*
X124219760Y-96330239D01*
X124302456Y-96385495D01*
X124375375Y-96400000D01*
X124775000Y-96400000D01*
X124775000Y-95500000D01*
X124150000Y-95500000D01*
X123245682Y-95500000D01*
X123938319Y-94807363D01*
X123987682Y-94777113D01*
X124045398Y-94772571D01*
X124098885Y-94794726D01*
X124136485Y-94838749D01*
X124150000Y-94895044D01*
X124150000Y-95250000D01*
X124775000Y-95250000D01*
X124775000Y-94350000D01*
X124695044Y-94350000D01*
X124638749Y-94336485D01*
X124594726Y-94298885D01*
X124572571Y-94245398D01*
X124577113Y-94187682D01*
X124607363Y-94138319D01*
X126254068Y-92491613D01*
X126813046Y-91932634D01*
X126832903Y-91916510D01*
X126840669Y-91911437D01*
X126858496Y-91888531D01*
X126868228Y-91877511D01*
X126868370Y-91877311D01*
X126868376Y-91877306D01*
X126879586Y-91861603D01*
X126882600Y-91857561D01*
X126912517Y-91819126D01*
X126912517Y-91819124D01*
X126917108Y-91813227D01*
X126919240Y-91806066D01*
X126933131Y-91759404D01*
X126934686Y-91754549D01*
X126939592Y-91740259D01*
X126950500Y-91708488D01*
X126950500Y-91708484D01*
X126952925Y-91701420D01*
X126952616Y-91693954D01*
X126952617Y-91693953D01*
X126950606Y-91645321D01*
X126950500Y-91640198D01*
X126950500Y-90774500D01*
X126967113Y-90712500D01*
X127012500Y-90667113D01*
X127074500Y-90650500D01*
X127124675Y-90650500D01*
X127149029Y-90645655D01*
X127197740Y-90635966D01*
X127280601Y-90580601D01*
X127335966Y-90497740D01*
X127350500Y-90424674D01*
X127350500Y-88825326D01*
X127335966Y-88752260D01*
X127280601Y-88669399D01*
X127197740Y-88614034D01*
X127197739Y-88614033D01*
X127197738Y-88614033D01*
X127124675Y-88599500D01*
X127124674Y-88599500D01*
X127074500Y-88599500D01*
X127012500Y-88582887D01*
X126967113Y-88537500D01*
X126950500Y-88475500D01*
X126950500Y-85524500D01*
X126967113Y-85462500D01*
X127012500Y-85417113D01*
X127074500Y-85400500D01*
X127124675Y-85400500D01*
X127149029Y-85395655D01*
X127197740Y-85385966D01*
X127280601Y-85330601D01*
X127335966Y-85247740D01*
X127348139Y-85186544D01*
X127350500Y-85174675D01*
X127350500Y-83575325D01*
X127337738Y-83511168D01*
X127335966Y-83502260D01*
X127280601Y-83419399D01*
X127197740Y-83364034D01*
X127197739Y-83364033D01*
X127197738Y-83364033D01*
X127124675Y-83349500D01*
X127124674Y-83349500D01*
X126075326Y-83349500D01*
X126075325Y-83349500D01*
X126002261Y-83364033D01*
X125919399Y-83419399D01*
X125852802Y-83519070D01*
X125808152Y-83559538D01*
X125749699Y-83574180D01*
X125691246Y-83559538D01*
X125646597Y-83519070D01*
X125580241Y-83419761D01*
X125497543Y-83364504D01*
X125424625Y-83350000D01*
X125195043Y-83350000D01*
X125138748Y-83336485D01*
X125094725Y-83298885D01*
X125072570Y-83245398D01*
X125077112Y-83187682D01*
X125107362Y-83138319D01*
X125923733Y-82321948D01*
X126813046Y-81432634D01*
X126832903Y-81416510D01*
X126840669Y-81411437D01*
X126858496Y-81388531D01*
X126868232Y-81377506D01*
X126868371Y-81377310D01*
X126868375Y-81377307D01*
X126879554Y-81361648D01*
X126882615Y-81357543D01*
X126912517Y-81319126D01*
X126912517Y-81319124D01*
X126917107Y-81313228D01*
X126924008Y-81290047D01*
X126933131Y-81259401D01*
X126934686Y-81254549D01*
X126936248Y-81250000D01*
X126950500Y-81208488D01*
X126950500Y-81208484D01*
X126952925Y-81201420D01*
X126952616Y-81193955D01*
X126952617Y-81193954D01*
X126950605Y-81145323D01*
X126950500Y-81140201D01*
X126950500Y-79774500D01*
X126967113Y-79712500D01*
X127012500Y-79667113D01*
X127074500Y-79650500D01*
X127124675Y-79650500D01*
X127149029Y-79645655D01*
X127197740Y-79635966D01*
X127280601Y-79580601D01*
X127335966Y-79497740D01*
X127350500Y-79424674D01*
X127350500Y-77825326D01*
X127349440Y-77819999D01*
X127336462Y-77754754D01*
X127335966Y-77752260D01*
X127280601Y-77669399D01*
X127197740Y-77614034D01*
X127197739Y-77614033D01*
X127197738Y-77614033D01*
X127124675Y-77599500D01*
X127124674Y-77599500D01*
X127074500Y-77599500D01*
X127012500Y-77582887D01*
X126967113Y-77537500D01*
X126950500Y-77475500D01*
X126950500Y-74524500D01*
X126967113Y-74462500D01*
X127012500Y-74417113D01*
X127074500Y-74400500D01*
X127124675Y-74400500D01*
X127149029Y-74395655D01*
X127197740Y-74385966D01*
X127280601Y-74330601D01*
X127335966Y-74247740D01*
X127350500Y-74174674D01*
X127350500Y-72575326D01*
X127335966Y-72502260D01*
X127280601Y-72419399D01*
X127197740Y-72364034D01*
X127197739Y-72364033D01*
X127197738Y-72364033D01*
X127124675Y-72349500D01*
X127124674Y-72349500D01*
X126075326Y-72349500D01*
X126075325Y-72349500D01*
X126002261Y-72364033D01*
X125919399Y-72419399D01*
X125852802Y-72519070D01*
X125808152Y-72559538D01*
X125749699Y-72574180D01*
X125691246Y-72559538D01*
X125646597Y-72519070D01*
X125580241Y-72419761D01*
X125497543Y-72364504D01*
X125424625Y-72350000D01*
X125025000Y-72350000D01*
X125025000Y-74400000D01*
X125424625Y-74400000D01*
X125497543Y-74385495D01*
X125580239Y-74330239D01*
X125646596Y-74230929D01*
X125691245Y-74190461D01*
X125749699Y-74175819D01*
X125808153Y-74190461D01*
X125852802Y-74230929D01*
X125864033Y-74247738D01*
X125864034Y-74247740D01*
X125919399Y-74330601D01*
X126002260Y-74385966D01*
X126038793Y-74393233D01*
X126075325Y-74400500D01*
X126075326Y-74400500D01*
X126125500Y-74400500D01*
X126187500Y-74417113D01*
X126232887Y-74462500D01*
X126249500Y-74524500D01*
X126249500Y-77475500D01*
X126232887Y-77537500D01*
X126187500Y-77582887D01*
X126125500Y-77599500D01*
X126075325Y-77599500D01*
X126002261Y-77614033D01*
X125919399Y-77669399D01*
X125852802Y-77769070D01*
X125808152Y-77809538D01*
X125749699Y-77824180D01*
X125691246Y-77809538D01*
X125646597Y-77769070D01*
X125580241Y-77669761D01*
X125497543Y-77614504D01*
X125424625Y-77600000D01*
X125025000Y-77600000D01*
X125025000Y-79650000D01*
X125424625Y-79650000D01*
X125497543Y-79635495D01*
X125580239Y-79580239D01*
X125646596Y-79480929D01*
X125691245Y-79440461D01*
X125749699Y-79425819D01*
X125808153Y-79440461D01*
X125852802Y-79480929D01*
X125864033Y-79497738D01*
X125864034Y-79497740D01*
X125919399Y-79580601D01*
X126002260Y-79635966D01*
X126038793Y-79643233D01*
X126075325Y-79650500D01*
X126075326Y-79650500D01*
X126125500Y-79650500D01*
X126187500Y-79667113D01*
X126232887Y-79712500D01*
X126249500Y-79774500D01*
X126249500Y-80953456D01*
X126240061Y-81000909D01*
X126213180Y-81041138D01*
X126162115Y-81092202D01*
X126111487Y-81122855D01*
X126052418Y-81126550D01*
X125998365Y-81102445D01*
X125961641Y-81056032D01*
X125925376Y-80976625D01*
X125831129Y-80867858D01*
X125831128Y-80867857D01*
X125710053Y-80790047D01*
X125571961Y-80749500D01*
X125428039Y-80749500D01*
X125289947Y-80790047D01*
X125168870Y-80867858D01*
X125074623Y-80976625D01*
X125014834Y-81107542D01*
X124998552Y-81220787D01*
X124986698Y-81258643D01*
X124963496Y-81290819D01*
X124891137Y-81363180D01*
X124850909Y-81390061D01*
X124803455Y-81399500D01*
X124165176Y-81399500D01*
X124113660Y-81388293D01*
X124097137Y-81375923D01*
X124096127Y-81377496D01*
X124050003Y-81347854D01*
X123960053Y-81290047D01*
X123821961Y-81249500D01*
X123678039Y-81249500D01*
X123539947Y-81290047D01*
X123403873Y-81377496D01*
X123402136Y-81374793D01*
X123381508Y-81389377D01*
X123322872Y-81397259D01*
X123267258Y-81377075D01*
X123247740Y-81364034D01*
X123174675Y-81349500D01*
X123174674Y-81349500D01*
X120825326Y-81349500D01*
X120825325Y-81349500D01*
X120752261Y-81364033D01*
X120714331Y-81389377D01*
X120669399Y-81419399D01*
X120614034Y-81502260D01*
X120609835Y-81523373D01*
X120600621Y-81569692D01*
X120577380Y-81620987D01*
X120533848Y-81656712D01*
X120479004Y-81669500D01*
X119974500Y-81669500D01*
X119912500Y-81652887D01*
X119867113Y-81607500D01*
X119850500Y-81545500D01*
X119850500Y-80147448D01*
X119861730Y-80095884D01*
X119893385Y-80053659D01*
X119939732Y-80028422D01*
X119992377Y-80024743D01*
X120028461Y-80030000D01*
X120125000Y-80030000D01*
X120125000Y-79509000D01*
X120141613Y-79447000D01*
X120187000Y-79401613D01*
X120249000Y-79385000D01*
X120251000Y-79385000D01*
X120313000Y-79401613D01*
X120358387Y-79447000D01*
X120375000Y-79509000D01*
X120375000Y-80029999D01*
X120471538Y-80029999D01*
X120546373Y-80019096D01*
X120662639Y-79962258D01*
X120720516Y-79949706D01*
X120777613Y-79965428D01*
X120820907Y-80005837D01*
X120882101Y-80099500D01*
X120891021Y-80113153D01*
X121048216Y-80283913D01*
X121231374Y-80426470D01*
X121435497Y-80536936D01*
X121539415Y-80572611D01*
X121655015Y-80612297D01*
X121655017Y-80612297D01*
X121655019Y-80612298D01*
X121883951Y-80650500D01*
X122116048Y-80650500D01*
X122116049Y-80650500D01*
X122344981Y-80612298D01*
X122473987Y-80568009D01*
X122542197Y-80564482D01*
X122601929Y-80597610D01*
X122667359Y-80663040D01*
X122683487Y-80682900D01*
X122688563Y-80690670D01*
X122711473Y-80708501D01*
X122722488Y-80718228D01*
X122738349Y-80729553D01*
X122742456Y-80732616D01*
X122786771Y-80767108D01*
X122840593Y-80783131D01*
X122845437Y-80784682D01*
X122891512Y-80800500D01*
X122891514Y-80800500D01*
X122898578Y-80802925D01*
X122906043Y-80802616D01*
X122906046Y-80802617D01*
X122954668Y-80800605D01*
X122959792Y-80800500D01*
X123735779Y-80800500D01*
X123783232Y-80809939D01*
X123823461Y-80836819D01*
X123837987Y-80851345D01*
X123837988Y-80851347D01*
X123911266Y-80924625D01*
X123923655Y-80937014D01*
X124032487Y-80990219D01*
X124032489Y-80990219D01*
X124032491Y-80990220D01*
X124103051Y-81000500D01*
X124396948Y-81000499D01*
X124467509Y-80990220D01*
X124576347Y-80937012D01*
X124662012Y-80851347D01*
X124662013Y-80851346D01*
X124715219Y-80742512D01*
X124715219Y-80742510D01*
X124715220Y-80742509D01*
X124725500Y-80671949D01*
X124725499Y-80228052D01*
X124715220Y-80157491D01*
X124662012Y-80048653D01*
X124662011Y-80048652D01*
X124662011Y-80048651D01*
X124576346Y-79962986D01*
X124467512Y-79909780D01*
X124437269Y-79905374D01*
X124396949Y-79899500D01*
X124396945Y-79899500D01*
X124103053Y-79899500D01*
X124032491Y-79909780D01*
X123923653Y-79962987D01*
X123887182Y-79999459D01*
X123837988Y-80048653D01*
X123837987Y-80048654D01*
X123823461Y-80063181D01*
X123783232Y-80090061D01*
X123735779Y-80099500D01*
X123346479Y-80099500D01*
X123287461Y-80084555D01*
X123242670Y-80043321D01*
X123222903Y-79985740D01*
X123232923Y-79925690D01*
X123246913Y-79893796D01*
X123329157Y-79706300D01*
X123386134Y-79481305D01*
X123405300Y-79250000D01*
X123386134Y-79018695D01*
X123329157Y-78793700D01*
X123309988Y-78750000D01*
X124150000Y-78750000D01*
X124150000Y-79424625D01*
X124164504Y-79497543D01*
X124219760Y-79580239D01*
X124302456Y-79635495D01*
X124375375Y-79650000D01*
X124775000Y-79650000D01*
X124775000Y-78750000D01*
X124150000Y-78750000D01*
X123309988Y-78750000D01*
X123235924Y-78581151D01*
X123182905Y-78500000D01*
X124150000Y-78500000D01*
X124775000Y-78500000D01*
X124775000Y-77600000D01*
X124375375Y-77600000D01*
X124302456Y-77614504D01*
X124219760Y-77669760D01*
X124164504Y-77752456D01*
X124150000Y-77825375D01*
X124150000Y-78500000D01*
X123182905Y-78500000D01*
X123108979Y-78386847D01*
X122951784Y-78216087D01*
X122768626Y-78073530D01*
X122564503Y-77963064D01*
X122564499Y-77963062D01*
X122564498Y-77963062D01*
X122344984Y-77887702D01*
X122149500Y-77855082D01*
X122116049Y-77849500D01*
X122003754Y-77849500D01*
X121947459Y-77835985D01*
X121903436Y-77798385D01*
X121881281Y-77744897D01*
X121885823Y-77687181D01*
X121916071Y-77637820D01*
X121978050Y-77575842D01*
X122035646Y-77462804D01*
X122050500Y-77369019D01*
X122050499Y-76130982D01*
X122035646Y-76037196D01*
X122028861Y-76023880D01*
X122015728Y-75957859D01*
X122039027Y-75894702D01*
X122091893Y-75853026D01*
X122158744Y-75845114D01*
X122268517Y-75862500D01*
X122325000Y-75862500D01*
X122325000Y-75000000D01*
X122575000Y-75000000D01*
X122575000Y-75862499D01*
X122631478Y-75862499D01*
X122725149Y-75847663D01*
X122838045Y-75790141D01*
X122927640Y-75700546D01*
X122985165Y-75587646D01*
X123000000Y-75493984D01*
X123000000Y-75000000D01*
X122575000Y-75000000D01*
X122325000Y-75000000D01*
X121900001Y-75000000D01*
X121900001Y-75493978D01*
X121914835Y-75587649D01*
X121921468Y-75600666D01*
X121934600Y-75666690D01*
X121911300Y-75729845D01*
X121858434Y-75771520D01*
X121791584Y-75779432D01*
X121681521Y-75762000D01*
X121318484Y-75762000D01*
X121209023Y-75779336D01*
X121142172Y-75771422D01*
X121089308Y-75729746D01*
X121066009Y-75666589D01*
X121079142Y-75600567D01*
X121085646Y-75587804D01*
X121100500Y-75494019D01*
X121100499Y-74750000D01*
X121900000Y-74750000D01*
X122325000Y-74750000D01*
X122325000Y-73887501D01*
X122268522Y-73887501D01*
X122174850Y-73902336D01*
X122061954Y-73959858D01*
X121972359Y-74049453D01*
X121914834Y-74162353D01*
X121900000Y-74256016D01*
X121900000Y-74750000D01*
X121100499Y-74750000D01*
X121100499Y-74255982D01*
X121085646Y-74162196D01*
X121028201Y-74049454D01*
X121028050Y-74049157D01*
X120938343Y-73959450D01*
X120825302Y-73901853D01*
X120734678Y-73887500D01*
X122575000Y-73887500D01*
X122575000Y-74750000D01*
X122999999Y-74750000D01*
X122999999Y-74256022D01*
X122985163Y-74162350D01*
X122927641Y-74049454D01*
X122838046Y-73959859D01*
X122725146Y-73902334D01*
X122631484Y-73887500D01*
X122575000Y-73887500D01*
X120734678Y-73887500D01*
X120731521Y-73887000D01*
X120408041Y-73887000D01*
X120351746Y-73873485D01*
X120307723Y-73835885D01*
X120285568Y-73782398D01*
X120290110Y-73724682D01*
X120320357Y-73675323D01*
X120495679Y-73500000D01*
X124150000Y-73500000D01*
X124150000Y-74174625D01*
X124164504Y-74247543D01*
X124219760Y-74330239D01*
X124302456Y-74385495D01*
X124375375Y-74400000D01*
X124775000Y-74400000D01*
X124775000Y-73500000D01*
X124150000Y-73500000D01*
X120495679Y-73500000D01*
X120513039Y-73482640D01*
X120532902Y-73466511D01*
X120540669Y-73461437D01*
X120558500Y-73438526D01*
X120568227Y-73427513D01*
X120579550Y-73411653D01*
X120582604Y-73407555D01*
X120612517Y-73369126D01*
X120612517Y-73369123D01*
X120617108Y-73363226D01*
X120633127Y-73309419D01*
X120634679Y-73304569D01*
X120650500Y-73258488D01*
X120650500Y-73258484D01*
X120652925Y-73251420D01*
X120652866Y-73250000D01*
X124150000Y-73250000D01*
X124775000Y-73250000D01*
X124775000Y-72350000D01*
X124375375Y-72350000D01*
X124302456Y-72364504D01*
X124219760Y-72419760D01*
X124164504Y-72502456D01*
X124150000Y-72575375D01*
X124150000Y-73250000D01*
X120652866Y-73250000D01*
X120652616Y-73243955D01*
X120652617Y-73243954D01*
X120650606Y-73195321D01*
X120650500Y-73190198D01*
X120650500Y-70879354D01*
X120660308Y-70831020D01*
X120688180Y-70790333D01*
X120729703Y-70763728D01*
X120792637Y-70739348D01*
X120966041Y-70631981D01*
X121071611Y-70535741D01*
X121116763Y-70494580D01*
X121130320Y-70476628D01*
X121239673Y-70331821D01*
X121239673Y-70331819D01*
X121239675Y-70331818D01*
X121289727Y-70231299D01*
X121330582Y-70149250D01*
X121386397Y-69953083D01*
X121405215Y-69750000D01*
X121405215Y-69749999D01*
X121734785Y-69749999D01*
X121753602Y-69953083D01*
X121809418Y-70149251D01*
X121900324Y-70331818D01*
X122023236Y-70494580D01*
X122173958Y-70631981D01*
X122347361Y-70739347D01*
X122347363Y-70739348D01*
X122537544Y-70813024D01*
X122738024Y-70850500D01*
X122738026Y-70850500D01*
X122915984Y-70850500D01*
X122983023Y-70870184D01*
X123028778Y-70922988D01*
X123074623Y-71023374D01*
X123168870Y-71132141D01*
X123168872Y-71132143D01*
X123289947Y-71209953D01*
X123428039Y-71250500D01*
X123571961Y-71250500D01*
X123710053Y-71209953D01*
X123831128Y-71132143D01*
X123925377Y-71023373D01*
X123985165Y-70892457D01*
X124002262Y-70773542D01*
X124011686Y-70749999D01*
X124238313Y-70749999D01*
X124247738Y-70773543D01*
X124264834Y-70892457D01*
X124324623Y-71023374D01*
X124418870Y-71132141D01*
X124418872Y-71132143D01*
X124539947Y-71209953D01*
X124678039Y-71250500D01*
X124821961Y-71250500D01*
X124960053Y-71209953D01*
X125081128Y-71132143D01*
X125175377Y-71023373D01*
X125221221Y-70922988D01*
X125266977Y-70870184D01*
X125334016Y-70850500D01*
X125481974Y-70850500D01*
X125481976Y-70850500D01*
X125682456Y-70813024D01*
X125872637Y-70739348D01*
X126046041Y-70631981D01*
X126151611Y-70535741D01*
X126196763Y-70494580D01*
X126210320Y-70476628D01*
X126319673Y-70331821D01*
X126319673Y-70331819D01*
X126319675Y-70331818D01*
X126369727Y-70231299D01*
X126410582Y-70149250D01*
X126466397Y-69953083D01*
X126473632Y-69875000D01*
X126820000Y-69875000D01*
X126820000Y-70624625D01*
X126834504Y-70697543D01*
X126889760Y-70780239D01*
X126972456Y-70835495D01*
X127045375Y-70850000D01*
X127795000Y-70850000D01*
X127795000Y-69875000D01*
X126820000Y-69875000D01*
X126473632Y-69875000D01*
X126485215Y-69750000D01*
X126473632Y-69625000D01*
X126820000Y-69625000D01*
X127795000Y-69625000D01*
X127795000Y-68650000D01*
X127045375Y-68650000D01*
X126972456Y-68664504D01*
X126889760Y-68719760D01*
X126834504Y-68802456D01*
X126820000Y-68875375D01*
X126820000Y-69625000D01*
X126473632Y-69625000D01*
X126466397Y-69546917D01*
X126453168Y-69500424D01*
X126410581Y-69350748D01*
X126319675Y-69168181D01*
X126196763Y-69005419D01*
X126046041Y-68868018D01*
X125872638Y-68760652D01*
X125682457Y-68686976D01*
X125590358Y-68669760D01*
X125481976Y-68649500D01*
X125278024Y-68649500D01*
X125177783Y-68668238D01*
X125077542Y-68686976D01*
X124887361Y-68760652D01*
X124713958Y-68868018D01*
X124563236Y-69005419D01*
X124440324Y-69168181D01*
X124349418Y-69350748D01*
X124293602Y-69546916D01*
X124274785Y-69749999D01*
X124293602Y-69953083D01*
X124349418Y-70149251D01*
X124407045Y-70264983D01*
X124419741Y-70311581D01*
X124413672Y-70359495D01*
X124389758Y-70401456D01*
X124324623Y-70476625D01*
X124264834Y-70607542D01*
X124247738Y-70726457D01*
X124238313Y-70749999D01*
X124011686Y-70749999D01*
X124002262Y-70726457D01*
X123985165Y-70607542D01*
X123936508Y-70501000D01*
X123925377Y-70476627D01*
X123841187Y-70379466D01*
X123817275Y-70337507D01*
X123811206Y-70289592D01*
X123823899Y-70243001D01*
X123870582Y-70149250D01*
X123926397Y-69953083D01*
X123945215Y-69750000D01*
X123926397Y-69546917D01*
X123913168Y-69500424D01*
X123870581Y-69350748D01*
X123779675Y-69168181D01*
X123656763Y-69005419D01*
X123506041Y-68868018D01*
X123332638Y-68760652D01*
X123142457Y-68686976D01*
X123050358Y-68669760D01*
X122941976Y-68649500D01*
X122738024Y-68649500D01*
X122637783Y-68668238D01*
X122537542Y-68686976D01*
X122347361Y-68760652D01*
X122173958Y-68868018D01*
X122023236Y-69005419D01*
X121900324Y-69168181D01*
X121809418Y-69350748D01*
X121753602Y-69546916D01*
X121734785Y-69749999D01*
X121405215Y-69749999D01*
X121386397Y-69546917D01*
X121373168Y-69500424D01*
X121330581Y-69350748D01*
X121239675Y-69168181D01*
X121116763Y-69005419D01*
X120966041Y-68868018D01*
X120792638Y-68760652D01*
X120602457Y-68686976D01*
X120510358Y-68669760D01*
X120401976Y-68649500D01*
X120198024Y-68649500D01*
X120198022Y-68649500D01*
X120165081Y-68655657D01*
X120102891Y-68651339D01*
X120050661Y-68617305D01*
X120021592Y-68562157D01*
X120023033Y-68499833D01*
X120054615Y-68446090D01*
X120463887Y-68036819D01*
X120504116Y-68009939D01*
X120551569Y-68000500D01*
X128244587Y-68000500D01*
X128255392Y-68000972D01*
G37*
%TD.AperFunction*%
%TA.AperFunction,Conductor*%
G36*
X112537964Y-92942091D02*
G01*
X112583377Y-92987481D01*
X112600000Y-93049499D01*
X112600000Y-93424999D01*
X112681931Y-93424999D01*
X112745405Y-93442476D01*
X112790986Y-93489982D01*
X112817081Y-93538202D01*
X112819421Y-93542747D01*
X112840802Y-93586484D01*
X112840803Y-93586485D01*
X112844084Y-93593196D01*
X112849581Y-93598256D01*
X112849582Y-93598258D01*
X112883520Y-93629500D01*
X112885399Y-93631230D01*
X112889097Y-93634779D01*
X113149316Y-93894998D01*
X113172467Y-93927070D01*
X113184339Y-93964801D01*
X113190417Y-94006518D01*
X113246922Y-94122101D01*
X113272154Y-94147333D01*
X113299591Y-94188928D01*
X113308438Y-94237965D01*
X113297267Y-94286526D01*
X113264834Y-94357542D01*
X113244353Y-94500000D01*
X113264834Y-94642457D01*
X113268045Y-94649486D01*
X113278936Y-94709844D01*
X113259568Y-94768038D01*
X113214679Y-94809832D01*
X113155252Y-94825000D01*
X113100376Y-94825000D01*
X113049188Y-94835181D01*
X113000809Y-94835181D01*
X112949623Y-94825000D01*
X112925000Y-94825000D01*
X112925000Y-95125000D01*
X113200500Y-95125000D01*
X113262500Y-95141613D01*
X113307887Y-95187000D01*
X113324500Y-95249000D01*
X113324500Y-95251000D01*
X113307887Y-95313000D01*
X113262500Y-95358387D01*
X113200500Y-95375000D01*
X112925000Y-95375000D01*
X112925000Y-95675000D01*
X112952093Y-95702093D01*
X112973071Y-95717797D01*
X112998335Y-95764065D01*
X113002095Y-95816644D01*
X112999293Y-95836138D01*
X112994353Y-95870498D01*
X113002671Y-95928354D01*
X112992727Y-95997512D01*
X112946972Y-96050316D01*
X112943732Y-96051267D01*
X112925000Y-96070000D01*
X112925000Y-96495000D01*
X114601000Y-96495000D01*
X114663000Y-96511613D01*
X114708387Y-96557000D01*
X114725000Y-96619000D01*
X114725000Y-99195000D01*
X115149998Y-99195000D01*
X115179806Y-99165192D01*
X115228437Y-99135183D01*
X115285361Y-99130168D01*
X115338489Y-99151213D01*
X115376539Y-99193848D01*
X115381032Y-99202149D01*
X115383376Y-99206702D01*
X115404757Y-99250439D01*
X115404758Y-99250440D01*
X115408039Y-99257151D01*
X115413536Y-99262211D01*
X115413537Y-99262213D01*
X115440676Y-99287196D01*
X115449354Y-99295185D01*
X115453052Y-99298734D01*
X115687361Y-99533043D01*
X115703489Y-99552903D01*
X115708563Y-99560669D01*
X115731473Y-99578500D01*
X115742496Y-99588235D01*
X115758355Y-99599558D01*
X115762464Y-99602622D01*
X115806771Y-99637107D01*
X115813932Y-99639239D01*
X115813934Y-99639240D01*
X115860614Y-99653137D01*
X115865455Y-99654688D01*
X115911512Y-99670500D01*
X115911514Y-99670500D01*
X115919358Y-99673193D01*
X115936251Y-99675655D01*
X115945878Y-99678521D01*
X115945490Y-99679823D01*
X115970166Y-99684783D01*
X116016039Y-99721716D01*
X116039699Y-99775647D01*
X116035809Y-99834411D01*
X116005246Y-99884753D01*
X115995000Y-99894999D01*
X115995000Y-99919623D01*
X116005181Y-99970809D01*
X116005180Y-100019191D01*
X116003565Y-100027310D01*
X115978151Y-100081354D01*
X115930421Y-100117251D01*
X115871447Y-100126673D01*
X115814909Y-100107434D01*
X115795561Y-100095000D01*
X115740450Y-100059582D01*
X115710052Y-100040046D01*
X115571961Y-99999500D01*
X115428039Y-99999500D01*
X115308933Y-100034472D01*
X115251983Y-100037525D01*
X115199690Y-100014762D01*
X115163116Y-99971000D01*
X115150000Y-99915495D01*
X115150000Y-99895375D01*
X115131638Y-99803067D01*
X115127962Y-99794192D01*
X115127962Y-99745808D01*
X115131638Y-99736932D01*
X115150000Y-99644625D01*
X115150000Y-99445000D01*
X114725000Y-99445000D01*
X114725000Y-101121000D01*
X114708387Y-101183000D01*
X114663000Y-101228387D01*
X114601000Y-101245000D01*
X113825000Y-101245000D01*
X113825000Y-101670000D01*
X114024625Y-101670000D01*
X114116932Y-101651638D01*
X114125808Y-101647962D01*
X114174192Y-101647962D01*
X114183067Y-101651638D01*
X114275375Y-101670000D01*
X114277360Y-101670000D01*
X114283613Y-101671638D01*
X114287355Y-101672383D01*
X114287310Y-101672607D01*
X114338173Y-101685936D01*
X114383354Y-101729648D01*
X114401292Y-101789901D01*
X114387375Y-101851207D01*
X114369864Y-101870546D01*
X114372038Y-101872238D01*
X114341500Y-101911471D01*
X114331765Y-101922496D01*
X114320441Y-101938357D01*
X114317392Y-101942445D01*
X114311124Y-101950500D01*
X114282394Y-101987411D01*
X114274585Y-102002584D01*
X114271901Y-102006343D01*
X114257823Y-102031936D01*
X114215684Y-102063358D01*
X114164313Y-102074500D01*
X114000326Y-102074500D01*
X113949189Y-102084671D01*
X113900811Y-102084671D01*
X113849674Y-102074500D01*
X113550326Y-102074500D01*
X113499189Y-102084671D01*
X113450811Y-102084671D01*
X113399674Y-102074500D01*
X113100326Y-102074500D01*
X113049189Y-102084671D01*
X113000811Y-102084671D01*
X112949674Y-102074500D01*
X112795092Y-102074500D01*
X112731619Y-102057023D01*
X112686038Y-102009518D01*
X112662928Y-101966815D01*
X112660581Y-101962256D01*
X112635917Y-101911804D01*
X112607050Y-101885230D01*
X112574433Y-101836197D01*
X112568115Y-101777646D01*
X112589522Y-101722783D01*
X112633826Y-101683984D01*
X112669813Y-101675186D01*
X112675000Y-101670000D01*
X112675000Y-101245000D01*
X112925000Y-101245000D01*
X112925000Y-101670000D01*
X113124625Y-101670000D01*
X113216932Y-101651638D01*
X113225808Y-101647962D01*
X113274192Y-101647962D01*
X113283067Y-101651638D01*
X113375375Y-101670000D01*
X113575000Y-101670000D01*
X113575000Y-101245000D01*
X112925000Y-101245000D01*
X112675000Y-101245000D01*
X112675000Y-100345000D01*
X112925000Y-100345000D01*
X112925000Y-100995000D01*
X113575000Y-100995000D01*
X113575000Y-100345000D01*
X113825000Y-100345000D01*
X113825000Y-100995000D01*
X114475000Y-100995000D01*
X114475000Y-100345000D01*
X113825000Y-100345000D01*
X113575000Y-100345000D01*
X112925000Y-100345000D01*
X112675000Y-100345000D01*
X112675000Y-99445000D01*
X112925000Y-99445000D01*
X112925000Y-100095000D01*
X113575000Y-100095000D01*
X113575000Y-99445000D01*
X113825000Y-99445000D01*
X113825000Y-100095000D01*
X114475000Y-100095000D01*
X114475000Y-99445000D01*
X113825000Y-99445000D01*
X113575000Y-99445000D01*
X112925000Y-99445000D01*
X112675000Y-99445000D01*
X111350000Y-99445000D01*
X111350000Y-99644625D01*
X111368466Y-99737461D01*
X111371737Y-99745357D01*
X111371739Y-99793735D01*
X111367829Y-99803174D01*
X111349500Y-99895324D01*
X111349500Y-100228570D01*
X111341161Y-100261027D01*
X111349500Y-100294437D01*
X111349500Y-100544675D01*
X111367935Y-100637354D01*
X111371438Y-100645810D01*
X111371438Y-100694190D01*
X111367935Y-100702645D01*
X111349500Y-100795325D01*
X111349500Y-101444675D01*
X111364033Y-101517738D01*
X111364033Y-101517739D01*
X111364034Y-101517740D01*
X111375444Y-101534817D01*
X111429788Y-101616149D01*
X111450285Y-101675090D01*
X111439480Y-101736550D01*
X111418247Y-101783042D01*
X111397766Y-101925499D01*
X111399229Y-101935675D01*
X111392413Y-101997346D01*
X111356572Y-102047994D01*
X111300682Y-102074938D01*
X111249191Y-102085180D01*
X111200810Y-102085181D01*
X111149623Y-102075000D01*
X111125000Y-102075000D01*
X111125000Y-102375000D01*
X111640687Y-102375000D01*
X111675635Y-102380027D01*
X111676986Y-102380644D01*
X111681681Y-102382023D01*
X111685805Y-102384673D01*
X111707749Y-102394699D01*
X111708382Y-102395106D01*
X111706527Y-102397990D01*
X111740459Y-102419798D01*
X111769483Y-102483354D01*
X111759539Y-102552512D01*
X111713784Y-102605316D01*
X111646745Y-102625000D01*
X111575000Y-102625000D01*
X111575000Y-102925000D01*
X111599623Y-102925000D01*
X111650807Y-102914818D01*
X111699193Y-102914818D01*
X111750377Y-102925000D01*
X111775000Y-102925000D01*
X111775000Y-102861189D01*
X111790810Y-102800601D01*
X111834209Y-102755462D01*
X111894129Y-102737285D01*
X111955292Y-102750703D01*
X112002100Y-102792295D01*
X112003208Y-102793954D01*
X112004100Y-102795288D01*
X112019660Y-102828185D01*
X112025000Y-102864182D01*
X112025000Y-102925000D01*
X112049622Y-102925000D01*
X112099523Y-102915073D01*
X112147907Y-102915073D01*
X112176754Y-102920811D01*
X112227314Y-102943495D01*
X112262945Y-102985937D01*
X112276529Y-103039662D01*
X112265355Y-103093939D01*
X112255577Y-103115348D01*
X112235096Y-103257805D01*
X112249552Y-103358354D01*
X112239608Y-103427512D01*
X112193853Y-103480316D01*
X112126814Y-103500000D01*
X108051362Y-103500000D01*
X108003909Y-103490561D01*
X107963681Y-103463681D01*
X107090521Y-102590521D01*
X107058427Y-102534934D01*
X107058427Y-102470746D01*
X107090518Y-102415163D01*
X107446705Y-102058975D01*
X107478775Y-102035827D01*
X107516502Y-102023955D01*
X107546518Y-102019582D01*
X107546519Y-102019581D01*
X107546521Y-102019581D01*
X107662101Y-101963077D01*
X107688358Y-101936820D01*
X107728587Y-101909939D01*
X107776040Y-101900500D01*
X108223960Y-101900500D01*
X108271413Y-101909939D01*
X108311642Y-101936820D01*
X108337898Y-101963077D01*
X108453481Y-102019582D01*
X108528415Y-102030500D01*
X108528418Y-102030500D01*
X108971582Y-102030500D01*
X108971585Y-102030500D01*
X109046518Y-102019582D01*
X109162099Y-101963078D01*
X109162100Y-101963076D01*
X109162102Y-101963076D01*
X109253076Y-101872102D01*
X109253077Y-101872098D01*
X109256485Y-101868691D01*
X109272617Y-101845599D01*
X109278186Y-101841358D01*
X109288255Y-101830419D01*
X109288258Y-101830418D01*
X109321254Y-101794573D01*
X109324757Y-101790923D01*
X109439234Y-101676446D01*
X109496784Y-101643845D01*
X109562909Y-101645469D01*
X109618792Y-101680857D01*
X109648531Y-101739940D01*
X109654671Y-101770811D01*
X109654671Y-101819189D01*
X109644500Y-101870326D01*
X109644500Y-102169675D01*
X109661777Y-102256529D01*
X109669737Y-102275747D01*
X109669738Y-102324126D01*
X109669500Y-102325323D01*
X109669500Y-102674675D01*
X109684033Y-102747738D01*
X109684033Y-102747739D01*
X109684034Y-102747740D01*
X109739399Y-102830601D01*
X109822260Y-102885966D01*
X109842847Y-102890061D01*
X109895325Y-102900500D01*
X109895326Y-102900500D01*
X110244668Y-102900500D01*
X110244674Y-102900500D01*
X110246559Y-102900124D01*
X110294942Y-102900123D01*
X110313076Y-102907634D01*
X110400375Y-102925000D01*
X110425000Y-102925000D01*
X110425000Y-102831699D01*
X110430340Y-102795702D01*
X110445900Y-102762805D01*
X110447900Y-102759812D01*
X110494708Y-102718220D01*
X110555871Y-102704802D01*
X110615791Y-102722979D01*
X110659190Y-102768118D01*
X110675000Y-102828706D01*
X110675000Y-102925000D01*
X110699623Y-102925000D01*
X110750807Y-102914818D01*
X110799193Y-102914818D01*
X110850377Y-102925000D01*
X110875000Y-102925000D01*
X110875000Y-102625000D01*
X111125000Y-102625000D01*
X111125000Y-102925000D01*
X111149623Y-102925000D01*
X111200807Y-102914818D01*
X111249193Y-102914818D01*
X111300377Y-102925000D01*
X111325000Y-102925000D01*
X111325000Y-102625000D01*
X111125000Y-102625000D01*
X110875000Y-102625000D01*
X110670463Y-102625000D01*
X110632818Y-102648069D01*
X110575102Y-102652611D01*
X110521615Y-102630456D01*
X110484015Y-102586433D01*
X110470500Y-102530138D01*
X110470500Y-102469862D01*
X110484015Y-102413567D01*
X110521615Y-102369544D01*
X110575102Y-102347389D01*
X110632818Y-102351931D01*
X110670463Y-102375000D01*
X110875000Y-102375000D01*
X110875000Y-102075000D01*
X110850377Y-102075000D01*
X110799190Y-102085181D01*
X110750810Y-102085181D01*
X110699623Y-102075000D01*
X110633280Y-102075000D01*
X110600102Y-102077611D01*
X110546615Y-102055456D01*
X110509015Y-102011433D01*
X110495500Y-101955138D01*
X110495500Y-101870327D01*
X110493311Y-101859322D01*
X110485328Y-101819189D01*
X110485328Y-101770811D01*
X110495500Y-101719674D01*
X110495500Y-101420326D01*
X110485328Y-101369189D01*
X110485328Y-101320811D01*
X110495500Y-101269674D01*
X110495500Y-100970326D01*
X110485073Y-100917907D01*
X110485073Y-100869523D01*
X110495000Y-100819622D01*
X110495000Y-100795000D01*
X110482181Y-100782181D01*
X110451931Y-100732818D01*
X110447389Y-100675102D01*
X110469544Y-100621615D01*
X110513567Y-100584015D01*
X110569862Y-100570500D01*
X110580102Y-100570500D01*
X110615474Y-100575652D01*
X110621745Y-100577519D01*
X110636168Y-100582805D01*
X110662768Y-100594473D01*
X110665028Y-100594660D01*
X110672016Y-100595240D01*
X110697156Y-100599971D01*
X110706043Y-100602616D01*
X110706046Y-100602617D01*
X110735052Y-100601417D01*
X110750416Y-100601735D01*
X110779344Y-100604132D01*
X110788337Y-100601854D01*
X110813658Y-100598165D01*
X110822922Y-100597783D01*
X110849970Y-100587227D01*
X110864600Y-100582541D01*
X110892741Y-100575416D01*
X110899292Y-100571136D01*
X110900506Y-100570343D01*
X110923257Y-100558632D01*
X110931897Y-100555261D01*
X110954056Y-100536492D01*
X110966356Y-100527320D01*
X110990669Y-100511437D01*
X110996370Y-100504111D01*
X111014079Y-100485655D01*
X111021158Y-100479660D01*
X111036012Y-100454728D01*
X111044683Y-100442038D01*
X111048604Y-100437000D01*
X111062517Y-100419126D01*
X111065529Y-100410352D01*
X111076288Y-100387137D01*
X111081037Y-100379170D01*
X111086993Y-100350756D01*
X111091071Y-100335948D01*
X111100500Y-100308488D01*
X111100500Y-100299207D01*
X111103138Y-100273764D01*
X111104138Y-100268992D01*
X111108661Y-100259659D01*
X111102452Y-100243907D01*
X111101452Y-100235884D01*
X111100500Y-100220547D01*
X111100500Y-98545000D01*
X111350000Y-98545000D01*
X111350000Y-98744625D01*
X111368361Y-98836933D01*
X111372039Y-98845812D01*
X111372039Y-98894188D01*
X111368361Y-98903066D01*
X111350000Y-98995375D01*
X111350000Y-99195000D01*
X111775000Y-99195000D01*
X111775000Y-98545000D01*
X112025000Y-98545000D01*
X112025000Y-99195000D01*
X112675000Y-99195000D01*
X112675000Y-98545000D01*
X112925000Y-98545000D01*
X112925000Y-99195000D01*
X113575000Y-99195000D01*
X113575000Y-98545000D01*
X113825000Y-98545000D01*
X113825000Y-99195000D01*
X114475000Y-99195000D01*
X114475000Y-98545000D01*
X113825000Y-98545000D01*
X113575000Y-98545000D01*
X112925000Y-98545000D01*
X112675000Y-98545000D01*
X112025000Y-98545000D01*
X111775000Y-98545000D01*
X111350000Y-98545000D01*
X111100500Y-98545000D01*
X111100500Y-97645000D01*
X111350000Y-97645000D01*
X111350000Y-97844625D01*
X111368361Y-97936933D01*
X111372039Y-97945812D01*
X111372039Y-97994188D01*
X111368361Y-98003066D01*
X111350000Y-98095375D01*
X111350000Y-98295000D01*
X111775000Y-98295000D01*
X111775000Y-97645000D01*
X112025000Y-97645000D01*
X112025000Y-98295000D01*
X112675000Y-98295000D01*
X112675000Y-97645000D01*
X112925000Y-97645000D01*
X112925000Y-98295000D01*
X113575000Y-98295000D01*
X113575000Y-97645000D01*
X113825000Y-97645000D01*
X113825000Y-98295000D01*
X114475000Y-98295000D01*
X114475000Y-97645000D01*
X113825000Y-97645000D01*
X113575000Y-97645000D01*
X112925000Y-97645000D01*
X112675000Y-97645000D01*
X112025000Y-97645000D01*
X111775000Y-97645000D01*
X111350000Y-97645000D01*
X111100500Y-97645000D01*
X111100500Y-96745000D01*
X111350000Y-96745000D01*
X111350000Y-96944625D01*
X111368361Y-97036933D01*
X111372039Y-97045812D01*
X111372039Y-97094188D01*
X111368361Y-97103066D01*
X111350000Y-97195375D01*
X111350000Y-97395000D01*
X111775000Y-97395000D01*
X111775000Y-96745000D01*
X112025000Y-96745000D01*
X112025000Y-97395000D01*
X112675000Y-97395000D01*
X112675000Y-96745000D01*
X112925000Y-96745000D01*
X112925000Y-97395000D01*
X113575000Y-97395000D01*
X113575000Y-96745000D01*
X113825000Y-96745000D01*
X113825000Y-97395000D01*
X114475000Y-97395000D01*
X114475000Y-96745000D01*
X113825000Y-96745000D01*
X113575000Y-96745000D01*
X112925000Y-96745000D01*
X112675000Y-96745000D01*
X112025000Y-96745000D01*
X111775000Y-96745000D01*
X111350000Y-96745000D01*
X111100500Y-96745000D01*
X111100500Y-96549207D01*
X111103139Y-96523761D01*
X111104639Y-96516607D01*
X111130827Y-96462566D01*
X111179337Y-96427168D01*
X111238791Y-96418715D01*
X111295245Y-96439189D01*
X111313228Y-96459133D01*
X111313681Y-96458681D01*
X111350000Y-96495000D01*
X112675000Y-96495000D01*
X112675000Y-96070000D01*
X112475375Y-96070000D01*
X112383066Y-96088361D01*
X112374188Y-96092039D01*
X112325812Y-96092039D01*
X112316933Y-96088361D01*
X112224625Y-96070000D01*
X112089392Y-96070000D01*
X112037880Y-96058794D01*
X111995679Y-96027203D01*
X111970415Y-95980935D01*
X111966654Y-95928353D01*
X111967120Y-95925113D01*
X111974397Y-95874502D01*
X111965399Y-95811921D01*
X111972215Y-95750255D01*
X112008054Y-95699607D01*
X112063940Y-95672662D01*
X112102093Y-95665073D01*
X112150473Y-95665073D01*
X112200377Y-95675000D01*
X112225000Y-95675000D01*
X112225000Y-95614182D01*
X112230340Y-95578185D01*
X112245900Y-95545288D01*
X112247900Y-95542295D01*
X112294708Y-95500703D01*
X112355871Y-95487285D01*
X112415791Y-95505462D01*
X112459190Y-95550601D01*
X112475000Y-95611189D01*
X112475000Y-95675000D01*
X112499623Y-95675000D01*
X112550807Y-95664818D01*
X112599193Y-95664818D01*
X112650377Y-95675000D01*
X112675000Y-95675000D01*
X112675000Y-95375000D01*
X112467304Y-95375000D01*
X112437818Y-95393069D01*
X112380102Y-95397611D01*
X112326615Y-95375456D01*
X112289015Y-95331433D01*
X112275500Y-95275138D01*
X112275500Y-95224862D01*
X112289015Y-95168567D01*
X112326615Y-95124544D01*
X112380102Y-95102389D01*
X112437818Y-95106931D01*
X112467304Y-95125000D01*
X112675000Y-95125000D01*
X112675000Y-94825000D01*
X112650376Y-94825000D01*
X112599188Y-94835181D01*
X112550809Y-94835181D01*
X112499623Y-94825000D01*
X112475000Y-94825000D01*
X112462181Y-94837819D01*
X112412818Y-94868069D01*
X112355102Y-94872611D01*
X112301615Y-94850456D01*
X112264015Y-94806433D01*
X112250500Y-94750138D01*
X112250500Y-94699212D01*
X112253139Y-94673766D01*
X112253364Y-94672687D01*
X112255043Y-94664685D01*
X112251452Y-94635877D01*
X112250541Y-94621206D01*
X112247332Y-94601976D01*
X112246595Y-94596922D01*
X112246384Y-94595224D01*
X112246694Y-94562258D01*
X112255647Y-94500000D01*
X112235165Y-94357543D01*
X112232812Y-94352391D01*
X112175376Y-94226625D01*
X112081127Y-94117855D01*
X111963844Y-94042482D01*
X111925388Y-94003334D01*
X111907593Y-93951422D01*
X111913946Y-93896914D01*
X111943200Y-93850489D01*
X111963047Y-93830641D01*
X111982900Y-93814519D01*
X111990669Y-93809445D01*
X112008496Y-93786539D01*
X112018228Y-93775519D01*
X112018370Y-93775319D01*
X112018376Y-93775314D01*
X112029586Y-93759611D01*
X112032600Y-93755569D01*
X112062517Y-93717134D01*
X112062517Y-93717132D01*
X112067108Y-93711235D01*
X112069674Y-93702615D01*
X112079487Y-93669653D01*
X112110653Y-93617350D01*
X112112373Y-93615629D01*
X112118644Y-93609359D01*
X112169019Y-93501330D01*
X112169019Y-93501329D01*
X112171227Y-93496595D01*
X112216984Y-93444419D01*
X112283609Y-93425000D01*
X112350000Y-93425000D01*
X112350000Y-93049500D01*
X112366603Y-92987518D01*
X112411964Y-92942134D01*
X112473938Y-92925500D01*
X112474937Y-92925499D01*
X112475939Y-92925499D01*
X112537964Y-92942091D01*
G37*
%TD.AperFunction*%
%TA.AperFunction,Conductor*%
G36*
X119450909Y-99859939D02*
G01*
X119491137Y-99886819D01*
X119513181Y-99908863D01*
X119540061Y-99949091D01*
X119549500Y-99996544D01*
X119549500Y-100619014D01*
X119549501Y-100619018D01*
X119564354Y-100712804D01*
X119564354Y-100712805D01*
X119564355Y-100712806D01*
X119621949Y-100825842D01*
X119711656Y-100915549D01*
X119711658Y-100915550D01*
X119819163Y-100970327D01*
X119831795Y-100976763D01*
X119881227Y-101022458D01*
X119899500Y-101087248D01*
X119899500Y-102553456D01*
X119890061Y-102600909D01*
X119863181Y-102641137D01*
X119641137Y-102863181D01*
X119600909Y-102890061D01*
X119553456Y-102899500D01*
X119373697Y-102899500D01*
X119321783Y-102888110D01*
X119279407Y-102856031D01*
X119254353Y-102809158D01*
X119251224Y-102756102D01*
X119260000Y-102700693D01*
X119260000Y-102625000D01*
X118729000Y-102625000D01*
X118667000Y-102608387D01*
X118621613Y-102563000D01*
X118605000Y-102501000D01*
X118605000Y-101625000D01*
X118855000Y-101625000D01*
X118855000Y-102375000D01*
X119259999Y-102375000D01*
X119259999Y-102299314D01*
X119245534Y-102207980D01*
X119189447Y-102097905D01*
X119179223Y-102087681D01*
X119147129Y-102032094D01*
X119147129Y-101967906D01*
X119179223Y-101912319D01*
X119189448Y-101902093D01*
X119245535Y-101792018D01*
X119260000Y-101700693D01*
X119260000Y-101625000D01*
X118855000Y-101625000D01*
X118605000Y-101625000D01*
X118605000Y-100625000D01*
X118855000Y-100625000D01*
X118855000Y-101375000D01*
X119259999Y-101375000D01*
X119259999Y-101299314D01*
X119245534Y-101207980D01*
X119189447Y-101097905D01*
X119179223Y-101087681D01*
X119147129Y-101032094D01*
X119147129Y-100967906D01*
X119179223Y-100912319D01*
X119189448Y-100902093D01*
X119245535Y-100792018D01*
X119260000Y-100700693D01*
X119260000Y-100625000D01*
X118855000Y-100625000D01*
X118605000Y-100625000D01*
X118605000Y-100499000D01*
X118621613Y-100437000D01*
X118667000Y-100391613D01*
X118729000Y-100375000D01*
X119259999Y-100375000D01*
X119259999Y-100299314D01*
X119245534Y-100207980D01*
X119180532Y-100080408D01*
X119181768Y-100079778D01*
X119163947Y-100048912D01*
X119163947Y-99984724D01*
X119196041Y-99929137D01*
X119227707Y-99897471D01*
X119228673Y-99898437D01*
X119254937Y-99869310D01*
X119320596Y-99850500D01*
X119403456Y-99850500D01*
X119450909Y-99859939D01*
G37*
%TD.AperFunction*%
%TA.AperFunction,Conductor*%
G36*
X115523385Y-102374544D02*
G01*
X115560985Y-102418567D01*
X115574500Y-102474862D01*
X115574500Y-102525138D01*
X115560985Y-102581433D01*
X115523385Y-102625456D01*
X115469898Y-102647611D01*
X115412182Y-102643069D01*
X115382696Y-102625000D01*
X115167304Y-102625000D01*
X115137818Y-102643069D01*
X115080102Y-102647611D01*
X115026615Y-102625456D01*
X114989015Y-102581433D01*
X114975500Y-102525138D01*
X114975500Y-102499000D01*
X114992113Y-102437000D01*
X115037500Y-102391613D01*
X115099500Y-102375000D01*
X115382696Y-102375000D01*
X115412182Y-102356931D01*
X115469898Y-102352389D01*
X115523385Y-102374544D01*
G37*
%TD.AperFunction*%
%TA.AperFunction,Conductor*%
G36*
X105132318Y-89897113D02*
G01*
X105181681Y-89927363D01*
X105713496Y-90459177D01*
X105736699Y-90491354D01*
X105748553Y-90529211D01*
X105764834Y-90642457D01*
X105824623Y-90773374D01*
X105910860Y-90872897D01*
X105918872Y-90882143D01*
X106039947Y-90959953D01*
X106178039Y-91000500D01*
X106321961Y-91000500D01*
X106460053Y-90959953D01*
X106460053Y-90959952D01*
X106477159Y-90954930D01*
X106477471Y-90955994D01*
X106504234Y-90946374D01*
X106559512Y-90952317D01*
X106606637Y-90981816D01*
X106627896Y-91003075D01*
X106627897Y-91003075D01*
X106627898Y-91003076D01*
X106651469Y-91014599D01*
X106700817Y-91058176D01*
X106720904Y-91120871D01*
X106706068Y-91185012D01*
X106660490Y-91232519D01*
X106603132Y-91248316D01*
X106603158Y-91248475D01*
X106601741Y-91248699D01*
X106597019Y-91250000D01*
X106593527Y-91250000D01*
X106499850Y-91264836D01*
X106386954Y-91322358D01*
X106297359Y-91411953D01*
X106239834Y-91524853D01*
X106225000Y-91618516D01*
X106225000Y-91675000D01*
X107138500Y-91675000D01*
X107200500Y-91691613D01*
X107245887Y-91737000D01*
X107262500Y-91799000D01*
X107262500Y-92349999D01*
X107681478Y-92349999D01*
X107775148Y-92335164D01*
X107836423Y-92303943D01*
X107893160Y-92290429D01*
X107949798Y-92304347D01*
X107993809Y-92342619D01*
X108007274Y-92376309D01*
X108007428Y-92376239D01*
X108074622Y-92523372D01*
X108086431Y-92537000D01*
X108168872Y-92632143D01*
X108168873Y-92632143D01*
X108178028Y-92642709D01*
X108203539Y-92689828D01*
X108206788Y-92743310D01*
X108190000Y-92849307D01*
X108190000Y-92895000D01*
X108751000Y-92895000D01*
X108813000Y-92911613D01*
X108858387Y-92957000D01*
X108875000Y-93019000D01*
X108875000Y-93021000D01*
X108858387Y-93083000D01*
X108813000Y-93128387D01*
X108751000Y-93145000D01*
X108190001Y-93145000D01*
X108190001Y-93190690D01*
X108192442Y-93206101D01*
X108189314Y-93259158D01*
X108164260Y-93306031D01*
X108121883Y-93338110D01*
X108069969Y-93349500D01*
X108067254Y-93349500D01*
X108019801Y-93340061D01*
X107979572Y-93313181D01*
X107978051Y-93311660D01*
X107978050Y-93311658D01*
X107888342Y-93221950D01*
X107888341Y-93221949D01*
X107775302Y-93164353D01*
X107681521Y-93149500D01*
X106593485Y-93149500D01*
X106546588Y-93156927D01*
X106499696Y-93164354D01*
X106499694Y-93164354D01*
X106499693Y-93164355D01*
X106386657Y-93221949D01*
X106296950Y-93311656D01*
X106239353Y-93424697D01*
X106224500Y-93518478D01*
X106224500Y-93881514D01*
X106227917Y-93903087D01*
X106239354Y-93975304D01*
X106239354Y-93975305D01*
X106239355Y-93975306D01*
X106296949Y-94088342D01*
X106386656Y-94178049D01*
X106386658Y-94178050D01*
X106499696Y-94235646D01*
X106593481Y-94250500D01*
X107681518Y-94250499D01*
X107775304Y-94235646D01*
X107888342Y-94178050D01*
X107978050Y-94088342D01*
X107978051Y-94088339D01*
X107979572Y-94086819D01*
X108019801Y-94059939D01*
X108067254Y-94050500D01*
X108067720Y-94050500D01*
X108124015Y-94064015D01*
X108168039Y-94101615D01*
X108190192Y-94155098D01*
X108203983Y-94242175D01*
X108203983Y-94242176D01*
X108203984Y-94242177D01*
X108260139Y-94352389D01*
X108260140Y-94352390D01*
X108260141Y-94352391D01*
X108347609Y-94439859D01*
X108347610Y-94439859D01*
X108361496Y-94453745D01*
X108358632Y-94456608D01*
X108381234Y-94477507D01*
X108399500Y-94542286D01*
X108399500Y-95700788D01*
X108396861Y-95726234D01*
X108394957Y-95735314D01*
X108398548Y-95764123D01*
X108399458Y-95778795D01*
X108402665Y-95798013D01*
X108403403Y-95803079D01*
X108410107Y-95856854D01*
X108399201Y-95925113D01*
X108353445Y-95976927D01*
X108287060Y-95996194D01*
X108201845Y-95996194D01*
X108063753Y-96036741D01*
X107942676Y-96114552D01*
X107848429Y-96223319D01*
X107801074Y-96327012D01*
X107755319Y-96379816D01*
X107688280Y-96399500D01*
X104398488Y-96399500D01*
X104346976Y-96388294D01*
X104304775Y-96356702D01*
X104206129Y-96242858D01*
X104206128Y-96242857D01*
X104085053Y-96165047D01*
X103946961Y-96124500D01*
X103803039Y-96124500D01*
X103664947Y-96165047D01*
X103543870Y-96242858D01*
X103449623Y-96351625D01*
X103389834Y-96482542D01*
X103369353Y-96625000D01*
X103389834Y-96767457D01*
X103449623Y-96898374D01*
X103524522Y-96984812D01*
X103543872Y-97007143D01*
X103664947Y-97084953D01*
X103803039Y-97125500D01*
X103946961Y-97125500D01*
X104014997Y-97105523D01*
X104049932Y-97100500D01*
X106879861Y-97100500D01*
X106946900Y-97120184D01*
X106992655Y-97172988D01*
X107002599Y-97242146D01*
X106994353Y-97299499D01*
X107014835Y-97441959D01*
X107015762Y-97443989D01*
X107026652Y-97504346D01*
X107007283Y-97562540D01*
X106962395Y-97604332D01*
X106902968Y-97619500D01*
X105569131Y-97619500D01*
X105552247Y-97617040D01*
X105495332Y-97619394D01*
X105490208Y-97619500D01*
X104069131Y-97619500D01*
X104052247Y-97617040D01*
X103995332Y-97619394D01*
X103990208Y-97619500D01*
X100374500Y-97619500D01*
X100312500Y-97602887D01*
X100267113Y-97557500D01*
X100250500Y-97495500D01*
X100250500Y-96524500D01*
X100267113Y-96462500D01*
X100312500Y-96417113D01*
X100374500Y-96400500D01*
X100424675Y-96400500D01*
X100463685Y-96392740D01*
X100497740Y-96385966D01*
X100580601Y-96330601D01*
X100635966Y-96247740D01*
X100635966Y-96247738D01*
X100647197Y-96230930D01*
X100691846Y-96190461D01*
X100750299Y-96175819D01*
X100808753Y-96190461D01*
X100853402Y-96230928D01*
X100919759Y-96330239D01*
X101002456Y-96385495D01*
X101075375Y-96400000D01*
X101475000Y-96400000D01*
X101475000Y-95500000D01*
X101725000Y-95500000D01*
X101725000Y-96400000D01*
X102124625Y-96400000D01*
X102197543Y-96385495D01*
X102280239Y-96330239D01*
X102335495Y-96247543D01*
X102350000Y-96174625D01*
X102350000Y-95500000D01*
X101725000Y-95500000D01*
X101475000Y-95500000D01*
X101475000Y-94350000D01*
X101725000Y-94350000D01*
X101725000Y-95250000D01*
X102350000Y-95250000D01*
X102350000Y-94575375D01*
X102335495Y-94502456D01*
X102280239Y-94419760D01*
X102197543Y-94364504D01*
X102124625Y-94350000D01*
X101725000Y-94350000D01*
X101475000Y-94350000D01*
X101075375Y-94350000D01*
X101002456Y-94364504D01*
X100919759Y-94419760D01*
X100853402Y-94519071D01*
X100808753Y-94559539D01*
X100750299Y-94574180D01*
X100691846Y-94559538D01*
X100647197Y-94519070D01*
X100635966Y-94502261D01*
X100635966Y-94502260D01*
X100580601Y-94419399D01*
X100497740Y-94364034D01*
X100497739Y-94364033D01*
X100497738Y-94364033D01*
X100424675Y-94349500D01*
X100424674Y-94349500D01*
X99375326Y-94349500D01*
X99375325Y-94349500D01*
X99302261Y-94364033D01*
X99219399Y-94419399D01*
X99164033Y-94502261D01*
X99149500Y-94575325D01*
X99149500Y-96174675D01*
X99164033Y-96247738D01*
X99164033Y-96247739D01*
X99164034Y-96247740D01*
X99219399Y-96330601D01*
X99302260Y-96385966D01*
X99332288Y-96391939D01*
X99375325Y-96400500D01*
X99375326Y-96400500D01*
X99425500Y-96400500D01*
X99487500Y-96417113D01*
X99532887Y-96462500D01*
X99549500Y-96524500D01*
X99549500Y-97930869D01*
X99547040Y-97947752D01*
X99549394Y-98004668D01*
X99549500Y-98009792D01*
X99549500Y-99475500D01*
X99532887Y-99537500D01*
X99487500Y-99582887D01*
X99425500Y-99599500D01*
X99375325Y-99599500D01*
X99302261Y-99614033D01*
X99219399Y-99669399D01*
X99164033Y-99752261D01*
X99149500Y-99825325D01*
X99149500Y-101424675D01*
X99164033Y-101497738D01*
X99164033Y-101497739D01*
X99164034Y-101497740D01*
X99219399Y-101580601D01*
X99302260Y-101635966D01*
X99338792Y-101643232D01*
X99375325Y-101650500D01*
X99375326Y-101650500D01*
X100424674Y-101650500D01*
X100424675Y-101650500D01*
X100449966Y-101645469D01*
X100497740Y-101635966D01*
X100580601Y-101580601D01*
X100635966Y-101497740D01*
X100635966Y-101497738D01*
X100647197Y-101480930D01*
X100691846Y-101440461D01*
X100750299Y-101425819D01*
X100808753Y-101440461D01*
X100853402Y-101480928D01*
X100919759Y-101580239D01*
X101002456Y-101635495D01*
X101075375Y-101650000D01*
X101475000Y-101650000D01*
X101475000Y-100750000D01*
X101725000Y-100750000D01*
X101725000Y-101650000D01*
X102124625Y-101650000D01*
X102197543Y-101635495D01*
X102280239Y-101580239D01*
X102335495Y-101497543D01*
X102350000Y-101424625D01*
X102350000Y-100750000D01*
X101725000Y-100750000D01*
X101475000Y-100750000D01*
X101475000Y-99600000D01*
X101725000Y-99600000D01*
X101725000Y-100500000D01*
X102350000Y-100500000D01*
X102350000Y-99825375D01*
X102335495Y-99752456D01*
X102280239Y-99669760D01*
X102197543Y-99614504D01*
X102124625Y-99600000D01*
X101725000Y-99600000D01*
X101475000Y-99600000D01*
X101075375Y-99600000D01*
X101002456Y-99614504D01*
X100919759Y-99669760D01*
X100853402Y-99769071D01*
X100808753Y-99809539D01*
X100750299Y-99824180D01*
X100691846Y-99809538D01*
X100647197Y-99769070D01*
X100635966Y-99752261D01*
X100635966Y-99752260D01*
X100580601Y-99669399D01*
X100497740Y-99614034D01*
X100497739Y-99614033D01*
X100497738Y-99614033D01*
X100424675Y-99599500D01*
X100424674Y-99599500D01*
X100374500Y-99599500D01*
X100312500Y-99582887D01*
X100267113Y-99537500D01*
X100250500Y-99475500D01*
X100250500Y-98444500D01*
X100267113Y-98382500D01*
X100312500Y-98337113D01*
X100374500Y-98320500D01*
X103145592Y-98320500D01*
X103207592Y-98337113D01*
X103252979Y-98382500D01*
X103269592Y-98444500D01*
X103269592Y-99750001D01*
X103289033Y-99847738D01*
X103289033Y-99847739D01*
X103289034Y-99847740D01*
X103344399Y-99930601D01*
X103427260Y-99985966D01*
X103456715Y-99991825D01*
X103524999Y-100005408D01*
X103525000Y-100005408D01*
X104525000Y-100005408D01*
X104525002Y-100005408D01*
X104560746Y-99999500D01*
X104607183Y-99991825D01*
X104615218Y-99987524D01*
X104676721Y-99972888D01*
X104728254Y-99987813D01*
X104735072Y-99989053D01*
X104735074Y-99989054D01*
X104825000Y-100005408D01*
X105975000Y-100005408D01*
X105975001Y-100005408D01*
X106007580Y-99998927D01*
X106072740Y-99985966D01*
X106155601Y-99930601D01*
X106210966Y-99847740D01*
X106225306Y-99775647D01*
X106230408Y-99750001D01*
X106230408Y-98894500D01*
X106247021Y-98832500D01*
X106292408Y-98787113D01*
X106354408Y-98770500D01*
X106622047Y-98770500D01*
X106686837Y-98788773D01*
X106732532Y-98838206D01*
X106760140Y-98892391D01*
X106780422Y-98912673D01*
X106812516Y-98968260D01*
X106812516Y-99032446D01*
X106780424Y-99088034D01*
X106760550Y-99107907D01*
X106704464Y-99217981D01*
X106690000Y-99309307D01*
X106690000Y-99355000D01*
X107840353Y-99355000D01*
X107881365Y-99350588D01*
X107933686Y-99369395D01*
X108053503Y-99446397D01*
X108191595Y-99486944D01*
X108217012Y-99486944D01*
X108264465Y-99496383D01*
X108304693Y-99523263D01*
X108363181Y-99581751D01*
X108390061Y-99621979D01*
X108399500Y-99669432D01*
X108399500Y-99929404D01*
X108380690Y-99995063D01*
X108351562Y-100021327D01*
X108352529Y-100022294D01*
X108337899Y-100036923D01*
X108337898Y-100036924D01*
X108325910Y-100048912D01*
X108246921Y-100127900D01*
X108190417Y-100243481D01*
X108179500Y-100318415D01*
X108179500Y-100375500D01*
X108162887Y-100437500D01*
X108117500Y-100482887D01*
X108055500Y-100499500D01*
X108046544Y-100499500D01*
X107999091Y-100490061D01*
X107958863Y-100463181D01*
X107850683Y-100355001D01*
X107827532Y-100322928D01*
X107815660Y-100285201D01*
X107809582Y-100243482D01*
X107809581Y-100243480D01*
X107809581Y-100243478D01*
X107753078Y-100127900D01*
X107727874Y-100102696D01*
X107696039Y-100070861D01*
X107663947Y-100015276D01*
X107663947Y-99951089D01*
X107696041Y-99895501D01*
X107739448Y-99852093D01*
X107795535Y-99742018D01*
X107810000Y-99650693D01*
X107810000Y-99605000D01*
X106690001Y-99605000D01*
X106690001Y-99650686D01*
X106704465Y-99742019D01*
X106760552Y-99852095D01*
X106803959Y-99895502D01*
X106836052Y-99951089D01*
X106836052Y-100015276D01*
X106803958Y-100070863D01*
X106746922Y-100127898D01*
X106690417Y-100243481D01*
X106679500Y-100318415D01*
X106679500Y-100661585D01*
X106690417Y-100736518D01*
X106746922Y-100852101D01*
X106807140Y-100912319D01*
X106839234Y-100967906D01*
X106839234Y-101032094D01*
X106807140Y-101087681D01*
X106746922Y-101147898D01*
X106690417Y-101263481D01*
X106679500Y-101338415D01*
X106679500Y-101338418D01*
X106679500Y-101681582D01*
X106682291Y-101700735D01*
X106690017Y-101753765D01*
X106685003Y-101810690D01*
X106654994Y-101859322D01*
X106550638Y-101963680D01*
X106510409Y-101990561D01*
X106462956Y-102000000D01*
X98624500Y-102000000D01*
X98562500Y-101983387D01*
X98517113Y-101938000D01*
X98500500Y-101876000D01*
X98500500Y-94024760D01*
X98500528Y-94024616D01*
X98500524Y-94024616D01*
X98500539Y-94000002D01*
X98500541Y-94000000D01*
X98500462Y-93999808D01*
X98500384Y-93999618D01*
X98500380Y-93999614D01*
X98500194Y-93999538D01*
X98500002Y-93999459D01*
X98475446Y-93999459D01*
X98475240Y-93999500D01*
X97374500Y-93999500D01*
X97312500Y-93982887D01*
X97267113Y-93937500D01*
X97250500Y-93875500D01*
X97250500Y-92725000D01*
X99450000Y-92725000D01*
X99450000Y-93399625D01*
X99464504Y-93472543D01*
X99519760Y-93555239D01*
X99602456Y-93610495D01*
X99675375Y-93625000D01*
X100875000Y-93625000D01*
X100875000Y-92725000D01*
X99450000Y-92725000D01*
X97250500Y-92725000D01*
X97250500Y-92374500D01*
X97267113Y-92312500D01*
X97312500Y-92267113D01*
X97374500Y-92250500D01*
X98725240Y-92250500D01*
X98725383Y-92250528D01*
X98725384Y-92250524D01*
X98749997Y-92250539D01*
X98750000Y-92250541D01*
X98750383Y-92250383D01*
X98750500Y-92250099D01*
X98750541Y-92250000D01*
X98750541Y-92249999D01*
X98750541Y-92225446D01*
X98750500Y-92225240D01*
X98750500Y-91924500D01*
X98767113Y-91862500D01*
X98812500Y-91817113D01*
X98874500Y-91800500D01*
X99326000Y-91800500D01*
X99388000Y-91817113D01*
X99433387Y-91862500D01*
X99450000Y-91924500D01*
X99450000Y-92475000D01*
X101001000Y-92475000D01*
X101063000Y-92491613D01*
X101108387Y-92537000D01*
X101125000Y-92599000D01*
X101125000Y-93625000D01*
X102324625Y-93625000D01*
X102397543Y-93610495D01*
X102496609Y-93544301D01*
X102559413Y-93523553D01*
X102623949Y-93538042D01*
X102671855Y-93583648D01*
X102687765Y-93641128D01*
X102687974Y-93641096D01*
X102688264Y-93642930D01*
X102689500Y-93647394D01*
X102689500Y-93650732D01*
X102703982Y-93742174D01*
X102760140Y-93852391D01*
X102847607Y-93939858D01*
X102847609Y-93939859D01*
X102957825Y-93996017D01*
X103049265Y-94010500D01*
X103450734Y-94010499D01*
X103450737Y-94010499D01*
X103520442Y-93999459D01*
X103542175Y-93996017D01*
X103652391Y-93939859D01*
X103726194Y-93866055D01*
X103757122Y-93843488D01*
X103793463Y-93831430D01*
X103799036Y-93830500D01*
X103799040Y-93830500D01*
X103818032Y-93827330D01*
X103823069Y-93826596D01*
X103871393Y-93820573D01*
X103871394Y-93820572D01*
X103878808Y-93819648D01*
X103885378Y-93816092D01*
X103885381Y-93816092D01*
X103928201Y-93792918D01*
X103932747Y-93790577D01*
X103976484Y-93769198D01*
X103976486Y-93769195D01*
X103983195Y-93765916D01*
X103988254Y-93760419D01*
X103988258Y-93760418D01*
X104021254Y-93724572D01*
X104024756Y-93720924D01*
X104408863Y-93336818D01*
X104449091Y-93309938D01*
X104496544Y-93300499D01*
X105406514Y-93300499D01*
X105406518Y-93300499D01*
X105500304Y-93285646D01*
X105613342Y-93228050D01*
X105703050Y-93138342D01*
X105760646Y-93025304D01*
X105775500Y-92931519D01*
X105775499Y-92568482D01*
X105760646Y-92474696D01*
X105728200Y-92411018D01*
X105694376Y-92344633D01*
X105680889Y-92290994D01*
X105692067Y-92236827D01*
X105709114Y-92199501D01*
X105735165Y-92142457D01*
X105755647Y-92000000D01*
X105744864Y-91925000D01*
X106225001Y-91925000D01*
X106225001Y-91981478D01*
X106239836Y-92075149D01*
X106297358Y-92188045D01*
X106386953Y-92277640D01*
X106499853Y-92335165D01*
X106593516Y-92350000D01*
X107012500Y-92350000D01*
X107012500Y-91925000D01*
X106225001Y-91925000D01*
X105744864Y-91925000D01*
X105735165Y-91857543D01*
X105717620Y-91819126D01*
X105675376Y-91726625D01*
X105581129Y-91617858D01*
X105581128Y-91617857D01*
X105460053Y-91540047D01*
X105321961Y-91499500D01*
X105178039Y-91499500D01*
X105039947Y-91540047D01*
X104918870Y-91617858D01*
X104824623Y-91726625D01*
X104764834Y-91857542D01*
X104748552Y-91970788D01*
X104736698Y-92008645D01*
X104713495Y-92040821D01*
X104591135Y-92163181D01*
X104550907Y-92190061D01*
X104503455Y-92199500D01*
X104318485Y-92199500D01*
X104271588Y-92206927D01*
X104224696Y-92214354D01*
X104224694Y-92214354D01*
X104224693Y-92214355D01*
X104111659Y-92271948D01*
X104012751Y-92370856D01*
X103954017Y-92403748D01*
X103886751Y-92401105D01*
X103830779Y-92363705D01*
X103802596Y-92302571D01*
X103795534Y-92257980D01*
X103739447Y-92147905D01*
X103652093Y-92060551D01*
X103552842Y-92009979D01*
X103508823Y-91972385D01*
X103486667Y-91918906D01*
X103491201Y-91861196D01*
X103521437Y-91811833D01*
X103532879Y-91800384D01*
X103532883Y-91800383D01*
X103533000Y-91800099D01*
X103533041Y-91800000D01*
X103533041Y-91775446D01*
X103533000Y-91775240D01*
X103533000Y-90878796D01*
X103544905Y-90825779D01*
X103578335Y-90782943D01*
X103626870Y-90758512D01*
X103681191Y-90757178D01*
X103695379Y-90760000D01*
X104095000Y-90760000D01*
X104095000Y-90335000D01*
X104345000Y-90335000D01*
X104345000Y-90760000D01*
X104744625Y-90760000D01*
X104817543Y-90745495D01*
X104900239Y-90690239D01*
X104955495Y-90607543D01*
X104970000Y-90534625D01*
X104970000Y-90335000D01*
X104345000Y-90335000D01*
X104095000Y-90335000D01*
X103657000Y-90335000D01*
X103595000Y-90318387D01*
X103549613Y-90273000D01*
X103533000Y-90211000D01*
X103533000Y-90209000D01*
X103549613Y-90147000D01*
X103595000Y-90101613D01*
X103657000Y-90085000D01*
X104095000Y-90085000D01*
X104095000Y-90084500D01*
X104111613Y-90022500D01*
X104157000Y-89977113D01*
X104219000Y-89960500D01*
X104221000Y-89960500D01*
X104283000Y-89977113D01*
X104328387Y-90022500D01*
X104345000Y-90084500D01*
X104345000Y-90085000D01*
X104970000Y-90085000D01*
X104970000Y-90015044D01*
X104983515Y-89958749D01*
X105021115Y-89914726D01*
X105074602Y-89892571D01*
X105132318Y-89897113D01*
G37*
%TD.AperFunction*%
%TA.AperFunction,Conductor*%
G36*
X117158000Y-99237113D02*
G01*
X117203387Y-99282500D01*
X117220000Y-99344500D01*
X117220000Y-99375000D01*
X117741000Y-99375000D01*
X117803000Y-99391613D01*
X117848387Y-99437000D01*
X117865000Y-99499000D01*
X117865000Y-99501000D01*
X117848387Y-99563000D01*
X117803000Y-99608387D01*
X117741000Y-99625000D01*
X117220001Y-99625000D01*
X117220001Y-99721538D01*
X117230903Y-99796373D01*
X117287336Y-99911810D01*
X117303956Y-99928430D01*
X117336049Y-99984015D01*
X117336051Y-100048199D01*
X117317954Y-100079548D01*
X117319057Y-100080110D01*
X117253982Y-100207826D01*
X117239500Y-100299263D01*
X117239500Y-100483455D01*
X117230061Y-100530908D01*
X117203181Y-100571136D01*
X117057181Y-100717136D01*
X117007818Y-100747386D01*
X116950102Y-100751928D01*
X116896615Y-100729773D01*
X116859015Y-100685750D01*
X116845500Y-100629455D01*
X116845500Y-100520327D01*
X116842276Y-100504119D01*
X116835073Y-100467907D01*
X116835073Y-100419523D01*
X116845000Y-100369622D01*
X116845000Y-100345000D01*
X116784182Y-100345000D01*
X116748185Y-100339660D01*
X116715288Y-100324100D01*
X116712295Y-100322100D01*
X116670703Y-100275292D01*
X116657285Y-100214129D01*
X116675462Y-100154209D01*
X116720601Y-100110810D01*
X116781189Y-100095000D01*
X116845000Y-100095000D01*
X116845000Y-100070377D01*
X116834818Y-100019193D01*
X116834818Y-99970807D01*
X116845000Y-99919623D01*
X116845000Y-99895000D01*
X116781189Y-99895000D01*
X116720601Y-99879190D01*
X116675462Y-99835791D01*
X116657285Y-99775871D01*
X116670703Y-99714708D01*
X116712295Y-99667900D01*
X116715288Y-99665900D01*
X116748185Y-99650340D01*
X116784182Y-99645000D01*
X116845000Y-99645000D01*
X116845000Y-99620377D01*
X116835073Y-99570473D01*
X116835073Y-99522093D01*
X116845500Y-99469674D01*
X116845500Y-99344500D01*
X116862113Y-99282500D01*
X116907500Y-99237113D01*
X116969500Y-99220500D01*
X117096000Y-99220500D01*
X117158000Y-99237113D01*
G37*
%TD.AperFunction*%
%TA.AperFunction,Conductor*%
G36*
X116501433Y-99709015D02*
G01*
X116545456Y-99746615D01*
X116567611Y-99800102D01*
X116563069Y-99857818D01*
X116545000Y-99887304D01*
X116545000Y-100102696D01*
X116563069Y-100132182D01*
X116567611Y-100189898D01*
X116545456Y-100243385D01*
X116501433Y-100280985D01*
X116445138Y-100294500D01*
X116419000Y-100294500D01*
X116357000Y-100277887D01*
X116311613Y-100232500D01*
X116295000Y-100170500D01*
X116295000Y-99887304D01*
X116276931Y-99857818D01*
X116272389Y-99800102D01*
X116294544Y-99746615D01*
X116338567Y-99709015D01*
X116394862Y-99695500D01*
X116445138Y-99695500D01*
X116501433Y-99709015D01*
G37*
%TD.AperFunction*%
%TA.AperFunction,Conductor*%
G36*
X123331795Y-90551129D02*
G01*
X123381227Y-90596824D01*
X123399500Y-90661614D01*
X123399500Y-93737770D01*
X123390061Y-93785223D01*
X123363181Y-93825451D01*
X121886955Y-95301675D01*
X121867104Y-95317797D01*
X121859332Y-95322875D01*
X121841500Y-95345785D01*
X121831765Y-95356810D01*
X121820441Y-95372671D01*
X121817392Y-95376759D01*
X121810741Y-95385306D01*
X121782891Y-95421087D01*
X121766871Y-95474896D01*
X121765309Y-95479772D01*
X121747074Y-95532891D01*
X121749394Y-95588982D01*
X121749500Y-95594106D01*
X121749500Y-96453456D01*
X121740061Y-96500909D01*
X121713181Y-96541137D01*
X120671137Y-97583181D01*
X120630909Y-97610061D01*
X120583456Y-97619500D01*
X119686497Y-97619500D01*
X119634933Y-97608270D01*
X119592708Y-97576615D01*
X119567471Y-97530268D01*
X119563792Y-97477623D01*
X119570500Y-97431580D01*
X119570500Y-97088415D01*
X119559582Y-97013481D01*
X119503077Y-96897898D01*
X119442507Y-96837328D01*
X119410413Y-96781740D01*
X119410413Y-96717553D01*
X119442507Y-96661965D01*
X119502665Y-96601807D01*
X119559097Y-96486371D01*
X119570000Y-96411544D01*
X119570000Y-96365000D01*
X118999000Y-96365000D01*
X118937000Y-96348387D01*
X118891613Y-96303000D01*
X118875000Y-96241000D01*
X118875000Y-95720001D01*
X118778462Y-95720001D01*
X118703626Y-95730903D01*
X118588189Y-95787336D01*
X118497335Y-95878190D01*
X118486677Y-95899992D01*
X118440939Y-95950718D01*
X118375279Y-95969530D01*
X118309618Y-95950720D01*
X118263879Y-95899995D01*
X118257571Y-95887093D01*
X118246474Y-95851889D01*
X118246231Y-95814986D01*
X118255647Y-95749500D01*
X118236366Y-95615398D01*
X118235165Y-95607042D01*
X118175376Y-95476125D01*
X118081129Y-95367358D01*
X118081128Y-95367357D01*
X117960053Y-95289547D01*
X117821961Y-95249000D01*
X117678039Y-95249000D01*
X117539947Y-95289547D01*
X117418871Y-95367357D01*
X117320917Y-95480403D01*
X117274870Y-95513673D01*
X117218818Y-95522916D01*
X117164527Y-95506193D01*
X117148577Y-95491002D01*
X117147769Y-95492042D01*
X117108534Y-95461505D01*
X117097507Y-95451767D01*
X117081653Y-95440448D01*
X117077544Y-95437384D01*
X117033229Y-95402892D01*
X116979409Y-95386869D01*
X116974531Y-95385306D01*
X116921420Y-95367073D01*
X116880616Y-95368761D01*
X116822881Y-95357152D01*
X116777013Y-95320217D01*
X116753358Y-95266286D01*
X116757251Y-95207524D01*
X116787813Y-95157185D01*
X116820000Y-95124998D01*
X116820000Y-95124500D01*
X116836613Y-95062500D01*
X116882000Y-95017113D01*
X116944000Y-95000500D01*
X118703456Y-95000500D01*
X118750909Y-95009939D01*
X118791137Y-95036819D01*
X119262637Y-95508319D01*
X119292887Y-95557682D01*
X119297429Y-95615398D01*
X119275274Y-95668885D01*
X119231251Y-95706485D01*
X119174956Y-95720000D01*
X119125000Y-95720000D01*
X119125000Y-96115000D01*
X119569999Y-96115000D01*
X119570012Y-96114986D01*
X119583514Y-96058748D01*
X119621114Y-96014725D01*
X119674601Y-95992570D01*
X119732317Y-95997112D01*
X119781680Y-96027362D01*
X119813181Y-96058863D01*
X119840061Y-96099091D01*
X119849500Y-96146544D01*
X119849500Y-96152352D01*
X119846861Y-96177798D01*
X119844957Y-96186879D01*
X119847003Y-96203292D01*
X119848548Y-96215685D01*
X119849458Y-96230359D01*
X119852665Y-96249577D01*
X119853403Y-96254642D01*
X119860351Y-96310373D01*
X119887081Y-96359766D01*
X119889421Y-96364311D01*
X119910802Y-96408048D01*
X119914446Y-96415501D01*
X119916219Y-96417879D01*
X119938910Y-96447375D01*
X119951934Y-96487510D01*
X119967653Y-96596840D01*
X120027442Y-96727757D01*
X120121689Y-96836524D01*
X120121691Y-96836526D01*
X120242766Y-96914336D01*
X120380858Y-96954883D01*
X120524780Y-96954883D01*
X120662872Y-96914336D01*
X120783947Y-96836526D01*
X120878196Y-96727756D01*
X120937984Y-96596840D01*
X120958466Y-96454383D01*
X120947134Y-96375567D01*
X120949367Y-96328690D01*
X120968865Y-96285996D01*
X121002832Y-96253609D01*
X121081128Y-96203292D01*
X121175377Y-96094522D01*
X121235165Y-95963606D01*
X121255647Y-95821149D01*
X121235165Y-95678692D01*
X121233707Y-95675500D01*
X121175376Y-95547774D01*
X121081129Y-95439007D01*
X121081128Y-95439006D01*
X120960053Y-95361196D01*
X120821961Y-95320649D01*
X120683378Y-95320649D01*
X120635925Y-95311210D01*
X120595697Y-95284330D01*
X119383343Y-94071976D01*
X119350906Y-94015080D01*
X119351978Y-93949596D01*
X119386259Y-93893792D01*
X119444185Y-93863234D01*
X119610224Y-93826425D01*
X120047488Y-93688556D01*
X120471071Y-93513102D01*
X120877751Y-93301398D01*
X121264432Y-93055055D01*
X121628172Y-92775948D01*
X121966201Y-92466201D01*
X122275948Y-92128172D01*
X122555055Y-91764432D01*
X122801398Y-91377751D01*
X123013102Y-90971071D01*
X123160939Y-90614160D01*
X123202615Y-90561296D01*
X123265771Y-90537996D01*
X123331795Y-90551129D01*
G37*
%TD.AperFunction*%
%TA.AperFunction,Conductor*%
G36*
X109407500Y-94347113D02*
G01*
X109452887Y-94392500D01*
X109469500Y-94454500D01*
X109469500Y-94471585D01*
X109480417Y-94546518D01*
X109536921Y-94662099D01*
X109536923Y-94662101D01*
X109536924Y-94662102D01*
X109627898Y-94753076D01*
X109649961Y-94763862D01*
X109700688Y-94809601D01*
X109719500Y-94875262D01*
X109719500Y-94911566D01*
X109714161Y-94947560D01*
X109698603Y-94980455D01*
X109684034Y-95002259D01*
X109669500Y-95075325D01*
X109669500Y-95436887D01*
X109668344Y-95436887D01*
X109668343Y-95467233D01*
X109662902Y-95480371D01*
X109645000Y-95570374D01*
X109645000Y-95595000D01*
X109657819Y-95607819D01*
X109688069Y-95657182D01*
X109692611Y-95714898D01*
X109670456Y-95768385D01*
X109626433Y-95805985D01*
X109570138Y-95819500D01*
X109366543Y-95819500D01*
X109319090Y-95810061D01*
X109278864Y-95783183D01*
X109136816Y-95641134D01*
X109109939Y-95600909D01*
X109100500Y-95553456D01*
X109100500Y-94542286D01*
X109118766Y-94477507D01*
X109141367Y-94456608D01*
X109138504Y-94453745D01*
X109152389Y-94439859D01*
X109152391Y-94439859D01*
X109225431Y-94366818D01*
X109265661Y-94339939D01*
X109313113Y-94330500D01*
X109345500Y-94330500D01*
X109407500Y-94347113D01*
G37*
%TD.AperFunction*%
%TA.AperFunction,Conductor*%
G36*
X124963000Y-84266613D02*
G01*
X125008387Y-84312000D01*
X125025000Y-84374000D01*
X125025000Y-85400000D01*
X125424625Y-85400000D01*
X125497543Y-85385495D01*
X125580239Y-85330239D01*
X125646596Y-85230929D01*
X125691245Y-85190461D01*
X125749699Y-85175819D01*
X125808153Y-85190461D01*
X125852802Y-85230929D01*
X125864033Y-85247738D01*
X125864034Y-85247740D01*
X125919399Y-85330601D01*
X126002260Y-85385966D01*
X126038792Y-85393232D01*
X126075325Y-85400500D01*
X126075326Y-85400500D01*
X126125500Y-85400500D01*
X126187500Y-85417113D01*
X126232887Y-85462500D01*
X126249500Y-85524500D01*
X126249500Y-88475500D01*
X126232887Y-88537500D01*
X126187500Y-88582887D01*
X126125500Y-88599500D01*
X126075325Y-88599500D01*
X126002261Y-88614033D01*
X125919399Y-88669399D01*
X125852802Y-88769070D01*
X125808152Y-88809538D01*
X125749699Y-88824180D01*
X125691246Y-88809538D01*
X125646597Y-88769070D01*
X125580241Y-88669761D01*
X125497543Y-88614504D01*
X125424625Y-88600000D01*
X125025000Y-88600000D01*
X125025000Y-90650000D01*
X125424625Y-90650000D01*
X125497543Y-90635495D01*
X125580239Y-90580239D01*
X125646596Y-90480929D01*
X125691245Y-90440461D01*
X125749699Y-90425819D01*
X125808153Y-90440461D01*
X125852802Y-90480929D01*
X125864033Y-90497738D01*
X125864034Y-90497740D01*
X125919399Y-90580601D01*
X126002260Y-90635966D01*
X126034892Y-90642457D01*
X126075325Y-90650500D01*
X126075326Y-90650500D01*
X126125500Y-90650500D01*
X126187500Y-90667113D01*
X126232887Y-90712500D01*
X126249500Y-90774500D01*
X126249500Y-91453457D01*
X126240061Y-91500910D01*
X126213181Y-91541138D01*
X124312181Y-93442137D01*
X124262818Y-93472387D01*
X124205102Y-93476929D01*
X124151615Y-93454774D01*
X124114015Y-93410751D01*
X124100500Y-93354456D01*
X124100500Y-90732540D01*
X124118142Y-90668791D01*
X124166047Y-90623182D01*
X124230584Y-90608689D01*
X124293391Y-90629438D01*
X124302456Y-90635495D01*
X124375375Y-90650000D01*
X124775000Y-90650000D01*
X124775000Y-88600000D01*
X124375375Y-88600000D01*
X124302456Y-88614504D01*
X124293391Y-88620562D01*
X124230584Y-88641311D01*
X124166047Y-88626818D01*
X124118142Y-88581209D01*
X124100500Y-88517460D01*
X124100500Y-85482540D01*
X124118142Y-85418791D01*
X124166047Y-85373182D01*
X124230584Y-85358689D01*
X124293391Y-85379438D01*
X124302456Y-85385495D01*
X124375375Y-85400000D01*
X124775000Y-85400000D01*
X124775000Y-84374000D01*
X124791613Y-84312000D01*
X124837000Y-84266613D01*
X124899000Y-84250000D01*
X124901000Y-84250000D01*
X124963000Y-84266613D01*
G37*
%TD.AperFunction*%
%TA.AperFunction,Conductor*%
G36*
X111622897Y-91300500D02*
G01*
X111825499Y-91300499D01*
X111887499Y-91317112D01*
X111932887Y-91362498D01*
X111949500Y-91424498D01*
X111949500Y-91627098D01*
X111955981Y-91676332D01*
X111965897Y-91697597D01*
X111977514Y-91750000D01*
X111965897Y-91802403D01*
X111955980Y-91823669D01*
X111949500Y-91872895D01*
X111949500Y-92127104D01*
X111955980Y-92176328D01*
X111965897Y-92197594D01*
X111977515Y-92249998D01*
X111965898Y-92302402D01*
X111955980Y-92323670D01*
X111949500Y-92372896D01*
X111949500Y-92575500D01*
X111932887Y-92637500D01*
X111887500Y-92682887D01*
X111825501Y-92699500D01*
X111622890Y-92699500D01*
X111612972Y-92700806D01*
X111552312Y-92693612D01*
X111502447Y-92658328D01*
X111475479Y-92603517D01*
X111477952Y-92542485D01*
X111483137Y-92525071D01*
X111484679Y-92520255D01*
X111500500Y-92474174D01*
X111500500Y-92474171D01*
X111502925Y-92467107D01*
X111502616Y-92459642D01*
X111502617Y-92459640D01*
X111500605Y-92411017D01*
X111500500Y-92405894D01*
X111500500Y-91633521D01*
X111503139Y-91608075D01*
X111503173Y-91607908D01*
X111505042Y-91598999D01*
X111501452Y-91570198D01*
X111500540Y-91555519D01*
X111500500Y-91555279D01*
X111500500Y-91555274D01*
X111497331Y-91536286D01*
X111496594Y-91531229D01*
X111493302Y-91504819D01*
X111490573Y-91482921D01*
X111490571Y-91482918D01*
X111489544Y-91474675D01*
X111484337Y-91458417D01*
X111482685Y-91448508D01*
X111485476Y-91448042D01*
X111478315Y-91416227D01*
X111499993Y-91352536D01*
X111551741Y-91309541D01*
X111618324Y-91299898D01*
X111622897Y-91300500D01*
G37*
%TD.AperFunction*%
%TA.AperFunction,Conductor*%
G36*
X110735776Y-91665772D02*
G01*
X110763181Y-91693177D01*
X110790061Y-91733405D01*
X110799500Y-91780858D01*
X110799500Y-92219142D01*
X110790061Y-92266596D01*
X110763182Y-92306821D01*
X110746334Y-92323670D01*
X110735775Y-92334229D01*
X110675987Y-92367368D01*
X110607722Y-92363790D01*
X110551727Y-92324580D01*
X110525019Y-92261655D01*
X110535714Y-92194139D01*
X110538556Y-92188045D01*
X110544019Y-92176330D01*
X110550500Y-92127103D01*
X110550499Y-91872898D01*
X110544019Y-91823670D01*
X110535712Y-91805857D01*
X110525019Y-91738342D01*
X110551728Y-91675418D01*
X110607724Y-91636209D01*
X110675989Y-91632631D01*
X110735776Y-91665772D01*
G37*
%TD.AperFunction*%
%TA.AperFunction,Conductor*%
G36*
X108410211Y-88000959D02*
G01*
X108410211Y-88000500D01*
X108428039Y-88000500D01*
X108453456Y-88000500D01*
X108500909Y-88009939D01*
X108541137Y-88036819D01*
X108688181Y-88183863D01*
X108715061Y-88224091D01*
X108724500Y-88271543D01*
X108724500Y-88431514D01*
X108724501Y-88431518D01*
X108739354Y-88525304D01*
X108739354Y-88525305D01*
X108739355Y-88525306D01*
X108800199Y-88644720D01*
X108828020Y-88692906D01*
X108828020Y-88757094D01*
X108800203Y-88805272D01*
X108739353Y-88924697D01*
X108724500Y-89018478D01*
X108724500Y-89381514D01*
X108724501Y-89381518D01*
X108739354Y-89475304D01*
X108739354Y-89475305D01*
X108739355Y-89475306D01*
X108796949Y-89588342D01*
X108886656Y-89678049D01*
X108886658Y-89678050D01*
X108999696Y-89735646D01*
X109023641Y-89739438D01*
X109052497Y-89744009D01*
X109111935Y-89770769D01*
X109149588Y-89823978D01*
X109155051Y-89888933D01*
X109126814Y-89947684D01*
X109101734Y-89976627D01*
X109041946Y-90107542D01*
X109021465Y-90249999D01*
X109041946Y-90392457D01*
X109101735Y-90523374D01*
X109193640Y-90629438D01*
X109195984Y-90632143D01*
X109317059Y-90709953D01*
X109411502Y-90737683D01*
X109461777Y-90766575D01*
X109493419Y-90815168D01*
X109498656Y-90864770D01*
X109499500Y-90864770D01*
X109499500Y-90872759D01*
X109499508Y-90872835D01*
X109499500Y-90872895D01*
X109499500Y-91127098D01*
X109505981Y-91176333D01*
X109516172Y-91198187D01*
X109527790Y-91250590D01*
X109516173Y-91302994D01*
X109506470Y-91323801D01*
X109500000Y-91372954D01*
X109500000Y-91375000D01*
X109626781Y-91375000D01*
X109679153Y-91386603D01*
X109680465Y-91387214D01*
X109681297Y-91387602D01*
X109733483Y-91433339D01*
X109752925Y-91499951D01*
X109733534Y-91566579D01*
X109681383Y-91612356D01*
X109679239Y-91613357D01*
X109626781Y-91625000D01*
X109476672Y-91625000D01*
X109476265Y-91625235D01*
X109412082Y-91625232D01*
X109356499Y-91593139D01*
X109050316Y-91286956D01*
X109034187Y-91267094D01*
X109029115Y-91259330D01*
X109006211Y-91241504D01*
X108995186Y-91231768D01*
X108979331Y-91220448D01*
X108975222Y-91217384D01*
X108930906Y-91182891D01*
X108907034Y-91175784D01*
X108848705Y-91138142D01*
X108831127Y-91117856D01*
X108710054Y-91040047D01*
X108579908Y-91001833D01*
X108533026Y-90976033D01*
X108501381Y-90932879D01*
X108490867Y-90880410D01*
X108503443Y-90828395D01*
X108519097Y-90796372D01*
X108530000Y-90721544D01*
X108530000Y-90625000D01*
X108135000Y-90625000D01*
X108135000Y-91110698D01*
X108127186Y-91154021D01*
X108104728Y-91191883D01*
X108102728Y-91194192D01*
X108054006Y-91228551D01*
X107994879Y-91236200D01*
X107939017Y-91215371D01*
X107899332Y-91170878D01*
X107885000Y-91113007D01*
X107885000Y-90499000D01*
X107901613Y-90437000D01*
X107947000Y-90391613D01*
X108009000Y-90375000D01*
X108529999Y-90375000D01*
X108529999Y-90278462D01*
X108519096Y-90203626D01*
X108462663Y-90088189D01*
X108371809Y-89997335D01*
X108256371Y-89940902D01*
X108181544Y-89930000D01*
X108135359Y-89930000D01*
X108072238Y-89912732D01*
X108026697Y-89865737D01*
X108011420Y-89802104D01*
X108030663Y-89739557D01*
X108079065Y-89695515D01*
X108113342Y-89678050D01*
X108203050Y-89588342D01*
X108260646Y-89475304D01*
X108275500Y-89381519D01*
X108275499Y-89018482D01*
X108260646Y-88924696D01*
X108203050Y-88811658D01*
X108200923Y-88807483D01*
X108171627Y-88756742D01*
X108171627Y-88692552D01*
X108199212Y-88644774D01*
X108260165Y-88525146D01*
X108275000Y-88431484D01*
X108275000Y-88375000D01*
X107361500Y-88375000D01*
X107299500Y-88358387D01*
X107254113Y-88313000D01*
X107237500Y-88251000D01*
X107237500Y-88249000D01*
X107254113Y-88187000D01*
X107299500Y-88141613D01*
X107361500Y-88125000D01*
X108274999Y-88125000D01*
X108274999Y-88121208D01*
X108288115Y-88065704D01*
X108324688Y-88021941D01*
X108376981Y-87999178D01*
X108410211Y-88000959D01*
G37*
%TD.AperFunction*%
%TA.AperFunction,Conductor*%
G36*
X106495883Y-68009939D02*
G01*
X106536111Y-68036819D01*
X107982196Y-69482903D01*
X107982430Y-69483252D01*
X107999616Y-69500381D01*
X107999617Y-69500383D01*
X107999901Y-69500500D01*
X108000000Y-69500541D01*
X108024554Y-69500541D01*
X108024760Y-69500500D01*
X118975145Y-69500500D01*
X118975334Y-69500538D01*
X118999999Y-69500541D01*
X119000000Y-69500542D01*
X119000000Y-69500541D01*
X119000002Y-69500542D01*
X119000980Y-69500141D01*
X119022119Y-69491600D01*
X119023100Y-69490944D01*
X119026327Y-69489603D01*
X119030039Y-69486361D01*
X119093737Y-69474189D01*
X119154869Y-69495836D01*
X119196713Y-69545381D01*
X119207824Y-69609273D01*
X119194785Y-69749999D01*
X119213602Y-69953083D01*
X119269418Y-70149251D01*
X119360324Y-70331818D01*
X119483236Y-70494580D01*
X119633958Y-70631981D01*
X119807359Y-70739346D01*
X119807361Y-70739346D01*
X119807363Y-70739348D01*
X119870296Y-70763728D01*
X119911820Y-70790333D01*
X119939692Y-70831020D01*
X119949500Y-70879354D01*
X119949500Y-73003456D01*
X119940061Y-73050909D01*
X119913181Y-73091137D01*
X119286955Y-73717361D01*
X119267104Y-73733483D01*
X119259332Y-73738561D01*
X119241500Y-73761471D01*
X119231765Y-73772496D01*
X119220441Y-73788357D01*
X119217392Y-73792445D01*
X119200954Y-73813566D01*
X119182891Y-73836773D01*
X119166871Y-73890582D01*
X119165309Y-73895458D01*
X119147074Y-73948577D01*
X119149394Y-74004668D01*
X119149500Y-74009792D01*
X119149500Y-81545500D01*
X119132887Y-81607500D01*
X119087500Y-81652887D01*
X119025500Y-81669500D01*
X116813113Y-81669500D01*
X116765660Y-81660061D01*
X116725432Y-81633181D01*
X116652392Y-81560141D01*
X116542173Y-81503982D01*
X116450737Y-81489500D01*
X116049262Y-81489500D01*
X115957825Y-81503982D01*
X115847608Y-81560140D01*
X115837681Y-81570068D01*
X115782094Y-81602162D01*
X115717906Y-81602162D01*
X115662319Y-81570068D01*
X115652392Y-81560141D01*
X115542173Y-81503982D01*
X115450737Y-81489500D01*
X115049262Y-81489500D01*
X114957825Y-81503982D01*
X114847608Y-81560140D01*
X114837681Y-81570068D01*
X114782094Y-81602162D01*
X114717906Y-81602162D01*
X114662319Y-81570068D01*
X114652392Y-81560141D01*
X114542173Y-81503982D01*
X114450737Y-81489500D01*
X114450735Y-81489500D01*
X114364316Y-81489500D01*
X114297277Y-81469816D01*
X114251522Y-81417012D01*
X114241578Y-81347854D01*
X114244670Y-81326346D01*
X114254661Y-81256851D01*
X114276391Y-81202574D01*
X114320579Y-81164285D01*
X114377399Y-81150500D01*
X114674672Y-81150500D01*
X114674674Y-81150500D01*
X114727093Y-81140073D01*
X114775473Y-81140073D01*
X114825377Y-81150000D01*
X114875000Y-81150000D01*
X114875000Y-81051766D01*
X114880340Y-81015769D01*
X114895900Y-80982872D01*
X114897900Y-80979879D01*
X114944708Y-80938287D01*
X115005871Y-80924869D01*
X115065791Y-80943046D01*
X115109190Y-80988185D01*
X115125000Y-81048773D01*
X115125000Y-81150000D01*
X115174623Y-81150000D01*
X115225807Y-81139818D01*
X115274193Y-81139818D01*
X115325377Y-81150000D01*
X115375000Y-81150000D01*
X115375000Y-80525000D01*
X115625000Y-80525000D01*
X115625000Y-81150000D01*
X115674625Y-81150000D01*
X115747543Y-81135495D01*
X115830239Y-81080239D01*
X115885495Y-80997543D01*
X115900000Y-80924625D01*
X115900000Y-80525000D01*
X115625000Y-80525000D01*
X115375000Y-80525000D01*
X115125000Y-80525000D01*
X115112181Y-80537819D01*
X115062818Y-80568069D01*
X115005102Y-80572611D01*
X114951615Y-80550456D01*
X114914015Y-80506433D01*
X114900500Y-80450138D01*
X114900500Y-80349862D01*
X114914015Y-80293567D01*
X114951615Y-80249544D01*
X115005102Y-80227389D01*
X115062818Y-80231931D01*
X115112181Y-80262181D01*
X115125000Y-80275000D01*
X115375000Y-80275000D01*
X115375000Y-79650000D01*
X115625000Y-79650000D01*
X115625000Y-80275000D01*
X115900000Y-80275000D01*
X115900000Y-79875375D01*
X115885495Y-79802456D01*
X115830239Y-79719760D01*
X115747543Y-79664504D01*
X115674625Y-79650000D01*
X115625000Y-79650000D01*
X115375000Y-79650000D01*
X115325377Y-79650000D01*
X115274190Y-79660181D01*
X115225810Y-79660181D01*
X115174623Y-79650000D01*
X115125000Y-79650000D01*
X115125000Y-79751227D01*
X115109190Y-79811815D01*
X115065791Y-79856954D01*
X115005871Y-79875131D01*
X114944708Y-79861713D01*
X114897900Y-79820121D01*
X114895900Y-79817128D01*
X114880340Y-79784231D01*
X114875000Y-79748234D01*
X114875000Y-79650000D01*
X114825374Y-79650000D01*
X114775473Y-79659926D01*
X114727091Y-79659926D01*
X114674676Y-79649500D01*
X114674674Y-79649500D01*
X114325326Y-79649500D01*
X114274189Y-79659671D01*
X114225811Y-79659671D01*
X114174674Y-79649500D01*
X113825326Y-79649500D01*
X113774189Y-79659671D01*
X113725811Y-79659671D01*
X113674674Y-79649500D01*
X113325326Y-79649500D01*
X113274189Y-79659671D01*
X113225811Y-79659671D01*
X113174674Y-79649500D01*
X112825326Y-79649500D01*
X112774189Y-79659671D01*
X112725811Y-79659671D01*
X112674674Y-79649500D01*
X112325326Y-79649500D01*
X112274189Y-79659671D01*
X112225811Y-79659671D01*
X112174674Y-79649500D01*
X111825326Y-79649500D01*
X111774189Y-79659671D01*
X111725811Y-79659671D01*
X111674674Y-79649500D01*
X111325326Y-79649500D01*
X111274189Y-79659671D01*
X111225811Y-79659671D01*
X111174674Y-79649500D01*
X110825326Y-79649500D01*
X110825325Y-79649500D01*
X110752261Y-79664033D01*
X110669399Y-79719399D01*
X110614033Y-79802261D01*
X110599500Y-79875325D01*
X110599500Y-80789547D01*
X110590061Y-80837001D01*
X110563180Y-80877228D01*
X110538037Y-80902371D01*
X110469967Y-80970440D01*
X110417223Y-81001734D01*
X110343176Y-81023477D01*
X110222099Y-81101288D01*
X110127852Y-81210055D01*
X110068063Y-81340972D01*
X110047582Y-81483429D01*
X110068063Y-81625887D01*
X110127852Y-81756804D01*
X110222099Y-81865571D01*
X110222101Y-81865573D01*
X110343176Y-81943383D01*
X110481268Y-81983930D01*
X110625190Y-81983930D01*
X110763282Y-81943383D01*
X110786530Y-81928441D01*
X110830096Y-81911000D01*
X110877031Y-81911000D01*
X110920601Y-81928442D01*
X111039947Y-82005141D01*
X111178039Y-82045688D01*
X111321961Y-82045688D01*
X111460053Y-82005141D01*
X111581128Y-81927331D01*
X111581130Y-81927327D01*
X111593406Y-81919439D01*
X111636978Y-81901995D01*
X111683913Y-81901995D01*
X111727483Y-81919437D01*
X111791839Y-81960796D01*
X111929931Y-82001343D01*
X112073853Y-82001343D01*
X112211945Y-81960796D01*
X112309564Y-81898060D01*
X112353135Y-81880617D01*
X112400069Y-81880617D01*
X112443639Y-81898059D01*
X112539947Y-81959953D01*
X112678039Y-82000500D01*
X112821961Y-82000500D01*
X112960053Y-81959953D01*
X113081128Y-81882143D01*
X113175377Y-81773373D01*
X113215327Y-81685895D01*
X113260395Y-81633538D01*
X113326488Y-81613421D01*
X113393087Y-81631792D01*
X113439520Y-81682950D01*
X113464084Y-81733198D01*
X113505400Y-81771231D01*
X113509099Y-81774780D01*
X113653181Y-81918862D01*
X113680061Y-81959090D01*
X113689500Y-82006542D01*
X113689500Y-82190737D01*
X113703982Y-82282174D01*
X113760140Y-82392391D01*
X113780422Y-82412673D01*
X113812516Y-82468260D01*
X113812516Y-82532446D01*
X113780424Y-82588034D01*
X113760550Y-82607907D01*
X113704464Y-82717981D01*
X113690000Y-82809307D01*
X113690000Y-82855000D01*
X116809999Y-82855000D01*
X116809999Y-82809314D01*
X116795534Y-82717980D01*
X116739447Y-82607905D01*
X116719577Y-82588035D01*
X116687482Y-82532444D01*
X116687485Y-82468254D01*
X116719582Y-82412667D01*
X116725439Y-82406811D01*
X116765665Y-82379937D01*
X116813113Y-82370500D01*
X119441512Y-82370500D01*
X119480376Y-82370500D01*
X119490614Y-82370923D01*
X119529344Y-82374132D01*
X119529347Y-82374131D01*
X119529744Y-82374164D01*
X119559142Y-82370500D01*
X120475500Y-82370500D01*
X120537500Y-82387113D01*
X120582887Y-82432500D01*
X120599500Y-82494500D01*
X120599500Y-83854516D01*
X120584858Y-83912969D01*
X120544391Y-83957618D01*
X120487654Y-83977919D01*
X120428047Y-83969077D01*
X120047490Y-83811444D01*
X119610225Y-83673575D01*
X119162601Y-83574339D01*
X118708050Y-83514496D01*
X118250000Y-83494498D01*
X117791949Y-83514496D01*
X117337398Y-83574339D01*
X116889774Y-83673575D01*
X116452509Y-83811444D01*
X116028925Y-83986899D01*
X115622254Y-84198599D01*
X115622250Y-84198601D01*
X115622249Y-84198602D01*
X115603361Y-84210635D01*
X115235564Y-84444947D01*
X114871824Y-84724054D01*
X114533797Y-85033799D01*
X114480247Y-85092238D01*
X114424389Y-85127255D01*
X114358477Y-85128693D01*
X114316743Y-85105000D01*
X113875000Y-85105000D01*
X113875000Y-85509999D01*
X113878364Y-85513363D01*
X113932063Y-85528698D01*
X113977795Y-85579155D01*
X113989986Y-85646153D01*
X113964959Y-85709484D01*
X113953567Y-85724331D01*
X113944943Y-85735570D01*
X113698599Y-86122254D01*
X113486899Y-86528925D01*
X113311444Y-86952509D01*
X113173575Y-87389774D01*
X113074339Y-87837398D01*
X113014496Y-88291950D01*
X113009071Y-88416214D01*
X112989653Y-88477613D01*
X112942061Y-88520994D01*
X112879132Y-88534657D01*
X112817835Y-88514918D01*
X112774704Y-88467100D01*
X112739447Y-88397905D01*
X112652093Y-88310551D01*
X112542018Y-88254464D01*
X112450693Y-88240000D01*
X112375000Y-88240000D01*
X112375000Y-88771000D01*
X112358387Y-88833000D01*
X112313000Y-88878387D01*
X112251000Y-88895000D01*
X111249000Y-88895000D01*
X111187000Y-88878387D01*
X111141613Y-88833000D01*
X111125000Y-88771000D01*
X111125000Y-88240001D01*
X111049314Y-88240001D01*
X110957980Y-88254465D01*
X110847907Y-88310551D01*
X110762180Y-88396278D01*
X110712817Y-88426527D01*
X110655101Y-88431069D01*
X110601613Y-88408914D01*
X110564014Y-88364891D01*
X110550499Y-88308598D01*
X110550499Y-88240000D01*
X111375000Y-88240000D01*
X111375000Y-88645000D01*
X112125000Y-88645000D01*
X112125000Y-88240001D01*
X112049314Y-88240001D01*
X111957980Y-88254465D01*
X111847904Y-88310553D01*
X111837679Y-88320778D01*
X111782093Y-88352870D01*
X111717907Y-88352870D01*
X111662321Y-88320778D01*
X111652094Y-88310551D01*
X111542018Y-88254464D01*
X111450693Y-88240000D01*
X111375000Y-88240000D01*
X110550499Y-88240000D01*
X110550499Y-88068482D01*
X110535646Y-87974696D01*
X110513277Y-87930794D01*
X110499858Y-87869631D01*
X110518035Y-87809710D01*
X110563173Y-87766310D01*
X110623762Y-87750500D01*
X110672461Y-87750500D01*
X110810553Y-87709953D01*
X110931628Y-87632143D01*
X111025877Y-87523373D01*
X111085665Y-87392457D01*
X111106147Y-87250000D01*
X111085665Y-87107543D01*
X111025877Y-86976627D01*
X111025876Y-86976626D01*
X111025876Y-86976625D01*
X110931630Y-86867858D01*
X110903899Y-86850036D01*
X110823415Y-86798312D01*
X110780787Y-86751866D01*
X110766507Y-86690459D01*
X110784269Y-86629966D01*
X110829481Y-86586027D01*
X110890456Y-86569999D01*
X110911538Y-86569999D01*
X110986373Y-86559096D01*
X111101807Y-86502665D01*
X111161965Y-86442507D01*
X111217553Y-86410413D01*
X111281740Y-86410413D01*
X111337328Y-86442507D01*
X111397898Y-86503077D01*
X111513481Y-86559582D01*
X111588415Y-86570500D01*
X111588418Y-86570500D01*
X111931582Y-86570500D01*
X111931585Y-86570500D01*
X112006518Y-86559582D01*
X112122101Y-86503077D01*
X112213077Y-86412101D01*
X112269582Y-86296518D01*
X112280500Y-86221585D01*
X112280500Y-86026544D01*
X112289939Y-85979091D01*
X112316816Y-85938865D01*
X112463046Y-85792634D01*
X112482905Y-85776509D01*
X112490669Y-85771437D01*
X112508496Y-85748531D01*
X112518228Y-85737511D01*
X112518370Y-85737311D01*
X112518376Y-85737306D01*
X112529586Y-85721603D01*
X112532600Y-85717561D01*
X112562517Y-85679126D01*
X112562517Y-85679124D01*
X112567107Y-85673228D01*
X112569238Y-85666067D01*
X112569240Y-85666066D01*
X112583129Y-85619412D01*
X112584679Y-85614569D01*
X112600500Y-85568488D01*
X112600500Y-85568484D01*
X112602925Y-85561420D01*
X112602616Y-85553955D01*
X112602617Y-85553954D01*
X112600606Y-85505321D01*
X112600500Y-85500198D01*
X112600500Y-85374499D01*
X112617113Y-85312499D01*
X112662500Y-85267112D01*
X112724500Y-85250499D01*
X112794014Y-85250499D01*
X112794018Y-85250499D01*
X112887804Y-85235646D01*
X112962386Y-85197643D01*
X113018342Y-85169134D01*
X113018872Y-85170174D01*
X113054519Y-85150208D01*
X113121784Y-85152846D01*
X113177759Y-85190242D01*
X113193941Y-85225338D01*
X113195549Y-85224519D01*
X113260552Y-85352094D01*
X113347906Y-85439448D01*
X113457981Y-85495535D01*
X113549307Y-85510000D01*
X113625000Y-85510000D01*
X113625000Y-84979000D01*
X113641613Y-84917000D01*
X113687000Y-84871613D01*
X113749000Y-84855000D01*
X114309999Y-84855000D01*
X114309999Y-84809314D01*
X114295534Y-84717979D01*
X114272516Y-84672806D01*
X114259002Y-84617219D01*
X114271879Y-84561482D01*
X114308406Y-84517456D01*
X114360809Y-84494512D01*
X114417934Y-84497532D01*
X114428039Y-84500500D01*
X114571961Y-84500500D01*
X114710053Y-84459953D01*
X114831128Y-84382143D01*
X114925377Y-84273373D01*
X114985165Y-84142457D01*
X115005647Y-84000000D01*
X114985165Y-83857543D01*
X114983090Y-83853000D01*
X114925376Y-83726625D01*
X114910648Y-83709628D01*
X114883504Y-83656166D01*
X114884617Y-83596217D01*
X114913728Y-83543800D01*
X114964029Y-83511168D01*
X115023761Y-83505953D01*
X115049310Y-83510000D01*
X115125000Y-83510000D01*
X115125000Y-83105000D01*
X115375000Y-83105000D01*
X115375000Y-83509999D01*
X115450686Y-83509999D01*
X115542019Y-83495534D01*
X115652094Y-83439447D01*
X115662319Y-83429223D01*
X115717906Y-83397129D01*
X115782094Y-83397129D01*
X115837681Y-83429223D01*
X115847906Y-83439448D01*
X115957981Y-83495535D01*
X116049307Y-83510000D01*
X116125000Y-83510000D01*
X116125000Y-83105000D01*
X116375000Y-83105000D01*
X116375000Y-83509999D01*
X116450686Y-83509999D01*
X116542019Y-83495534D01*
X116652094Y-83439447D01*
X116739448Y-83352093D01*
X116795535Y-83242018D01*
X116810000Y-83150693D01*
X116810000Y-83105000D01*
X116375000Y-83105000D01*
X116125000Y-83105000D01*
X115375000Y-83105000D01*
X115125000Y-83105000D01*
X113690001Y-83105000D01*
X113690001Y-83150686D01*
X113704465Y-83242019D01*
X113738699Y-83309205D01*
X113752118Y-83370368D01*
X113733942Y-83430289D01*
X113688804Y-83473689D01*
X113628215Y-83489500D01*
X113549263Y-83489500D01*
X113457825Y-83503982D01*
X113347608Y-83560140D01*
X113274568Y-83633181D01*
X113234340Y-83660061D01*
X113186887Y-83669500D01*
X112724500Y-83669500D01*
X112662500Y-83652887D01*
X112617113Y-83607500D01*
X112600500Y-83545500D01*
X112600500Y-83474499D01*
X112617113Y-83412499D01*
X112662500Y-83367112D01*
X112724500Y-83350499D01*
X112794014Y-83350499D01*
X112794018Y-83350499D01*
X112887804Y-83335646D01*
X113000842Y-83278050D01*
X113090550Y-83188342D01*
X113148146Y-83075304D01*
X113163000Y-82981519D01*
X113162999Y-82618482D01*
X113148146Y-82524696D01*
X113101170Y-82432500D01*
X113090550Y-82411657D01*
X113000843Y-82321950D01*
X112887802Y-82264353D01*
X112794021Y-82249500D01*
X111705985Y-82249500D01*
X111659088Y-82256927D01*
X111612196Y-82264354D01*
X111612194Y-82264354D01*
X111612193Y-82264355D01*
X111499157Y-82321949D01*
X111409450Y-82411656D01*
X111351853Y-82524697D01*
X111337000Y-82618478D01*
X111337000Y-82981514D01*
X111339912Y-82999901D01*
X111351854Y-83075304D01*
X111351854Y-83075305D01*
X111351855Y-83075306D01*
X111409449Y-83188342D01*
X111499156Y-83278049D01*
X111499158Y-83278050D01*
X111612196Y-83335646D01*
X111643457Y-83340597D01*
X111705979Y-83350500D01*
X111705981Y-83350500D01*
X111775500Y-83350500D01*
X111837500Y-83367113D01*
X111882887Y-83412500D01*
X111899500Y-83474500D01*
X111899500Y-83525500D01*
X111882887Y-83587500D01*
X111837500Y-83632887D01*
X111775500Y-83649500D01*
X111549207Y-83649500D01*
X111523761Y-83646861D01*
X111514685Y-83644958D01*
X111485884Y-83648548D01*
X111471203Y-83649459D01*
X111451986Y-83652665D01*
X111446924Y-83653402D01*
X111391192Y-83660350D01*
X111341813Y-83687072D01*
X111337261Y-83689415D01*
X111286804Y-83714082D01*
X111248780Y-83755387D01*
X111245233Y-83759083D01*
X111096089Y-83908227D01*
X111040502Y-83940321D01*
X110976314Y-83940321D01*
X110920727Y-83908227D01*
X110887500Y-83875000D01*
X109974000Y-83875000D01*
X109912000Y-83858387D01*
X109866613Y-83813000D01*
X109850000Y-83751000D01*
X109850000Y-83749000D01*
X109866613Y-83687000D01*
X109912000Y-83641613D01*
X109974000Y-83625000D01*
X110887499Y-83625000D01*
X110887499Y-83568522D01*
X110872663Y-83474850D01*
X110811716Y-83355232D01*
X110784125Y-83307443D01*
X110784128Y-83243252D01*
X110813416Y-83192529D01*
X110815548Y-83188343D01*
X110815550Y-83188342D01*
X110873146Y-83075304D01*
X110888000Y-82981519D01*
X110887999Y-82618482D01*
X110873146Y-82524696D01*
X110826170Y-82432500D01*
X110815550Y-82411657D01*
X110725843Y-82321950D01*
X110612802Y-82264353D01*
X110519021Y-82249500D01*
X109430985Y-82249500D01*
X109384088Y-82256927D01*
X109337196Y-82264354D01*
X109337194Y-82264354D01*
X109337193Y-82264355D01*
X109224159Y-82321948D01*
X109178543Y-82367564D01*
X109134450Y-82411658D01*
X109134448Y-82411659D01*
X109132928Y-82413181D01*
X109092699Y-82440061D01*
X109045246Y-82449500D01*
X108474500Y-82449500D01*
X108412500Y-82432887D01*
X108367113Y-82387500D01*
X108350500Y-82325500D01*
X108350500Y-80886707D01*
X108353139Y-80861261D01*
X108353173Y-80861094D01*
X108355042Y-80852185D01*
X108351452Y-80823384D01*
X108350540Y-80808705D01*
X108350500Y-80808465D01*
X108350500Y-80808460D01*
X108347331Y-80789472D01*
X108346594Y-80784415D01*
X108346354Y-80782487D01*
X108340573Y-80736107D01*
X108340572Y-80736105D01*
X108339648Y-80728691D01*
X108336092Y-80722120D01*
X108336092Y-80722119D01*
X108312925Y-80679311D01*
X108310581Y-80674756D01*
X108285918Y-80624305D01*
X108259923Y-80600375D01*
X108244587Y-80586257D01*
X108240914Y-80582732D01*
X106961818Y-79303636D01*
X106934938Y-79263408D01*
X106925499Y-79215955D01*
X106925499Y-79174675D01*
X107649500Y-79174675D01*
X107664033Y-79247738D01*
X107664033Y-79247739D01*
X107664034Y-79247740D01*
X107719399Y-79330601D01*
X107802260Y-79385966D01*
X107838793Y-79393233D01*
X107875325Y-79400500D01*
X107875326Y-79400500D01*
X109574674Y-79400500D01*
X109574675Y-79400500D01*
X109599029Y-79395655D01*
X109647740Y-79385966D01*
X109730601Y-79330601D01*
X109785966Y-79247740D01*
X109800500Y-79174675D01*
X116699500Y-79174675D01*
X116714033Y-79247738D01*
X116714033Y-79247739D01*
X116714034Y-79247740D01*
X116769399Y-79330601D01*
X116852260Y-79385966D01*
X116888793Y-79393233D01*
X116925325Y-79400500D01*
X116925326Y-79400500D01*
X118624674Y-79400500D01*
X118624675Y-79400500D01*
X118649029Y-79395655D01*
X118697740Y-79385966D01*
X118780601Y-79330601D01*
X118835966Y-79247740D01*
X118850500Y-79174674D01*
X118850500Y-77825326D01*
X118849440Y-77819999D01*
X118836462Y-77754754D01*
X118835966Y-77752260D01*
X118780601Y-77669399D01*
X118697740Y-77614034D01*
X118697739Y-77614033D01*
X118697738Y-77614033D01*
X118624675Y-77599500D01*
X118624674Y-77599500D01*
X116925326Y-77599500D01*
X116925325Y-77599500D01*
X116852261Y-77614033D01*
X116769399Y-77669399D01*
X116714033Y-77752261D01*
X116699500Y-77825325D01*
X116699500Y-79174675D01*
X109800500Y-79174675D01*
X109800500Y-79174674D01*
X109800500Y-77825326D01*
X109799440Y-77819999D01*
X109786462Y-77754754D01*
X109785966Y-77752260D01*
X109730601Y-77669399D01*
X109647740Y-77614034D01*
X109647739Y-77614033D01*
X109647738Y-77614033D01*
X109574675Y-77599500D01*
X109574674Y-77599500D01*
X107875326Y-77599500D01*
X107875325Y-77599500D01*
X107802261Y-77614033D01*
X107719399Y-77669399D01*
X107664033Y-77752261D01*
X107649500Y-77825325D01*
X107649500Y-79174675D01*
X106925499Y-79174675D01*
X106925499Y-78502130D01*
X106924710Y-78494788D01*
X106919091Y-78442517D01*
X106868796Y-78307669D01*
X106782546Y-78192454D01*
X106696310Y-78127898D01*
X106653058Y-78095519D01*
X106653950Y-78094326D01*
X106638932Y-78084926D01*
X106610512Y-78043996D01*
X106600500Y-77995182D01*
X106600500Y-75574000D01*
X106617113Y-75512000D01*
X106662500Y-75466613D01*
X106724500Y-75450000D01*
X106927125Y-75450000D01*
X107000043Y-75435495D01*
X107082739Y-75380239D01*
X107137995Y-75297543D01*
X107152500Y-75224625D01*
X107152500Y-75125000D01*
X106561500Y-75125000D01*
X106499500Y-75108387D01*
X106454113Y-75063000D01*
X106437500Y-75001000D01*
X106437500Y-74598862D01*
X106446939Y-74551409D01*
X106447880Y-74550000D01*
X106740000Y-74550000D01*
X106740000Y-74875000D01*
X107152500Y-74875000D01*
X107152500Y-74775375D01*
X107137995Y-74702456D01*
X107082739Y-74619760D01*
X107000043Y-74564504D01*
X106927125Y-74550000D01*
X106740000Y-74550000D01*
X106447880Y-74550000D01*
X106473819Y-74511181D01*
X106475000Y-74510000D01*
X106475000Y-74025000D01*
X105862500Y-74025000D01*
X105862500Y-74551000D01*
X105845887Y-74613000D01*
X105800500Y-74658387D01*
X105738500Y-74675000D01*
X104761500Y-74675000D01*
X104699500Y-74658387D01*
X104654113Y-74613000D01*
X104637500Y-74551000D01*
X104637500Y-74025000D01*
X104887500Y-74025000D01*
X104887500Y-74425000D01*
X105612500Y-74425000D01*
X105612500Y-74025000D01*
X104887500Y-74025000D01*
X104637500Y-74025000D01*
X104025000Y-74025000D01*
X104025000Y-74510000D01*
X104026181Y-74511181D01*
X104053061Y-74551409D01*
X104062500Y-74598862D01*
X104062500Y-75001000D01*
X104045887Y-75063000D01*
X104000500Y-75108387D01*
X103938500Y-75125000D01*
X103884000Y-75125000D01*
X103822000Y-75108387D01*
X103776613Y-75063000D01*
X103760000Y-75001000D01*
X103760000Y-74550000D01*
X103572875Y-74550000D01*
X103499956Y-74564504D01*
X103417260Y-74619760D01*
X103362004Y-74702456D01*
X103346117Y-74782328D01*
X103320353Y-74836801D01*
X103271952Y-74872697D01*
X103212346Y-74881539D01*
X103155609Y-74861238D01*
X103115142Y-74816589D01*
X103100500Y-74758136D01*
X103100500Y-73041864D01*
X103115142Y-72983411D01*
X103155609Y-72938762D01*
X103212346Y-72918461D01*
X103271952Y-72927303D01*
X103320353Y-72963199D01*
X103346117Y-73017672D01*
X103362004Y-73097543D01*
X103417260Y-73180239D01*
X103499956Y-73235495D01*
X103572875Y-73250000D01*
X103760000Y-73250000D01*
X103760000Y-72558016D01*
X103773054Y-72502636D01*
X103809466Y-72458917D01*
X103861571Y-72436061D01*
X103918398Y-72438883D01*
X103967983Y-72466786D01*
X103969581Y-72468257D01*
X103969582Y-72468258D01*
X103978136Y-72476133D01*
X104022483Y-72516957D01*
X104052056Y-72558377D01*
X104062500Y-72608187D01*
X104062500Y-73201138D01*
X104053061Y-73248591D01*
X104026181Y-73288819D01*
X104025000Y-73290000D01*
X104025000Y-73775000D01*
X104637500Y-73775000D01*
X104637500Y-73375000D01*
X104887500Y-73375000D01*
X104887500Y-73775000D01*
X105612500Y-73775000D01*
X105612500Y-73375000D01*
X104887500Y-73375000D01*
X104637500Y-73375000D01*
X104637500Y-73249000D01*
X104654113Y-73187000D01*
X104699500Y-73141613D01*
X104761500Y-73125000D01*
X105738500Y-73125000D01*
X105800500Y-73141613D01*
X105845887Y-73187000D01*
X105862500Y-73249000D01*
X105862500Y-73775000D01*
X106475000Y-73775000D01*
X106475000Y-73290000D01*
X106473819Y-73288819D01*
X106446939Y-73248591D01*
X106437500Y-73201138D01*
X106437500Y-72925000D01*
X106740000Y-72925000D01*
X106740000Y-73250000D01*
X106927125Y-73250000D01*
X107000043Y-73235495D01*
X107082739Y-73180239D01*
X107137995Y-73097543D01*
X107152500Y-73024625D01*
X107152500Y-72925000D01*
X106740000Y-72925000D01*
X106437500Y-72925000D01*
X106437500Y-72613279D01*
X106452445Y-72554261D01*
X106484103Y-72519871D01*
X106490665Y-72511438D01*
X106490669Y-72511437D01*
X106518148Y-72476131D01*
X106566189Y-72438739D01*
X106626239Y-72428718D01*
X106683821Y-72448486D01*
X106725055Y-72493277D01*
X106740000Y-72552295D01*
X106740000Y-72675000D01*
X107152500Y-72675000D01*
X107152500Y-72575375D01*
X107137995Y-72502456D01*
X107082739Y-72419760D01*
X107000043Y-72364504D01*
X106927125Y-72350000D01*
X106724500Y-72350000D01*
X106662500Y-72333387D01*
X106617113Y-72288000D01*
X106600500Y-72226000D01*
X106600500Y-71696544D01*
X106609939Y-71649092D01*
X106636816Y-71608865D01*
X106963048Y-71282631D01*
X106982892Y-71266517D01*
X106990669Y-71261437D01*
X107008500Y-71238526D01*
X107018227Y-71227513D01*
X107022906Y-71220960D01*
X107029553Y-71211647D01*
X107032604Y-71207555D01*
X107062517Y-71169126D01*
X107062517Y-71169123D01*
X107067108Y-71163226D01*
X107071461Y-71148607D01*
X107083129Y-71109412D01*
X107084679Y-71104569D01*
X107100500Y-71058488D01*
X107100500Y-71058484D01*
X107102925Y-71051420D01*
X107102616Y-71043955D01*
X107102617Y-71043954D01*
X107100606Y-70995321D01*
X107100500Y-70990198D01*
X107100500Y-70049212D01*
X107103139Y-70023766D01*
X107103364Y-70022687D01*
X107105043Y-70014685D01*
X107101452Y-69985877D01*
X107100541Y-69971213D01*
X107100500Y-69970967D01*
X107100500Y-69970960D01*
X107097330Y-69951965D01*
X107096595Y-69946919D01*
X107090573Y-69898607D01*
X107090572Y-69898605D01*
X107089648Y-69891191D01*
X107086092Y-69884620D01*
X107086092Y-69884619D01*
X107062925Y-69841811D01*
X107060581Y-69837256D01*
X107035918Y-69786805D01*
X107030418Y-69781742D01*
X106994587Y-69748757D01*
X106990914Y-69745232D01*
X106532638Y-69286956D01*
X106516509Y-69267094D01*
X106511437Y-69259330D01*
X106488533Y-69241504D01*
X106477508Y-69231768D01*
X106461653Y-69220448D01*
X106457544Y-69217384D01*
X106413229Y-69182892D01*
X106359409Y-69166869D01*
X106354531Y-69165306D01*
X106301421Y-69147074D01*
X106245332Y-69149394D01*
X106240208Y-69149500D01*
X103925018Y-69149500D01*
X103875208Y-69139056D01*
X103833790Y-69109484D01*
X103701784Y-68966087D01*
X103518626Y-68823530D01*
X103314503Y-68713064D01*
X103314499Y-68713062D01*
X103314498Y-68713062D01*
X103094984Y-68637702D01*
X102923282Y-68609050D01*
X102866049Y-68599500D01*
X102633951Y-68599500D01*
X102588164Y-68607140D01*
X102405015Y-68637702D01*
X102185501Y-68713062D01*
X102185497Y-68713063D01*
X102185497Y-68713064D01*
X102097562Y-68760652D01*
X101981372Y-68823531D01*
X101798215Y-68966087D01*
X101641020Y-69136848D01*
X101514076Y-69331150D01*
X101420844Y-69543696D01*
X101420842Y-69543700D01*
X101420843Y-69543700D01*
X101368601Y-69750000D01*
X101363865Y-69768700D01*
X101344699Y-70000000D01*
X101363865Y-70231299D01*
X101363865Y-70231301D01*
X101363866Y-70231305D01*
X101415956Y-70437000D01*
X101420844Y-70456303D01*
X101487555Y-70608387D01*
X101514076Y-70668849D01*
X101641021Y-70863153D01*
X101798216Y-71033913D01*
X101981374Y-71176470D01*
X102185497Y-71286936D01*
X102185500Y-71286937D01*
X102185502Y-71286938D01*
X102315762Y-71331656D01*
X102359483Y-71357707D01*
X102389056Y-71399127D01*
X102399500Y-71448937D01*
X102399500Y-72266858D01*
X102381859Y-72330606D01*
X102333954Y-72376216D01*
X102269417Y-72390709D01*
X102206611Y-72369961D01*
X102197740Y-72364034D01*
X102124675Y-72349500D01*
X102124674Y-72349500D01*
X101075326Y-72349500D01*
X101075325Y-72349500D01*
X101002261Y-72364033D01*
X100919399Y-72419399D01*
X100853103Y-72518620D01*
X100808454Y-72559088D01*
X100750000Y-72573730D01*
X100691546Y-72559088D01*
X100646897Y-72518620D01*
X100635966Y-72502260D01*
X100580601Y-72419399D01*
X100497740Y-72364034D01*
X100497739Y-72364033D01*
X100497738Y-72364033D01*
X100424675Y-72349500D01*
X100424674Y-72349500D01*
X99375326Y-72349500D01*
X99375325Y-72349500D01*
X99302261Y-72364033D01*
X99219399Y-72419399D01*
X99164033Y-72502261D01*
X99149500Y-72575325D01*
X99149500Y-74174675D01*
X99164033Y-74247738D01*
X99164033Y-74247739D01*
X99164034Y-74247740D01*
X99219399Y-74330601D01*
X99302260Y-74385966D01*
X99338793Y-74393233D01*
X99375325Y-74400500D01*
X99375326Y-74400500D01*
X99425500Y-74400500D01*
X99487500Y-74417113D01*
X99532887Y-74462500D01*
X99549500Y-74524500D01*
X99549500Y-77230376D01*
X99549077Y-77240614D01*
X99545835Y-77279744D01*
X99549500Y-77309142D01*
X99549500Y-77475500D01*
X99532887Y-77537500D01*
X99487500Y-77582887D01*
X99425500Y-77599500D01*
X99375325Y-77599500D01*
X99302261Y-77614033D01*
X99219399Y-77669399D01*
X99164033Y-77752261D01*
X99149500Y-77825325D01*
X99149500Y-79424675D01*
X99164033Y-79497738D01*
X99164033Y-79497739D01*
X99164034Y-79497740D01*
X99219399Y-79580601D01*
X99302260Y-79635966D01*
X99338793Y-79643233D01*
X99375325Y-79650500D01*
X99375326Y-79650500D01*
X100424674Y-79650500D01*
X100424675Y-79650500D01*
X100449029Y-79645655D01*
X100497740Y-79635966D01*
X100580601Y-79580601D01*
X100635966Y-79497740D01*
X100635966Y-79497737D01*
X100646897Y-79481379D01*
X100691546Y-79440911D01*
X100750000Y-79426269D01*
X100808454Y-79440911D01*
X100853103Y-79481379D01*
X100864033Y-79497738D01*
X100864034Y-79497740D01*
X100919399Y-79580601D01*
X101002260Y-79635966D01*
X101038793Y-79643233D01*
X101075325Y-79650500D01*
X101075326Y-79650500D01*
X102124674Y-79650500D01*
X102124675Y-79650500D01*
X102149029Y-79645655D01*
X102197740Y-79635966D01*
X102280601Y-79580601D01*
X102335966Y-79497740D01*
X102350500Y-79424674D01*
X102350500Y-78395544D01*
X102364015Y-78339249D01*
X102401615Y-78295226D01*
X102455102Y-78273071D01*
X102512818Y-78277613D01*
X102562181Y-78307863D01*
X103467361Y-79213043D01*
X103483489Y-79232903D01*
X103488563Y-79240670D01*
X103511469Y-79258498D01*
X103522485Y-79268226D01*
X103522548Y-79268271D01*
X103522586Y-79268315D01*
X103522989Y-79268671D01*
X103529960Y-79275642D01*
X103529404Y-79276197D01*
X103560749Y-79312438D01*
X103574500Y-79369191D01*
X103574500Y-79497869D01*
X103575697Y-79509000D01*
X103580909Y-79557483D01*
X103631204Y-79692331D01*
X103717454Y-79807546D01*
X103832669Y-79893796D01*
X103967517Y-79944091D01*
X104027127Y-79950500D01*
X104647872Y-79950499D01*
X104707483Y-79944091D01*
X104842331Y-79893796D01*
X104957546Y-79807546D01*
X105043796Y-79692331D01*
X105094091Y-79557483D01*
X105100500Y-79497873D01*
X105100499Y-78784042D01*
X105109938Y-78736590D01*
X105136815Y-78696365D01*
X105187821Y-78645359D01*
X105237182Y-78615111D01*
X105294898Y-78610569D01*
X105348385Y-78632724D01*
X105385985Y-78676747D01*
X105399500Y-78733042D01*
X105399500Y-79497869D01*
X105400697Y-79509000D01*
X105405909Y-79557483D01*
X105456204Y-79692331D01*
X105542454Y-79807546D01*
X105657669Y-79893796D01*
X105792517Y-79944091D01*
X105852127Y-79950500D01*
X106472872Y-79950499D01*
X106532483Y-79944091D01*
X106532484Y-79944090D01*
X106544311Y-79942819D01*
X106598819Y-79949173D01*
X106645246Y-79978428D01*
X107613181Y-80946363D01*
X107640061Y-80986591D01*
X107649500Y-81034044D01*
X107649500Y-82700788D01*
X107646861Y-82726234D01*
X107644957Y-82735314D01*
X107648548Y-82764123D01*
X107649500Y-82779460D01*
X107649500Y-83075501D01*
X107632887Y-83137501D01*
X107587500Y-83182888D01*
X107525500Y-83199501D01*
X107380982Y-83199501D01*
X107287196Y-83214354D01*
X107287194Y-83214354D01*
X107287193Y-83214355D01*
X107274431Y-83220858D01*
X107208407Y-83233991D01*
X107145251Y-83210691D01*
X107103576Y-83157825D01*
X107095664Y-83090975D01*
X107098146Y-83075302D01*
X107113000Y-82981519D01*
X107112999Y-82618482D01*
X107098146Y-82524696D01*
X107051170Y-82432500D01*
X107040550Y-82411657D01*
X106950843Y-82321950D01*
X106837802Y-82264353D01*
X106755102Y-82251255D01*
X106701615Y-82229100D01*
X106664015Y-82185077D01*
X106650500Y-82128782D01*
X106650500Y-81514221D01*
X106659939Y-81466768D01*
X106686819Y-81426539D01*
X106701345Y-81412012D01*
X106701347Y-81412012D01*
X106787012Y-81326347D01*
X106787012Y-81326345D01*
X106787014Y-81326344D01*
X106840219Y-81217512D01*
X106840219Y-81217510D01*
X106840220Y-81217509D01*
X106850500Y-81146949D01*
X106850499Y-80853052D01*
X106840220Y-80782491D01*
X106787012Y-80673653D01*
X106787011Y-80673652D01*
X106787011Y-80673651D01*
X106701346Y-80587986D01*
X106592512Y-80534780D01*
X106562268Y-80530374D01*
X106521949Y-80524500D01*
X106521945Y-80524500D01*
X106078053Y-80524500D01*
X106007491Y-80534780D01*
X105898651Y-80587988D01*
X105812986Y-80673653D01*
X105759780Y-80782487D01*
X105755961Y-80808705D01*
X105749627Y-80852185D01*
X105749500Y-80853054D01*
X105749500Y-81146946D01*
X105757436Y-81201420D01*
X105759780Y-81217509D01*
X105761383Y-81220787D01*
X105812987Y-81326346D01*
X105812988Y-81326347D01*
X105898653Y-81412012D01*
X105898654Y-81412012D01*
X105913181Y-81426539D01*
X105940061Y-81466768D01*
X105949500Y-81514221D01*
X105949500Y-82125501D01*
X105932887Y-82187501D01*
X105887500Y-82232888D01*
X105825500Y-82249501D01*
X105562000Y-82249501D01*
X105500000Y-82232888D01*
X105454613Y-82187501D01*
X105438000Y-82125501D01*
X105438000Y-81936713D01*
X105440639Y-81911267D01*
X105440864Y-81910188D01*
X105442543Y-81902186D01*
X105439334Y-81876443D01*
X105438952Y-81873378D01*
X105438041Y-81858714D01*
X105438000Y-81858468D01*
X105438000Y-81858460D01*
X105434825Y-81839438D01*
X105434097Y-81834441D01*
X105428073Y-81786108D01*
X105428072Y-81786106D01*
X105427148Y-81778691D01*
X105411914Y-81750541D01*
X105400424Y-81729308D01*
X105398077Y-81724749D01*
X105373418Y-81674305D01*
X105357945Y-81660061D01*
X105332087Y-81636257D01*
X105328414Y-81632732D01*
X104786818Y-81091136D01*
X104759938Y-81050908D01*
X104750499Y-81003455D01*
X104750499Y-80853054D01*
X104750499Y-80853051D01*
X104740220Y-80782491D01*
X104687012Y-80673653D01*
X104687011Y-80673652D01*
X104687011Y-80673651D01*
X104601346Y-80587986D01*
X104492512Y-80534780D01*
X104462268Y-80530374D01*
X104421949Y-80524500D01*
X104421945Y-80524500D01*
X103978053Y-80524500D01*
X103907491Y-80534780D01*
X103798651Y-80587988D01*
X103712986Y-80673653D01*
X103659780Y-80782487D01*
X103655961Y-80808705D01*
X103649627Y-80852185D01*
X103649500Y-80853054D01*
X103649500Y-81146946D01*
X103657436Y-81201420D01*
X103659780Y-81217509D01*
X103661383Y-81220787D01*
X103712988Y-81326348D01*
X103798653Y-81412013D01*
X103907487Y-81465219D01*
X103907489Y-81465219D01*
X103907491Y-81465220D01*
X103978051Y-81475500D01*
X104128455Y-81475499D01*
X104175907Y-81484938D01*
X104216136Y-81511818D01*
X104700681Y-81996363D01*
X104727561Y-82036591D01*
X104737000Y-82084044D01*
X104737000Y-83116000D01*
X104720387Y-83178000D01*
X104675000Y-83223387D01*
X104613000Y-83240000D01*
X104345000Y-83240000D01*
X104345000Y-83791000D01*
X104328387Y-83853000D01*
X104283000Y-83898387D01*
X104221000Y-83915000D01*
X103657000Y-83915000D01*
X103595000Y-83898387D01*
X103549613Y-83853000D01*
X103533000Y-83791000D01*
X103533000Y-83789000D01*
X103549613Y-83727000D01*
X103595000Y-83681613D01*
X103657000Y-83665000D01*
X104095000Y-83665000D01*
X104095000Y-83240000D01*
X103695379Y-83240000D01*
X103681191Y-83242822D01*
X103626870Y-83241488D01*
X103578335Y-83217057D01*
X103544905Y-83174221D01*
X103533000Y-83121204D01*
X103533000Y-82224760D01*
X103533028Y-82224616D01*
X103533024Y-82224616D01*
X103533039Y-82200002D01*
X103533041Y-82200000D01*
X103532962Y-82199808D01*
X103532884Y-82199618D01*
X103532880Y-82199614D01*
X103532694Y-82199538D01*
X103532502Y-82199459D01*
X103507946Y-82199459D01*
X103507740Y-82199500D01*
X102674000Y-82199500D01*
X102612000Y-82182887D01*
X102566613Y-82137500D01*
X102550000Y-82075500D01*
X102550000Y-81525000D01*
X99450000Y-81525000D01*
X99450000Y-82075500D01*
X99433387Y-82137500D01*
X99388000Y-82182887D01*
X99326000Y-82199500D01*
X98874500Y-82199500D01*
X98812500Y-82182887D01*
X98767113Y-82137500D01*
X98750500Y-82075500D01*
X98750500Y-81774760D01*
X98750528Y-81774616D01*
X98750524Y-81774616D01*
X98750539Y-81750002D01*
X98750541Y-81750000D01*
X98750462Y-81749808D01*
X98750384Y-81749618D01*
X98750380Y-81749614D01*
X98750194Y-81749538D01*
X98750002Y-81749459D01*
X98725446Y-81749459D01*
X98725240Y-81749500D01*
X97374500Y-81749500D01*
X97312500Y-81732887D01*
X97267113Y-81687500D01*
X97250500Y-81625500D01*
X97250500Y-81275000D01*
X99450000Y-81275000D01*
X100875000Y-81275000D01*
X100875000Y-80375000D01*
X101125000Y-80375000D01*
X101125000Y-81275000D01*
X102550000Y-81275000D01*
X102550000Y-80600375D01*
X102535495Y-80527456D01*
X102480239Y-80444760D01*
X102397543Y-80389504D01*
X102324625Y-80375000D01*
X101125000Y-80375000D01*
X100875000Y-80375000D01*
X99675375Y-80375000D01*
X99602456Y-80389504D01*
X99519760Y-80444760D01*
X99464504Y-80527456D01*
X99450000Y-80600375D01*
X99450000Y-81275000D01*
X97250500Y-81275000D01*
X97250500Y-80124500D01*
X97267113Y-80062500D01*
X97312500Y-80017113D01*
X97374500Y-80000500D01*
X98475240Y-80000500D01*
X98475383Y-80000528D01*
X98475384Y-80000524D01*
X98499997Y-80000539D01*
X98500000Y-80000541D01*
X98500383Y-80000383D01*
X98500500Y-80000099D01*
X98500541Y-80000000D01*
X98500541Y-79975446D01*
X98500500Y-79975240D01*
X98500500Y-72024760D01*
X98500528Y-72024616D01*
X98500524Y-72024616D01*
X98500539Y-72000002D01*
X98500541Y-72000000D01*
X98500461Y-71999808D01*
X98500384Y-71999618D01*
X98500380Y-71999614D01*
X98500194Y-71999538D01*
X98500002Y-71999459D01*
X98475446Y-71999459D01*
X98475240Y-71999500D01*
X97374500Y-71999500D01*
X97312500Y-71982887D01*
X97267113Y-71937500D01*
X97250500Y-71875500D01*
X97250500Y-70125000D01*
X97850000Y-70125000D01*
X97850000Y-71174625D01*
X97864504Y-71247543D01*
X97919760Y-71330239D01*
X98002456Y-71385495D01*
X98075375Y-71400000D01*
X99125000Y-71400000D01*
X99125000Y-70125000D01*
X99375000Y-70125000D01*
X99375000Y-71400000D01*
X100424625Y-71400000D01*
X100497543Y-71385495D01*
X100580239Y-71330239D01*
X100635495Y-71247543D01*
X100650000Y-71174625D01*
X100650000Y-70125000D01*
X99375000Y-70125000D01*
X99125000Y-70125000D01*
X97850000Y-70125000D01*
X97250500Y-70125000D01*
X97250500Y-69875000D01*
X97850000Y-69875000D01*
X99125000Y-69875000D01*
X99125000Y-68600000D01*
X99375000Y-68600000D01*
X99375000Y-69875000D01*
X100650000Y-69875000D01*
X100650000Y-68825375D01*
X100635495Y-68752456D01*
X100580239Y-68669760D01*
X100497543Y-68614504D01*
X100424625Y-68600000D01*
X99375000Y-68600000D01*
X99125000Y-68600000D01*
X98075375Y-68600000D01*
X98002456Y-68614504D01*
X97919760Y-68669760D01*
X97864504Y-68752456D01*
X97850000Y-68825375D01*
X97850000Y-69875000D01*
X97250500Y-69875000D01*
X97250500Y-69005412D01*
X97250972Y-68994605D01*
X97254415Y-68955250D01*
X97254540Y-68953904D01*
X97266918Y-68828221D01*
X97270540Y-68808318D01*
X97287908Y-68743498D01*
X97288956Y-68739828D01*
X97316685Y-68648419D01*
X97322948Y-68632049D01*
X97353700Y-68566102D01*
X97356670Y-68560161D01*
X97399012Y-68480944D01*
X97406786Y-68468289D01*
X97449639Y-68407089D01*
X97455330Y-68399587D01*
X97511191Y-68331521D01*
X97519325Y-68322547D01*
X97572547Y-68269325D01*
X97581521Y-68261191D01*
X97649587Y-68205330D01*
X97657089Y-68199639D01*
X97718289Y-68156786D01*
X97730944Y-68149012D01*
X97810161Y-68106670D01*
X97816102Y-68103700D01*
X97882049Y-68072948D01*
X97898419Y-68066685D01*
X97989828Y-68038956D01*
X97993498Y-68037908D01*
X98058318Y-68020540D01*
X98078221Y-68016918D01*
X98203927Y-68004537D01*
X98205204Y-68004419D01*
X98244605Y-68000971D01*
X98255412Y-68000500D01*
X106448430Y-68000500D01*
X106495883Y-68009939D01*
G37*
%TD.AperFunction*%
%TA.AperFunction,Conductor*%
G36*
X106489394Y-87654216D02*
G01*
X106507316Y-87675201D01*
X106508063Y-87674455D01*
X106521279Y-87687671D01*
X106553372Y-87743257D01*
X106553374Y-87807442D01*
X106525780Y-87855238D01*
X106470876Y-87962995D01*
X106429796Y-88009457D01*
X106371355Y-88030214D01*
X106310171Y-88020075D01*
X106261550Y-87981576D01*
X106237653Y-87924346D01*
X106235165Y-87907043D01*
X106225116Y-87885040D01*
X106213997Y-87838187D01*
X106221564Y-87790632D01*
X106246678Y-87749545D01*
X106251219Y-87744612D01*
X106254745Y-87740935D01*
X106328829Y-87666852D01*
X106378191Y-87636604D01*
X106435907Y-87632062D01*
X106489394Y-87654216D01*
G37*
%TD.AperFunction*%
%TA.AperFunction,Conductor*%
G36*
X110803000Y-85891613D02*
G01*
X110848387Y-85937000D01*
X110865000Y-85999000D01*
X110865000Y-86001000D01*
X110848387Y-86063000D01*
X110803000Y-86108387D01*
X110741000Y-86125000D01*
X109759000Y-86125000D01*
X109697000Y-86108387D01*
X109651613Y-86063000D01*
X109635000Y-86001000D01*
X109635000Y-85999000D01*
X109651613Y-85937000D01*
X109697000Y-85891613D01*
X109759000Y-85875000D01*
X110741000Y-85875000D01*
X110803000Y-85891613D01*
G37*
%TD.AperFunction*%
%TA.AperFunction,Conductor*%
G36*
X108300909Y-85059939D02*
G01*
X108341137Y-85086819D01*
X108353181Y-85098863D01*
X108380061Y-85139091D01*
X108389500Y-85186544D01*
X108389500Y-85200788D01*
X108386861Y-85226234D01*
X108384957Y-85235314D01*
X108388548Y-85264123D01*
X108389500Y-85279460D01*
X108389500Y-85433960D01*
X108380061Y-85481413D01*
X108353181Y-85521641D01*
X108337329Y-85537493D01*
X108281742Y-85569587D01*
X108217554Y-85569587D01*
X108161967Y-85537493D01*
X108121809Y-85497335D01*
X108006371Y-85440902D01*
X107931544Y-85430000D01*
X107885000Y-85430000D01*
X107885000Y-86001000D01*
X107868387Y-86063000D01*
X107823000Y-86108387D01*
X107761000Y-86125000D01*
X107759000Y-86125000D01*
X107697000Y-86108387D01*
X107651613Y-86063000D01*
X107635000Y-86001000D01*
X107635000Y-85430001D01*
X107588462Y-85430001D01*
X107513626Y-85440903D01*
X107398191Y-85497335D01*
X107338033Y-85557493D01*
X107282445Y-85589586D01*
X107218258Y-85589586D01*
X107162671Y-85557492D01*
X107102101Y-85496922D01*
X106986518Y-85440417D01*
X106944116Y-85434239D01*
X106886969Y-85410262D01*
X106848562Y-85361625D01*
X106838489Y-85300476D01*
X106859265Y-85242090D01*
X106905699Y-85201051D01*
X106950842Y-85178050D01*
X107040550Y-85088342D01*
X107040551Y-85088339D01*
X107042072Y-85086819D01*
X107082301Y-85059939D01*
X107129754Y-85050500D01*
X108253456Y-85050500D01*
X108300909Y-85059939D01*
G37*
%TD.AperFunction*%
%TA.AperFunction,Conductor*%
G36*
X102986115Y-76413071D02*
G01*
X103022839Y-76459485D01*
X103074623Y-76572874D01*
X103168870Y-76681641D01*
X103168872Y-76681643D01*
X103274460Y-76749500D01*
X103289947Y-76759453D01*
X103398930Y-76791453D01*
X103445810Y-76817251D01*
X103477455Y-76860402D01*
X103487971Y-76912869D01*
X103482786Y-76934319D01*
X103483696Y-76934452D01*
X103470000Y-77028456D01*
X103470000Y-77125000D01*
X103991000Y-77125000D01*
X104053000Y-77141613D01*
X104098387Y-77187000D01*
X104115000Y-77249000D01*
X104115000Y-77819999D01*
X104132820Y-77837819D01*
X104163070Y-77887181D01*
X104163912Y-77897878D01*
X104176791Y-77857678D01*
X104226140Y-77814099D01*
X104351806Y-77752665D01*
X104411965Y-77692507D01*
X104467553Y-77660413D01*
X104531740Y-77660413D01*
X104587328Y-77692507D01*
X104647898Y-77753077D01*
X104780890Y-77818093D01*
X104779966Y-77819982D01*
X104815271Y-77835795D01*
X104853313Y-77891782D01*
X104856285Y-77959404D01*
X104823303Y-78018513D01*
X104820245Y-78021571D01*
X104773817Y-78050827D01*
X104719310Y-78057180D01*
X104673231Y-78052226D01*
X104647873Y-78049500D01*
X104647870Y-78049500D01*
X104280599Y-78049500D01*
X104217125Y-78032023D01*
X104171544Y-77984517D01*
X104164253Y-77953005D01*
X104145459Y-77998383D01*
X104101437Y-78035983D01*
X104045144Y-78049500D01*
X104027132Y-78049500D01*
X103967515Y-78055909D01*
X103961853Y-78058021D01*
X103958612Y-78058299D01*
X103956060Y-78060182D01*
X103832669Y-78106204D01*
X103717451Y-78192455D01*
X103683630Y-78237634D01*
X103627697Y-78279503D01*
X103558006Y-78284487D01*
X103496684Y-78251002D01*
X102636819Y-77391137D01*
X102626036Y-77375000D01*
X103470001Y-77375000D01*
X103470001Y-77471538D01*
X103480903Y-77546373D01*
X103537336Y-77661810D01*
X103628190Y-77752664D01*
X103743628Y-77809097D01*
X103818456Y-77820000D01*
X103864998Y-77820000D01*
X103865000Y-77819998D01*
X103865000Y-77375000D01*
X103470001Y-77375000D01*
X102626036Y-77375000D01*
X102609939Y-77350909D01*
X102600500Y-77303456D01*
X102600500Y-76696544D01*
X102609939Y-76649092D01*
X102636816Y-76608865D01*
X102822367Y-76423313D01*
X102872991Y-76392663D01*
X102932061Y-76388967D01*
X102986115Y-76413071D01*
G37*
%TD.AperFunction*%
%TA.AperFunction,Conductor*%
G36*
X104564891Y-69864015D02*
G01*
X104608914Y-69901615D01*
X104631069Y-69955102D01*
X104626527Y-70012818D01*
X104596277Y-70062181D01*
X104560551Y-70097906D01*
X104504464Y-70207981D01*
X104490000Y-70299307D01*
X104490000Y-70375000D01*
X105021000Y-70375000D01*
X105083000Y-70391613D01*
X105128387Y-70437000D01*
X105145000Y-70499000D01*
X105145000Y-70501000D01*
X105128387Y-70563000D01*
X105083000Y-70608387D01*
X105021000Y-70625000D01*
X104484043Y-70625000D01*
X104464980Y-70638023D01*
X104420298Y-70648361D01*
X104401351Y-70649145D01*
X104395328Y-70649394D01*
X104390208Y-70649500D01*
X104184208Y-70649500D01*
X104125191Y-70634555D01*
X104080400Y-70593322D01*
X104060632Y-70535741D01*
X104070652Y-70475691D01*
X104079154Y-70456306D01*
X104079157Y-70456300D01*
X104136134Y-70231305D01*
X104155300Y-70000000D01*
X104154036Y-69984740D01*
X104166972Y-69918510D01*
X104212677Y-69868862D01*
X104277612Y-69850500D01*
X104508596Y-69850500D01*
X104564891Y-69864015D01*
G37*
%TD.AperFunction*%
%TD*%
M02*
