M48
; DRILL file {KiCad 7.0.1} date Sat Aug 17 13:05:24 2024
; FORMAT={-:-/ absolute / inch / decimal}
; #@! TF.CreationDate,2024-08-17T13:05:24+01:00
; #@! TF.GenerationSoftware,Kicad,Pcbnew,7.0.1
; #@! TF.FileFunction,Plated,1,2,PTH
FMAT,2
INCH
; #@! TA.AperFunction,Plated,PTH,ViaDrill
T1C0.0118
; #@! TA.AperFunction,Plated,PTH,ComponentDrill
T2C0.0118
%
G90
G05
T1
X3.8484Y-2.8248
X3.8484Y-3.1791
X3.8484Y-3.6713
X3.8976Y-3.1496
X3.8976Y-3.2087
X3.8976Y-3.6417
X3.8976Y-3.7008
X3.9272Y-2.8248
X3.9469Y-3.0413
X3.9469Y-3.7008
X3.9665Y-2.8248
X3.9665Y-3.8091
X3.9764Y-2.7559
X3.9764Y-3.8878
X3.9862Y-2.6969
X3.9862Y-3.1496
X4.0059Y-2.8248
X4.0059Y-3.8287
X4.0059Y-3.9075
X4.0157Y-3.7008
X4.0236Y-2.9823
X4.0354Y-3.8976
X4.0453Y-3.7992
X4.0472Y-3.0222
X4.0551Y-3.1791
X4.0551Y-3.2185
X4.0551Y-3.7402
X4.0551Y-3.9665
X4.065Y-3.0512
X4.065Y-3.8287
X4.0669Y-2.8175
X4.0669Y-2.845
X4.0748Y-2.8937
X4.0748Y-2.9232
X4.0748Y-3.0039
X4.0748Y-3.9862
X4.0896Y-3.8041
X4.1043Y-2.6969
X4.1142Y-2.7657
X4.1142Y-4.1142
X4.1437Y-3.189
X4.1437Y-3.622
X4.1535Y-3.7402
X4.1535Y-3.9665
X4.1604Y-3.4232
X4.1634Y-2.7067
X4.1634Y-3.4665
X4.1634Y-3.5827
X4.1634Y-3.6909
X4.1732Y-3.2972
X4.1732Y-3.622
X4.1831Y-3.563
X4.1831Y-3.7795
X4.1831Y-3.9961
X4.1929Y-3.4646
X4.1929Y-3.6516
X4.2028Y-3.7402
X4.2126Y-2.8937
X4.2126Y-2.9232
X4.2224Y-2.7264
X4.2224Y-3.0217
X4.2224Y-3.1102
X4.2224Y-3.189
X4.2224Y-3.3563
X4.2323Y-2.9528
X4.2323Y-3.2677
X4.2323Y-3.8307
X4.2421Y-2.815
X4.2421Y-2.9921
X4.2421Y-3.6516
X4.252Y-2.9035
X4.252Y-3.1398
X4.252Y-3.3563
X4.252Y-3.9272
X4.252Y-3.9764
X4.2618Y-2.8543
X4.2623Y-3.8971
X4.2627Y-3.7991
X4.2717Y-2.7657
X4.2717Y-2.9331
X4.2717Y-2.9724
X4.2717Y-3.0315
X4.2717Y-3.4449
X4.2717Y-3.4941
X4.2717Y-3.5236
X4.2717Y-3.6024
X4.2717Y-3.6319
X4.2717Y-4.0453
X4.2815Y-3.1693
X4.2815Y-3.2283
X4.2913Y-2.8839
X4.3012Y-2.8248
X4.3012Y-3.2087
X4.3012Y-4.0453
X4.3031Y-3.9272
X4.3091Y-3.7598
X4.311Y-2.9823
X4.3121Y-3.5531
X4.3209Y-2.9429
X4.3209Y-3.0315
X4.3307Y-2.7657
X4.3307Y-2.8543
X4.3406Y-2.9035
X4.3406Y-3.1299
X4.3406Y-3.3858
X4.3504Y-3.061
X4.3525Y-3.208
X4.3544Y-3.435
X4.3597Y-4.0557
X4.3602Y-2.815
X4.3602Y-2.9429
X4.3612Y-3.5514
X4.3701Y-3.9961
X4.3799Y-3.0315
X4.3799Y-3.2104
X4.3885Y-3.7746
X4.3898Y-2.7559
X4.3898Y-2.874
X4.3898Y-2.9724
X4.3898Y-3.1004
X4.3996Y-2.7953
X4.3996Y-3.6319
X4.3996Y-3.7205
X4.4056Y-4.0128
X4.4094Y-2.9232
X4.4095Y-3.2087
X4.4272Y-3.7008
X4.4291Y-2.8248
X4.4291Y-3.0807
X4.4386Y-4.0653
X4.439Y-3.0315
X4.439Y-3.2087
X4.4587Y-2.7756
X4.4587Y-2.874
X4.4587Y-2.9134
X4.4587Y-2.9724
X4.4606Y-3.3858
X4.4685Y-3.248
X4.4685Y-3.2776
X4.4685Y-3.7744
X4.4783Y-3.1102
X4.4783Y-3.1988
X4.4783Y-3.7205
X4.498Y-2.815
X4.498Y-3.0512
X4.5013Y-3.7744
X4.5079Y-3.3071
X4.5079Y-3.7205
X4.5177Y-2.8543
X4.5177Y-2.9232
X4.5177Y-2.9921
X4.5276Y-3.0807
X4.5374Y-2.7657
X4.5374Y-3.0413
X4.5472Y-3.9272
X4.5472Y-3.9567
X4.5549Y-3.811
X4.5571Y-2.8248
X4.5571Y-2.874
X4.5571Y-2.9724
X4.5571Y-3.2972
X4.5669Y-3.1201
X4.5768Y-2.9331
X4.5768Y-4.0945
X4.5866Y-3.0413
X4.6063Y-2.7756
X4.6063Y-3.1693
X4.6063Y-3.9567
X4.6161Y-3.75
X4.6161Y-4.0945
X4.6161Y-4.124
X4.6161Y-4.1535
X4.626Y-2.9724
X4.6358Y-2.8543
X4.6358Y-2.9134
X4.6358Y-3.7697
X4.6457Y-4.0945
X4.6457Y-4.124
X4.6457Y-4.1535
X4.6654Y-2.7657
X4.6654Y-3.0315
X4.6654Y-3.1496
X4.6654Y-3.189
X4.6752Y-4.0945
X4.6752Y-4.124
X4.6752Y-4.1535
X4.685Y-2.815
X4.685Y-2.9331
X4.6949Y-2.874
X4.7047Y-4.0945
X4.7047Y-4.124
X4.7047Y-4.1535
X4.7146Y-4.0157
X4.7146Y-3.9862
X4.7244Y-3.8287
X4.7343Y-3.061
X4.7343Y-3.1791
X4.7343Y-4.0945
X4.7343Y-4.124
X4.7343Y-4.1535
X4.7422Y-3.7974
X4.7539Y-3.7725
X4.7638Y-2.8937
X4.7638Y-3.9173
X4.7638Y-3.9567
X4.7638Y-4.124
X4.7638Y-4.1535
X4.7736Y-2.8543
X4.7736Y-3.7992
X4.775Y-2.815
X4.7835Y-2.687
X4.7835Y-2.7756
X4.7835Y-2.9724
X4.7835Y-3.189
X4.7835Y-3.7598
X4.7933Y-2.9232
X4.7933Y-4.065
X4.8031Y-2.8839
X4.8031Y-4.0256
X4.8031Y-4.1142
X4.813Y-3.8583
X4.8228Y-2.8445
X4.8228Y-3.0118
X4.8425Y-2.687
X4.8425Y-3.0512
X4.8425Y-3.8189
X4.8425Y-3.9173
X4.8524Y-2.874
X4.8524Y-3.189
X4.8524Y-3.9862
X4.8524Y-4.0354
X4.8622Y-2.7854
X4.8622Y-2.9134
X4.8622Y-2.9724
X4.872Y-3.2185
X4.872Y-3.937
X4.9016Y-2.687
X4.9016Y-3.6614
X4.9016Y-3.8583
X4.9114Y-2.7854
X4.9213Y-4.0354
X4.9311Y-3.6319
X4.9311Y-3.7008
X4.9311Y-3.8189
X4.9409Y-3.1988
X4.9409Y-4.0945
X4.9508Y-2.9823
X4.9508Y-3.1496
X4.9508Y-3.2677
X4.9508Y-3.376
X4.9508Y-3.4252
X4.9508Y-3.4744
X4.9508Y-3.5827
X4.9508Y-3.8583
X4.955Y-2.84
X4.9606Y-2.687
X4.9606Y-3.0413
X4.9606Y-3.6713
X4.9803Y-3.7008
X4.9902Y-4.0354
X4.9902Y-4.0945
X5.0Y-3.2677
X5.0Y-3.6516
X5.0098Y-3.2185
X5.015Y-2.84
X5.0197Y-2.687
X5.0197Y-3.1594
X5.0197Y-3.5827
X5.0197Y-3.7008
X5.0216Y-3.7697
X5.0216Y-3.937
X5.0295Y-3.9862
X5.0394Y-3.622
X5.0394Y-4.0945
X5.0492Y-3.189
X5.0492Y-3.2382
X5.0492Y-3.6713
X5.0492Y-4.0354
T2
X4.124Y-2.874
X4.124Y-2.9094
X4.124Y-2.9449
X4.1634Y-2.874
X4.1634Y-2.9094
X4.1634Y-2.9449
T0
M30
