%TF.GenerationSoftware,KiCad,Pcbnew,7.0.1*%
%TF.CreationDate,2024-08-17T13:05:24+01:00*%
%TF.ProjectId,Hardware,48617264-7761-4726-952e-6b696361645f,rev?*%
%TF.SameCoordinates,Original*%
%TF.FileFunction,Legend,Bot*%
%TF.FilePolarity,Positive*%
%FSLAX46Y46*%
G04 Gerber Fmt 4.6, Leading zero omitted, Abs format (unit mm)*
G04 Created by KiCad (PCBNEW 7.0.1) date 2024-08-17 13:05:24*
%MOMM*%
%LPD*%
G01*
G04 APERTURE LIST*
G04 Aperture macros list*
%AMRoundRect*
0 Rectangle with rounded corners*
0 $1 Rounding radius*
0 $2 $3 $4 $5 $6 $7 $8 $9 X,Y pos of 4 corners*
0 Add a 4 corners polygon primitive as box body*
4,1,4,$2,$3,$4,$5,$6,$7,$8,$9,$2,$3,0*
0 Add four circle primitives for the rounded corners*
1,1,$1+$1,$2,$3*
1,1,$1+$1,$4,$5*
1,1,$1+$1,$6,$7*
1,1,$1+$1,$8,$9*
0 Add four rect primitives between the rounded corners*
20,1,$1+$1,$2,$3,$4,$5,0*
20,1,$1+$1,$4,$5,$6,$7,0*
20,1,$1+$1,$6,$7,$8,$9,0*
20,1,$1+$1,$8,$9,$2,$3,0*%
%AMFreePoly0*
4,1,6,1.000000,0.000000,0.500000,-0.750000,-0.500000,-0.750000,-0.500000,0.750000,0.500000,0.750000,1.000000,0.000000,1.000000,0.000000,$1*%
%AMFreePoly1*
4,1,6,0.500000,-0.750000,-0.650000,-0.750000,-0.150000,0.000000,-0.650000,0.750000,0.500000,0.750000,0.500000,-0.750000,0.500000,-0.750000,$1*%
G04 Aperture macros list end*
%ADD10C,0.150000*%
%ADD11C,0.187500*%
%ADD12C,0.120000*%
%ADD13C,0.250000*%
%ADD14C,0.100000*%
%ADD15FreePoly0,0.000000*%
%ADD16FreePoly1,0.000000*%
%ADD17RoundRect,0.135000X0.135000X0.185000X-0.135000X0.185000X-0.135000X-0.185000X0.135000X-0.185000X0*%
%ADD18R,1.000000X0.600000*%
%ADD19R,1.000000X0.300000*%
%ADD20R,2.600000X1.550000*%
%ADD21RoundRect,0.140000X-0.140000X-0.170000X0.140000X-0.170000X0.140000X0.170000X-0.140000X0.170000X0*%
%ADD22RoundRect,0.140000X-0.170000X0.140000X-0.170000X-0.140000X0.170000X-0.140000X0.170000X0.140000X0*%
%ADD23RoundRect,0.135000X0.185000X-0.135000X0.185000X0.135000X-0.185000X0.135000X-0.185000X-0.135000X0*%
%ADD24R,2.300000X2.300000*%
%ADD25O,2.300000X2.300000*%
%ADD26RoundRect,0.112500X0.112500X-0.187500X0.112500X0.187500X-0.112500X0.187500X-0.112500X-0.187500X0*%
%ADD27RoundRect,0.135000X-0.135000X-0.185000X0.135000X-0.185000X0.135000X0.185000X-0.135000X0.185000X0*%
%ADD28RoundRect,0.140000X0.170000X-0.140000X0.170000X0.140000X-0.170000X0.140000X-0.170000X-0.140000X0*%
%ADD29R,1.000000X1.550000*%
%ADD30RoundRect,0.150000X-0.512500X-0.150000X0.512500X-0.150000X0.512500X0.150000X-0.512500X0.150000X0*%
%ADD31RoundRect,0.250000X-0.262500X-0.450000X0.262500X-0.450000X0.262500X0.450000X-0.262500X0.450000X0*%
%ADD32R,0.300000X1.000000*%
%ADD33R,1.650000X1.300000*%
%ADD34RoundRect,0.135000X-0.185000X0.135000X-0.185000X-0.135000X0.185000X-0.135000X0.185000X0.135000X0*%
%ADD35RoundRect,0.087500X0.187500X0.087500X-0.187500X0.087500X-0.187500X-0.087500X0.187500X-0.087500X0*%
%ADD36RoundRect,0.087500X0.087500X0.187500X-0.087500X0.187500X-0.087500X-0.187500X0.087500X-0.187500X0*%
%ADD37RoundRect,0.150000X-0.150000X0.587500X-0.150000X-0.587500X0.150000X-0.587500X0.150000X0.587500X0*%
%ADD38R,0.300000X0.300000*%
%ADD39R,0.350000X0.250000*%
%ADD40R,0.250000X0.350000*%
%ADD41R,0.600000X0.600000*%
%ADD42R,0.430000X0.430000*%
%ADD43RoundRect,0.140000X0.140000X0.170000X-0.140000X0.170000X-0.140000X-0.170000X0.140000X-0.170000X0*%
%ADD44R,1.700000X1.700000*%
%ADD45O,1.700000X1.700000*%
%ADD46RoundRect,0.050000X-0.100000X0.100000X-0.100000X-0.100000X0.100000X-0.100000X0.100000X0.100000X0*%
%ADD47O,0.300000X0.950000*%
%ADD48R,0.575000X0.400000*%
%ADD49R,0.675000X0.400000*%
%ADD50R,1.950000X2.600000*%
%ADD51RoundRect,0.112500X0.187500X0.112500X-0.187500X0.112500X-0.187500X-0.112500X0.187500X-0.112500X0*%
%ADD52RoundRect,0.150000X-0.587500X-0.150000X0.587500X-0.150000X0.587500X0.150000X-0.587500X0.150000X0*%
%ADD53RoundRect,0.150000X0.512500X0.150000X-0.512500X0.150000X-0.512500X-0.150000X0.512500X-0.150000X0*%
G04 APERTURE END LIST*
D10*
X116500000Y-76250000D02*
X116500000Y-70250000D01*
X110000000Y-76250000D02*
X110000000Y-70250000D01*
G36*
X123432644Y-71299748D02*
G01*
X123432644Y-71187201D01*
X122978743Y-71187201D01*
X122978743Y-71299748D01*
X123137013Y-71299748D01*
X123137013Y-71787452D01*
X122978743Y-71787452D01*
X122978743Y-71900000D01*
X123432644Y-71900000D01*
X123432644Y-71787452D01*
X123274375Y-71787452D01*
X123274375Y-71299748D01*
X123432644Y-71299748D01*
G37*
G36*
X122593788Y-71174781D02*
G01*
X122605071Y-71175230D01*
X122616226Y-71176064D01*
X122627254Y-71177282D01*
X122638155Y-71178885D01*
X122648929Y-71180872D01*
X122659576Y-71183244D01*
X122670096Y-71186001D01*
X122680488Y-71189143D01*
X122690754Y-71192669D01*
X122700893Y-71196580D01*
X122707531Y-71199384D01*
X122717289Y-71203935D01*
X122726807Y-71208902D01*
X122736084Y-71214285D01*
X122745120Y-71220083D01*
X122753917Y-71226297D01*
X122762472Y-71232926D01*
X122770788Y-71239972D01*
X122778862Y-71247432D01*
X122786697Y-71255308D01*
X122794291Y-71263600D01*
X122799207Y-71269365D01*
X122806332Y-71278382D01*
X122813159Y-71287841D01*
X122817544Y-71294394D01*
X122821796Y-71301144D01*
X122825915Y-71308090D01*
X122829902Y-71315233D01*
X122833755Y-71322574D01*
X122837476Y-71330111D01*
X122841064Y-71337845D01*
X122844520Y-71345776D01*
X122847842Y-71353904D01*
X122851032Y-71362229D01*
X122854089Y-71370750D01*
X122857013Y-71379469D01*
X122859757Y-71388366D01*
X122862325Y-71397473D01*
X122864715Y-71406788D01*
X122866929Y-71416313D01*
X122868965Y-71426047D01*
X122870825Y-71435990D01*
X122872507Y-71446142D01*
X122874012Y-71456503D01*
X122875340Y-71467074D01*
X122876491Y-71477853D01*
X122877465Y-71488842D01*
X122878262Y-71500040D01*
X122878881Y-71511447D01*
X122879324Y-71523063D01*
X122879590Y-71534888D01*
X122879678Y-71546922D01*
X122879609Y-71557989D01*
X122879400Y-71568890D01*
X122879051Y-71579626D01*
X122878564Y-71590196D01*
X122877937Y-71600600D01*
X122877171Y-71610839D01*
X122876266Y-71620912D01*
X122875221Y-71630819D01*
X122874037Y-71640561D01*
X122872714Y-71650138D01*
X122871251Y-71659548D01*
X122869649Y-71668793D01*
X122867908Y-71677872D01*
X122866027Y-71686786D01*
X122864008Y-71695534D01*
X122861849Y-71704117D01*
X122859550Y-71712534D01*
X122857113Y-71720785D01*
X122854536Y-71728870D01*
X122851819Y-71736790D01*
X122848964Y-71744545D01*
X122845969Y-71752133D01*
X122842835Y-71759556D01*
X122839561Y-71766814D01*
X122832597Y-71780832D01*
X122825075Y-71794187D01*
X122816996Y-71806880D01*
X122808359Y-71818911D01*
X122803821Y-71824669D01*
X122794332Y-71835637D01*
X122784294Y-71845874D01*
X122773706Y-71855380D01*
X122762568Y-71864154D01*
X122750881Y-71872197D01*
X122738645Y-71879509D01*
X122725859Y-71886090D01*
X122712523Y-71891940D01*
X122698638Y-71897058D01*
X122684203Y-71901445D01*
X122669219Y-71905101D01*
X122661521Y-71906655D01*
X122653685Y-71908026D01*
X122645712Y-71909214D01*
X122637602Y-71910220D01*
X122629354Y-71911042D01*
X122620969Y-71911682D01*
X122612446Y-71912139D01*
X122603786Y-71912413D01*
X122594989Y-71912505D01*
X122587397Y-71912420D01*
X122576119Y-71911975D01*
X122564971Y-71911149D01*
X122553954Y-71909942D01*
X122543067Y-71908353D01*
X122532311Y-71906384D01*
X122521685Y-71904033D01*
X122511190Y-71901300D01*
X122500826Y-71898187D01*
X122490591Y-71894692D01*
X122480488Y-71890816D01*
X122473825Y-71887989D01*
X122464035Y-71883405D01*
X122454488Y-71878408D01*
X122445185Y-71873000D01*
X122436126Y-71867179D01*
X122427311Y-71860947D01*
X122418740Y-71854302D01*
X122410413Y-71847245D01*
X122402329Y-71839775D01*
X122394490Y-71831894D01*
X122386894Y-71823600D01*
X122381979Y-71817836D01*
X122374857Y-71808824D01*
X122368038Y-71799371D01*
X122363660Y-71792826D01*
X122359417Y-71786085D01*
X122355307Y-71779148D01*
X122351332Y-71772016D01*
X122347491Y-71764689D01*
X122343785Y-71757166D01*
X122340213Y-71749448D01*
X122336775Y-71741535D01*
X122333472Y-71733426D01*
X122330303Y-71725122D01*
X122327268Y-71716622D01*
X122324368Y-71707927D01*
X122321599Y-71699006D01*
X122319010Y-71689877D01*
X122316599Y-71680541D01*
X122314366Y-71670997D01*
X122312312Y-71661246D01*
X122310437Y-71651287D01*
X122308740Y-71641120D01*
X122307222Y-71630746D01*
X122305882Y-71620164D01*
X122304721Y-71609375D01*
X122303739Y-71598378D01*
X122302935Y-71587173D01*
X122302310Y-71575761D01*
X122301864Y-71564141D01*
X122301596Y-71552314D01*
X122301555Y-71546727D01*
X122444340Y-71546727D01*
X122444372Y-71553930D01*
X122444540Y-71564542D01*
X122444853Y-71574924D01*
X122445310Y-71585077D01*
X122445911Y-71594999D01*
X122446656Y-71604691D01*
X122447546Y-71614153D01*
X122448579Y-71623385D01*
X122449757Y-71632386D01*
X122451080Y-71641158D01*
X122452546Y-71649699D01*
X122454169Y-71657966D01*
X122455960Y-71665984D01*
X122457920Y-71673756D01*
X122460048Y-71681280D01*
X122463147Y-71690928D01*
X122466545Y-71700136D01*
X122470242Y-71708904D01*
X122474238Y-71717233D01*
X122478534Y-71725122D01*
X122483089Y-71732559D01*
X122487962Y-71739532D01*
X122493152Y-71746041D01*
X122498659Y-71752086D01*
X122504485Y-71757667D01*
X122510627Y-71762784D01*
X122517088Y-71767437D01*
X122523865Y-71771625D01*
X122530979Y-71775335D01*
X122538447Y-71778550D01*
X122546269Y-71781270D01*
X122554445Y-71783496D01*
X122562975Y-71785227D01*
X122571859Y-71786463D01*
X122581098Y-71787205D01*
X122590690Y-71787452D01*
X122600194Y-71787213D01*
X122609363Y-71786497D01*
X122618195Y-71785302D01*
X122626692Y-71783630D01*
X122634852Y-71781480D01*
X122642677Y-71778852D01*
X122650166Y-71775746D01*
X122657320Y-71772163D01*
X122664137Y-71768101D01*
X122670619Y-71763562D01*
X122676764Y-71758545D01*
X122682574Y-71753051D01*
X122688048Y-71747078D01*
X122693187Y-71740628D01*
X122697989Y-71733700D01*
X122702456Y-71726294D01*
X122706620Y-71718378D01*
X122710516Y-71709969D01*
X122714143Y-71701068D01*
X122717501Y-71691673D01*
X122720591Y-71681785D01*
X122723412Y-71671403D01*
X122725964Y-71660529D01*
X122728248Y-71649162D01*
X122730263Y-71637302D01*
X122732009Y-71624948D01*
X122733487Y-71612102D01*
X122734696Y-71598763D01*
X122735636Y-71584930D01*
X122736308Y-71570604D01*
X122736711Y-71555786D01*
X122736845Y-71540474D01*
X122736813Y-71533272D01*
X122736645Y-71522663D01*
X122736332Y-71512288D01*
X122735875Y-71502147D01*
X122735274Y-71492239D01*
X122734529Y-71482565D01*
X122733639Y-71473124D01*
X122732606Y-71463917D01*
X122731427Y-71454943D01*
X122730105Y-71446203D01*
X122728639Y-71437697D01*
X122727016Y-71429396D01*
X122725224Y-71421345D01*
X122723265Y-71413546D01*
X122721137Y-71405997D01*
X122718038Y-71396322D01*
X122714640Y-71387093D01*
X122710943Y-71378309D01*
X122706947Y-71369971D01*
X122702651Y-71362079D01*
X122698007Y-71354642D01*
X122693065Y-71347669D01*
X122687822Y-71341160D01*
X122682281Y-71335115D01*
X122676441Y-71329534D01*
X122670301Y-71324417D01*
X122663862Y-71319764D01*
X122657124Y-71315575D01*
X122650060Y-71311866D01*
X122642641Y-71308651D01*
X122634868Y-71305931D01*
X122626740Y-71303705D01*
X122618259Y-71301974D01*
X122609424Y-71300737D01*
X122600234Y-71299996D01*
X122590690Y-71299748D01*
X122581093Y-71299988D01*
X122571841Y-71300707D01*
X122562933Y-71301905D01*
X122554371Y-71303583D01*
X122546154Y-71305740D01*
X122538282Y-71308376D01*
X122530755Y-71311492D01*
X122523572Y-71315087D01*
X122516735Y-71319161D01*
X122510243Y-71323715D01*
X122504095Y-71328748D01*
X122498293Y-71334260D01*
X122492836Y-71340251D01*
X122487723Y-71346722D01*
X122482956Y-71353673D01*
X122478534Y-71361102D01*
X122474393Y-71368994D01*
X122470520Y-71377381D01*
X122466913Y-71386262D01*
X122463574Y-71395638D01*
X122460502Y-71405508D01*
X122457697Y-71415874D01*
X122455159Y-71426733D01*
X122452888Y-71438087D01*
X122450885Y-71449936D01*
X122449148Y-71462280D01*
X122447679Y-71475118D01*
X122446477Y-71488450D01*
X122445542Y-71502278D01*
X122444874Y-71516599D01*
X122444473Y-71531416D01*
X122444340Y-71546727D01*
X122301555Y-71546727D01*
X122301507Y-71540279D01*
X122301576Y-71529176D01*
X122301786Y-71518241D01*
X122302135Y-71507474D01*
X122302624Y-71496874D01*
X122303253Y-71486441D01*
X122304021Y-71476176D01*
X122304929Y-71466079D01*
X122305976Y-71456149D01*
X122307164Y-71446387D01*
X122308490Y-71436792D01*
X122309957Y-71427365D01*
X122311563Y-71418105D01*
X122313309Y-71409013D01*
X122315195Y-71400089D01*
X122317220Y-71391332D01*
X122319385Y-71382742D01*
X122321690Y-71374320D01*
X122324134Y-71366066D01*
X122326718Y-71357979D01*
X122329442Y-71350059D01*
X122332305Y-71342307D01*
X122335308Y-71334723D01*
X122338451Y-71327306D01*
X122341733Y-71320057D01*
X122348717Y-71306061D01*
X122356260Y-71292735D01*
X122364361Y-71280080D01*
X122373021Y-71268094D01*
X122377547Y-71262348D01*
X122387013Y-71251403D01*
X122397030Y-71241188D01*
X122407598Y-71231702D01*
X122418717Y-71222946D01*
X122430388Y-71214919D01*
X122442609Y-71207623D01*
X122455381Y-71201055D01*
X122468705Y-71195218D01*
X122482579Y-71190110D01*
X122497005Y-71185732D01*
X122511982Y-71182084D01*
X122519677Y-71180533D01*
X122527509Y-71179165D01*
X122535480Y-71177979D01*
X122543588Y-71176976D01*
X122551834Y-71176155D01*
X122560218Y-71175517D01*
X122568740Y-71175061D01*
X122577399Y-71174787D01*
X122586196Y-71174696D01*
X122593788Y-71174781D01*
G37*
D11*
G36*
X128633251Y-103650000D02*
G01*
X128510886Y-103650000D01*
X128510886Y-103247487D01*
X128453244Y-103247487D01*
X128446612Y-103247575D01*
X128435409Y-103248151D01*
X128424720Y-103249265D01*
X128414545Y-103250916D01*
X128404884Y-103253105D01*
X128394245Y-103256265D01*
X128384063Y-103260371D01*
X128374339Y-103265424D01*
X128365073Y-103271423D01*
X128359414Y-103275613D01*
X128351712Y-103282219D01*
X128344267Y-103289691D01*
X128337079Y-103298027D01*
X128331123Y-103305861D01*
X128326180Y-103312935D01*
X128320295Y-103322162D01*
X128314462Y-103332197D01*
X128309640Y-103341176D01*
X128304854Y-103350716D01*
X128300104Y-103360816D01*
X128166015Y-103650000D01*
X128028018Y-103650000D01*
X128170167Y-103353000D01*
X128171891Y-103349602D01*
X128177048Y-103339666D01*
X128182183Y-103330116D01*
X128187297Y-103320953D01*
X128192390Y-103312176D01*
X128197461Y-103303785D01*
X128204189Y-103293199D01*
X128210879Y-103283299D01*
X128217531Y-103274087D01*
X128224145Y-103265561D01*
X128230919Y-103257627D01*
X128238051Y-103250311D01*
X128245543Y-103243614D01*
X128253393Y-103237534D01*
X128261602Y-103232073D01*
X128270169Y-103227230D01*
X128279095Y-103223006D01*
X128288381Y-103219399D01*
X128276882Y-103216541D01*
X128265712Y-103213339D01*
X128254870Y-103209794D01*
X128244356Y-103205905D01*
X128234170Y-103201673D01*
X128224313Y-103197097D01*
X128214783Y-103192178D01*
X128205582Y-103186915D01*
X128201110Y-103184137D01*
X128192447Y-103178397D01*
X128184158Y-103172413D01*
X128176243Y-103166185D01*
X128168702Y-103159713D01*
X128161535Y-103152996D01*
X128153103Y-103144257D01*
X128145254Y-103135136D01*
X128142248Y-103131355D01*
X128135141Y-103121677D01*
X128128619Y-103111677D01*
X128122681Y-103101355D01*
X128117328Y-103090711D01*
X128112558Y-103079745D01*
X128108374Y-103068457D01*
X128106147Y-103061506D01*
X128102924Y-103049757D01*
X128100783Y-103040213D01*
X128099031Y-103030539D01*
X128097669Y-103020735D01*
X128096696Y-103010801D01*
X128096112Y-103000737D01*
X128096109Y-103000558D01*
X128223900Y-103000558D01*
X128223914Y-103002809D01*
X128224373Y-103013821D01*
X128225488Y-103024428D01*
X128227259Y-103034630D01*
X128229686Y-103044426D01*
X128232769Y-103053816D01*
X128237334Y-103064549D01*
X128239026Y-103067967D01*
X128244631Y-103077830D01*
X128251025Y-103087109D01*
X128258209Y-103095805D01*
X128266183Y-103103916D01*
X128274947Y-103111444D01*
X128278040Y-103113789D01*
X128286124Y-103119335D01*
X128294708Y-103124427D01*
X128303793Y-103129066D01*
X128313379Y-103133252D01*
X128323466Y-103136985D01*
X128334054Y-103140265D01*
X128336230Y-103140851D01*
X128347360Y-103143502D01*
X128358908Y-103145688D01*
X128370874Y-103147409D01*
X128380746Y-103148451D01*
X128390886Y-103149195D01*
X128401293Y-103149641D01*
X128411967Y-103149790D01*
X128510886Y-103149790D01*
X128510886Y-102860607D01*
X128395603Y-102860607D01*
X128385520Y-102860743D01*
X128370934Y-102861459D01*
X128356997Y-102862790D01*
X128343709Y-102864734D01*
X128331069Y-102867292D01*
X128319077Y-102870464D01*
X128307733Y-102874250D01*
X128297038Y-102878650D01*
X128286990Y-102883664D01*
X128277592Y-102889292D01*
X128268841Y-102895533D01*
X128263399Y-102900008D01*
X128255894Y-102907242D01*
X128249180Y-102915103D01*
X128243255Y-102923591D01*
X128238120Y-102932706D01*
X128233775Y-102942448D01*
X128230220Y-102952816D01*
X128227455Y-102963811D01*
X128225480Y-102975433D01*
X128224295Y-102987682D01*
X128223900Y-103000558D01*
X128096109Y-103000558D01*
X128095917Y-102990544D01*
X128096180Y-102977740D01*
X128096970Y-102965219D01*
X128098287Y-102952980D01*
X128100130Y-102941024D01*
X128102500Y-102929350D01*
X128105397Y-102917958D01*
X128108820Y-102906849D01*
X128112770Y-102896022D01*
X128117285Y-102885531D01*
X128122402Y-102875429D01*
X128128123Y-102865717D01*
X128134446Y-102856393D01*
X128141373Y-102847459D01*
X128148903Y-102838915D01*
X128157035Y-102830759D01*
X128165771Y-102822993D01*
X128168050Y-102821113D01*
X128177562Y-102813857D01*
X128187707Y-102807020D01*
X128198487Y-102800603D01*
X128209899Y-102794605D01*
X128218874Y-102790383D01*
X128228206Y-102786397D01*
X128237894Y-102782646D01*
X128247938Y-102779132D01*
X128258339Y-102775854D01*
X128265446Y-102773814D01*
X128276430Y-102770999D01*
X128287800Y-102768481D01*
X128299557Y-102766259D01*
X128311700Y-102764334D01*
X128324229Y-102762705D01*
X128337145Y-102761372D01*
X128350447Y-102760335D01*
X128364136Y-102759594D01*
X128378211Y-102759150D01*
X128392672Y-102759002D01*
X128633251Y-102759002D01*
X128633251Y-103650000D01*
G37*
G36*
X127332658Y-103650000D02*
G01*
X127843126Y-103650000D01*
X127843126Y-102759002D01*
X127332658Y-102759002D01*
X127332658Y-102860607D01*
X127720760Y-102860607D01*
X127720760Y-103141974D01*
X127347801Y-103141974D01*
X127347801Y-103243579D01*
X127720760Y-103243579D01*
X127720760Y-103544487D01*
X127332658Y-103544487D01*
X127332658Y-103650000D01*
G37*
G36*
X126441416Y-102759002D02*
G01*
X126746475Y-103650000D01*
X126911339Y-103650000D01*
X127209560Y-102759002D01*
X127071318Y-102759002D01*
X126877634Y-103359595D01*
X126822679Y-103535450D01*
X126766503Y-103359595D01*
X126572086Y-102759002D01*
X126441416Y-102759002D01*
G37*
G36*
X124999162Y-103383042D02*
G01*
X124999375Y-103393971D01*
X125000012Y-103404775D01*
X125001075Y-103415455D01*
X125002562Y-103426010D01*
X125004475Y-103436440D01*
X125006813Y-103446747D01*
X125009576Y-103456928D01*
X125012763Y-103466985D01*
X125016376Y-103476918D01*
X125020414Y-103486726D01*
X125023342Y-103493196D01*
X125028043Y-103502701D01*
X125033168Y-103511983D01*
X125038719Y-103521042D01*
X125044694Y-103529878D01*
X125051095Y-103538490D01*
X125057921Y-103546879D01*
X125065171Y-103555045D01*
X125072847Y-103562988D01*
X125080948Y-103570707D01*
X125089474Y-103578204D01*
X125095394Y-103583077D01*
X125104632Y-103590125D01*
X125114304Y-103596890D01*
X125124410Y-103603372D01*
X125134950Y-103609570D01*
X125145923Y-103615484D01*
X125157329Y-103621116D01*
X125169170Y-103626464D01*
X125181444Y-103631529D01*
X125194151Y-103636310D01*
X125207292Y-103640808D01*
X125216294Y-103643649D01*
X125230154Y-103647578D01*
X125239629Y-103649982D01*
X125249294Y-103652214D01*
X125259148Y-103654275D01*
X125269190Y-103656164D01*
X125279422Y-103657882D01*
X125289842Y-103659427D01*
X125300452Y-103660801D01*
X125311250Y-103662003D01*
X125322237Y-103663034D01*
X125333413Y-103663892D01*
X125344778Y-103664579D01*
X125356332Y-103665094D01*
X125368074Y-103665438D01*
X125380006Y-103665610D01*
X125386043Y-103665631D01*
X125395978Y-103665592D01*
X125408930Y-103665421D01*
X125421547Y-103665112D01*
X125433828Y-103664665D01*
X125445773Y-103664081D01*
X125457382Y-103663360D01*
X125468655Y-103662501D01*
X125479593Y-103661505D01*
X125482274Y-103661235D01*
X125492815Y-103660097D01*
X125503188Y-103658884D01*
X125513393Y-103657594D01*
X125523429Y-103656228D01*
X125533298Y-103654785D01*
X125542999Y-103653266D01*
X125554889Y-103651260D01*
X125561898Y-103650000D01*
X125561898Y-103544487D01*
X125551139Y-103546326D01*
X125540236Y-103548059D01*
X125529188Y-103549684D01*
X125517995Y-103551203D01*
X125506657Y-103552615D01*
X125495174Y-103553920D01*
X125483545Y-103555119D01*
X125471772Y-103556210D01*
X125459896Y-103557126D01*
X125447958Y-103557920D01*
X125435960Y-103558592D01*
X125423900Y-103559141D01*
X125411780Y-103559569D01*
X125399598Y-103559874D01*
X125387356Y-103560057D01*
X125375052Y-103560118D01*
X125362586Y-103560015D01*
X125350468Y-103559706D01*
X125338698Y-103559191D01*
X125327276Y-103558469D01*
X125316201Y-103557542D01*
X125305474Y-103556409D01*
X125295095Y-103555069D01*
X125285064Y-103553524D01*
X125275380Y-103551772D01*
X125263009Y-103549116D01*
X125260013Y-103548394D01*
X125248324Y-103545242D01*
X125237192Y-103541769D01*
X125226617Y-103537976D01*
X125216599Y-103533862D01*
X125207139Y-103529427D01*
X125198235Y-103524672D01*
X125187890Y-103518278D01*
X125182100Y-103514200D01*
X125173041Y-103507022D01*
X125164793Y-103499379D01*
X125157356Y-103491271D01*
X125150730Y-103482697D01*
X125144915Y-103473658D01*
X125139911Y-103464155D01*
X125138136Y-103460223D01*
X125134126Y-103450104D01*
X125130795Y-103439591D01*
X125128144Y-103428685D01*
X125126172Y-103417385D01*
X125124881Y-103405692D01*
X125124269Y-103393605D01*
X125124214Y-103388660D01*
X125124620Y-103377520D01*
X125125836Y-103366845D01*
X125127864Y-103356635D01*
X125130702Y-103346890D01*
X125134351Y-103337611D01*
X125138812Y-103328796D01*
X125140823Y-103325401D01*
X125146271Y-103317149D01*
X125152386Y-103309339D01*
X125159170Y-103301970D01*
X125166621Y-103295042D01*
X125174740Y-103288556D01*
X125183527Y-103282510D01*
X125187229Y-103280216D01*
X125196827Y-103274718D01*
X125206997Y-103269673D01*
X125217740Y-103265082D01*
X125229056Y-103260944D01*
X125238520Y-103257959D01*
X125248351Y-103255265D01*
X125258548Y-103252861D01*
X125269054Y-103250685D01*
X125279812Y-103248800D01*
X125290822Y-103247205D01*
X125302084Y-103245900D01*
X125313598Y-103244885D01*
X125325364Y-103244159D01*
X125337381Y-103243724D01*
X125349651Y-103243579D01*
X125451988Y-103243579D01*
X125451988Y-103145882D01*
X125348185Y-103145882D01*
X125338164Y-103145714D01*
X125328371Y-103145211D01*
X125316452Y-103144109D01*
X125304891Y-103142482D01*
X125293688Y-103140331D01*
X125282843Y-103137654D01*
X125274424Y-103135136D01*
X125264206Y-103131551D01*
X125254465Y-103127513D01*
X125245201Y-103123021D01*
X125236413Y-103118077D01*
X125228104Y-103112679D01*
X125220271Y-103106828D01*
X125217271Y-103104361D01*
X125208773Y-103096524D01*
X125201048Y-103088035D01*
X125194096Y-103078893D01*
X125187916Y-103069098D01*
X125183357Y-103060438D01*
X125180879Y-103055024D01*
X125177220Y-103045598D01*
X125174181Y-103035790D01*
X125171763Y-103025600D01*
X125169964Y-103015029D01*
X125168786Y-103004076D01*
X125168228Y-102992742D01*
X125168178Y-102988101D01*
X125168565Y-102974802D01*
X125169724Y-102962198D01*
X125171656Y-102950290D01*
X125174361Y-102939077D01*
X125177838Y-102928560D01*
X125182089Y-102918738D01*
X125187112Y-102909612D01*
X125192908Y-102901181D01*
X125199477Y-102893446D01*
X125206818Y-102886407D01*
X125212142Y-102882100D01*
X125220748Y-102876164D01*
X125230079Y-102870811D01*
X125240137Y-102866043D01*
X125250919Y-102861858D01*
X125262428Y-102858258D01*
X125274661Y-102855241D01*
X125287621Y-102852808D01*
X125301306Y-102850959D01*
X125315716Y-102849694D01*
X125325726Y-102849175D01*
X125336059Y-102848915D01*
X125341346Y-102848883D01*
X125352746Y-102849005D01*
X125364229Y-102849371D01*
X125375796Y-102849982D01*
X125387447Y-102850837D01*
X125399182Y-102851936D01*
X125411001Y-102853279D01*
X125422904Y-102854867D01*
X125434891Y-102856699D01*
X125446970Y-102858775D01*
X125459270Y-102861095D01*
X125471791Y-102863660D01*
X125484534Y-102866468D01*
X125494236Y-102868735D01*
X125504063Y-102871140D01*
X125514014Y-102873681D01*
X125524090Y-102876360D01*
X125534290Y-102879177D01*
X125537718Y-102880146D01*
X125537718Y-102774633D01*
X125527414Y-102771498D01*
X125516807Y-102768502D01*
X125505896Y-102765647D01*
X125496302Y-102763312D01*
X125488136Y-102761444D01*
X125478161Y-102759315D01*
X125468204Y-102757322D01*
X125458263Y-102755468D01*
X125448340Y-102753750D01*
X125438434Y-102752170D01*
X125435136Y-102751674D01*
X125425252Y-102750269D01*
X125415386Y-102748984D01*
X125405537Y-102747819D01*
X125395706Y-102746774D01*
X125385891Y-102745850D01*
X125382623Y-102745568D01*
X125371283Y-102744712D01*
X125360130Y-102744066D01*
X125349164Y-102743630D01*
X125338385Y-102743404D01*
X125332309Y-102743370D01*
X125319087Y-102743507D01*
X125306166Y-102743920D01*
X125293545Y-102744607D01*
X125281224Y-102745568D01*
X125269205Y-102746805D01*
X125257485Y-102748316D01*
X125246066Y-102750102D01*
X125234948Y-102752163D01*
X125224130Y-102754498D01*
X125213613Y-102757109D01*
X125206769Y-102759002D01*
X125196715Y-102762051D01*
X125186979Y-102765336D01*
X125177561Y-102768857D01*
X125168461Y-102772614D01*
X125156821Y-102777991D01*
X125145746Y-102783788D01*
X125135236Y-102790005D01*
X125125291Y-102796642D01*
X125115910Y-102803698D01*
X125107091Y-102811159D01*
X125098828Y-102819009D01*
X125091123Y-102827248D01*
X125083975Y-102835877D01*
X125077385Y-102844895D01*
X125071351Y-102854302D01*
X125065875Y-102864099D01*
X125060956Y-102874284D01*
X125056605Y-102884829D01*
X125052834Y-102895701D01*
X125049644Y-102906902D01*
X125047034Y-102918431D01*
X125045003Y-102930288D01*
X125043553Y-102942474D01*
X125042683Y-102954987D01*
X125042393Y-102967829D01*
X125042741Y-102982173D01*
X125043784Y-102996079D01*
X125045523Y-103009548D01*
X125047957Y-103022578D01*
X125051087Y-103035170D01*
X125054912Y-103047325D01*
X125059433Y-103059041D01*
X125064650Y-103070320D01*
X125070562Y-103081160D01*
X125077169Y-103091563D01*
X125081960Y-103098255D01*
X125089635Y-103107914D01*
X125097820Y-103117200D01*
X125106516Y-103126112D01*
X125115723Y-103134651D01*
X125125441Y-103142816D01*
X125135670Y-103150608D01*
X125146410Y-103158026D01*
X125157660Y-103165071D01*
X125169422Y-103171742D01*
X125181695Y-103178039D01*
X125190160Y-103182030D01*
X125179269Y-103183978D01*
X125168426Y-103186462D01*
X125157631Y-103189483D01*
X125146883Y-103193040D01*
X125136183Y-103197134D01*
X125125531Y-103201765D01*
X125121284Y-103203768D01*
X125110771Y-103209108D01*
X125100604Y-103214902D01*
X125090783Y-103221149D01*
X125081308Y-103227849D01*
X125072179Y-103235002D01*
X125063395Y-103242608D01*
X125059979Y-103245778D01*
X125051757Y-103253948D01*
X125044036Y-103262584D01*
X125036816Y-103271684D01*
X125030097Y-103281250D01*
X125023879Y-103291281D01*
X125018162Y-103301777D01*
X125016015Y-103306106D01*
X125011160Y-103317129D01*
X125007128Y-103328522D01*
X125003918Y-103340284D01*
X125001943Y-103349960D01*
X125000495Y-103359873D01*
X124999574Y-103370023D01*
X124999179Y-103380409D01*
X124999162Y-103383042D01*
G37*
G36*
X124524354Y-103435066D02*
G01*
X124514224Y-103435498D01*
X124504352Y-103436796D01*
X124494736Y-103438958D01*
X124485378Y-103441985D01*
X124480146Y-103444103D01*
X124471225Y-103448384D01*
X124461688Y-103454078D01*
X124452854Y-103460626D01*
X124444721Y-103468030D01*
X124443754Y-103469016D01*
X124436366Y-103477289D01*
X124429832Y-103486235D01*
X124424153Y-103495852D01*
X124419886Y-103504818D01*
X124419330Y-103506140D01*
X124415808Y-103515482D01*
X124413152Y-103525127D01*
X124411360Y-103535077D01*
X124410434Y-103545330D01*
X124410293Y-103551325D01*
X124410725Y-103561550D01*
X124412022Y-103571495D01*
X124414184Y-103581158D01*
X124417212Y-103590542D01*
X124419330Y-103595778D01*
X124423504Y-103604615D01*
X124429075Y-103614114D01*
X124435502Y-103622971D01*
X124442784Y-103631188D01*
X124443754Y-103632170D01*
X124451799Y-103639467D01*
X124460546Y-103645969D01*
X124469995Y-103651679D01*
X124478839Y-103656023D01*
X124480146Y-103656594D01*
X124489357Y-103660115D01*
X124498826Y-103662772D01*
X124508551Y-103664563D01*
X124518534Y-103665490D01*
X124524354Y-103665631D01*
X124534674Y-103665199D01*
X124544690Y-103663901D01*
X124554402Y-103661739D01*
X124563811Y-103658712D01*
X124569050Y-103656594D01*
X124579003Y-103651679D01*
X124588346Y-103645969D01*
X124597077Y-103639467D01*
X124605198Y-103632170D01*
X124612495Y-103624033D01*
X124618998Y-103615256D01*
X124624707Y-103605837D01*
X124629052Y-103597070D01*
X124629623Y-103595778D01*
X124633049Y-103586555D01*
X124635633Y-103577051D01*
X124637376Y-103567267D01*
X124638278Y-103557202D01*
X124638415Y-103551325D01*
X124637995Y-103540899D01*
X124636732Y-103530776D01*
X124634629Y-103520957D01*
X124631683Y-103511441D01*
X124629623Y-103506140D01*
X124625365Y-103497101D01*
X124620500Y-103488576D01*
X124614195Y-103479463D01*
X124607097Y-103471021D01*
X124605198Y-103469016D01*
X124597077Y-103461505D01*
X124588346Y-103454849D01*
X124579003Y-103449049D01*
X124569050Y-103444103D01*
X124559816Y-103440582D01*
X124550277Y-103437925D01*
X124540435Y-103436134D01*
X124530288Y-103435207D01*
X124524354Y-103435066D01*
G37*
G36*
X123753351Y-102743501D02*
G01*
X123763518Y-102743893D01*
X123773524Y-102744546D01*
X123783367Y-102745461D01*
X123797828Y-102747324D01*
X123811923Y-102749775D01*
X123825654Y-102752814D01*
X123839020Y-102756441D01*
X123852021Y-102760656D01*
X123864657Y-102765460D01*
X123876928Y-102770851D01*
X123888834Y-102776831D01*
X123896568Y-102781091D01*
X123907861Y-102787885D01*
X123918784Y-102795165D01*
X123929339Y-102802929D01*
X123939524Y-102811179D01*
X123949340Y-102819914D01*
X123958787Y-102829134D01*
X123967864Y-102838839D01*
X123976573Y-102849029D01*
X123984912Y-102859704D01*
X123992882Y-102870865D01*
X123997992Y-102878533D01*
X124005356Y-102890396D01*
X124012360Y-102902693D01*
X124019003Y-102915423D01*
X124025286Y-102928587D01*
X124029274Y-102937604D01*
X124033101Y-102946814D01*
X124036769Y-102956216D01*
X124040276Y-102965811D01*
X124043623Y-102975599D01*
X124046810Y-102985580D01*
X124049836Y-102995753D01*
X124052702Y-103006119D01*
X124055408Y-103016678D01*
X124057922Y-103027402D01*
X124060274Y-103038263D01*
X124062463Y-103049261D01*
X124064491Y-103060397D01*
X124066356Y-103071671D01*
X124068059Y-103083081D01*
X124069600Y-103094629D01*
X124070978Y-103106315D01*
X124072195Y-103118138D01*
X124073249Y-103130098D01*
X124074141Y-103142196D01*
X124074871Y-103154431D01*
X124075439Y-103166803D01*
X124075844Y-103179313D01*
X124076087Y-103191960D01*
X124076168Y-103204745D01*
X124076081Y-103219578D01*
X124075817Y-103234157D01*
X124075378Y-103248482D01*
X124074764Y-103262554D01*
X124073974Y-103276372D01*
X124073008Y-103289936D01*
X124071867Y-103303246D01*
X124070551Y-103316303D01*
X124069059Y-103329105D01*
X124067391Y-103341654D01*
X124065548Y-103353950D01*
X124063529Y-103365991D01*
X124061334Y-103377778D01*
X124058965Y-103389312D01*
X124056419Y-103400592D01*
X124053698Y-103411618D01*
X124052260Y-103417038D01*
X124049272Y-103427697D01*
X124046135Y-103438115D01*
X124042849Y-103448294D01*
X124039414Y-103458231D01*
X124035831Y-103467928D01*
X124032098Y-103477385D01*
X124028217Y-103486602D01*
X124024187Y-103495577D01*
X124017863Y-103508591D01*
X124011204Y-103521063D01*
X124004210Y-103532994D01*
X123996882Y-103544384D01*
X123989218Y-103555233D01*
X123983900Y-103562142D01*
X123975672Y-103572079D01*
X123967144Y-103581505D01*
X123958316Y-103590420D01*
X123949187Y-103598824D01*
X123939757Y-103606717D01*
X123930027Y-103614100D01*
X123919997Y-103620971D01*
X123909665Y-103627332D01*
X123899034Y-103633181D01*
X123888101Y-103638520D01*
X123880662Y-103641803D01*
X123869314Y-103646330D01*
X123857739Y-103650381D01*
X123845936Y-103653955D01*
X123833905Y-103657053D01*
X123821647Y-103659674D01*
X123809161Y-103661819D01*
X123796448Y-103663487D01*
X123783507Y-103664678D01*
X123770339Y-103665393D01*
X123756943Y-103665631D01*
X123746555Y-103665501D01*
X123736335Y-103665112D01*
X123726283Y-103664463D01*
X123716399Y-103663555D01*
X123701887Y-103661706D01*
X123687754Y-103659273D01*
X123673998Y-103656256D01*
X123660620Y-103652656D01*
X123647619Y-103648471D01*
X123634997Y-103643703D01*
X123622753Y-103638350D01*
X123610886Y-103632414D01*
X123603181Y-103628125D01*
X123591924Y-103621295D01*
X123581027Y-103613989D01*
X123570491Y-103606206D01*
X123560316Y-103597946D01*
X123550501Y-103589210D01*
X123541048Y-103579997D01*
X123531954Y-103570308D01*
X123523222Y-103560142D01*
X123514850Y-103549500D01*
X123506838Y-103538381D01*
X123501671Y-103530685D01*
X123494235Y-103518791D01*
X123487177Y-103506476D01*
X123480496Y-103493741D01*
X123474194Y-103480585D01*
X123470202Y-103471580D01*
X123466378Y-103462389D01*
X123462722Y-103453010D01*
X123459234Y-103443444D01*
X123455914Y-103433692D01*
X123452761Y-103423752D01*
X123449777Y-103413626D01*
X123446961Y-103403312D01*
X123444312Y-103392812D01*
X123441828Y-103382117D01*
X123439504Y-103371280D01*
X123437340Y-103360303D01*
X123435336Y-103349184D01*
X123433493Y-103337924D01*
X123431810Y-103326523D01*
X123430287Y-103314980D01*
X123428925Y-103303297D01*
X123427723Y-103291472D01*
X123426681Y-103279506D01*
X123425799Y-103267399D01*
X123425078Y-103255150D01*
X123424517Y-103242761D01*
X123424116Y-103230230D01*
X123423876Y-103217558D01*
X123423839Y-103211584D01*
X123544696Y-103211584D01*
X123544752Y-103222341D01*
X123544921Y-103232936D01*
X123545203Y-103243369D01*
X123545597Y-103253639D01*
X123546103Y-103263748D01*
X123546722Y-103273694D01*
X123547454Y-103283478D01*
X123548763Y-103297850D01*
X123550325Y-103311857D01*
X123552140Y-103325499D01*
X123554209Y-103338776D01*
X123556531Y-103351688D01*
X123559106Y-103364235D01*
X123560956Y-103372395D01*
X123563914Y-103384319D01*
X123567090Y-103395865D01*
X123570485Y-103407033D01*
X123574100Y-103417824D01*
X123577933Y-103428237D01*
X123581985Y-103438271D01*
X123586256Y-103447929D01*
X123590746Y-103457208D01*
X123595455Y-103466109D01*
X123600383Y-103474633D01*
X123607218Y-103485349D01*
X123614412Y-103495394D01*
X123621964Y-103504767D01*
X123629876Y-103513468D01*
X123638146Y-103521497D01*
X123646774Y-103528855D01*
X123655762Y-103535541D01*
X123665108Y-103541556D01*
X123674771Y-103546822D01*
X123684708Y-103551386D01*
X123694921Y-103555249D01*
X123705408Y-103558408D01*
X123716170Y-103560866D01*
X123727206Y-103562622D01*
X123738518Y-103563675D01*
X123750104Y-103564026D01*
X123752371Y-103564014D01*
X123763476Y-103563605D01*
X123774200Y-103562612D01*
X123784542Y-103561034D01*
X123794503Y-103558872D01*
X123804082Y-103556125D01*
X123815073Y-103552058D01*
X123818591Y-103550494D01*
X123828872Y-103545357D01*
X123838741Y-103539549D01*
X123848198Y-103533072D01*
X123857243Y-103525925D01*
X123865875Y-103518108D01*
X123868629Y-103515358D01*
X123875295Y-103508189D01*
X123881652Y-103500603D01*
X123887698Y-103492600D01*
X123893435Y-103484179D01*
X123898861Y-103475340D01*
X123903977Y-103466085D01*
X123905910Y-103462277D01*
X123910559Y-103452566D01*
X123914945Y-103442580D01*
X123919069Y-103432320D01*
X123922931Y-103421786D01*
X123926530Y-103410978D01*
X123929867Y-103399895D01*
X123550069Y-103122435D01*
X123549947Y-103123779D01*
X123548990Y-103134602D01*
X123548062Y-103145547D01*
X123547165Y-103156615D01*
X123546406Y-103166399D01*
X123546005Y-103172020D01*
X123545432Y-103181876D01*
X123545023Y-103191755D01*
X123544778Y-103201658D01*
X123544696Y-103211584D01*
X123423839Y-103211584D01*
X123423796Y-103204745D01*
X123423884Y-103189941D01*
X123424151Y-103175390D01*
X123424594Y-103161090D01*
X123425215Y-103147042D01*
X123426014Y-103133247D01*
X123426990Y-103119702D01*
X123428143Y-103106410D01*
X123429474Y-103093370D01*
X123430983Y-103080582D01*
X123432669Y-103068045D01*
X123434532Y-103055760D01*
X123436573Y-103043728D01*
X123438791Y-103031947D01*
X123441187Y-103020418D01*
X123443760Y-103009141D01*
X123443769Y-103009106D01*
X123572784Y-103009106D01*
X123952581Y-103282658D01*
X123953450Y-103274372D01*
X123954291Y-103263546D01*
X123954780Y-103253761D01*
X123955024Y-103243824D01*
X123955131Y-103233703D01*
X123955207Y-103223613D01*
X123955253Y-103213553D01*
X123955268Y-103203524D01*
X123955212Y-103192585D01*
X123955043Y-103181813D01*
X123954762Y-103171206D01*
X123954368Y-103160766D01*
X123953861Y-103150491D01*
X123953242Y-103140383D01*
X123952510Y-103130441D01*
X123951201Y-103115838D01*
X123949639Y-103101609D01*
X123947824Y-103087754D01*
X123945755Y-103074272D01*
X123943433Y-103061164D01*
X123940858Y-103048429D01*
X123939009Y-103040148D01*
X123936056Y-103028041D01*
X123932889Y-103016311D01*
X123929508Y-103004960D01*
X123925911Y-102993986D01*
X123922100Y-102983390D01*
X123918075Y-102973172D01*
X123913834Y-102963332D01*
X123909379Y-102953869D01*
X123904709Y-102944785D01*
X123899825Y-102936078D01*
X123892933Y-102925075D01*
X123885689Y-102914783D01*
X123878095Y-102905200D01*
X123870150Y-102896327D01*
X123861853Y-102888164D01*
X123853205Y-102880711D01*
X123844206Y-102873967D01*
X123834856Y-102867934D01*
X123825197Y-102862553D01*
X123815271Y-102857889D01*
X123805078Y-102853943D01*
X123794617Y-102850715D01*
X123783890Y-102848204D01*
X123772895Y-102846410D01*
X123761633Y-102845334D01*
X123750104Y-102844975D01*
X123747913Y-102844987D01*
X123737164Y-102845404D01*
X123726761Y-102846418D01*
X123716704Y-102848028D01*
X123706993Y-102850234D01*
X123697627Y-102853037D01*
X123686845Y-102857187D01*
X123683329Y-102858722D01*
X123673076Y-102863797D01*
X123663270Y-102869576D01*
X123653911Y-102876059D01*
X123644998Y-102883246D01*
X123636531Y-102891137D01*
X123635164Y-102892504D01*
X123627218Y-102901045D01*
X123620938Y-102908608D01*
X123614968Y-102916577D01*
X123609308Y-102924951D01*
X123603958Y-102933731D01*
X123598918Y-102942916D01*
X123596955Y-102946667D01*
X123592241Y-102956268D01*
X123587801Y-102966192D01*
X123583635Y-102976438D01*
X123579744Y-102987005D01*
X123576127Y-102997895D01*
X123572784Y-103009106D01*
X123443769Y-103009106D01*
X123446510Y-102998115D01*
X123447934Y-102992695D01*
X123450895Y-102982035D01*
X123454009Y-102971612D01*
X123457276Y-102961429D01*
X123460695Y-102951483D01*
X123464268Y-102941777D01*
X123467992Y-102932308D01*
X123471870Y-102923079D01*
X123475900Y-102914087D01*
X123482231Y-102901048D01*
X123488906Y-102888545D01*
X123495924Y-102876579D01*
X123503285Y-102865149D01*
X123510990Y-102854256D01*
X123516279Y-102847289D01*
X123524466Y-102837270D01*
X123532957Y-102827771D01*
X123541753Y-102818792D01*
X123550854Y-102810332D01*
X123560260Y-102802391D01*
X123569971Y-102794970D01*
X123579987Y-102788069D01*
X123590307Y-102781687D01*
X123600933Y-102775824D01*
X123611863Y-102770481D01*
X123619302Y-102767198D01*
X123630650Y-102762671D01*
X123642225Y-102758620D01*
X123654028Y-102755046D01*
X123666059Y-102751948D01*
X123678317Y-102749327D01*
X123690803Y-102747183D01*
X123703516Y-102745515D01*
X123716457Y-102744323D01*
X123729625Y-102743608D01*
X123743021Y-102743370D01*
X123753351Y-102743501D01*
G37*
G36*
X128065143Y-105330000D02*
G01*
X128629099Y-105330000D01*
X128629099Y-105216671D01*
X128398290Y-105216671D01*
X128398290Y-104556238D01*
X128613224Y-104689106D01*
X128657187Y-104587501D01*
X128371423Y-104439002D01*
X128265666Y-104439002D01*
X128265666Y-105216671D01*
X128065143Y-105216671D01*
X128065143Y-105330000D01*
G37*
G36*
X127447794Y-104439075D02*
G01*
X127458955Y-104439295D01*
X127469944Y-104439663D01*
X127480761Y-104440177D01*
X127491407Y-104440838D01*
X127501880Y-104441646D01*
X127512182Y-104442601D01*
X127522313Y-104443703D01*
X127532271Y-104444952D01*
X127542058Y-104446348D01*
X127556417Y-104448717D01*
X127570389Y-104451417D01*
X127583974Y-104454447D01*
X127597173Y-104457808D01*
X127605773Y-104460218D01*
X127618409Y-104464055D01*
X127630726Y-104468158D01*
X127642726Y-104472527D01*
X127654408Y-104477163D01*
X127665773Y-104482064D01*
X127676819Y-104487232D01*
X127687548Y-104492666D01*
X127697960Y-104498366D01*
X127708053Y-104504332D01*
X127717829Y-104510565D01*
X127724145Y-104514831D01*
X127733376Y-104521432D01*
X127742315Y-104528272D01*
X127750961Y-104535353D01*
X127759316Y-104542675D01*
X127767379Y-104550237D01*
X127775150Y-104558039D01*
X127782629Y-104566082D01*
X127789816Y-104574366D01*
X127796711Y-104582889D01*
X127803314Y-104591653D01*
X127807536Y-104597584D01*
X127813672Y-104606623D01*
X127819572Y-104615833D01*
X127825235Y-104625216D01*
X127830663Y-104634770D01*
X127835854Y-104644496D01*
X127840809Y-104654393D01*
X127845528Y-104664463D01*
X127850011Y-104674704D01*
X127854258Y-104685116D01*
X127858269Y-104695701D01*
X127860789Y-104702814D01*
X127864400Y-104713599D01*
X127867810Y-104724521D01*
X127871017Y-104735581D01*
X127874023Y-104746778D01*
X127876828Y-104758113D01*
X127879430Y-104769584D01*
X127881831Y-104781193D01*
X127884030Y-104792940D01*
X127886027Y-104804824D01*
X127887822Y-104816845D01*
X127888887Y-104824891D01*
X127890355Y-104837020D01*
X127891669Y-104849223D01*
X127892828Y-104861498D01*
X127893833Y-104873846D01*
X127894683Y-104886268D01*
X127895379Y-104898762D01*
X127895919Y-104911329D01*
X127896306Y-104923970D01*
X127896538Y-104936683D01*
X127896615Y-104949469D01*
X127896596Y-104955808D01*
X127896441Y-104968328D01*
X127896132Y-104980635D01*
X127895668Y-104992731D01*
X127895050Y-105004615D01*
X127894277Y-105016287D01*
X127893350Y-105027747D01*
X127892268Y-105038996D01*
X127891032Y-105050033D01*
X127889640Y-105060857D01*
X127888095Y-105071471D01*
X127886395Y-105081872D01*
X127884540Y-105092061D01*
X127882531Y-105102039D01*
X127880367Y-105111805D01*
X127876831Y-105126057D01*
X127874256Y-105135269D01*
X127870125Y-105148716D01*
X127865672Y-105161716D01*
X127860898Y-105174270D01*
X127855801Y-105186377D01*
X127850382Y-105198038D01*
X127844641Y-105209252D01*
X127838578Y-105220020D01*
X127832193Y-105230341D01*
X127825486Y-105240215D01*
X127818457Y-105249644D01*
X127813562Y-105255651D01*
X127805951Y-105264295D01*
X127798017Y-105272496D01*
X127789762Y-105280254D01*
X127781184Y-105287571D01*
X127772285Y-105294445D01*
X127763064Y-105300877D01*
X127753520Y-105306867D01*
X127743655Y-105312415D01*
X127733468Y-105317520D01*
X127722958Y-105322184D01*
X127715747Y-105325023D01*
X127704681Y-105328939D01*
X127693313Y-105332442D01*
X127681646Y-105335533D01*
X127669677Y-105338212D01*
X127657408Y-105340479D01*
X127644839Y-105342334D01*
X127631969Y-105343776D01*
X127618798Y-105344807D01*
X127605327Y-105345425D01*
X127591556Y-105345631D01*
X127582781Y-105345541D01*
X127569802Y-105345071D01*
X127557041Y-105344196D01*
X127544500Y-105342918D01*
X127532177Y-105341237D01*
X127520073Y-105339151D01*
X127508189Y-105336663D01*
X127496523Y-105333770D01*
X127485076Y-105330475D01*
X127473849Y-105326775D01*
X127462840Y-105322672D01*
X127455640Y-105319737D01*
X127445092Y-105315086D01*
X127434843Y-105310140D01*
X127424896Y-105304897D01*
X127415249Y-105299358D01*
X127405902Y-105293522D01*
X127396856Y-105287391D01*
X127388110Y-105280963D01*
X127379665Y-105274239D01*
X127371521Y-105267218D01*
X127363677Y-105259902D01*
X127358592Y-105254840D01*
X127351243Y-105247044D01*
X127344229Y-105239004D01*
X127337550Y-105230718D01*
X127331206Y-105222188D01*
X127325197Y-105213413D01*
X127319523Y-105204394D01*
X127314183Y-105195130D01*
X127309179Y-105185620D01*
X127304509Y-105175867D01*
X127300174Y-105165868D01*
X127297453Y-105159092D01*
X127293701Y-105148815D01*
X127290343Y-105138406D01*
X127287381Y-105127864D01*
X127284813Y-105117189D01*
X127282641Y-105106380D01*
X127280864Y-105095439D01*
X127279481Y-105084364D01*
X127278494Y-105073156D01*
X127277901Y-105061815D01*
X127277842Y-105058401D01*
X127402756Y-105058401D01*
X127402808Y-105063981D01*
X127403228Y-105074911D01*
X127404068Y-105085535D01*
X127405327Y-105095855D01*
X127407006Y-105105869D01*
X127409105Y-105115577D01*
X127412319Y-105127284D01*
X127416189Y-105138513D01*
X127417909Y-105142868D01*
X127422557Y-105153398D01*
X127427707Y-105163414D01*
X127433357Y-105172918D01*
X127439509Y-105181909D01*
X127446161Y-105190387D01*
X127453314Y-105198353D01*
X127456311Y-105201360D01*
X127464112Y-105208477D01*
X127472354Y-105215022D01*
X127481037Y-105220995D01*
X127490162Y-105226395D01*
X127499727Y-105231222D01*
X127509734Y-105235478D01*
X127513821Y-105236986D01*
X127524262Y-105240331D01*
X127535025Y-105243068D01*
X127546110Y-105245197D01*
X127557517Y-105246717D01*
X127569246Y-105247630D01*
X127581297Y-105247934D01*
X127589950Y-105247805D01*
X127601193Y-105247233D01*
X127612100Y-105246202D01*
X127622671Y-105244714D01*
X127632906Y-105242768D01*
X127642806Y-105240363D01*
X127652369Y-105237501D01*
X127663852Y-105233279D01*
X127666069Y-105232344D01*
X127676829Y-105227080D01*
X127687040Y-105220838D01*
X127696702Y-105213618D01*
X127704037Y-105207138D01*
X127711021Y-105200032D01*
X127717654Y-105192300D01*
X127723935Y-105183942D01*
X127729854Y-105174852D01*
X127735399Y-105165044D01*
X127740571Y-105154519D01*
X127745368Y-105143276D01*
X127749791Y-105131316D01*
X127752863Y-105121875D01*
X127755724Y-105112030D01*
X127758375Y-105101782D01*
X127760816Y-105091130D01*
X127761567Y-105087484D01*
X127763678Y-105076216D01*
X127765574Y-105064449D01*
X127767256Y-105052185D01*
X127768723Y-105039422D01*
X127769975Y-105026161D01*
X127771013Y-105012403D01*
X127771836Y-104998146D01*
X127772265Y-104988365D01*
X127772599Y-104978362D01*
X127772837Y-104968138D01*
X127772980Y-104957693D01*
X127773028Y-104947027D01*
X127768143Y-104943691D01*
X127759301Y-104937964D01*
X127750085Y-104932378D01*
X127740494Y-104926932D01*
X127730530Y-104921625D01*
X127727590Y-104920140D01*
X127718669Y-104915809D01*
X127709593Y-104911668D01*
X127700362Y-104907715D01*
X127690977Y-104903951D01*
X127681437Y-104900376D01*
X127678197Y-104899232D01*
X127668431Y-104895995D01*
X127658597Y-104893050D01*
X127648693Y-104890397D01*
X127638721Y-104888035D01*
X127628681Y-104885966D01*
X127627002Y-104885635D01*
X127616973Y-104883872D01*
X127607013Y-104882487D01*
X127597121Y-104881479D01*
X127587298Y-104880850D01*
X127575924Y-104880593D01*
X127573097Y-104880605D01*
X127562044Y-104880903D01*
X127551394Y-104881597D01*
X127541149Y-104882689D01*
X127531309Y-104884177D01*
X127519577Y-104886596D01*
X127508478Y-104889634D01*
X127498011Y-104893293D01*
X127493964Y-104894891D01*
X127484241Y-104899246D01*
X127475079Y-104904112D01*
X127466476Y-104909492D01*
X127458435Y-104915385D01*
X127450954Y-104921790D01*
X127444033Y-104928709D01*
X127441392Y-104931589D01*
X127435191Y-104939149D01*
X127429562Y-104947221D01*
X127424505Y-104955807D01*
X127420021Y-104964905D01*
X127416109Y-104974516D01*
X127412770Y-104984640D01*
X127410423Y-104993005D01*
X127407929Y-105003806D01*
X127405924Y-105014987D01*
X127404409Y-105026551D01*
X127403382Y-105038496D01*
X127402912Y-105048326D01*
X127402756Y-105058401D01*
X127277842Y-105058401D01*
X127277704Y-105050341D01*
X127277771Y-105043022D01*
X127278127Y-105032185D01*
X127278787Y-105021521D01*
X127279753Y-105011028D01*
X127281023Y-105000707D01*
X127282598Y-104990557D01*
X127284478Y-104980580D01*
X127286662Y-104970774D01*
X127289152Y-104961139D01*
X127291946Y-104951677D01*
X127295045Y-104942386D01*
X127299582Y-104930273D01*
X127304647Y-104918603D01*
X127310238Y-104907375D01*
X127316355Y-104896591D01*
X127322999Y-104886248D01*
X127330170Y-104876349D01*
X127337867Y-104866892D01*
X127346092Y-104857878D01*
X127352610Y-104851375D01*
X127361774Y-104843132D01*
X127371481Y-104835377D01*
X127381730Y-104828111D01*
X127392520Y-104821333D01*
X127403853Y-104815044D01*
X127412708Y-104810648D01*
X127421868Y-104806526D01*
X127431332Y-104802679D01*
X127437780Y-104800284D01*
X127447702Y-104796980D01*
X127457924Y-104794024D01*
X127468447Y-104791416D01*
X127479271Y-104789155D01*
X127490395Y-104787243D01*
X127501819Y-104785678D01*
X127513544Y-104784460D01*
X127525570Y-104783591D01*
X127537896Y-104783069D01*
X127550523Y-104782896D01*
X127558730Y-104782962D01*
X127570904Y-104783313D01*
X127582916Y-104783964D01*
X127594764Y-104784916D01*
X127606449Y-104786168D01*
X127617971Y-104787721D01*
X127629329Y-104789574D01*
X127640525Y-104791728D01*
X127651557Y-104794182D01*
X127662427Y-104796937D01*
X127673133Y-104799993D01*
X127676661Y-104801072D01*
X127687089Y-104804442D01*
X127697281Y-104808010D01*
X127707236Y-104811775D01*
X127716956Y-104815738D01*
X127726439Y-104819898D01*
X127735686Y-104824256D01*
X127744697Y-104828811D01*
X127753472Y-104833564D01*
X127762010Y-104838514D01*
X127773028Y-104845422D01*
X127770341Y-104810495D01*
X127769578Y-104802969D01*
X127768204Y-104791852D01*
X127766556Y-104780942D01*
X127764632Y-104770237D01*
X127762434Y-104759738D01*
X127759961Y-104749446D01*
X127757213Y-104739359D01*
X127754191Y-104729479D01*
X127750894Y-104719805D01*
X127747322Y-104710336D01*
X127743475Y-104701074D01*
X127742129Y-104698020D01*
X127737872Y-104689026D01*
X127733290Y-104680286D01*
X127728381Y-104671798D01*
X127721329Y-104660876D01*
X127713696Y-104650404D01*
X127705484Y-104640383D01*
X127696691Y-104630811D01*
X127689716Y-104623928D01*
X127682414Y-104617299D01*
X127677334Y-104613025D01*
X127669437Y-104606842D01*
X127661211Y-104600935D01*
X127652653Y-104595302D01*
X127643765Y-104589944D01*
X127634547Y-104584860D01*
X127624998Y-104580052D01*
X127615118Y-104575518D01*
X127604908Y-104571259D01*
X127594367Y-104567275D01*
X127583496Y-104563565D01*
X127579781Y-104562393D01*
X127568387Y-104559100D01*
X127556620Y-104556142D01*
X127544479Y-104553519D01*
X127531964Y-104551231D01*
X127519077Y-104549277D01*
X127505815Y-104547659D01*
X127492180Y-104546375D01*
X127478172Y-104545426D01*
X127463790Y-104544812D01*
X127453994Y-104544589D01*
X127444033Y-104544515D01*
X127347801Y-104544515D01*
X127347801Y-104439002D01*
X127436461Y-104439002D01*
X127447794Y-104439075D01*
G37*
G36*
X126547906Y-104360844D02*
G01*
X127019295Y-105470683D01*
X127133356Y-105470683D01*
X126661967Y-104360844D01*
X126547906Y-104360844D01*
G37*
G36*
X126059980Y-104423501D02*
G01*
X126070148Y-104423893D01*
X126080153Y-104424546D01*
X126089996Y-104425461D01*
X126104457Y-104427324D01*
X126118553Y-104429775D01*
X126132284Y-104432814D01*
X126145649Y-104436441D01*
X126158650Y-104440656D01*
X126171286Y-104445460D01*
X126183557Y-104450851D01*
X126195464Y-104456831D01*
X126203197Y-104461091D01*
X126214490Y-104467885D01*
X126225414Y-104475165D01*
X126235968Y-104482929D01*
X126246153Y-104491179D01*
X126255969Y-104499914D01*
X126265416Y-104509134D01*
X126274494Y-104518839D01*
X126283202Y-104529029D01*
X126291541Y-104539704D01*
X126299511Y-104550865D01*
X126304621Y-104558533D01*
X126311986Y-104570396D01*
X126318989Y-104582693D01*
X126325633Y-104595423D01*
X126331915Y-104608587D01*
X126335903Y-104617604D01*
X126339731Y-104626814D01*
X126343398Y-104636216D01*
X126346906Y-104645811D01*
X126350252Y-104655599D01*
X126353439Y-104665580D01*
X126356465Y-104675753D01*
X126359331Y-104686119D01*
X126362037Y-104696678D01*
X126364551Y-104707402D01*
X126366903Y-104718263D01*
X126369093Y-104729261D01*
X126371120Y-104740397D01*
X126372985Y-104751671D01*
X126374688Y-104763081D01*
X126376229Y-104774629D01*
X126377608Y-104786315D01*
X126378824Y-104798138D01*
X126379878Y-104810098D01*
X126380770Y-104822196D01*
X126381500Y-104834431D01*
X126382068Y-104846803D01*
X126382473Y-104859313D01*
X126382717Y-104871960D01*
X126382798Y-104884745D01*
X126382710Y-104899578D01*
X126382447Y-104914157D01*
X126382008Y-104928482D01*
X126381393Y-104942554D01*
X126380603Y-104956372D01*
X126379638Y-104969936D01*
X126378497Y-104983246D01*
X126377180Y-104996303D01*
X126375688Y-105009105D01*
X126374020Y-105021654D01*
X126372177Y-105033950D01*
X126370158Y-105045991D01*
X126367964Y-105057778D01*
X126365594Y-105069312D01*
X126363049Y-105080592D01*
X126360327Y-105091618D01*
X126358889Y-105097038D01*
X126355901Y-105107697D01*
X126352764Y-105118115D01*
X126349478Y-105128294D01*
X126346044Y-105138231D01*
X126342460Y-105147928D01*
X126338728Y-105157385D01*
X126334847Y-105166602D01*
X126330817Y-105175577D01*
X126324492Y-105188591D01*
X126317834Y-105201063D01*
X126310840Y-105212994D01*
X126303511Y-105224384D01*
X126295847Y-105235233D01*
X126290529Y-105242142D01*
X126282302Y-105252079D01*
X126273774Y-105261505D01*
X126264945Y-105270420D01*
X126255816Y-105278824D01*
X126246387Y-105286717D01*
X126236657Y-105294100D01*
X126226626Y-105300971D01*
X126216295Y-105307332D01*
X126205663Y-105313181D01*
X126194731Y-105318520D01*
X126187292Y-105321803D01*
X126175944Y-105326330D01*
X126164368Y-105330381D01*
X126152565Y-105333955D01*
X126140535Y-105337053D01*
X126128277Y-105339674D01*
X126115791Y-105341819D01*
X126103078Y-105343487D01*
X126090137Y-105344678D01*
X126076968Y-105345393D01*
X126063572Y-105345631D01*
X126053184Y-105345501D01*
X126042964Y-105345112D01*
X126032912Y-105344463D01*
X126023028Y-105343555D01*
X126008517Y-105341706D01*
X125994383Y-105339273D01*
X125980627Y-105336256D01*
X125967249Y-105332656D01*
X125954249Y-105328471D01*
X125941627Y-105323703D01*
X125929382Y-105318350D01*
X125917515Y-105312414D01*
X125909810Y-105308125D01*
X125898553Y-105301295D01*
X125887657Y-105293989D01*
X125877121Y-105286206D01*
X125866945Y-105277946D01*
X125857131Y-105269210D01*
X125847677Y-105259997D01*
X125838584Y-105250308D01*
X125829851Y-105240142D01*
X125821479Y-105229500D01*
X125813468Y-105218381D01*
X125808300Y-105210685D01*
X125800864Y-105198791D01*
X125793806Y-105186476D01*
X125787126Y-105173741D01*
X125780823Y-105160585D01*
X125776831Y-105151580D01*
X125773007Y-105142389D01*
X125769351Y-105133010D01*
X125765863Y-105123444D01*
X125762543Y-105113692D01*
X125759391Y-105103752D01*
X125756407Y-105093626D01*
X125753590Y-105083312D01*
X125750942Y-105072812D01*
X125748457Y-105062117D01*
X125746133Y-105051280D01*
X125743969Y-105040303D01*
X125741966Y-105029184D01*
X125740122Y-105017924D01*
X125738439Y-105006523D01*
X125736917Y-104994980D01*
X125735554Y-104983297D01*
X125734352Y-104971472D01*
X125733310Y-104959506D01*
X125732429Y-104947399D01*
X125731707Y-104935150D01*
X125731146Y-104922761D01*
X125730746Y-104910230D01*
X125730505Y-104897558D01*
X125730468Y-104891584D01*
X125851325Y-104891584D01*
X125851382Y-104902341D01*
X125851551Y-104912936D01*
X125851832Y-104923369D01*
X125852226Y-104933639D01*
X125852733Y-104943748D01*
X125853352Y-104953694D01*
X125854084Y-104963478D01*
X125855392Y-104977850D01*
X125856954Y-104991857D01*
X125858770Y-105005499D01*
X125860838Y-105018776D01*
X125863160Y-105031688D01*
X125865736Y-105044235D01*
X125867586Y-105052395D01*
X125870543Y-105064319D01*
X125873719Y-105075865D01*
X125877115Y-105087033D01*
X125880729Y-105097824D01*
X125884562Y-105108237D01*
X125888614Y-105118271D01*
X125892886Y-105127929D01*
X125897376Y-105137208D01*
X125902085Y-105146109D01*
X125907013Y-105154633D01*
X125913848Y-105165349D01*
X125921041Y-105175394D01*
X125928594Y-105184767D01*
X125936505Y-105193468D01*
X125944775Y-105201497D01*
X125953404Y-105208855D01*
X125962391Y-105215541D01*
X125971737Y-105221556D01*
X125981400Y-105226822D01*
X125991338Y-105231386D01*
X126001550Y-105235249D01*
X126012037Y-105238408D01*
X126022799Y-105240866D01*
X126033836Y-105242622D01*
X126045147Y-105243675D01*
X126056734Y-105244026D01*
X126059001Y-105244014D01*
X126070106Y-105243605D01*
X126080830Y-105242612D01*
X126091172Y-105241034D01*
X126101132Y-105238872D01*
X126110711Y-105236125D01*
X126121702Y-105232058D01*
X126125221Y-105230494D01*
X126135502Y-105225357D01*
X126145371Y-105219549D01*
X126154828Y-105213072D01*
X126163872Y-105205925D01*
X126172505Y-105198108D01*
X126175258Y-105195358D01*
X126181925Y-105188189D01*
X126188281Y-105180603D01*
X126194328Y-105172600D01*
X126200064Y-105164179D01*
X126205490Y-105155340D01*
X126210607Y-105146085D01*
X126212540Y-105142277D01*
X126217188Y-105132566D01*
X126221575Y-105122580D01*
X126225699Y-105112320D01*
X126229560Y-105101786D01*
X126233159Y-105090978D01*
X126236496Y-105079895D01*
X125856699Y-104802435D01*
X125856577Y-104803779D01*
X125855619Y-104814602D01*
X125854692Y-104825547D01*
X125853795Y-104836615D01*
X125853035Y-104846399D01*
X125852634Y-104852020D01*
X125852062Y-104861876D01*
X125851653Y-104871755D01*
X125851407Y-104881658D01*
X125851325Y-104891584D01*
X125730468Y-104891584D01*
X125730425Y-104884745D01*
X125730514Y-104869941D01*
X125730780Y-104855390D01*
X125731224Y-104841090D01*
X125731845Y-104827042D01*
X125732643Y-104813247D01*
X125733619Y-104799702D01*
X125734773Y-104786410D01*
X125736104Y-104773370D01*
X125737612Y-104760582D01*
X125739298Y-104748045D01*
X125741161Y-104735760D01*
X125743202Y-104723728D01*
X125745420Y-104711947D01*
X125747816Y-104700418D01*
X125750389Y-104689141D01*
X125750398Y-104689106D01*
X125879413Y-104689106D01*
X126259211Y-104962658D01*
X126260079Y-104954372D01*
X126260921Y-104943546D01*
X126261409Y-104933761D01*
X126261653Y-104923824D01*
X126261760Y-104913703D01*
X126261837Y-104903613D01*
X126261882Y-104893553D01*
X126261898Y-104883524D01*
X126261841Y-104872585D01*
X126261672Y-104861813D01*
X126261391Y-104851206D01*
X126260997Y-104840766D01*
X126260490Y-104830491D01*
X126259871Y-104820383D01*
X126259139Y-104810441D01*
X126257831Y-104795838D01*
X126256269Y-104781609D01*
X126254453Y-104767754D01*
X126252385Y-104754272D01*
X126250063Y-104741164D01*
X126247487Y-104728429D01*
X126245638Y-104720148D01*
X126242686Y-104708041D01*
X126239519Y-104696311D01*
X126236137Y-104684960D01*
X126232541Y-104673986D01*
X126228730Y-104663390D01*
X126224704Y-104653172D01*
X126220464Y-104643332D01*
X126216009Y-104633869D01*
X126211339Y-104624785D01*
X126206454Y-104616078D01*
X126199562Y-104605075D01*
X126192319Y-104594783D01*
X126184725Y-104585200D01*
X126176779Y-104576327D01*
X126168482Y-104568164D01*
X126159835Y-104560711D01*
X126150836Y-104553967D01*
X126141486Y-104547934D01*
X126131827Y-104542553D01*
X126121901Y-104537889D01*
X126111707Y-104533943D01*
X126101247Y-104530715D01*
X126090519Y-104528204D01*
X126079525Y-104526410D01*
X126068263Y-104525334D01*
X126056734Y-104524975D01*
X126054542Y-104524987D01*
X126043794Y-104525404D01*
X126033391Y-104526418D01*
X126023333Y-104528028D01*
X126013622Y-104530234D01*
X126004257Y-104533037D01*
X125993475Y-104537187D01*
X125989958Y-104538722D01*
X125979706Y-104543797D01*
X125969900Y-104549576D01*
X125960540Y-104556059D01*
X125951627Y-104563246D01*
X125943161Y-104571137D01*
X125941793Y-104572504D01*
X125933848Y-104581045D01*
X125927567Y-104588608D01*
X125921597Y-104596577D01*
X125915937Y-104604951D01*
X125910587Y-104613731D01*
X125905547Y-104622916D01*
X125903585Y-104626667D01*
X125898870Y-104636268D01*
X125894430Y-104646192D01*
X125890265Y-104656438D01*
X125886373Y-104667005D01*
X125882756Y-104677895D01*
X125879413Y-104689106D01*
X125750398Y-104689106D01*
X125753140Y-104678115D01*
X125754563Y-104672695D01*
X125757525Y-104662035D01*
X125760639Y-104651612D01*
X125763906Y-104641429D01*
X125767325Y-104631483D01*
X125770897Y-104621777D01*
X125774622Y-104612308D01*
X125778499Y-104603079D01*
X125782529Y-104594087D01*
X125788860Y-104581048D01*
X125795535Y-104568545D01*
X125802553Y-104556579D01*
X125809915Y-104545149D01*
X125817620Y-104534256D01*
X125822908Y-104527289D01*
X125831095Y-104517270D01*
X125839586Y-104507771D01*
X125848383Y-104498792D01*
X125857484Y-104490332D01*
X125866890Y-104482391D01*
X125876601Y-104474970D01*
X125886616Y-104468069D01*
X125896937Y-104461687D01*
X125907562Y-104455824D01*
X125918492Y-104450481D01*
X125925931Y-104447198D01*
X125937279Y-104442671D01*
X125948855Y-104438620D01*
X125960658Y-104435046D01*
X125972688Y-104431948D01*
X125984947Y-104429327D01*
X125997432Y-104427183D01*
X126010145Y-104425515D01*
X126023086Y-104424323D01*
X126036255Y-104423608D01*
X126049651Y-104423370D01*
X126059980Y-104423501D01*
G37*
G36*
X125292819Y-104423444D02*
G01*
X125306208Y-104423835D01*
X125319258Y-104424561D01*
X125331968Y-104425621D01*
X125344339Y-104427017D01*
X125356371Y-104428747D01*
X125368064Y-104430812D01*
X125379418Y-104433212D01*
X125390432Y-104435947D01*
X125401108Y-104439016D01*
X125411444Y-104442421D01*
X125414815Y-104443624D01*
X125424717Y-104447386D01*
X125434301Y-104451375D01*
X125443568Y-104455592D01*
X125452516Y-104460036D01*
X125461147Y-104464708D01*
X125472161Y-104471291D01*
X125482610Y-104478279D01*
X125492494Y-104485671D01*
X125501814Y-104493468D01*
X125510511Y-104501551D01*
X125518651Y-104509924D01*
X125526234Y-104518587D01*
X125533260Y-104527540D01*
X125539729Y-104536783D01*
X125545640Y-104546316D01*
X125550994Y-104556139D01*
X125555792Y-104566252D01*
X125559970Y-104576491D01*
X125563592Y-104586814D01*
X125566657Y-104597221D01*
X125569164Y-104607712D01*
X125571114Y-104618287D01*
X125572507Y-104628946D01*
X125573343Y-104639689D01*
X125573621Y-104650516D01*
X125573463Y-104659397D01*
X125572631Y-104672480D01*
X125571087Y-104685275D01*
X125568830Y-104697782D01*
X125565861Y-104710001D01*
X125562179Y-104721933D01*
X125557784Y-104733578D01*
X125552676Y-104744934D01*
X125546856Y-104756003D01*
X125540323Y-104766784D01*
X125533077Y-104777278D01*
X125525058Y-104787494D01*
X125516207Y-104797534D01*
X125506523Y-104807398D01*
X125496005Y-104817086D01*
X125488531Y-104823447D01*
X125480687Y-104829729D01*
X125472472Y-104835933D01*
X125463888Y-104842060D01*
X125454933Y-104848107D01*
X125445607Y-104854077D01*
X125435912Y-104859968D01*
X125425847Y-104865782D01*
X125415411Y-104871517D01*
X125404605Y-104877173D01*
X125416409Y-104883261D01*
X125427824Y-104889435D01*
X125438849Y-104895695D01*
X125449485Y-104902040D01*
X125459732Y-104908472D01*
X125469589Y-104914989D01*
X125479057Y-104921592D01*
X125488136Y-104928281D01*
X125496826Y-104935056D01*
X125505126Y-104941917D01*
X125513038Y-104948863D01*
X125520560Y-104955896D01*
X125527692Y-104963014D01*
X125537661Y-104973853D01*
X125546755Y-104984884D01*
X125552315Y-104992361D01*
X125559983Y-105003910D01*
X125566844Y-105015857D01*
X125572897Y-105028204D01*
X125578144Y-105040950D01*
X125582583Y-105054096D01*
X125586215Y-105067641D01*
X125589040Y-105081585D01*
X125591058Y-105095928D01*
X125591955Y-105105712D01*
X125592493Y-105115674D01*
X125592672Y-105125812D01*
X125592375Y-105137719D01*
X125591482Y-105149382D01*
X125589993Y-105160800D01*
X125587909Y-105171974D01*
X125585230Y-105182904D01*
X125581956Y-105193590D01*
X125578086Y-105204031D01*
X125573621Y-105214228D01*
X125568507Y-105224074D01*
X125562814Y-105233585D01*
X125556540Y-105242759D01*
X125549685Y-105251598D01*
X125542251Y-105260100D01*
X125534237Y-105268267D01*
X125525643Y-105276098D01*
X125516468Y-105283593D01*
X125514085Y-105285413D01*
X125504197Y-105292436D01*
X125493744Y-105299056D01*
X125482726Y-105305271D01*
X125471144Y-105311081D01*
X125462086Y-105315173D01*
X125452711Y-105319038D01*
X125443018Y-105322675D01*
X125433008Y-105326085D01*
X125422679Y-105329267D01*
X125415619Y-105331248D01*
X125404771Y-105333981D01*
X125393614Y-105336426D01*
X125382148Y-105338584D01*
X125370373Y-105340453D01*
X125358289Y-105342035D01*
X125345895Y-105343330D01*
X125333193Y-105344337D01*
X125320181Y-105345056D01*
X125306860Y-105345487D01*
X125293230Y-105345631D01*
X125284934Y-105345570D01*
X125272632Y-105345249D01*
X125260502Y-105344654D01*
X125248544Y-105343784D01*
X125236757Y-105342639D01*
X125225142Y-105341219D01*
X125213699Y-105339525D01*
X125202427Y-105337556D01*
X125191328Y-105335312D01*
X125180400Y-105332793D01*
X125169644Y-105330000D01*
X125166087Y-105329009D01*
X125155596Y-105325870D01*
X125145376Y-105322483D01*
X125135426Y-105318846D01*
X125125746Y-105314961D01*
X125116338Y-105310826D01*
X125107199Y-105306443D01*
X125098331Y-105301810D01*
X125089734Y-105296929D01*
X125081407Y-105291798D01*
X125070725Y-105284570D01*
X125060517Y-105276846D01*
X125050896Y-105268695D01*
X125041863Y-105260116D01*
X125033417Y-105251109D01*
X125025559Y-105241675D01*
X125018289Y-105231814D01*
X125011607Y-105221525D01*
X125005512Y-105210809D01*
X125004070Y-105208049D01*
X124998758Y-105196766D01*
X124994178Y-105185094D01*
X124990331Y-105173033D01*
X124987217Y-105160582D01*
X124985362Y-105150989D01*
X124983920Y-105141176D01*
X124982889Y-105131145D01*
X124982271Y-105120894D01*
X124982156Y-105115066D01*
X125112002Y-105115066D01*
X125112123Y-105121302D01*
X125112857Y-105131323D01*
X125114620Y-105142735D01*
X125117345Y-105153477D01*
X125121032Y-105163549D01*
X125125680Y-105172951D01*
X125127429Y-105175941D01*
X125133145Y-105184522D01*
X125139565Y-105192519D01*
X125146689Y-105199933D01*
X125154517Y-105206762D01*
X125163049Y-105213007D01*
X125169106Y-105216793D01*
X125178691Y-105222014D01*
X125188878Y-105226685D01*
X125199665Y-105230806D01*
X125209114Y-105233821D01*
X125218981Y-105236454D01*
X125223028Y-105237371D01*
X125233296Y-105239405D01*
X125243779Y-105241068D01*
X125254476Y-105242362D01*
X125265389Y-105243287D01*
X125276516Y-105243841D01*
X125287857Y-105244026D01*
X125292539Y-105243994D01*
X125304068Y-105243629D01*
X125315346Y-105242858D01*
X125326374Y-105241682D01*
X125337151Y-105240101D01*
X125347678Y-105238114D01*
X125357955Y-105235722D01*
X125365877Y-105233455D01*
X125375394Y-105230256D01*
X125384482Y-105226652D01*
X125394820Y-105221792D01*
X125404540Y-105216348D01*
X125413642Y-105210321D01*
X125416504Y-105208185D01*
X125424633Y-105201436D01*
X125432075Y-105194172D01*
X125438830Y-105186392D01*
X125444898Y-105178098D01*
X125450279Y-105169288D01*
X125451905Y-105166237D01*
X125456156Y-105156740D01*
X125459462Y-105146728D01*
X125461823Y-105136200D01*
X125463240Y-105125158D01*
X125463712Y-105113600D01*
X125463704Y-105111893D01*
X125463315Y-105101761D01*
X125462341Y-105091818D01*
X125460784Y-105082063D01*
X125458643Y-105072498D01*
X125455408Y-105061577D01*
X125454326Y-105058470D01*
X125450553Y-105049242D01*
X125445991Y-105040152D01*
X125440639Y-105031199D01*
X125434496Y-105022383D01*
X125427564Y-105013705D01*
X125426331Y-105012271D01*
X125418419Y-105003696D01*
X125411158Y-104996589D01*
X125403288Y-104989518D01*
X125394810Y-104982483D01*
X125385723Y-104975484D01*
X125376029Y-104968520D01*
X125367801Y-104962956D01*
X125359115Y-104957377D01*
X125349971Y-104951782D01*
X125340369Y-104946172D01*
X125330310Y-104940547D01*
X125319792Y-104934906D01*
X125308816Y-104929250D01*
X125297383Y-104923579D01*
X125293967Y-104925120D01*
X125283945Y-104929727D01*
X125274263Y-104934313D01*
X125264920Y-104938878D01*
X125255916Y-104943421D01*
X125247252Y-104947943D01*
X125236226Y-104953938D01*
X125225804Y-104959895D01*
X125215985Y-104965814D01*
X125206769Y-104971695D01*
X125200165Y-104976048D01*
X125191762Y-104981858D01*
X125181902Y-104989132D01*
X125172757Y-104996417D01*
X125164328Y-105003715D01*
X125156614Y-105011024D01*
X125149616Y-105018346D01*
X125148300Y-105019797D01*
X125140950Y-105028544D01*
X125134527Y-105037359D01*
X125129032Y-105046244D01*
X125124464Y-105055197D01*
X125120307Y-105065729D01*
X125118360Y-105071736D01*
X125115579Y-105082358D01*
X125113592Y-105093120D01*
X125112400Y-105104023D01*
X125112002Y-105115066D01*
X124982156Y-105115066D01*
X124982065Y-105110425D01*
X124982190Y-105102209D01*
X124982743Y-105091482D01*
X124983739Y-105081013D01*
X124985178Y-105070805D01*
X124987059Y-105060856D01*
X124989383Y-105051166D01*
X124992150Y-105041736D01*
X124996231Y-105030314D01*
X124998016Y-105025823D01*
X125002871Y-105014838D01*
X125008287Y-105004199D01*
X125014263Y-104993905D01*
X125020800Y-104983958D01*
X125027897Y-104974356D01*
X125035554Y-104965101D01*
X125042046Y-104957861D01*
X125048820Y-104950797D01*
X125055876Y-104943909D01*
X125063215Y-104937196D01*
X125070836Y-104930659D01*
X125078739Y-104924297D01*
X125086925Y-104918111D01*
X125095394Y-104912100D01*
X125104087Y-104906181D01*
X125112949Y-104900392D01*
X125121978Y-104894732D01*
X125131175Y-104889202D01*
X125140541Y-104883802D01*
X125150074Y-104878532D01*
X125159775Y-104873391D01*
X125169644Y-104868381D01*
X125164657Y-104865757D01*
X125154901Y-104860429D01*
X125145433Y-104854995D01*
X125136253Y-104849454D01*
X125127361Y-104843805D01*
X125118757Y-104838051D01*
X125110441Y-104832189D01*
X125102414Y-104826220D01*
X125094674Y-104820144D01*
X125083605Y-104810831D01*
X125073185Y-104801277D01*
X125063412Y-104791482D01*
X125054288Y-104781447D01*
X125045812Y-104771172D01*
X125037999Y-104760568D01*
X125030955Y-104749548D01*
X125024679Y-104738111D01*
X125019171Y-104726258D01*
X125014432Y-104713988D01*
X125010461Y-104701302D01*
X125007259Y-104688200D01*
X125004825Y-104674681D01*
X125003160Y-104660745D01*
X125002264Y-104646393D01*
X125002183Y-104641723D01*
X125124214Y-104641723D01*
X125124362Y-104648692D01*
X125125139Y-104658944D01*
X125126581Y-104668956D01*
X125128688Y-104678728D01*
X125131461Y-104688259D01*
X125134899Y-104697550D01*
X125139003Y-104706600D01*
X125143772Y-104715410D01*
X125149206Y-104723980D01*
X125155307Y-104732309D01*
X125162072Y-104740397D01*
X125169518Y-104748336D01*
X125177660Y-104756214D01*
X125186497Y-104764032D01*
X125196029Y-104771790D01*
X125206258Y-104779488D01*
X125217181Y-104787126D01*
X125228800Y-104794704D01*
X125241115Y-104802221D01*
X125249711Y-104807200D01*
X125258617Y-104812151D01*
X125267831Y-104817076D01*
X125277355Y-104821974D01*
X125288338Y-104816616D01*
X125298940Y-104811289D01*
X125309160Y-104805992D01*
X125318998Y-104800725D01*
X125328455Y-104795489D01*
X125337530Y-104790284D01*
X125346224Y-104785109D01*
X125354535Y-104779965D01*
X125356540Y-104778667D01*
X125366256Y-104772162D01*
X125375459Y-104765634D01*
X125384150Y-104759082D01*
X125392327Y-104752506D01*
X125399992Y-104745906D01*
X125408513Y-104737955D01*
X125411156Y-104735258D01*
X125418558Y-104727040D01*
X125425169Y-104718634D01*
X125430991Y-104710039D01*
X125436023Y-104701254D01*
X125440265Y-104692281D01*
X125441507Y-104689211D01*
X125444753Y-104679795D01*
X125447277Y-104670069D01*
X125449080Y-104660034D01*
X125450162Y-104649690D01*
X125450523Y-104639036D01*
X125450481Y-104635493D01*
X125449855Y-104625199D01*
X125447851Y-104612261D01*
X125444512Y-104600225D01*
X125439837Y-104589089D01*
X125433827Y-104578854D01*
X125426480Y-104569519D01*
X125417798Y-104561085D01*
X125407780Y-104553551D01*
X125402274Y-104550091D01*
X125393518Y-104545319D01*
X125384165Y-104541049D01*
X125374215Y-104537282D01*
X125363669Y-104534017D01*
X125352525Y-104531254D01*
X125340785Y-104528994D01*
X125328448Y-104527236D01*
X125315515Y-104525980D01*
X125301984Y-104525226D01*
X125287857Y-104524975D01*
X125278284Y-104525088D01*
X125264432Y-104525679D01*
X125251190Y-104526776D01*
X125238558Y-104528381D01*
X125226535Y-104530492D01*
X125215122Y-104533109D01*
X125204318Y-104536233D01*
X125194125Y-104539864D01*
X125184541Y-104544001D01*
X125175566Y-104548645D01*
X125167201Y-104553796D01*
X125159519Y-104559466D01*
X125150451Y-104567854D01*
X125142727Y-104577189D01*
X125136346Y-104587470D01*
X125131309Y-104598697D01*
X125127615Y-104610871D01*
X125125726Y-104620623D01*
X125124592Y-104630907D01*
X125124214Y-104641723D01*
X125002183Y-104641723D01*
X125002093Y-104636594D01*
X125002372Y-104624584D01*
X125003207Y-104612857D01*
X125004600Y-104601412D01*
X125006550Y-104590249D01*
X125009058Y-104579369D01*
X125012122Y-104568771D01*
X125015744Y-104558455D01*
X125019923Y-104548422D01*
X125024659Y-104538714D01*
X125029952Y-104529371D01*
X125035802Y-104520396D01*
X125042210Y-104511786D01*
X125049175Y-104503543D01*
X125056697Y-104495666D01*
X125064776Y-104488155D01*
X125073412Y-104481011D01*
X125077936Y-104477581D01*
X125087385Y-104471025D01*
X125097369Y-104464873D01*
X125107886Y-104459126D01*
X125118938Y-104453783D01*
X125130525Y-104448845D01*
X125142645Y-104444311D01*
X125152086Y-104441176D01*
X125161828Y-104438269D01*
X125168458Y-104436465D01*
X125178649Y-104433977D01*
X125189137Y-104431751D01*
X125199921Y-104429786D01*
X125211002Y-104428084D01*
X125222378Y-104426644D01*
X125234051Y-104425465D01*
X125246020Y-104424549D01*
X125258286Y-104423894D01*
X125270847Y-104423501D01*
X125283705Y-104423370D01*
X125292819Y-104423444D01*
G37*
G36*
X124241277Y-104360844D02*
G01*
X124712665Y-105470683D01*
X124826727Y-105470683D01*
X124355338Y-104360844D01*
X124241277Y-104360844D01*
G37*
G36*
X123444312Y-105330000D02*
G01*
X124035868Y-105330000D01*
X124035868Y-105223510D01*
X123803593Y-104993433D01*
X123796533Y-104986470D01*
X123786258Y-104976248D01*
X123776360Y-104966291D01*
X123766841Y-104956601D01*
X123757699Y-104947177D01*
X123748934Y-104938020D01*
X123740548Y-104929128D01*
X123732540Y-104920503D01*
X123724909Y-104912144D01*
X123717656Y-104904051D01*
X123710781Y-104896224D01*
X123704234Y-104888593D01*
X123697967Y-104881086D01*
X123690044Y-104871270D01*
X123682618Y-104861676D01*
X123675687Y-104852303D01*
X123669253Y-104843152D01*
X123663315Y-104834222D01*
X123657873Y-104825513D01*
X123655338Y-104821242D01*
X123649401Y-104810728D01*
X123644109Y-104800405D01*
X123639460Y-104790272D01*
X123635455Y-104780331D01*
X123632094Y-104770580D01*
X123629378Y-104761021D01*
X123628471Y-104757250D01*
X123626147Y-104745813D01*
X123624578Y-104736019D01*
X123623342Y-104725987D01*
X123622441Y-104715716D01*
X123621873Y-104705207D01*
X123621639Y-104694460D01*
X123621632Y-104692281D01*
X123621853Y-104682125D01*
X123622515Y-104672112D01*
X123623618Y-104662242D01*
X123625163Y-104652516D01*
X123627148Y-104642932D01*
X123630113Y-104631620D01*
X123630669Y-104629755D01*
X123634310Y-104618839D01*
X123638638Y-104608437D01*
X123643652Y-104598551D01*
X123649354Y-104589180D01*
X123655742Y-104580325D01*
X123658025Y-104577487D01*
X123665372Y-104569313D01*
X123673492Y-104561825D01*
X123682385Y-104555025D01*
X123692051Y-104548911D01*
X123700696Y-104544341D01*
X123706140Y-104541828D01*
X123715592Y-104538099D01*
X123725627Y-104535001D01*
X123736247Y-104532536D01*
X123747452Y-104530703D01*
X123759241Y-104529502D01*
X123769092Y-104528997D01*
X123776727Y-104528883D01*
X123787350Y-104529113D01*
X123797790Y-104529802D01*
X123808044Y-104530950D01*
X123818114Y-104532558D01*
X123828000Y-104534625D01*
X123837701Y-104537152D01*
X123847217Y-104540138D01*
X123856548Y-104543583D01*
X123865695Y-104547488D01*
X123874658Y-104551852D01*
X123880530Y-104555017D01*
X123889210Y-104560052D01*
X123897758Y-104565358D01*
X123906172Y-104570934D01*
X123914453Y-104576781D01*
X123922601Y-104582899D01*
X123930616Y-104589286D01*
X123938498Y-104595945D01*
X123946246Y-104602873D01*
X123953862Y-104610072D01*
X123961345Y-104617542D01*
X123966259Y-104622672D01*
X124032205Y-104542805D01*
X124022544Y-104532829D01*
X124012613Y-104523236D01*
X124002411Y-104514024D01*
X123991939Y-104505195D01*
X123981196Y-104496748D01*
X123970183Y-104488683D01*
X123958900Y-104481000D01*
X123947346Y-104473699D01*
X123935521Y-104466781D01*
X123923426Y-104460244D01*
X123915212Y-104456099D01*
X123902611Y-104450250D01*
X123889627Y-104444976D01*
X123876261Y-104440278D01*
X123862513Y-104436155D01*
X123848383Y-104432607D01*
X123838751Y-104430561D01*
X123828949Y-104428772D01*
X123818977Y-104427237D01*
X123808835Y-104425959D01*
X123798523Y-104424936D01*
X123788042Y-104424169D01*
X123777390Y-104423658D01*
X123766569Y-104423402D01*
X123761095Y-104423370D01*
X123749970Y-104423527D01*
X123739033Y-104423997D01*
X123728285Y-104424780D01*
X123717727Y-104425877D01*
X123707357Y-104427288D01*
X123697176Y-104429011D01*
X123687184Y-104431049D01*
X123677381Y-104433399D01*
X123667767Y-104436063D01*
X123658341Y-104439041D01*
X123652163Y-104441200D01*
X123640099Y-104445901D01*
X123628456Y-104451092D01*
X123617232Y-104456770D01*
X123606428Y-104462937D01*
X123596044Y-104469593D01*
X123586080Y-104476737D01*
X123576535Y-104484370D01*
X123567411Y-104492491D01*
X123558690Y-104501093D01*
X123550481Y-104510168D01*
X123542784Y-104519716D01*
X123535598Y-104529738D01*
X123528923Y-104540233D01*
X123522760Y-104551201D01*
X123517108Y-104562642D01*
X123511967Y-104574556D01*
X123508475Y-104583779D01*
X123505327Y-104593221D01*
X123502522Y-104602882D01*
X123500061Y-104612761D01*
X123497943Y-104622860D01*
X123496168Y-104633178D01*
X123494737Y-104643714D01*
X123493649Y-104654470D01*
X123492905Y-104665444D01*
X123492504Y-104676637D01*
X123492428Y-104684221D01*
X123492642Y-104696930D01*
X123493283Y-104709409D01*
X123494351Y-104721659D01*
X123495847Y-104733681D01*
X123497771Y-104745473D01*
X123500122Y-104757036D01*
X123502900Y-104768371D01*
X123506106Y-104779476D01*
X123509746Y-104790402D01*
X123513830Y-104801321D01*
X123518356Y-104812231D01*
X123523325Y-104823135D01*
X123528736Y-104834030D01*
X123534590Y-104844918D01*
X123540887Y-104855798D01*
X123547627Y-104866671D01*
X123552974Y-104874850D01*
X123558575Y-104883086D01*
X123564429Y-104891377D01*
X123570536Y-104899724D01*
X123576897Y-104908127D01*
X123583511Y-104916585D01*
X123590378Y-104925099D01*
X123597498Y-104933670D01*
X123604872Y-104942296D01*
X123612499Y-104950978D01*
X123617725Y-104956796D01*
X123625782Y-104965577D01*
X123634111Y-104974516D01*
X123642710Y-104983615D01*
X123651579Y-104992872D01*
X123660719Y-105002288D01*
X123670129Y-105011863D01*
X123679810Y-105021596D01*
X123689761Y-105031489D01*
X123699983Y-105041540D01*
X123710475Y-105051751D01*
X123717620Y-105058646D01*
X123880530Y-105216671D01*
X123444312Y-105216671D01*
X123444312Y-105330000D01*
G37*
G36*
X122984474Y-104423501D02*
G01*
X122994642Y-104423893D01*
X123004647Y-104424546D01*
X123014491Y-104425461D01*
X123028951Y-104427324D01*
X123043047Y-104429775D01*
X123056778Y-104432814D01*
X123070144Y-104436441D01*
X123083144Y-104440656D01*
X123095780Y-104445460D01*
X123108052Y-104450851D01*
X123119958Y-104456831D01*
X123127691Y-104461091D01*
X123138984Y-104467885D01*
X123149908Y-104475165D01*
X123160462Y-104482929D01*
X123170648Y-104491179D01*
X123180464Y-104499914D01*
X123189910Y-104509134D01*
X123198988Y-104518839D01*
X123207696Y-104529029D01*
X123216035Y-104539704D01*
X123224005Y-104550865D01*
X123229115Y-104558533D01*
X123236480Y-104570396D01*
X123243483Y-104582693D01*
X123250127Y-104595423D01*
X123256409Y-104608587D01*
X123260397Y-104617604D01*
X123264225Y-104626814D01*
X123267892Y-104636216D01*
X123271400Y-104645811D01*
X123274747Y-104655599D01*
X123277933Y-104665580D01*
X123280959Y-104675753D01*
X123283825Y-104686119D01*
X123286531Y-104696678D01*
X123289045Y-104707402D01*
X123291397Y-104718263D01*
X123293587Y-104729261D01*
X123295614Y-104740397D01*
X123297479Y-104751671D01*
X123299182Y-104763081D01*
X123300723Y-104774629D01*
X123302102Y-104786315D01*
X123303318Y-104798138D01*
X123304372Y-104810098D01*
X123305264Y-104822196D01*
X123305994Y-104834431D01*
X123306562Y-104846803D01*
X123306968Y-104859313D01*
X123307211Y-104871960D01*
X123307292Y-104884745D01*
X123307204Y-104899578D01*
X123306941Y-104914157D01*
X123306502Y-104928482D01*
X123305887Y-104942554D01*
X123305098Y-104956372D01*
X123304132Y-104969936D01*
X123302991Y-104983246D01*
X123301674Y-104996303D01*
X123300182Y-105009105D01*
X123298514Y-105021654D01*
X123296671Y-105033950D01*
X123294652Y-105045991D01*
X123292458Y-105057778D01*
X123290088Y-105069312D01*
X123287543Y-105080592D01*
X123284822Y-105091618D01*
X123283383Y-105097038D01*
X123280395Y-105107697D01*
X123277258Y-105118115D01*
X123273972Y-105128294D01*
X123270538Y-105138231D01*
X123266954Y-105147928D01*
X123263222Y-105157385D01*
X123259341Y-105166602D01*
X123255311Y-105175577D01*
X123248987Y-105188591D01*
X123242328Y-105201063D01*
X123235334Y-105212994D01*
X123228005Y-105224384D01*
X123220341Y-105235233D01*
X123215023Y-105242142D01*
X123206796Y-105252079D01*
X123198268Y-105261505D01*
X123189439Y-105270420D01*
X123180310Y-105278824D01*
X123170881Y-105286717D01*
X123161151Y-105294100D01*
X123151120Y-105300971D01*
X123140789Y-105307332D01*
X123130157Y-105313181D01*
X123119225Y-105318520D01*
X123111786Y-105321803D01*
X123100438Y-105326330D01*
X123088862Y-105330381D01*
X123077059Y-105333955D01*
X123065029Y-105337053D01*
X123052771Y-105339674D01*
X123040285Y-105341819D01*
X123027572Y-105343487D01*
X123014631Y-105344678D01*
X123001462Y-105345393D01*
X122988066Y-105345631D01*
X122977679Y-105345501D01*
X122967459Y-105345112D01*
X122957406Y-105344463D01*
X122947522Y-105343555D01*
X122933011Y-105341706D01*
X122918877Y-105339273D01*
X122905121Y-105336256D01*
X122891743Y-105332656D01*
X122878743Y-105328471D01*
X122866121Y-105323703D01*
X122853876Y-105318350D01*
X122842009Y-105312414D01*
X122834304Y-105308125D01*
X122823047Y-105301295D01*
X122812151Y-105293989D01*
X122801615Y-105286206D01*
X122791440Y-105277946D01*
X122781625Y-105269210D01*
X122772171Y-105259997D01*
X122763078Y-105250308D01*
X122754345Y-105240142D01*
X122745973Y-105229500D01*
X122737962Y-105218381D01*
X122732795Y-105210685D01*
X122725359Y-105198791D01*
X122718300Y-105186476D01*
X122711620Y-105173741D01*
X122705317Y-105160585D01*
X122701325Y-105151580D01*
X122697501Y-105142389D01*
X122693845Y-105133010D01*
X122690357Y-105123444D01*
X122687037Y-105113692D01*
X122683885Y-105103752D01*
X122680901Y-105093626D01*
X122678084Y-105083312D01*
X122675436Y-105072812D01*
X122672951Y-105062117D01*
X122670627Y-105051280D01*
X122668463Y-105040303D01*
X122666460Y-105029184D01*
X122664616Y-105017924D01*
X122662933Y-105006523D01*
X122661411Y-104994980D01*
X122660048Y-104983297D01*
X122658846Y-104971472D01*
X122657804Y-104959506D01*
X122656923Y-104947399D01*
X122656202Y-104935150D01*
X122655641Y-104922761D01*
X122655240Y-104910230D01*
X122654999Y-104897558D01*
X122654962Y-104891584D01*
X122775819Y-104891584D01*
X122775876Y-104902341D01*
X122776045Y-104912936D01*
X122776326Y-104923369D01*
X122776720Y-104933639D01*
X122777227Y-104943748D01*
X122777846Y-104953694D01*
X122778578Y-104963478D01*
X122779886Y-104977850D01*
X122781448Y-104991857D01*
X122783264Y-105005499D01*
X122785333Y-105018776D01*
X122787655Y-105031688D01*
X122790230Y-105044235D01*
X122792080Y-105052395D01*
X122795037Y-105064319D01*
X122798213Y-105075865D01*
X122801609Y-105087033D01*
X122805223Y-105097824D01*
X122809056Y-105108237D01*
X122813108Y-105118271D01*
X122817380Y-105127929D01*
X122821870Y-105137208D01*
X122826579Y-105146109D01*
X122831507Y-105154633D01*
X122838342Y-105165349D01*
X122845536Y-105175394D01*
X122853088Y-105184767D01*
X122860999Y-105193468D01*
X122869269Y-105201497D01*
X122877898Y-105208855D01*
X122886885Y-105215541D01*
X122896231Y-105221556D01*
X122905894Y-105226822D01*
X122915832Y-105231386D01*
X122926044Y-105235249D01*
X122936531Y-105238408D01*
X122947293Y-105240866D01*
X122958330Y-105242622D01*
X122969641Y-105243675D01*
X122981228Y-105244026D01*
X122983495Y-105244014D01*
X122994600Y-105243605D01*
X123005324Y-105242612D01*
X123015666Y-105241034D01*
X123025626Y-105238872D01*
X123035205Y-105236125D01*
X123046196Y-105232058D01*
X123049715Y-105230494D01*
X123059996Y-105225357D01*
X123069865Y-105219549D01*
X123079322Y-105213072D01*
X123088366Y-105205925D01*
X123096999Y-105198108D01*
X123099752Y-105195358D01*
X123106419Y-105188189D01*
X123112775Y-105180603D01*
X123118822Y-105172600D01*
X123124558Y-105164179D01*
X123129984Y-105155340D01*
X123135101Y-105146085D01*
X123137034Y-105142277D01*
X123141682Y-105132566D01*
X123146069Y-105122580D01*
X123150193Y-105112320D01*
X123154054Y-105101786D01*
X123157654Y-105090978D01*
X123160990Y-105079895D01*
X122781193Y-104802435D01*
X122781071Y-104803779D01*
X122780113Y-104814602D01*
X122779186Y-104825547D01*
X122778289Y-104836615D01*
X122777529Y-104846399D01*
X122777128Y-104852020D01*
X122776556Y-104861876D01*
X122776147Y-104871755D01*
X122775901Y-104881658D01*
X122775819Y-104891584D01*
X122654962Y-104891584D01*
X122654919Y-104884745D01*
X122655008Y-104869941D01*
X122655274Y-104855390D01*
X122655718Y-104841090D01*
X122656339Y-104827042D01*
X122657137Y-104813247D01*
X122658113Y-104799702D01*
X122659267Y-104786410D01*
X122660598Y-104773370D01*
X122662106Y-104760582D01*
X122663792Y-104748045D01*
X122665655Y-104735760D01*
X122667696Y-104723728D01*
X122669914Y-104711947D01*
X122672310Y-104700418D01*
X122674883Y-104689141D01*
X122674892Y-104689106D01*
X122803907Y-104689106D01*
X123183705Y-104962658D01*
X123184573Y-104954372D01*
X123185415Y-104943546D01*
X123185903Y-104933761D01*
X123186147Y-104923824D01*
X123186254Y-104913703D01*
X123186331Y-104903613D01*
X123186376Y-104893553D01*
X123186392Y-104883524D01*
X123186335Y-104872585D01*
X123186167Y-104861813D01*
X123185885Y-104851206D01*
X123185491Y-104840766D01*
X123184984Y-104830491D01*
X123184365Y-104820383D01*
X123183633Y-104810441D01*
X123182325Y-104795838D01*
X123180763Y-104781609D01*
X123178947Y-104767754D01*
X123176879Y-104754272D01*
X123174557Y-104741164D01*
X123171981Y-104728429D01*
X123170132Y-104720148D01*
X123167180Y-104708041D01*
X123164013Y-104696311D01*
X123160631Y-104684960D01*
X123157035Y-104673986D01*
X123153224Y-104663390D01*
X123149198Y-104653172D01*
X123144958Y-104643332D01*
X123140503Y-104633869D01*
X123135833Y-104624785D01*
X123130949Y-104616078D01*
X123124056Y-104605075D01*
X123116813Y-104594783D01*
X123109219Y-104585200D01*
X123101273Y-104576327D01*
X123092976Y-104568164D01*
X123084329Y-104560711D01*
X123075330Y-104553967D01*
X123065980Y-104547934D01*
X123056321Y-104542553D01*
X123046395Y-104537889D01*
X123036201Y-104533943D01*
X123025741Y-104530715D01*
X123015013Y-104528204D01*
X123004019Y-104526410D01*
X122992757Y-104525334D01*
X122981228Y-104524975D01*
X122979036Y-104524987D01*
X122968288Y-104525404D01*
X122957885Y-104526418D01*
X122947827Y-104528028D01*
X122938116Y-104530234D01*
X122928751Y-104533037D01*
X122917969Y-104537187D01*
X122914452Y-104538722D01*
X122904200Y-104543797D01*
X122894394Y-104549576D01*
X122885034Y-104556059D01*
X122876121Y-104563246D01*
X122867655Y-104571137D01*
X122866287Y-104572504D01*
X122858342Y-104581045D01*
X122852061Y-104588608D01*
X122846091Y-104596577D01*
X122840431Y-104604951D01*
X122835081Y-104613731D01*
X122830041Y-104622916D01*
X122828079Y-104626667D01*
X122823365Y-104636268D01*
X122818925Y-104646192D01*
X122814759Y-104656438D01*
X122810867Y-104667005D01*
X122807250Y-104677895D01*
X122803907Y-104689106D01*
X122674892Y-104689106D01*
X122677634Y-104678115D01*
X122679057Y-104672695D01*
X122682019Y-104662035D01*
X122685133Y-104651612D01*
X122688400Y-104641429D01*
X122691819Y-104631483D01*
X122695391Y-104621777D01*
X122699116Y-104612308D01*
X122702993Y-104603079D01*
X122707023Y-104594087D01*
X122713354Y-104581048D01*
X122720029Y-104568545D01*
X122727047Y-104556579D01*
X122734409Y-104545149D01*
X122742114Y-104534256D01*
X122747402Y-104527289D01*
X122755589Y-104517270D01*
X122764081Y-104507771D01*
X122772877Y-104498792D01*
X122781978Y-104490332D01*
X122791384Y-104482391D01*
X122801095Y-104474970D01*
X122811110Y-104468069D01*
X122821431Y-104461687D01*
X122832056Y-104455824D01*
X122842986Y-104450481D01*
X122850425Y-104447198D01*
X122861773Y-104442671D01*
X122873349Y-104438620D01*
X122885152Y-104435046D01*
X122897182Y-104431948D01*
X122909441Y-104429327D01*
X122921926Y-104427183D01*
X122934640Y-104425515D01*
X122947580Y-104424323D01*
X122960749Y-104423608D01*
X122974145Y-104423370D01*
X122984474Y-104423501D01*
G37*
G36*
X121906559Y-105330000D02*
G01*
X122498115Y-105330000D01*
X122498115Y-105223510D01*
X122265840Y-104993433D01*
X122258780Y-104986470D01*
X122248505Y-104976248D01*
X122238607Y-104966291D01*
X122229088Y-104956601D01*
X122219946Y-104947177D01*
X122211182Y-104938020D01*
X122202795Y-104929128D01*
X122194787Y-104920503D01*
X122187156Y-104912144D01*
X122179903Y-104904051D01*
X122173028Y-104896224D01*
X122166481Y-104888593D01*
X122160214Y-104881086D01*
X122152291Y-104871270D01*
X122144865Y-104861676D01*
X122137934Y-104852303D01*
X122131500Y-104843152D01*
X122125562Y-104834222D01*
X122120120Y-104825513D01*
X122117585Y-104821242D01*
X122111648Y-104810728D01*
X122106356Y-104800405D01*
X122101707Y-104790272D01*
X122097702Y-104780331D01*
X122094341Y-104770580D01*
X122091625Y-104761021D01*
X122090718Y-104757250D01*
X122088394Y-104745813D01*
X122086825Y-104736019D01*
X122085589Y-104725987D01*
X122084688Y-104715716D01*
X122084120Y-104705207D01*
X122083886Y-104694460D01*
X122083879Y-104692281D01*
X122084100Y-104682125D01*
X122084762Y-104672112D01*
X122085865Y-104662242D01*
X122087410Y-104652516D01*
X122089395Y-104642932D01*
X122092360Y-104631620D01*
X122092916Y-104629755D01*
X122096557Y-104618839D01*
X122100885Y-104608437D01*
X122105899Y-104598551D01*
X122111601Y-104589180D01*
X122117990Y-104580325D01*
X122120272Y-104577487D01*
X122127619Y-104569313D01*
X122135739Y-104561825D01*
X122144632Y-104555025D01*
X122154298Y-104548911D01*
X122162943Y-104544341D01*
X122168387Y-104541828D01*
X122177839Y-104538099D01*
X122187874Y-104535001D01*
X122198494Y-104532536D01*
X122209699Y-104530703D01*
X122221488Y-104529502D01*
X122231339Y-104528997D01*
X122238974Y-104528883D01*
X122249598Y-104529113D01*
X122260037Y-104529802D01*
X122270291Y-104530950D01*
X122280361Y-104532558D01*
X122290247Y-104534625D01*
X122299948Y-104537152D01*
X122309464Y-104540138D01*
X122318795Y-104543583D01*
X122327942Y-104547488D01*
X122336905Y-104551852D01*
X122342777Y-104555017D01*
X122351457Y-104560052D01*
X122360005Y-104565358D01*
X122368419Y-104570934D01*
X122376700Y-104576781D01*
X122384848Y-104582899D01*
X122392863Y-104589286D01*
X122400745Y-104595945D01*
X122408493Y-104602873D01*
X122416109Y-104610072D01*
X122423592Y-104617542D01*
X122428506Y-104622672D01*
X122494452Y-104542805D01*
X122484791Y-104532829D01*
X122474860Y-104523236D01*
X122464658Y-104514024D01*
X122454186Y-104505195D01*
X122443443Y-104496748D01*
X122432430Y-104488683D01*
X122421147Y-104481000D01*
X122409593Y-104473699D01*
X122397768Y-104466781D01*
X122385673Y-104460244D01*
X122377459Y-104456099D01*
X122364858Y-104450250D01*
X122351874Y-104444976D01*
X122338508Y-104440278D01*
X122324760Y-104436155D01*
X122310630Y-104432607D01*
X122300998Y-104430561D01*
X122291196Y-104428772D01*
X122281224Y-104427237D01*
X122271082Y-104425959D01*
X122260770Y-104424936D01*
X122250289Y-104424169D01*
X122239637Y-104423658D01*
X122228816Y-104423402D01*
X122223342Y-104423370D01*
X122212217Y-104423527D01*
X122201280Y-104423997D01*
X122190533Y-104424780D01*
X122179974Y-104425877D01*
X122169604Y-104427288D01*
X122159423Y-104429011D01*
X122149431Y-104431049D01*
X122139628Y-104433399D01*
X122130014Y-104436063D01*
X122120588Y-104439041D01*
X122114410Y-104441200D01*
X122102347Y-104445901D01*
X122090703Y-104451092D01*
X122079479Y-104456770D01*
X122068675Y-104462937D01*
X122058291Y-104469593D01*
X122048327Y-104476737D01*
X122038782Y-104484370D01*
X122029658Y-104492491D01*
X122020937Y-104501093D01*
X122012728Y-104510168D01*
X122005031Y-104519716D01*
X121997845Y-104529738D01*
X121991170Y-104540233D01*
X121985007Y-104551201D01*
X121979355Y-104562642D01*
X121974214Y-104574556D01*
X121970723Y-104583779D01*
X121967574Y-104593221D01*
X121964769Y-104602882D01*
X121962308Y-104612761D01*
X121960190Y-104622860D01*
X121958415Y-104633178D01*
X121956984Y-104643714D01*
X121955896Y-104654470D01*
X121955152Y-104665444D01*
X121954751Y-104676637D01*
X121954675Y-104684221D01*
X121954889Y-104696930D01*
X121955530Y-104709409D01*
X121956598Y-104721659D01*
X121958094Y-104733681D01*
X121960018Y-104745473D01*
X121962369Y-104757036D01*
X121965147Y-104768371D01*
X121968353Y-104779476D01*
X121971993Y-104790402D01*
X121976077Y-104801321D01*
X121980603Y-104812231D01*
X121985572Y-104823135D01*
X121990983Y-104834030D01*
X121996837Y-104844918D01*
X122003134Y-104855798D01*
X122009874Y-104866671D01*
X122015221Y-104874850D01*
X122020822Y-104883086D01*
X122026676Y-104891377D01*
X122032783Y-104899724D01*
X122039144Y-104908127D01*
X122045758Y-104916585D01*
X122052625Y-104925099D01*
X122059745Y-104933670D01*
X122067119Y-104942296D01*
X122074746Y-104950978D01*
X122079972Y-104956796D01*
X122088029Y-104965577D01*
X122096358Y-104974516D01*
X122104957Y-104983615D01*
X122113826Y-104992872D01*
X122122966Y-105002288D01*
X122132376Y-105011863D01*
X122142057Y-105021596D01*
X122152008Y-105031489D01*
X122162230Y-105041540D01*
X122172722Y-105051751D01*
X122179867Y-105058646D01*
X122342777Y-105216671D01*
X121906559Y-105216671D01*
X121906559Y-105330000D01*
G37*
G36*
X121800558Y-105021277D02*
G01*
X121800558Y-105126789D01*
X121368492Y-105126789D01*
X121368492Y-105330000D01*
X121246127Y-105330000D01*
X121246127Y-105126789D01*
X121092986Y-105126789D01*
X121092986Y-105021277D01*
X121246127Y-105021277D01*
X121246127Y-104552575D01*
X121368492Y-104552575D01*
X121368492Y-105021277D01*
X121681123Y-105021277D01*
X121368492Y-104552575D01*
X121246127Y-104552575D01*
X121246127Y-104439002D01*
X121417829Y-104439002D01*
X121800558Y-105021277D01*
G37*
D10*
G36*
X120662064Y-71686238D02*
G01*
X120662239Y-71695966D01*
X120662765Y-71705511D01*
X120663641Y-71714875D01*
X120664867Y-71724056D01*
X120666444Y-71733056D01*
X120668370Y-71741873D01*
X120670648Y-71750508D01*
X120673275Y-71758961D01*
X120676253Y-71767233D01*
X120679581Y-71775322D01*
X120681995Y-71780614D01*
X120685882Y-71788346D01*
X120690144Y-71795861D01*
X120694780Y-71803160D01*
X120699791Y-71810243D01*
X120705176Y-71817110D01*
X120710935Y-71823760D01*
X120717069Y-71830194D01*
X120723577Y-71836411D01*
X120730459Y-71842412D01*
X120737716Y-71848196D01*
X120742762Y-71851933D01*
X120750606Y-71857308D01*
X120758825Y-71862443D01*
X120767418Y-71867337D01*
X120776385Y-71871991D01*
X120785727Y-71876404D01*
X120795443Y-71880578D01*
X120805534Y-71884510D01*
X120815998Y-71888203D01*
X120826838Y-71891654D01*
X120838051Y-71894866D01*
X120845735Y-71896873D01*
X120853564Y-71898766D01*
X120861568Y-71900537D01*
X120869746Y-71902185D01*
X120878097Y-71903712D01*
X120886623Y-71905116D01*
X120895322Y-71906399D01*
X120904196Y-71907559D01*
X120913244Y-71908597D01*
X120922465Y-71909513D01*
X120931861Y-71910307D01*
X120941431Y-71910978D01*
X120951175Y-71911528D01*
X120961092Y-71911955D01*
X120971184Y-71912260D01*
X120981450Y-71912444D01*
X120991890Y-71912505D01*
X121000114Y-71912458D01*
X121008543Y-71912318D01*
X121017179Y-71912084D01*
X121026020Y-71911757D01*
X121031164Y-71911528D01*
X121040131Y-71911072D01*
X121049079Y-71910561D01*
X121058008Y-71909993D01*
X121066918Y-71909369D01*
X121072002Y-71908988D01*
X121080845Y-71908276D01*
X121089595Y-71907508D01*
X121098252Y-71906684D01*
X121106815Y-71905803D01*
X121111667Y-71905275D01*
X121119866Y-71904288D01*
X121127711Y-71903207D01*
X121136241Y-71901858D01*
X121144307Y-71900386D01*
X121146251Y-71900000D01*
X121146251Y-71787452D01*
X121137471Y-71788790D01*
X121128422Y-71790066D01*
X121119104Y-71791281D01*
X121109517Y-71792435D01*
X121099662Y-71793528D01*
X121089538Y-71794560D01*
X121079146Y-71795531D01*
X121071175Y-71796219D01*
X121068484Y-71796441D01*
X121060357Y-71797069D01*
X121052167Y-71797636D01*
X121043916Y-71798141D01*
X121035603Y-71798584D01*
X121027228Y-71798965D01*
X121018792Y-71799284D01*
X121010293Y-71799542D01*
X121001733Y-71799738D01*
X120993111Y-71799872D01*
X120984427Y-71799944D01*
X120978603Y-71799958D01*
X120970177Y-71799892D01*
X120961970Y-71799697D01*
X120953983Y-71799370D01*
X120943676Y-71798732D01*
X120933760Y-71797862D01*
X120924235Y-71796760D01*
X120915100Y-71795426D01*
X120906356Y-71793860D01*
X120900055Y-71792533D01*
X120891982Y-71790573D01*
X120884276Y-71788405D01*
X120875159Y-71785403D01*
X120866615Y-71782078D01*
X120858642Y-71778427D01*
X120851243Y-71774453D01*
X120845735Y-71771039D01*
X120839295Y-71766481D01*
X120832297Y-71760582D01*
X120826097Y-71754217D01*
X120820693Y-71747384D01*
X120816086Y-71740084D01*
X120814081Y-71736259D01*
X120810628Y-71728240D01*
X120807890Y-71719864D01*
X120805865Y-71711131D01*
X120804556Y-71702041D01*
X120804010Y-71694192D01*
X120803921Y-71689364D01*
X120804292Y-71680803D01*
X120805404Y-71672558D01*
X120807259Y-71664628D01*
X120809856Y-71657015D01*
X120813194Y-71649717D01*
X120814472Y-71647355D01*
X120818747Y-71640453D01*
X120823805Y-71633964D01*
X120829646Y-71627887D01*
X120836271Y-71622222D01*
X120843678Y-71616969D01*
X120846321Y-71615310D01*
X120853273Y-71611306D01*
X120860815Y-71607597D01*
X120868950Y-71604185D01*
X120877676Y-71601068D01*
X120886993Y-71598246D01*
X120894873Y-71596202D01*
X120901032Y-71594794D01*
X120909528Y-71593053D01*
X120918409Y-71591545D01*
X120927675Y-71590269D01*
X120937326Y-71589225D01*
X120947361Y-71588413D01*
X120957781Y-71587833D01*
X120965849Y-71587550D01*
X120974133Y-71587398D01*
X120979775Y-71587369D01*
X121059496Y-71587369D01*
X121059496Y-71487327D01*
X120986419Y-71487327D01*
X120978489Y-71487251D01*
X120968323Y-71486915D01*
X120958620Y-71486311D01*
X120949382Y-71485438D01*
X120940607Y-71484296D01*
X120932297Y-71482885D01*
X120924451Y-71481206D01*
X120915295Y-71478729D01*
X120906723Y-71475839D01*
X120898714Y-71472662D01*
X120891267Y-71469198D01*
X120884383Y-71465449D01*
X120876866Y-71460572D01*
X120870159Y-71455282D01*
X120864201Y-71449601D01*
X120858930Y-71443549D01*
X120854346Y-71437126D01*
X120850449Y-71430333D01*
X120847239Y-71423168D01*
X120846321Y-71420697D01*
X120843864Y-71413155D01*
X120841916Y-71405475D01*
X120840475Y-71397658D01*
X120839543Y-71389703D01*
X120839120Y-71381611D01*
X120839092Y-71378883D01*
X120839344Y-71370647D01*
X120840101Y-71362793D01*
X120841897Y-71352913D01*
X120844589Y-71343711D01*
X120848180Y-71335187D01*
X120852668Y-71327341D01*
X120858053Y-71320172D01*
X120864336Y-71313682D01*
X120867814Y-71310690D01*
X120875435Y-71305195D01*
X120884032Y-71300432D01*
X120893607Y-71296402D01*
X120901428Y-71293860D01*
X120909800Y-71291731D01*
X120918721Y-71290014D01*
X120928191Y-71288709D01*
X120938211Y-71287815D01*
X120948781Y-71287335D01*
X120956133Y-71287243D01*
X120964182Y-71287303D01*
X120972212Y-71287483D01*
X120980220Y-71287784D01*
X120988208Y-71288205D01*
X120996175Y-71288746D01*
X121004122Y-71289407D01*
X121012048Y-71290188D01*
X121019953Y-71291090D01*
X121027838Y-71292112D01*
X121035702Y-71293254D01*
X121040934Y-71294082D01*
X121048763Y-71295404D01*
X121056644Y-71296804D01*
X121064576Y-71298284D01*
X121072560Y-71299843D01*
X121080596Y-71301481D01*
X121088683Y-71303197D01*
X121096821Y-71304993D01*
X121105011Y-71306868D01*
X121113252Y-71308822D01*
X121121545Y-71310854D01*
X121127103Y-71312254D01*
X121127103Y-71199706D01*
X121119405Y-71197627D01*
X121111822Y-71195661D01*
X121102874Y-71193454D01*
X121094090Y-71191411D01*
X121085472Y-71189534D01*
X121079817Y-71188374D01*
X121071391Y-71186736D01*
X121062965Y-71185195D01*
X121054538Y-71183750D01*
X121046112Y-71182402D01*
X121037685Y-71181149D01*
X121034877Y-71180753D01*
X121026363Y-71179576D01*
X121017822Y-71178537D01*
X121009254Y-71177634D01*
X121000658Y-71176870D01*
X120992035Y-71176242D01*
X120989154Y-71176064D01*
X120980446Y-71175599D01*
X120971615Y-71175230D01*
X120962659Y-71174958D01*
X120953580Y-71174781D01*
X120944378Y-71174701D01*
X120941283Y-71174696D01*
X120930274Y-71174809D01*
X120919523Y-71175149D01*
X120909030Y-71175716D01*
X120898794Y-71176509D01*
X120888815Y-71177530D01*
X120879095Y-71178776D01*
X120869632Y-71180250D01*
X120860426Y-71181950D01*
X120851478Y-71183877D01*
X120842788Y-71186030D01*
X120837138Y-71187592D01*
X120828873Y-71190070D01*
X120820860Y-71192739D01*
X120813097Y-71195602D01*
X120805584Y-71198656D01*
X120798323Y-71201903D01*
X120789031Y-71206531D01*
X120780185Y-71211502D01*
X120771785Y-71216814D01*
X120763830Y-71222468D01*
X120761911Y-71223935D01*
X120754526Y-71229962D01*
X120747610Y-71236318D01*
X120741165Y-71243005D01*
X120735191Y-71250020D01*
X120729686Y-71257366D01*
X120724652Y-71265041D01*
X120720087Y-71273046D01*
X120715993Y-71281381D01*
X120712375Y-71289954D01*
X120709240Y-71298771D01*
X120706587Y-71307833D01*
X120704416Y-71317138D01*
X120702728Y-71326688D01*
X120701522Y-71336482D01*
X120700798Y-71346521D01*
X120700557Y-71356803D01*
X120700674Y-71364960D01*
X120701024Y-71372920D01*
X120701988Y-71384491D01*
X120703476Y-71395619D01*
X120705491Y-71406304D01*
X120708031Y-71416545D01*
X120711096Y-71426344D01*
X120714687Y-71435699D01*
X120718804Y-71444612D01*
X120723446Y-71453081D01*
X120728613Y-71461107D01*
X120730452Y-71463684D01*
X120736269Y-71471138D01*
X120742508Y-71478259D01*
X120749170Y-71485046D01*
X120756254Y-71491500D01*
X120763760Y-71497621D01*
X120771689Y-71503409D01*
X120780040Y-71508864D01*
X120788814Y-71513986D01*
X120798010Y-71518774D01*
X120807629Y-71523230D01*
X120814276Y-71526015D01*
X120805734Y-71527505D01*
X120797399Y-71529239D01*
X120789272Y-71531217D01*
X120781353Y-71533440D01*
X120773641Y-71535907D01*
X120766136Y-71538618D01*
X120758839Y-71541573D01*
X120751750Y-71544773D01*
X120743158Y-71549055D01*
X120734966Y-71553718D01*
X120727175Y-71558763D01*
X120719785Y-71564190D01*
X120712795Y-71569998D01*
X120706207Y-71576188D01*
X120703683Y-71578771D01*
X120697623Y-71585396D01*
X120692021Y-71592327D01*
X120686876Y-71599562D01*
X120682190Y-71607103D01*
X120677961Y-71614950D01*
X120674191Y-71623101D01*
X120672811Y-71626448D01*
X120669715Y-71635017D01*
X120667144Y-71643873D01*
X120665097Y-71653015D01*
X120663576Y-71662443D01*
X120662579Y-71672157D01*
X120662159Y-71680135D01*
X120662064Y-71686238D01*
G37*
G36*
X120209140Y-71900000D02*
G01*
X120388317Y-71900000D01*
X120607549Y-71187201D01*
X120454165Y-71187201D01*
X120332825Y-71616482D01*
X120293746Y-71757166D01*
X120253104Y-71608276D01*
X120132741Y-71187201D01*
X119988736Y-71187201D01*
X120209140Y-71900000D01*
G37*
G36*
X119431862Y-71686238D02*
G01*
X119432037Y-71695966D01*
X119432563Y-71705511D01*
X119433438Y-71714875D01*
X119434665Y-71724056D01*
X119436241Y-71733056D01*
X119438168Y-71741873D01*
X119440445Y-71750508D01*
X119443073Y-71758961D01*
X119446051Y-71767233D01*
X119449379Y-71775322D01*
X119451792Y-71780614D01*
X119455680Y-71788346D01*
X119459941Y-71795861D01*
X119464578Y-71803160D01*
X119469588Y-71810243D01*
X119474973Y-71817110D01*
X119480733Y-71823760D01*
X119486866Y-71830194D01*
X119493375Y-71836411D01*
X119500257Y-71842412D01*
X119507514Y-71848196D01*
X119512560Y-71851933D01*
X119520404Y-71857308D01*
X119528623Y-71862443D01*
X119537216Y-71867337D01*
X119546183Y-71871991D01*
X119555525Y-71876404D01*
X119565241Y-71880578D01*
X119575331Y-71884510D01*
X119585796Y-71888203D01*
X119596635Y-71891654D01*
X119607849Y-71894866D01*
X119615533Y-71896873D01*
X119623362Y-71898766D01*
X119631366Y-71900537D01*
X119639543Y-71902185D01*
X119647895Y-71903712D01*
X119656420Y-71905116D01*
X119665120Y-71906399D01*
X119673994Y-71907559D01*
X119683041Y-71908597D01*
X119692263Y-71909513D01*
X119701659Y-71910307D01*
X119711228Y-71910978D01*
X119720972Y-71911528D01*
X119730890Y-71911955D01*
X119740982Y-71912260D01*
X119751248Y-71912444D01*
X119761687Y-71912505D01*
X119769911Y-71912458D01*
X119778341Y-71912318D01*
X119786976Y-71912084D01*
X119795817Y-71911757D01*
X119800962Y-71911528D01*
X119809928Y-71911072D01*
X119818876Y-71910561D01*
X119827805Y-71909993D01*
X119836716Y-71909369D01*
X119841799Y-71908988D01*
X119850643Y-71908276D01*
X119859393Y-71907508D01*
X119868050Y-71906684D01*
X119876613Y-71905803D01*
X119881464Y-71905275D01*
X119889664Y-71904288D01*
X119897509Y-71903207D01*
X119906039Y-71901858D01*
X119914105Y-71900386D01*
X119916049Y-71900000D01*
X119916049Y-71787452D01*
X119907268Y-71788790D01*
X119898219Y-71790066D01*
X119888901Y-71791281D01*
X119879315Y-71792435D01*
X119869460Y-71793528D01*
X119859336Y-71794560D01*
X119848943Y-71795531D01*
X119840973Y-71796219D01*
X119838282Y-71796441D01*
X119830154Y-71797069D01*
X119821965Y-71797636D01*
X119813714Y-71798141D01*
X119805401Y-71798584D01*
X119797026Y-71798965D01*
X119788589Y-71799284D01*
X119780091Y-71799542D01*
X119771530Y-71799738D01*
X119762908Y-71799872D01*
X119754224Y-71799944D01*
X119748401Y-71799958D01*
X119739974Y-71799892D01*
X119731768Y-71799697D01*
X119723781Y-71799370D01*
X119713474Y-71798732D01*
X119703558Y-71797862D01*
X119694032Y-71796760D01*
X119684898Y-71795426D01*
X119676154Y-71793860D01*
X119669852Y-71792533D01*
X119661780Y-71790573D01*
X119654074Y-71788405D01*
X119644957Y-71785403D01*
X119636412Y-71782078D01*
X119628440Y-71778427D01*
X119621040Y-71774453D01*
X119615533Y-71771039D01*
X119609093Y-71766481D01*
X119602095Y-71760582D01*
X119595894Y-71754217D01*
X119590490Y-71747384D01*
X119585883Y-71740084D01*
X119583879Y-71736259D01*
X119580426Y-71728240D01*
X119577687Y-71719864D01*
X119575663Y-71711131D01*
X119574353Y-71702041D01*
X119573807Y-71694192D01*
X119573718Y-71689364D01*
X119574089Y-71680803D01*
X119575202Y-71672558D01*
X119577057Y-71664628D01*
X119579653Y-71657015D01*
X119582992Y-71649717D01*
X119584269Y-71647355D01*
X119588544Y-71640453D01*
X119593603Y-71633964D01*
X119599444Y-71627887D01*
X119606068Y-71622222D01*
X119613476Y-71616969D01*
X119616119Y-71615310D01*
X119623070Y-71611306D01*
X119630613Y-71607597D01*
X119638747Y-71604185D01*
X119647473Y-71601068D01*
X119656791Y-71598246D01*
X119664671Y-71596202D01*
X119670829Y-71594794D01*
X119679326Y-71593053D01*
X119688207Y-71591545D01*
X119697473Y-71590269D01*
X119707124Y-71589225D01*
X119717159Y-71588413D01*
X119727579Y-71587833D01*
X119735646Y-71587550D01*
X119743930Y-71587398D01*
X119749573Y-71587369D01*
X119829294Y-71587369D01*
X119829294Y-71487327D01*
X119756216Y-71487327D01*
X119748287Y-71487251D01*
X119738120Y-71486915D01*
X119728418Y-71486311D01*
X119719179Y-71485438D01*
X119710405Y-71484296D01*
X119702095Y-71482885D01*
X119694248Y-71481206D01*
X119685093Y-71478729D01*
X119676521Y-71475839D01*
X119668511Y-71472662D01*
X119661065Y-71469198D01*
X119654181Y-71465449D01*
X119646664Y-71460572D01*
X119639957Y-71455282D01*
X119633999Y-71449601D01*
X119628728Y-71443549D01*
X119624144Y-71437126D01*
X119620246Y-71430333D01*
X119617036Y-71423168D01*
X119616119Y-71420697D01*
X119613662Y-71413155D01*
X119611713Y-71405475D01*
X119610273Y-71397658D01*
X119609341Y-71389703D01*
X119608917Y-71381611D01*
X119608889Y-71378883D01*
X119609142Y-71370647D01*
X119609899Y-71362793D01*
X119611694Y-71352913D01*
X119614387Y-71343711D01*
X119617977Y-71335187D01*
X119622465Y-71327341D01*
X119627851Y-71320172D01*
X119634134Y-71313682D01*
X119637612Y-71310690D01*
X119645232Y-71305195D01*
X119653830Y-71300432D01*
X119663404Y-71296402D01*
X119671226Y-71293860D01*
X119679597Y-71291731D01*
X119688518Y-71290014D01*
X119697989Y-71288709D01*
X119708009Y-71287815D01*
X119718579Y-71287335D01*
X119725930Y-71287243D01*
X119733980Y-71287303D01*
X119742009Y-71287483D01*
X119750018Y-71287784D01*
X119758006Y-71288205D01*
X119765973Y-71288746D01*
X119773919Y-71289407D01*
X119781846Y-71290188D01*
X119789751Y-71291090D01*
X119797636Y-71292112D01*
X119805500Y-71293254D01*
X119810731Y-71294082D01*
X119818561Y-71295404D01*
X119826442Y-71296804D01*
X119834374Y-71298284D01*
X119842358Y-71299843D01*
X119850393Y-71301481D01*
X119858480Y-71303197D01*
X119866619Y-71304993D01*
X119874809Y-71306868D01*
X119883050Y-71308822D01*
X119891343Y-71310854D01*
X119896900Y-71312254D01*
X119896900Y-71199706D01*
X119889203Y-71197627D01*
X119881620Y-71195661D01*
X119872671Y-71193454D01*
X119863888Y-71191411D01*
X119855269Y-71189534D01*
X119849615Y-71188374D01*
X119841189Y-71186736D01*
X119832762Y-71185195D01*
X119824336Y-71183750D01*
X119815909Y-71182402D01*
X119807483Y-71181149D01*
X119804674Y-71180753D01*
X119796161Y-71179576D01*
X119787620Y-71178537D01*
X119779052Y-71177634D01*
X119770456Y-71176870D01*
X119761833Y-71176242D01*
X119758952Y-71176064D01*
X119750244Y-71175599D01*
X119741412Y-71175230D01*
X119732457Y-71174958D01*
X119723378Y-71174781D01*
X119714175Y-71174701D01*
X119711080Y-71174696D01*
X119700072Y-71174809D01*
X119689321Y-71175149D01*
X119678827Y-71175716D01*
X119668591Y-71176509D01*
X119658613Y-71177530D01*
X119648892Y-71178776D01*
X119639429Y-71180250D01*
X119630224Y-71181950D01*
X119621276Y-71183877D01*
X119612586Y-71186030D01*
X119606935Y-71187592D01*
X119598671Y-71190070D01*
X119590657Y-71192739D01*
X119582894Y-71195602D01*
X119575382Y-71198656D01*
X119568121Y-71201903D01*
X119558829Y-71206531D01*
X119549983Y-71211502D01*
X119541582Y-71216814D01*
X119533627Y-71222468D01*
X119531708Y-71223935D01*
X119524323Y-71229962D01*
X119517408Y-71236318D01*
X119510963Y-71243005D01*
X119504988Y-71250020D01*
X119499484Y-71257366D01*
X119494449Y-71265041D01*
X119489885Y-71273046D01*
X119485791Y-71281381D01*
X119482173Y-71289954D01*
X119479037Y-71298771D01*
X119476384Y-71307833D01*
X119474214Y-71317138D01*
X119472525Y-71326688D01*
X119471319Y-71336482D01*
X119470596Y-71346521D01*
X119470355Y-71356803D01*
X119470471Y-71364960D01*
X119470822Y-71372920D01*
X119471785Y-71384491D01*
X119473274Y-71395619D01*
X119475289Y-71406304D01*
X119477828Y-71416545D01*
X119480894Y-71426344D01*
X119484485Y-71435699D01*
X119488601Y-71444612D01*
X119493243Y-71453081D01*
X119498411Y-71461107D01*
X119500250Y-71463684D01*
X119506067Y-71471138D01*
X119512306Y-71478259D01*
X119518967Y-71485046D01*
X119526051Y-71491500D01*
X119533558Y-71497621D01*
X119541487Y-71503409D01*
X119549838Y-71508864D01*
X119558612Y-71513986D01*
X119567808Y-71518774D01*
X119577427Y-71523230D01*
X119584074Y-71526015D01*
X119575532Y-71527505D01*
X119567197Y-71529239D01*
X119559070Y-71531217D01*
X119551150Y-71533440D01*
X119543438Y-71535907D01*
X119535934Y-71538618D01*
X119528637Y-71541573D01*
X119521548Y-71544773D01*
X119512956Y-71549055D01*
X119504764Y-71553718D01*
X119496973Y-71558763D01*
X119489583Y-71564190D01*
X119482593Y-71569998D01*
X119476004Y-71576188D01*
X119473481Y-71578771D01*
X119467421Y-71585396D01*
X119461818Y-71592327D01*
X119456674Y-71599562D01*
X119451988Y-71607103D01*
X119447759Y-71614950D01*
X119443989Y-71623101D01*
X119442609Y-71626448D01*
X119439513Y-71635017D01*
X119436941Y-71643873D01*
X119434895Y-71653015D01*
X119433373Y-71662443D01*
X119432376Y-71672157D01*
X119431956Y-71680135D01*
X119431862Y-71686238D01*
G37*
G36*
X125770857Y-71874989D02*
G01*
X125779806Y-71878457D01*
X125788699Y-71881753D01*
X125797538Y-71884877D01*
X125806321Y-71887830D01*
X125815050Y-71890611D01*
X125823723Y-71893220D01*
X125832342Y-71895658D01*
X125840906Y-71897923D01*
X125849415Y-71900017D01*
X125857869Y-71901940D01*
X125863474Y-71903126D01*
X125871896Y-71904802D01*
X125880384Y-71906313D01*
X125888937Y-71907660D01*
X125897555Y-71908841D01*
X125906238Y-71909858D01*
X125914987Y-71910710D01*
X125923801Y-71911396D01*
X125932680Y-71911919D01*
X125941625Y-71912276D01*
X125950634Y-71912468D01*
X125956677Y-71912505D01*
X125966280Y-71912416D01*
X125975743Y-71912151D01*
X125985068Y-71911708D01*
X125994254Y-71911088D01*
X126003301Y-71910291D01*
X126012209Y-71909317D01*
X126020978Y-71908166D01*
X126029608Y-71906838D01*
X126038099Y-71905333D01*
X126046452Y-71903651D01*
X126054665Y-71901792D01*
X126062739Y-71899755D01*
X126070675Y-71897542D01*
X126078472Y-71895151D01*
X126086130Y-71892584D01*
X126093648Y-71889839D01*
X126101025Y-71886895D01*
X126108257Y-71883779D01*
X126118833Y-71878781D01*
X126129083Y-71873395D01*
X126139006Y-71867620D01*
X126148603Y-71861458D01*
X126157874Y-71854908D01*
X126166818Y-71847969D01*
X126175436Y-71840642D01*
X126183728Y-71832927D01*
X126191694Y-71824824D01*
X126194276Y-71822037D01*
X126201762Y-71813384D01*
X126208904Y-71804349D01*
X126215702Y-71794933D01*
X126222157Y-71785135D01*
X126226269Y-71778392D01*
X126230229Y-71771479D01*
X126234036Y-71764397D01*
X126237691Y-71757145D01*
X126241192Y-71749724D01*
X126244542Y-71742133D01*
X126247738Y-71734373D01*
X126250782Y-71726444D01*
X126253673Y-71718345D01*
X126256412Y-71710076D01*
X126258967Y-71701639D01*
X126261358Y-71693034D01*
X126263583Y-71684261D01*
X126265644Y-71675321D01*
X126267540Y-71666212D01*
X126269271Y-71656935D01*
X126270837Y-71647491D01*
X126272239Y-71637878D01*
X126273475Y-71628098D01*
X126274547Y-71618149D01*
X126275454Y-71608033D01*
X126276196Y-71597749D01*
X126276773Y-71587297D01*
X126277185Y-71576677D01*
X126277432Y-71565889D01*
X126277514Y-71554933D01*
X126277424Y-71543679D01*
X126277154Y-71532582D01*
X126276704Y-71521642D01*
X126276073Y-71510860D01*
X126275263Y-71500234D01*
X126274272Y-71489766D01*
X126273101Y-71479455D01*
X126271750Y-71469302D01*
X126270219Y-71459305D01*
X126268508Y-71449466D01*
X126266617Y-71439784D01*
X126264545Y-71430259D01*
X126262294Y-71420892D01*
X126259862Y-71411682D01*
X126257250Y-71402629D01*
X126254458Y-71393733D01*
X126251499Y-71384978D01*
X126248385Y-71376395D01*
X126245118Y-71367984D01*
X126241696Y-71359747D01*
X126238120Y-71351681D01*
X126234390Y-71343788D01*
X126230506Y-71336068D01*
X126226468Y-71328520D01*
X126222275Y-71321145D01*
X126217928Y-71313942D01*
X126213427Y-71306911D01*
X126208772Y-71300054D01*
X126203963Y-71293368D01*
X126199000Y-71286855D01*
X126193882Y-71280515D01*
X126188610Y-71274347D01*
X126183166Y-71268356D01*
X126177579Y-71262547D01*
X126171851Y-71256920D01*
X126165981Y-71251474D01*
X126159969Y-71246209D01*
X126153815Y-71241127D01*
X126147518Y-71236226D01*
X126141080Y-71231507D01*
X126134500Y-71226969D01*
X126127778Y-71222613D01*
X126120914Y-71218439D01*
X126113908Y-71214446D01*
X126106760Y-71210636D01*
X126099471Y-71207006D01*
X126092039Y-71203559D01*
X126084465Y-71200293D01*
X126076737Y-71197193D01*
X126068891Y-71194293D01*
X126060928Y-71191594D01*
X126052848Y-71189094D01*
X126044649Y-71186794D01*
X126036334Y-71184695D01*
X126027901Y-71182795D01*
X126019350Y-71181095D01*
X126010681Y-71179595D01*
X126001896Y-71178295D01*
X125992992Y-71177196D01*
X125983971Y-71176296D01*
X125974833Y-71175596D01*
X125965577Y-71175096D01*
X125956203Y-71174796D01*
X125946712Y-71174696D01*
X125937516Y-71174737D01*
X125928540Y-71174861D01*
X125919784Y-71175067D01*
X125911248Y-71175355D01*
X125902931Y-71175726D01*
X125900208Y-71175868D01*
X125892102Y-71176303D01*
X125884051Y-71176876D01*
X125876056Y-71177586D01*
X125868115Y-71178433D01*
X125860229Y-71179417D01*
X125857612Y-71179776D01*
X125849758Y-71180944D01*
X125841877Y-71182249D01*
X125833968Y-71183692D01*
X125826032Y-71185272D01*
X125818068Y-71186989D01*
X125815407Y-71187592D01*
X125807292Y-71189447D01*
X125799067Y-71191494D01*
X125790732Y-71193733D01*
X125782288Y-71196165D01*
X125773733Y-71198789D01*
X125770857Y-71199706D01*
X125770857Y-71337264D01*
X125779575Y-71333557D01*
X125788218Y-71330056D01*
X125796785Y-71326761D01*
X125805277Y-71323672D01*
X125813693Y-71320789D01*
X125822034Y-71318112D01*
X125830299Y-71315642D01*
X125838488Y-71313377D01*
X125846602Y-71311319D01*
X125854640Y-71309466D01*
X125859957Y-71308346D01*
X125867803Y-71306809D01*
X125875516Y-71305424D01*
X125885591Y-71303812D01*
X125895428Y-71302469D01*
X125905027Y-71301394D01*
X125914387Y-71300588D01*
X125923510Y-71300051D01*
X125932394Y-71299782D01*
X125936747Y-71299748D01*
X125946215Y-71299908D01*
X125955422Y-71300387D01*
X125964368Y-71301186D01*
X125973054Y-71302304D01*
X125981478Y-71303741D01*
X125989641Y-71305498D01*
X125997543Y-71307574D01*
X126005184Y-71309970D01*
X126012564Y-71312685D01*
X126021997Y-71316802D01*
X126024283Y-71317920D01*
X126033122Y-71322643D01*
X126041564Y-71327824D01*
X126049608Y-71333463D01*
X126057256Y-71339560D01*
X126064507Y-71346115D01*
X126071361Y-71353128D01*
X126077818Y-71360598D01*
X126083879Y-71368527D01*
X126089502Y-71376877D01*
X126094747Y-71385612D01*
X126099614Y-71394731D01*
X126103016Y-71401823D01*
X126106204Y-71409132D01*
X126109180Y-71416656D01*
X126111942Y-71424398D01*
X126114492Y-71432355D01*
X126116829Y-71440529D01*
X126118268Y-71446099D01*
X126120224Y-71454604D01*
X126121987Y-71463267D01*
X126123557Y-71472089D01*
X126124936Y-71481068D01*
X126126122Y-71490205D01*
X126127116Y-71499501D01*
X126127917Y-71508954D01*
X126128526Y-71518565D01*
X126128943Y-71528335D01*
X126129167Y-71538262D01*
X126129210Y-71544968D01*
X126129112Y-71555561D01*
X126128819Y-71565945D01*
X126128329Y-71576119D01*
X126127644Y-71586083D01*
X126126763Y-71595838D01*
X126125686Y-71605384D01*
X126124414Y-71614720D01*
X126122945Y-71623846D01*
X126121281Y-71632763D01*
X126119421Y-71641471D01*
X126118073Y-71647159D01*
X126115840Y-71655465D01*
X126113390Y-71663531D01*
X126110724Y-71671357D01*
X126107842Y-71678941D01*
X126104743Y-71686286D01*
X126101428Y-71693390D01*
X126096672Y-71702488D01*
X126091530Y-71711159D01*
X126086004Y-71719402D01*
X126083097Y-71723363D01*
X126076982Y-71730947D01*
X126070458Y-71738066D01*
X126063524Y-71744722D01*
X126056182Y-71750914D01*
X126048430Y-71756641D01*
X126040269Y-71761905D01*
X126031699Y-71766704D01*
X126022720Y-71771039D01*
X126013274Y-71774886D01*
X126003401Y-71778220D01*
X125995715Y-71780384D01*
X125987789Y-71782259D01*
X125979622Y-71783846D01*
X125971216Y-71785144D01*
X125962568Y-71786154D01*
X125953680Y-71786875D01*
X125944552Y-71787308D01*
X125935184Y-71787452D01*
X125927093Y-71787303D01*
X125918722Y-71786854D01*
X125910071Y-71786106D01*
X125901139Y-71785059D01*
X125895909Y-71784326D01*
X125887975Y-71783085D01*
X125880000Y-71781707D01*
X125871984Y-71780191D01*
X125863926Y-71778538D01*
X125855827Y-71776747D01*
X125853118Y-71776120D01*
X125844939Y-71774153D01*
X125836815Y-71772062D01*
X125828746Y-71769848D01*
X125820731Y-71767510D01*
X125812772Y-71765048D01*
X125810131Y-71764200D01*
X125802321Y-71761556D01*
X125794717Y-71758897D01*
X125787318Y-71756225D01*
X125778947Y-71753090D01*
X125770857Y-71749937D01*
X125770857Y-71874989D01*
G37*
G36*
X125599301Y-71900000D02*
G01*
X125599301Y-71187201D01*
X125461939Y-71187201D01*
X125461939Y-71787452D01*
X125158491Y-71787452D01*
X125158491Y-71900000D01*
X125599301Y-71900000D01*
G37*
G36*
X124668247Y-71900000D02*
G01*
X124884158Y-71555324D01*
X124884158Y-71900000D01*
X125021520Y-71900000D01*
X125021520Y-71187201D01*
X124884158Y-71187201D01*
X124884158Y-71519567D01*
X124669224Y-71187201D01*
X124506070Y-71187201D01*
X124750117Y-71530118D01*
X124493369Y-71900000D01*
X124668247Y-71900000D01*
G37*
G36*
X128510020Y-71599874D02*
G01*
X128510020Y-71487327D01*
X128254444Y-71487327D01*
X128254444Y-71867759D01*
X128263752Y-71871941D01*
X128273140Y-71875913D01*
X128282606Y-71879676D01*
X128292152Y-71883229D01*
X128301776Y-71886573D01*
X128311480Y-71889707D01*
X128321262Y-71892632D01*
X128331124Y-71895347D01*
X128341064Y-71897852D01*
X128351084Y-71900148D01*
X128357808Y-71901563D01*
X128367967Y-71903518D01*
X128378294Y-71905281D01*
X128388790Y-71906852D01*
X128399454Y-71908230D01*
X128410286Y-71909417D01*
X128421287Y-71910410D01*
X128432456Y-71911212D01*
X128443793Y-71911821D01*
X128455299Y-71912238D01*
X128466973Y-71912462D01*
X128474849Y-71912505D01*
X128484121Y-71912415D01*
X128493277Y-71912148D01*
X128502317Y-71911701D01*
X128511241Y-71911076D01*
X128520049Y-71910272D01*
X128528741Y-71909290D01*
X128537317Y-71908129D01*
X128545777Y-71906789D01*
X128554121Y-71905271D01*
X128562349Y-71903575D01*
X128570461Y-71901699D01*
X128578457Y-71899645D01*
X128586336Y-71897413D01*
X128594100Y-71895002D01*
X128601748Y-71892412D01*
X128609280Y-71889644D01*
X128616660Y-71886675D01*
X128623901Y-71883534D01*
X128631003Y-71880221D01*
X128641396Y-71874928D01*
X128651476Y-71869246D01*
X128661244Y-71863177D01*
X128670699Y-71856719D01*
X128679841Y-71849873D01*
X128688671Y-71842639D01*
X128697188Y-71835017D01*
X128705393Y-71827007D01*
X128710690Y-71821451D01*
X128718323Y-71812761D01*
X128725617Y-71803689D01*
X128732570Y-71794236D01*
X128737017Y-71787723D01*
X128741312Y-71781040D01*
X128745457Y-71774187D01*
X128749450Y-71767165D01*
X128753293Y-71759974D01*
X128756984Y-71752613D01*
X128760524Y-71745083D01*
X128763913Y-71737383D01*
X128767150Y-71729514D01*
X128770237Y-71721475D01*
X128773172Y-71713267D01*
X128774584Y-71709099D01*
X128777281Y-71700614D01*
X128779804Y-71691963D01*
X128782154Y-71683145D01*
X128784329Y-71674160D01*
X128786330Y-71665010D01*
X128788157Y-71655693D01*
X128789811Y-71646209D01*
X128791290Y-71636559D01*
X128792595Y-71626743D01*
X128793726Y-71616760D01*
X128794683Y-71606611D01*
X128795466Y-71596296D01*
X128796075Y-71585814D01*
X128796510Y-71575166D01*
X128796771Y-71564351D01*
X128796858Y-71553370D01*
X128796768Y-71542330D01*
X128796495Y-71531434D01*
X128796041Y-71520683D01*
X128795405Y-71510078D01*
X128794588Y-71499618D01*
X128793589Y-71489302D01*
X128792408Y-71479132D01*
X128791045Y-71469106D01*
X128789501Y-71459226D01*
X128787776Y-71449491D01*
X128785868Y-71439900D01*
X128783779Y-71430455D01*
X128781509Y-71421155D01*
X128779056Y-71411999D01*
X128776422Y-71402989D01*
X128773607Y-71394124D01*
X128770592Y-71385392D01*
X128767412Y-71376831D01*
X128764065Y-71368442D01*
X128760552Y-71360223D01*
X128756872Y-71352175D01*
X128753026Y-71344298D01*
X128749014Y-71336592D01*
X128744835Y-71329057D01*
X128740489Y-71321693D01*
X128735978Y-71314501D01*
X128731300Y-71307479D01*
X128726455Y-71300628D01*
X128721445Y-71293948D01*
X128716267Y-71287438D01*
X128710924Y-71281100D01*
X128705414Y-71274933D01*
X128699718Y-71268918D01*
X128693864Y-71263084D01*
X128687854Y-71257432D01*
X128681686Y-71251962D01*
X128675361Y-71246674D01*
X128668878Y-71241567D01*
X128662239Y-71236641D01*
X128655442Y-71231898D01*
X128648488Y-71227336D01*
X128641377Y-71222955D01*
X128634108Y-71218757D01*
X128626682Y-71214740D01*
X128619099Y-71210904D01*
X128611359Y-71207250D01*
X128603462Y-71203778D01*
X128595407Y-71200488D01*
X128587201Y-71197365D01*
X128578850Y-71194443D01*
X128570355Y-71191723D01*
X128561714Y-71189204D01*
X128552928Y-71186887D01*
X128543997Y-71184771D01*
X128534921Y-71182857D01*
X128525700Y-71181144D01*
X128516334Y-71179633D01*
X128506823Y-71178323D01*
X128497167Y-71177215D01*
X128487366Y-71176308D01*
X128477420Y-71175603D01*
X128467329Y-71175099D01*
X128457093Y-71174797D01*
X128446712Y-71174696D01*
X128437465Y-71174756D01*
X128428263Y-71174936D01*
X128419106Y-71175237D01*
X128409993Y-71175658D01*
X128400925Y-71176199D01*
X128391902Y-71176860D01*
X128382923Y-71177641D01*
X128373989Y-71178543D01*
X128365099Y-71179565D01*
X128356254Y-71180707D01*
X128350383Y-71181535D01*
X128341557Y-71182857D01*
X128332738Y-71184257D01*
X128323925Y-71185737D01*
X128315120Y-71187296D01*
X128306322Y-71188934D01*
X128297530Y-71190650D01*
X128288745Y-71192446D01*
X128279967Y-71194321D01*
X128271196Y-71196275D01*
X128262432Y-71198307D01*
X128256593Y-71199706D01*
X128256593Y-71337264D01*
X128264289Y-71334238D01*
X128272136Y-71331315D01*
X128280134Y-71328495D01*
X128288284Y-71325778D01*
X128296584Y-71323165D01*
X128305036Y-71320654D01*
X128313638Y-71318246D01*
X128322392Y-71315942D01*
X128331297Y-71313740D01*
X128340353Y-71311641D01*
X128346475Y-71310300D01*
X128355714Y-71308414D01*
X128364967Y-71306714D01*
X128374234Y-71305199D01*
X128383514Y-71303870D01*
X128392808Y-71302726D01*
X128402116Y-71301768D01*
X128411438Y-71300995D01*
X128420773Y-71300408D01*
X128430122Y-71300006D01*
X128439485Y-71299789D01*
X128445735Y-71299748D01*
X128455086Y-71299899D01*
X128464234Y-71300353D01*
X128473180Y-71301108D01*
X128481923Y-71302166D01*
X128490463Y-71303526D01*
X128498801Y-71305189D01*
X128506936Y-71307153D01*
X128514868Y-71309420D01*
X128522598Y-71311989D01*
X128530125Y-71314861D01*
X128535030Y-71316943D01*
X128542174Y-71320259D01*
X128551358Y-71325081D01*
X128560151Y-71330362D01*
X128568552Y-71336100D01*
X128576564Y-71342296D01*
X128584184Y-71348950D01*
X128591414Y-71356062D01*
X128598252Y-71363632D01*
X128599901Y-71365596D01*
X128606202Y-71373690D01*
X128612113Y-71382241D01*
X128616290Y-71388955D01*
X128620246Y-71395927D01*
X128623983Y-71403157D01*
X128627500Y-71410644D01*
X128630798Y-71418388D01*
X128633875Y-71426390D01*
X128636733Y-71434650D01*
X128639371Y-71443168D01*
X128641780Y-71451880D01*
X128643953Y-71460799D01*
X128645888Y-71469924D01*
X128647586Y-71479255D01*
X128649048Y-71488791D01*
X128650272Y-71498534D01*
X128651260Y-71508484D01*
X128652010Y-71518639D01*
X128652524Y-71529000D01*
X128652800Y-71539567D01*
X128652853Y-71546727D01*
X128652762Y-71557072D01*
X128652489Y-71567225D01*
X128652034Y-71577185D01*
X128651397Y-71586953D01*
X128650577Y-71596529D01*
X128649576Y-71605913D01*
X128648393Y-71615104D01*
X128647028Y-71624103D01*
X128645480Y-71632909D01*
X128643751Y-71641523D01*
X128642497Y-71647159D01*
X128640407Y-71655396D01*
X128638094Y-71663398D01*
X128635557Y-71671168D01*
X128632797Y-71678703D01*
X128629814Y-71686005D01*
X128625490Y-71695378D01*
X128620768Y-71704336D01*
X128615650Y-71712878D01*
X128610135Y-71721005D01*
X128608694Y-71722972D01*
X128602624Y-71730559D01*
X128596140Y-71737688D01*
X128589240Y-71744359D01*
X128581925Y-71750572D01*
X128574194Y-71756327D01*
X128566049Y-71761624D01*
X128557488Y-71766463D01*
X128548512Y-71770844D01*
X128539033Y-71774737D01*
X128531598Y-71777315D01*
X128523886Y-71779602D01*
X128515895Y-71781597D01*
X128507626Y-71783300D01*
X128499079Y-71784711D01*
X128490254Y-71785830D01*
X128481150Y-71786658D01*
X128471768Y-71787193D01*
X128462108Y-71787436D01*
X128458826Y-71787452D01*
X128450510Y-71787360D01*
X128442386Y-71787049D01*
X128436942Y-71786671D01*
X128428960Y-71785837D01*
X128420906Y-71784612D01*
X128419357Y-71784326D01*
X128411695Y-71782732D01*
X128403995Y-71780747D01*
X128403530Y-71780614D01*
X128395909Y-71778367D01*
X128388410Y-71776083D01*
X128387898Y-71775924D01*
X128387898Y-71599874D01*
X128510020Y-71599874D01*
G37*
G36*
X127800934Y-71900000D02*
G01*
X127993202Y-71474626D01*
X128032867Y-71382986D01*
X128032867Y-71678618D01*
X128032867Y-71900000D01*
X128155965Y-71900000D01*
X128155965Y-71187201D01*
X127989880Y-71187201D01*
X127793704Y-71615310D01*
X127759119Y-71698743D01*
X127759119Y-71384159D01*
X127759119Y-71187201D01*
X127636021Y-71187201D01*
X127636021Y-71900000D01*
X127800934Y-71900000D01*
G37*
G36*
X127545163Y-71900000D02*
G01*
X127362664Y-71900000D01*
X127350899Y-71899899D01*
X127339342Y-71899596D01*
X127327995Y-71899093D01*
X127316857Y-71898387D01*
X127305928Y-71897481D01*
X127295208Y-71896372D01*
X127284697Y-71895063D01*
X127274395Y-71893551D01*
X127264303Y-71891839D01*
X127254419Y-71889924D01*
X127244745Y-71887809D01*
X127235280Y-71885491D01*
X127226024Y-71882973D01*
X127216977Y-71880252D01*
X127208139Y-71877331D01*
X127199510Y-71874207D01*
X127191082Y-71870874D01*
X127182847Y-71867372D01*
X127174804Y-71863700D01*
X127166953Y-71859858D01*
X127159294Y-71855847D01*
X127151828Y-71851667D01*
X127144554Y-71847317D01*
X127137473Y-71842798D01*
X127130583Y-71838109D01*
X127123887Y-71833251D01*
X127117382Y-71828223D01*
X127111070Y-71823026D01*
X127104950Y-71817660D01*
X127099023Y-71812124D01*
X127093287Y-71806419D01*
X127087745Y-71800544D01*
X127082364Y-71794483D01*
X127077166Y-71788268D01*
X127072149Y-71781898D01*
X127067314Y-71775375D01*
X127062660Y-71768697D01*
X127058188Y-71761865D01*
X127053898Y-71754879D01*
X127049789Y-71747739D01*
X127045862Y-71740444D01*
X127042117Y-71732995D01*
X127038553Y-71725393D01*
X127035171Y-71717636D01*
X127031971Y-71709724D01*
X127028952Y-71701659D01*
X127026115Y-71693440D01*
X127023460Y-71685066D01*
X127020952Y-71676555D01*
X127018606Y-71667926D01*
X127016421Y-71659178D01*
X127014399Y-71650310D01*
X127012538Y-71641323D01*
X127010839Y-71632218D01*
X127009302Y-71622993D01*
X127007926Y-71613649D01*
X127006713Y-71604186D01*
X127005661Y-71594604D01*
X127004771Y-71584903D01*
X127004043Y-71575083D01*
X127003476Y-71565144D01*
X127003072Y-71555086D01*
X127002829Y-71544909D01*
X127002817Y-71543405D01*
X127147926Y-71543405D01*
X127148128Y-71558943D01*
X127148735Y-71573954D01*
X127149747Y-71588436D01*
X127151162Y-71602390D01*
X127152983Y-71615815D01*
X127155208Y-71628713D01*
X127157837Y-71641082D01*
X127160871Y-71652923D01*
X127164309Y-71664236D01*
X127168153Y-71675021D01*
X127172400Y-71685278D01*
X127177052Y-71695006D01*
X127182109Y-71704207D01*
X127187570Y-71712879D01*
X127193435Y-71721023D01*
X127199706Y-71728639D01*
X127206340Y-71735761D01*
X127213347Y-71742423D01*
X127220726Y-71748626D01*
X127228477Y-71754370D01*
X127236602Y-71759654D01*
X127245098Y-71764478D01*
X127253967Y-71768843D01*
X127263209Y-71772749D01*
X127272823Y-71776195D01*
X127282809Y-71779182D01*
X127293168Y-71781709D01*
X127303900Y-71783777D01*
X127315004Y-71785385D01*
X127326480Y-71786533D01*
X127338329Y-71787223D01*
X127350550Y-71787452D01*
X127409950Y-71787452D01*
X127409950Y-71299748D01*
X127341366Y-71299748D01*
X127337916Y-71299764D01*
X127327777Y-71300005D01*
X127317958Y-71300534D01*
X127308459Y-71301351D01*
X127299278Y-71302457D01*
X127290417Y-71303852D01*
X127281876Y-71305535D01*
X127273654Y-71307506D01*
X127265751Y-71309766D01*
X127258168Y-71312315D01*
X127248554Y-71316161D01*
X127239416Y-71320454D01*
X127230761Y-71325223D01*
X127222588Y-71330468D01*
X127214898Y-71336189D01*
X127207689Y-71342387D01*
X127200963Y-71349061D01*
X127194720Y-71356211D01*
X127188959Y-71363838D01*
X127187579Y-71365805D01*
X127182313Y-71373951D01*
X127177449Y-71382536D01*
X127172989Y-71391561D01*
X127168931Y-71401025D01*
X127166153Y-71408412D01*
X127163601Y-71416046D01*
X127161276Y-71423927D01*
X127159177Y-71432056D01*
X127157305Y-71440432D01*
X127156169Y-71446124D01*
X127154603Y-71454847D01*
X127153202Y-71463794D01*
X127151965Y-71472964D01*
X127150894Y-71482357D01*
X127149987Y-71491974D01*
X127149245Y-71501813D01*
X127148668Y-71511876D01*
X127148256Y-71522163D01*
X127148009Y-71532672D01*
X127147926Y-71543405D01*
X127002817Y-71543405D01*
X127002748Y-71534612D01*
X127002829Y-71523401D01*
X127003072Y-71512386D01*
X127003476Y-71501566D01*
X127004043Y-71490942D01*
X127004771Y-71480512D01*
X127005661Y-71470279D01*
X127006713Y-71460240D01*
X127007926Y-71450397D01*
X127009302Y-71440750D01*
X127010839Y-71431297D01*
X127012538Y-71422041D01*
X127014399Y-71412979D01*
X127016421Y-71404113D01*
X127018606Y-71395443D01*
X127020952Y-71386967D01*
X127023460Y-71378688D01*
X127026105Y-71370595D01*
X127028913Y-71362681D01*
X127031882Y-71354945D01*
X127035013Y-71347388D01*
X127038305Y-71340009D01*
X127041760Y-71332810D01*
X127045376Y-71325788D01*
X127051104Y-71315591D01*
X127057196Y-71305796D01*
X127063652Y-71296403D01*
X127070472Y-71287412D01*
X127077656Y-71278822D01*
X127085205Y-71270635D01*
X127093117Y-71262844D01*
X127101393Y-71255444D01*
X127110034Y-71248436D01*
X127119038Y-71241820D01*
X127128407Y-71235595D01*
X127138140Y-71229762D01*
X127148236Y-71224320D01*
X127158697Y-71219270D01*
X127165873Y-71216121D01*
X127173211Y-71213146D01*
X127180711Y-71210345D01*
X127188373Y-71207718D01*
X127196172Y-71205233D01*
X127204133Y-71202909D01*
X127212255Y-71200745D01*
X127220540Y-71198742D01*
X127228986Y-71196898D01*
X127237594Y-71195215D01*
X127246364Y-71193693D01*
X127255295Y-71192330D01*
X127264389Y-71191128D01*
X127273644Y-71190086D01*
X127283061Y-71189205D01*
X127292640Y-71188483D01*
X127302381Y-71187922D01*
X127312283Y-71187522D01*
X127322348Y-71187281D01*
X127332574Y-71187201D01*
X127545163Y-71187201D01*
X127545163Y-71900000D01*
G37*
D12*
%TO.C,JP1*%
X103350000Y-98000000D02*
X103350000Y-100000000D01*
X103350000Y-100000000D02*
X106150000Y-100000000D01*
X106150000Y-98000000D02*
X103350000Y-98000000D01*
X106150000Y-100000000D02*
X106150000Y-98000000D01*
%TO.C,R10*%
X109403641Y-86380000D02*
X109096359Y-86380000D01*
X109403641Y-85620000D02*
X109096359Y-85620000D01*
D13*
%TO.C,J1*%
X97990000Y-92220000D02*
X98390000Y-92220000D01*
X97990000Y-92220000D02*
X97990000Y-81780000D01*
X98390000Y-92220000D02*
X98390000Y-91510000D01*
X98390000Y-92220000D02*
X98390000Y-81800000D01*
X96990000Y-91510000D02*
X97990000Y-91510000D01*
X96990000Y-91510000D02*
X96990000Y-82500000D01*
X98390000Y-91510000D02*
X103490000Y-91510000D01*
X103490000Y-91510000D02*
X103490000Y-82530000D01*
X96040000Y-91200000D02*
X96040000Y-82800000D01*
X96990000Y-91200000D02*
X96040000Y-91200000D01*
X96990000Y-82800000D02*
X96040000Y-82800000D01*
X98390000Y-82530000D02*
X103490000Y-82530000D01*
X96990000Y-82500000D02*
X97990000Y-82500000D01*
X97990000Y-81780000D02*
X98390000Y-81780000D01*
D12*
%TO.C,C4*%
X118142164Y-102140000D02*
X118357836Y-102140000D01*
X118142164Y-102860000D02*
X118357836Y-102860000D01*
%TO.C,C7*%
X114610000Y-82392164D02*
X114610000Y-82607836D01*
X113890000Y-82392164D02*
X113890000Y-82607836D01*
%TO.C,R7*%
X108370000Y-101153641D02*
X108370000Y-100846359D01*
X109130000Y-101153641D02*
X109130000Y-100846359D01*
D14*
%TO.C,J3*%
X98000000Y-68750000D02*
X104000000Y-68750000D01*
X104000000Y-68750000D02*
X104000000Y-71250000D01*
X104000000Y-71250000D02*
X98000000Y-71250000D01*
X98000000Y-71250000D02*
X98000000Y-68750000D01*
D12*
%TO.C,D4*%
X123400000Y-83110000D02*
X123400000Y-80450000D01*
X125100000Y-83110000D02*
X123400000Y-83110000D01*
X125100000Y-83110000D02*
X125100000Y-80450000D01*
%TO.C,R13*%
X110346359Y-93870000D02*
X110653641Y-93870000D01*
X110346359Y-94630000D02*
X110653641Y-94630000D01*
%TO.C,C11*%
X110890000Y-89357836D02*
X110890000Y-89142164D01*
X111610000Y-89357836D02*
X111610000Y-89142164D01*
D14*
%TO.C,J5*%
X120750000Y-84000000D02*
X123250000Y-84000000D01*
X123250000Y-84000000D02*
X123250000Y-78000000D01*
X123250000Y-78000000D02*
X120750000Y-78000000D01*
X120750000Y-78000000D02*
X120750000Y-84000000D01*
D12*
%TO.C,SW2*%
X101025000Y-95550000D02*
X100475000Y-95550000D01*
X98900000Y-96575000D02*
X98900000Y-95650000D01*
X102600000Y-100350000D02*
X102600000Y-95650000D01*
X98900000Y-100350000D02*
X98900000Y-99425000D01*
X101025000Y-100450000D02*
X100475000Y-100450000D01*
%TO.C,C12*%
X111890000Y-89357836D02*
X111890000Y-89142164D01*
X112610000Y-89357836D02*
X112610000Y-89142164D01*
%TO.C,SW4*%
X125475000Y-89450000D02*
X126025000Y-89450000D01*
X127600000Y-88425000D02*
X127600000Y-89350000D01*
X123900000Y-84650000D02*
X123900000Y-89350000D01*
X127600000Y-84650000D02*
X127600000Y-85575000D01*
X125475000Y-84550000D02*
X126025000Y-84550000D01*
%TO.C,U1*%
X108500000Y-86690000D02*
X107700000Y-86690000D01*
X108500000Y-86690000D02*
X109300000Y-86690000D01*
X108500000Y-89810000D02*
X106700000Y-89810000D01*
X108500000Y-89810000D02*
X109300000Y-89810000D01*
%TO.C,C9*%
X116610000Y-82392164D02*
X116610000Y-82607836D01*
X115890000Y-82392164D02*
X115890000Y-82607836D01*
%TO.C,R3*%
X105022936Y-78265000D02*
X105477064Y-78265000D01*
X105022936Y-79735000D02*
X105477064Y-79735000D01*
%TO.C,U4*%
X111112500Y-82190000D02*
X110312500Y-82190000D01*
X111112500Y-82190000D02*
X111912500Y-82190000D01*
X111112500Y-85310000D02*
X109312500Y-85310000D01*
X111112500Y-85310000D02*
X111912500Y-85310000D01*
%TO.C,J4*%
X107920000Y-76520000D02*
X118580000Y-76520000D01*
X107920000Y-77590000D02*
X107920000Y-76520000D01*
X107970000Y-80380000D02*
X107970000Y-79410000D01*
X110590000Y-80380000D02*
X107970000Y-80380000D01*
X110590000Y-80900000D02*
X110590000Y-80380000D01*
X118530000Y-79410000D02*
X118530000Y-80380000D01*
X118530000Y-80380000D02*
X115910000Y-80380000D01*
X118580000Y-76520000D02*
X118580000Y-77590000D01*
%TO.C,R8*%
X106870000Y-101153641D02*
X106870000Y-100846359D01*
X107630000Y-101153641D02*
X107630000Y-100846359D01*
%TO.C,R6*%
X104653641Y-77630000D02*
X104346359Y-77630000D01*
X104653641Y-76870000D02*
X104346359Y-76870000D01*
%TO.C,R4*%
X118130000Y-96596359D02*
X118130000Y-96903641D01*
X117370000Y-96596359D02*
X117370000Y-96903641D01*
%TO.C,U5*%
X112860000Y-93610000D02*
X112860000Y-93435000D01*
X112185000Y-93610000D02*
X112860000Y-93610000D01*
X112185000Y-90390000D02*
X112860000Y-90390000D01*
X110315000Y-93610000D02*
X109640000Y-93610000D01*
X110315000Y-90390000D02*
X109640000Y-90390000D01*
X109640000Y-93610000D02*
X109640000Y-93435000D01*
X109640000Y-90390000D02*
X109640000Y-90565000D01*
%TO.C,Q3*%
X123060000Y-75812500D02*
X123060000Y-75162500D01*
X123060000Y-75812500D02*
X123060000Y-76462500D01*
X119940000Y-75812500D02*
X119940000Y-74137500D01*
X119940000Y-75812500D02*
X119940000Y-76462500D01*
D10*
%TO.C,U2*%
X109600000Y-94920000D02*
X109800000Y-94920000D01*
X109600000Y-105920000D02*
X109600000Y-94920000D01*
X116700000Y-94920000D02*
X116900000Y-94920000D01*
X116900000Y-94920000D02*
X116900000Y-105920000D01*
X116900000Y-105920000D02*
X109600000Y-105920000D01*
D12*
%TO.C,R12*%
X118403641Y-99880000D02*
X118096359Y-99880000D01*
X118403641Y-99120000D02*
X118096359Y-99120000D01*
%TO.C,C10*%
X103610000Y-92892164D02*
X103610000Y-93107836D01*
X102890000Y-92892164D02*
X102890000Y-93107836D01*
%TO.C,R15*%
X120630000Y-78846359D02*
X120630000Y-79153641D01*
X119870000Y-78846359D02*
X119870000Y-79153641D01*
%TO.C,C13*%
X108390000Y-93607836D02*
X108390000Y-93392164D01*
X109110000Y-93607836D02*
X109110000Y-93392164D01*
%TO.C,SW3*%
X125475000Y-78450000D02*
X126025000Y-78450000D01*
X127600000Y-77425000D02*
X127600000Y-78350000D01*
X123900000Y-73650000D02*
X123900000Y-78350000D01*
X127600000Y-73650000D02*
X127600000Y-74575000D01*
X125475000Y-73550000D02*
X126025000Y-73550000D01*
%TO.C,Q2*%
X122610000Y-100937500D02*
X122610000Y-100287500D01*
X122610000Y-100937500D02*
X122610000Y-101587500D01*
X119490000Y-100937500D02*
X119490000Y-99262500D01*
X119490000Y-100937500D02*
X119490000Y-101587500D01*
%TO.C,R5*%
X119380000Y-96596359D02*
X119380000Y-96903641D01*
X118620000Y-96596359D02*
X118620000Y-96903641D01*
%TO.C,C8*%
X115610000Y-82392164D02*
X115610000Y-82607836D01*
X114890000Y-82392164D02*
X114890000Y-82607836D01*
%TO.C,C5*%
X105607836Y-70860000D02*
X105392164Y-70860000D01*
X105607836Y-70140000D02*
X105392164Y-70140000D01*
%TO.C,R1*%
X107096359Y-85620000D02*
X107403641Y-85620000D01*
X107096359Y-86380000D02*
X107403641Y-86380000D01*
%TO.C,C6*%
X114110000Y-84392164D02*
X114110000Y-84607836D01*
X113390000Y-84392164D02*
X113390000Y-84607836D01*
D14*
%TO.C,J2*%
X126670000Y-71000000D02*
X126670000Y-68500000D01*
X129170000Y-71000000D02*
X118920000Y-71000000D01*
X118920000Y-71000000D02*
X118920000Y-68500000D01*
X118920000Y-68500000D02*
X129170000Y-68500000D01*
X129170000Y-68500000D02*
X129170000Y-71000000D01*
D12*
%TO.C,C3*%
X118142164Y-101140000D02*
X118357836Y-101140000D01*
X118142164Y-101860000D02*
X118357836Y-101860000D01*
%TO.C,U3*%
X106650000Y-71800000D02*
X106500000Y-71800000D01*
X103852607Y-72399299D02*
X103852607Y-71499299D01*
X106650000Y-72400000D02*
X106650000Y-71800000D01*
X106650000Y-74600000D02*
X106650000Y-73200000D01*
X103850000Y-74600000D02*
X103850000Y-73200000D01*
X103850000Y-75400000D02*
X103850000Y-76000000D01*
X106650000Y-76000000D02*
X106650000Y-75400000D01*
X106650000Y-76000000D02*
X106500000Y-76000000D01*
X103850000Y-76000000D02*
X104000000Y-76000000D01*
%TO.C,D1*%
X106860000Y-81850000D02*
X104200000Y-81850000D01*
X106860000Y-80150000D02*
X106860000Y-81850000D01*
X106860000Y-80150000D02*
X104200000Y-80150000D01*
%TO.C,Q1*%
X107062500Y-82190000D02*
X106412500Y-82190000D01*
X107062500Y-82190000D02*
X107712500Y-82190000D01*
X107062500Y-85310000D02*
X105387500Y-85310000D01*
X107062500Y-85310000D02*
X107712500Y-85310000D01*
%TO.C,R9*%
X111096359Y-85620000D02*
X111403641Y-85620000D01*
X111096359Y-86380000D02*
X111403641Y-86380000D01*
%TO.C,SW1*%
X101025000Y-73550000D02*
X100475000Y-73550000D01*
X98900000Y-74575000D02*
X98900000Y-73650000D01*
X102600000Y-78350000D02*
X102600000Y-73650000D01*
X98900000Y-78350000D02*
X98900000Y-77425000D01*
X101025000Y-78450000D02*
X100475000Y-78450000D01*
%TO.C,U6*%
X106000000Y-94310000D02*
X106800000Y-94310000D01*
X106000000Y-94310000D02*
X105200000Y-94310000D01*
X106000000Y-91190000D02*
X107800000Y-91190000D01*
X106000000Y-91190000D02*
X105200000Y-91190000D01*
%TO.C,C2*%
X118142164Y-100140000D02*
X118357836Y-100140000D01*
X118142164Y-100860000D02*
X118357836Y-100860000D01*
%TO.C,SW5*%
X125475000Y-100450000D02*
X126025000Y-100450000D01*
X127600000Y-99425000D02*
X127600000Y-100350000D01*
X123900000Y-95650000D02*
X123900000Y-100350000D01*
X127600000Y-95650000D02*
X127600000Y-96575000D01*
X125475000Y-95550000D02*
X126025000Y-95550000D01*
%TO.C,R2*%
X107346359Y-90120000D02*
X107653641Y-90120000D01*
X107346359Y-90880000D02*
X107653641Y-90880000D01*
%TO.C,C1*%
X107610000Y-98892164D02*
X107610000Y-99107836D01*
X106890000Y-98892164D02*
X106890000Y-99107836D01*
%TO.C,R14*%
X114130000Y-93096359D02*
X114130000Y-93403641D01*
X113370000Y-93096359D02*
X113370000Y-93403641D01*
%TD*%
%LPC*%
D15*
%TO.C,JP1*%
X104025000Y-99000000D03*
D16*
X105475000Y-99000000D03*
%TD*%
D17*
%TO.C,R10*%
X109760000Y-86000000D03*
X108740000Y-86000000D03*
%TD*%
D18*
%TO.C,J1*%
X104220000Y-90210000D03*
X104220000Y-89410000D03*
D19*
X104220000Y-88250000D03*
X104220000Y-87250000D03*
X104220000Y-86750000D03*
X104220000Y-85750000D03*
D18*
X104220000Y-84590000D03*
X104220000Y-83790000D03*
X104220000Y-83790000D03*
X104220000Y-84590000D03*
D19*
X104220000Y-85250000D03*
X104220000Y-86250000D03*
X104220000Y-87750000D03*
X104220000Y-88750000D03*
D18*
X104220000Y-89410000D03*
X104220000Y-90210000D03*
D20*
X101000000Y-92600000D03*
X101000000Y-81400000D03*
%TD*%
D21*
%TO.C,C4*%
X117770000Y-102500000D03*
X118730000Y-102500000D03*
%TD*%
D22*
%TO.C,C7*%
X114250000Y-82020000D03*
X114250000Y-82980000D03*
%TD*%
D23*
%TO.C,R7*%
X108750000Y-101510000D03*
X108750000Y-100490000D03*
%TD*%
D24*
%TO.C,J3*%
X99250000Y-70000000D03*
D25*
X102750000Y-70000000D03*
%TD*%
D26*
%TO.C,D4*%
X124250000Y-82550000D03*
X124250000Y-80450000D03*
%TD*%
D27*
%TO.C,R13*%
X109990000Y-94250000D03*
X111010000Y-94250000D03*
%TD*%
D28*
%TO.C,C11*%
X111250000Y-89730000D03*
X111250000Y-88770000D03*
%TD*%
D24*
%TO.C,J5*%
X122000000Y-82750000D03*
D25*
X122000000Y-79250000D03*
%TD*%
D29*
%TO.C,SW2*%
X99900000Y-95375000D03*
X99900000Y-100625000D03*
X101600000Y-95375000D03*
X101600000Y-100625000D03*
%TD*%
D28*
%TO.C,C12*%
X112250000Y-89730000D03*
X112250000Y-88770000D03*
%TD*%
D29*
%TO.C,SW4*%
X126600000Y-89625000D03*
X126600000Y-84375000D03*
X124900000Y-89625000D03*
X124900000Y-84375000D03*
%TD*%
D30*
%TO.C,U1*%
X107362500Y-89200000D03*
X107362500Y-88250000D03*
X107362500Y-87300000D03*
X109637500Y-87300000D03*
X109637500Y-88250000D03*
X109637500Y-89200000D03*
%TD*%
D22*
%TO.C,C9*%
X116250000Y-82020000D03*
X116250000Y-82980000D03*
%TD*%
D31*
%TO.C,R3*%
X104337500Y-79000000D03*
X106162500Y-79000000D03*
%TD*%
D30*
%TO.C,U4*%
X109975000Y-84700000D03*
X109975000Y-83750000D03*
X109975000Y-82800000D03*
X112250000Y-82800000D03*
X112250000Y-84700000D03*
%TD*%
D32*
%TO.C,J4*%
X111000000Y-80400000D03*
X111500000Y-80400000D03*
X112000000Y-80400000D03*
X112500000Y-80400000D03*
X113000000Y-80400000D03*
X113500000Y-80400000D03*
X114000000Y-80400000D03*
X114500000Y-80400000D03*
X115000000Y-80400000D03*
X115500000Y-80400000D03*
D33*
X108725000Y-78500000D03*
X117775000Y-78500000D03*
%TD*%
D23*
%TO.C,R8*%
X107250000Y-101510000D03*
X107250000Y-100490000D03*
%TD*%
D17*
%TO.C,R6*%
X105010000Y-77250000D03*
X103990000Y-77250000D03*
%TD*%
D34*
%TO.C,R4*%
X117750000Y-96240000D03*
X117750000Y-97260000D03*
%TD*%
D35*
%TO.C,U5*%
X112475000Y-91000000D03*
X112475000Y-91500000D03*
X112475000Y-92000000D03*
X112475000Y-92500000D03*
X112475000Y-93000000D03*
D36*
X111750000Y-93225000D03*
X111250000Y-93225000D03*
X110750000Y-93225000D03*
D35*
X110025000Y-93000000D03*
X110025000Y-92500000D03*
X110025000Y-92000000D03*
X110025000Y-91500000D03*
X110025000Y-91000000D03*
D36*
X110750000Y-90775000D03*
X111250000Y-90775000D03*
X111750000Y-90775000D03*
%TD*%
D37*
%TO.C,Q3*%
X120550000Y-74875000D03*
X122450000Y-74875000D03*
X121500000Y-76750000D03*
%TD*%
D38*
%TO.C,U2*%
X110070000Y-102500000D03*
D39*
X110070000Y-102020000D03*
X110070000Y-101570000D03*
X110070000Y-101120000D03*
X110070000Y-100670000D03*
X110070000Y-100220000D03*
X110070000Y-99770000D03*
X110070000Y-99320000D03*
X110070000Y-98870000D03*
X110070000Y-98420000D03*
X110070000Y-97970000D03*
X110070000Y-97520000D03*
X110070000Y-97070000D03*
X110070000Y-96620000D03*
X110070000Y-96170000D03*
X110070000Y-95720000D03*
D38*
X110070000Y-95250000D03*
D40*
X110550000Y-95250000D03*
X111000000Y-95250000D03*
X111450000Y-95250000D03*
X111900000Y-95250000D03*
X112350000Y-95250000D03*
X112800000Y-95250000D03*
X113250000Y-95250000D03*
X113700000Y-95250000D03*
X114150000Y-95250000D03*
X114600000Y-95250000D03*
X115050000Y-95250000D03*
X115500000Y-95250000D03*
X115950000Y-95250000D03*
D38*
X116420000Y-95250000D03*
D39*
X116420000Y-95720000D03*
X116420000Y-96170000D03*
X116420000Y-96620000D03*
X116420000Y-97070000D03*
X116420000Y-97520000D03*
X116420000Y-97970000D03*
X116420000Y-98420000D03*
X116420000Y-98870000D03*
X116420000Y-99320000D03*
X116420000Y-99770000D03*
X116420000Y-100220000D03*
X116420000Y-100670000D03*
X116420000Y-101120000D03*
X116420000Y-101570000D03*
X116420000Y-102020000D03*
D38*
X116420000Y-102500000D03*
D40*
X115950000Y-102500000D03*
X115500000Y-102500000D03*
X115050000Y-102500000D03*
X114600000Y-102500000D03*
X114150000Y-102500000D03*
X113700000Y-102500000D03*
X113250000Y-102500000D03*
X112800000Y-102500000D03*
X112350000Y-102500000D03*
X111900000Y-102500000D03*
X111450000Y-102500000D03*
X111000000Y-102500000D03*
X110550000Y-102500000D03*
D41*
X111900000Y-101120000D03*
X111900000Y-100220000D03*
X111900000Y-99320000D03*
X111900000Y-98420000D03*
X111900000Y-97520000D03*
X111900000Y-96620000D03*
X112800000Y-96620000D03*
X113700000Y-96620000D03*
X114600000Y-96620000D03*
X114600000Y-97520000D03*
X114600000Y-98420000D03*
X114600000Y-99320000D03*
X114600000Y-100220000D03*
X114600000Y-101120000D03*
X113700000Y-101120000D03*
X112800000Y-101120000D03*
X112800000Y-100220000D03*
X112800000Y-99320000D03*
X112800000Y-98420000D03*
X112800000Y-97520000D03*
X113700000Y-97520000D03*
X113700000Y-98420000D03*
X113700000Y-99320000D03*
X113700000Y-100220000D03*
D42*
X110200000Y-105450000D03*
X116300000Y-105450000D03*
%TD*%
D17*
%TO.C,R12*%
X118760000Y-99500000D03*
X117740000Y-99500000D03*
%TD*%
D22*
%TO.C,C10*%
X103250000Y-92520000D03*
X103250000Y-93480000D03*
%TD*%
D34*
%TO.C,R15*%
X120250000Y-78490000D03*
X120250000Y-79510000D03*
%TD*%
D28*
%TO.C,C13*%
X108750000Y-93980000D03*
X108750000Y-93020000D03*
%TD*%
D29*
%TO.C,SW3*%
X126600000Y-78625000D03*
X126600000Y-73375000D03*
X124900000Y-78625000D03*
X124900000Y-73375000D03*
%TD*%
D37*
%TO.C,Q2*%
X120100000Y-100000000D03*
X122000000Y-100000000D03*
X121050000Y-101875000D03*
%TD*%
D34*
%TO.C,R5*%
X119000000Y-96240000D03*
X119000000Y-97260000D03*
%TD*%
D22*
%TO.C,C8*%
X115250000Y-82020000D03*
X115250000Y-82980000D03*
%TD*%
D43*
%TO.C,C5*%
X105980000Y-70500000D03*
X105020000Y-70500000D03*
%TD*%
D27*
%TO.C,R1*%
X106740000Y-86000000D03*
X107760000Y-86000000D03*
%TD*%
D22*
%TO.C,C6*%
X113750000Y-84020000D03*
X113750000Y-84980000D03*
%TD*%
D44*
%TO.C,J2*%
X127920000Y-69750000D03*
D45*
X125380000Y-69750000D03*
X122840000Y-69750000D03*
X120300000Y-69750000D03*
%TD*%
D21*
%TO.C,C3*%
X117770000Y-101500000D03*
X118730000Y-101500000D03*
%TD*%
D46*
%TO.C,U3*%
X104250000Y-71600000D03*
D47*
X104250000Y-71925000D03*
D46*
X104650000Y-71600000D03*
D47*
X104650000Y-71925000D03*
D46*
X105050000Y-71600000D03*
D47*
X105050000Y-71925000D03*
D46*
X105450000Y-71600000D03*
D47*
X105450000Y-71925000D03*
D46*
X105850000Y-71600000D03*
D47*
X105850000Y-71925000D03*
D46*
X106250000Y-71600000D03*
D47*
X106250000Y-71925000D03*
X106250000Y-75875000D03*
D46*
X106250000Y-76200000D03*
D47*
X105850000Y-75875000D03*
D46*
X105850000Y-76200000D03*
D47*
X105450000Y-75875000D03*
D46*
X105450000Y-76200000D03*
D47*
X105050000Y-75875000D03*
D46*
X105050000Y-76200000D03*
D47*
X104650000Y-75875000D03*
D46*
X104650000Y-76200000D03*
D47*
X104250000Y-75875000D03*
D46*
X104250000Y-76200000D03*
D48*
X106615000Y-72800000D03*
D49*
X106562500Y-72800000D03*
X103937500Y-72800000D03*
D48*
X103885000Y-72800000D03*
D50*
X105250000Y-73900000D03*
X105250000Y-73900000D03*
D48*
X106615000Y-75000000D03*
D49*
X106562500Y-75000000D03*
X103937500Y-75000000D03*
D48*
X103885000Y-75000000D03*
%TD*%
D51*
%TO.C,D1*%
X106300000Y-81000000D03*
X104200000Y-81000000D03*
%TD*%
D52*
%TO.C,Q1*%
X106125000Y-84700000D03*
X106125000Y-82800000D03*
X108000000Y-83750000D03*
%TD*%
D27*
%TO.C,R9*%
X110740000Y-86000000D03*
X111760000Y-86000000D03*
%TD*%
D29*
%TO.C,SW1*%
X99900000Y-73375000D03*
X99900000Y-78625000D03*
X101600000Y-73375000D03*
X101600000Y-78625000D03*
%TD*%
D53*
%TO.C,U6*%
X107137500Y-91800000D03*
X107137500Y-93700000D03*
X104862500Y-92750000D03*
%TD*%
D21*
%TO.C,C2*%
X117770000Y-100500000D03*
X118730000Y-100500000D03*
%TD*%
D29*
%TO.C,SW5*%
X126600000Y-100625000D03*
X126600000Y-95375000D03*
X124900000Y-100625000D03*
X124900000Y-95375000D03*
%TD*%
D27*
%TO.C,R2*%
X106990000Y-90500000D03*
X108010000Y-90500000D03*
%TD*%
D22*
%TO.C,C1*%
X107250000Y-98520000D03*
X107250000Y-99480000D03*
%TD*%
D34*
%TO.C,R14*%
X113750000Y-92740000D03*
X113750000Y-93760000D03*
%TD*%
M02*
