%TF.GenerationSoftware,KiCad,Pcbnew,7.0.1*%
%TF.CreationDate,2024-08-17T13:05:23+01:00*%
%TF.ProjectId,Hardware,48617264-7761-4726-952e-6b696361645f,rev?*%
%TF.SameCoordinates,Original*%
%TF.FileFunction,Copper,L1,Top*%
%TF.FilePolarity,Positive*%
%FSLAX46Y46*%
G04 Gerber Fmt 4.6, Leading zero omitted, Abs format (unit mm)*
G04 Created by KiCad (PCBNEW 7.0.1) date 2024-08-17 13:05:23*
%MOMM*%
%LPD*%
G01*
G04 APERTURE LIST*
%TA.AperFunction,SMDPad,CuDef*%
%ADD10R,2.000000X2.000000*%
%TD*%
%TA.AperFunction,ComponentPad*%
%ADD11C,0.600000*%
%TD*%
%TA.AperFunction,SMDPad,CuDef*%
%ADD12R,1.950000X2.600000*%
%TD*%
%TA.AperFunction,ViaPad*%
%ADD13C,0.500000*%
%TD*%
%TA.AperFunction,Conductor*%
%ADD14C,0.200000*%
%TD*%
G04 APERTURE END LIST*
D10*
%TO.P,J7,1,Pin_1*%
%TO.N,Net-(J7-Pin_1)*%
X123500000Y-104500000D03*
%TD*%
%TO.P,J6,1,Pin_1*%
%TO.N,+3V3*%
X103000000Y-104500000D03*
%TD*%
D11*
%TO.P,U3,13,PAD*%
%TO.N,GND*%
X105750000Y-73000000D03*
X104750000Y-73000000D03*
X105750000Y-73900000D03*
D12*
X105250000Y-73900000D03*
D11*
X104750000Y-73900000D03*
X105750000Y-74800000D03*
X104750000Y-74800000D03*
%TD*%
D13*
%TO.N,+3V3*%
X113750000Y-81250000D03*
X104500000Y-104500000D03*
X110775000Y-90205000D03*
X102200500Y-75750000D03*
%TO.N,GND*%
X110250000Y-86000000D03*
X107250000Y-85250000D03*
X124500000Y-93000000D03*
X127549502Y-100000000D03*
X108500000Y-77000000D03*
X121000000Y-73500000D03*
X123750000Y-100000000D03*
X110250000Y-73750000D03*
X108500000Y-74500000D03*
X100250000Y-94000000D03*
X112750000Y-77000000D03*
X117250000Y-104750000D03*
X116500000Y-77250000D03*
X114250000Y-77500000D03*
X121500000Y-95500000D03*
X107750000Y-76000000D03*
X103000000Y-80750000D03*
X119000000Y-74500000D03*
X110750000Y-71500000D03*
X110750000Y-74750000D03*
X100750000Y-96750000D03*
X119500000Y-104750000D03*
X121250000Y-96500000D03*
X102500000Y-99000000D03*
X127500000Y-80250000D03*
X125750000Y-83000000D03*
X125750000Y-98000000D03*
X100750000Y-71750000D03*
X115500000Y-99750000D03*
X121000000Y-104750000D03*
X113500000Y-83250000D03*
X109000000Y-73250000D03*
X109250000Y-71750000D03*
X126500000Y-94000000D03*
X125750000Y-88250000D03*
X125500000Y-104000000D03*
X107250000Y-81000000D03*
X118000000Y-104750000D03*
X107250000Y-69250000D03*
X113250000Y-70500000D03*
X119500000Y-104000000D03*
X127750000Y-101250000D03*
X104500000Y-70250000D03*
X126000000Y-93250000D03*
X116250000Y-104000000D03*
X126000000Y-77250000D03*
X108500000Y-70250000D03*
X125750000Y-75750000D03*
X127500000Y-94000000D03*
X120250000Y-80750000D03*
X118750000Y-104000000D03*
X105750000Y-91000000D03*
X113250000Y-74000000D03*
X121500000Y-68250000D03*
X108750000Y-82000000D03*
X117750000Y-72500000D03*
X107000000Y-73500000D03*
X111500000Y-78750000D03*
X105250000Y-81000000D03*
X127250000Y-81750000D03*
X125857000Y-72136000D03*
X123000000Y-97000000D03*
X102799500Y-76763556D03*
X115250000Y-70250000D03*
X110250000Y-79500000D03*
X125250000Y-94000000D03*
X117250000Y-95250000D03*
X105500000Y-100750000D03*
X108500000Y-88750000D03*
X128250000Y-81000000D03*
X106500000Y-88000000D03*
X99000000Y-81500000D03*
X127000000Y-83000000D03*
X126750000Y-102500000D03*
X101000000Y-98750000D03*
X116000000Y-79250000D03*
X103500000Y-101250000D03*
X115000000Y-78250000D03*
X107000000Y-74250000D03*
X123250000Y-102500000D03*
X118500000Y-80000000D03*
X121750000Y-74250000D03*
X108000000Y-73750000D03*
X103500000Y-73500000D03*
X121000000Y-105500000D03*
X122000000Y-73250000D03*
X116250000Y-74500000D03*
X125750000Y-80000000D03*
X128250000Y-82250000D03*
X113299500Y-86000000D03*
X114750000Y-74250000D03*
X109250000Y-81500000D03*
X113750000Y-79000000D03*
X105500000Y-95000000D03*
X122000000Y-102250000D03*
X107500000Y-75000000D03*
X121750000Y-103250000D03*
X109750000Y-77000000D03*
X103000000Y-81750000D03*
X123250000Y-101250000D03*
X127381000Y-72136000D03*
X107250000Y-79000000D03*
X115750000Y-75500000D03*
X126000000Y-68250000D03*
X109500000Y-75750000D03*
X109750000Y-74750000D03*
X108500000Y-89500000D03*
X117000000Y-70500000D03*
X112500000Y-78250000D03*
X115750000Y-71750000D03*
X119500000Y-105500000D03*
X109250000Y-102750000D03*
X106500000Y-92750000D03*
X128000000Y-92000000D03*
X117250000Y-105500000D03*
X103000000Y-100750000D03*
X110000000Y-70250000D03*
X97750000Y-80750000D03*
X121285000Y-71501000D03*
X102750000Y-96500000D03*
X110000000Y-72500000D03*
X120250000Y-104000000D03*
X113250000Y-75500000D03*
X119250000Y-73000000D03*
X123250000Y-73000000D03*
X123000000Y-99500000D03*
X125250000Y-97000000D03*
X126750000Y-104000000D03*
X118000000Y-105500000D03*
X121500000Y-81000000D03*
X107500000Y-83000000D03*
X121000000Y-99500000D03*
X121000000Y-100500000D03*
X117750000Y-74000000D03*
X111500000Y-70000000D03*
X124500000Y-98000000D03*
X117500000Y-75500000D03*
X118500000Y-70250000D03*
X123500000Y-74000000D03*
X112000000Y-74250000D03*
X128000000Y-104000000D03*
X124500000Y-68250000D03*
X103250000Y-77500000D03*
X119750500Y-101250000D03*
X119750000Y-102000000D03*
X115750000Y-83750000D03*
X99750000Y-71750000D03*
X117000000Y-100500000D03*
X122500000Y-72250000D03*
X114250000Y-71500000D03*
X97750000Y-93250000D03*
X105750000Y-68750000D03*
X110736444Y-103013556D03*
X105750000Y-93750000D03*
X125750000Y-87000000D03*
X117250000Y-104000000D03*
X108000000Y-79750000D03*
X112500000Y-71750000D03*
X125750000Y-85750000D03*
X123000000Y-77500000D03*
X108250000Y-72500000D03*
X123500000Y-75500000D03*
X111500000Y-73000000D03*
X113250000Y-73000000D03*
X121500000Y-70500000D03*
X111000000Y-101500000D03*
X108500000Y-75500000D03*
X125250000Y-92250000D03*
X115750000Y-73000000D03*
X122500000Y-76500000D03*
X106750000Y-95000000D03*
X107750000Y-92750000D03*
X106250000Y-96000000D03*
X101750000Y-71750000D03*
X127500000Y-68250000D03*
X114750000Y-76000000D03*
X104250000Y-68500000D03*
X118000000Y-104000000D03*
X118500000Y-81000000D03*
X101000000Y-70000000D03*
X99000000Y-92500000D03*
X111500000Y-75500000D03*
X106000000Y-92000000D03*
X127549502Y-95750000D03*
X114750000Y-72500000D03*
X99000000Y-94000000D03*
X106250000Y-101500000D03*
X118750000Y-104750000D03*
X109450500Y-95500000D03*
X113500000Y-82500000D03*
X111750000Y-71000000D03*
X125000000Y-102500000D03*
X117000000Y-80500000D03*
X121500000Y-75500000D03*
X115250000Y-77250000D03*
X125750000Y-91000000D03*
X99000000Y-80000000D03*
X119000000Y-71500000D03*
X101250000Y-80000000D03*
X103250000Y-97250000D03*
X127000000Y-92750000D03*
X120000000Y-97250000D03*
X118750000Y-105500000D03*
X108500000Y-102750000D03*
X110500000Y-77750000D03*
X127500000Y-91000000D03*
X102000000Y-94000000D03*
X107250000Y-76750000D03*
X123000000Y-68250000D03*
X101750000Y-97250000D03*
X123250000Y-81000000D03*
X103500000Y-74250000D03*
X128250000Y-102500000D03*
X120250000Y-104750000D03*
X108000000Y-85250000D03*
X107750000Y-71500000D03*
X111250000Y-77000000D03*
X103000000Y-95000000D03*
X128250000Y-93250000D03*
X101250000Y-68500000D03*
X122250000Y-98000000D03*
X118500000Y-77000000D03*
X121250000Y-72500000D03*
X97750000Y-71750000D03*
X108000000Y-99750000D03*
X101750000Y-99250000D03*
X108750000Y-80500000D03*
X120250000Y-105500000D03*
X111750000Y-92250000D03*
X112450500Y-94000000D03*
%TO.N,VBUS*%
X117750000Y-95749500D03*
X106250000Y-90500000D03*
X114500000Y-84000000D03*
X108500000Y-87500000D03*
%TO.N,/USB_DP*%
X110600500Y-87250000D03*
X120750000Y-95821149D03*
%TO.N,/USB_DN*%
X109527112Y-90250000D03*
X120452819Y-96454383D03*
%TO.N,/LCD_SCLK*%
X110553229Y-81483430D03*
X111750000Y-94500000D03*
%TO.N,/LCD_SDI*%
X111468750Y-95874502D03*
X111250000Y-81545188D03*
%TO.N,/LCD_CS*%
X112001892Y-81500843D03*
X114500000Y-94500000D03*
%TO.N,/LCD_REFRESH*%
X115693955Y-96800500D03*
X112750000Y-81500000D03*
%TO.N,Net-(J1-D--PadA7)*%
X105673389Y-86950500D03*
X105750000Y-88049500D03*
%TO.N,/SWDCLK*%
X124750000Y-70750000D03*
X114332037Y-95870498D03*
%TO.N,/SWDIO*%
X113500000Y-95870498D03*
X123500000Y-70750000D03*
%TO.N,/SW_LIGHT*%
X103875000Y-96625000D03*
X100250000Y-77250000D03*
%TO.N,Net-(J7-Pin_1)*%
X122000000Y-104500000D03*
%TO.N,/AUX_EN*%
X120250000Y-77750000D03*
X125500000Y-81250000D03*
X111903413Y-101925499D03*
X123750000Y-81750000D03*
%TO.N,/FG_SDA*%
X103299500Y-72263479D03*
X108263556Y-98986444D03*
%TO.N,/FG_SCL*%
X103299500Y-71563976D03*
X108000000Y-101000000D03*
X112740743Y-103257805D03*
%TO.N,/IMU_SCL*%
X113750000Y-94500000D03*
X115500000Y-100500000D03*
%TO.N,/FG_INT*%
X103500000Y-76299500D03*
X109299500Y-99750000D03*
%TO.N,/IMU_INT2*%
X107500000Y-97299500D03*
X108500000Y-92250000D03*
%TO.N,/IMU_INT1*%
X108500000Y-91500000D03*
X108273806Y-96496694D03*
%TO.N,Net-(#FLG06-pwr)*%
X106000000Y-83750000D03*
X105250000Y-92000000D03*
%TD*%
D14*
%TO.N,+3V3*%
X110000000Y-80750000D02*
X105000000Y-75750000D01*
X110000000Y-82750000D02*
X110000000Y-80750000D01*
X105000000Y-75750000D02*
X102200500Y-75750000D01*
X104500000Y-104500000D02*
X103000000Y-104500000D01*
X111150000Y-89830000D02*
X111150000Y-83900000D01*
X113250000Y-80750000D02*
X110000000Y-80750000D01*
X111150000Y-83900000D02*
X110000000Y-82750000D01*
X113750000Y-81250000D02*
X113250000Y-80750000D01*
X110775000Y-90205000D02*
X111150000Y-89830000D01*
%TO.N,VBUS*%
X118434815Y-95749500D02*
X119734315Y-94450000D01*
X123850000Y-85600000D02*
X121250000Y-83000000D01*
X123850000Y-90768628D02*
X123850000Y-85600000D01*
X106250000Y-90500000D02*
X106250000Y-89750000D01*
X121250000Y-83000000D02*
X115500000Y-83000000D01*
X120418628Y-94450000D02*
X123450000Y-91418628D01*
X123450000Y-91418628D02*
X123450000Y-91168628D01*
X119734315Y-94450000D02*
X120418628Y-94450000D01*
X115500000Y-83000000D02*
X114500000Y-84000000D01*
X106250000Y-89750000D02*
X108500000Y-87500000D01*
X123450000Y-91168628D02*
X123850000Y-90768628D01*
X117750000Y-95749500D02*
X118434815Y-95749500D01*
%TO.N,/USB_DP*%
X118750000Y-99500000D02*
X116000000Y-102250000D01*
X110800000Y-91169336D02*
X110077112Y-90446446D01*
X118750000Y-97131372D02*
X118750000Y-99500000D01*
X110800000Y-99550000D02*
X110800000Y-91169336D01*
X110077112Y-90446446D02*
X110077112Y-87773388D01*
X113500000Y-102250000D02*
X110800000Y-99550000D01*
X120750000Y-95821149D02*
X120060223Y-95821149D01*
X116000000Y-102250000D02*
X113500000Y-102250000D01*
X120060223Y-95821149D02*
X118750000Y-97131372D01*
X110077112Y-87773388D02*
X110600500Y-87250000D01*
%TO.N,/USB_DN*%
X116215686Y-102600000D02*
X113284314Y-102600000D01*
X119150000Y-99665686D02*
X116215686Y-102600000D01*
X110400000Y-99715686D02*
X110400000Y-91335021D01*
X119150000Y-97297058D02*
X119150000Y-99665686D01*
X113284314Y-102600000D02*
X110400000Y-99715686D01*
X109527112Y-90462132D02*
X109527112Y-90250000D01*
X110400000Y-91335021D02*
X109527112Y-90462132D01*
X119992675Y-96454383D02*
X119150000Y-97297058D01*
X120452819Y-96454383D02*
X119992675Y-96454383D01*
%TO.N,/LCD_SCLK*%
X110553229Y-82368915D02*
X110553229Y-81483430D01*
X111750000Y-94500000D02*
X111200000Y-93950000D01*
X111550000Y-83365686D02*
X110553229Y-82368915D01*
X111200000Y-93950000D02*
X111200000Y-90600000D01*
X111550000Y-90250000D02*
X111550000Y-83365686D01*
X111200000Y-90600000D02*
X111550000Y-90250000D01*
%TO.N,/LCD_SDI*%
X111950000Y-83200000D02*
X111250000Y-82500000D01*
X113000000Y-92631372D02*
X111950000Y-91581372D01*
X111250000Y-82500000D02*
X111250000Y-81545188D01*
X111875498Y-95874502D02*
X113000000Y-94750000D01*
X111950000Y-91581372D02*
X111950000Y-83200000D01*
X111468750Y-95874502D02*
X111875498Y-95874502D01*
X113000000Y-94750000D02*
X113000000Y-92631372D01*
%TO.N,/LCD_CS*%
X112001892Y-82120520D02*
X112001892Y-81500843D01*
X114500000Y-94500000D02*
X114500000Y-93565686D01*
X114500000Y-93565686D02*
X112350000Y-91415686D01*
X112350000Y-91415686D02*
X112350000Y-82468628D01*
X112350000Y-82468628D02*
X112001892Y-82120520D01*
%TO.N,/LCD_REFRESH*%
X115050000Y-94984314D02*
X115050000Y-93550000D01*
X112750000Y-91250000D02*
X112750000Y-82750000D01*
X115693955Y-95628269D02*
X115050000Y-94984314D01*
X112750000Y-81500000D02*
X112750000Y-82850002D01*
X115050000Y-93550000D02*
X112750000Y-91250000D01*
X115693955Y-96800500D02*
X115693955Y-95628269D01*
%TO.N,Net-(J1-D--PadA7)*%
X105750000Y-88049500D02*
X105673389Y-87972889D01*
X105673389Y-87972889D02*
X105673389Y-86950500D01*
%TO.N,/SWDCLK*%
X120750000Y-95250000D02*
X120065686Y-95250000D01*
X120065686Y-95250000D02*
X117565686Y-97750000D01*
X124750000Y-91250000D02*
X120750000Y-95250000D01*
X115184314Y-97750000D02*
X114332037Y-96897723D01*
X117565686Y-97750000D02*
X115184314Y-97750000D01*
X114332037Y-96897723D02*
X114332037Y-95870498D01*
X124750000Y-70750000D02*
X124750000Y-91250000D01*
%TO.N,/SWDIO*%
X123500000Y-70750000D02*
X124250000Y-71500000D01*
X114750000Y-95250000D02*
X114000000Y-95250000D01*
X115000000Y-97000000D02*
X115000000Y-95500000D01*
X115350000Y-97350000D02*
X115000000Y-97000000D01*
X113500000Y-95750000D02*
X113500000Y-95870498D01*
X120584314Y-94850000D02*
X119900000Y-94850000D01*
X117400000Y-97350000D02*
X115350000Y-97350000D01*
X114000000Y-95250000D02*
X113500000Y-95750000D01*
X115000000Y-95500000D02*
X114750000Y-95250000D01*
X119900000Y-94850000D02*
X117400000Y-97350000D01*
X124250000Y-71500000D02*
X124250000Y-91184314D01*
X124250000Y-91184314D02*
X120584314Y-94850000D01*
%TO.N,/SW_LIGHT*%
X103750000Y-80250000D02*
X103750000Y-96500000D01*
X103750000Y-96500000D02*
X103875000Y-96625000D01*
X100250000Y-77250000D02*
X100750000Y-77250000D01*
X100750000Y-77250000D02*
X103750000Y-80250000D01*
%TO.N,Net-(J7-Pin_1)*%
X122000000Y-104500000D02*
X123500000Y-104500000D01*
%TO.N,/AUX_EN*%
X116360660Y-102950000D02*
X120560660Y-98750000D01*
X123900000Y-81600000D02*
X123750000Y-81750000D01*
X123900000Y-80150000D02*
X123900000Y-81600000D01*
X112114839Y-101925499D02*
X113139340Y-102950000D01*
X123250000Y-98750000D02*
X123750000Y-98250000D01*
X125100000Y-81650000D02*
X125500000Y-81250000D01*
X120560660Y-98750000D02*
X123250000Y-98750000D01*
X123750000Y-92750000D02*
X125100000Y-91400000D01*
X123750000Y-98250000D02*
X123750000Y-92750000D01*
X120250000Y-77750000D02*
X121500000Y-77750000D01*
X113139340Y-102950000D02*
X116360660Y-102950000D01*
X121500000Y-77750000D02*
X123900000Y-80150000D01*
X111903413Y-101925499D02*
X112114839Y-101925499D01*
X125100000Y-91400000D02*
X125100000Y-81650000D01*
%TO.N,/FG_SDA*%
X108263556Y-98986444D02*
X106552130Y-98986444D01*
X106552130Y-98986444D02*
X104900000Y-97334314D01*
X104550000Y-95484314D02*
X104550000Y-79734314D01*
X104900000Y-95834314D02*
X104550000Y-95484314D01*
X104900000Y-97334314D02*
X104900000Y-95834314D01*
X104550000Y-79734314D02*
X101000000Y-76184314D01*
X101000000Y-76184314D02*
X101000000Y-74562979D01*
X101000000Y-74562979D02*
X103299500Y-72263479D01*
%TO.N,/FG_SCL*%
X104150000Y-95650000D02*
X104150000Y-79900000D01*
X112740743Y-103257805D02*
X111757805Y-103257805D01*
X103221185Y-71563976D02*
X103299500Y-71563976D01*
X111757805Y-103257805D02*
X109500000Y-101000000D01*
X100500000Y-76250000D02*
X100500000Y-74285161D01*
X104150000Y-79900000D02*
X100500000Y-76250000D01*
X104500000Y-97500000D02*
X104500000Y-96000000D01*
X109500000Y-101000000D02*
X108000000Y-101000000D01*
X100500000Y-74285161D02*
X103221185Y-71563976D01*
X108000000Y-101000000D02*
X104500000Y-97500000D01*
X104500000Y-96000000D02*
X104150000Y-95650000D01*
%TO.N,/IMU_SCL*%
X112845342Y-95595343D02*
X113750000Y-94690685D01*
X115292893Y-100500000D02*
X112845342Y-98052449D01*
X113750000Y-94690685D02*
X113750000Y-94500000D01*
X112845342Y-98052449D02*
X112845342Y-95595343D01*
X115500000Y-100500000D02*
X115292893Y-100500000D01*
%TO.N,/FG_INT*%
X103940686Y-76740186D02*
X103500000Y-76299500D01*
X110000000Y-91500706D02*
X108977112Y-90477818D01*
X109299500Y-99750000D02*
X109299500Y-99700500D01*
X109299500Y-99700500D02*
X110000000Y-99000000D01*
X110000000Y-99000000D02*
X110000000Y-91500706D01*
X109250000Y-89500000D02*
X109250000Y-83868628D01*
X103940686Y-78559314D02*
X103940686Y-76740186D01*
X109250000Y-83868628D02*
X103940686Y-78559314D01*
X108977112Y-90477818D02*
X108977112Y-89772888D01*
X108977112Y-89772888D02*
X109250000Y-89500000D01*
%TO.N,/IMU_INT2*%
X108500000Y-94500000D02*
X108500000Y-92250000D01*
X107500000Y-97299500D02*
X107500000Y-95500000D01*
X107500000Y-95500000D02*
X108500000Y-94500000D01*
%TO.N,/IMU_INT1*%
X108273806Y-96496694D02*
X108273806Y-95291880D01*
X108750353Y-91500000D02*
X108500000Y-91500000D01*
X109250000Y-94315686D02*
X109250000Y-91999647D01*
X108273806Y-95291880D02*
X109250000Y-94315686D01*
X109250000Y-91999647D02*
X108750353Y-91500000D01*
%TO.N,Net-(#FLG06-pwr)*%
X105000000Y-84750000D02*
X106000000Y-83750000D01*
X105250000Y-92000000D02*
X105000000Y-91750000D01*
X105000000Y-91750000D02*
X105000000Y-84750000D01*
%TD*%
%TA.AperFunction,Conductor*%
%TO.N,GND*%
G36*
X106495883Y-68009939D02*
G01*
X106536111Y-68036819D01*
X107982196Y-69482903D01*
X107982430Y-69483252D01*
X107999616Y-69500381D01*
X107999617Y-69500383D01*
X107999901Y-69500500D01*
X108000000Y-69500541D01*
X108024554Y-69500541D01*
X108024760Y-69500500D01*
X118975145Y-69500500D01*
X118975334Y-69500538D01*
X118999999Y-69500541D01*
X119000000Y-69500542D01*
X119000000Y-69500541D01*
X119000002Y-69500542D01*
X119000980Y-69500141D01*
X119002654Y-69499464D01*
X119008831Y-69491934D01*
X119018147Y-69482618D01*
X119018260Y-69482446D01*
X120463887Y-68036819D01*
X120504116Y-68009939D01*
X120551569Y-68000500D01*
X128244587Y-68000500D01*
X128255392Y-68000972D01*
X128267433Y-68002025D01*
X128294880Y-68004426D01*
X128295961Y-68004526D01*
X128421776Y-68016918D01*
X128441685Y-68020541D01*
X128506467Y-68037899D01*
X128510203Y-68038966D01*
X128601570Y-68066682D01*
X128617959Y-68072952D01*
X128683867Y-68103686D01*
X128689867Y-68106685D01*
X128732639Y-68129548D01*
X128769046Y-68149008D01*
X128781715Y-68156791D01*
X128842889Y-68199625D01*
X128850430Y-68205346D01*
X128918455Y-68261172D01*
X128927472Y-68269345D01*
X128980653Y-68322526D01*
X128988826Y-68331543D01*
X129044652Y-68399568D01*
X129050373Y-68407109D01*
X129093207Y-68468283D01*
X129100990Y-68480952D01*
X129143304Y-68560114D01*
X129146328Y-68566163D01*
X129177041Y-68632027D01*
X129183319Y-68648436D01*
X129211008Y-68739713D01*
X129212123Y-68743616D01*
X129229454Y-68808298D01*
X129233082Y-68828238D01*
X129245456Y-68953882D01*
X129245581Y-68955223D01*
X129249028Y-68994604D01*
X129249500Y-69005416D01*
X129249500Y-71875500D01*
X129232887Y-71937500D01*
X129187500Y-71982887D01*
X129125500Y-71999500D01*
X128024760Y-71999500D01*
X128024554Y-71999459D01*
X127999998Y-71999459D01*
X127999807Y-71999538D01*
X127999619Y-71999615D01*
X127999615Y-71999618D01*
X127999459Y-71999999D01*
X127999476Y-72024616D01*
X127999471Y-72024616D01*
X127999500Y-72024760D01*
X127999500Y-79975240D01*
X127999459Y-79975446D01*
X127999459Y-80000000D01*
X127999500Y-80000099D01*
X127999617Y-80000383D01*
X127999618Y-80000384D01*
X127999808Y-80000461D01*
X128000000Y-80000541D01*
X128000002Y-80000539D01*
X128024616Y-80000524D01*
X128024616Y-80000528D01*
X128024760Y-80000500D01*
X129125500Y-80000500D01*
X129187500Y-80017113D01*
X129232887Y-80062500D01*
X129249500Y-80124500D01*
X129249500Y-82875500D01*
X129232887Y-82937500D01*
X129187500Y-82982887D01*
X129125500Y-82999500D01*
X128024760Y-82999500D01*
X128024554Y-82999459D01*
X127999998Y-82999459D01*
X127999807Y-82999538D01*
X127999619Y-82999615D01*
X127999615Y-82999618D01*
X127999459Y-82999999D01*
X127999476Y-83024616D01*
X127999471Y-83024616D01*
X127999500Y-83024760D01*
X127999500Y-90975240D01*
X127999459Y-90975446D01*
X127999459Y-91000000D01*
X127999500Y-91000099D01*
X127999617Y-91000383D01*
X127999618Y-91000384D01*
X127999808Y-91000461D01*
X128000000Y-91000541D01*
X128000002Y-91000539D01*
X128024616Y-91000524D01*
X128024616Y-91000528D01*
X128024760Y-91000500D01*
X129125500Y-91000500D01*
X129187500Y-91017113D01*
X129232887Y-91062500D01*
X129249500Y-91124500D01*
X129249500Y-93875500D01*
X129232887Y-93937500D01*
X129187500Y-93982887D01*
X129125500Y-93999500D01*
X128024760Y-93999500D01*
X128024554Y-93999459D01*
X127999998Y-93999459D01*
X127999807Y-93999538D01*
X127999619Y-93999615D01*
X127999615Y-93999618D01*
X127999459Y-93999999D01*
X127999476Y-94024616D01*
X127999471Y-94024616D01*
X127999500Y-94024760D01*
X127999500Y-101975240D01*
X127999459Y-101975446D01*
X127999459Y-102000000D01*
X127999500Y-102000099D01*
X127999616Y-102000382D01*
X127999617Y-102000383D01*
X127999618Y-102000384D01*
X127999808Y-102000462D01*
X128000000Y-102000541D01*
X128000002Y-102000539D01*
X128024616Y-102000524D01*
X128024616Y-102000528D01*
X128024760Y-102000500D01*
X129125500Y-102000500D01*
X129187500Y-102017113D01*
X129232887Y-102062500D01*
X129249500Y-102124500D01*
X129249500Y-104994584D01*
X129249028Y-105005397D01*
X129245581Y-105044776D01*
X129245456Y-105046116D01*
X129233082Y-105171760D01*
X129229454Y-105191700D01*
X129212123Y-105256382D01*
X129211008Y-105260285D01*
X129183319Y-105351562D01*
X129177041Y-105367971D01*
X129146328Y-105433835D01*
X129143304Y-105439884D01*
X129100990Y-105519046D01*
X129093207Y-105531715D01*
X129050373Y-105592889D01*
X129044652Y-105600430D01*
X128988826Y-105668455D01*
X128980653Y-105677472D01*
X128927472Y-105730653D01*
X128918455Y-105738826D01*
X128850430Y-105794652D01*
X128842889Y-105800373D01*
X128781715Y-105843207D01*
X128769046Y-105850990D01*
X128689884Y-105893304D01*
X128683835Y-105896328D01*
X128617971Y-105927041D01*
X128601562Y-105933319D01*
X128510285Y-105961008D01*
X128506382Y-105962123D01*
X128441700Y-105979454D01*
X128421760Y-105983082D01*
X128296116Y-105995456D01*
X128294776Y-105995581D01*
X128259760Y-105998646D01*
X128255392Y-105999028D01*
X128244584Y-105999500D01*
X115624000Y-105999500D01*
X115562000Y-105982887D01*
X115516613Y-105937500D01*
X115500000Y-105875500D01*
X115500000Y-104499999D01*
X121494353Y-104499999D01*
X121514834Y-104642457D01*
X121574623Y-104773374D01*
X121668870Y-104882141D01*
X121668872Y-104882143D01*
X121789947Y-104959953D01*
X121928039Y-105000500D01*
X122071959Y-105000500D01*
X122071961Y-105000500D01*
X122090567Y-104995036D01*
X122147516Y-104991984D01*
X122199810Y-105014747D01*
X122236384Y-105058509D01*
X122249500Y-105114014D01*
X122249500Y-105524675D01*
X122264033Y-105597738D01*
X122264033Y-105597739D01*
X122264034Y-105597740D01*
X122319399Y-105680601D01*
X122402260Y-105735966D01*
X122438793Y-105743233D01*
X122475325Y-105750500D01*
X122475326Y-105750500D01*
X124524674Y-105750500D01*
X124524675Y-105750500D01*
X124549029Y-105745655D01*
X124597740Y-105735966D01*
X124680601Y-105680601D01*
X124735966Y-105597740D01*
X124745655Y-105549029D01*
X124750500Y-105524675D01*
X124750500Y-103475325D01*
X124735966Y-103402261D01*
X124735966Y-103402260D01*
X124680601Y-103319399D01*
X124597740Y-103264034D01*
X124597739Y-103264033D01*
X124597738Y-103264033D01*
X124524675Y-103249500D01*
X124524674Y-103249500D01*
X122475326Y-103249500D01*
X122475325Y-103249500D01*
X122402261Y-103264033D01*
X122319399Y-103319399D01*
X122264033Y-103402261D01*
X122249500Y-103475325D01*
X122249500Y-103885986D01*
X122236384Y-103941491D01*
X122199810Y-103985253D01*
X122147516Y-104008016D01*
X122090567Y-104004963D01*
X122071961Y-103999500D01*
X121928039Y-103999500D01*
X121789947Y-104040047D01*
X121668870Y-104117858D01*
X121574623Y-104226625D01*
X121514834Y-104357542D01*
X121494353Y-104499999D01*
X115500000Y-104499999D01*
X115500000Y-103492304D01*
X115481931Y-103462818D01*
X115477389Y-103405102D01*
X115499544Y-103351615D01*
X115543567Y-103314015D01*
X115599862Y-103300500D01*
X116311448Y-103300500D01*
X116336894Y-103303139D01*
X116338216Y-103303416D01*
X116345975Y-103305043D01*
X116372024Y-103301795D01*
X116374783Y-103301452D01*
X116389455Y-103300541D01*
X116408673Y-103297334D01*
X116413729Y-103296596D01*
X116462053Y-103290573D01*
X116462054Y-103290572D01*
X116469468Y-103289648D01*
X116476038Y-103286092D01*
X116476041Y-103286092D01*
X116518861Y-103262918D01*
X116523407Y-103260577D01*
X116567144Y-103239198D01*
X116567146Y-103239195D01*
X116573855Y-103235916D01*
X116578914Y-103230419D01*
X116578918Y-103230418D01*
X116611914Y-103194572D01*
X116615416Y-103190924D01*
X120669522Y-99136819D01*
X120709751Y-99109939D01*
X120757204Y-99100500D01*
X123200788Y-99100500D01*
X123226234Y-99103139D01*
X123227556Y-99103416D01*
X123235315Y-99105043D01*
X123261364Y-99101795D01*
X123264123Y-99101452D01*
X123278795Y-99100541D01*
X123298013Y-99097334D01*
X123303069Y-99096596D01*
X123351393Y-99090573D01*
X123351394Y-99090572D01*
X123358808Y-99089648D01*
X123365378Y-99086092D01*
X123365381Y-99086092D01*
X123408201Y-99062918D01*
X123412747Y-99060577D01*
X123456484Y-99039198D01*
X123456484Y-99039197D01*
X123463197Y-99035916D01*
X123501231Y-98994598D01*
X123504758Y-98990921D01*
X123963043Y-98532636D01*
X123982895Y-98516515D01*
X123990669Y-98511437D01*
X124008500Y-98488526D01*
X124018227Y-98477513D01*
X124029550Y-98461653D01*
X124032604Y-98457555D01*
X124062517Y-98419126D01*
X124062517Y-98419123D01*
X124067108Y-98413226D01*
X124070252Y-98402668D01*
X124083129Y-98359412D01*
X124084679Y-98354569D01*
X124100500Y-98308488D01*
X124100500Y-98308484D01*
X124102925Y-98301420D01*
X124102616Y-98293955D01*
X124102617Y-98293954D01*
X124100606Y-98245321D01*
X124100500Y-98240198D01*
X124100500Y-92946544D01*
X124109939Y-92899091D01*
X124136819Y-92858863D01*
X124420848Y-92574834D01*
X125313046Y-91682634D01*
X125332903Y-91666510D01*
X125340669Y-91661437D01*
X125358496Y-91638531D01*
X125368232Y-91627507D01*
X125368375Y-91627307D01*
X125379559Y-91611640D01*
X125382607Y-91607552D01*
X125412517Y-91569126D01*
X125412517Y-91569125D01*
X125417105Y-91563231D01*
X125419237Y-91556068D01*
X125419239Y-91556066D01*
X125433142Y-91509363D01*
X125434674Y-91504581D01*
X125450500Y-91458488D01*
X125450500Y-91458486D01*
X125452925Y-91451423D01*
X125452616Y-91443956D01*
X125452617Y-91443954D01*
X125450605Y-91395331D01*
X125450500Y-91390208D01*
X125450500Y-81874500D01*
X125467113Y-81812500D01*
X125512500Y-81767113D01*
X125554919Y-81755746D01*
X125554854Y-81755523D01*
X125571960Y-81750500D01*
X125571961Y-81750500D01*
X125710053Y-81709953D01*
X125831128Y-81632143D01*
X125925377Y-81523373D01*
X125985165Y-81392457D01*
X126005647Y-81250000D01*
X125985165Y-81107543D01*
X125925377Y-80976627D01*
X125925376Y-80976626D01*
X125925376Y-80976625D01*
X125831129Y-80867858D01*
X125831128Y-80867857D01*
X125710053Y-80790047D01*
X125571961Y-80749500D01*
X125428039Y-80749500D01*
X125289947Y-80790047D01*
X125289946Y-80790047D01*
X125272841Y-80795070D01*
X125272789Y-80794894D01*
X125228923Y-80808629D01*
X125165072Y-80793539D01*
X125117858Y-80747981D01*
X125100500Y-80684708D01*
X125100500Y-71156036D01*
X125108318Y-71112703D01*
X125130787Y-71074834D01*
X125175376Y-71023374D01*
X125175375Y-71023374D01*
X125175377Y-71023373D01*
X125235165Y-70892457D01*
X125255647Y-70750000D01*
X125235165Y-70607543D01*
X125175377Y-70476627D01*
X125175376Y-70476626D01*
X125175376Y-70476625D01*
X125081129Y-70367858D01*
X125081128Y-70367857D01*
X124960053Y-70290047D01*
X124821961Y-70249500D01*
X124678039Y-70249500D01*
X124539947Y-70290047D01*
X124418870Y-70367858D01*
X124324623Y-70476625D01*
X124264834Y-70607542D01*
X124248348Y-70722213D01*
X124220758Y-70784083D01*
X124164769Y-70822220D01*
X124097093Y-70825242D01*
X124037929Y-70792247D01*
X124036504Y-70790822D01*
X124013301Y-70758645D01*
X124001447Y-70720788D01*
X123985165Y-70607542D01*
X123925376Y-70476625D01*
X123831129Y-70367858D01*
X123831128Y-70367857D01*
X123710053Y-70290047D01*
X123571961Y-70249500D01*
X123428039Y-70249500D01*
X123289947Y-70290047D01*
X123168870Y-70367858D01*
X123074623Y-70476625D01*
X123014834Y-70607542D01*
X122994353Y-70750000D01*
X123014834Y-70892457D01*
X123074623Y-71023374D01*
X123152027Y-71112703D01*
X123168872Y-71132143D01*
X123289947Y-71209953D01*
X123428039Y-71250500D01*
X123453456Y-71250500D01*
X123500909Y-71259939D01*
X123541137Y-71286819D01*
X123863181Y-71608863D01*
X123890061Y-71649091D01*
X123899500Y-71696544D01*
X123899500Y-79354456D01*
X123885985Y-79410751D01*
X123848385Y-79454774D01*
X123794898Y-79476929D01*
X123737182Y-79472387D01*
X123687819Y-79442137D01*
X121782638Y-77536956D01*
X121766509Y-77517094D01*
X121761437Y-77509330D01*
X121738533Y-77491504D01*
X121727508Y-77481768D01*
X121711653Y-77470448D01*
X121707544Y-77467384D01*
X121663229Y-77432892D01*
X121609409Y-77416869D01*
X121604531Y-77415306D01*
X121551421Y-77397074D01*
X121495332Y-77399394D01*
X121490208Y-77399500D01*
X120665176Y-77399500D01*
X120613660Y-77388293D01*
X120597137Y-77375923D01*
X120596127Y-77377496D01*
X120558020Y-77353007D01*
X120460053Y-77290047D01*
X120321961Y-77249500D01*
X120178039Y-77249500D01*
X120039947Y-77290047D01*
X119918870Y-77367858D01*
X119824623Y-77476625D01*
X119764834Y-77607542D01*
X119744353Y-77750000D01*
X119764834Y-77892457D01*
X119824623Y-78023374D01*
X119899632Y-78109939D01*
X119918872Y-78132143D01*
X120039947Y-78209953D01*
X120178039Y-78250500D01*
X120321961Y-78250500D01*
X120460053Y-78209953D01*
X120581128Y-78132143D01*
X120581127Y-78132143D01*
X120596127Y-78122504D01*
X120597137Y-78124076D01*
X120613660Y-78111707D01*
X120665176Y-78100500D01*
X121303456Y-78100500D01*
X121350909Y-78109939D01*
X121391137Y-78136819D01*
X123513181Y-80258863D01*
X123540061Y-80299091D01*
X123549500Y-80346544D01*
X123549500Y-81216198D01*
X123534332Y-81275625D01*
X123492539Y-81320514D01*
X123418870Y-81367857D01*
X123324623Y-81476625D01*
X123264834Y-81607542D01*
X123244353Y-81750000D01*
X123264834Y-81892457D01*
X123324623Y-82023374D01*
X123396076Y-82105835D01*
X123418872Y-82132143D01*
X123539947Y-82209953D01*
X123678039Y-82250500D01*
X123775500Y-82250500D01*
X123837500Y-82267113D01*
X123882887Y-82312500D01*
X123899500Y-82374500D01*
X123899500Y-84854456D01*
X123885985Y-84910751D01*
X123848385Y-84954774D01*
X123794898Y-84976929D01*
X123737182Y-84972387D01*
X123687819Y-84942137D01*
X121532638Y-82786956D01*
X121516509Y-82767094D01*
X121511437Y-82759330D01*
X121488533Y-82741504D01*
X121477508Y-82731768D01*
X121461653Y-82720448D01*
X121457544Y-82717384D01*
X121413229Y-82682892D01*
X121359409Y-82666869D01*
X121354531Y-82665306D01*
X121301421Y-82647074D01*
X121245332Y-82649394D01*
X121240208Y-82649500D01*
X115549213Y-82649500D01*
X115523767Y-82646861D01*
X115514686Y-82644957D01*
X115485878Y-82648548D01*
X115471205Y-82649458D01*
X115451995Y-82652664D01*
X115446929Y-82653402D01*
X115391192Y-82660351D01*
X115341804Y-82687077D01*
X115337252Y-82689420D01*
X115286802Y-82714084D01*
X115248770Y-82755398D01*
X115245222Y-82759095D01*
X114541137Y-83463181D01*
X114500909Y-83490061D01*
X114453456Y-83499500D01*
X114428039Y-83499500D01*
X114289947Y-83540047D01*
X114168870Y-83617858D01*
X114074623Y-83726625D01*
X114014834Y-83857542D01*
X113994353Y-84000000D01*
X114014834Y-84142457D01*
X114074623Y-84273374D01*
X114144328Y-84353818D01*
X114168872Y-84382143D01*
X114289947Y-84459953D01*
X114428039Y-84500500D01*
X114571961Y-84500500D01*
X114710053Y-84459953D01*
X114831128Y-84382143D01*
X114925377Y-84273373D01*
X114985165Y-84142457D01*
X115001447Y-84029206D01*
X115013300Y-83991354D01*
X115036500Y-83959180D01*
X115608862Y-83386819D01*
X115649091Y-83359939D01*
X115696544Y-83350500D01*
X117214836Y-83350500D01*
X117272891Y-83364930D01*
X117317435Y-83404861D01*
X117338099Y-83461000D01*
X117330075Y-83520282D01*
X117295230Y-83568907D01*
X117241675Y-83595561D01*
X116889774Y-83673575D01*
X116452509Y-83811444D01*
X116028925Y-83986899D01*
X115622254Y-84198599D01*
X115622250Y-84198601D01*
X115622249Y-84198602D01*
X115525969Y-84259939D01*
X115235564Y-84444947D01*
X114871824Y-84724054D01*
X114533798Y-85033798D01*
X114224054Y-85371824D01*
X113944947Y-85735564D01*
X113698599Y-86122254D01*
X113486899Y-86528925D01*
X113339061Y-86885839D01*
X113297385Y-86938704D01*
X113234229Y-86962004D01*
X113168205Y-86948871D01*
X113118773Y-86903176D01*
X113100500Y-86838386D01*
X113100500Y-81906036D01*
X113108318Y-81862703D01*
X113130787Y-81824834D01*
X113175375Y-81773376D01*
X113175375Y-81773374D01*
X113175377Y-81773373D01*
X113221502Y-81672374D01*
X113259982Y-81624623D01*
X113316644Y-81601152D01*
X113377623Y-81607705D01*
X113402351Y-81624872D01*
X113403873Y-81622504D01*
X113418872Y-81632143D01*
X113539947Y-81709953D01*
X113678039Y-81750500D01*
X113821961Y-81750500D01*
X113960053Y-81709953D01*
X114081128Y-81632143D01*
X114175377Y-81523373D01*
X114235165Y-81392457D01*
X114255647Y-81250000D01*
X114235165Y-81107543D01*
X114175377Y-80976627D01*
X114175376Y-80976626D01*
X114175376Y-80976625D01*
X114081129Y-80867858D01*
X114081128Y-80867857D01*
X113960053Y-80790047D01*
X113821961Y-80749500D01*
X113796544Y-80749500D01*
X113749091Y-80740061D01*
X113708863Y-80713181D01*
X113532638Y-80536956D01*
X113516509Y-80517094D01*
X113511437Y-80509330D01*
X113488533Y-80491504D01*
X113477508Y-80481768D01*
X113461653Y-80470448D01*
X113457544Y-80467384D01*
X113413229Y-80432892D01*
X113359409Y-80416869D01*
X113354531Y-80415306D01*
X113301421Y-80397074D01*
X113245332Y-80399394D01*
X113240208Y-80399500D01*
X110196544Y-80399500D01*
X110149091Y-80390061D01*
X110108863Y-80363181D01*
X105407363Y-75661681D01*
X105377113Y-75612318D01*
X105372571Y-75554602D01*
X105394726Y-75501115D01*
X105438749Y-75463515D01*
X105495044Y-75450000D01*
X106249625Y-75450000D01*
X106322543Y-75435495D01*
X106405239Y-75380239D01*
X106460495Y-75297543D01*
X106475000Y-75224625D01*
X106475000Y-74025000D01*
X104025000Y-74025000D01*
X104025000Y-75224623D01*
X104030308Y-75251307D01*
X104028975Y-75305629D01*
X104004545Y-75354164D01*
X103961708Y-75387595D01*
X103908691Y-75399500D01*
X102615676Y-75399500D01*
X102564160Y-75388293D01*
X102547637Y-75375923D01*
X102546627Y-75377496D01*
X102508520Y-75353007D01*
X102410553Y-75290047D01*
X102272461Y-75249500D01*
X102128539Y-75249500D01*
X101990447Y-75290047D01*
X101869370Y-75367858D01*
X101775123Y-75476625D01*
X101715334Y-75607542D01*
X101694853Y-75750000D01*
X101715334Y-75892457D01*
X101775123Y-76023374D01*
X101859010Y-76120185D01*
X101869372Y-76132143D01*
X101990447Y-76209953D01*
X102128539Y-76250500D01*
X102272461Y-76250500D01*
X102410553Y-76209953D01*
X102531628Y-76132143D01*
X102531627Y-76132143D01*
X102546627Y-76122504D01*
X102547637Y-76124076D01*
X102564160Y-76111707D01*
X102615676Y-76100500D01*
X102879861Y-76100500D01*
X102946900Y-76120184D01*
X102992655Y-76172988D01*
X103002599Y-76242146D01*
X102997330Y-76278795D01*
X102994353Y-76299500D01*
X102995596Y-76308145D01*
X103014834Y-76441957D01*
X103074623Y-76572874D01*
X103168870Y-76681641D01*
X103168872Y-76681643D01*
X103289947Y-76759453D01*
X103428039Y-76800000D01*
X103453456Y-76800000D01*
X103500909Y-76809439D01*
X103541137Y-76836319D01*
X103553867Y-76849049D01*
X103580747Y-76889277D01*
X103590186Y-76936730D01*
X103590186Y-77979456D01*
X103576671Y-78035751D01*
X103539071Y-78079774D01*
X103485584Y-78101929D01*
X103427868Y-78097387D01*
X103378505Y-78067137D01*
X101386819Y-76075451D01*
X101359939Y-76035223D01*
X101350500Y-75987770D01*
X101350500Y-74759523D01*
X101359939Y-74712070D01*
X101386819Y-74671842D01*
X102283661Y-73775000D01*
X104025000Y-73775000D01*
X105125000Y-73775000D01*
X105125000Y-72350000D01*
X105375000Y-72350000D01*
X105375000Y-73775000D01*
X106475000Y-73775000D01*
X106475000Y-72575375D01*
X106460495Y-72502456D01*
X106405239Y-72419760D01*
X106322543Y-72364504D01*
X106249625Y-72350000D01*
X105375000Y-72350000D01*
X105125000Y-72350000D01*
X104250375Y-72350000D01*
X104177456Y-72364504D01*
X104094760Y-72419760D01*
X104039504Y-72502456D01*
X104025000Y-72575375D01*
X104025000Y-73775000D01*
X102283661Y-73775000D01*
X103258363Y-72800298D01*
X103298591Y-72773418D01*
X103346044Y-72763979D01*
X103371461Y-72763979D01*
X103509553Y-72723432D01*
X103630628Y-72645622D01*
X103724877Y-72536852D01*
X103784665Y-72405936D01*
X103805147Y-72263479D01*
X103784665Y-72121022D01*
X103740637Y-72024616D01*
X103717471Y-71973889D01*
X103718069Y-71973615D01*
X103702265Y-71942958D01*
X103702266Y-71884489D01*
X103718068Y-71853838D01*
X103717471Y-71853566D01*
X103784665Y-71706433D01*
X103798693Y-71608863D01*
X103805147Y-71563976D01*
X103784665Y-71421519D01*
X103724877Y-71290603D01*
X103724876Y-71290602D01*
X103724876Y-71290601D01*
X103630629Y-71181834D01*
X103630628Y-71181833D01*
X103509553Y-71104023D01*
X103371461Y-71063476D01*
X103227539Y-71063476D01*
X103089447Y-71104023D01*
X102968370Y-71181834D01*
X102874123Y-71290601D01*
X102814334Y-71421521D01*
X102811202Y-71443302D01*
X102799348Y-71481157D01*
X102776146Y-71513332D01*
X100286955Y-74002522D01*
X100267104Y-74018644D01*
X100259332Y-74023722D01*
X100241500Y-74046632D01*
X100231765Y-74057657D01*
X100220441Y-74073518D01*
X100217392Y-74077606D01*
X100200954Y-74098727D01*
X100182891Y-74121934D01*
X100166871Y-74175743D01*
X100165309Y-74180619D01*
X100147074Y-74233738D01*
X100149394Y-74289829D01*
X100149500Y-74294953D01*
X100149500Y-76200788D01*
X100146861Y-76226234D01*
X100144957Y-76235314D01*
X100148548Y-76264123D01*
X100149458Y-76278795D01*
X100152665Y-76298013D01*
X100153403Y-76303078D01*
X100160351Y-76358809D01*
X100187081Y-76408202D01*
X100189421Y-76412747D01*
X100210802Y-76456484D01*
X100210803Y-76456485D01*
X100214084Y-76463196D01*
X100219581Y-76468256D01*
X100219582Y-76468258D01*
X100238223Y-76485418D01*
X100255399Y-76501230D01*
X100259097Y-76504779D01*
X100292137Y-76537819D01*
X100322387Y-76587182D01*
X100326929Y-76644898D01*
X100304774Y-76698385D01*
X100260751Y-76735985D01*
X100204456Y-76749500D01*
X100178039Y-76749500D01*
X100039947Y-76790047D01*
X99918870Y-76867858D01*
X99824623Y-76976625D01*
X99764834Y-77107542D01*
X99744353Y-77250000D01*
X99764834Y-77392457D01*
X99824623Y-77523374D01*
X99897555Y-77607542D01*
X99918872Y-77632143D01*
X100039947Y-77709953D01*
X100178039Y-77750500D01*
X100321961Y-77750500D01*
X100460053Y-77709953D01*
X100530754Y-77664516D01*
X100583067Y-77645710D01*
X100638345Y-77651653D01*
X100685470Y-77681152D01*
X103363181Y-80358863D01*
X103390061Y-80399091D01*
X103399500Y-80446544D01*
X103399500Y-82075500D01*
X103382887Y-82137500D01*
X103337500Y-82182887D01*
X103275500Y-82199500D01*
X101382000Y-82199500D01*
X101320000Y-82182887D01*
X101274613Y-82137500D01*
X101258000Y-82075500D01*
X101258000Y-81948447D01*
X101258000Y-81948446D01*
X101226137Y-81850384D01*
X101165532Y-81766968D01*
X101082116Y-81706363D01*
X100984054Y-81674500D01*
X100880946Y-81674500D01*
X100828990Y-81691382D01*
X100782884Y-81706363D01*
X100699468Y-81766968D01*
X100638863Y-81850384D01*
X100607000Y-81948447D01*
X100607000Y-82075500D01*
X100590387Y-82137500D01*
X100545000Y-82182887D01*
X100483000Y-82199500D01*
X98874500Y-82199500D01*
X98812500Y-82182887D01*
X98767113Y-82137500D01*
X98750500Y-82075500D01*
X98750500Y-81774760D01*
X98750528Y-81774616D01*
X98750524Y-81774616D01*
X98750539Y-81750002D01*
X98750541Y-81750000D01*
X98750462Y-81749808D01*
X98750384Y-81749618D01*
X98750380Y-81749614D01*
X98750194Y-81749538D01*
X98750002Y-81749459D01*
X98725446Y-81749459D01*
X98725240Y-81749500D01*
X97374500Y-81749500D01*
X97312500Y-81732887D01*
X97267113Y-81687500D01*
X97250500Y-81625500D01*
X97250500Y-80124500D01*
X97267113Y-80062500D01*
X97312500Y-80017113D01*
X97374500Y-80000500D01*
X98475240Y-80000500D01*
X98475383Y-80000528D01*
X98475384Y-80000524D01*
X98499997Y-80000539D01*
X98500000Y-80000541D01*
X98500383Y-80000383D01*
X98500500Y-80000099D01*
X98500541Y-80000000D01*
X98500541Y-79975446D01*
X98500500Y-79975240D01*
X98500500Y-72024760D01*
X98500528Y-72024616D01*
X98500524Y-72024616D01*
X98500539Y-72000002D01*
X98500541Y-72000000D01*
X98500461Y-71999808D01*
X98500384Y-71999618D01*
X98500380Y-71999614D01*
X98500194Y-71999538D01*
X98500002Y-71999459D01*
X98475446Y-71999459D01*
X98475240Y-71999500D01*
X97374500Y-71999500D01*
X97312500Y-71982887D01*
X97267113Y-71937500D01*
X97250500Y-71875500D01*
X97250500Y-69005412D01*
X97250972Y-68994605D01*
X97254415Y-68955250D01*
X97254540Y-68953904D01*
X97254542Y-68953882D01*
X97266918Y-68828221D01*
X97270540Y-68808318D01*
X97287908Y-68743498D01*
X97288956Y-68739828D01*
X97316685Y-68648419D01*
X97322948Y-68632049D01*
X97353700Y-68566102D01*
X97356670Y-68560161D01*
X97399012Y-68480944D01*
X97406786Y-68468289D01*
X97449639Y-68407089D01*
X97455330Y-68399587D01*
X97511191Y-68331521D01*
X97519325Y-68322547D01*
X97572547Y-68269325D01*
X97581521Y-68261191D01*
X97649587Y-68205330D01*
X97657089Y-68199639D01*
X97718289Y-68156786D01*
X97730944Y-68149012D01*
X97810161Y-68106670D01*
X97816102Y-68103700D01*
X97882049Y-68072948D01*
X97898419Y-68066685D01*
X97989828Y-68038956D01*
X97993498Y-68037908D01*
X98058318Y-68020540D01*
X98078221Y-68016918D01*
X98203927Y-68004537D01*
X98205204Y-68004419D01*
X98244605Y-68000971D01*
X98255412Y-68000500D01*
X106448430Y-68000500D01*
X106495883Y-68009939D01*
G37*
%TD.AperFunction*%
%TA.AperFunction,Conductor*%
G36*
X100545000Y-91817113D02*
G01*
X100590387Y-91862500D01*
X100607000Y-91924500D01*
X100607000Y-91999500D01*
X100607000Y-92000000D01*
X100607000Y-92051554D01*
X100638863Y-92149616D01*
X100699468Y-92233032D01*
X100782884Y-92293637D01*
X100880946Y-92325500D01*
X100984053Y-92325500D01*
X100984054Y-92325500D01*
X101082116Y-92293637D01*
X101165532Y-92233032D01*
X101226137Y-92149616D01*
X101258000Y-92051554D01*
X101258000Y-92000000D01*
X101258000Y-91999500D01*
X101258000Y-91924500D01*
X101274613Y-91862500D01*
X101320000Y-91817113D01*
X101382000Y-91800500D01*
X103275500Y-91800500D01*
X103337500Y-91817113D01*
X103382887Y-91862500D01*
X103399500Y-91924500D01*
X103399500Y-96434405D01*
X103391408Y-96471599D01*
X103369353Y-96625000D01*
X103389834Y-96767457D01*
X103449623Y-96898374D01*
X103543870Y-97007141D01*
X103543872Y-97007143D01*
X103664947Y-97084953D01*
X103803039Y-97125500D01*
X103946961Y-97125500D01*
X103946962Y-97125500D01*
X103990566Y-97112697D01*
X104047517Y-97109644D01*
X104099811Y-97132407D01*
X104136384Y-97176170D01*
X104149500Y-97231674D01*
X104149500Y-97450788D01*
X104146861Y-97476234D01*
X104144957Y-97485314D01*
X104148548Y-97514123D01*
X104149458Y-97528795D01*
X104152665Y-97548013D01*
X104153403Y-97553078D01*
X104160351Y-97608809D01*
X104187081Y-97658202D01*
X104189421Y-97662747D01*
X104210802Y-97706484D01*
X104210803Y-97706485D01*
X104214084Y-97713196D01*
X104219581Y-97718256D01*
X104219582Y-97718258D01*
X104255399Y-97751230D01*
X104259097Y-97754779D01*
X107463496Y-100959178D01*
X107486699Y-100991355D01*
X107498553Y-101029212D01*
X107514834Y-101142457D01*
X107574623Y-101273374D01*
X107641453Y-101350500D01*
X107668872Y-101382143D01*
X107789947Y-101459953D01*
X107928039Y-101500500D01*
X108071961Y-101500500D01*
X108210053Y-101459953D01*
X108331128Y-101382143D01*
X108331127Y-101382143D01*
X108346127Y-101372504D01*
X108347137Y-101374076D01*
X108363660Y-101361707D01*
X108415176Y-101350500D01*
X109303456Y-101350500D01*
X109350909Y-101359939D01*
X109391137Y-101386819D01*
X111292637Y-103288319D01*
X111322887Y-103337682D01*
X111327429Y-103395398D01*
X111305274Y-103448885D01*
X111261251Y-103486485D01*
X111204956Y-103500000D01*
X108051362Y-103500000D01*
X108003909Y-103490561D01*
X107963681Y-103463681D01*
X106500000Y-102000000D01*
X98624500Y-102000000D01*
X98562500Y-101983387D01*
X98517113Y-101938000D01*
X98500500Y-101876000D01*
X98500500Y-94024760D01*
X98500528Y-94024616D01*
X98500524Y-94024616D01*
X98500539Y-94000002D01*
X98500541Y-94000000D01*
X98500462Y-93999808D01*
X98500384Y-93999618D01*
X98500380Y-93999614D01*
X98500194Y-93999538D01*
X98500002Y-93999459D01*
X98475446Y-93999459D01*
X98475240Y-93999500D01*
X97374500Y-93999500D01*
X97312500Y-93982887D01*
X97267113Y-93937500D01*
X97250500Y-93875500D01*
X97250500Y-92374500D01*
X97267113Y-92312500D01*
X97312500Y-92267113D01*
X97374500Y-92250500D01*
X98725240Y-92250500D01*
X98725383Y-92250528D01*
X98725384Y-92250524D01*
X98749997Y-92250539D01*
X98750000Y-92250541D01*
X98750383Y-92250383D01*
X98750500Y-92250099D01*
X98750541Y-92250000D01*
X98750541Y-92225446D01*
X98750500Y-92225240D01*
X98750500Y-91924500D01*
X98767113Y-91862500D01*
X98812500Y-91817113D01*
X98874500Y-91800500D01*
X100483000Y-91800500D01*
X100545000Y-91817113D01*
G37*
%TD.AperFunction*%
%TA.AperFunction,Conductor*%
G36*
X105062818Y-80196241D02*
G01*
X105112181Y-80226491D01*
X108863181Y-83977490D01*
X108890061Y-84017718D01*
X108899500Y-84065171D01*
X108899500Y-86934708D01*
X108882142Y-86997981D01*
X108834928Y-87043539D01*
X108771077Y-87058629D01*
X108727210Y-87044894D01*
X108727159Y-87045070D01*
X108710053Y-87040047D01*
X108571961Y-86999500D01*
X108428039Y-86999500D01*
X108289947Y-87040047D01*
X108168870Y-87117858D01*
X108074623Y-87226625D01*
X108014834Y-87357542D01*
X107998552Y-87470788D01*
X107986698Y-87508645D01*
X107963495Y-87540821D01*
X106036955Y-89467361D01*
X106017104Y-89483483D01*
X106009332Y-89488561D01*
X105991500Y-89511471D01*
X105981765Y-89522496D01*
X105970441Y-89538357D01*
X105967392Y-89542445D01*
X105952761Y-89561245D01*
X105932891Y-89586773D01*
X105916871Y-89640582D01*
X105915309Y-89645458D01*
X105897074Y-89698577D01*
X105899394Y-89754668D01*
X105899500Y-89759792D01*
X105899500Y-90093964D01*
X105891682Y-90137297D01*
X105869213Y-90175166D01*
X105824623Y-90226625D01*
X105764834Y-90357542D01*
X105744353Y-90500000D01*
X105764834Y-90642457D01*
X105824623Y-90773374D01*
X105847747Y-90800060D01*
X105918872Y-90882143D01*
X106039947Y-90959953D01*
X106178039Y-91000500D01*
X106321961Y-91000500D01*
X106460053Y-90959953D01*
X106581128Y-90882143D01*
X106675377Y-90773373D01*
X106735165Y-90642457D01*
X106755647Y-90500000D01*
X106735165Y-90357543D01*
X106675377Y-90226627D01*
X106675376Y-90226626D01*
X106675376Y-90226625D01*
X106630787Y-90175166D01*
X106608318Y-90137297D01*
X106600500Y-90093964D01*
X106600500Y-89946544D01*
X106609939Y-89899091D01*
X106636819Y-89858863D01*
X108458863Y-88036819D01*
X108499091Y-88009939D01*
X108546544Y-88000500D01*
X108571961Y-88000500D01*
X108710053Y-87959953D01*
X108710053Y-87959952D01*
X108727159Y-87954930D01*
X108727210Y-87955105D01*
X108771077Y-87941371D01*
X108834928Y-87956461D01*
X108882142Y-88002019D01*
X108899500Y-88065292D01*
X108899500Y-89303455D01*
X108890061Y-89350908D01*
X108863180Y-89391137D01*
X108764063Y-89490252D01*
X108744213Y-89506373D01*
X108736444Y-89511449D01*
X108718612Y-89534359D01*
X108708877Y-89545384D01*
X108697553Y-89561245D01*
X108694504Y-89565333D01*
X108682409Y-89580874D01*
X108660003Y-89609661D01*
X108643983Y-89663470D01*
X108642421Y-89668346D01*
X108624186Y-89721465D01*
X108626506Y-89777556D01*
X108626612Y-89782680D01*
X108626612Y-90428606D01*
X108623973Y-90454052D01*
X108622069Y-90463132D01*
X108625660Y-90491941D01*
X108626570Y-90506613D01*
X108629777Y-90525831D01*
X108630515Y-90530896D01*
X108637463Y-90586627D01*
X108664193Y-90636020D01*
X108666533Y-90640565D01*
X108687914Y-90684302D01*
X108687915Y-90684303D01*
X108691196Y-90691014D01*
X108696693Y-90696074D01*
X108696694Y-90696076D01*
X108726107Y-90723153D01*
X108732511Y-90729048D01*
X108736209Y-90732597D01*
X108838802Y-90835190D01*
X108871047Y-90891348D01*
X108870585Y-90956103D01*
X108837541Y-91011795D01*
X108780929Y-91043235D01*
X108716186Y-91041848D01*
X108710053Y-91040047D01*
X108571961Y-90999500D01*
X108428039Y-90999500D01*
X108289947Y-91040047D01*
X108168870Y-91117858D01*
X108074623Y-91226625D01*
X108014834Y-91357542D01*
X107994353Y-91499999D01*
X108014834Y-91642457D01*
X108060211Y-91741816D01*
X108074623Y-91773373D01*
X108092320Y-91793797D01*
X108119111Y-91845764D01*
X108119112Y-91904231D01*
X108092322Y-91956199D01*
X108074623Y-91976625D01*
X108014834Y-92107542D01*
X107994353Y-92250000D01*
X108014834Y-92392457D01*
X108074623Y-92523374D01*
X108119213Y-92574834D01*
X108141682Y-92612703D01*
X108149500Y-92656036D01*
X108149500Y-94303457D01*
X108140061Y-94350910D01*
X108113181Y-94391138D01*
X107286955Y-95217361D01*
X107267104Y-95233483D01*
X107259332Y-95238561D01*
X107241500Y-95261471D01*
X107231765Y-95272496D01*
X107220441Y-95288357D01*
X107217392Y-95292445D01*
X107200954Y-95313566D01*
X107182891Y-95336773D01*
X107166871Y-95390582D01*
X107165309Y-95395458D01*
X107147074Y-95448577D01*
X107149394Y-95504668D01*
X107149500Y-95509792D01*
X107149500Y-96893464D01*
X107141682Y-96936797D01*
X107119213Y-96974666D01*
X107074623Y-97026125D01*
X107014834Y-97157042D01*
X106994353Y-97299499D01*
X107014834Y-97441957D01*
X107074623Y-97572874D01*
X107148560Y-97658202D01*
X107168872Y-97681643D01*
X107289947Y-97759453D01*
X107428039Y-97800000D01*
X107571961Y-97800000D01*
X107710053Y-97759453D01*
X107831128Y-97681643D01*
X107925377Y-97572873D01*
X107985165Y-97441957D01*
X108005647Y-97299500D01*
X107985165Y-97157043D01*
X107985165Y-97157042D01*
X107980099Y-97145949D01*
X107968944Y-97090896D01*
X107983223Y-97036570D01*
X108020008Y-96994119D01*
X108071749Y-96972253D01*
X108127823Y-96975459D01*
X108201845Y-96997194D01*
X108345767Y-96997194D01*
X108483859Y-96956647D01*
X108604934Y-96878837D01*
X108699183Y-96770067D01*
X108758971Y-96639151D01*
X108779453Y-96496694D01*
X108761103Y-96369063D01*
X108758971Y-96354236D01*
X108699182Y-96223319D01*
X108654593Y-96171860D01*
X108632124Y-96133991D01*
X108624306Y-96090658D01*
X108624306Y-95488424D01*
X108633745Y-95440971D01*
X108660625Y-95400743D01*
X109237687Y-94823680D01*
X109437819Y-94623546D01*
X109487182Y-94593297D01*
X109544898Y-94588755D01*
X109598385Y-94610910D01*
X109635985Y-94654933D01*
X109649500Y-94711228D01*
X109649500Y-98803457D01*
X109640061Y-98850910D01*
X109613181Y-98891138D01*
X109288537Y-99215781D01*
X109235791Y-99247077D01*
X109089447Y-99290047D01*
X108968370Y-99367858D01*
X108874123Y-99476625D01*
X108814334Y-99607542D01*
X108793853Y-99749999D01*
X108814334Y-99892457D01*
X108874123Y-100023374D01*
X108955993Y-100117857D01*
X108968372Y-100132143D01*
X109089447Y-100209953D01*
X109227539Y-100250500D01*
X109371461Y-100250500D01*
X109509553Y-100209953D01*
X109630628Y-100132143D01*
X109724877Y-100023373D01*
X109784665Y-99892457D01*
X109805020Y-99750881D01*
X109833678Y-99687751D01*
X109891750Y-99649873D01*
X109961079Y-99649091D01*
X110019990Y-99685650D01*
X110050066Y-99748120D01*
X110052665Y-99763695D01*
X110053403Y-99768764D01*
X110060351Y-99824495D01*
X110087081Y-99873888D01*
X110089421Y-99878433D01*
X110110802Y-99922170D01*
X110110803Y-99922171D01*
X110114084Y-99928882D01*
X110119581Y-99933942D01*
X110119582Y-99933944D01*
X110155399Y-99966916D01*
X110159097Y-99970465D01*
X111564791Y-101376159D01*
X111596087Y-101428905D01*
X111598276Y-101490198D01*
X111570823Y-101545042D01*
X111478036Y-101652124D01*
X111418247Y-101783041D01*
X111397766Y-101925499D01*
X111418247Y-102067956D01*
X111430807Y-102095457D01*
X111440990Y-102162861D01*
X111414007Y-102225462D01*
X111358011Y-102264341D01*
X111289927Y-102267746D01*
X111230332Y-102234650D01*
X109782638Y-100786956D01*
X109766509Y-100767094D01*
X109761437Y-100759330D01*
X109738533Y-100741504D01*
X109727508Y-100731768D01*
X109711653Y-100720448D01*
X109707544Y-100717384D01*
X109663229Y-100682892D01*
X109609409Y-100666869D01*
X109604531Y-100665306D01*
X109551421Y-100647074D01*
X109495332Y-100649394D01*
X109490208Y-100649500D01*
X108415176Y-100649500D01*
X108363660Y-100638293D01*
X108347137Y-100625923D01*
X108346127Y-100627496D01*
X108308020Y-100603007D01*
X108210053Y-100540047D01*
X108071961Y-100499500D01*
X108046544Y-100499500D01*
X107999091Y-100490061D01*
X107958863Y-100463181D01*
X107044307Y-99548625D01*
X107014057Y-99499262D01*
X107009515Y-99441546D01*
X107031670Y-99388059D01*
X107075693Y-99350459D01*
X107131988Y-99336944D01*
X107848380Y-99336944D01*
X107899896Y-99348151D01*
X107916418Y-99360520D01*
X107917429Y-99358948D01*
X107932428Y-99368587D01*
X108053503Y-99446397D01*
X108191595Y-99486944D01*
X108335517Y-99486944D01*
X108473609Y-99446397D01*
X108594684Y-99368587D01*
X108688933Y-99259817D01*
X108748721Y-99128901D01*
X108769203Y-98986444D01*
X108748721Y-98843987D01*
X108730211Y-98803457D01*
X108688932Y-98713069D01*
X108594685Y-98604302D01*
X108594684Y-98604301D01*
X108473609Y-98526491D01*
X108335517Y-98485944D01*
X108191595Y-98485944D01*
X108053503Y-98526491D01*
X107917429Y-98613940D01*
X107916418Y-98612367D01*
X107899896Y-98624737D01*
X107848380Y-98635944D01*
X106748673Y-98635944D01*
X106701220Y-98626505D01*
X106660992Y-98599625D01*
X105286819Y-97225451D01*
X105259939Y-97185223D01*
X105250500Y-97137770D01*
X105250500Y-95883526D01*
X105253139Y-95858080D01*
X105253364Y-95857001D01*
X105255043Y-95848999D01*
X105251452Y-95820191D01*
X105250541Y-95805527D01*
X105250500Y-95805281D01*
X105250500Y-95805274D01*
X105247330Y-95786279D01*
X105246595Y-95781233D01*
X105240573Y-95732921D01*
X105240572Y-95732919D01*
X105239648Y-95725505D01*
X105236092Y-95718934D01*
X105236092Y-95718933D01*
X105212913Y-95676102D01*
X105210579Y-95671567D01*
X105185915Y-95621115D01*
X105144589Y-95583072D01*
X105140891Y-95579524D01*
X104936819Y-95375451D01*
X104909939Y-95335223D01*
X104900500Y-95287770D01*
X104900500Y-92584652D01*
X104913616Y-92529148D01*
X104950189Y-92485385D01*
X105002483Y-92462622D01*
X105059434Y-92465674D01*
X105178039Y-92500500D01*
X105321961Y-92500500D01*
X105460053Y-92459953D01*
X105581128Y-92382143D01*
X105675377Y-92273373D01*
X105735165Y-92142457D01*
X105755647Y-92000000D01*
X105735165Y-91857543D01*
X105733749Y-91854443D01*
X105675376Y-91726625D01*
X105581129Y-91617858D01*
X105581128Y-91617857D01*
X105460053Y-91540047D01*
X105439562Y-91534030D01*
X105393298Y-91508769D01*
X105361706Y-91466567D01*
X105350500Y-91415055D01*
X105350500Y-88614792D01*
X105367858Y-88551519D01*
X105415072Y-88505961D01*
X105478923Y-88490871D01*
X105522789Y-88504605D01*
X105522841Y-88504430D01*
X105539946Y-88509452D01*
X105539947Y-88509453D01*
X105678039Y-88550000D01*
X105821961Y-88550000D01*
X105960053Y-88509453D01*
X106081128Y-88431643D01*
X106175377Y-88322873D01*
X106235165Y-88191957D01*
X106255647Y-88049500D01*
X106235165Y-87907043D01*
X106223793Y-87882143D01*
X106175376Y-87776125D01*
X106081128Y-87667356D01*
X106080849Y-87667177D01*
X106039057Y-87622289D01*
X106023889Y-87562862D01*
X106023889Y-87356536D01*
X106031707Y-87313203D01*
X106054176Y-87275334D01*
X106098765Y-87223874D01*
X106098764Y-87223874D01*
X106098766Y-87223873D01*
X106158554Y-87092957D01*
X106179036Y-86950500D01*
X106158554Y-86808043D01*
X106150335Y-86790047D01*
X106098765Y-86677125D01*
X106004518Y-86568358D01*
X106004517Y-86568357D01*
X105883442Y-86490547D01*
X105745350Y-86450000D01*
X105601428Y-86450000D01*
X105601427Y-86450000D01*
X105509434Y-86477011D01*
X105452483Y-86480064D01*
X105400189Y-86457301D01*
X105363616Y-86413538D01*
X105350500Y-86358034D01*
X105350500Y-84946544D01*
X105359939Y-84899091D01*
X105386819Y-84858863D01*
X105958863Y-84286819D01*
X105999091Y-84259939D01*
X106046544Y-84250500D01*
X106071961Y-84250500D01*
X106210053Y-84209953D01*
X106331128Y-84132143D01*
X106425377Y-84023373D01*
X106485165Y-83892457D01*
X106505647Y-83750000D01*
X106486584Y-83617409D01*
X106485165Y-83607542D01*
X106434908Y-83497497D01*
X106425377Y-83476627D01*
X106425376Y-83476626D01*
X106425376Y-83476625D01*
X106331129Y-83367858D01*
X106331128Y-83367857D01*
X106210053Y-83290047D01*
X106071961Y-83249500D01*
X105928039Y-83249500D01*
X105789947Y-83290047D01*
X105668870Y-83367858D01*
X105574623Y-83476625D01*
X105514834Y-83607542D01*
X105498552Y-83720788D01*
X105486698Y-83758645D01*
X105463495Y-83790821D01*
X105371004Y-83883313D01*
X105199862Y-84054456D01*
X105112181Y-84142137D01*
X105062818Y-84172387D01*
X105005102Y-84176929D01*
X104951615Y-84154774D01*
X104914015Y-84110751D01*
X104900500Y-84054456D01*
X104900500Y-80314172D01*
X104914015Y-80257877D01*
X104951615Y-80213854D01*
X105005102Y-80191699D01*
X105062818Y-80196241D01*
G37*
%TD.AperFunction*%
%TA.AperFunction,Conductor*%
G36*
X112443728Y-95949883D02*
G01*
X112481327Y-95993906D01*
X112494842Y-96050201D01*
X112494842Y-98003237D01*
X112492203Y-98028683D01*
X112490299Y-98037763D01*
X112493890Y-98066572D01*
X112494800Y-98081244D01*
X112498007Y-98100462D01*
X112498745Y-98105527D01*
X112505693Y-98161258D01*
X112532423Y-98210651D01*
X112534763Y-98215196D01*
X112556144Y-98258933D01*
X112556145Y-98258934D01*
X112559426Y-98265645D01*
X112564923Y-98270705D01*
X112564924Y-98270707D01*
X112598287Y-98301420D01*
X112600741Y-98303679D01*
X112604439Y-98307228D01*
X115010252Y-100713040D01*
X115026380Y-100732900D01*
X115031456Y-100740670D01*
X115054366Y-100758501D01*
X115065376Y-100768224D01*
X115065585Y-100768373D01*
X115065587Y-100768375D01*
X115065927Y-100768617D01*
X115087579Y-100788326D01*
X115168872Y-100882143D01*
X115289947Y-100959953D01*
X115428039Y-101000500D01*
X115571961Y-101000500D01*
X115710053Y-100959953D01*
X115831128Y-100882143D01*
X115925377Y-100773373D01*
X115985165Y-100642457D01*
X116005647Y-100500000D01*
X115985165Y-100357543D01*
X115925377Y-100226627D01*
X115925376Y-100226626D01*
X115925376Y-100226625D01*
X115831129Y-100117858D01*
X115831128Y-100117857D01*
X115710053Y-100040047D01*
X115571961Y-99999500D01*
X115428039Y-99999500D01*
X115428038Y-99999500D01*
X115390432Y-100010541D01*
X115324832Y-100011711D01*
X115267819Y-99979244D01*
X113232161Y-97943586D01*
X113205281Y-97903358D01*
X113195842Y-97855905D01*
X113195842Y-96468463D01*
X113208958Y-96412958D01*
X113245532Y-96369196D01*
X113297826Y-96346433D01*
X113354774Y-96349485D01*
X113428039Y-96370998D01*
X113571961Y-96370998D01*
X113710053Y-96330451D01*
X113790498Y-96278751D01*
X113853111Y-96259147D01*
X113916964Y-96274236D01*
X113964179Y-96319795D01*
X113981537Y-96383068D01*
X113981537Y-96848511D01*
X113978898Y-96873957D01*
X113976994Y-96883037D01*
X113980585Y-96911846D01*
X113981495Y-96926518D01*
X113984702Y-96945736D01*
X113985440Y-96950801D01*
X113992388Y-97006532D01*
X114019118Y-97055925D01*
X114021458Y-97060470D01*
X114042839Y-97104207D01*
X114042840Y-97104208D01*
X114046121Y-97110919D01*
X114051618Y-97115979D01*
X114051619Y-97115981D01*
X114075288Y-97137770D01*
X114087436Y-97148953D01*
X114091134Y-97152502D01*
X114901675Y-97963043D01*
X114917803Y-97982903D01*
X114922877Y-97990669D01*
X114945787Y-98008500D01*
X114956810Y-98018235D01*
X114972669Y-98029558D01*
X114976778Y-98032622D01*
X114983385Y-98037764D01*
X115014143Y-98061704D01*
X115021087Y-98067108D01*
X115074907Y-98083131D01*
X115079751Y-98084682D01*
X115125826Y-98100500D01*
X115125829Y-98100500D01*
X115132893Y-98102925D01*
X115140358Y-98102616D01*
X115140360Y-98102617D01*
X115188992Y-98100606D01*
X115194116Y-98100500D01*
X117516474Y-98100500D01*
X117541920Y-98103139D01*
X117543242Y-98103416D01*
X117551001Y-98105043D01*
X117577050Y-98101795D01*
X117579809Y-98101452D01*
X117594481Y-98100541D01*
X117613699Y-98097334D01*
X117618755Y-98096596D01*
X117667079Y-98090573D01*
X117667080Y-98090572D01*
X117674494Y-98089648D01*
X117681064Y-98086092D01*
X117681067Y-98086092D01*
X117723887Y-98062918D01*
X117728433Y-98060577D01*
X117772170Y-98039198D01*
X117772172Y-98039195D01*
X117778881Y-98035916D01*
X117783940Y-98030419D01*
X117783944Y-98030418D01*
X117816940Y-97994572D01*
X117820442Y-97990924D01*
X118093109Y-97718258D01*
X118187819Y-97623549D01*
X118237182Y-97593299D01*
X118294898Y-97588757D01*
X118348385Y-97610912D01*
X118385985Y-97654935D01*
X118399500Y-97711230D01*
X118399500Y-99303456D01*
X118390061Y-99350909D01*
X118363181Y-99391137D01*
X115891137Y-101863181D01*
X115850909Y-101890061D01*
X115803456Y-101899500D01*
X113696543Y-101899500D01*
X113649090Y-101890061D01*
X113608862Y-101863181D01*
X111186819Y-99441137D01*
X111159939Y-99400909D01*
X111150500Y-99353456D01*
X111150500Y-96468330D01*
X111163616Y-96412826D01*
X111200189Y-96369063D01*
X111252483Y-96346300D01*
X111309434Y-96349353D01*
X111396788Y-96375002D01*
X111396789Y-96375002D01*
X111540711Y-96375002D01*
X111678803Y-96334455D01*
X111799878Y-96256645D01*
X111799877Y-96256645D01*
X111813811Y-96247691D01*
X111865514Y-96228958D01*
X111877529Y-96227461D01*
X111889625Y-96225954D01*
X111904293Y-96225043D01*
X111923511Y-96221836D01*
X111928567Y-96221098D01*
X111976891Y-96215075D01*
X111976892Y-96215074D01*
X111984306Y-96214150D01*
X111990876Y-96210594D01*
X111990879Y-96210594D01*
X112033699Y-96187420D01*
X112038245Y-96185079D01*
X112081982Y-96163700D01*
X112081984Y-96163697D01*
X112088693Y-96160418D01*
X112093752Y-96154921D01*
X112093756Y-96154920D01*
X112126753Y-96119074D01*
X112130230Y-96115450D01*
X112283164Y-95962516D01*
X112332524Y-95932270D01*
X112390240Y-95927728D01*
X112443728Y-95949883D01*
G37*
%TD.AperFunction*%
%TA.AperFunction,Conductor*%
G36*
X123348385Y-93295226D02*
G01*
X123385985Y-93339249D01*
X123399500Y-93395544D01*
X123399500Y-98053456D01*
X123390061Y-98100909D01*
X123363181Y-98141137D01*
X123141137Y-98363181D01*
X123100909Y-98390061D01*
X123053456Y-98399500D01*
X120609872Y-98399500D01*
X120584426Y-98396861D01*
X120575345Y-98394957D01*
X120546537Y-98398548D01*
X120531861Y-98399458D01*
X120512621Y-98402668D01*
X120507563Y-98403405D01*
X120451849Y-98410351D01*
X120402473Y-98437072D01*
X120397921Y-98439415D01*
X120347464Y-98464082D01*
X120309440Y-98505387D01*
X120305893Y-98509083D01*
X119712181Y-99102797D01*
X119662818Y-99133047D01*
X119605102Y-99137589D01*
X119551615Y-99115434D01*
X119514015Y-99071411D01*
X119500500Y-99015116D01*
X119500500Y-97493602D01*
X119509939Y-97446149D01*
X119536819Y-97405921D01*
X119643241Y-97299499D01*
X120041612Y-96901126D01*
X120088734Y-96871629D01*
X120144012Y-96865686D01*
X120196328Y-96884492D01*
X120242766Y-96914336D01*
X120380858Y-96954883D01*
X120524780Y-96954883D01*
X120662872Y-96914336D01*
X120783947Y-96836526D01*
X120878196Y-96727756D01*
X120937984Y-96596840D01*
X120958466Y-96454383D01*
X120947134Y-96375567D01*
X120949367Y-96328690D01*
X120968865Y-96285996D01*
X121002832Y-96253609D01*
X121081128Y-96203292D01*
X121175377Y-96094522D01*
X121235165Y-95963606D01*
X121255647Y-95821149D01*
X121235165Y-95678692D01*
X121232960Y-95673864D01*
X121187896Y-95575188D01*
X121175377Y-95547776D01*
X121145375Y-95513152D01*
X121117924Y-95458311D01*
X121120113Y-95397017D01*
X121151407Y-95344273D01*
X123187818Y-93307863D01*
X123237182Y-93277613D01*
X123294898Y-93273071D01*
X123348385Y-93295226D01*
G37*
%TD.AperFunction*%
%TA.AperFunction,Conductor*%
G36*
X115555035Y-93258578D02*
G01*
X115622249Y-93301398D01*
X116028929Y-93513102D01*
X116175373Y-93573761D01*
X116452509Y-93688555D01*
X116452511Y-93688555D01*
X116452512Y-93688556D01*
X116889776Y-93826425D01*
X117337392Y-93925659D01*
X117337395Y-93925659D01*
X117337398Y-93925660D01*
X117791949Y-93985503D01*
X117860051Y-93988476D01*
X118250000Y-94005502D01*
X118655001Y-93987819D01*
X118708050Y-93985503D01*
X119162601Y-93925660D01*
X119162601Y-93925659D01*
X119162608Y-93925659D01*
X119610224Y-93826425D01*
X120047488Y-93688556D01*
X120471071Y-93513102D01*
X120567364Y-93462974D01*
X120635423Y-93449437D01*
X120700103Y-93474589D01*
X120741139Y-93530554D01*
X120745678Y-93599803D01*
X120712298Y-93660646D01*
X120309765Y-94063181D01*
X120269537Y-94090061D01*
X120222084Y-94099500D01*
X119783528Y-94099500D01*
X119758082Y-94096861D01*
X119749001Y-94094957D01*
X119720193Y-94098548D01*
X119705520Y-94099458D01*
X119686310Y-94102664D01*
X119681244Y-94103402D01*
X119625506Y-94110351D01*
X119576119Y-94137076D01*
X119571569Y-94139418D01*
X119521120Y-94164082D01*
X119483095Y-94205387D01*
X119479548Y-94209083D01*
X118325952Y-95362681D01*
X118285724Y-95389561D01*
X118238271Y-95399000D01*
X118165176Y-95399000D01*
X118113660Y-95387793D01*
X118097137Y-95375423D01*
X118096127Y-95376996D01*
X118024359Y-95330874D01*
X117960053Y-95289547D01*
X117821961Y-95249000D01*
X117678039Y-95249000D01*
X117539947Y-95289547D01*
X117418870Y-95367358D01*
X117324623Y-95476125D01*
X117264834Y-95607042D01*
X117244353Y-95749500D01*
X117264834Y-95891957D01*
X117324623Y-96022874D01*
X117408005Y-96119102D01*
X117418872Y-96131643D01*
X117539947Y-96209453D01*
X117678039Y-96250000D01*
X117704956Y-96250000D01*
X117761251Y-96263515D01*
X117805274Y-96301115D01*
X117827429Y-96354602D01*
X117822887Y-96412318D01*
X117792637Y-96461681D01*
X117291137Y-96963181D01*
X117250909Y-96990061D01*
X117203456Y-96999500D01*
X116314094Y-96999500D01*
X116247055Y-96979816D01*
X116201300Y-96927012D01*
X116191356Y-96857854D01*
X116194422Y-96836526D01*
X116199602Y-96800500D01*
X116179120Y-96658043D01*
X116170492Y-96639151D01*
X116119331Y-96527125D01*
X116074742Y-96475666D01*
X116052273Y-96437797D01*
X116044455Y-96394464D01*
X116044455Y-95677481D01*
X116047094Y-95652035D01*
X116047319Y-95650956D01*
X116048998Y-95642954D01*
X116045407Y-95614146D01*
X116044496Y-95599482D01*
X116044455Y-95599236D01*
X116044455Y-95599229D01*
X116041285Y-95580234D01*
X116040550Y-95575188D01*
X116034528Y-95526876D01*
X116034527Y-95526874D01*
X116033603Y-95519460D01*
X116030047Y-95512889D01*
X116030047Y-95512888D01*
X116006880Y-95470080D01*
X116004536Y-95465525D01*
X115979873Y-95415074D01*
X115974373Y-95410011D01*
X115938542Y-95377026D01*
X115934869Y-95373501D01*
X115436819Y-94875451D01*
X115409939Y-94835223D01*
X115400500Y-94787770D01*
X115400500Y-93599207D01*
X115403139Y-93573761D01*
X115403173Y-93573594D01*
X115405042Y-93564685D01*
X115401452Y-93535884D01*
X115400540Y-93521205D01*
X115400500Y-93520965D01*
X115400500Y-93520960D01*
X115397331Y-93501972D01*
X115396594Y-93496915D01*
X115389648Y-93441189D01*
X115379360Y-93422180D01*
X115364472Y-93359347D01*
X115383194Y-93297548D01*
X115430449Y-93253542D01*
X115493423Y-93239261D01*
X115555035Y-93258578D01*
G37*
%TD.AperFunction*%
%TA.AperFunction,Conductor*%
G36*
X111712818Y-91858985D02*
G01*
X111762181Y-91889235D01*
X112613181Y-92740235D01*
X112640061Y-92780463D01*
X112649500Y-92827916D01*
X112649500Y-94553456D01*
X112640061Y-94600909D01*
X112613181Y-94641137D01*
X112404516Y-94849801D01*
X112344920Y-94882898D01*
X112276836Y-94879492D01*
X112220841Y-94840613D01*
X112193858Y-94778012D01*
X112204040Y-94710608D01*
X112235165Y-94642457D01*
X112255647Y-94500000D01*
X112236489Y-94366751D01*
X112235165Y-94357542D01*
X112175376Y-94226625D01*
X112081129Y-94117858D01*
X112081128Y-94117857D01*
X111960053Y-94040047D01*
X111821961Y-93999500D01*
X111796544Y-93999500D01*
X111749091Y-93990061D01*
X111708863Y-93963181D01*
X111586819Y-93841137D01*
X111559939Y-93800909D01*
X111550500Y-93753456D01*
X111550500Y-91976916D01*
X111564015Y-91920621D01*
X111601615Y-91876598D01*
X111655102Y-91854443D01*
X111712818Y-91858985D01*
G37*
%TD.AperFunction*%
%TA.AperFunction,Conductor*%
G36*
X104850909Y-76109939D02*
G01*
X104891137Y-76136819D01*
X109613181Y-80858862D01*
X109640061Y-80899090D01*
X109649500Y-80946543D01*
X109649500Y-82700788D01*
X109646861Y-82726234D01*
X109644957Y-82735314D01*
X109648548Y-82764123D01*
X109649458Y-82778795D01*
X109652665Y-82798013D01*
X109653403Y-82803078D01*
X109660351Y-82858809D01*
X109687081Y-82908202D01*
X109689421Y-82912747D01*
X109710802Y-82956484D01*
X109710803Y-82956485D01*
X109714084Y-82963196D01*
X109719581Y-82968256D01*
X109719582Y-82968258D01*
X109753475Y-82999459D01*
X109755399Y-83001230D01*
X109759097Y-83004779D01*
X110763181Y-84008863D01*
X110790061Y-84049091D01*
X110799500Y-84096544D01*
X110799500Y-86625500D01*
X110782887Y-86687500D01*
X110737500Y-86732887D01*
X110675500Y-86749500D01*
X110528539Y-86749500D01*
X110390447Y-86790047D01*
X110269370Y-86867858D01*
X110175123Y-86976625D01*
X110115334Y-87107542D01*
X110099052Y-87220788D01*
X110087198Y-87258645D01*
X110063995Y-87290821D01*
X109864067Y-87490749D01*
X109844216Y-87506871D01*
X109836445Y-87511948D01*
X109822352Y-87530055D01*
X109774308Y-87567448D01*
X109714259Y-87577467D01*
X109656678Y-87557699D01*
X109615445Y-87512908D01*
X109600500Y-87453891D01*
X109600500Y-83917840D01*
X109603139Y-83892394D01*
X109603364Y-83891315D01*
X109605043Y-83883313D01*
X109601452Y-83854505D01*
X109600541Y-83839841D01*
X109600500Y-83839595D01*
X109600500Y-83839588D01*
X109597330Y-83820593D01*
X109596595Y-83815547D01*
X109593513Y-83790821D01*
X109590573Y-83767235D01*
X109590572Y-83767233D01*
X109589648Y-83759819D01*
X109586092Y-83753248D01*
X109586092Y-83753247D01*
X109562925Y-83710439D01*
X109560581Y-83705884D01*
X109535918Y-83655433D01*
X109530418Y-83650370D01*
X109494587Y-83617385D01*
X109490914Y-83613860D01*
X104327505Y-78450451D01*
X104300625Y-78410223D01*
X104291186Y-78362770D01*
X104291186Y-76789393D01*
X104293825Y-76763947D01*
X104294767Y-76759452D01*
X104295728Y-76754871D01*
X104292138Y-76726070D01*
X104291226Y-76711391D01*
X104291186Y-76711151D01*
X104291186Y-76711146D01*
X104288017Y-76692158D01*
X104287280Y-76687101D01*
X104286600Y-76681643D01*
X104281259Y-76638793D01*
X104281258Y-76638791D01*
X104280334Y-76631377D01*
X104276778Y-76624806D01*
X104276778Y-76624805D01*
X104253611Y-76581997D01*
X104251267Y-76577442D01*
X104226604Y-76526991D01*
X104200496Y-76502957D01*
X104185273Y-76488943D01*
X104181600Y-76485418D01*
X104036504Y-76340322D01*
X104013301Y-76308145D01*
X104001447Y-76270288D01*
X103997401Y-76242147D01*
X104007345Y-76172988D01*
X104053100Y-76120185D01*
X104120139Y-76100500D01*
X104803456Y-76100500D01*
X104850909Y-76109939D01*
G37*
%TD.AperFunction*%
%TD*%
M02*
