%TF.GenerationSoftware,KiCad,Pcbnew,7.0.1*%
%TF.CreationDate,2024-08-17T13:05:24+01:00*%
%TF.ProjectId,Hardware,48617264-7761-4726-952e-6b696361645f,rev?*%
%TF.SameCoordinates,Original*%
%TF.FileFunction,Soldermask,Bot*%
%TF.FilePolarity,Negative*%
%FSLAX46Y46*%
G04 Gerber Fmt 4.6, Leading zero omitted, Abs format (unit mm)*
G04 Created by KiCad (PCBNEW 7.0.1) date 2024-08-17 13:05:24*
%MOMM*%
%LPD*%
G01*
G04 APERTURE LIST*
G04 Aperture macros list*
%AMRoundRect*
0 Rectangle with rounded corners*
0 $1 Rounding radius*
0 $2 $3 $4 $5 $6 $7 $8 $9 X,Y pos of 4 corners*
0 Add a 4 corners polygon primitive as box body*
4,1,4,$2,$3,$4,$5,$6,$7,$8,$9,$2,$3,0*
0 Add four circle primitives for the rounded corners*
1,1,$1+$1,$2,$3*
1,1,$1+$1,$4,$5*
1,1,$1+$1,$6,$7*
1,1,$1+$1,$8,$9*
0 Add four rect primitives between the rounded corners*
20,1,$1+$1,$2,$3,$4,$5,0*
20,1,$1+$1,$4,$5,$6,$7,0*
20,1,$1+$1,$6,$7,$8,$9,0*
20,1,$1+$1,$8,$9,$2,$3,0*%
%AMFreePoly0*
4,1,6,1.000000,0.000000,0.500000,-0.750000,-0.500000,-0.750000,-0.500000,0.750000,0.500000,0.750000,1.000000,0.000000,1.000000,0.000000,$1*%
%AMFreePoly1*
4,1,6,0.500000,-0.750000,-0.650000,-0.750000,-0.150000,0.000000,-0.650000,0.750000,0.500000,0.750000,0.500000,-0.750000,0.500000,-0.750000,$1*%
G04 Aperture macros list end*
%ADD10FreePoly0,0.000000*%
%ADD11FreePoly1,0.000000*%
%ADD12RoundRect,0.135000X0.135000X0.185000X-0.135000X0.185000X-0.135000X-0.185000X0.135000X-0.185000X0*%
%ADD13R,1.000000X0.600000*%
%ADD14R,1.000000X0.300000*%
%ADD15R,2.600000X1.550000*%
%ADD16RoundRect,0.140000X-0.140000X-0.170000X0.140000X-0.170000X0.140000X0.170000X-0.140000X0.170000X0*%
%ADD17RoundRect,0.140000X-0.170000X0.140000X-0.170000X-0.140000X0.170000X-0.140000X0.170000X0.140000X0*%
%ADD18RoundRect,0.135000X0.185000X-0.135000X0.185000X0.135000X-0.185000X0.135000X-0.185000X-0.135000X0*%
%ADD19R,2.300000X2.300000*%
%ADD20O,2.300000X2.300000*%
%ADD21RoundRect,0.112500X0.112500X-0.187500X0.112500X0.187500X-0.112500X0.187500X-0.112500X-0.187500X0*%
%ADD22RoundRect,0.135000X-0.135000X-0.185000X0.135000X-0.185000X0.135000X0.185000X-0.135000X0.185000X0*%
%ADD23RoundRect,0.140000X0.170000X-0.140000X0.170000X0.140000X-0.170000X0.140000X-0.170000X-0.140000X0*%
%ADD24R,1.000000X1.550000*%
%ADD25RoundRect,0.150000X-0.512500X-0.150000X0.512500X-0.150000X0.512500X0.150000X-0.512500X0.150000X0*%
%ADD26RoundRect,0.250000X-0.262500X-0.450000X0.262500X-0.450000X0.262500X0.450000X-0.262500X0.450000X0*%
%ADD27R,0.300000X1.000000*%
%ADD28R,1.650000X1.300000*%
%ADD29RoundRect,0.135000X-0.185000X0.135000X-0.185000X-0.135000X0.185000X-0.135000X0.185000X0.135000X0*%
%ADD30RoundRect,0.087500X0.187500X0.087500X-0.187500X0.087500X-0.187500X-0.087500X0.187500X-0.087500X0*%
%ADD31RoundRect,0.087500X0.087500X0.187500X-0.087500X0.187500X-0.087500X-0.187500X0.087500X-0.187500X0*%
%ADD32RoundRect,0.150000X-0.150000X0.587500X-0.150000X-0.587500X0.150000X-0.587500X0.150000X0.587500X0*%
%ADD33R,0.300000X0.300000*%
%ADD34R,0.350000X0.250000*%
%ADD35R,0.250000X0.350000*%
%ADD36R,0.600000X0.600000*%
%ADD37R,0.430000X0.430000*%
%ADD38RoundRect,0.140000X0.140000X0.170000X-0.140000X0.170000X-0.140000X-0.170000X0.140000X-0.170000X0*%
%ADD39R,1.700000X1.700000*%
%ADD40O,1.700000X1.700000*%
%ADD41RoundRect,0.050000X-0.100000X0.100000X-0.100000X-0.100000X0.100000X-0.100000X0.100000X0.100000X0*%
%ADD42O,0.300000X0.950000*%
%ADD43R,0.575000X0.400000*%
%ADD44R,0.675000X0.400000*%
%ADD45R,1.950000X2.600000*%
%ADD46RoundRect,0.112500X0.187500X0.112500X-0.187500X0.112500X-0.187500X-0.112500X0.187500X-0.112500X0*%
%ADD47RoundRect,0.150000X-0.587500X-0.150000X0.587500X-0.150000X0.587500X0.150000X-0.587500X0.150000X0*%
%ADD48RoundRect,0.150000X0.512500X0.150000X-0.512500X0.150000X-0.512500X-0.150000X0.512500X-0.150000X0*%
G04 APERTURE END LIST*
D10*
%TO.C,JP1*%
X104025000Y-99000000D03*
D11*
X105475000Y-99000000D03*
%TD*%
D12*
%TO.C,R10*%
X109760000Y-86000000D03*
X108740000Y-86000000D03*
%TD*%
D13*
%TO.C,J1*%
X104220000Y-90210000D03*
X104220000Y-89410000D03*
D14*
X104220000Y-88250000D03*
X104220000Y-87250000D03*
X104220000Y-86750000D03*
X104220000Y-85750000D03*
D13*
X104220000Y-84590000D03*
X104220000Y-83790000D03*
X104220000Y-83790000D03*
X104220000Y-84590000D03*
D14*
X104220000Y-85250000D03*
X104220000Y-86250000D03*
X104220000Y-87750000D03*
X104220000Y-88750000D03*
D13*
X104220000Y-89410000D03*
X104220000Y-90210000D03*
D15*
X101000000Y-92600000D03*
X101000000Y-81400000D03*
%TD*%
D16*
%TO.C,C4*%
X117770000Y-102500000D03*
X118730000Y-102500000D03*
%TD*%
D17*
%TO.C,C7*%
X114250000Y-82020000D03*
X114250000Y-82980000D03*
%TD*%
D18*
%TO.C,R7*%
X108750000Y-101510000D03*
X108750000Y-100490000D03*
%TD*%
D19*
%TO.C,J3*%
X99250000Y-70000000D03*
D20*
X102750000Y-70000000D03*
%TD*%
D21*
%TO.C,D4*%
X124250000Y-82550000D03*
X124250000Y-80450000D03*
%TD*%
D22*
%TO.C,R13*%
X109990000Y-94250000D03*
X111010000Y-94250000D03*
%TD*%
D23*
%TO.C,C11*%
X111250000Y-89730000D03*
X111250000Y-88770000D03*
%TD*%
D19*
%TO.C,J5*%
X122000000Y-82750000D03*
D20*
X122000000Y-79250000D03*
%TD*%
D24*
%TO.C,SW2*%
X99900000Y-95375000D03*
X99900000Y-100625000D03*
X101600000Y-95375000D03*
X101600000Y-100625000D03*
%TD*%
D23*
%TO.C,C12*%
X112250000Y-89730000D03*
X112250000Y-88770000D03*
%TD*%
D24*
%TO.C,SW4*%
X126600000Y-89625000D03*
X126600000Y-84375000D03*
X124900000Y-89625000D03*
X124900000Y-84375000D03*
%TD*%
D25*
%TO.C,U1*%
X107362500Y-89200000D03*
X107362500Y-88250000D03*
X107362500Y-87300000D03*
X109637500Y-87300000D03*
X109637500Y-88250000D03*
X109637500Y-89200000D03*
%TD*%
D17*
%TO.C,C9*%
X116250000Y-82020000D03*
X116250000Y-82980000D03*
%TD*%
D26*
%TO.C,R3*%
X104337500Y-79000000D03*
X106162500Y-79000000D03*
%TD*%
D25*
%TO.C,U4*%
X109975000Y-84700000D03*
X109975000Y-83750000D03*
X109975000Y-82800000D03*
X112250000Y-82800000D03*
X112250000Y-84700000D03*
%TD*%
D27*
%TO.C,J4*%
X111000000Y-80400000D03*
X111500000Y-80400000D03*
X112000000Y-80400000D03*
X112500000Y-80400000D03*
X113000000Y-80400000D03*
X113500000Y-80400000D03*
X114000000Y-80400000D03*
X114500000Y-80400000D03*
X115000000Y-80400000D03*
X115500000Y-80400000D03*
D28*
X108725000Y-78500000D03*
X117775000Y-78500000D03*
%TD*%
D18*
%TO.C,R8*%
X107250000Y-101510000D03*
X107250000Y-100490000D03*
%TD*%
D12*
%TO.C,R6*%
X105010000Y-77250000D03*
X103990000Y-77250000D03*
%TD*%
D29*
%TO.C,R4*%
X117750000Y-96240000D03*
X117750000Y-97260000D03*
%TD*%
D30*
%TO.C,U5*%
X112475000Y-91000000D03*
X112475000Y-91500000D03*
X112475000Y-92000000D03*
X112475000Y-92500000D03*
X112475000Y-93000000D03*
D31*
X111750000Y-93225000D03*
X111250000Y-93225000D03*
X110750000Y-93225000D03*
D30*
X110025000Y-93000000D03*
X110025000Y-92500000D03*
X110025000Y-92000000D03*
X110025000Y-91500000D03*
X110025000Y-91000000D03*
D31*
X110750000Y-90775000D03*
X111250000Y-90775000D03*
X111750000Y-90775000D03*
%TD*%
D32*
%TO.C,Q3*%
X120550000Y-74875000D03*
X122450000Y-74875000D03*
X121500000Y-76750000D03*
%TD*%
D33*
%TO.C,U2*%
X110070000Y-102500000D03*
D34*
X110070000Y-102020000D03*
X110070000Y-101570000D03*
X110070000Y-101120000D03*
X110070000Y-100670000D03*
X110070000Y-100220000D03*
X110070000Y-99770000D03*
X110070000Y-99320000D03*
X110070000Y-98870000D03*
X110070000Y-98420000D03*
X110070000Y-97970000D03*
X110070000Y-97520000D03*
X110070000Y-97070000D03*
X110070000Y-96620000D03*
X110070000Y-96170000D03*
X110070000Y-95720000D03*
D33*
X110070000Y-95250000D03*
D35*
X110550000Y-95250000D03*
X111000000Y-95250000D03*
X111450000Y-95250000D03*
X111900000Y-95250000D03*
X112350000Y-95250000D03*
X112800000Y-95250000D03*
X113250000Y-95250000D03*
X113700000Y-95250000D03*
X114150000Y-95250000D03*
X114600000Y-95250000D03*
X115050000Y-95250000D03*
X115500000Y-95250000D03*
X115950000Y-95250000D03*
D33*
X116420000Y-95250000D03*
D34*
X116420000Y-95720000D03*
X116420000Y-96170000D03*
X116420000Y-96620000D03*
X116420000Y-97070000D03*
X116420000Y-97520000D03*
X116420000Y-97970000D03*
X116420000Y-98420000D03*
X116420000Y-98870000D03*
X116420000Y-99320000D03*
X116420000Y-99770000D03*
X116420000Y-100220000D03*
X116420000Y-100670000D03*
X116420000Y-101120000D03*
X116420000Y-101570000D03*
X116420000Y-102020000D03*
D33*
X116420000Y-102500000D03*
D35*
X115950000Y-102500000D03*
X115500000Y-102500000D03*
X115050000Y-102500000D03*
X114600000Y-102500000D03*
X114150000Y-102500000D03*
X113700000Y-102500000D03*
X113250000Y-102500000D03*
X112800000Y-102500000D03*
X112350000Y-102500000D03*
X111900000Y-102500000D03*
X111450000Y-102500000D03*
X111000000Y-102500000D03*
X110550000Y-102500000D03*
D36*
X111900000Y-101120000D03*
X111900000Y-100220000D03*
X111900000Y-99320000D03*
X111900000Y-98420000D03*
X111900000Y-97520000D03*
X111900000Y-96620000D03*
X112800000Y-96620000D03*
X113700000Y-96620000D03*
X114600000Y-96620000D03*
X114600000Y-97520000D03*
X114600000Y-98420000D03*
X114600000Y-99320000D03*
X114600000Y-100220000D03*
X114600000Y-101120000D03*
X113700000Y-101120000D03*
X112800000Y-101120000D03*
X112800000Y-100220000D03*
X112800000Y-99320000D03*
X112800000Y-98420000D03*
X112800000Y-97520000D03*
X113700000Y-97520000D03*
X113700000Y-98420000D03*
X113700000Y-99320000D03*
X113700000Y-100220000D03*
D37*
X110200000Y-105450000D03*
X116300000Y-105450000D03*
%TD*%
D12*
%TO.C,R12*%
X118760000Y-99500000D03*
X117740000Y-99500000D03*
%TD*%
D17*
%TO.C,C10*%
X103250000Y-92520000D03*
X103250000Y-93480000D03*
%TD*%
D29*
%TO.C,R15*%
X120250000Y-78490000D03*
X120250000Y-79510000D03*
%TD*%
D23*
%TO.C,C13*%
X108750000Y-93980000D03*
X108750000Y-93020000D03*
%TD*%
D24*
%TO.C,SW3*%
X126600000Y-78625000D03*
X126600000Y-73375000D03*
X124900000Y-78625000D03*
X124900000Y-73375000D03*
%TD*%
D32*
%TO.C,Q2*%
X120100000Y-100000000D03*
X122000000Y-100000000D03*
X121050000Y-101875000D03*
%TD*%
D29*
%TO.C,R5*%
X119000000Y-96240000D03*
X119000000Y-97260000D03*
%TD*%
D17*
%TO.C,C8*%
X115250000Y-82020000D03*
X115250000Y-82980000D03*
%TD*%
D38*
%TO.C,C5*%
X105980000Y-70500000D03*
X105020000Y-70500000D03*
%TD*%
D22*
%TO.C,R1*%
X106740000Y-86000000D03*
X107760000Y-86000000D03*
%TD*%
D17*
%TO.C,C6*%
X113750000Y-84020000D03*
X113750000Y-84980000D03*
%TD*%
D39*
%TO.C,J2*%
X127920000Y-69750000D03*
D40*
X125380000Y-69750000D03*
X122840000Y-69750000D03*
X120300000Y-69750000D03*
%TD*%
D16*
%TO.C,C3*%
X117770000Y-101500000D03*
X118730000Y-101500000D03*
%TD*%
D41*
%TO.C,U3*%
X104250000Y-71600000D03*
D42*
X104250000Y-71925000D03*
D41*
X104650000Y-71600000D03*
D42*
X104650000Y-71925000D03*
D41*
X105050000Y-71600000D03*
D42*
X105050000Y-71925000D03*
D41*
X105450000Y-71600000D03*
D42*
X105450000Y-71925000D03*
D41*
X105850000Y-71600000D03*
D42*
X105850000Y-71925000D03*
D41*
X106250000Y-71600000D03*
D42*
X106250000Y-71925000D03*
X106250000Y-75875000D03*
D41*
X106250000Y-76200000D03*
D42*
X105850000Y-75875000D03*
D41*
X105850000Y-76200000D03*
D42*
X105450000Y-75875000D03*
D41*
X105450000Y-76200000D03*
D42*
X105050000Y-75875000D03*
D41*
X105050000Y-76200000D03*
D42*
X104650000Y-75875000D03*
D41*
X104650000Y-76200000D03*
D42*
X104250000Y-75875000D03*
D41*
X104250000Y-76200000D03*
D43*
X106615000Y-72800000D03*
D44*
X106562500Y-72800000D03*
X103937500Y-72800000D03*
D43*
X103885000Y-72800000D03*
D45*
X105250000Y-73900000D03*
X105250000Y-73900000D03*
D43*
X106615000Y-75000000D03*
D44*
X106562500Y-75000000D03*
X103937500Y-75000000D03*
D43*
X103885000Y-75000000D03*
%TD*%
D46*
%TO.C,D1*%
X106300000Y-81000000D03*
X104200000Y-81000000D03*
%TD*%
D47*
%TO.C,Q1*%
X106125000Y-84700000D03*
X106125000Y-82800000D03*
X108000000Y-83750000D03*
%TD*%
D22*
%TO.C,R9*%
X110740000Y-86000000D03*
X111760000Y-86000000D03*
%TD*%
D24*
%TO.C,SW1*%
X99900000Y-73375000D03*
X99900000Y-78625000D03*
X101600000Y-73375000D03*
X101600000Y-78625000D03*
%TD*%
D48*
%TO.C,U6*%
X107137500Y-91800000D03*
X107137500Y-93700000D03*
X104862500Y-92750000D03*
%TD*%
D16*
%TO.C,C2*%
X117770000Y-100500000D03*
X118730000Y-100500000D03*
%TD*%
D24*
%TO.C,SW5*%
X126600000Y-100625000D03*
X126600000Y-95375000D03*
X124900000Y-100625000D03*
X124900000Y-95375000D03*
%TD*%
D22*
%TO.C,R2*%
X106990000Y-90500000D03*
X108010000Y-90500000D03*
%TD*%
D17*
%TO.C,C1*%
X107250000Y-98520000D03*
X107250000Y-99480000D03*
%TD*%
D29*
%TO.C,R14*%
X113750000Y-92740000D03*
X113750000Y-93760000D03*
%TD*%
M02*
