%TF.GenerationSoftware,KiCad,Pcbnew,7.0.1*%
%TF.CreationDate,2024-01-11T23:21:17+00:00*%
%TF.ProjectId,Hardware,48617264-7761-4726-952e-6b696361645f,rev?*%
%TF.SameCoordinates,Original*%
%TF.FileFunction,Copper,L2,Bot*%
%TF.FilePolarity,Positive*%
%FSLAX46Y46*%
G04 Gerber Fmt 4.6, Leading zero omitted, Abs format (unit mm)*
G04 Created by KiCad (PCBNEW 7.0.1) date 2024-01-11 23:21:17*
%MOMM*%
%LPD*%
G01*
G04 APERTURE LIST*
G04 Aperture macros list*
%AMRoundRect*
0 Rectangle with rounded corners*
0 $1 Rounding radius*
0 $2 $3 $4 $5 $6 $7 $8 $9 X,Y pos of 4 corners*
0 Add a 4 corners polygon primitive as box body*
4,1,4,$2,$3,$4,$5,$6,$7,$8,$9,$2,$3,0*
0 Add four circle primitives for the rounded corners*
1,1,$1+$1,$2,$3*
1,1,$1+$1,$4,$5*
1,1,$1+$1,$6,$7*
1,1,$1+$1,$8,$9*
0 Add four rect primitives between the rounded corners*
20,1,$1+$1,$2,$3,$4,$5,0*
20,1,$1+$1,$4,$5,$6,$7,0*
20,1,$1+$1,$6,$7,$8,$9,0*
20,1,$1+$1,$8,$9,$2,$3,0*%
G04 Aperture macros list end*
%TA.AperFunction,ConnectorPad*%
%ADD10R,0.500000X1.000000*%
%TD*%
%TA.AperFunction,ConnectorPad*%
%ADD11R,0.500000X0.500000*%
%TD*%
%TA.AperFunction,ConnectorPad*%
%ADD12R,0.900000X1.000000*%
%TD*%
%TA.AperFunction,ComponentPad*%
%ADD13R,0.900000X0.500000*%
%TD*%
%TA.AperFunction,SMDPad,CuDef*%
%ADD14RoundRect,0.140000X-0.170000X0.140000X-0.170000X-0.140000X0.170000X-0.140000X0.170000X0.140000X0*%
%TD*%
%TA.AperFunction,SMDPad,CuDef*%
%ADD15RoundRect,0.140000X-0.140000X-0.170000X0.140000X-0.170000X0.140000X0.170000X-0.140000X0.170000X0*%
%TD*%
%TA.AperFunction,SMDPad,CuDef*%
%ADD16RoundRect,0.135000X-0.185000X0.135000X-0.185000X-0.135000X0.185000X-0.135000X0.185000X0.135000X0*%
%TD*%
%TA.AperFunction,SMDPad,CuDef*%
%ADD17RoundRect,0.150000X0.587500X0.150000X-0.587500X0.150000X-0.587500X-0.150000X0.587500X-0.150000X0*%
%TD*%
%TA.AperFunction,SMDPad,CuDef*%
%ADD18RoundRect,0.135000X-0.135000X-0.185000X0.135000X-0.185000X0.135000X0.185000X-0.135000X0.185000X0*%
%TD*%
%TA.AperFunction,SMDPad,CuDef*%
%ADD19RoundRect,0.150000X0.512500X0.150000X-0.512500X0.150000X-0.512500X-0.150000X0.512500X-0.150000X0*%
%TD*%
%TA.AperFunction,SMDPad,CuDef*%
%ADD20RoundRect,0.135000X0.135000X0.185000X-0.135000X0.185000X-0.135000X-0.185000X0.135000X-0.185000X0*%
%TD*%
%TA.AperFunction,SMDPad,CuDef*%
%ADD21R,1.000000X1.800000*%
%TD*%
%TA.AperFunction,SMDPad,CuDef*%
%ADD22RoundRect,0.062500X0.062500X-0.337500X0.062500X0.337500X-0.062500X0.337500X-0.062500X-0.337500X0*%
%TD*%
%TA.AperFunction,SMDPad,CuDef*%
%ADD23RoundRect,0.062500X0.337500X-0.062500X0.337500X0.062500X-0.337500X0.062500X-0.337500X-0.062500X0*%
%TD*%
%TA.AperFunction,ComponentPad*%
%ADD24C,0.500000*%
%TD*%
%TA.AperFunction,SMDPad,CuDef*%
%ADD25R,3.600000X3.600000*%
%TD*%
%TA.AperFunction,SMDPad,CuDef*%
%ADD26RoundRect,0.147500X0.147500X0.172500X-0.147500X0.172500X-0.147500X-0.172500X0.147500X-0.172500X0*%
%TD*%
%TA.AperFunction,SMDPad,CuDef*%
%ADD27R,1.240000X0.600000*%
%TD*%
%TA.AperFunction,SMDPad,CuDef*%
%ADD28R,1.240000X0.300000*%
%TD*%
%TA.AperFunction,ComponentPad*%
%ADD29O,1.800000X1.000000*%
%TD*%
%TA.AperFunction,ComponentPad*%
%ADD30O,2.100000X1.000000*%
%TD*%
%TA.AperFunction,SMDPad,CuDef*%
%ADD31RoundRect,0.250000X-1.500000X0.250000X-1.500000X-0.250000X1.500000X-0.250000X1.500000X0.250000X0*%
%TD*%
%TA.AperFunction,SMDPad,CuDef*%
%ADD32RoundRect,0.250001X-1.449999X0.499999X-1.449999X-0.499999X1.449999X-0.499999X1.449999X0.499999X0*%
%TD*%
%TA.AperFunction,SMDPad,CuDef*%
%ADD33RoundRect,0.250000X-0.450000X0.262500X-0.450000X-0.262500X0.450000X-0.262500X0.450000X0.262500X0*%
%TD*%
%TA.AperFunction,SMDPad,CuDef*%
%ADD34R,1.150000X1.000000*%
%TD*%
%TA.AperFunction,SMDPad,CuDef*%
%ADD35RoundRect,0.140000X0.170000X-0.140000X0.170000X0.140000X-0.170000X0.140000X-0.170000X-0.140000X0*%
%TD*%
%TA.AperFunction,SMDPad,CuDef*%
%ADD36R,0.200000X0.200000*%
%TD*%
%TA.AperFunction,SMDPad,CuDef*%
%ADD37O,0.850000X0.200000*%
%TD*%
%TA.AperFunction,SMDPad,CuDef*%
%ADD38R,0.400000X0.575000*%
%TD*%
%TA.AperFunction,SMDPad,CuDef*%
%ADD39R,0.400000X0.675000*%
%TD*%
%TA.AperFunction,ComponentPad*%
%ADD40C,0.600000*%
%TD*%
%TA.AperFunction,SMDPad,CuDef*%
%ADD41R,1.300000X0.975000*%
%TD*%
%TA.AperFunction,SMDPad,CuDef*%
%ADD42R,2.600000X1.950000*%
%TD*%
%TA.AperFunction,SMDPad,CuDef*%
%ADD43RoundRect,0.150000X-0.150000X0.512500X-0.150000X-0.512500X0.150000X-0.512500X0.150000X0.512500X0*%
%TD*%
%TA.AperFunction,SMDPad,CuDef*%
%ADD44RoundRect,0.140000X0.140000X0.170000X-0.140000X0.170000X-0.140000X-0.170000X0.140000X-0.170000X0*%
%TD*%
%TA.AperFunction,SMDPad,CuDef*%
%ADD45RoundRect,0.150000X-0.150000X0.587500X-0.150000X-0.587500X0.150000X-0.587500X0.150000X0.587500X0*%
%TD*%
%TA.AperFunction,SMDPad,CuDef*%
%ADD46RoundRect,0.147500X-0.172500X0.147500X-0.172500X-0.147500X0.172500X-0.147500X0.172500X0.147500X0*%
%TD*%
%TA.AperFunction,SMDPad,CuDef*%
%ADD47RoundRect,0.350000X0.350000X-0.400000X0.350000X0.400000X-0.350000X0.400000X-0.350000X-0.400000X0*%
%TD*%
%TA.AperFunction,WasherPad*%
%ADD48C,1.800000*%
%TD*%
%TA.AperFunction,SMDPad,CuDef*%
%ADD49RoundRect,0.250000X0.141421X-0.494975X0.494975X-0.141421X-0.141421X0.494975X-0.494975X0.141421X0*%
%TD*%
%TA.AperFunction,SMDPad,CuDef*%
%ADD50RoundRect,0.250000X0.494975X0.141421X0.141421X0.494975X-0.494975X-0.141421X-0.141421X-0.494975X0*%
%TD*%
%TA.AperFunction,SMDPad,CuDef*%
%ADD51RoundRect,0.350000X0.400000X-0.350000X0.400000X0.350000X-0.400000X0.350000X-0.400000X-0.350000X0*%
%TD*%
%TA.AperFunction,SMDPad,CuDef*%
%ADD52RoundRect,0.112500X-0.112500X0.187500X-0.112500X-0.187500X0.112500X-0.187500X0.112500X0.187500X0*%
%TD*%
%TA.AperFunction,ViaPad*%
%ADD53C,0.800000*%
%TD*%
%TA.AperFunction,Conductor*%
%ADD54C,0.200000*%
%TD*%
G04 APERTURE END LIST*
%TA.AperFunction,EtchedComponent*%
%TO.C,AE1*%
G36*
X123200000Y-75275000D02*
G01*
X124900000Y-75275000D01*
X124900000Y-72635000D01*
X127900000Y-72635000D01*
X127900000Y-75275000D01*
X129600000Y-75275000D01*
X129600000Y-72635000D01*
X132600000Y-72635000D01*
X132600000Y-75275000D01*
X134300000Y-75275000D01*
X134300000Y-71875000D01*
X134800000Y-71875000D01*
X134800000Y-75275000D01*
X136200000Y-75275000D01*
X136200000Y-71875000D01*
X137100000Y-71875000D01*
X137100000Y-75775000D01*
X132100000Y-75775000D01*
X132100000Y-73135000D01*
X130100000Y-73135000D01*
X130100000Y-75775000D01*
X127400000Y-75775000D01*
X127400000Y-73135000D01*
X125400000Y-73135000D01*
X125400000Y-75775000D01*
X122700000Y-75775000D01*
X122700000Y-71335000D01*
X123200000Y-71335000D01*
X123200000Y-75275000D01*
G37*
%TD.AperFunction*%
%TD*%
D10*
%TO.P,AE1,1,FEED*%
%TO.N,Net-(AE1-FEED)*%
X134550000Y-71375000D03*
D11*
X134550000Y-70625000D03*
D12*
%TO.P,AE1,2,PCB_Trace*%
%TO.N,GND*%
X136650000Y-71375000D03*
D13*
X136650000Y-70625000D03*
%TD*%
D14*
%TO.P,C14,1*%
%TO.N,Net-(U2-V_{DD})*%
X142000000Y-48020000D03*
%TO.P,C14,2*%
%TO.N,GND*%
X142000000Y-48980000D03*
%TD*%
D15*
%TO.P,C20,1*%
%TO.N,/ENC_A*%
X131020000Y-60250000D03*
%TO.P,C20,2*%
%TO.N,GND*%
X131980000Y-60250000D03*
%TD*%
D16*
%TO.P,R1,1*%
%TO.N,+3V3*%
X118500000Y-66740000D03*
%TO.P,R1,2*%
%TO.N,/~{RESET}*%
X118500000Y-67760000D03*
%TD*%
D15*
%TO.P,C15,1*%
%TO.N,VBUS*%
X123540000Y-54500000D03*
%TO.P,C15,2*%
%TO.N,GND*%
X124500000Y-54500000D03*
%TD*%
%TO.P,C12,1*%
%TO.N,+3V3*%
X133020000Y-67250000D03*
%TO.P,C12,2*%
%TO.N,GND*%
X133980000Y-67250000D03*
%TD*%
D17*
%TO.P,Q2,1,G*%
%TO.N,/LCD_BL*%
X122000000Y-65500000D03*
%TO.P,Q2,2,S*%
%TO.N,GND*%
X122000000Y-67400000D03*
%TO.P,Q2,3,D*%
%TO.N,Net-(Q2-D)*%
X120125000Y-66450000D03*
%TD*%
D18*
%TO.P,R12,1*%
%TO.N,/ENC_SW*%
X130990000Y-59000000D03*
%TO.P,R12,2*%
%TO.N,Net-(J4-Pin_2)*%
X132010000Y-59000000D03*
%TD*%
D15*
%TO.P,C19,1*%
%TO.N,Net-(AE1-FEED)*%
X137315000Y-68580000D03*
%TO.P,C19,2*%
%TO.N,GND*%
X138275000Y-68580000D03*
%TD*%
D18*
%TO.P,R10,1*%
%TO.N,GND*%
X123250000Y-61250000D03*
%TO.P,R10,2*%
%TO.N,VBUS*%
X124270000Y-61250000D03*
%TD*%
D19*
%TO.P,U3,1,~{CHRG}*%
%TO.N,unconnected-(U3-~{CHRG}-Pad1)*%
X126137500Y-51300000D03*
%TO.P,U3,2,GND*%
%TO.N,GND*%
X126137500Y-52250000D03*
%TO.P,U3,3,BAT*%
%TO.N,+BATT*%
X126137500Y-53200000D03*
%TO.P,U3,4,VCC*%
%TO.N,VBUS*%
X123862500Y-53200000D03*
%TO.P,U3,5,PROG*%
%TO.N,Net-(U3-PROG)*%
X123862500Y-51300000D03*
%TD*%
D18*
%TO.P,R11,1*%
%TO.N,/ENC_A*%
X130990000Y-61500000D03*
%TO.P,R11,2*%
%TO.N,Net-(J4-Pin_1)*%
X132010000Y-61500000D03*
%TD*%
D20*
%TO.P,R3,1*%
%TO.N,GND*%
X119760000Y-51500000D03*
%TO.P,R3,2*%
%TO.N,Net-(J1-CC2)*%
X118740000Y-51500000D03*
%TD*%
D21*
%TO.P,Y2,1,1*%
%TO.N,Net-(U1-XTAL_32K_N{slash}ADC1_CH1{slash}IO1)*%
X120750000Y-69500000D03*
%TO.P,Y2,2,2*%
%TO.N,Net-(U1-XTAL_32K_P{slash}ADC1_CH0{slash}IO0)*%
X118250000Y-69500000D03*
%TD*%
D15*
%TO.P,C5,1*%
%TO.N,+3V3*%
X132770000Y-68750000D03*
%TO.P,C5,2*%
%TO.N,GND*%
X133730000Y-68750000D03*
%TD*%
D22*
%TO.P,U1,1,LNA_IN*%
%TO.N,/LNA_IN*%
X130750000Y-68450000D03*
%TO.P,U1,2,VDD3P3*%
%TO.N,Net-(C8-Pad1)*%
X130250000Y-68450000D03*
%TO.P,U1,3,VDD3P3*%
X129750000Y-68450000D03*
%TO.P,U1,4,XTAL_32K_P/ADC1_CH0/IO0*%
%TO.N,Net-(U1-XTAL_32K_P{slash}ADC1_CH0{slash}IO0)*%
X129250000Y-68450000D03*
%TO.P,U1,5,XTAL_32K_N/ADC1_CH1/IO1*%
%TO.N,Net-(U1-XTAL_32K_N{slash}ADC1_CH1{slash}IO1)*%
X128750000Y-68450000D03*
%TO.P,U1,6,ADC1_CH2/IO2*%
%TO.N,unconnected-(U1-ADC1_CH2{slash}IO2-Pad6)*%
X128250000Y-68450000D03*
%TO.P,U1,7,CHIP_EN*%
%TO.N,/~{RESET}*%
X127750000Y-68450000D03*
%TO.P,U1,8,ADC1_CH3/IO3*%
%TO.N,/MOSI*%
X127250000Y-68450000D03*
D23*
%TO.P,U1,9,MTMS/ADC1_CH4/IO4*%
%TO.N,/SCK*%
X126550000Y-67750000D03*
%TO.P,U1,10,MTDI/ADC2_CH20/IO5*%
%TO.N,/LCD_CS*%
X126550000Y-67250000D03*
%TO.P,U1,11,VDD3P3_RTC*%
%TO.N,+3V3*%
X126550000Y-66750000D03*
%TO.P,U1,12,MTCK/IO6*%
%TO.N,/LCD_BL*%
X126550000Y-66250000D03*
%TO.P,U1,13,MTDO/IO7*%
%TO.N,/LCD_DC*%
X126550000Y-65750000D03*
%TO.P,U1,14,IO8*%
%TO.N,/ENC_B*%
X126550000Y-65250000D03*
%TO.P,U1,15,BOOT/IO9*%
%TO.N,/ENC_SW*%
X126550000Y-64750000D03*
%TO.P,U1,16,IO10*%
%TO.N,/ENC_A*%
X126550000Y-64250000D03*
D22*
%TO.P,U1,17,VDD3P3_CPU*%
%TO.N,+3V3*%
X127250000Y-63550000D03*
%TO.P,U1,18,VDD_SPI*%
%TO.N,unconnected-(U1-VDD_SPI-Pad18)*%
X127750000Y-63550000D03*
%TO.P,U1,19,NC*%
%TO.N,unconnected-(U1-NC-Pad19)*%
X128250000Y-63550000D03*
%TO.P,U1,20,NC*%
%TO.N,unconnected-(U1-NC-Pad20)*%
X128750000Y-63550000D03*
%TO.P,U1,21,NC*%
%TO.N,unconnected-(U1-NC-Pad21)*%
X129250000Y-63550000D03*
%TO.P,U1,22,NC*%
%TO.N,unconnected-(U1-NC-Pad22)*%
X129750000Y-63550000D03*
%TO.P,U1,23,NC*%
%TO.N,unconnected-(U1-NC-Pad23)*%
X130250000Y-63550000D03*
%TO.P,U1,24,NC*%
%TO.N,unconnected-(U1-NC-Pad24)*%
X130750000Y-63550000D03*
D23*
%TO.P,U1,25,USB_DN/IO18*%
%TO.N,/USB_DN*%
X131450000Y-64250000D03*
%TO.P,U1,26,USB_DP/IO19*%
%TO.N,/USB_DP*%
X131450000Y-64750000D03*
%TO.P,U1,27,U0RXD/IO20*%
%TO.N,/SCL*%
X131450000Y-65250000D03*
%TO.P,U1,28,U0TXD/IO21*%
%TO.N,/SDA*%
X131450000Y-65750000D03*
%TO.P,U1,29,XTAL_N*%
%TO.N,Net-(U1-XTAL_N)*%
X131450000Y-66250000D03*
%TO.P,U1,30,XTAL_P*%
%TO.N,Net-(U1-XTAL_P)*%
X131450000Y-66750000D03*
%TO.P,U1,31,VDDA*%
%TO.N,+3V3*%
X131450000Y-67250000D03*
%TO.P,U1,32,VDDA*%
X131450000Y-67750000D03*
D24*
%TO.P,U1,33,GND*%
%TO.N,GND*%
X128000000Y-67000000D03*
X129000000Y-67000000D03*
X130000000Y-67000000D03*
X128000000Y-66000000D03*
X129000000Y-66000000D03*
D25*
X129000000Y-66000000D03*
D24*
X130000000Y-66000000D03*
X128000000Y-65000000D03*
X129000000Y-65000000D03*
X130000000Y-65000000D03*
%TD*%
D26*
%TO.P,L1,1,1*%
%TO.N,+3V3*%
X132485000Y-69750000D03*
%TO.P,L1,2,2*%
%TO.N,Net-(C8-Pad1)*%
X131515000Y-69750000D03*
%TD*%
D18*
%TO.P,R4,1*%
%TO.N,Net-(J1-CC1)*%
X123240000Y-59750000D03*
%TO.P,R4,2*%
%TO.N,GND*%
X124260000Y-59750000D03*
%TD*%
D27*
%TO.P,J1,A1,GND*%
%TO.N,GND*%
X121581000Y-60985000D03*
%TO.P,J1,A4,VBUS*%
%TO.N,VBUS*%
X121581000Y-60185000D03*
D28*
%TO.P,J1,A5,CC1*%
%TO.N,Net-(J1-CC1)*%
X121581000Y-59035000D03*
%TO.P,J1,A6,D+*%
%TO.N,/USB_DP*%
X121581000Y-58035000D03*
%TO.P,J1,A7,D-*%
%TO.N,/USB_DN*%
X121581000Y-57535000D03*
%TO.P,J1,A8,SBU1*%
%TO.N,unconnected-(J1-SBU1-PadA8)*%
X121581000Y-56535000D03*
D27*
%TO.P,J1,A9,VBUS*%
%TO.N,VBUS*%
X121581000Y-55385000D03*
%TO.P,J1,A12,GND*%
%TO.N,GND*%
X121581000Y-54585000D03*
%TO.P,J1,B1,GND*%
X121581000Y-54585000D03*
%TO.P,J1,B4,VBUS*%
%TO.N,VBUS*%
X121581000Y-55385000D03*
D28*
%TO.P,J1,B5,CC2*%
%TO.N,Net-(J1-CC2)*%
X121581000Y-56035000D03*
%TO.P,J1,B6,D+*%
%TO.N,/USB_DP*%
X121581000Y-57035000D03*
%TO.P,J1,B7,D-*%
%TO.N,/USB_DN*%
X121581000Y-58535000D03*
%TO.P,J1,B8,SBU2*%
%TO.N,unconnected-(J1-SBU2-PadB8)*%
X121581000Y-59535000D03*
D27*
%TO.P,J1,B9,VBUS*%
%TO.N,VBUS*%
X121581000Y-60185000D03*
%TO.P,J1,B12,GND*%
%TO.N,GND*%
X121581000Y-60985000D03*
D29*
%TO.P,J1,S1,SHIELD*%
X116781000Y-62105000D03*
D30*
X120981000Y-62105000D03*
D29*
X116781000Y-53465000D03*
D30*
X120981000Y-53465000D03*
%TD*%
D31*
%TO.P,J2,1,Pin_1*%
%TO.N,GND*%
X116650000Y-44500000D03*
%TO.P,J2,2,Pin_2*%
%TO.N,Net-(J2-Pin_2)*%
X116650000Y-46500000D03*
D32*
%TO.P,J2,MP*%
%TO.N,N/C*%
X122400000Y-42150000D03*
X122400000Y-48850000D03*
%TD*%
D20*
%TO.P,R5,1*%
%TO.N,+3V3*%
X132260000Y-55750000D03*
%TO.P,R5,2*%
%TO.N,/ENC_SW*%
X131240000Y-55750000D03*
%TD*%
D33*
%TO.P,R6,1*%
%TO.N,Net-(J2-Pin_2)*%
X134500000Y-47587500D03*
%TO.P,R6,2*%
%TO.N,+BATT*%
X134500000Y-49412500D03*
%TD*%
D15*
%TO.P,C21,1*%
%TO.N,/ENC_SW*%
X131020000Y-57750000D03*
%TO.P,C21,2*%
%TO.N,GND*%
X131980000Y-57750000D03*
%TD*%
%TO.P,C1,1*%
%TO.N,GND*%
X137270000Y-67250000D03*
%TO.P,C1,2*%
%TO.N,Net-(C1-Pad2)*%
X138230000Y-67250000D03*
%TD*%
D34*
%TO.P,Y1,1,1*%
%TO.N,Net-(C1-Pad2)*%
X139625000Y-66300000D03*
%TO.P,Y1,2,2*%
%TO.N,GND*%
X141375000Y-66300000D03*
%TO.P,Y1,3,3*%
%TO.N,Net-(U1-XTAL_N)*%
X141375000Y-67700000D03*
%TO.P,Y1,4,4*%
%TO.N,GND*%
X139625000Y-67700000D03*
%TD*%
D14*
%TO.P,C3,1*%
%TO.N,GND*%
X116750000Y-69020000D03*
%TO.P,C3,2*%
%TO.N,Net-(U1-XTAL_32K_P{slash}ADC1_CH0{slash}IO0)*%
X116750000Y-69980000D03*
%TD*%
%TO.P,C11,1*%
%TO.N,+3V3*%
X135000000Y-66270000D03*
%TO.P,C11,2*%
%TO.N,GND*%
X135000000Y-67230000D03*
%TD*%
D35*
%TO.P,C13,1*%
%TO.N,/LNA_IN*%
X136250000Y-67230000D03*
%TO.P,C13,2*%
%TO.N,GND*%
X136250000Y-66270000D03*
%TD*%
D20*
%TO.P,R9,1*%
%TO.N,/LCD_BL_K*%
X121010000Y-64000000D03*
%TO.P,R9,2*%
%TO.N,Net-(Q2-D)*%
X119990000Y-64000000D03*
%TD*%
D14*
%TO.P,C16,1*%
%TO.N,Net-(D1-K)*%
X129500000Y-57770000D03*
%TO.P,C16,2*%
%TO.N,GND*%
X129500000Y-58730000D03*
%TD*%
D36*
%TO.P,U2,1,SDA*%
%TO.N,/SDA*%
X140800000Y-46500000D03*
D37*
X140475000Y-46500000D03*
D36*
%TO.P,U2,2,SCL*%
%TO.N,/SCL*%
X140800000Y-46900000D03*
D37*
X140475000Y-46900000D03*
D36*
%TO.P,U2,3,V_{SS}*%
%TO.N,GND*%
X140800000Y-47300000D03*
D37*
X140475000Y-47300000D03*
D36*
%TO.P,U2,4,NC*%
%TO.N,unconnected-(U2-NC-Pad4)*%
X140800000Y-47700000D03*
D37*
X140475000Y-47700000D03*
D36*
%TO.P,U2,5,V_{DD}*%
%TO.N,Net-(U2-V_{DD})*%
X140800000Y-48100000D03*
D37*
X140475000Y-48100000D03*
D36*
%TO.P,U2,6,BAT*%
%TO.N,Net-(J2-Pin_2)*%
X140800000Y-48500000D03*
D37*
X140475000Y-48500000D03*
%TO.P,U2,7,SRN*%
%TO.N,+BATT*%
X136525000Y-48500000D03*
D36*
X136200000Y-48500000D03*
D37*
%TO.P,U2,8,SRP*%
%TO.N,Net-(J2-Pin_2)*%
X136525000Y-48100000D03*
D36*
X136200000Y-48100000D03*
D37*
%TO.P,U2,9,NC*%
%TO.N,unconnected-(U2-NC-Pad9)*%
X136525000Y-47700000D03*
D36*
X136200000Y-47700000D03*
D37*
%TO.P,U2,10,BIN*%
%TO.N,Net-(U2-BIN)*%
X136525000Y-47300000D03*
D36*
X136200000Y-47300000D03*
D37*
%TO.P,U2,11,NC*%
%TO.N,unconnected-(U2-NC-Pad11)*%
X136525000Y-46900000D03*
D36*
X136200000Y-46900000D03*
D37*
%TO.P,U2,12,GPOUT*%
%TO.N,unconnected-(U2-GPOUT-Pad12)*%
X136525000Y-46500000D03*
D36*
X136200000Y-46500000D03*
D38*
%TO.P,U2,13,PAD*%
%TO.N,GND*%
X139600000Y-48865000D03*
D39*
X139600000Y-48812500D03*
X139600000Y-46187500D03*
D38*
X139600000Y-46135000D03*
D40*
X139400000Y-48000000D03*
X139400000Y-47000000D03*
D41*
X139150000Y-47987500D03*
X139150000Y-47012500D03*
D40*
X138500000Y-48000000D03*
D42*
X138500000Y-47500000D03*
D40*
X138500000Y-47000000D03*
D41*
X137850000Y-47987500D03*
X137850000Y-47012500D03*
D40*
X137600000Y-48000000D03*
X137600000Y-47000000D03*
D38*
X137400000Y-48865000D03*
D39*
X137400000Y-48812500D03*
X137400000Y-46187500D03*
D38*
X137400000Y-46135000D03*
%TD*%
D43*
%TO.P,U4,1,GND*%
%TO.N,GND*%
X128000000Y-53862500D03*
%TO.P,U4,2,VO*%
%TO.N,+3V3*%
X129900000Y-53862500D03*
%TO.P,U4,3,VI*%
%TO.N,Net-(D1-K)*%
X128950000Y-56137500D03*
%TD*%
D15*
%TO.P,C22,1*%
%TO.N,/ENC_B*%
X131270000Y-54500000D03*
%TO.P,C22,2*%
%TO.N,GND*%
X132230000Y-54500000D03*
%TD*%
D20*
%TO.P,R7,1*%
%TO.N,Net-(U2-BIN)*%
X135010000Y-46000000D03*
%TO.P,R7,2*%
%TO.N,GND*%
X133990000Y-46000000D03*
%TD*%
D44*
%TO.P,C4,1*%
%TO.N,Net-(U1-XTAL_32K_N{slash}ADC1_CH1{slash}IO1)*%
X123480000Y-69500000D03*
%TO.P,C4,2*%
%TO.N,GND*%
X122520000Y-69500000D03*
%TD*%
D45*
%TO.P,Q1,1,G*%
%TO.N,VBUS*%
X124145000Y-56062500D03*
%TO.P,Q1,2,S*%
%TO.N,Net-(D1-K)*%
X126045000Y-56062500D03*
%TO.P,Q1,3,D*%
%TO.N,+BATT*%
X125095000Y-57937500D03*
%TD*%
D18*
%TO.P,R13,1*%
%TO.N,/ENC_B*%
X131240000Y-53250000D03*
%TO.P,R13,2*%
%TO.N,Net-(J4-Pin_4)*%
X132260000Y-53250000D03*
%TD*%
D35*
%TO.P,C6,1*%
%TO.N,/~{RESET}*%
X117250000Y-67730000D03*
%TO.P,C6,2*%
%TO.N,GND*%
X117250000Y-66770000D03*
%TD*%
D46*
%TO.P,L2,1,1*%
%TO.N,/LNA_IN*%
X136000000Y-68515000D03*
%TO.P,L2,2,2*%
%TO.N,Net-(AE1-FEED)*%
X136000000Y-69485000D03*
%TD*%
D47*
%TO.P,J4,*%
%TO.N,*%
X136000000Y-62750000D03*
X140250000Y-62750000D03*
D48*
X137000000Y-61000000D03*
D49*
X144500000Y-61000000D03*
D48*
X137000000Y-55000000D03*
D50*
X144500000Y-55000000D03*
D47*
X136000000Y-53250000D03*
X140250000Y-53250000D03*
D51*
%TO.P,J4,1,Pin_1*%
%TO.N,Net-(J4-Pin_1)*%
X133750000Y-62000000D03*
%TO.P,J4,2,Pin_2*%
%TO.N,Net-(J4-Pin_2)*%
X133750000Y-59333334D03*
%TO.P,J4,3,Pin_3*%
%TO.N,GND*%
X133750000Y-56666668D03*
%TO.P,J4,4,Pin_4*%
%TO.N,Net-(J4-Pin_4)*%
X133750000Y-54000000D03*
%TD*%
D15*
%TO.P,C10,1*%
%TO.N,+3V3*%
X128270000Y-62250000D03*
%TO.P,C10,2*%
%TO.N,GND*%
X129230000Y-62250000D03*
%TD*%
D35*
%TO.P,C7,1*%
%TO.N,+3V3*%
X134750000Y-69480000D03*
%TO.P,C7,2*%
%TO.N,GND*%
X134750000Y-68520000D03*
%TD*%
D20*
%TO.P,R2,1*%
%TO.N,Net-(C1-Pad2)*%
X138260000Y-66000000D03*
%TO.P,R2,2*%
%TO.N,Net-(U1-XTAL_P)*%
X137240000Y-66000000D03*
%TD*%
D14*
%TO.P,C2,1*%
%TO.N,Net-(U1-XTAL_N)*%
X142750000Y-66520000D03*
%TO.P,C2,2*%
%TO.N,GND*%
X142750000Y-67480000D03*
%TD*%
D44*
%TO.P,C8,1*%
%TO.N,Net-(C8-Pad1)*%
X130480000Y-69750000D03*
%TO.P,C8,2*%
%TO.N,GND*%
X129520000Y-69750000D03*
%TD*%
D14*
%TO.P,C9,1*%
%TO.N,+3V3*%
X124250000Y-66520000D03*
%TO.P,C9,2*%
%TO.N,GND*%
X124250000Y-67480000D03*
%TD*%
D44*
%TO.P,C17,1*%
%TO.N,+3V3*%
X129730000Y-52250000D03*
%TO.P,C17,2*%
%TO.N,GND*%
X128770000Y-52250000D03*
%TD*%
D18*
%TO.P,R8,1*%
%TO.N,GND*%
X120990000Y-51500000D03*
%TO.P,R8,2*%
%TO.N,Net-(U3-PROG)*%
X122010000Y-51500000D03*
%TD*%
D52*
%TO.P,D1,1,K*%
%TO.N,Net-(D1-K)*%
X128000000Y-57950000D03*
%TO.P,D1,2,A*%
%TO.N,VBUS*%
X128000000Y-60050000D03*
%TD*%
D53*
%TO.N,GND*%
X138250000Y-70250000D03*
X115000000Y-68250000D03*
X115000000Y-55750000D03*
X141000000Y-50250000D03*
X125750000Y-59250000D03*
X140718750Y-65499500D03*
X118250000Y-65250000D03*
X127000000Y-57000000D03*
X127500000Y-41500000D03*
X124000000Y-65000000D03*
X125250000Y-61000000D03*
X137000000Y-58000000D03*
X134250000Y-52250000D03*
X138000000Y-63000000D03*
X122812826Y-63124347D03*
X135000000Y-55250000D03*
X114750000Y-73750000D03*
X122250000Y-44750000D03*
X119500000Y-59750000D03*
X145250000Y-73500000D03*
X144500000Y-44500000D03*
X140500000Y-75500000D03*
X145000000Y-59250000D03*
X133500000Y-69500000D03*
X115500000Y-42000000D03*
X119000000Y-75500000D03*
X137250000Y-69500000D03*
X138250000Y-49750000D03*
X123500000Y-67500000D03*
X143500000Y-64250000D03*
X123250000Y-58500000D03*
X144000000Y-52750000D03*
X115250000Y-50750000D03*
X143750000Y-69250000D03*
X131855684Y-70644089D03*
X119750000Y-47750000D03*
X115000000Y-60000000D03*
X128000000Y-56762000D03*
X136000000Y-45500000D03*
X121849502Y-68750000D03*
X118750000Y-56500000D03*
%TO.N,/USB_DP*%
X123000000Y-57500000D03*
X132241349Y-63705560D03*
%TO.N,/USB_DN*%
X131444931Y-62950908D03*
X120361498Y-59000000D03*
%TO.N,+3V3*%
X123200000Y-66449500D03*
X132198592Y-69057292D03*
X131222535Y-56777465D03*
X134522490Y-66417468D03*
X127500000Y-62250000D03*
X128247933Y-55118075D03*
%TO.N,/~{RESET}*%
X123500000Y-68500000D03*
%TO.N,/SCK*%
X125500000Y-68500000D03*
%TO.N,/MOSI*%
X126500000Y-68500000D03*
%TO.N,+BATT*%
X136000000Y-49750000D03*
X125750000Y-54500000D03*
%TO.N,/LCD_CS*%
X124500000Y-68500000D03*
%TO.N,/LCD_DC*%
X124250000Y-63000000D03*
%TO.N,/LCD_BL_K*%
X121750000Y-64500000D03*
%TD*%
D54*
%TO.N,Net-(U1-XTAL_32K_P{slash}ADC1_CH0{slash}IO0)*%
X118250000Y-69750000D02*
X119250000Y-70750000D01*
X116750000Y-69980000D02*
X118480000Y-69980000D01*
%TO.N,Net-(J2-Pin_2)*%
X125692500Y-47587500D02*
X134500000Y-47587500D01*
X116150000Y-46500000D02*
X124605000Y-46500000D01*
X124605000Y-46500000D02*
X125692500Y-47587500D01*
%TO.N,GND*%
X135000000Y-67230000D02*
X135290000Y-67230000D01*
X139700000Y-47300000D02*
X139400000Y-47000000D01*
X137235000Y-69485000D02*
X137250000Y-69500000D01*
X125250000Y-52250000D02*
X126137500Y-52250000D01*
X137270000Y-67250000D02*
X137880000Y-67860000D01*
X139465000Y-67860000D02*
X139625000Y-67700000D01*
X130414089Y-70644089D02*
X129520000Y-69750000D01*
X122000000Y-67400000D02*
X122080000Y-67480000D01*
X131855684Y-70644089D02*
X129394089Y-70644089D01*
X123500000Y-67500000D02*
X123520000Y-67480000D01*
X128000000Y-53250000D02*
X128000000Y-53862500D01*
X124260000Y-59750000D02*
X124260000Y-59510000D01*
X124500000Y-54500000D02*
X125000000Y-54000000D01*
X137880000Y-67860000D02*
X139465000Y-67860000D01*
X122080000Y-67480000D02*
X123480000Y-67480000D01*
X128000000Y-53250000D02*
X128770000Y-52480000D01*
X125000000Y-52500000D02*
X125250000Y-52250000D01*
X135290000Y-67230000D02*
X136250000Y-66270000D01*
X135000000Y-67230000D02*
X134000000Y-67230000D01*
X134000000Y-67230000D02*
X133980000Y-67250000D01*
X136290000Y-66270000D02*
X137270000Y-67250000D01*
X140475000Y-47300000D02*
X139700000Y-47300000D01*
X129394089Y-70644089D02*
X129250000Y-70500000D01*
X122985000Y-60985000D02*
X123250000Y-61250000D01*
X125000000Y-54000000D02*
X125000000Y-52500000D01*
X127000000Y-52250000D02*
X128000000Y-53250000D01*
X136250000Y-66270000D02*
X136290000Y-66270000D01*
X132230000Y-54500000D02*
X132980000Y-55250000D01*
X131855684Y-70644089D02*
X130414089Y-70644089D01*
X123480000Y-67480000D02*
X123500000Y-67500000D01*
X128770000Y-52480000D02*
X128770000Y-52250000D01*
X121581000Y-60985000D02*
X122985000Y-60985000D01*
X126137500Y-52250000D02*
X127000000Y-52250000D01*
X132980000Y-55250000D02*
X135000000Y-55250000D01*
X124260000Y-59510000D02*
X123250000Y-58500000D01*
X123520000Y-67480000D02*
X124250000Y-67480000D01*
%TO.N,VBUS*%
X122616000Y-60500000D02*
X124250000Y-60500000D01*
X125000000Y-60000000D02*
X124500000Y-60500000D01*
X127950000Y-60000000D02*
X128000000Y-60050000D01*
X124270000Y-60520000D02*
X124250000Y-60500000D01*
X125000000Y-60000000D02*
X125000000Y-59387500D01*
X124145000Y-58532500D02*
X124145000Y-55780000D01*
X121581000Y-60185000D02*
X122301000Y-60185000D01*
X123467500Y-54572500D02*
X123540000Y-54500000D01*
X124250000Y-60500000D02*
X124500000Y-60500000D01*
X123467500Y-55000000D02*
X123467500Y-53845000D01*
X125000000Y-60000000D02*
X127950000Y-60000000D01*
X121581000Y-55385000D02*
X123467500Y-55385000D01*
X125000000Y-59387500D02*
X124145000Y-58532500D01*
X122301000Y-60185000D02*
X122616000Y-60500000D01*
X124270000Y-61250000D02*
X124270000Y-60520000D01*
X123467500Y-55385000D02*
X124145000Y-56062500D01*
X123467500Y-55000000D02*
X123467500Y-54572500D01*
X123467500Y-55385000D02*
X123467500Y-55000000D01*
X123467500Y-53845000D02*
X123862500Y-53450000D01*
%TO.N,Net-(J1-CC1)*%
X122785000Y-59035000D02*
X121581000Y-59035000D01*
X123240000Y-59490000D02*
X122785000Y-59035000D01*
%TO.N,/USB_DP*%
X122750000Y-57750000D02*
X122465000Y-58035000D01*
X122465000Y-58035000D02*
X121581000Y-58035000D01*
X132241349Y-64371303D02*
X131862652Y-64750000D01*
X123000000Y-57500000D02*
X122750000Y-57750000D01*
X121581000Y-57035000D02*
X122535000Y-57035000D01*
X122750000Y-57250000D02*
X123000000Y-57500000D01*
X122535000Y-57035000D02*
X122750000Y-57250000D01*
X132241349Y-63705560D02*
X132241349Y-64371303D01*
X131862652Y-64750000D02*
X131450000Y-64750000D01*
%TO.N,/USB_DN*%
X120361498Y-59000000D02*
X120361498Y-58535000D01*
X131444931Y-62950908D02*
X131500000Y-63005977D01*
X120361498Y-58535000D02*
X121581000Y-58535000D01*
X120361498Y-57888502D02*
X120715000Y-57535000D01*
X120715000Y-57535000D02*
X121581000Y-57535000D01*
X131500000Y-63005977D02*
X131500000Y-64200000D01*
X120361498Y-59000000D02*
X120361498Y-57888502D01*
X131500000Y-64200000D02*
X131450000Y-64250000D01*
%TO.N,Net-(J1-CC2)*%
X118740000Y-51500000D02*
X118740000Y-54490000D01*
X118740000Y-54490000D02*
X120285000Y-56035000D01*
X120285000Y-56035000D02*
X121581000Y-56035000D01*
%TO.N,+3V3*%
X119250000Y-67250000D02*
X118740000Y-66740000D01*
X123200000Y-66449500D02*
X121550500Y-66449500D01*
X124480000Y-66750000D02*
X126550000Y-66750000D01*
X132198592Y-69057292D02*
X132220884Y-69035000D01*
X128247933Y-55118075D02*
X129131925Y-55118075D01*
X129900000Y-52420000D02*
X129730000Y-52250000D01*
X128270000Y-62250000D02*
X127500000Y-62250000D01*
X131750000Y-56750000D02*
X131250000Y-56750000D01*
X134522490Y-66417468D02*
X134669958Y-66270000D01*
X134669958Y-66270000D02*
X135000000Y-66270000D01*
X131450000Y-67250000D02*
X133020000Y-67250000D01*
X134510000Y-69480000D02*
X134750000Y-69480000D01*
X133582532Y-66417468D02*
X133020000Y-66980000D01*
X132485000Y-69750000D02*
X132935000Y-70200000D01*
X132485000Y-69035000D02*
X132770000Y-68750000D01*
X129900000Y-53862500D02*
X129900000Y-52420000D01*
X131250000Y-56750000D02*
X131222535Y-56777465D01*
X127250000Y-62500000D02*
X127500000Y-62250000D01*
X132260000Y-55750000D02*
X132260000Y-56240000D01*
X134522490Y-66417468D02*
X133582532Y-66417468D01*
X124179500Y-66449500D02*
X124480000Y-66750000D01*
X132935000Y-70200000D02*
X133790000Y-70200000D01*
X123200000Y-66449500D02*
X124179500Y-66449500D01*
X118740000Y-66740000D02*
X118500000Y-66740000D01*
X132485000Y-69750000D02*
X132485000Y-69035000D01*
X120750000Y-67250000D02*
X119250000Y-67250000D01*
X129131925Y-55118075D02*
X129900000Y-54350000D01*
X131450000Y-67750000D02*
X131450000Y-67250000D01*
X127250000Y-63550000D02*
X127250000Y-62500000D01*
X121550500Y-66449500D02*
X120750000Y-67250000D01*
X129900000Y-54350000D02*
X129900000Y-53862500D01*
X132220884Y-69035000D02*
X132485000Y-69035000D01*
X132260000Y-56240000D02*
X131750000Y-56750000D01*
X133020000Y-66980000D02*
X133020000Y-67250000D01*
X133790000Y-70200000D02*
X134510000Y-69480000D01*
%TO.N,/~{RESET}*%
X123250000Y-68250000D02*
X123000000Y-68000000D01*
X118470000Y-67730000D02*
X118500000Y-67760000D01*
X123500000Y-68500000D02*
X123250000Y-68250000D01*
X127750000Y-69000000D02*
X127500000Y-69250000D01*
X127500000Y-69250000D02*
X124250000Y-69250000D01*
X123000000Y-68000000D02*
X118750000Y-68000000D01*
X124250000Y-69250000D02*
X123250000Y-68250000D01*
X117250000Y-67730000D02*
X118470000Y-67730000D01*
X127750000Y-68450000D02*
X127750000Y-69000000D01*
%TO.N,/SCK*%
X126550000Y-67750000D02*
X126000000Y-67750000D01*
X125500000Y-68250000D02*
X125500000Y-68500000D01*
X126000000Y-67750000D02*
X125500000Y-68250000D01*
%TO.N,/MOSI*%
X126550000Y-68450000D02*
X126500000Y-68500000D01*
X127250000Y-68450000D02*
X126550000Y-68450000D01*
%TO.N,Net-(D1-K)*%
X128950000Y-56137500D02*
X128950000Y-57550000D01*
X126045000Y-56062500D02*
X128875000Y-56062500D01*
X128950000Y-57550000D02*
X128550000Y-57950000D01*
X128875000Y-56062500D02*
X128950000Y-56137500D01*
X128550000Y-57950000D02*
X128000000Y-57950000D01*
X128950000Y-57550000D02*
X129280000Y-57550000D01*
X129280000Y-57550000D02*
X129500000Y-57770000D01*
%TO.N,+BATT*%
X125095000Y-55155000D02*
X125095000Y-57937500D01*
X125750000Y-54500000D02*
X125095000Y-55155000D01*
X134500000Y-49412500D02*
X135412500Y-48500000D01*
X125750000Y-54500000D02*
X125750000Y-53837500D01*
X125750000Y-53837500D02*
X126137500Y-53450000D01*
X134500000Y-49412500D02*
X135662500Y-49412500D01*
X135412500Y-48500000D02*
X136525000Y-48500000D01*
X135662500Y-49412500D02*
X136000000Y-49750000D01*
%TO.N,Net-(C8-Pad1)*%
X130250000Y-68450000D02*
X129750000Y-68450000D01*
X130250000Y-69520000D02*
X130480000Y-69750000D01*
X130480000Y-69750000D02*
X131515000Y-69750000D01*
X130250000Y-68450000D02*
X130250000Y-69520000D01*
%TO.N,Net-(U1-XTAL_32K_P{slash}ADC1_CH0{slash}IO0)*%
X123165686Y-70750000D02*
X123865686Y-70050000D01*
X123865686Y-70050000D02*
X128200000Y-70050000D01*
X119250000Y-70750000D02*
X123165686Y-70750000D01*
X128200000Y-70050000D02*
X129250000Y-69000000D01*
X129250000Y-69000000D02*
X129250000Y-68450000D01*
%TO.N,Net-(U1-XTAL_32K_N{slash}ADC1_CH1{slash}IO1)*%
X128750000Y-68862652D02*
X127962652Y-69650000D01*
X121350000Y-70350000D02*
X123000000Y-70350000D01*
X123700000Y-69650000D02*
X123000000Y-70350000D01*
X124200000Y-69650000D02*
X123700000Y-69650000D01*
X127962652Y-69650000D02*
X124200000Y-69650000D01*
X120750000Y-69750000D02*
X121350000Y-70350000D01*
X128750000Y-68450000D02*
X128750000Y-68862652D01*
X120750000Y-69500000D02*
X120750000Y-69750000D01*
%TO.N,Net-(U1-XTAL_N)*%
X142750000Y-66520000D02*
X142270000Y-67000000D01*
X131450000Y-66250000D02*
X132250000Y-66250000D01*
X132250000Y-66250000D02*
X133700000Y-64800000D01*
X141800000Y-64800000D02*
X142750000Y-65750000D01*
X133700000Y-64800000D02*
X141800000Y-64800000D01*
X142250000Y-67000000D02*
X141550000Y-67700000D01*
X141550000Y-67700000D02*
X141375000Y-67700000D01*
X142750000Y-65750000D02*
X142750000Y-66520000D01*
X142270000Y-67000000D02*
X142250000Y-67000000D01*
%TO.N,Net-(U1-XTAL_P)*%
X131450000Y-66750000D02*
X132315686Y-66750000D01*
X132315686Y-66750000D02*
X133815686Y-65250000D01*
X133815686Y-65250000D02*
X136490000Y-65250000D01*
X136490000Y-65250000D02*
X137240000Y-66000000D01*
%TO.N,/SDA*%
X143500000Y-47434314D02*
X142565686Y-46500000D01*
X143500000Y-49500000D02*
X143500000Y-47434314D01*
X142500000Y-50500000D02*
X143500000Y-49500000D01*
X142565686Y-46500000D02*
X140800000Y-46500000D01*
X132065686Y-65750000D02*
X133415686Y-64400000D01*
X133415686Y-64400000D02*
X141850000Y-64400000D01*
X142500000Y-63750000D02*
X142500000Y-50500000D01*
X141850000Y-64400000D02*
X142500000Y-63750000D01*
X131450000Y-65750000D02*
X132065686Y-65750000D01*
%TO.N,/SCL*%
X143000000Y-49412254D02*
X143000000Y-47500000D01*
X142400000Y-46900000D02*
X140475000Y-46900000D01*
X141500000Y-64000000D02*
X142000000Y-63500000D01*
X142000000Y-50412254D02*
X143000000Y-49412254D01*
X132000000Y-65250000D02*
X133250000Y-64000000D01*
X143000000Y-47500000D02*
X142400000Y-46900000D01*
X131450000Y-65250000D02*
X132000000Y-65250000D01*
X133250000Y-64000000D02*
X141500000Y-64000000D01*
X142000000Y-63500000D02*
X142000000Y-50412254D01*
%TO.N,Net-(U2-V_{DD})*%
X140475000Y-48100000D02*
X141920000Y-48100000D01*
X141920000Y-48100000D02*
X142000000Y-48020000D01*
%TO.N,Net-(J2-Pin_2)*%
X133000000Y-50000000D02*
X133000000Y-47587500D01*
X134500000Y-47587500D02*
X135012500Y-48100000D01*
X133000000Y-47587500D02*
X134500000Y-47587500D01*
X140475000Y-49077500D02*
X139052500Y-50500000D01*
X135012500Y-48100000D02*
X136525000Y-48100000D01*
X139052500Y-50500000D02*
X133500000Y-50500000D01*
X133500000Y-50500000D02*
X133000000Y-50000000D01*
X140475000Y-48500000D02*
X140475000Y-49077500D01*
%TO.N,Net-(U2-BIN)*%
X136525000Y-47300000D02*
X135800000Y-47300000D01*
X135800000Y-47300000D02*
X135010000Y-46510000D01*
X135010000Y-46510000D02*
X135010000Y-46000000D01*
%TO.N,Net-(U3-PROG)*%
X122010000Y-51500000D02*
X123812500Y-51500000D01*
%TO.N,Net-(C1-Pad2)*%
X138260000Y-66000000D02*
X139325000Y-66000000D01*
X138230000Y-66030000D02*
X138260000Y-66000000D01*
X139325000Y-66000000D02*
X139625000Y-66300000D01*
X138230000Y-67250000D02*
X138230000Y-66030000D01*
%TO.N,/LCD_CS*%
X124500000Y-68500000D02*
X124500000Y-68432254D01*
X124500000Y-68432254D02*
X125682254Y-67250000D01*
X125682254Y-67250000D02*
X126550000Y-67250000D01*
%TO.N,/LCD_DC*%
X124250000Y-63000000D02*
X124250000Y-64184314D01*
X125815686Y-65750000D02*
X126550000Y-65750000D01*
X124250000Y-64184314D02*
X125815686Y-65750000D01*
%TO.N,/LCD_BL*%
X122500000Y-65750000D02*
X122250000Y-65500000D01*
X125750000Y-66250000D02*
X125250000Y-65750000D01*
X125250000Y-65750000D02*
X122500000Y-65750000D01*
X126550000Y-66250000D02*
X125750000Y-66250000D01*
%TO.N,/ENC_SW*%
X128850000Y-61150000D02*
X126850000Y-61150000D01*
X130750000Y-55750000D02*
X131240000Y-55750000D01*
X125500000Y-62500000D02*
X125500000Y-64250000D01*
X130990000Y-59010000D02*
X128850000Y-61150000D01*
X126850000Y-61150000D02*
X125500000Y-62500000D01*
X125500000Y-64250000D02*
X126000000Y-64750000D01*
X126000000Y-64750000D02*
X126550000Y-64750000D01*
X131020000Y-58970000D02*
X130990000Y-59000000D01*
X131020000Y-57750000D02*
X130510000Y-57240000D01*
X130510000Y-55990000D02*
X130750000Y-55750000D01*
X131020000Y-57750000D02*
X131020000Y-58970000D01*
X130510000Y-57240000D02*
X130510000Y-55990000D01*
X130990000Y-59000000D02*
X130990000Y-59010000D01*
%TO.N,/ENC_A*%
X131020000Y-61470000D02*
X130990000Y-61500000D01*
X130940000Y-61550000D02*
X130990000Y-61500000D01*
X126250000Y-64250000D02*
X126000000Y-64000000D01*
X127200000Y-61550000D02*
X130940000Y-61550000D01*
X131020000Y-60250000D02*
X131020000Y-61470000D01*
X126000000Y-62750000D02*
X127200000Y-61550000D01*
X126550000Y-64250000D02*
X126250000Y-64250000D01*
X126000000Y-64000000D02*
X126000000Y-62750000D01*
%TO.N,/ENC_B*%
X125934314Y-65250000D02*
X125000000Y-64315686D01*
X125000000Y-62250000D02*
X126500000Y-60750000D01*
X130110000Y-55640000D02*
X131240000Y-54510000D01*
X128500000Y-60750000D02*
X130110000Y-59140000D01*
X125000000Y-64315686D02*
X125000000Y-62250000D01*
X126500000Y-60750000D02*
X128500000Y-60750000D01*
X126550000Y-65250000D02*
X125934314Y-65250000D01*
X130110000Y-59140000D02*
X130110000Y-55640000D01*
X131240000Y-54510000D02*
X131240000Y-53500000D01*
%TO.N,/LCD_BL_K*%
X121010000Y-64000000D02*
X121250000Y-64000000D01*
X121250000Y-64000000D02*
X121750000Y-64500000D01*
%TO.N,Net-(Q2-D)*%
X120125000Y-66450000D02*
X120125000Y-64135000D01*
X120125000Y-64135000D02*
X119990000Y-64000000D01*
%TO.N,/LNA_IN*%
X130750000Y-68450000D02*
X130750000Y-68250000D01*
X136060000Y-67940000D02*
X136000000Y-68000000D01*
X130750000Y-68250000D02*
X132000000Y-68250000D01*
X132000000Y-68250000D02*
X132310000Y-67940000D01*
X136000000Y-68000000D02*
X136000000Y-68515000D01*
X136060000Y-67940000D02*
X136250000Y-67750000D01*
X136250000Y-67750000D02*
X136250000Y-67230000D01*
X132310000Y-67940000D02*
X136060000Y-67940000D01*
%TO.N,Net-(AE1-FEED)*%
X136000000Y-69485000D02*
X134860000Y-70625000D01*
X136945000Y-68540000D02*
X137250000Y-68540000D01*
X136000000Y-69485000D02*
X136945000Y-68540000D01*
X134860000Y-70625000D02*
X134550000Y-70625000D01*
%TO.N,Net-(J4-Pin_1)*%
X133250000Y-61500000D02*
X133750000Y-62000000D01*
X132010000Y-61500000D02*
X133250000Y-61500000D01*
%TO.N,Net-(J4-Pin_2)*%
X132010000Y-59000000D02*
X133416666Y-59000000D01*
X133416666Y-59000000D02*
X133750000Y-59333334D01*
%TO.N,Net-(J4-Pin_4)*%
X133250000Y-53500000D02*
X133750000Y-54000000D01*
X132260000Y-53500000D02*
X133250000Y-53500000D01*
%TD*%
%TA.AperFunction,Conductor*%
%TO.N,GND*%
G36*
X129708000Y-69516613D02*
G01*
X129753387Y-69562000D01*
X129770000Y-69624000D01*
X129770000Y-70554504D01*
X129916196Y-70512031D01*
X130055378Y-70429718D01*
X130148333Y-70336763D01*
X130197697Y-70306512D01*
X130255411Y-70301970D01*
X130309265Y-70310500D01*
X130650734Y-70310499D01*
X130650737Y-70310499D01*
X130719314Y-70299637D01*
X130742175Y-70296017D01*
X130852391Y-70239859D01*
X130899516Y-70192733D01*
X130955101Y-70160641D01*
X131019289Y-70160641D01*
X131074877Y-70192734D01*
X131130645Y-70248502D01*
X131130647Y-70248503D01*
X131242976Y-70305739D01*
X131273032Y-70310499D01*
X131336177Y-70320500D01*
X131693822Y-70320499D01*
X131787022Y-70305739D01*
X131899355Y-70248502D01*
X131912319Y-70235537D01*
X131967906Y-70203444D01*
X132032094Y-70203444D01*
X132087681Y-70235538D01*
X132100645Y-70248502D01*
X132212976Y-70305739D01*
X132243032Y-70310499D01*
X132306177Y-70320500D01*
X132508455Y-70320499D01*
X132555907Y-70329938D01*
X132596136Y-70356818D01*
X132652361Y-70413043D01*
X132668489Y-70432903D01*
X132673033Y-70439859D01*
X132673563Y-70440669D01*
X132696473Y-70458500D01*
X132707492Y-70468232D01*
X132716120Y-70474391D01*
X132723359Y-70479559D01*
X132727420Y-70482587D01*
X132765874Y-70512517D01*
X132765876Y-70512517D01*
X132771775Y-70517109D01*
X132825593Y-70533131D01*
X132830437Y-70534682D01*
X132876512Y-70550500D01*
X132876514Y-70550500D01*
X132883578Y-70552925D01*
X132891043Y-70552616D01*
X132891046Y-70552617D01*
X132939668Y-70550605D01*
X132944792Y-70550500D01*
X133740788Y-70550500D01*
X133766234Y-70553139D01*
X133767556Y-70553416D01*
X133775315Y-70555043D01*
X133801364Y-70551795D01*
X133804123Y-70551452D01*
X133818795Y-70550541D01*
X133838013Y-70547334D01*
X133843076Y-70546595D01*
X133858462Y-70544677D01*
X133910164Y-70538234D01*
X133978421Y-70549142D01*
X134030234Y-70594898D01*
X134049500Y-70661282D01*
X134049500Y-70876000D01*
X134032887Y-70938000D01*
X133987500Y-70983387D01*
X133925500Y-71000000D01*
X123710729Y-71000000D01*
X123654434Y-70986485D01*
X123610411Y-70948885D01*
X123588256Y-70895398D01*
X123592798Y-70837682D01*
X123623048Y-70788319D01*
X123724549Y-70686819D01*
X123974548Y-70436819D01*
X124014777Y-70409939D01*
X124062230Y-70400500D01*
X128150788Y-70400500D01*
X128176234Y-70403139D01*
X128177556Y-70403416D01*
X128185315Y-70405043D01*
X128211364Y-70401795D01*
X128214123Y-70401452D01*
X128228795Y-70400541D01*
X128248013Y-70397334D01*
X128253069Y-70396596D01*
X128301393Y-70390573D01*
X128301394Y-70390572D01*
X128308808Y-70389648D01*
X128315378Y-70386092D01*
X128315381Y-70386092D01*
X128358201Y-70362918D01*
X128362747Y-70360577D01*
X128406484Y-70339198D01*
X128406486Y-70339195D01*
X128413195Y-70335916D01*
X128418254Y-70330419D01*
X128418258Y-70330418D01*
X128451254Y-70294572D01*
X128454756Y-70290924D01*
X128593739Y-70151941D01*
X128641252Y-70122309D01*
X128696959Y-70116602D01*
X128749497Y-70135984D01*
X128788150Y-70176503D01*
X128870281Y-70315379D01*
X128984620Y-70429718D01*
X129123803Y-70512031D01*
X129270000Y-70554504D01*
X129270000Y-69624000D01*
X129286613Y-69562000D01*
X129332000Y-69516613D01*
X129394000Y-69500000D01*
X129646000Y-69500000D01*
X129708000Y-69516613D01*
G37*
%TD.AperFunction*%
%TA.AperFunction,Conductor*%
G36*
X134938000Y-68307113D02*
G01*
X134983387Y-68352500D01*
X135000000Y-68414500D01*
X135000000Y-68646000D01*
X134983387Y-68708000D01*
X134938000Y-68753387D01*
X134876000Y-68770000D01*
X134550000Y-68770000D01*
X134550000Y-68843478D01*
X134536485Y-68899773D01*
X134498886Y-68943796D01*
X134474688Y-68953819D01*
X134475324Y-68955067D01*
X134413662Y-68986485D01*
X134357368Y-69000000D01*
X133980000Y-69000000D01*
X133980000Y-69462956D01*
X133970561Y-69510409D01*
X133943681Y-69550637D01*
X133681137Y-69813181D01*
X133640909Y-69840061D01*
X133593456Y-69849500D01*
X133154499Y-69849500D01*
X133092499Y-69832887D01*
X133047112Y-69787500D01*
X133030499Y-69725500D01*
X133030499Y-69550052D01*
X133047275Y-69487771D01*
X133093062Y-69442342D01*
X133155473Y-69426056D01*
X133217620Y-69443320D01*
X133333803Y-69512031D01*
X133480000Y-69554504D01*
X133480000Y-68624000D01*
X133496613Y-68562000D01*
X133542000Y-68516613D01*
X133604000Y-68500000D01*
X133900000Y-68500000D01*
X133900000Y-68414500D01*
X133916613Y-68352500D01*
X133962000Y-68307113D01*
X134024000Y-68290500D01*
X134876000Y-68290500D01*
X134938000Y-68307113D01*
G37*
%TD.AperFunction*%
%TA.AperFunction,Conductor*%
G36*
X122789180Y-68369696D02*
G01*
X122834934Y-68421341D01*
X122846003Y-68489445D01*
X122844721Y-68499999D01*
X122851599Y-68556644D01*
X122842571Y-68620217D01*
X122802956Y-68670750D01*
X122770000Y-68695494D01*
X122770000Y-69626000D01*
X122753387Y-69688000D01*
X122708000Y-69733387D01*
X122646000Y-69750000D01*
X122394000Y-69750000D01*
X122332000Y-69733387D01*
X122286613Y-69688000D01*
X122270000Y-69626000D01*
X122270000Y-68695496D01*
X122123803Y-68737968D01*
X121984620Y-68820281D01*
X121870281Y-68934620D01*
X121787967Y-69073805D01*
X121743576Y-69226603D01*
X121714447Y-69277364D01*
X121665280Y-69309111D01*
X121607028Y-69314771D01*
X121552669Y-69293084D01*
X121514311Y-69248881D01*
X121500500Y-69192008D01*
X121500500Y-68575325D01*
X121485256Y-68498692D01*
X121486589Y-68444371D01*
X121511019Y-68395836D01*
X121553856Y-68362405D01*
X121606873Y-68350500D01*
X122722907Y-68350500D01*
X122789180Y-68369696D01*
G37*
%TD.AperFunction*%
%TA.AperFunction,Conductor*%
G36*
X128469519Y-64352290D02*
G01*
X128500000Y-64382771D01*
X128530481Y-64352290D01*
X128586068Y-64320196D01*
X128650256Y-64320196D01*
X128705843Y-64352290D01*
X129000000Y-64646447D01*
X129294157Y-64352290D01*
X129349744Y-64320196D01*
X129413932Y-64320196D01*
X129469519Y-64352290D01*
X129500000Y-64382771D01*
X129530481Y-64352290D01*
X129586068Y-64320196D01*
X129650256Y-64320196D01*
X129705843Y-64352290D01*
X130647709Y-65294156D01*
X130679803Y-65349743D01*
X130679803Y-65413931D01*
X130647709Y-65469518D01*
X130617228Y-65499999D01*
X130647709Y-65530480D01*
X130679803Y-65586068D01*
X130679803Y-65650255D01*
X130647709Y-65705843D01*
X130353553Y-66000000D01*
X130647709Y-66294156D01*
X130679803Y-66349744D01*
X130679803Y-66413931D01*
X130647709Y-66469519D01*
X130617228Y-66499999D01*
X130647710Y-66530481D01*
X130679804Y-66586068D01*
X130679804Y-66650256D01*
X130647710Y-66705843D01*
X130000000Y-67353553D01*
X129705843Y-67647709D01*
X129650255Y-67679803D01*
X129586068Y-67679803D01*
X129530480Y-67647709D01*
X129499999Y-67617228D01*
X129469518Y-67647709D01*
X129413931Y-67679803D01*
X129349743Y-67679803D01*
X129294156Y-67647709D01*
X129000000Y-67353553D01*
X128705843Y-67647709D01*
X128650255Y-67679803D01*
X128586068Y-67679803D01*
X128530480Y-67647709D01*
X128499999Y-67617228D01*
X128469518Y-67647709D01*
X128413931Y-67679803D01*
X128349743Y-67679803D01*
X128294156Y-67647709D01*
X127646447Y-67000000D01*
X128353553Y-67000000D01*
X128500000Y-67146447D01*
X128646447Y-67000000D01*
X129353553Y-67000000D01*
X129500000Y-67146447D01*
X129646447Y-67000000D01*
X129500000Y-66853553D01*
X129353553Y-67000000D01*
X128646447Y-67000000D01*
X128500000Y-66853553D01*
X128353553Y-67000000D01*
X127646447Y-67000000D01*
X127352290Y-66705843D01*
X127320196Y-66650256D01*
X127320196Y-66586068D01*
X127352290Y-66530481D01*
X127382771Y-66500000D01*
X127853553Y-66500000D01*
X128000000Y-66646447D01*
X128146447Y-66500000D01*
X128853553Y-66500000D01*
X129000000Y-66646447D01*
X129146447Y-66500000D01*
X129853553Y-66500000D01*
X130000000Y-66646447D01*
X130146447Y-66500000D01*
X130000000Y-66353553D01*
X129853553Y-66500000D01*
X129146447Y-66500000D01*
X129000000Y-66353553D01*
X128853553Y-66500000D01*
X128146447Y-66500000D01*
X128000000Y-66353553D01*
X127853553Y-66500000D01*
X127382771Y-66500000D01*
X127352290Y-66469519D01*
X127320196Y-66413932D01*
X127320196Y-66349744D01*
X127352290Y-66294157D01*
X127646447Y-66000000D01*
X128353553Y-66000000D01*
X128500000Y-66146447D01*
X128646447Y-66000000D01*
X129353553Y-66000000D01*
X129500000Y-66146447D01*
X129646447Y-66000000D01*
X129500000Y-65853553D01*
X129353553Y-66000000D01*
X128646447Y-66000000D01*
X128500000Y-65853553D01*
X128353553Y-66000000D01*
X127646447Y-66000000D01*
X127352290Y-65705843D01*
X127320196Y-65650256D01*
X127320196Y-65586068D01*
X127352290Y-65530481D01*
X127382771Y-65500000D01*
X127853553Y-65500000D01*
X128000000Y-65646447D01*
X128146447Y-65500000D01*
X128853553Y-65500000D01*
X129000000Y-65646447D01*
X129146447Y-65500000D01*
X129853553Y-65500000D01*
X130000000Y-65646447D01*
X130146447Y-65500000D01*
X130000000Y-65353553D01*
X129853553Y-65500000D01*
X129146447Y-65500000D01*
X129000000Y-65353553D01*
X128853553Y-65500000D01*
X128146447Y-65500000D01*
X128000000Y-65353553D01*
X127853553Y-65500000D01*
X127382771Y-65500000D01*
X127352290Y-65469519D01*
X127320196Y-65413932D01*
X127320196Y-65349744D01*
X127352290Y-65294157D01*
X127646447Y-65000000D01*
X128353553Y-65000000D01*
X128500000Y-65146447D01*
X128646447Y-65000000D01*
X129353553Y-65000000D01*
X129500000Y-65146447D01*
X129646447Y-65000000D01*
X129500000Y-64853553D01*
X129353553Y-65000000D01*
X128646447Y-65000000D01*
X128500000Y-64853553D01*
X128353553Y-65000000D01*
X127646447Y-65000000D01*
X128294157Y-64352290D01*
X128349744Y-64320196D01*
X128413932Y-64320196D01*
X128469519Y-64352290D01*
G37*
%TD.AperFunction*%
%TA.AperFunction,Conductor*%
G36*
X135188000Y-66996613D02*
G01*
X135233387Y-67042000D01*
X135250000Y-67104000D01*
X135250000Y-67356000D01*
X135233387Y-67418000D01*
X135188000Y-67463387D01*
X135126000Y-67480000D01*
X134791896Y-67480000D01*
X134776091Y-67490561D01*
X134728638Y-67500000D01*
X133854000Y-67500000D01*
X133792000Y-67483387D01*
X133746613Y-67438000D01*
X133730000Y-67376000D01*
X133730000Y-67124000D01*
X133746613Y-67062000D01*
X133792000Y-67016613D01*
X133854000Y-67000000D01*
X134201362Y-67000000D01*
X134201362Y-67001143D01*
X134209018Y-66999970D01*
X134259240Y-67013954D01*
X134290124Y-67030164D01*
X134443505Y-67067968D01*
X134601475Y-67067968D01*
X134754855Y-67030164D01*
X134823371Y-66994203D01*
X134880996Y-66980000D01*
X135126000Y-66980000D01*
X135188000Y-66996613D01*
G37*
%TD.AperFunction*%
%TA.AperFunction,Conductor*%
G36*
X140520158Y-65165668D02*
G01*
X140565046Y-65207460D01*
X140584415Y-65265654D01*
X140573526Y-65326011D01*
X140535042Y-65373767D01*
X140442810Y-65442811D01*
X140391846Y-65510890D01*
X140336948Y-65552369D01*
X140268389Y-65558195D01*
X140224676Y-65549500D01*
X140224674Y-65549500D01*
X139025326Y-65549500D01*
X139025325Y-65549500D01*
X138952261Y-65564033D01*
X138879185Y-65612860D01*
X138826480Y-65632695D01*
X138770436Y-65627175D01*
X138722614Y-65597437D01*
X138713076Y-65587899D01*
X138713076Y-65587898D01*
X138622102Y-65496924D01*
X138622101Y-65496923D01*
X138622099Y-65496921D01*
X138506518Y-65440417D01*
X138431585Y-65429500D01*
X138431582Y-65429500D01*
X138088418Y-65429500D01*
X138088415Y-65429500D01*
X138013481Y-65440417D01*
X137897898Y-65496922D01*
X137837681Y-65557140D01*
X137782094Y-65589234D01*
X137717906Y-65589234D01*
X137662319Y-65557140D01*
X137602101Y-65496922D01*
X137486518Y-65440417D01*
X137411585Y-65429500D01*
X137411582Y-65429500D01*
X137216544Y-65429500D01*
X137169091Y-65420061D01*
X137128863Y-65393181D01*
X137097863Y-65362181D01*
X137067613Y-65312818D01*
X137063071Y-65255102D01*
X137085226Y-65201615D01*
X137129249Y-65164015D01*
X137185544Y-65150500D01*
X140460731Y-65150500D01*
X140520158Y-65165668D01*
G37*
%TD.AperFunction*%
%TA.AperFunction,Conductor*%
G36*
X121769000Y-60752113D02*
G01*
X121814387Y-60797500D01*
X121831000Y-60859500D01*
X121831000Y-61111000D01*
X121814387Y-61173000D01*
X121769000Y-61218387D01*
X121707000Y-61235000D01*
X121008146Y-61235000D01*
X120942666Y-61216301D01*
X120896934Y-61165844D01*
X120884743Y-61098846D01*
X120909770Y-61035514D01*
X120937816Y-60998963D01*
X120963698Y-60965233D01*
X121021687Y-60825236D01*
X121021687Y-60825235D01*
X121027150Y-60812047D01*
X121054030Y-60771819D01*
X121094258Y-60744939D01*
X121141711Y-60735500D01*
X121707000Y-60735500D01*
X121769000Y-60752113D01*
G37*
%TD.AperFunction*%
%TA.AperFunction,Conductor*%
G36*
X128337501Y-56429613D02*
G01*
X128382888Y-56475000D01*
X128399501Y-56537000D01*
X128399501Y-56681518D01*
X128414354Y-56775304D01*
X128414354Y-56775305D01*
X128414355Y-56775306D01*
X128471948Y-56888340D01*
X128471949Y-56888341D01*
X128471950Y-56888342D01*
X128561658Y-56978050D01*
X128561660Y-56978051D01*
X128563181Y-56979572D01*
X128590061Y-57019801D01*
X128599500Y-57067254D01*
X128599500Y-57353456D01*
X128590060Y-57400910D01*
X128563179Y-57441139D01*
X128521517Y-57482799D01*
X128465930Y-57514891D01*
X128401743Y-57514891D01*
X128346157Y-57482797D01*
X128326346Y-57462986D01*
X128217512Y-57409780D01*
X128187269Y-57405374D01*
X128146949Y-57399500D01*
X128146945Y-57399500D01*
X127853053Y-57399500D01*
X127782491Y-57409780D01*
X127673651Y-57462988D01*
X127587986Y-57548653D01*
X127534780Y-57657487D01*
X127534269Y-57660998D01*
X127524742Y-57726394D01*
X127524500Y-57728054D01*
X127524500Y-58171946D01*
X127532937Y-58229859D01*
X127534780Y-58242509D01*
X127558277Y-58290573D01*
X127587988Y-58351348D01*
X127673653Y-58437013D01*
X127782487Y-58490219D01*
X127782489Y-58490219D01*
X127782491Y-58490220D01*
X127853051Y-58500500D01*
X128146948Y-58500499D01*
X128217509Y-58490220D01*
X128326347Y-58437012D01*
X128412012Y-58351347D01*
X128412012Y-58351345D01*
X128424210Y-58339148D01*
X128476510Y-58307983D01*
X128529216Y-58305802D01*
X128535311Y-58305042D01*
X128535315Y-58305043D01*
X128561158Y-58301821D01*
X128564123Y-58301452D01*
X128579460Y-58300500D01*
X128582492Y-58300500D01*
X128637917Y-58313576D01*
X128681653Y-58350047D01*
X128704474Y-58402221D01*
X128701569Y-58459094D01*
X128695495Y-58480000D01*
X129626000Y-58480000D01*
X129688000Y-58496613D01*
X129733387Y-58542000D01*
X129750000Y-58604000D01*
X129750000Y-58856000D01*
X129733387Y-58918000D01*
X129688000Y-58963387D01*
X129626000Y-58980000D01*
X128695496Y-58980000D01*
X128737968Y-59126196D01*
X128820281Y-59265379D01*
X128934620Y-59379718D01*
X129073495Y-59461848D01*
X129114014Y-59500501D01*
X129133396Y-59553038D01*
X129127689Y-59608746D01*
X129098055Y-59656261D01*
X128687180Y-60067136D01*
X128637817Y-60097386D01*
X128580101Y-60101928D01*
X128526614Y-60079773D01*
X128489014Y-60035750D01*
X128475499Y-59979455D01*
X128475499Y-59828054D01*
X128475499Y-59828052D01*
X128465220Y-59757491D01*
X128412012Y-59648653D01*
X128412011Y-59648652D01*
X128412011Y-59648651D01*
X128326346Y-59562986D01*
X128217512Y-59509780D01*
X128187269Y-59505374D01*
X128146949Y-59499500D01*
X128146945Y-59499500D01*
X127853053Y-59499500D01*
X127782491Y-59509780D01*
X127673651Y-59562988D01*
X127623459Y-59613181D01*
X127583231Y-59640061D01*
X127535778Y-59649500D01*
X125474500Y-59649500D01*
X125412500Y-59632887D01*
X125367113Y-59587500D01*
X125350500Y-59525500D01*
X125350500Y-59436712D01*
X125353139Y-59411266D01*
X125353364Y-59410187D01*
X125355043Y-59402185D01*
X125351452Y-59373377D01*
X125350541Y-59358710D01*
X125350500Y-59358464D01*
X125350500Y-59358460D01*
X125347330Y-59339473D01*
X125346594Y-59334416D01*
X125342868Y-59304523D01*
X125340573Y-59286108D01*
X125340572Y-59286106D01*
X125339648Y-59278692D01*
X125336092Y-59272121D01*
X125336092Y-59272119D01*
X125312920Y-59229302D01*
X125310576Y-59224746D01*
X125285918Y-59174305D01*
X125244601Y-59136269D01*
X125240904Y-59132722D01*
X125238967Y-59130785D01*
X125206074Y-59072051D01*
X125208717Y-59004785D01*
X125246118Y-58948812D01*
X125307248Y-58920632D01*
X125370304Y-58910646D01*
X125483342Y-58853050D01*
X125573050Y-58763342D01*
X125630646Y-58650304D01*
X125645500Y-58556519D01*
X125645499Y-57318482D01*
X125630646Y-57224696D01*
X125624141Y-57211929D01*
X125611008Y-57145910D01*
X125634307Y-57082753D01*
X125687173Y-57041076D01*
X125754024Y-57033164D01*
X125782753Y-57037714D01*
X125863481Y-57050500D01*
X126226518Y-57050499D01*
X126320304Y-57035646D01*
X126433342Y-56978050D01*
X126523050Y-56888342D01*
X126580646Y-56775304D01*
X126592393Y-56701138D01*
X126595500Y-56681521D01*
X126595500Y-56537000D01*
X126612113Y-56475000D01*
X126657500Y-56429613D01*
X126719500Y-56413000D01*
X128275501Y-56413000D01*
X128337501Y-56429613D01*
G37*
%TD.AperFunction*%
%TA.AperFunction,Conductor*%
G36*
X123735927Y-57786681D02*
G01*
X123778872Y-57831753D01*
X123794500Y-57892015D01*
X123794500Y-58483288D01*
X123791861Y-58508734D01*
X123789957Y-58517814D01*
X123793548Y-58546623D01*
X123794458Y-58561295D01*
X123797665Y-58580513D01*
X123798403Y-58585578D01*
X123805351Y-58641309D01*
X123832081Y-58690702D01*
X123834421Y-58695247D01*
X123847735Y-58722483D01*
X123859084Y-58745697D01*
X123894274Y-58778092D01*
X123926303Y-58825539D01*
X123933607Y-58882317D01*
X123914628Y-58936325D01*
X123873412Y-58976053D01*
X123732708Y-59059265D01*
X123626387Y-59165587D01*
X123583781Y-59193423D01*
X123533582Y-59201800D01*
X123491492Y-59191141D01*
X123468212Y-59187750D01*
X123430481Y-59175878D01*
X123398409Y-59152727D01*
X123067638Y-58821956D01*
X123051509Y-58802094D01*
X123046437Y-58794330D01*
X123023533Y-58776504D01*
X123012508Y-58766768D01*
X122996653Y-58755448D01*
X122992544Y-58752384D01*
X122948229Y-58717892D01*
X122894409Y-58701869D01*
X122889531Y-58700306D01*
X122836421Y-58682074D01*
X122780332Y-58684394D01*
X122775208Y-58684500D01*
X122575500Y-58684500D01*
X122513500Y-58667887D01*
X122468113Y-58622500D01*
X122451500Y-58560500D01*
X122451500Y-58499398D01*
X122465642Y-58441889D01*
X122504843Y-58397498D01*
X122560162Y-58376350D01*
X122564126Y-58375855D01*
X122566393Y-58375573D01*
X122566393Y-58375572D01*
X122573808Y-58374648D01*
X122580378Y-58371092D01*
X122580381Y-58371092D01*
X122623201Y-58347918D01*
X122627747Y-58345577D01*
X122671484Y-58324198D01*
X122671485Y-58324196D01*
X122678194Y-58320917D01*
X122683254Y-58315419D01*
X122683258Y-58315418D01*
X122716243Y-58279585D01*
X122719769Y-58275912D01*
X122810724Y-58184957D01*
X122865110Y-58153192D01*
X122905958Y-58152576D01*
X122905958Y-58150500D01*
X123078985Y-58150500D01*
X123232365Y-58112696D01*
X123372240Y-58039283D01*
X123490483Y-57934530D01*
X123568449Y-57821575D01*
X123615544Y-57780858D01*
X123676491Y-57768160D01*
X123735927Y-57786681D01*
G37*
%TD.AperFunction*%
%TA.AperFunction,Conductor*%
G36*
X129359711Y-52967537D02*
G01*
X129405770Y-53010788D01*
X129424538Y-53071120D01*
X129411143Y-53132867D01*
X129364353Y-53224697D01*
X129349500Y-53318479D01*
X129349500Y-54353455D01*
X129340061Y-54400908D01*
X129313181Y-54441136D01*
X129023062Y-54731256D01*
X128982834Y-54758136D01*
X128935381Y-54767575D01*
X128877976Y-54767575D01*
X128822551Y-54754499D01*
X128778815Y-54718027D01*
X128755994Y-54665853D01*
X128758899Y-54608981D01*
X128797099Y-54477490D01*
X128800000Y-54440639D01*
X128800000Y-54112500D01*
X127200000Y-54112500D01*
X127200000Y-54440639D01*
X127202900Y-54477493D01*
X127248717Y-54635197D01*
X127332317Y-54776557D01*
X127448442Y-54892682D01*
X127538785Y-54946111D01*
X127574313Y-54977713D01*
X127595335Y-55020363D01*
X127598760Y-55067788D01*
X127592654Y-55118073D01*
X127611696Y-55274893D01*
X127667713Y-55422598D01*
X127733260Y-55517560D01*
X127754984Y-55580513D01*
X127741006Y-55645626D01*
X127695360Y-55694117D01*
X127631210Y-55712000D01*
X126719499Y-55712000D01*
X126657499Y-55695387D01*
X126612112Y-55650000D01*
X126595499Y-55588000D01*
X126595499Y-55443486D01*
X126595499Y-55443482D01*
X126580646Y-55349696D01*
X126552965Y-55295370D01*
X126523050Y-55236657D01*
X126433343Y-55146950D01*
X126308430Y-55083304D01*
X126257841Y-55035682D01*
X126240806Y-54968325D01*
X126262675Y-54902379D01*
X126277117Y-54881456D01*
X126330220Y-54804523D01*
X126386237Y-54656818D01*
X126405278Y-54500000D01*
X126386237Y-54343182D01*
X126330220Y-54195477D01*
X126276238Y-54117270D01*
X126240482Y-54065468D01*
X126220958Y-54048172D01*
X126184800Y-53992247D01*
X126182788Y-53925682D01*
X126215503Y-53867677D01*
X126296362Y-53786817D01*
X126336590Y-53759938D01*
X126384043Y-53750499D01*
X126681514Y-53750499D01*
X126681518Y-53750499D01*
X126775304Y-53735646D01*
X126888342Y-53678050D01*
X126978050Y-53588342D01*
X126978051Y-53588339D01*
X126989264Y-53577127D01*
X127044852Y-53545033D01*
X127109039Y-53545033D01*
X127164627Y-53577127D01*
X127200000Y-53612500D01*
X128800000Y-53612500D01*
X128800000Y-53284361D01*
X128797099Y-53247509D01*
X128788699Y-53218593D01*
X128785794Y-53161720D01*
X128808615Y-53109547D01*
X128852351Y-53073075D01*
X128907776Y-53059999D01*
X128974635Y-53059999D01*
X129010912Y-53057144D01*
X129166194Y-53012031D01*
X129237536Y-52969840D01*
X129298320Y-52952594D01*
X129359711Y-52967537D01*
G37*
%TD.AperFunction*%
%TA.AperFunction,Conductor*%
G36*
X144254418Y-34750816D02*
G01*
X144319156Y-34755446D01*
X144320034Y-34755511D01*
X144499873Y-34769665D01*
X144516476Y-34772113D01*
X144618010Y-34794200D01*
X144620472Y-34794763D01*
X144756542Y-34827431D01*
X144770911Y-34831818D01*
X144875511Y-34870831D01*
X144879541Y-34872417D01*
X145001688Y-34923012D01*
X145013624Y-34928723D01*
X145114208Y-34983646D01*
X145119533Y-34986729D01*
X145217191Y-35046574D01*
X145229753Y-35054272D01*
X145239255Y-35060719D01*
X145332054Y-35130187D01*
X145338228Y-35135126D01*
X145412800Y-35198817D01*
X145435689Y-35218366D01*
X145442838Y-35224975D01*
X145525023Y-35307160D01*
X145531632Y-35314309D01*
X145598005Y-35392022D01*
X145614861Y-35411757D01*
X145619818Y-35417953D01*
X145689273Y-35510735D01*
X145695726Y-35520245D01*
X145763261Y-35630452D01*
X145766366Y-35635815D01*
X145821266Y-35736356D01*
X145826995Y-35748330D01*
X145877563Y-35870412D01*
X145879184Y-35874532D01*
X145918177Y-35979077D01*
X145922569Y-35993463D01*
X145955223Y-36129476D01*
X145955815Y-36132065D01*
X145977883Y-36233509D01*
X145980335Y-36250138D01*
X145994486Y-36429950D01*
X145994552Y-36430831D01*
X145999184Y-36495581D01*
X145999500Y-36504429D01*
X145999500Y-79745947D01*
X145999234Y-79754058D01*
X145994045Y-79833217D01*
X145993995Y-79833952D01*
X145981291Y-80011573D01*
X145979224Y-80026918D01*
X145957064Y-80138323D01*
X145956613Y-80140490D01*
X145926217Y-80280221D01*
X145922470Y-80293722D01*
X145883793Y-80407660D01*
X145882556Y-80411135D01*
X145834938Y-80538802D01*
X145829969Y-80550311D01*
X145775564Y-80660635D01*
X145773183Y-80665219D01*
X145709154Y-80782478D01*
X145703424Y-80791942D01*
X145634383Y-80895269D01*
X145630548Y-80900688D01*
X145551181Y-81006711D01*
X145545142Y-81014160D01*
X145462867Y-81107976D01*
X145457320Y-81113898D01*
X145363898Y-81207320D01*
X145357976Y-81212867D01*
X145264160Y-81295142D01*
X145256711Y-81301181D01*
X145150688Y-81380548D01*
X145145269Y-81384383D01*
X145041942Y-81453424D01*
X145032478Y-81459154D01*
X144915219Y-81523183D01*
X144910635Y-81525564D01*
X144800311Y-81579969D01*
X144788802Y-81584938D01*
X144661135Y-81632556D01*
X144657660Y-81633793D01*
X144543722Y-81672470D01*
X144530221Y-81676217D01*
X144390490Y-81706613D01*
X144388323Y-81707064D01*
X144276918Y-81729224D01*
X144261573Y-81731291D01*
X144083952Y-81743995D01*
X144083217Y-81744045D01*
X144004058Y-81749234D01*
X143995947Y-81749500D01*
X116004053Y-81749500D01*
X115995942Y-81749234D01*
X115916781Y-81744045D01*
X115916046Y-81743995D01*
X115738425Y-81731291D01*
X115723080Y-81729224D01*
X115611675Y-81707064D01*
X115609508Y-81706613D01*
X115469777Y-81676217D01*
X115456276Y-81672470D01*
X115342338Y-81633793D01*
X115338863Y-81632556D01*
X115211196Y-81584938D01*
X115199687Y-81579969D01*
X115134947Y-81548043D01*
X115089348Y-81525556D01*
X115084779Y-81523183D01*
X114967520Y-81459154D01*
X114958056Y-81453424D01*
X114854729Y-81384383D01*
X114849310Y-81380548D01*
X114793396Y-81338691D01*
X114743278Y-81301173D01*
X114735848Y-81295150D01*
X114642022Y-81212867D01*
X114636100Y-81207320D01*
X114542678Y-81113898D01*
X114537131Y-81107976D01*
X114505450Y-81071851D01*
X114454844Y-81014145D01*
X114448830Y-81006727D01*
X114369450Y-80900688D01*
X114365615Y-80895269D01*
X114296574Y-80791942D01*
X114290844Y-80782478D01*
X114226798Y-80665187D01*
X114224461Y-80660687D01*
X114170024Y-80550300D01*
X114165060Y-80538802D01*
X114117420Y-80411074D01*
X114116228Y-80407725D01*
X114077522Y-80293703D01*
X114073786Y-80280240D01*
X114043374Y-80140437D01*
X114042945Y-80138378D01*
X114020772Y-80026904D01*
X114018709Y-80011587D01*
X114005991Y-79833767D01*
X114005978Y-79833586D01*
X114000764Y-79754042D01*
X114000500Y-79745935D01*
X114000500Y-66520000D01*
X116445496Y-66520000D01*
X117000000Y-66520000D01*
X117000000Y-65991209D01*
X116979084Y-65992854D01*
X116823805Y-66037967D01*
X116684620Y-66120281D01*
X116570281Y-66234620D01*
X116487968Y-66373803D01*
X116445496Y-66520000D01*
X114000500Y-66520000D01*
X114000500Y-62355000D01*
X115407634Y-62355000D01*
X115407932Y-62356948D01*
X115478564Y-62547663D01*
X115586145Y-62720263D01*
X115726266Y-62867669D01*
X115893194Y-62983855D01*
X116080092Y-63064059D01*
X116279311Y-63105000D01*
X116531000Y-63105000D01*
X116531000Y-62355000D01*
X117031000Y-62355000D01*
X117031000Y-63105000D01*
X117231710Y-63105000D01*
X117383339Y-63089580D01*
X117577389Y-63028696D01*
X117755214Y-62929996D01*
X117909531Y-62797520D01*
X118034021Y-62636692D01*
X118123589Y-62454094D01*
X118149246Y-62355000D01*
X119457634Y-62355000D01*
X119457932Y-62356948D01*
X119528564Y-62547663D01*
X119636145Y-62720263D01*
X119776266Y-62867669D01*
X119943194Y-62983855D01*
X120130092Y-63064059D01*
X120329311Y-63105000D01*
X120731000Y-63105000D01*
X120731000Y-62355000D01*
X121231000Y-62355000D01*
X121231000Y-63105000D01*
X121581710Y-63105000D01*
X121733339Y-63089580D01*
X121927389Y-63028696D01*
X122105214Y-62929996D01*
X122259531Y-62797520D01*
X122384021Y-62636692D01*
X122473589Y-62454094D01*
X122499246Y-62355000D01*
X121231000Y-62355000D01*
X120731000Y-62355000D01*
X119457634Y-62355000D01*
X118149246Y-62355000D01*
X117031000Y-62355000D01*
X116531000Y-62355000D01*
X115407634Y-62355000D01*
X114000500Y-62355000D01*
X114000500Y-61855000D01*
X115412753Y-61855000D01*
X116531000Y-61855000D01*
X116531000Y-61105000D01*
X117031000Y-61105000D01*
X117031000Y-61855000D01*
X118154366Y-61855000D01*
X118154067Y-61853051D01*
X118083435Y-61662336D01*
X117975854Y-61489736D01*
X117835733Y-61342330D01*
X117668805Y-61226144D01*
X117481907Y-61145940D01*
X117282689Y-61105000D01*
X117031000Y-61105000D01*
X116531000Y-61105000D01*
X116330290Y-61105000D01*
X116178660Y-61120419D01*
X115984610Y-61181303D01*
X115806785Y-61280003D01*
X115652468Y-61412479D01*
X115527978Y-61573307D01*
X115438410Y-61755905D01*
X115412753Y-61854999D01*
X115412753Y-61855000D01*
X114000500Y-61855000D01*
X114000500Y-53715000D01*
X115407634Y-53715000D01*
X115407932Y-53716948D01*
X115478564Y-53907663D01*
X115586145Y-54080263D01*
X115726266Y-54227669D01*
X115893194Y-54343855D01*
X116080092Y-54424059D01*
X116279311Y-54465000D01*
X116531000Y-54465000D01*
X116531000Y-53715000D01*
X115407634Y-53715000D01*
X114000500Y-53715000D01*
X114000500Y-53215000D01*
X115412753Y-53215000D01*
X116531000Y-53215000D01*
X116531000Y-52465000D01*
X116330290Y-52465000D01*
X116178660Y-52480419D01*
X115984610Y-52541303D01*
X115806785Y-52640003D01*
X115652468Y-52772479D01*
X115527978Y-52933307D01*
X115438410Y-53115905D01*
X115412753Y-53214999D01*
X115412753Y-53215000D01*
X114000500Y-53215000D01*
X114000500Y-49397872D01*
X120449500Y-49397872D01*
X120455909Y-49457482D01*
X120495049Y-49562423D01*
X120506205Y-49592332D01*
X120592453Y-49707546D01*
X120692766Y-49782639D01*
X120707670Y-49793796D01*
X120842518Y-49844091D01*
X120902128Y-49850500D01*
X123897868Y-49850500D01*
X123897872Y-49850500D01*
X123957482Y-49844091D01*
X124092330Y-49793796D01*
X124207546Y-49707546D01*
X124293796Y-49592330D01*
X124344091Y-49457482D01*
X124350500Y-49397872D01*
X124350500Y-48302128D01*
X124344091Y-48242518D01*
X124293796Y-48107670D01*
X124283597Y-48094046D01*
X124207546Y-47992453D01*
X124092332Y-47906205D01*
X124092330Y-47906204D01*
X123957482Y-47855909D01*
X123897872Y-47849500D01*
X120902128Y-47849500D01*
X120854439Y-47854627D01*
X120842517Y-47855909D01*
X120707667Y-47906205D01*
X120592453Y-47992453D01*
X120506205Y-48107667D01*
X120468953Y-48207546D01*
X120455909Y-48242518D01*
X120449500Y-48302128D01*
X120449500Y-49397872D01*
X114000500Y-49397872D01*
X114000500Y-46797869D01*
X114649500Y-46797869D01*
X114655909Y-46857484D01*
X114667638Y-46888931D01*
X114706204Y-46992331D01*
X114792454Y-47107546D01*
X114907669Y-47193796D01*
X115042517Y-47244091D01*
X115102127Y-47250500D01*
X118197872Y-47250499D01*
X118257483Y-47244091D01*
X118392331Y-47193796D01*
X118507546Y-47107546D01*
X118593796Y-46992331D01*
X118616609Y-46931164D01*
X118643047Y-46888931D01*
X118683977Y-46860512D01*
X118732790Y-46850500D01*
X124408456Y-46850500D01*
X124455909Y-46859939D01*
X124496137Y-46886819D01*
X125409861Y-47800543D01*
X125425989Y-47820403D01*
X125431063Y-47828170D01*
X125453969Y-47845998D01*
X125464988Y-47855728D01*
X125465190Y-47855872D01*
X125465193Y-47855875D01*
X125480832Y-47867040D01*
X125484946Y-47870107D01*
X125529270Y-47904606D01*
X125536433Y-47906738D01*
X125536434Y-47906739D01*
X125583112Y-47920635D01*
X125587938Y-47922181D01*
X125634012Y-47938000D01*
X125634014Y-47938000D01*
X125641077Y-47940425D01*
X125648543Y-47940116D01*
X125648546Y-47940117D01*
X125697168Y-47938105D01*
X125702292Y-47938000D01*
X132525500Y-47938000D01*
X132587500Y-47954613D01*
X132632887Y-48000000D01*
X132649500Y-48062000D01*
X132649500Y-49950788D01*
X132646861Y-49976234D01*
X132644957Y-49985314D01*
X132648548Y-50014123D01*
X132649458Y-50028795D01*
X132652665Y-50048013D01*
X132653403Y-50053078D01*
X132660351Y-50108809D01*
X132687081Y-50158202D01*
X132689421Y-50162747D01*
X132704441Y-50193473D01*
X132714084Y-50213198D01*
X132755400Y-50251231D01*
X132759099Y-50254780D01*
X133217359Y-50713040D01*
X133233487Y-50732900D01*
X133238563Y-50740670D01*
X133261473Y-50758501D01*
X133272488Y-50768228D01*
X133288349Y-50779553D01*
X133292456Y-50782616D01*
X133336771Y-50817108D01*
X133390593Y-50833131D01*
X133395437Y-50834682D01*
X133441512Y-50850500D01*
X133441515Y-50850500D01*
X133448579Y-50852925D01*
X133456044Y-50852616D01*
X133456046Y-50852617D01*
X133504678Y-50850606D01*
X133509802Y-50850500D01*
X139003288Y-50850500D01*
X139028734Y-50853139D01*
X139030056Y-50853416D01*
X139037815Y-50855043D01*
X139063864Y-50851795D01*
X139066623Y-50851452D01*
X139081295Y-50850541D01*
X139100513Y-50847334D01*
X139105569Y-50846596D01*
X139153893Y-50840573D01*
X139153894Y-50840572D01*
X139161308Y-50839648D01*
X139167878Y-50836092D01*
X139167881Y-50836092D01*
X139210701Y-50812918D01*
X139215247Y-50810577D01*
X139258984Y-50789198D01*
X139258986Y-50789195D01*
X139265695Y-50785916D01*
X139270754Y-50780419D01*
X139270758Y-50780418D01*
X139303754Y-50744572D01*
X139307256Y-50740924D01*
X140688043Y-49360136D01*
X140707895Y-49344015D01*
X140715669Y-49338937D01*
X140733500Y-49316026D01*
X140743227Y-49305013D01*
X140754550Y-49289153D01*
X140757604Y-49285055D01*
X140787517Y-49246626D01*
X140787517Y-49246623D01*
X140792108Y-49240726D01*
X140795302Y-49230000D01*
X140808129Y-49186912D01*
X140809679Y-49182069D01*
X140825500Y-49135988D01*
X140825500Y-49135984D01*
X140827925Y-49128920D01*
X140827616Y-49121455D01*
X140827617Y-49121454D01*
X140825606Y-49072821D01*
X140825500Y-49067698D01*
X140825500Y-48971991D01*
X140838288Y-48917147D01*
X140874013Y-48873616D01*
X140925308Y-48850374D01*
X140941305Y-48847191D01*
X140997740Y-48835966D01*
X141080601Y-48780601D01*
X141080602Y-48780598D01*
X141088069Y-48775610D01*
X141122238Y-48744642D01*
X141180691Y-48730000D01*
X142126000Y-48730000D01*
X142188000Y-48746613D01*
X142233387Y-48792000D01*
X142250000Y-48854000D01*
X142250000Y-49106000D01*
X142233387Y-49168000D01*
X142188000Y-49213387D01*
X142126000Y-49230000D01*
X141195496Y-49230000D01*
X141237968Y-49376196D01*
X141320281Y-49515379D01*
X141434620Y-49629718D01*
X141573805Y-49712032D01*
X141729083Y-49757144D01*
X141765365Y-49759999D01*
X141857208Y-49759999D01*
X141913503Y-49773514D01*
X141957527Y-49811113D01*
X141979682Y-49864601D01*
X141975140Y-49922317D01*
X141944890Y-49971680D01*
X141786955Y-50129615D01*
X141767104Y-50145737D01*
X141759332Y-50150815D01*
X141741500Y-50173725D01*
X141731765Y-50184750D01*
X141720441Y-50200611D01*
X141717392Y-50204699D01*
X141716004Y-50206484D01*
X141682891Y-50249027D01*
X141666871Y-50302836D01*
X141665309Y-50307712D01*
X141647074Y-50360831D01*
X141649394Y-50416922D01*
X141649500Y-50422046D01*
X141649500Y-63303456D01*
X141640061Y-63350909D01*
X141613181Y-63391137D01*
X141391137Y-63613181D01*
X141350909Y-63640061D01*
X141303456Y-63649500D01*
X141225082Y-63649500D01*
X141159602Y-63630801D01*
X141113870Y-63580345D01*
X141101679Y-63513348D01*
X141119439Y-63468400D01*
X141118289Y-63467924D01*
X141150095Y-63391137D01*
X141185044Y-63306762D01*
X141200500Y-63189361D01*
X141200499Y-62310640D01*
X141185044Y-62193238D01*
X141124536Y-62047159D01*
X141079574Y-61988563D01*
X141028282Y-61921717D01*
X140902840Y-61825463D01*
X140756762Y-61764956D01*
X140639362Y-61749500D01*
X139860637Y-61749500D01*
X139743239Y-61764955D01*
X139597158Y-61825464D01*
X139471717Y-61921717D01*
X139375463Y-62047159D01*
X139314956Y-62193237D01*
X139299500Y-62310637D01*
X139299500Y-63189362D01*
X139314955Y-63306760D01*
X139381711Y-63467923D01*
X139380560Y-63468399D01*
X139398321Y-63513348D01*
X139386130Y-63580345D01*
X139340398Y-63630801D01*
X139274918Y-63649500D01*
X136975082Y-63649500D01*
X136909602Y-63630801D01*
X136863870Y-63580345D01*
X136851679Y-63513348D01*
X136869439Y-63468400D01*
X136868289Y-63467924D01*
X136900095Y-63391137D01*
X136935044Y-63306762D01*
X136950500Y-63189361D01*
X136950499Y-62310640D01*
X136947872Y-62290684D01*
X136958429Y-62222095D01*
X137004186Y-62169919D01*
X137070811Y-62150500D01*
X137106608Y-62150500D01*
X137106610Y-62150500D01*
X137316198Y-62111321D01*
X137515019Y-62034298D01*
X137696302Y-61922052D01*
X137853872Y-61778407D01*
X137982366Y-61608255D01*
X137982366Y-61608253D01*
X137982368Y-61608252D01*
X138030080Y-61512430D01*
X138077405Y-61417389D01*
X138135756Y-61212310D01*
X138155429Y-61000000D01*
X138135756Y-60787690D01*
X138130260Y-60768375D01*
X138077404Y-60582609D01*
X137982368Y-60391747D01*
X137853873Y-60221594D01*
X137696301Y-60077947D01*
X137515017Y-59965701D01*
X137316198Y-59888679D01*
X137301449Y-59885922D01*
X137106610Y-59849500D01*
X136893390Y-59849500D01*
X136753664Y-59875619D01*
X136683801Y-59888679D01*
X136484982Y-59965701D01*
X136303698Y-60077947D01*
X136146126Y-60221594D01*
X136017631Y-60391747D01*
X135922595Y-60582609D01*
X135864243Y-60787689D01*
X135844571Y-60999999D01*
X135864243Y-61212310D01*
X135922593Y-61417386D01*
X135998699Y-61570229D01*
X136011566Y-61631227D01*
X135993125Y-61690778D01*
X135948037Y-61733829D01*
X135887698Y-61749500D01*
X135610637Y-61749500D01*
X135493239Y-61764955D01*
X135347158Y-61825464D01*
X135221717Y-61921717D01*
X135125463Y-62047159D01*
X135064956Y-62193237D01*
X135049500Y-62310637D01*
X135049500Y-63189362D01*
X135064955Y-63306760D01*
X135131711Y-63467923D01*
X135130560Y-63468399D01*
X135148321Y-63513348D01*
X135136130Y-63580345D01*
X135090398Y-63630801D01*
X135024918Y-63649500D01*
X133299212Y-63649500D01*
X133273766Y-63646861D01*
X133264685Y-63644957D01*
X133235877Y-63648548D01*
X133221201Y-63649458D01*
X133201961Y-63652668D01*
X133196903Y-63653405D01*
X133141189Y-63660351D01*
X133091813Y-63687072D01*
X133087262Y-63689415D01*
X133062014Y-63701759D01*
X133004892Y-63714332D01*
X132948361Y-63699322D01*
X132904999Y-63660069D01*
X132884454Y-63605307D01*
X132877586Y-63548742D01*
X132821569Y-63401037D01*
X132756495Y-63306760D01*
X132731833Y-63271031D01*
X132731832Y-63271030D01*
X132613589Y-63166277D01*
X132595567Y-63156818D01*
X132473713Y-63092863D01*
X132320334Y-63055060D01*
X132222710Y-63055060D01*
X132165084Y-63040857D01*
X132120660Y-63001500D01*
X132099614Y-62946007D01*
X132094885Y-62907059D01*
X132081168Y-62794090D01*
X132025151Y-62646385D01*
X131964048Y-62557862D01*
X131935415Y-62516379D01*
X131925089Y-62507231D01*
X131817171Y-62411625D01*
X131770830Y-62387303D01*
X131677295Y-62338211D01*
X131523916Y-62300408D01*
X131365946Y-62300408D01*
X131212566Y-62338211D01*
X131072692Y-62411624D01*
X130954446Y-62516379D01*
X130864710Y-62646384D01*
X130803355Y-62808167D01*
X130802533Y-62807855D01*
X130788089Y-62845942D01*
X130743666Y-62885296D01*
X130686043Y-62899500D01*
X130650826Y-62899500D01*
X130605236Y-62905501D01*
X130552403Y-62930138D01*
X130499998Y-62941756D01*
X130447594Y-62930138D01*
X130447289Y-62929996D01*
X130440925Y-62927028D01*
X130394759Y-62905500D01*
X130349180Y-62899500D01*
X130150825Y-62899500D01*
X130105237Y-62905501D01*
X130083297Y-62915732D01*
X130021983Y-62927028D01*
X129962922Y-62907059D01*
X129921044Y-62860873D01*
X129906935Y-62800145D01*
X129924163Y-62740227D01*
X129962032Y-62676194D01*
X130007144Y-62520917D01*
X130008790Y-62500000D01*
X129104000Y-62500000D01*
X129042000Y-62483387D01*
X128996613Y-62438000D01*
X128980000Y-62376000D01*
X128980000Y-62124000D01*
X128996613Y-62062000D01*
X129042000Y-62016613D01*
X129104000Y-62000000D01*
X130008790Y-62000000D01*
X130020896Y-61986904D01*
X130024617Y-61968202D01*
X130070312Y-61918772D01*
X130135100Y-61900500D01*
X130473960Y-61900500D01*
X130521413Y-61909939D01*
X130561638Y-61936816D01*
X130599322Y-61974500D01*
X130627900Y-62003078D01*
X130743481Y-62059582D01*
X130818415Y-62070500D01*
X130818418Y-62070500D01*
X131161582Y-62070500D01*
X131161585Y-62070500D01*
X131236518Y-62059582D01*
X131352101Y-62003077D01*
X131412319Y-61942860D01*
X131467906Y-61910766D01*
X131532094Y-61910766D01*
X131587681Y-61942860D01*
X131647898Y-62003077D01*
X131763481Y-62059582D01*
X131838415Y-62070500D01*
X131838418Y-62070500D01*
X132181582Y-62070500D01*
X132181585Y-62070500D01*
X132256518Y-62059582D01*
X132372099Y-62003078D01*
X132372100Y-62003076D01*
X132372102Y-62003076D01*
X132463076Y-61912102D01*
X132463076Y-61912100D01*
X132477706Y-61897471D01*
X132478672Y-61898437D01*
X132504937Y-61869310D01*
X132570596Y-61850500D01*
X132625500Y-61850500D01*
X132687500Y-61867113D01*
X132732887Y-61912500D01*
X132749500Y-61974500D01*
X132749500Y-62389362D01*
X132764955Y-62506760D01*
X132825464Y-62652841D01*
X132921717Y-62778282D01*
X133009894Y-62845942D01*
X133047159Y-62874536D01*
X133193238Y-62935044D01*
X133310639Y-62950500D01*
X134189360Y-62950499D01*
X134189362Y-62950499D01*
X134255775Y-62941756D01*
X134306762Y-62935044D01*
X134452841Y-62874536D01*
X134578282Y-62778282D01*
X134674536Y-62652841D01*
X134735044Y-62506762D01*
X134750500Y-62389361D01*
X134750499Y-61610640D01*
X134745584Y-61573307D01*
X134735044Y-61493239D01*
X134726075Y-61471585D01*
X134674536Y-61347159D01*
X134625980Y-61283879D01*
X134578282Y-61221717D01*
X134452840Y-61125463D01*
X134306762Y-61064956D01*
X134189362Y-61049500D01*
X133310637Y-61049500D01*
X133193239Y-61064955D01*
X133043152Y-61127123D01*
X133013600Y-61142919D01*
X132973742Y-61149500D01*
X132594959Y-61149500D01*
X132538664Y-61135985D01*
X132494641Y-61098385D01*
X132472486Y-61044898D01*
X132477028Y-60987182D01*
X132507278Y-60937818D01*
X132629720Y-60815376D01*
X132712032Y-60676194D01*
X132757144Y-60520917D01*
X132758790Y-60500000D01*
X131854000Y-60500000D01*
X131792000Y-60483387D01*
X131746613Y-60438000D01*
X131730000Y-60376000D01*
X131730000Y-60124000D01*
X131746613Y-60062000D01*
X131792000Y-60016613D01*
X131854000Y-60000000D01*
X132774922Y-60000000D01*
X132829766Y-60012788D01*
X132873298Y-60048514D01*
X132921717Y-60111616D01*
X133020757Y-60187611D01*
X133047159Y-60207870D01*
X133193238Y-60268378D01*
X133310639Y-60283834D01*
X134189360Y-60283833D01*
X134189362Y-60283833D01*
X134248060Y-60276105D01*
X134306762Y-60268378D01*
X134452841Y-60207870D01*
X134578282Y-60111616D01*
X134674536Y-59986175D01*
X134735044Y-59840096D01*
X134750500Y-59722695D01*
X134750499Y-58943974D01*
X134746111Y-58910644D01*
X134735044Y-58826573D01*
X134733132Y-58821956D01*
X134674536Y-58680493D01*
X134644469Y-58641309D01*
X134578282Y-58555051D01*
X134452840Y-58458797D01*
X134306762Y-58398290D01*
X134189362Y-58382834D01*
X133310637Y-58382834D01*
X133193239Y-58398289D01*
X133047158Y-58458798D01*
X132921718Y-58555051D01*
X132886472Y-58600986D01*
X132842940Y-58636712D01*
X132788096Y-58649500D01*
X132594959Y-58649500D01*
X132538664Y-58635985D01*
X132494641Y-58598385D01*
X132472486Y-58544898D01*
X132477028Y-58487182D01*
X132507278Y-58437818D01*
X132629720Y-58315376D01*
X132712032Y-58176194D01*
X132757144Y-58020917D01*
X132758790Y-58000000D01*
X131854000Y-58000000D01*
X131792000Y-57983387D01*
X131746613Y-57938000D01*
X131730000Y-57876000D01*
X131730000Y-57784698D01*
X132985522Y-57784698D01*
X133055152Y-57819232D01*
X133234573Y-57863853D01*
X133276087Y-57866667D01*
X134223913Y-57866667D01*
X134265424Y-57863853D01*
X134444851Y-57819231D01*
X134514476Y-57784700D01*
X134514476Y-57784698D01*
X133750001Y-57020221D01*
X133750000Y-57020221D01*
X132985522Y-57784698D01*
X131730000Y-57784698D01*
X131730000Y-57624000D01*
X131746613Y-57562000D01*
X131792000Y-57516613D01*
X131854000Y-57500000D01*
X132563115Y-57500000D01*
X132563115Y-57499999D01*
X133396446Y-56666669D01*
X134103553Y-56666669D01*
X134884877Y-57447992D01*
X134952564Y-57311516D01*
X134997185Y-57132094D01*
X134999999Y-57090580D01*
X134999999Y-56242754D01*
X134997185Y-56201243D01*
X134952564Y-56021818D01*
X134884877Y-55885341D01*
X134103553Y-56666668D01*
X134103553Y-56666669D01*
X133396446Y-56666669D01*
X133750000Y-56313115D01*
X134514477Y-55548636D01*
X134444848Y-55514103D01*
X134265426Y-55469482D01*
X134223912Y-55466668D01*
X133276086Y-55466668D01*
X133234575Y-55469482D01*
X133055148Y-55514104D01*
X132950215Y-55566146D01*
X132893729Y-55579050D01*
X132837546Y-55564881D01*
X132793935Y-55526733D01*
X132772417Y-55472936D01*
X132769582Y-55453483D01*
X132764692Y-55443481D01*
X132715121Y-55342081D01*
X132702633Y-55282358D01*
X132720140Y-55223910D01*
X132763403Y-55180886D01*
X132765378Y-55179718D01*
X132879720Y-55065376D01*
X132948548Y-54948995D01*
X132989387Y-54907073D01*
X133044904Y-54888551D01*
X133102730Y-54897554D01*
X133193238Y-54935044D01*
X133310639Y-54950500D01*
X134189360Y-54950499D01*
X134189362Y-54950499D01*
X134248061Y-54942771D01*
X134306762Y-54935044D01*
X134452841Y-54874536D01*
X134578282Y-54778282D01*
X134674536Y-54652841D01*
X134735044Y-54506762D01*
X134750500Y-54389361D01*
X134750499Y-53689362D01*
X135049500Y-53689362D01*
X135064955Y-53806760D01*
X135125464Y-53952841D01*
X135221717Y-54078282D01*
X135272528Y-54117270D01*
X135347159Y-54174536D01*
X135493238Y-54235044D01*
X135610639Y-54250500D01*
X135887700Y-54250499D01*
X135948038Y-54266170D01*
X135993126Y-54309221D01*
X136011567Y-54368772D01*
X135998700Y-54429770D01*
X135922593Y-54582613D01*
X135864243Y-54787689D01*
X135844571Y-55000000D01*
X135864243Y-55212310D01*
X135922595Y-55417390D01*
X136017631Y-55608252D01*
X136146126Y-55778405D01*
X136146128Y-55778407D01*
X136303698Y-55922052D01*
X136484981Y-56034298D01*
X136683802Y-56111321D01*
X136893390Y-56150500D01*
X137106608Y-56150500D01*
X137106610Y-56150500D01*
X137316198Y-56111321D01*
X137515019Y-56034298D01*
X137696302Y-55922052D01*
X137853872Y-55778407D01*
X137982366Y-55608255D01*
X137982366Y-55608253D01*
X137982368Y-55608252D01*
X138047278Y-55477892D01*
X138077405Y-55417389D01*
X138135756Y-55212310D01*
X138155429Y-55000000D01*
X138136172Y-54792175D01*
X138135756Y-54787689D01*
X138096705Y-54650444D01*
X138077405Y-54582611D01*
X138057720Y-54543078D01*
X137982368Y-54391747D01*
X137853873Y-54221594D01*
X137696301Y-54077947D01*
X137561458Y-53994456D01*
X137515019Y-53965702D01*
X137515017Y-53965701D01*
X137316198Y-53888679D01*
X137299989Y-53885649D01*
X137106610Y-53849500D01*
X137106608Y-53849500D01*
X137070812Y-53849500D01*
X137004187Y-53830080D01*
X136958430Y-53777904D01*
X136947873Y-53709314D01*
X136948665Y-53703297D01*
X136950500Y-53689362D01*
X139299500Y-53689362D01*
X139314955Y-53806760D01*
X139375464Y-53952841D01*
X139471717Y-54078282D01*
X139522528Y-54117270D01*
X139597159Y-54174536D01*
X139743238Y-54235044D01*
X139860639Y-54250500D01*
X140639360Y-54250499D01*
X140639362Y-54250499D01*
X140698061Y-54242771D01*
X140756762Y-54235044D01*
X140902841Y-54174536D01*
X141028282Y-54078282D01*
X141124536Y-53952841D01*
X141185044Y-53806762D01*
X141200500Y-53689361D01*
X141200499Y-52810640D01*
X141200038Y-52807140D01*
X141185044Y-52693239D01*
X141185044Y-52693238D01*
X141124536Y-52547159D01*
X141091595Y-52504229D01*
X141028282Y-52421717D01*
X140902840Y-52325463D01*
X140756762Y-52264956D01*
X140639362Y-52249500D01*
X139860637Y-52249500D01*
X139743239Y-52264955D01*
X139597158Y-52325464D01*
X139471717Y-52421717D01*
X139375463Y-52547159D01*
X139314956Y-52693237D01*
X139299500Y-52810637D01*
X139299500Y-53689362D01*
X136950500Y-53689362D01*
X136950500Y-53689361D01*
X136950499Y-52810640D01*
X136950038Y-52807140D01*
X136935044Y-52693239D01*
X136935044Y-52693238D01*
X136874536Y-52547159D01*
X136841595Y-52504229D01*
X136778282Y-52421717D01*
X136652840Y-52325463D01*
X136506762Y-52264956D01*
X136389362Y-52249500D01*
X135610637Y-52249500D01*
X135493239Y-52264955D01*
X135347158Y-52325464D01*
X135221717Y-52421717D01*
X135125463Y-52547159D01*
X135064956Y-52693237D01*
X135049500Y-52810637D01*
X135049500Y-53689362D01*
X134750499Y-53689362D01*
X134750499Y-53610640D01*
X134747563Y-53588340D01*
X134735044Y-53493239D01*
X134726075Y-53471585D01*
X134674536Y-53347159D01*
X134623200Y-53280256D01*
X134578282Y-53221717D01*
X134452840Y-53125463D01*
X134306762Y-53064956D01*
X134189362Y-53049500D01*
X133310637Y-53049500D01*
X133193239Y-53064955D01*
X133043152Y-53127123D01*
X133013600Y-53142919D01*
X132973742Y-53149500D01*
X132904500Y-53149500D01*
X132842500Y-53132887D01*
X132797113Y-53087500D01*
X132783594Y-53037047D01*
X132781796Y-53037310D01*
X132769582Y-52953481D01*
X132713077Y-52837898D01*
X132622101Y-52746922D01*
X132506518Y-52690417D01*
X132431585Y-52679500D01*
X132431582Y-52679500D01*
X132088418Y-52679500D01*
X132088415Y-52679500D01*
X132013481Y-52690417D01*
X131897898Y-52746922D01*
X131837681Y-52807140D01*
X131782094Y-52839234D01*
X131717906Y-52839234D01*
X131662319Y-52807140D01*
X131602101Y-52746922D01*
X131486518Y-52690417D01*
X131411585Y-52679500D01*
X131411582Y-52679500D01*
X131068418Y-52679500D01*
X131068415Y-52679500D01*
X130993481Y-52690417D01*
X130877898Y-52746922D01*
X130786922Y-52837898D01*
X130730417Y-52953481D01*
X130719500Y-53028415D01*
X130719500Y-53471585D01*
X130730417Y-53546518D01*
X130786921Y-53662099D01*
X130786923Y-53662101D01*
X130786924Y-53662102D01*
X130853183Y-53728361D01*
X130880061Y-53768587D01*
X130889500Y-53816040D01*
X130889500Y-53966888D01*
X130880061Y-54014341D01*
X130853180Y-54054570D01*
X130810141Y-54097607D01*
X130753982Y-54207826D01*
X130739500Y-54299263D01*
X130739500Y-54463455D01*
X130730061Y-54510908D01*
X130703180Y-54551137D01*
X130645585Y-54608731D01*
X130592499Y-54640126D01*
X130530854Y-54642062D01*
X130475902Y-54614062D01*
X130441235Y-54563052D01*
X130435432Y-54501650D01*
X130435644Y-54500306D01*
X130435646Y-54500304D01*
X130450500Y-54406519D01*
X130450499Y-53318482D01*
X130435646Y-53224696D01*
X130397332Y-53149500D01*
X130378051Y-53111659D01*
X130337512Y-53071120D01*
X130288342Y-53021950D01*
X130288339Y-53021948D01*
X130286819Y-53020428D01*
X130259939Y-52980199D01*
X130250500Y-52932746D01*
X130250500Y-52523628D01*
X130252027Y-52504229D01*
X130255798Y-52480419D01*
X130260500Y-52450735D01*
X130260499Y-52049266D01*
X130260499Y-52049265D01*
X130260499Y-52049262D01*
X130246017Y-51957825D01*
X130189859Y-51847608D01*
X130102392Y-51760141D01*
X129992173Y-51703982D01*
X129900737Y-51689500D01*
X129559267Y-51689500D01*
X129505412Y-51698030D01*
X129447697Y-51693487D01*
X129398335Y-51663237D01*
X129305379Y-51570281D01*
X129166196Y-51487968D01*
X129020000Y-51445496D01*
X129020000Y-52376000D01*
X129003387Y-52438000D01*
X128958000Y-52483387D01*
X128896000Y-52500000D01*
X127991210Y-52500000D01*
X127992854Y-52520911D01*
X127998808Y-52541403D01*
X128001715Y-52598277D01*
X127978893Y-52650451D01*
X127935158Y-52686923D01*
X127879732Y-52700000D01*
X127784361Y-52700000D01*
X127747506Y-52702900D01*
X127589802Y-52748717D01*
X127448441Y-52832317D01*
X127410863Y-52869896D01*
X127360263Y-52900540D01*
X127301223Y-52904254D01*
X127247182Y-52880193D01*
X127210437Y-52833832D01*
X127199353Y-52775723D01*
X127216451Y-52719092D01*
X127251281Y-52660198D01*
X127297099Y-52502488D01*
X127297295Y-52500000D01*
X124977704Y-52500000D01*
X124977900Y-52502488D01*
X125023719Y-52660200D01*
X125107317Y-52801557D01*
X125193461Y-52887701D01*
X125223711Y-52937063D01*
X125228254Y-52994777D01*
X125224500Y-53018481D01*
X125224500Y-53381514D01*
X125224501Y-53381518D01*
X125239354Y-53475304D01*
X125239354Y-53475305D01*
X125239355Y-53475306D01*
X125296949Y-53588342D01*
X125367286Y-53658679D01*
X125400413Y-53718405D01*
X125398351Y-53758321D01*
X125399500Y-53758321D01*
X125399500Y-53768369D01*
X125397040Y-53785252D01*
X125399394Y-53842168D01*
X125399500Y-53847292D01*
X125399500Y-53885649D01*
X125388573Y-53936546D01*
X125357717Y-53978473D01*
X125350707Y-53984682D01*
X125303291Y-54010874D01*
X125249233Y-54014354D01*
X125198850Y-53994456D01*
X125161757Y-53954978D01*
X125149717Y-53934619D01*
X125035379Y-53820281D01*
X124896194Y-53737967D01*
X124805485Y-53711614D01*
X124758077Y-53685552D01*
X124726278Y-53641784D01*
X124716141Y-53588642D01*
X124729596Y-53536242D01*
X124760646Y-53475304D01*
X124775500Y-53381519D01*
X124775499Y-53018482D01*
X124760646Y-52924696D01*
X124716420Y-52837898D01*
X124703050Y-52811657D01*
X124613343Y-52721950D01*
X124500302Y-52664353D01*
X124406521Y-52649500D01*
X123318485Y-52649500D01*
X123271588Y-52656927D01*
X123224696Y-52664354D01*
X123224694Y-52664354D01*
X123224693Y-52664355D01*
X123111657Y-52721949D01*
X123021950Y-52811656D01*
X122964353Y-52924697D01*
X122949500Y-53018478D01*
X122949500Y-53381514D01*
X122949501Y-53381518D01*
X122964354Y-53475304D01*
X122964354Y-53475305D01*
X122964355Y-53475306D01*
X123021948Y-53588340D01*
X123021949Y-53588341D01*
X123021950Y-53588342D01*
X123088621Y-53655013D01*
X123121748Y-53714741D01*
X123118222Y-53782952D01*
X123114574Y-53793578D01*
X123116894Y-53849668D01*
X123117000Y-53854792D01*
X123117000Y-54009387D01*
X123107561Y-54056840D01*
X123080681Y-54097068D01*
X123080141Y-54097607D01*
X123023982Y-54207826D01*
X123009500Y-54299262D01*
X123009500Y-54700737D01*
X123023982Y-54792174D01*
X123055589Y-54854206D01*
X123069008Y-54915369D01*
X123050831Y-54975290D01*
X123005693Y-55018690D01*
X122945104Y-55034500D01*
X122825000Y-55034500D01*
X122763000Y-55017887D01*
X122717613Y-54972500D01*
X122701000Y-54910500D01*
X122701000Y-54835000D01*
X122240399Y-54835000D01*
X122235322Y-54834500D01*
X122225674Y-54834500D01*
X121141711Y-54834500D01*
X121094258Y-54825061D01*
X121054030Y-54798181D01*
X121027150Y-54757953D01*
X121021687Y-54744764D01*
X120963698Y-54604767D01*
X120946697Y-54582611D01*
X120909770Y-54534486D01*
X120884743Y-54471154D01*
X120896934Y-54404156D01*
X120942666Y-54353699D01*
X121008146Y-54335000D01*
X121331000Y-54335000D01*
X121331000Y-53869000D01*
X121347613Y-53807000D01*
X121393000Y-53761613D01*
X121455000Y-53745000D01*
X121707000Y-53745000D01*
X121769000Y-53761613D01*
X121814387Y-53807000D01*
X121831000Y-53869000D01*
X121831000Y-54335000D01*
X122701000Y-54335000D01*
X122701000Y-54237176D01*
X122694597Y-54177624D01*
X122644352Y-54042910D01*
X122558188Y-53927811D01*
X122529236Y-53906137D01*
X122496832Y-53870020D01*
X122480769Y-53824233D01*
X122483506Y-53775787D01*
X122499246Y-53715000D01*
X119457634Y-53715000D01*
X119457932Y-53716948D01*
X119528564Y-53907663D01*
X119636145Y-54080263D01*
X119776266Y-54227669D01*
X119943194Y-54343855D01*
X119958595Y-54350464D01*
X120003697Y-54383545D01*
X120029673Y-54433080D01*
X120031238Y-54488991D01*
X120008074Y-54539902D01*
X119958302Y-54604766D01*
X119900313Y-54744764D01*
X119885450Y-54857653D01*
X119858364Y-54920132D01*
X119802369Y-54958887D01*
X119734353Y-54962228D01*
X119674830Y-54929148D01*
X119126819Y-54381137D01*
X119099939Y-54340909D01*
X119090500Y-54293456D01*
X119090500Y-53215000D01*
X119462753Y-53215000D01*
X122504366Y-53215000D01*
X122504067Y-53213051D01*
X122433435Y-53022336D01*
X122325854Y-52849736D01*
X122185733Y-52702330D01*
X122018805Y-52586144D01*
X121831907Y-52505940D01*
X121632689Y-52465000D01*
X121506802Y-52465000D01*
X121445027Y-52448517D01*
X121399675Y-52403449D01*
X121382804Y-52341779D01*
X121398899Y-52279902D01*
X121443681Y-52234268D01*
X121517289Y-52190735D01*
X121623611Y-52084413D01*
X121666218Y-52056576D01*
X121716419Y-52048199D01*
X121758496Y-52058855D01*
X121763480Y-52059581D01*
X121763482Y-52059582D01*
X121838418Y-52070500D01*
X122181582Y-52070500D01*
X122181585Y-52070500D01*
X122256518Y-52059582D01*
X122372099Y-52003078D01*
X122372100Y-52003076D01*
X122372102Y-52003076D01*
X122375179Y-51999999D01*
X124977704Y-51999999D01*
X124977705Y-52000000D01*
X127297295Y-52000000D01*
X127297295Y-51999999D01*
X127991209Y-51999999D01*
X127991210Y-52000000D01*
X128520000Y-52000000D01*
X128520000Y-51445496D01*
X128373803Y-51487968D01*
X128234620Y-51570281D01*
X128120281Y-51684620D01*
X128037967Y-51823805D01*
X127992855Y-51979082D01*
X127991209Y-51999999D01*
X127297295Y-51999999D01*
X127297099Y-51997511D01*
X127251280Y-51839799D01*
X127167682Y-51698442D01*
X127081538Y-51612298D01*
X127051288Y-51562934D01*
X127046746Y-51505219D01*
X127050500Y-51481519D01*
X127050499Y-51118482D01*
X127035646Y-51024696D01*
X127007965Y-50970370D01*
X126978050Y-50911657D01*
X126888343Y-50821950D01*
X126775302Y-50764353D01*
X126681521Y-50749500D01*
X125593485Y-50749500D01*
X125546588Y-50756927D01*
X125499696Y-50764354D01*
X125499694Y-50764354D01*
X125499693Y-50764355D01*
X125386657Y-50821949D01*
X125296950Y-50911656D01*
X125239353Y-51024697D01*
X125224500Y-51118478D01*
X125224500Y-51481515D01*
X125224501Y-51481519D01*
X125228254Y-51505217D01*
X125228255Y-51505220D01*
X125223712Y-51562935D01*
X125193463Y-51612297D01*
X125107316Y-51698444D01*
X125023719Y-51839799D01*
X124977900Y-51997511D01*
X124977704Y-51999999D01*
X122375179Y-51999999D01*
X122463076Y-51912102D01*
X122463076Y-51912100D01*
X122477706Y-51897471D01*
X122478672Y-51898437D01*
X122504937Y-51869310D01*
X122570596Y-51850500D01*
X123855974Y-51850500D01*
X123855982Y-51850499D01*
X124406514Y-51850499D01*
X124406518Y-51850499D01*
X124500304Y-51835646D01*
X124613342Y-51778050D01*
X124703050Y-51688342D01*
X124760646Y-51575304D01*
X124775500Y-51481519D01*
X124775499Y-51118482D01*
X124760646Y-51024696D01*
X124732965Y-50970370D01*
X124703050Y-50911657D01*
X124613343Y-50821950D01*
X124500302Y-50764353D01*
X124406521Y-50749500D01*
X123318485Y-50749500D01*
X123271588Y-50756927D01*
X123224696Y-50764354D01*
X123224694Y-50764354D01*
X123224693Y-50764355D01*
X123111657Y-50821949D01*
X123021950Y-50911656D01*
X122964353Y-51024697D01*
X122961154Y-51044898D01*
X122938999Y-51098385D01*
X122894976Y-51135985D01*
X122838681Y-51149500D01*
X122570596Y-51149500D01*
X122504937Y-51130690D01*
X122478672Y-51101562D01*
X122477706Y-51102529D01*
X122463076Y-51087899D01*
X122463076Y-51087898D01*
X122372102Y-50996924D01*
X122372101Y-50996923D01*
X122372099Y-50996921D01*
X122256518Y-50940417D01*
X122181585Y-50929500D01*
X122181582Y-50929500D01*
X121838418Y-50929500D01*
X121838415Y-50929500D01*
X121758506Y-50941142D01*
X121716416Y-50951800D01*
X121666218Y-50943423D01*
X121623613Y-50915587D01*
X121517290Y-50809264D01*
X121379195Y-50727595D01*
X121240000Y-50687156D01*
X121240000Y-51626000D01*
X121223387Y-51688000D01*
X121178000Y-51733387D01*
X121116000Y-51750000D01*
X120010000Y-51750000D01*
X120010000Y-52312844D01*
X120042516Y-52337258D01*
X120080824Y-52384833D01*
X120091772Y-52444926D01*
X120072702Y-52502954D01*
X120028241Y-52544838D01*
X119856785Y-52640003D01*
X119702468Y-52772479D01*
X119577978Y-52933307D01*
X119488410Y-53115905D01*
X119462753Y-53214999D01*
X119462753Y-53215000D01*
X119090500Y-53215000D01*
X119090500Y-52324028D01*
X119107276Y-52261747D01*
X119153063Y-52216318D01*
X119215474Y-52200032D01*
X119277621Y-52217296D01*
X119370804Y-52272404D01*
X119510000Y-52312844D01*
X119510000Y-50687155D01*
X120009999Y-50687155D01*
X120010000Y-50687156D01*
X120010000Y-51250000D01*
X120740000Y-51250000D01*
X120740000Y-50687155D01*
X120600804Y-50727595D01*
X120462709Y-50809264D01*
X120462681Y-50809293D01*
X120461849Y-50809773D01*
X120449227Y-50817238D01*
X120449148Y-50817105D01*
X120407094Y-50841387D01*
X120342906Y-50841387D01*
X120300851Y-50817105D01*
X120300773Y-50817238D01*
X120288150Y-50809773D01*
X120287319Y-50809293D01*
X120287290Y-50809264D01*
X120149195Y-50727595D01*
X120009999Y-50687155D01*
X119510000Y-50687155D01*
X119370804Y-50727595D01*
X119232709Y-50809264D01*
X119126387Y-50915587D01*
X119083781Y-50943423D01*
X119033582Y-50951800D01*
X118991501Y-50941144D01*
X118986511Y-50940417D01*
X118911582Y-50929500D01*
X118568418Y-50929500D01*
X118568415Y-50929500D01*
X118493481Y-50940417D01*
X118377898Y-50996922D01*
X118286922Y-51087898D01*
X118230417Y-51203481D01*
X118219500Y-51278415D01*
X118219500Y-51721585D01*
X118230417Y-51796518D01*
X118286921Y-51912099D01*
X118286923Y-51912101D01*
X118286924Y-51912102D01*
X118353183Y-51978361D01*
X118380061Y-52018587D01*
X118389500Y-52066040D01*
X118389500Y-53156892D01*
X118370732Y-53222484D01*
X118320109Y-53268220D01*
X118252955Y-53280256D01*
X118189599Y-53254948D01*
X118149219Y-53199958D01*
X118083435Y-53022335D01*
X117975854Y-52849736D01*
X117835733Y-52702330D01*
X117668805Y-52586144D01*
X117481907Y-52505940D01*
X117282689Y-52465000D01*
X117031000Y-52465000D01*
X117031000Y-54465000D01*
X117231710Y-54465000D01*
X117383339Y-54449580D01*
X117577389Y-54388696D01*
X117755214Y-54289996D01*
X117909531Y-54157520D01*
X118034021Y-53996692D01*
X118123586Y-53814099D01*
X118145458Y-53729628D01*
X118173490Y-53677581D01*
X118222434Y-53644428D01*
X118281166Y-53637703D01*
X118336337Y-53658934D01*
X118375409Y-53703297D01*
X118389500Y-53760709D01*
X118389500Y-54440788D01*
X118386861Y-54466234D01*
X118384957Y-54475314D01*
X118388548Y-54504123D01*
X118389458Y-54518795D01*
X118392665Y-54538013D01*
X118393403Y-54543078D01*
X118400351Y-54598809D01*
X118427081Y-54648202D01*
X118429421Y-54652747D01*
X118450802Y-54696484D01*
X118450803Y-54696485D01*
X118454084Y-54703196D01*
X118459581Y-54708256D01*
X118459582Y-54708258D01*
X118495399Y-54741230D01*
X118499097Y-54744779D01*
X120002361Y-56248043D01*
X120018489Y-56267903D01*
X120023563Y-56275669D01*
X120046473Y-56293500D01*
X120057492Y-56303232D01*
X120065842Y-56309193D01*
X120073359Y-56314559D01*
X120077420Y-56317587D01*
X120115874Y-56347517D01*
X120115876Y-56347517D01*
X120121775Y-56352109D01*
X120175593Y-56368131D01*
X120180437Y-56369682D01*
X120226512Y-56385500D01*
X120226514Y-56385500D01*
X120233578Y-56387925D01*
X120241043Y-56387616D01*
X120241046Y-56387617D01*
X120289668Y-56385605D01*
X120294792Y-56385500D01*
X120586500Y-56385500D01*
X120648500Y-56402113D01*
X120693887Y-56447500D01*
X120710500Y-56509500D01*
X120710500Y-56709673D01*
X120720671Y-56760809D01*
X120720671Y-56809188D01*
X120710500Y-56860326D01*
X120710500Y-57072846D01*
X120696358Y-57130354D01*
X120657158Y-57174745D01*
X120631752Y-57184457D01*
X120632187Y-57185346D01*
X120623155Y-57189760D01*
X120606904Y-57194965D01*
X120556813Y-57222072D01*
X120552261Y-57224415D01*
X120501804Y-57249082D01*
X120463780Y-57290387D01*
X120460233Y-57294083D01*
X120148453Y-57605863D01*
X120128602Y-57621985D01*
X120120830Y-57627063D01*
X120102998Y-57649973D01*
X120093263Y-57660998D01*
X120081939Y-57676859D01*
X120078890Y-57680947D01*
X120062452Y-57702068D01*
X120044389Y-57725275D01*
X120028369Y-57779084D01*
X120026807Y-57783960D01*
X120008572Y-57837079D01*
X120010892Y-57893170D01*
X120010998Y-57898294D01*
X120010998Y-58385649D01*
X120000073Y-58436540D01*
X119969226Y-58478463D01*
X119876625Y-58560500D01*
X119871014Y-58565471D01*
X119781278Y-58695476D01*
X119725261Y-58843181D01*
X119706219Y-59000000D01*
X119725261Y-59156818D01*
X119781278Y-59304523D01*
X119871013Y-59434528D01*
X119871014Y-59434529D01*
X119871015Y-59434530D01*
X119989258Y-59539283D01*
X120129133Y-59612696D01*
X120282513Y-59650500D01*
X120440482Y-59650500D01*
X120440483Y-59650500D01*
X120560682Y-59620874D01*
X120626648Y-59622701D01*
X120682337Y-59658112D01*
X120711972Y-59717077D01*
X120720671Y-59760805D01*
X120720671Y-59809190D01*
X120710500Y-59860324D01*
X120710500Y-59985987D01*
X120691080Y-60052612D01*
X120638904Y-60098369D01*
X120570315Y-60108925D01*
X120498720Y-60099500D01*
X120423280Y-60099500D01*
X120423279Y-60099500D01*
X120310764Y-60114312D01*
X120170768Y-60172301D01*
X120050549Y-60264549D01*
X119958301Y-60384768D01*
X119900312Y-60524764D01*
X119880533Y-60675000D01*
X119900312Y-60825235D01*
X119958302Y-60965233D01*
X120009812Y-61032363D01*
X120032315Y-61080202D01*
X120032845Y-61133066D01*
X120011306Y-61181347D01*
X119971614Y-61216268D01*
X119856784Y-61280004D01*
X119702468Y-61412479D01*
X119577978Y-61573307D01*
X119488410Y-61755905D01*
X119462753Y-61854999D01*
X119462753Y-61855000D01*
X122523823Y-61855000D01*
X122534427Y-61847946D01*
X122601598Y-61845390D01*
X122660233Y-61878259D01*
X122722709Y-61940735D01*
X122860804Y-62022404D01*
X123000000Y-62062844D01*
X123000000Y-61124000D01*
X123016613Y-61062000D01*
X123062000Y-61016613D01*
X123124000Y-61000000D01*
X123376000Y-61000000D01*
X123438000Y-61016613D01*
X123483387Y-61062000D01*
X123500000Y-61124000D01*
X123500000Y-62062844D01*
X123639195Y-62022404D01*
X123777289Y-61940735D01*
X123883611Y-61834413D01*
X123926218Y-61806576D01*
X123976419Y-61798199D01*
X124018496Y-61808855D01*
X124023480Y-61809581D01*
X124023482Y-61809582D01*
X124098418Y-61820500D01*
X124441582Y-61820500D01*
X124441585Y-61820500D01*
X124516518Y-61809582D01*
X124632101Y-61753077D01*
X124723077Y-61662101D01*
X124779582Y-61546518D01*
X124790500Y-61471585D01*
X124790500Y-61028415D01*
X124779582Y-60953481D01*
X124740521Y-60873580D01*
X124728027Y-60824244D01*
X124736404Y-60774045D01*
X124764238Y-60731441D01*
X125108861Y-60386819D01*
X125149090Y-60359939D01*
X125196543Y-60350500D01*
X126104455Y-60350500D01*
X126160750Y-60364015D01*
X126204773Y-60401615D01*
X126226928Y-60455102D01*
X126222386Y-60512818D01*
X126192136Y-60562181D01*
X124786955Y-61967361D01*
X124767104Y-61983483D01*
X124759332Y-61988561D01*
X124741500Y-62011471D01*
X124731765Y-62022496D01*
X124720441Y-62038357D01*
X124717392Y-62042445D01*
X124713725Y-62047158D01*
X124682891Y-62086773D01*
X124666871Y-62140582D01*
X124665309Y-62145458D01*
X124647074Y-62198577D01*
X124649394Y-62254668D01*
X124649500Y-62259792D01*
X124649500Y-62270224D01*
X124636987Y-62324507D01*
X124601974Y-62367834D01*
X124551526Y-62391462D01*
X124495826Y-62390621D01*
X124328985Y-62349500D01*
X124171015Y-62349500D01*
X124017635Y-62387303D01*
X123877761Y-62460716D01*
X123759515Y-62565471D01*
X123669780Y-62695476D01*
X123613763Y-62843181D01*
X123594721Y-63000000D01*
X123607471Y-63105000D01*
X123613763Y-63156818D01*
X123669780Y-63304523D01*
X123759517Y-63434530D01*
X123857728Y-63521536D01*
X123888575Y-63563460D01*
X123899500Y-63614351D01*
X123899500Y-64135102D01*
X123896861Y-64160548D01*
X123894957Y-64169628D01*
X123898548Y-64198437D01*
X123899458Y-64213109D01*
X123902665Y-64232327D01*
X123903403Y-64237392D01*
X123910351Y-64293123D01*
X123937081Y-64342516D01*
X123939421Y-64347061D01*
X123960802Y-64390798D01*
X123960803Y-64390799D01*
X123964084Y-64397510D01*
X123969581Y-64402570D01*
X123969582Y-64402572D01*
X124005399Y-64435544D01*
X124009097Y-64439093D01*
X124757823Y-65187819D01*
X124788073Y-65237182D01*
X124792615Y-65294898D01*
X124770460Y-65348385D01*
X124726437Y-65385985D01*
X124670142Y-65399500D01*
X123106737Y-65399500D01*
X123050442Y-65385985D01*
X123006418Y-65348385D01*
X122984264Y-65294898D01*
X122973146Y-65224696D01*
X122933276Y-65146447D01*
X122915550Y-65111657D01*
X122825843Y-65021950D01*
X122712802Y-64964353D01*
X122619021Y-64949500D01*
X122619019Y-64949500D01*
X122454882Y-64949500D01*
X122397256Y-64935297D01*
X122352832Y-64895940D01*
X122331786Y-64840446D01*
X122338940Y-64781529D01*
X122365051Y-64712680D01*
X122386237Y-64656818D01*
X122405278Y-64500000D01*
X122386237Y-64343182D01*
X122330220Y-64195477D01*
X122285351Y-64130473D01*
X122240484Y-64065471D01*
X122193159Y-64023545D01*
X122122240Y-63960717D01*
X122018113Y-63906066D01*
X121982364Y-63887303D01*
X121828985Y-63849500D01*
X121671015Y-63849500D01*
X121655960Y-63849500D01*
X121655960Y-63847426D01*
X121615099Y-63846804D01*
X121560724Y-63815042D01*
X121560683Y-63815001D01*
X121537532Y-63782928D01*
X121525660Y-63745201D01*
X121519582Y-63703482D01*
X121519581Y-63703480D01*
X121519581Y-63703478D01*
X121463077Y-63587898D01*
X121372101Y-63496922D01*
X121256518Y-63440417D01*
X121181585Y-63429500D01*
X121181582Y-63429500D01*
X120838418Y-63429500D01*
X120838415Y-63429500D01*
X120763481Y-63440417D01*
X120647898Y-63496922D01*
X120587681Y-63557140D01*
X120532094Y-63589234D01*
X120467906Y-63589234D01*
X120412319Y-63557140D01*
X120352101Y-63496922D01*
X120236518Y-63440417D01*
X120161585Y-63429500D01*
X120161582Y-63429500D01*
X119818418Y-63429500D01*
X119818415Y-63429500D01*
X119743481Y-63440417D01*
X119627898Y-63496922D01*
X119536922Y-63587898D01*
X119480417Y-63703481D01*
X119469500Y-63778415D01*
X119469500Y-64221585D01*
X119480417Y-64296518D01*
X119536922Y-64412101D01*
X119627896Y-64503075D01*
X119627897Y-64503075D01*
X119627898Y-64503076D01*
X119704961Y-64540750D01*
X119755688Y-64586488D01*
X119774500Y-64652150D01*
X119774500Y-65775501D01*
X119757887Y-65837501D01*
X119712500Y-65882888D01*
X119650500Y-65899501D01*
X119505982Y-65899501D01*
X119412196Y-65914354D01*
X119412194Y-65914354D01*
X119412193Y-65914355D01*
X119299157Y-65971949D01*
X119209450Y-66061656D01*
X119151853Y-66174697D01*
X119141798Y-66238183D01*
X119113615Y-66299316D01*
X119057643Y-66336715D01*
X118990378Y-66339358D01*
X118931644Y-66306465D01*
X118912101Y-66286922D01*
X118796518Y-66230417D01*
X118721585Y-66219500D01*
X118721582Y-66219500D01*
X118278418Y-66219500D01*
X118278415Y-66219500D01*
X118203484Y-66230417D01*
X118092080Y-66284879D01*
X118032358Y-66297366D01*
X117973909Y-66279859D01*
X117930886Y-66236596D01*
X117929716Y-66234618D01*
X117815379Y-66120281D01*
X117676194Y-66037967D01*
X117520917Y-65992855D01*
X117500000Y-65991209D01*
X117500000Y-66896000D01*
X117483387Y-66958000D01*
X117438000Y-67003387D01*
X117376000Y-67020000D01*
X116445496Y-67020000D01*
X116487968Y-67166196D01*
X116570281Y-67305379D01*
X116663237Y-67398335D01*
X116693487Y-67447698D01*
X116698029Y-67505414D01*
X116689500Y-67559262D01*
X116689500Y-67900737D01*
X116703982Y-67992174D01*
X116738391Y-68059706D01*
X116751810Y-68120869D01*
X116733633Y-68180790D01*
X116688495Y-68224189D01*
X116627907Y-68240000D01*
X116515365Y-68240000D01*
X116479087Y-68242855D01*
X116323803Y-68287968D01*
X116184620Y-68370281D01*
X116070281Y-68484620D01*
X115987968Y-68623803D01*
X115945496Y-68770000D01*
X116876000Y-68770000D01*
X116938000Y-68786613D01*
X116983387Y-68832000D01*
X117000000Y-68894000D01*
X117000000Y-69146000D01*
X116983387Y-69208000D01*
X116938000Y-69253387D01*
X116876000Y-69270000D01*
X115945496Y-69270000D01*
X115987968Y-69416196D01*
X116070281Y-69555379D01*
X116163237Y-69648335D01*
X116193487Y-69697698D01*
X116198029Y-69755414D01*
X116189500Y-69809262D01*
X116189500Y-70150737D01*
X116203982Y-70242174D01*
X116260140Y-70352391D01*
X116347607Y-70439858D01*
X116347609Y-70439859D01*
X116457825Y-70496017D01*
X116549265Y-70510500D01*
X116950734Y-70510499D01*
X116950737Y-70510499D01*
X117019314Y-70499637D01*
X117042175Y-70496017D01*
X117152391Y-70439859D01*
X117187208Y-70405042D01*
X117225432Y-70366819D01*
X117265660Y-70339939D01*
X117313113Y-70330500D01*
X117379004Y-70330500D01*
X117433848Y-70343288D01*
X117477380Y-70379013D01*
X117500620Y-70430306D01*
X117514034Y-70497740D01*
X117569399Y-70580601D01*
X117652260Y-70635966D01*
X117688793Y-70643233D01*
X117725325Y-70650500D01*
X117725326Y-70650500D01*
X118603456Y-70650500D01*
X118650909Y-70659939D01*
X118691137Y-70686819D01*
X118967361Y-70963043D01*
X118983489Y-70982903D01*
X118988563Y-70990669D01*
X119011473Y-71008500D01*
X119022496Y-71018235D01*
X119038355Y-71029558D01*
X119042464Y-71032622D01*
X119086771Y-71067107D01*
X119093932Y-71069239D01*
X119093934Y-71069240D01*
X119140614Y-71083137D01*
X119145455Y-71084688D01*
X119191512Y-71100500D01*
X119191514Y-71100500D01*
X119198578Y-71102925D01*
X119206044Y-71102616D01*
X119206047Y-71102617D01*
X119254678Y-71100606D01*
X119259802Y-71100500D01*
X120244000Y-71100500D01*
X120303407Y-71115657D01*
X120348291Y-71157423D01*
X120367679Y-71215587D01*
X120356832Y-71275930D01*
X120318400Y-71323700D01*
X119749999Y-71749999D01*
X119750000Y-71750000D01*
X119750000Y-76625500D01*
X119733387Y-76687500D01*
X119688000Y-76732887D01*
X119626000Y-76749500D01*
X117412467Y-76749500D01*
X117240064Y-76779898D01*
X117075552Y-76839776D01*
X116923945Y-76927307D01*
X116789837Y-77039837D01*
X116677307Y-77173945D01*
X116589776Y-77325552D01*
X116529898Y-77490064D01*
X116499500Y-77662467D01*
X116499500Y-79337533D01*
X116514668Y-79423561D01*
X116529899Y-79509938D01*
X116559712Y-79591849D01*
X116589776Y-79674447D01*
X116677307Y-79826054D01*
X116683438Y-79833361D01*
X116789837Y-79960163D01*
X116923945Y-80072692D01*
X117075555Y-80160225D01*
X117240062Y-80220101D01*
X117320676Y-80234315D01*
X117412467Y-80250500D01*
X117412468Y-80250500D01*
X117499901Y-80250500D01*
X117500000Y-80250500D01*
X117500500Y-80250500D01*
X142499500Y-80250500D01*
X142500099Y-80250500D01*
X142587532Y-80250500D01*
X142587533Y-80250500D01*
X142630633Y-80242900D01*
X142759938Y-80220101D01*
X142924445Y-80160225D01*
X143076055Y-80072692D01*
X143210163Y-79960163D01*
X143322692Y-79826055D01*
X143410225Y-79674445D01*
X143470101Y-79509938D01*
X143500500Y-79337532D01*
X143500500Y-79250000D01*
X143500500Y-79249500D01*
X143500500Y-77749901D01*
X143500500Y-77662468D01*
X143470101Y-77490062D01*
X143410225Y-77325555D01*
X143322692Y-77173945D01*
X143210163Y-77039837D01*
X143076055Y-76927308D01*
X143076054Y-76927307D01*
X142924447Y-76839776D01*
X142924446Y-76839775D01*
X142924445Y-76839775D01*
X142759938Y-76779899D01*
X142759937Y-76779898D01*
X142759935Y-76779898D01*
X142587533Y-76749500D01*
X142587532Y-76749500D01*
X142500099Y-76749500D01*
X139874000Y-76749500D01*
X139812000Y-76732887D01*
X139766613Y-76687500D01*
X139750000Y-76625500D01*
X139750000Y-71749999D01*
X138887233Y-71102925D01*
X138750000Y-71000000D01*
X138749999Y-71000000D01*
X135280043Y-71000000D01*
X135223748Y-70986485D01*
X135179725Y-70948885D01*
X135157570Y-70895398D01*
X135162112Y-70837682D01*
X135192362Y-70788319D01*
X135913863Y-70066818D01*
X135954091Y-70039938D01*
X136001544Y-70030499D01*
X136203820Y-70030499D01*
X136203822Y-70030499D01*
X136297022Y-70015739D01*
X136409355Y-69958502D01*
X136498502Y-69869355D01*
X136540210Y-69787500D01*
X136555739Y-69757023D01*
X136559482Y-69733387D01*
X136570500Y-69663823D01*
X136570499Y-69461542D01*
X136579938Y-69414091D01*
X136606816Y-69373864D01*
X136857849Y-69122830D01*
X136901089Y-69094750D01*
X136952017Y-69086684D01*
X137001822Y-69100030D01*
X137052824Y-69126017D01*
X137074021Y-69129374D01*
X137144265Y-69140500D01*
X137485734Y-69140499D01*
X137485735Y-69140499D01*
X137511638Y-69136396D01*
X137539586Y-69131970D01*
X137597302Y-69136512D01*
X137646666Y-69166762D01*
X137739623Y-69259720D01*
X137878803Y-69342031D01*
X138025000Y-69384504D01*
X138025000Y-68454000D01*
X138041613Y-68392000D01*
X138087000Y-68346613D01*
X138149000Y-68330000D01*
X138401000Y-68330000D01*
X138463000Y-68346613D01*
X138508387Y-68392000D01*
X138525000Y-68454000D01*
X138525000Y-69384504D01*
X138671196Y-69342031D01*
X138810379Y-69259718D01*
X138924718Y-69145379D01*
X139007032Y-69006194D01*
X139052144Y-68850916D01*
X139055029Y-68814270D01*
X139074652Y-68756464D01*
X139119480Y-68715027D01*
X139178647Y-68700000D01*
X139375000Y-68700000D01*
X139375000Y-67574000D01*
X139391613Y-67512000D01*
X139437000Y-67466613D01*
X139499000Y-67450000D01*
X139751000Y-67450000D01*
X139813000Y-67466613D01*
X139858387Y-67512000D01*
X139875000Y-67574000D01*
X139875000Y-68700000D01*
X140247824Y-68700000D01*
X140307375Y-68693597D01*
X140442089Y-68643352D01*
X140557190Y-68557187D01*
X140608152Y-68489111D01*
X140663051Y-68447630D01*
X140731609Y-68441804D01*
X140775326Y-68450500D01*
X141974674Y-68450500D01*
X141974675Y-68450500D01*
X142005486Y-68444371D01*
X142047740Y-68435966D01*
X142130601Y-68380601D01*
X142185966Y-68297740D01*
X142185966Y-68297737D01*
X142199668Y-68277232D01*
X142200462Y-68277762D01*
X142214016Y-68251246D01*
X142271818Y-68216134D01*
X142339448Y-68216577D01*
X142479082Y-68257144D01*
X142499999Y-68258790D01*
X142500000Y-68258790D01*
X142500000Y-67730000D01*
X143000000Y-67730000D01*
X143000000Y-68258790D01*
X143020915Y-68257145D01*
X143176194Y-68212032D01*
X143315379Y-68129718D01*
X143429718Y-68015379D01*
X143512031Y-67876196D01*
X143554504Y-67730000D01*
X143000000Y-67730000D01*
X142500000Y-67730000D01*
X142500000Y-67354000D01*
X142516613Y-67292000D01*
X142562000Y-67246613D01*
X142624000Y-67230000D01*
X143554504Y-67230000D01*
X143512031Y-67083803D01*
X143429718Y-66944620D01*
X143336763Y-66851665D01*
X143306513Y-66802302D01*
X143301971Y-66744586D01*
X143306818Y-66713983D01*
X143310500Y-66690735D01*
X143310499Y-66349266D01*
X143310499Y-66349265D01*
X143310499Y-66349262D01*
X143296017Y-66257825D01*
X143239860Y-66147610D01*
X143191250Y-66099000D01*
X143152391Y-66060141D01*
X143152389Y-66060140D01*
X143138504Y-66046255D01*
X143141367Y-66043391D01*
X143118766Y-66022493D01*
X143100500Y-65957714D01*
X143100500Y-65799212D01*
X143103139Y-65773766D01*
X143104564Y-65766968D01*
X143105043Y-65764685D01*
X143101452Y-65735877D01*
X143100541Y-65721213D01*
X143100500Y-65720967D01*
X143100500Y-65720960D01*
X143097330Y-65701965D01*
X143096595Y-65696919D01*
X143090573Y-65648607D01*
X143090572Y-65648605D01*
X143089648Y-65641191D01*
X143086092Y-65634620D01*
X143086092Y-65634619D01*
X143062925Y-65591811D01*
X143060581Y-65587256D01*
X143035918Y-65536805D01*
X143029047Y-65530480D01*
X142994587Y-65498757D01*
X142990914Y-65495232D01*
X142208362Y-64712680D01*
X142176268Y-64657093D01*
X142176268Y-64592906D01*
X142208362Y-64537318D01*
X142459973Y-64285707D01*
X142713043Y-64032636D01*
X142732895Y-64016515D01*
X142740669Y-64011437D01*
X142758500Y-63988526D01*
X142768227Y-63977513D01*
X142779550Y-63961653D01*
X142782604Y-63957555D01*
X142812517Y-63919126D01*
X142812517Y-63919123D01*
X142817108Y-63913226D01*
X142824826Y-63887304D01*
X142833129Y-63859412D01*
X142834679Y-63854569D01*
X142850500Y-63808488D01*
X142850500Y-63808484D01*
X142852925Y-63801420D01*
X142852616Y-63793955D01*
X142852617Y-63793954D01*
X142850606Y-63745321D01*
X142850500Y-63740198D01*
X142850500Y-60858578D01*
X143499378Y-60858578D01*
X143519859Y-61001036D01*
X143576685Y-61125464D01*
X143579648Y-61131952D01*
X143592891Y-61148385D01*
X143617270Y-61178638D01*
X144172463Y-61733829D01*
X144321366Y-61882732D01*
X144340854Y-61898437D01*
X144368048Y-61920352D01*
X144498963Y-61980140D01*
X144641421Y-62000621D01*
X144783879Y-61980140D01*
X144914794Y-61920352D01*
X144961477Y-61882733D01*
X145382732Y-61461477D01*
X145420352Y-61414794D01*
X145480140Y-61283879D01*
X145500621Y-61141421D01*
X145484374Y-61028415D01*
X145480140Y-60998963D01*
X145450246Y-60933506D01*
X145420352Y-60868048D01*
X145382733Y-60821366D01*
X145382729Y-60821361D01*
X144678635Y-60117269D01*
X144671620Y-60111616D01*
X144631952Y-60079648D01*
X144631951Y-60079647D01*
X144501036Y-60019859D01*
X144358578Y-59999378D01*
X144216120Y-60019859D01*
X144085207Y-60079647D01*
X144038519Y-60117270D01*
X143617270Y-60538519D01*
X143579647Y-60585206D01*
X143519859Y-60716120D01*
X143499378Y-60858578D01*
X142850500Y-60858578D01*
X142850500Y-55141421D01*
X143499378Y-55141421D01*
X143519859Y-55283879D01*
X143578688Y-55412693D01*
X143579648Y-55414794D01*
X143617267Y-55461477D01*
X143617269Y-55461479D01*
X143617270Y-55461480D01*
X144038519Y-55882729D01*
X144085206Y-55920352D01*
X144216120Y-55980140D01*
X144358578Y-56000621D01*
X144358578Y-56000620D01*
X144358579Y-56000621D01*
X144501036Y-55980140D01*
X144631952Y-55920352D01*
X144678634Y-55882733D01*
X145382732Y-55178634D01*
X145420352Y-55131952D01*
X145480140Y-55001036D01*
X145500621Y-54858579D01*
X145500229Y-54855855D01*
X145480140Y-54716120D01*
X145445434Y-54640126D01*
X145420352Y-54585206D01*
X145382733Y-54538523D01*
X145178523Y-54334313D01*
X144961480Y-54117270D01*
X144914793Y-54079647D01*
X144783879Y-54019859D01*
X144641421Y-53999378D01*
X144498963Y-54019859D01*
X144368049Y-54079647D01*
X144321361Y-54117270D01*
X143617269Y-54821364D01*
X143579647Y-54868048D01*
X143519859Y-54998963D01*
X143499378Y-55141421D01*
X142850500Y-55141421D01*
X142850500Y-50696544D01*
X142859939Y-50649091D01*
X142886819Y-50608863D01*
X143078760Y-50416922D01*
X143713046Y-49782634D01*
X143732903Y-49766510D01*
X143740669Y-49761437D01*
X143758496Y-49738531D01*
X143768228Y-49727511D01*
X143768370Y-49727311D01*
X143768376Y-49727306D01*
X143779586Y-49711603D01*
X143782613Y-49707546D01*
X143812517Y-49669126D01*
X143812517Y-49669124D01*
X143817108Y-49663227D01*
X143819240Y-49656066D01*
X143833131Y-49609404D01*
X143834686Y-49604549D01*
X143837672Y-49595852D01*
X143850500Y-49558488D01*
X143850500Y-49558484D01*
X143852925Y-49551420D01*
X143852616Y-49543954D01*
X143852617Y-49543953D01*
X143850606Y-49495321D01*
X143850500Y-49490198D01*
X143850500Y-47483527D01*
X143853139Y-47458081D01*
X143853895Y-47454474D01*
X143855043Y-47449000D01*
X143851452Y-47420192D01*
X143850541Y-47405528D01*
X143850500Y-47405282D01*
X143850500Y-47405274D01*
X143847325Y-47386252D01*
X143846597Y-47381255D01*
X143840573Y-47332922D01*
X143840572Y-47332920D01*
X143839648Y-47325505D01*
X143832610Y-47312500D01*
X143812924Y-47276122D01*
X143810577Y-47271563D01*
X143807626Y-47265527D01*
X143789199Y-47227831D01*
X143785918Y-47221119D01*
X143756236Y-47193795D01*
X143744587Y-47183071D01*
X143740914Y-47179546D01*
X142848324Y-46286956D01*
X142832195Y-46267094D01*
X142827123Y-46259330D01*
X142804219Y-46241504D01*
X142793194Y-46231768D01*
X142777339Y-46220448D01*
X142773230Y-46217384D01*
X142728915Y-46182892D01*
X142675095Y-46166869D01*
X142670217Y-46165306D01*
X142617107Y-46147074D01*
X142561018Y-46149394D01*
X142555894Y-46149500D01*
X140424000Y-46149500D01*
X140362000Y-46132887D01*
X140316613Y-46087500D01*
X140300000Y-46025500D01*
X140300000Y-45799676D01*
X140293597Y-45740124D01*
X140243352Y-45605410D01*
X140157188Y-45490311D01*
X140042089Y-45404147D01*
X139907375Y-45353902D01*
X139847824Y-45347500D01*
X139800000Y-45347500D01*
X139800000Y-46263500D01*
X139783387Y-46325500D01*
X139738000Y-46370887D01*
X139676000Y-46387500D01*
X139141052Y-46387500D01*
X139400000Y-46646447D01*
X139868802Y-47115249D01*
X139884928Y-47135106D01*
X139888561Y-47140667D01*
X139888562Y-47140668D01*
X139888563Y-47140669D01*
X139908019Y-47155812D01*
X139919537Y-47165984D01*
X139970783Y-47217230D01*
X140000793Y-47265862D01*
X140005806Y-47322789D01*
X139984758Y-47375918D01*
X139942119Y-47413966D01*
X139931740Y-47419582D01*
X139852516Y-47505642D01*
X139805527Y-47612766D01*
X139805526Y-47612768D01*
X139805527Y-47612768D01*
X139795868Y-47729344D01*
X139824584Y-47842741D01*
X139824585Y-47842742D01*
X139824712Y-47843244D01*
X139824057Y-47906602D01*
X139792187Y-47961365D01*
X139400000Y-48353553D01*
X139141052Y-48612499D01*
X139141053Y-48612500D01*
X139676000Y-48612500D01*
X139738000Y-48629113D01*
X139783387Y-48674500D01*
X139800000Y-48736500D01*
X139800000Y-48941000D01*
X139783387Y-49003000D01*
X139738000Y-49048387D01*
X139676000Y-49065000D01*
X138984000Y-49065000D01*
X138922000Y-49048387D01*
X138876613Y-49003000D01*
X138860000Y-48941000D01*
X138860000Y-48713554D01*
X138859999Y-48713552D01*
X138750000Y-48603552D01*
X138750000Y-48975000D01*
X138776000Y-48975000D01*
X138838000Y-48991613D01*
X138883387Y-49037000D01*
X138900000Y-49099000D01*
X138900000Y-49200324D01*
X138906402Y-49259875D01*
X138956647Y-49394589D01*
X139042811Y-49509688D01*
X139157910Y-49595852D01*
X139197856Y-49610751D01*
X139248235Y-49645730D01*
X139275688Y-49700575D01*
X139273499Y-49761868D01*
X139242203Y-49814614D01*
X138943637Y-50113181D01*
X138903409Y-50140061D01*
X138855956Y-50149500D01*
X136723845Y-50149500D01*
X136666219Y-50135297D01*
X136621795Y-50095940D01*
X136600749Y-50040447D01*
X136607903Y-49981529D01*
X136619561Y-49950788D01*
X136636237Y-49906818D01*
X136655278Y-49750000D01*
X136639423Y-49619423D01*
X136645868Y-49562423D01*
X136677278Y-49514422D01*
X136726932Y-49485694D01*
X136784201Y-49482388D01*
X136836830Y-49505211D01*
X136957911Y-49595852D01*
X137092624Y-49646097D01*
X137152176Y-49652500D01*
X137200000Y-49652500D01*
X137200000Y-49065000D01*
X137032061Y-49065000D01*
X136969470Y-49048044D01*
X136923997Y-49001812D01*
X136908078Y-48938950D01*
X136926067Y-48876647D01*
X136973044Y-48831945D01*
X137046017Y-48792454D01*
X137068258Y-48780418D01*
X137147484Y-48694356D01*
X137150848Y-48686686D01*
X137177936Y-48647620D01*
X137217739Y-48621615D01*
X137264402Y-48612500D01*
X137476000Y-48612500D01*
X137538000Y-48629113D01*
X137583387Y-48674500D01*
X137600000Y-48736500D01*
X137600000Y-49652500D01*
X137647824Y-49652500D01*
X137707375Y-49646097D01*
X137842089Y-49595852D01*
X137957188Y-49509688D01*
X138043352Y-49394589D01*
X138093597Y-49259875D01*
X138100000Y-49200324D01*
X138100000Y-49099000D01*
X138116613Y-49037000D01*
X138162000Y-48991613D01*
X138224000Y-48975000D01*
X138250000Y-48975000D01*
X138250000Y-48603553D01*
X138151934Y-48701620D01*
X138111705Y-48728500D01*
X138064252Y-48737939D01*
X138035748Y-48737939D01*
X137988295Y-48728500D01*
X137948067Y-48701620D01*
X137205353Y-47958906D01*
X137178148Y-47917887D01*
X137169046Y-47869515D01*
X137179478Y-47821416D01*
X137194473Y-47787232D01*
X137204132Y-47670656D01*
X137175416Y-47557259D01*
X137175414Y-47557256D01*
X137170767Y-47538905D01*
X137159131Y-47505008D01*
X137159967Y-47500000D01*
X137453553Y-47500000D01*
X137599999Y-47646447D01*
X137600000Y-47646447D01*
X137600000Y-47353553D01*
X137599999Y-47353552D01*
X139400000Y-47353552D01*
X139400000Y-47646447D01*
X139546447Y-47500000D01*
X139400000Y-47353552D01*
X137599999Y-47353552D01*
X137453553Y-47500000D01*
X137159967Y-47500000D01*
X137169151Y-47444959D01*
X137194473Y-47387232D01*
X137204132Y-47270656D01*
X137175416Y-47157259D01*
X137175415Y-47157258D01*
X137175288Y-47156755D01*
X137175942Y-47093396D01*
X137207812Y-47038633D01*
X137600000Y-46646447D01*
X137850000Y-46396447D01*
X138750000Y-46396447D01*
X138859999Y-46286447D01*
X138860000Y-46286447D01*
X138860000Y-46059000D01*
X138876613Y-45997000D01*
X138922000Y-45951613D01*
X138984000Y-45935000D01*
X139400000Y-45935000D01*
X139400000Y-45347500D01*
X139352176Y-45347500D01*
X139292624Y-45353902D01*
X139157910Y-45404147D01*
X139042811Y-45490311D01*
X138956647Y-45605410D01*
X138906402Y-45740124D01*
X138900000Y-45799676D01*
X138900000Y-45901000D01*
X138883387Y-45963000D01*
X138838000Y-46008387D01*
X138776000Y-46025000D01*
X138750000Y-46025000D01*
X138750000Y-46396447D01*
X137850000Y-46396447D01*
X137948068Y-46298379D01*
X137988296Y-46271499D01*
X138035749Y-46262060D01*
X138064251Y-46262060D01*
X138111704Y-46271499D01*
X138151933Y-46298379D01*
X138250000Y-46396446D01*
X138250000Y-46025000D01*
X138224000Y-46025000D01*
X138162000Y-46008387D01*
X138116613Y-45963000D01*
X138100000Y-45901000D01*
X138100000Y-45799676D01*
X138093597Y-45740124D01*
X138043352Y-45605410D01*
X137957188Y-45490311D01*
X137842089Y-45404147D01*
X137707375Y-45353902D01*
X137647824Y-45347500D01*
X137600000Y-45347500D01*
X137600000Y-46263500D01*
X137583387Y-46325500D01*
X137538000Y-46370887D01*
X137476000Y-46387500D01*
X137262279Y-46387500D01*
X137203261Y-46372555D01*
X137158470Y-46331321D01*
X137111437Y-46259331D01*
X137019125Y-46187482D01*
X136986496Y-46176281D01*
X136930178Y-46136769D01*
X136903589Y-46073320D01*
X136914912Y-46005462D01*
X136960663Y-45954084D01*
X137026759Y-45935000D01*
X137200000Y-45935000D01*
X137200000Y-45347500D01*
X137152176Y-45347500D01*
X137092624Y-45353902D01*
X136957910Y-45404147D01*
X136842811Y-45490311D01*
X136756647Y-45605410D01*
X136706402Y-45740124D01*
X136700000Y-45799676D01*
X136700000Y-45935000D01*
X136702819Y-45937819D01*
X136733069Y-45987182D01*
X136737611Y-46044898D01*
X136715456Y-46098385D01*
X136671433Y-46135985D01*
X136615138Y-46149500D01*
X136075325Y-46149500D01*
X136002261Y-46164033D01*
X135919399Y-46219399D01*
X135864033Y-46302261D01*
X135849500Y-46375325D01*
X135849500Y-46480376D01*
X135849076Y-46490614D01*
X135848045Y-46503076D01*
X135844160Y-46549964D01*
X135843775Y-46549932D01*
X135843325Y-46586280D01*
X135810864Y-46641271D01*
X135755344Y-46672818D01*
X135691487Y-46672554D01*
X135636230Y-46640549D01*
X135507523Y-46511842D01*
X135479686Y-46469235D01*
X135471310Y-46419035D01*
X135483802Y-46369706D01*
X135519582Y-46296518D01*
X135519583Y-46296514D01*
X135530500Y-46221585D01*
X135530500Y-45778415D01*
X135519582Y-45703481D01*
X135463077Y-45587898D01*
X135372101Y-45496922D01*
X135256518Y-45440417D01*
X135181585Y-45429500D01*
X135181582Y-45429500D01*
X134838418Y-45429500D01*
X134838415Y-45429500D01*
X134758506Y-45441142D01*
X134716416Y-45451800D01*
X134666218Y-45443423D01*
X134623613Y-45415587D01*
X134517290Y-45309264D01*
X134379195Y-45227595D01*
X134239999Y-45187155D01*
X134240000Y-45187156D01*
X134240000Y-46126000D01*
X134223387Y-46188000D01*
X134178000Y-46233387D01*
X134116000Y-46250000D01*
X133220069Y-46250000D01*
X133222833Y-46285127D01*
X133267593Y-46439192D01*
X133349264Y-46577290D01*
X133462709Y-46690735D01*
X133600807Y-46772406D01*
X133623984Y-46779140D01*
X133675300Y-46808800D01*
X133706987Y-46858889D01*
X133711806Y-46917964D01*
X133688656Y-46972526D01*
X133606205Y-47082667D01*
X133606204Y-47082669D01*
X133578727Y-47156336D01*
X133552292Y-47198569D01*
X133511361Y-47226988D01*
X133462548Y-47237000D01*
X133019624Y-47237000D01*
X133009386Y-47236577D01*
X133006302Y-47236321D01*
X132970655Y-47233368D01*
X132970255Y-47233335D01*
X132940858Y-47237000D01*
X125889044Y-47237000D01*
X125841591Y-47227561D01*
X125801363Y-47200681D01*
X124887638Y-46286956D01*
X124871509Y-46267094D01*
X124866437Y-46259330D01*
X124843533Y-46241504D01*
X124832508Y-46231768D01*
X124816653Y-46220448D01*
X124812544Y-46217384D01*
X124768229Y-46182892D01*
X124714409Y-46166869D01*
X124709531Y-46165306D01*
X124656421Y-46147074D01*
X124600332Y-46149394D01*
X124595208Y-46149500D01*
X118732790Y-46149500D01*
X118683977Y-46139488D01*
X118643047Y-46111069D01*
X118616609Y-46068835D01*
X118593796Y-46007669D01*
X118507546Y-45892454D01*
X118392331Y-45806204D01*
X118257483Y-45755909D01*
X118202523Y-45750000D01*
X133220069Y-45750000D01*
X133740000Y-45750000D01*
X133740000Y-45187155D01*
X133600804Y-45227595D01*
X133462709Y-45309264D01*
X133349264Y-45422709D01*
X133267593Y-45560807D01*
X133222833Y-45714872D01*
X133220069Y-45750000D01*
X118202523Y-45750000D01*
X118197873Y-45749500D01*
X118197869Y-45749500D01*
X115102130Y-45749500D01*
X115042515Y-45755909D01*
X114907669Y-45806204D01*
X114792454Y-45892454D01*
X114706204Y-46007668D01*
X114657038Y-46139488D01*
X114655909Y-46142517D01*
X114651075Y-46187483D01*
X114649500Y-46202130D01*
X114649500Y-46797869D01*
X114000500Y-46797869D01*
X114000500Y-44750000D01*
X114400001Y-44750000D01*
X114400001Y-44799979D01*
X114410493Y-44902695D01*
X114465642Y-45069122D01*
X114557683Y-45218345D01*
X114681654Y-45342316D01*
X114830877Y-45434357D01*
X114997303Y-45489506D01*
X115100021Y-45500000D01*
X116400000Y-45500000D01*
X116400000Y-44750000D01*
X116900000Y-44750000D01*
X116900000Y-45499999D01*
X118199979Y-45499999D01*
X118302695Y-45489506D01*
X118469122Y-45434357D01*
X118618345Y-45342316D01*
X118742316Y-45218345D01*
X118834357Y-45069122D01*
X118889506Y-44902696D01*
X118900000Y-44799979D01*
X118900000Y-44750000D01*
X116900000Y-44750000D01*
X116400000Y-44750000D01*
X114400001Y-44750000D01*
X114000500Y-44750000D01*
X114000500Y-44250000D01*
X114400000Y-44250000D01*
X116400000Y-44250000D01*
X116400000Y-43500001D01*
X115100021Y-43500001D01*
X114997304Y-43510493D01*
X114830877Y-43565642D01*
X114681654Y-43657683D01*
X114557683Y-43781654D01*
X114465642Y-43930877D01*
X114410493Y-44097303D01*
X114400000Y-44200021D01*
X114400000Y-44250000D01*
X114000500Y-44250000D01*
X114000500Y-43500000D01*
X116900000Y-43500000D01*
X116900000Y-44250000D01*
X118899999Y-44250000D01*
X118899999Y-44200021D01*
X118889506Y-44097304D01*
X118834357Y-43930877D01*
X118742316Y-43781654D01*
X118618345Y-43657683D01*
X118469122Y-43565642D01*
X118302696Y-43510493D01*
X118199979Y-43500000D01*
X116900000Y-43500000D01*
X114000500Y-43500000D01*
X114000500Y-42697868D01*
X120449500Y-42697868D01*
X120455909Y-42757482D01*
X120506205Y-42892332D01*
X120592453Y-43007546D01*
X120707667Y-43093794D01*
X120707670Y-43093796D01*
X120842518Y-43144091D01*
X120902128Y-43150500D01*
X123897868Y-43150500D01*
X123897872Y-43150500D01*
X123957482Y-43144091D01*
X124092330Y-43093796D01*
X124207546Y-43007546D01*
X124293796Y-42892330D01*
X124344091Y-42757482D01*
X124350500Y-42697872D01*
X124350500Y-41602128D01*
X124344091Y-41542518D01*
X124293796Y-41407670D01*
X124293794Y-41407667D01*
X124207546Y-41292453D01*
X124092332Y-41206205D01*
X124092330Y-41206204D01*
X123957482Y-41155909D01*
X123897872Y-41149500D01*
X120902128Y-41149500D01*
X120854439Y-41154627D01*
X120842517Y-41155909D01*
X120707667Y-41206205D01*
X120592453Y-41292453D01*
X120506205Y-41407667D01*
X120455909Y-41542517D01*
X120449500Y-41602132D01*
X120449500Y-42697868D01*
X114000500Y-42697868D01*
X114000500Y-38837533D01*
X116499500Y-38837533D01*
X116514668Y-38923561D01*
X116529899Y-39009938D01*
X116589775Y-39174445D01*
X116677308Y-39326055D01*
X116789837Y-39460163D01*
X116923945Y-39572692D01*
X117075555Y-39660225D01*
X117240062Y-39720101D01*
X117320676Y-39734315D01*
X117412467Y-39750500D01*
X117412468Y-39750500D01*
X117499901Y-39750500D01*
X117500000Y-39750500D01*
X117500500Y-39750500D01*
X142499500Y-39750500D01*
X142500099Y-39750500D01*
X142587532Y-39750500D01*
X142587533Y-39750500D01*
X142630633Y-39742900D01*
X142759938Y-39720101D01*
X142924445Y-39660225D01*
X143076055Y-39572692D01*
X143210163Y-39460163D01*
X143322692Y-39326055D01*
X143410225Y-39174445D01*
X143470101Y-39009938D01*
X143500500Y-38837532D01*
X143500500Y-38750000D01*
X143500500Y-38749500D01*
X143500500Y-37249901D01*
X143500500Y-37162468D01*
X143470101Y-36990062D01*
X143410225Y-36825555D01*
X143322692Y-36673945D01*
X143210163Y-36539837D01*
X143076055Y-36427308D01*
X143076054Y-36427307D01*
X142924447Y-36339776D01*
X142924446Y-36339775D01*
X142924445Y-36339775D01*
X142759938Y-36279899D01*
X142759937Y-36279898D01*
X142759935Y-36279898D01*
X142587533Y-36249500D01*
X142587532Y-36249500D01*
X142500099Y-36249500D01*
X117500500Y-36249500D01*
X117500000Y-36249500D01*
X117412468Y-36249500D01*
X117412467Y-36249500D01*
X117240064Y-36279898D01*
X117075552Y-36339776D01*
X116923945Y-36427307D01*
X116789837Y-36539837D01*
X116677307Y-36673945D01*
X116589776Y-36825552D01*
X116529898Y-36990064D01*
X116499500Y-37162467D01*
X116499500Y-38837533D01*
X114000500Y-38837533D01*
X114000500Y-36754065D01*
X114000765Y-36745956D01*
X114005992Y-36666193D01*
X114018709Y-36488407D01*
X114020771Y-36473099D01*
X114042955Y-36361573D01*
X114043364Y-36359606D01*
X114073788Y-36219749D01*
X114077519Y-36206305D01*
X114116243Y-36092230D01*
X114117404Y-36088967D01*
X114165068Y-35961177D01*
X114170017Y-35949713D01*
X114224481Y-35839272D01*
X114226777Y-35834851D01*
X114290855Y-35717501D01*
X114296562Y-35708075D01*
X114365639Y-35604694D01*
X114369425Y-35599344D01*
X114448850Y-35493246D01*
X114454823Y-35485878D01*
X114537161Y-35391989D01*
X114542648Y-35386131D01*
X114636131Y-35292648D01*
X114641989Y-35287161D01*
X114735878Y-35204823D01*
X114743246Y-35198850D01*
X114849344Y-35119425D01*
X114854694Y-35115639D01*
X114958075Y-35046562D01*
X114967501Y-35040855D01*
X115084851Y-34976777D01*
X115089272Y-34974481D01*
X115199713Y-34920017D01*
X115211177Y-34915068D01*
X115338967Y-34867404D01*
X115342230Y-34866243D01*
X115456305Y-34827519D01*
X115469749Y-34823788D01*
X115609606Y-34793364D01*
X115611573Y-34792955D01*
X115723099Y-34770771D01*
X115738407Y-34768709D01*
X115916193Y-34755992D01*
X115995957Y-34750764D01*
X116004065Y-34750500D01*
X144245572Y-34750500D01*
X144254418Y-34750816D01*
G37*
%TD.AperFunction*%
%TD*%
M02*
