M48
; DRILL file {KiCad 7.0.1} date Thu Jan 11 23:21:17 2024
; FORMAT={-:-/ absolute / inch / decimal}
; #@! TF.CreationDate,2024-01-11T23:21:17+00:00
; #@! TF.GenerationSoftware,Kicad,Pcbnew,7.0.1
; #@! TF.FileFunction,Plated,1,2,PTH
FMAT,2
INCH
; #@! TA.AperFunction,Plated,PTH,ComponentDrill
T1C0.0079
; #@! TA.AperFunction,Plated,PTH,ComponentDrill
T2C0.0118
; #@! TA.AperFunction,Plated,PTH,ViaDrill
T3C0.0157
; #@! TA.AperFunction,Plated,PTH,ComponentDrill
T4C0.0236
%
G90
G05
T1
X5.0394Y-2.5591
X5.0394Y-2.5984
X5.0394Y-2.6378
X5.0787Y-2.5591
X5.0787Y-2.5984
X5.0787Y-2.6378
X5.1181Y-2.5591
X5.1181Y-2.5984
X5.1181Y-2.6378
T2
X5.3799Y-2.7805
X5.4173Y-1.8504
X5.4173Y-1.8898
X5.4528Y-1.8504
X5.4528Y-1.8898
X5.4882Y-1.8504
X5.4882Y-1.8898
T3
X4.5177Y-2.9035
X4.5276Y-2.1949
X4.5276Y-2.3622
X4.5276Y-2.687
X4.5374Y-1.998
X4.5472Y-1.6535
X4.6555Y-2.5689
X4.6752Y-2.2244
X4.685Y-2.9724
X4.7047Y-2.3524
X4.7146Y-1.8799
X4.7386Y-2.3228
X4.7933Y-2.5394
X4.7972Y-2.7067
X4.813Y-1.7618
X4.8352Y-2.4852
X4.8425Y-2.2638
X4.8504Y-2.6161
X4.8524Y-2.3031
X4.8622Y-2.6575
X4.8622Y-2.6969
X4.8819Y-2.5591
X4.8917Y-2.4803
X4.9016Y-2.6969
X4.9311Y-2.4016
X4.9409Y-2.6969
X4.9508Y-2.1457
X4.9508Y-2.3327
X4.9803Y-2.6969
X5.0Y-2.2441
X5.0197Y-1.6339
X5.0197Y-2.4508
X5.0394Y-2.2347
X5.0491Y-2.17
X5.1662Y-2.2353
X5.175Y-2.4784
X5.1912Y-2.7813
X5.2047Y-2.7188
X5.2064Y-2.5081
X5.2559Y-2.7362
X5.2854Y-2.0571
X5.2962Y-2.6149
X5.315Y-2.1752
X5.3543Y-1.7913
X5.3543Y-1.9587
X5.3937Y-2.2835
X5.4035Y-2.7362
X5.4331Y-2.4803
X5.4429Y-1.9587
X5.4429Y-2.7657
X5.5315Y-2.9724
X5.5401Y-2.5787
X5.5512Y-1.9783
X5.6496Y-2.5295
X5.6594Y-2.7264
X5.6693Y-2.0768
X5.689Y-1.752
X5.7087Y-2.3327
X5.7185Y-2.8937
T4
G00X4.5819Y-2.1049
M15
G01X4.6134Y-2.1049
M16
G05
G00X4.5819Y-2.4451
M15
G01X4.6134Y-2.4451
M16
G05
G00X4.7414Y-2.1049
M15
G01X4.7847Y-2.1049
M16
G05
G00X4.7414Y-2.4451
M15
G01X4.7847Y-2.4451
M16
G05
T0
M30
