%TF.GenerationSoftware,KiCad,Pcbnew,7.0.1*%
%TF.CreationDate,2024-01-11T23:21:17+00:00*%
%TF.ProjectId,Hardware,48617264-7761-4726-952e-6b696361645f,rev?*%
%TF.SameCoordinates,Original*%
%TF.FileFunction,Legend,Top*%
%TF.FilePolarity,Positive*%
%FSLAX46Y46*%
G04 Gerber Fmt 4.6, Leading zero omitted, Abs format (unit mm)*
G04 Created by KiCad (PCBNEW 7.0.1) date 2024-01-11 23:21:17*
%MOMM*%
%LPD*%
G01*
G04 APERTURE LIST*
G04 Aperture macros list*
%AMRoundRect*
0 Rectangle with rounded corners*
0 $1 Rounding radius*
0 $2 $3 $4 $5 $6 $7 $8 $9 X,Y pos of 4 corners*
0 Add a 4 corners polygon primitive as box body*
4,1,4,$2,$3,$4,$5,$6,$7,$8,$9,$2,$3,0*
0 Add four circle primitives for the rounded corners*
1,1,$1+$1,$2,$3*
1,1,$1+$1,$4,$5*
1,1,$1+$1,$6,$7*
1,1,$1+$1,$8,$9*
0 Add four rect primitives between the rounded corners*
20,1,$1+$1,$2,$3,$4,$5,0*
20,1,$1+$1,$4,$5,$6,$7,0*
20,1,$1+$1,$6,$7,$8,$9,0*
20,1,$1+$1,$8,$9,$2,$3,0*%
G04 Aperture macros list end*
%ADD10C,0.100000*%
%ADD11RoundRect,0.075000X-0.075000X-2.175000X0.075000X-2.175000X0.075000X2.175000X-0.075000X2.175000X0*%
%ADD12C,0.650000*%
%ADD13O,1.800000X1.000000*%
%ADD14O,2.100000X1.000000*%
%ADD15C,1.800000*%
G04 APERTURE END LIST*
D10*
%TO.C,J3*%
X129666666Y-43712619D02*
X129666666Y-44426904D01*
X129666666Y-44426904D02*
X129619047Y-44569761D01*
X129619047Y-44569761D02*
X129523809Y-44665000D01*
X129523809Y-44665000D02*
X129380952Y-44712619D01*
X129380952Y-44712619D02*
X129285714Y-44712619D01*
X130047619Y-43712619D02*
X130666666Y-43712619D01*
X130666666Y-43712619D02*
X130333333Y-44093571D01*
X130333333Y-44093571D02*
X130476190Y-44093571D01*
X130476190Y-44093571D02*
X130571428Y-44141190D01*
X130571428Y-44141190D02*
X130619047Y-44188809D01*
X130619047Y-44188809D02*
X130666666Y-44284047D01*
X130666666Y-44284047D02*
X130666666Y-44522142D01*
X130666666Y-44522142D02*
X130619047Y-44617380D01*
X130619047Y-44617380D02*
X130571428Y-44665000D01*
X130571428Y-44665000D02*
X130476190Y-44712619D01*
X130476190Y-44712619D02*
X130190476Y-44712619D01*
X130190476Y-44712619D02*
X130095238Y-44665000D01*
X130095238Y-44665000D02*
X130047619Y-44617380D01*
X116125000Y-42750000D02*
X143875000Y-42750000D01*
X143875000Y-42750000D02*
X143875000Y-70500000D01*
X143875000Y-70500000D02*
X116125000Y-70500000D01*
X116125000Y-70500000D02*
X116125000Y-42750000D01*
X114250000Y-41250000D02*
X145750000Y-41250000D01*
X145750000Y-41250000D02*
X145750000Y-75000000D01*
X145750000Y-75000000D02*
X114250000Y-75000000D01*
X114250000Y-75000000D02*
X114250000Y-41250000D01*
%TD*%
%LPC*%
D11*
%TO.C,J3*%
X132750000Y-52000000D03*
X132250000Y-52000000D03*
X131750000Y-52000000D03*
X131250000Y-52000000D03*
X130750000Y-52000000D03*
X130250000Y-52000000D03*
X129750000Y-52000000D03*
X129250000Y-52000000D03*
X128750000Y-52000000D03*
X128250000Y-52000000D03*
X127750000Y-52000000D03*
X127250000Y-52000000D03*
%TD*%
D12*
%TO.C,J1*%
X120461000Y-60675000D03*
X120461000Y-54895000D03*
D13*
X116781000Y-62105000D03*
D14*
X120981000Y-62105000D03*
D13*
X116781000Y-53465000D03*
D14*
X120981000Y-53465000D03*
%TD*%
D15*
%TO.C,J4*%
X137000000Y-61000000D03*
X137000000Y-55000000D03*
%TD*%
M02*
