%TF.GenerationSoftware,KiCad,Pcbnew,7.0.1*%
%TF.CreationDate,2024-01-11T23:21:17+00:00*%
%TF.ProjectId,Hardware,48617264-7761-4726-952e-6b696361645f,rev?*%
%TF.SameCoordinates,Original*%
%TF.FileFunction,Legend,Bot*%
%TF.FilePolarity,Positive*%
%FSLAX46Y46*%
G04 Gerber Fmt 4.6, Leading zero omitted, Abs format (unit mm)*
G04 Created by KiCad (PCBNEW 7.0.1) date 2024-01-11 23:21:17*
%MOMM*%
%LPD*%
G01*
G04 APERTURE LIST*
G04 Aperture macros list*
%AMRoundRect*
0 Rectangle with rounded corners*
0 $1 Rounding radius*
0 $2 $3 $4 $5 $6 $7 $8 $9 X,Y pos of 4 corners*
0 Add a 4 corners polygon primitive as box body*
4,1,4,$2,$3,$4,$5,$6,$7,$8,$9,$2,$3,0*
0 Add four circle primitives for the rounded corners*
1,1,$1+$1,$2,$3*
1,1,$1+$1,$4,$5*
1,1,$1+$1,$6,$7*
1,1,$1+$1,$8,$9*
0 Add four rect primitives between the rounded corners*
20,1,$1+$1,$2,$3,$4,$5,0*
20,1,$1+$1,$4,$5,$6,$7,0*
20,1,$1+$1,$6,$7,$8,$9,0*
20,1,$1+$1,$8,$9,$2,$3,0*%
G04 Aperture macros list end*
%ADD10C,0.120000*%
%ADD11C,0.240000*%
%ADD12C,0.150000*%
%ADD13C,0.100000*%
%ADD14RoundRect,0.140000X-0.170000X0.140000X-0.170000X-0.140000X0.170000X-0.140000X0.170000X0.140000X0*%
%ADD15RoundRect,0.140000X-0.140000X-0.170000X0.140000X-0.170000X0.140000X0.170000X-0.140000X0.170000X0*%
%ADD16RoundRect,0.135000X-0.185000X0.135000X-0.185000X-0.135000X0.185000X-0.135000X0.185000X0.135000X0*%
%ADD17RoundRect,0.150000X0.587500X0.150000X-0.587500X0.150000X-0.587500X-0.150000X0.587500X-0.150000X0*%
%ADD18RoundRect,0.135000X-0.135000X-0.185000X0.135000X-0.185000X0.135000X0.185000X-0.135000X0.185000X0*%
%ADD19RoundRect,0.150000X0.512500X0.150000X-0.512500X0.150000X-0.512500X-0.150000X0.512500X-0.150000X0*%
%ADD20RoundRect,0.135000X0.135000X0.185000X-0.135000X0.185000X-0.135000X-0.185000X0.135000X-0.185000X0*%
%ADD21R,1.000000X1.800000*%
%ADD22RoundRect,0.062500X0.062500X-0.337500X0.062500X0.337500X-0.062500X0.337500X-0.062500X-0.337500X0*%
%ADD23RoundRect,0.062500X0.337500X-0.062500X0.337500X0.062500X-0.337500X0.062500X-0.337500X-0.062500X0*%
%ADD24R,3.600000X3.600000*%
%ADD25RoundRect,0.147500X0.147500X0.172500X-0.147500X0.172500X-0.147500X-0.172500X0.147500X-0.172500X0*%
%ADD26C,0.650000*%
%ADD27R,1.240000X0.600000*%
%ADD28R,1.240000X0.300000*%
%ADD29O,1.800000X1.000000*%
%ADD30O,2.100000X1.000000*%
%ADD31RoundRect,0.250000X-1.500000X0.250000X-1.500000X-0.250000X1.500000X-0.250000X1.500000X0.250000X0*%
%ADD32RoundRect,0.250001X-1.449999X0.499999X-1.449999X-0.499999X1.449999X-0.499999X1.449999X0.499999X0*%
%ADD33RoundRect,0.250000X-0.450000X0.262500X-0.450000X-0.262500X0.450000X-0.262500X0.450000X0.262500X0*%
%ADD34R,1.150000X1.000000*%
%ADD35RoundRect,0.140000X0.170000X-0.140000X0.170000X0.140000X-0.170000X0.140000X-0.170000X-0.140000X0*%
%ADD36RoundRect,0.050000X0.100000X0.100000X-0.100000X0.100000X-0.100000X-0.100000X0.100000X-0.100000X0*%
%ADD37O,0.950000X0.300000*%
%ADD38R,0.400000X0.575000*%
%ADD39R,0.400000X0.675000*%
%ADD40R,2.600000X1.950000*%
%ADD41RoundRect,0.150000X-0.150000X0.512500X-0.150000X-0.512500X0.150000X-0.512500X0.150000X0.512500X0*%
%ADD42RoundRect,0.140000X0.140000X0.170000X-0.140000X0.170000X-0.140000X-0.170000X0.140000X-0.170000X0*%
%ADD43RoundRect,0.150000X-0.150000X0.587500X-0.150000X-0.587500X0.150000X-0.587500X0.150000X0.587500X0*%
%ADD44RoundRect,0.147500X-0.172500X0.147500X-0.172500X-0.147500X0.172500X-0.147500X0.172500X0.147500X0*%
%ADD45RoundRect,0.350000X0.350000X-0.400000X0.350000X0.400000X-0.350000X0.400000X-0.350000X-0.400000X0*%
%ADD46C,1.800000*%
%ADD47RoundRect,0.250000X0.141421X-0.494975X0.494975X-0.141421X-0.141421X0.494975X-0.494975X0.141421X0*%
%ADD48RoundRect,0.250000X0.494975X0.141421X0.141421X0.494975X-0.494975X-0.141421X-0.141421X-0.494975X0*%
%ADD49RoundRect,0.350000X0.400000X-0.350000X0.400000X0.350000X-0.400000X0.350000X-0.400000X-0.350000X0*%
%ADD50RoundRect,0.112500X-0.112500X0.187500X-0.112500X-0.187500X0.112500X-0.187500X0.112500X0.187500X0*%
G04 APERTURE END LIST*
D10*
X128500000Y-43000000D02*
X143500000Y-43000000D01*
D11*
G36*
X142921897Y-41410176D02*
G01*
X142938820Y-41410867D01*
X142955553Y-41412151D01*
X142972095Y-41414027D01*
X142988447Y-41416496D01*
X143004608Y-41419557D01*
X143020578Y-41423210D01*
X143036358Y-41427456D01*
X143051947Y-41432295D01*
X143067346Y-41437726D01*
X143082553Y-41443750D01*
X143092512Y-41448100D01*
X143107148Y-41455141D01*
X143121425Y-41462801D01*
X143135340Y-41471078D01*
X143148895Y-41479974D01*
X143162089Y-41489488D01*
X143174923Y-41499620D01*
X143187396Y-41510371D01*
X143199508Y-41521739D01*
X143211260Y-41533726D01*
X143222651Y-41546332D01*
X143233638Y-41559513D01*
X143244176Y-41573338D01*
X143250953Y-41582913D01*
X143257530Y-41592774D01*
X143263908Y-41602921D01*
X143270087Y-41613355D01*
X143276067Y-41624074D01*
X143281847Y-41635080D01*
X143287429Y-41646372D01*
X143292811Y-41657950D01*
X143297994Y-41669815D01*
X143302978Y-41681965D01*
X143307762Y-41694402D01*
X143312347Y-41707126D01*
X143316733Y-41720135D01*
X143320850Y-41733437D01*
X143324702Y-41747040D01*
X143328288Y-41760942D01*
X143331608Y-41775144D01*
X143334662Y-41789647D01*
X143337451Y-41804449D01*
X143339975Y-41819551D01*
X143342232Y-41834953D01*
X143344224Y-41850656D01*
X143345951Y-41866658D01*
X143347412Y-41882960D01*
X143348607Y-41899562D01*
X143349537Y-41916464D01*
X143350201Y-41933666D01*
X143350599Y-41951168D01*
X143350732Y-41968969D01*
X143350652Y-41983399D01*
X143350414Y-41997635D01*
X143350016Y-42011678D01*
X143349459Y-42025527D01*
X143348743Y-42039183D01*
X143347867Y-42052645D01*
X143346833Y-42065913D01*
X143345640Y-42078989D01*
X143344287Y-42091870D01*
X143342775Y-42104559D01*
X143341104Y-42117053D01*
X143339274Y-42129355D01*
X143337285Y-42141462D01*
X143335136Y-42153377D01*
X143332829Y-42165097D01*
X143330362Y-42176625D01*
X143324951Y-42199099D01*
X143318904Y-42220799D01*
X143312220Y-42241725D01*
X143304900Y-42261878D01*
X143296943Y-42281256D01*
X143288349Y-42299861D01*
X143279119Y-42317691D01*
X143269253Y-42334748D01*
X143258704Y-42350979D01*
X143247500Y-42366406D01*
X143235641Y-42381030D01*
X143223127Y-42394850D01*
X143209959Y-42407866D01*
X143196135Y-42420078D01*
X143181657Y-42431487D01*
X143166524Y-42442092D01*
X143150736Y-42451894D01*
X143134293Y-42460891D01*
X143117195Y-42469085D01*
X143099443Y-42476476D01*
X143081035Y-42483062D01*
X143061973Y-42488845D01*
X143042256Y-42493824D01*
X143021883Y-42498000D01*
X143021400Y-42508789D01*
X143020375Y-42524630D01*
X143018989Y-42540058D01*
X143017243Y-42555074D01*
X143015135Y-42569679D01*
X143012668Y-42583871D01*
X143009839Y-42597651D01*
X143006650Y-42611018D01*
X143003100Y-42623974D01*
X142999190Y-42636517D01*
X142994919Y-42648648D01*
X142993398Y-42652602D01*
X142988608Y-42664205D01*
X142983479Y-42675422D01*
X142978009Y-42686252D01*
X142972199Y-42696696D01*
X142966050Y-42706754D01*
X142957321Y-42719563D01*
X142947988Y-42731685D01*
X142938050Y-42743120D01*
X142927508Y-42753868D01*
X142922016Y-42758986D01*
X142910613Y-42768713D01*
X142898651Y-42777762D01*
X142886131Y-42786134D01*
X142873051Y-42793827D01*
X142859413Y-42800843D01*
X142845217Y-42807181D01*
X142834203Y-42811490D01*
X142822874Y-42815418D01*
X142815118Y-42817866D01*
X142803247Y-42821244D01*
X142791092Y-42824265D01*
X142778654Y-42826931D01*
X142765933Y-42829242D01*
X142752929Y-42831197D01*
X142739641Y-42832797D01*
X142726070Y-42834041D01*
X142712215Y-42834930D01*
X142698077Y-42835463D01*
X142683656Y-42835641D01*
X142675928Y-42835552D01*
X142660486Y-42834837D01*
X142645062Y-42833408D01*
X142629656Y-42831265D01*
X142618114Y-42829189D01*
X142606582Y-42826711D01*
X142595060Y-42823831D01*
X142583549Y-42820549D01*
X142572048Y-42816865D01*
X142560558Y-42812780D01*
X142552902Y-42809879D01*
X142541560Y-42805226D01*
X142530387Y-42800213D01*
X142519385Y-42794840D01*
X142508553Y-42789106D01*
X142497891Y-42783011D01*
X142487399Y-42776555D01*
X142477077Y-42769739D01*
X142466925Y-42762563D01*
X142456943Y-42755025D01*
X142447131Y-42747127D01*
X142540334Y-42610547D01*
X142543879Y-42613799D01*
X142552981Y-42621540D01*
X142562426Y-42628723D01*
X142572215Y-42635347D01*
X142582347Y-42641414D01*
X142592823Y-42646922D01*
X142603642Y-42651872D01*
X142608004Y-42653683D01*
X142621118Y-42658412D01*
X142634272Y-42662091D01*
X142647468Y-42664718D01*
X142660705Y-42666295D01*
X142673984Y-42666820D01*
X142687081Y-42666362D01*
X142699996Y-42664988D01*
X142712727Y-42662699D01*
X142725275Y-42659493D01*
X142728339Y-42658531D01*
X142740319Y-42653768D01*
X142751859Y-42647540D01*
X142761596Y-42640888D01*
X142770997Y-42633115D01*
X142779835Y-42624121D01*
X142788140Y-42613808D01*
X142794834Y-42603920D01*
X142801136Y-42593063D01*
X142807047Y-42581237D01*
X142810725Y-42572820D01*
X142814948Y-42561500D01*
X142818756Y-42549293D01*
X142822149Y-42536198D01*
X142825127Y-42522216D01*
X142827211Y-42510392D01*
X142829029Y-42498000D01*
X142819767Y-42495957D01*
X142806037Y-42492515D01*
X142792503Y-42488621D01*
X142779164Y-42484272D01*
X142766021Y-42479471D01*
X142753075Y-42474216D01*
X142740323Y-42468507D01*
X142727768Y-42462345D01*
X142715408Y-42455730D01*
X142703244Y-42448662D01*
X142691276Y-42441140D01*
X142683393Y-42435869D01*
X142671816Y-42427567D01*
X142660538Y-42418792D01*
X142649559Y-42409542D01*
X142638879Y-42399818D01*
X142628498Y-42389621D01*
X142618416Y-42378949D01*
X142608632Y-42367804D01*
X142599147Y-42356184D01*
X142589961Y-42344091D01*
X142581074Y-42331524D01*
X142572522Y-42318477D01*
X142564340Y-42304946D01*
X142556530Y-42290931D01*
X142549090Y-42276432D01*
X142542022Y-42261448D01*
X142535324Y-42245980D01*
X142528998Y-42230028D01*
X142523042Y-42213591D01*
X142519277Y-42202364D01*
X142515678Y-42190922D01*
X142512243Y-42179265D01*
X142508973Y-42167392D01*
X142505886Y-42155300D01*
X142502997Y-42142983D01*
X142500308Y-42130442D01*
X142497818Y-42117677D01*
X142495527Y-42104687D01*
X142493435Y-42091473D01*
X142491543Y-42078034D01*
X142489849Y-42064371D01*
X142488355Y-42050483D01*
X142487060Y-42036371D01*
X142485965Y-42022035D01*
X142485068Y-42007474D01*
X142484371Y-41992689D01*
X142483873Y-41977680D01*
X142483685Y-41968090D01*
X142697724Y-41968090D01*
X142697772Y-41978895D01*
X142698025Y-41994813D01*
X142698494Y-42010387D01*
X142699179Y-42025615D01*
X142700080Y-42040499D01*
X142701198Y-42055037D01*
X142702533Y-42069230D01*
X142704084Y-42083077D01*
X142705851Y-42096580D01*
X142707834Y-42109737D01*
X142710034Y-42122549D01*
X142712468Y-42134949D01*
X142715155Y-42146977D01*
X142718094Y-42158634D01*
X142721286Y-42169920D01*
X142725934Y-42184392D01*
X142731031Y-42198204D01*
X142736577Y-42211356D01*
X142742572Y-42223849D01*
X142749015Y-42235683D01*
X142755848Y-42246838D01*
X142763157Y-42257298D01*
X142770942Y-42267062D01*
X142779204Y-42276129D01*
X142787942Y-42284501D01*
X142797156Y-42292176D01*
X142806846Y-42299155D01*
X142817013Y-42305438D01*
X142827683Y-42311003D01*
X142838884Y-42315825D01*
X142850617Y-42319905D01*
X142862881Y-42323244D01*
X142875677Y-42325840D01*
X142889003Y-42327695D01*
X142902861Y-42328808D01*
X142917250Y-42329179D01*
X142931506Y-42328817D01*
X142945258Y-42327732D01*
X142958507Y-42325923D01*
X142971252Y-42323390D01*
X142983493Y-42320134D01*
X142995230Y-42316155D01*
X143006464Y-42311451D01*
X143017194Y-42306025D01*
X143027420Y-42299874D01*
X143037142Y-42293000D01*
X143046361Y-42285403D01*
X143055076Y-42277082D01*
X143063287Y-42268037D01*
X143070995Y-42258269D01*
X143078198Y-42247777D01*
X143084898Y-42236562D01*
X143091145Y-42224623D01*
X143096988Y-42211961D01*
X143102429Y-42198575D01*
X143107466Y-42184465D01*
X143112101Y-42169632D01*
X143116332Y-42154075D01*
X143120161Y-42137795D01*
X143123586Y-42120791D01*
X143126609Y-42103063D01*
X143129228Y-42084612D01*
X143131445Y-42065438D01*
X143133258Y-42045540D01*
X143134669Y-42024918D01*
X143135676Y-42003573D01*
X143136281Y-41981504D01*
X143136482Y-41958711D01*
X143136433Y-41947979D01*
X143136174Y-41932164D01*
X143135694Y-41916689D01*
X143134993Y-41901554D01*
X143134070Y-41886760D01*
X143132925Y-41872305D01*
X143131559Y-41858190D01*
X143129971Y-41844415D01*
X143128162Y-41830981D01*
X143126132Y-41817886D01*
X143123879Y-41805131D01*
X143121335Y-41792677D01*
X143118538Y-41780594D01*
X143115489Y-41768882D01*
X143112188Y-41757541D01*
X143107393Y-41742996D01*
X143102149Y-41729111D01*
X143096457Y-41715885D01*
X143090316Y-41703319D01*
X143083726Y-41691412D01*
X143076682Y-41680187D01*
X143069181Y-41669668D01*
X143061222Y-41659854D01*
X143052805Y-41650745D01*
X143043929Y-41642342D01*
X143034596Y-41634644D01*
X143024805Y-41627651D01*
X143014556Y-41621363D01*
X143003748Y-41615799D01*
X142992428Y-41610977D01*
X142980594Y-41606896D01*
X142968248Y-41603558D01*
X142955388Y-41600961D01*
X142942016Y-41599106D01*
X142928131Y-41597994D01*
X142913733Y-41597623D01*
X142899553Y-41597982D01*
X142885884Y-41599061D01*
X142872726Y-41600858D01*
X142860079Y-41603375D01*
X142847942Y-41606610D01*
X142836315Y-41610564D01*
X142825200Y-41615238D01*
X142814595Y-41620630D01*
X142804500Y-41626742D01*
X142794916Y-41633572D01*
X142785843Y-41641122D01*
X142777280Y-41649390D01*
X142769228Y-41658377D01*
X142761687Y-41668084D01*
X142754656Y-41678509D01*
X142748136Y-41689653D01*
X142742031Y-41701492D01*
X142736321Y-41714072D01*
X142731004Y-41727393D01*
X142726081Y-41741457D01*
X142721552Y-41756263D01*
X142717416Y-41771811D01*
X142713675Y-41788100D01*
X142710327Y-41805131D01*
X142707373Y-41822905D01*
X142704813Y-41841420D01*
X142702647Y-41860677D01*
X142700875Y-41880676D01*
X142699497Y-41901417D01*
X142698512Y-41922899D01*
X142697921Y-41945124D01*
X142697724Y-41968090D01*
X142483685Y-41968090D01*
X142483574Y-41962446D01*
X142483474Y-41946988D01*
X142483579Y-41930822D01*
X142483894Y-41914896D01*
X142484417Y-41899210D01*
X142485151Y-41883762D01*
X142486093Y-41868554D01*
X142487246Y-41853585D01*
X142488608Y-41838856D01*
X142490179Y-41824366D01*
X142491960Y-41810115D01*
X142493950Y-41796103D01*
X142496150Y-41782330D01*
X142498560Y-41768797D01*
X142501178Y-41755503D01*
X142504007Y-41742449D01*
X142507045Y-41729633D01*
X142510292Y-41717057D01*
X142513749Y-41704721D01*
X142517416Y-41692623D01*
X142521292Y-41680765D01*
X142525377Y-41669146D01*
X142529672Y-41657767D01*
X142534177Y-41646626D01*
X142538891Y-41635725D01*
X142543815Y-41625063D01*
X142554290Y-41604458D01*
X142565604Y-41584809D01*
X142577756Y-41566118D01*
X142590746Y-41548383D01*
X142597535Y-41539872D01*
X142611734Y-41523661D01*
X142626760Y-41508530D01*
X142642612Y-41494480D01*
X142659291Y-41481510D01*
X142676796Y-41469622D01*
X142695128Y-41458814D01*
X142714287Y-41449087D01*
X142734272Y-41440441D01*
X142755084Y-41432876D01*
X142776722Y-41426391D01*
X142799187Y-41420987D01*
X142810729Y-41418690D01*
X142822479Y-41416664D01*
X142834434Y-41414908D01*
X142846597Y-41413422D01*
X142858966Y-41412206D01*
X142871542Y-41411260D01*
X142884324Y-41410585D01*
X142897313Y-41410179D01*
X142910509Y-41410044D01*
X142921897Y-41410176D01*
G37*
G36*
X142144368Y-41653896D02*
G01*
X142144368Y-42207546D01*
X142144144Y-42220222D01*
X142143471Y-42232310D01*
X142141878Y-42247514D01*
X142139487Y-42261674D01*
X142136300Y-42274790D01*
X142132315Y-42286861D01*
X142127534Y-42297889D01*
X142120438Y-42310205D01*
X142118869Y-42312473D01*
X142110249Y-42322689D01*
X142100327Y-42331174D01*
X142089103Y-42337928D01*
X142076577Y-42342950D01*
X142062748Y-42346240D01*
X142050747Y-42347625D01*
X142041200Y-42347937D01*
X142028725Y-42347277D01*
X142016360Y-42345299D01*
X142004105Y-42342002D01*
X141991960Y-42337385D01*
X141979925Y-42331450D01*
X141968000Y-42324196D01*
X141956185Y-42315623D01*
X141944479Y-42305732D01*
X141935695Y-42297555D01*
X141926818Y-42288854D01*
X141917849Y-42279626D01*
X141908786Y-42269874D01*
X141899631Y-42259595D01*
X141890383Y-42248792D01*
X141881043Y-42237462D01*
X141871610Y-42225608D01*
X141862083Y-42213227D01*
X141852465Y-42200322D01*
X141846001Y-42191426D01*
X141846001Y-41653896D01*
X141644940Y-41653896D01*
X141644940Y-42498000D01*
X141818743Y-42498000D01*
X141823726Y-42373436D01*
X141831990Y-42383375D01*
X141840298Y-42393042D01*
X141848649Y-42402437D01*
X141857042Y-42411560D01*
X141865478Y-42420412D01*
X141873958Y-42428991D01*
X141877361Y-42432347D01*
X141885987Y-42440404D01*
X141896620Y-42449582D01*
X141907563Y-42458223D01*
X141918815Y-42466329D01*
X141930376Y-42473899D01*
X141936273Y-42477483D01*
X141948349Y-42484119D01*
X141960838Y-42490178D01*
X141973738Y-42495659D01*
X141984803Y-42499787D01*
X141996155Y-42503513D01*
X142005442Y-42506206D01*
X142017359Y-42509246D01*
X142029663Y-42511770D01*
X142042352Y-42513779D01*
X142055428Y-42515274D01*
X142068891Y-42516252D01*
X142082740Y-42516716D01*
X142088387Y-42516757D01*
X142100336Y-42516572D01*
X142115826Y-42515748D01*
X142130813Y-42514264D01*
X142145295Y-42512121D01*
X142159274Y-42509318D01*
X142172750Y-42505856D01*
X142185721Y-42501734D01*
X142198189Y-42496953D01*
X142201227Y-42495655D01*
X142212997Y-42490031D01*
X142224272Y-42483858D01*
X142235052Y-42477135D01*
X142245338Y-42469863D01*
X142255129Y-42462041D01*
X142264425Y-42453669D01*
X142273227Y-42444748D01*
X142281535Y-42435278D01*
X142289274Y-42425295D01*
X142296519Y-42414835D01*
X142303269Y-42403899D01*
X142309525Y-42392487D01*
X142315286Y-42380598D01*
X142320552Y-42368233D01*
X142325324Y-42355392D01*
X142329601Y-42342075D01*
X142333380Y-42328245D01*
X142336654Y-42314011D01*
X142339425Y-42299375D01*
X142341692Y-42284336D01*
X142343455Y-42268894D01*
X142344446Y-42257047D01*
X142345155Y-42244975D01*
X142345580Y-42232675D01*
X142345722Y-42220149D01*
X142345722Y-41653896D01*
X142144368Y-41653896D01*
G37*
G36*
X141069023Y-41635267D02*
G01*
X141085497Y-41635940D01*
X141101677Y-41637190D01*
X141117563Y-41639017D01*
X141133155Y-41641422D01*
X141148454Y-41644403D01*
X141163459Y-41647961D01*
X141178171Y-41652096D01*
X141192589Y-41656809D01*
X141206713Y-41662098D01*
X141220544Y-41667965D01*
X141229581Y-41672176D01*
X141242820Y-41678895D01*
X141255678Y-41686100D01*
X141268154Y-41693788D01*
X141280250Y-41701961D01*
X141291963Y-41710618D01*
X141303296Y-41719759D01*
X141314248Y-41729385D01*
X141324818Y-41739495D01*
X141335007Y-41750089D01*
X141344814Y-41761168D01*
X141351100Y-41768773D01*
X141360193Y-41780538D01*
X141368884Y-41792730D01*
X141377174Y-41805350D01*
X141385062Y-41818397D01*
X141392548Y-41831872D01*
X141399632Y-41845775D01*
X141406314Y-41860105D01*
X141412594Y-41874863D01*
X141418472Y-41890049D01*
X141423949Y-41905662D01*
X141427321Y-41916285D01*
X141431970Y-41932491D01*
X141436131Y-41949021D01*
X141439801Y-41965876D01*
X141442983Y-41983055D01*
X141444832Y-41994688D01*
X141446463Y-42006466D01*
X141447877Y-42018387D01*
X141449074Y-42030453D01*
X141450052Y-42042664D01*
X141450814Y-42055018D01*
X141451358Y-42067517D01*
X141451684Y-42080160D01*
X141451793Y-42092947D01*
X141451684Y-42105820D01*
X141451358Y-42118501D01*
X141450814Y-42130990D01*
X141450052Y-42143286D01*
X141449074Y-42155389D01*
X141447877Y-42167301D01*
X141446463Y-42179020D01*
X141443934Y-42196238D01*
X141440916Y-42213023D01*
X141437409Y-42229375D01*
X141433412Y-42245295D01*
X141428925Y-42260782D01*
X141423949Y-42275836D01*
X141420336Y-42285593D01*
X141414555Y-42299859D01*
X141408342Y-42313682D01*
X141401696Y-42327061D01*
X141394617Y-42339998D01*
X141387105Y-42352492D01*
X141379161Y-42364542D01*
X141370784Y-42376150D01*
X141361974Y-42387314D01*
X141352731Y-42398035D01*
X141343056Y-42408314D01*
X141336371Y-42414916D01*
X141326004Y-42424438D01*
X141315230Y-42433501D01*
X141304050Y-42442106D01*
X141292462Y-42450252D01*
X141280467Y-42457940D01*
X141268066Y-42465169D01*
X141255257Y-42471939D01*
X141242041Y-42478251D01*
X141228418Y-42484105D01*
X141214389Y-42489500D01*
X141199983Y-42494371D01*
X141185232Y-42498763D01*
X141170136Y-42502676D01*
X141154694Y-42506110D01*
X141138908Y-42509065D01*
X141122776Y-42511540D01*
X141106299Y-42513536D01*
X141089477Y-42515054D01*
X141072309Y-42516092D01*
X141054797Y-42516651D01*
X141042930Y-42516757D01*
X141038194Y-42516747D01*
X141026263Y-42516631D01*
X141014203Y-42516386D01*
X141002014Y-42516013D01*
X140989696Y-42515511D01*
X140977250Y-42514879D01*
X140964675Y-42514120D01*
X140959622Y-42513779D01*
X140947021Y-42512839D01*
X140934463Y-42511770D01*
X140921948Y-42510572D01*
X140909476Y-42509246D01*
X140897047Y-42507790D01*
X140884661Y-42506206D01*
X140879722Y-42505541D01*
X140867434Y-42503828D01*
X140855233Y-42502043D01*
X140843117Y-42500187D01*
X140831087Y-42498259D01*
X140819143Y-42496260D01*
X140807285Y-42494189D01*
X140802580Y-42493341D01*
X140788728Y-42490727D01*
X140775268Y-42488010D01*
X140762199Y-42485190D01*
X140749522Y-42482268D01*
X140737236Y-42479242D01*
X140737236Y-42310421D01*
X140746594Y-42312869D01*
X140760554Y-42316377D01*
X140774422Y-42319690D01*
X140788197Y-42322807D01*
X140801879Y-42325728D01*
X140815468Y-42328454D01*
X140828964Y-42330983D01*
X140842368Y-42333317D01*
X140855679Y-42335455D01*
X140868897Y-42337397D01*
X140882023Y-42339144D01*
X140894973Y-42340715D01*
X140907773Y-42342132D01*
X140920423Y-42343394D01*
X140932925Y-42344502D01*
X140945277Y-42345455D01*
X140957479Y-42346254D01*
X140969532Y-42346898D01*
X140981436Y-42347387D01*
X140997075Y-42347799D01*
X141012449Y-42347937D01*
X141019007Y-42347879D01*
X141031903Y-42347421D01*
X141044506Y-42346506D01*
X141056815Y-42345132D01*
X141068832Y-42343300D01*
X141080556Y-42341010D01*
X141094798Y-42337504D01*
X141108583Y-42333282D01*
X141113957Y-42331362D01*
X141126971Y-42326111D01*
X141139385Y-42320217D01*
X141151197Y-42313678D01*
X141162408Y-42306495D01*
X141173019Y-42298668D01*
X141183028Y-42290198D01*
X141186821Y-42286591D01*
X141195833Y-42277114D01*
X141204172Y-42266979D01*
X141211838Y-42256186D01*
X141218832Y-42244734D01*
X141225153Y-42232624D01*
X141230802Y-42219856D01*
X141233787Y-42211881D01*
X141238111Y-42198075D01*
X141240982Y-42186567D01*
X141243331Y-42174646D01*
X141245159Y-42162314D01*
X141246464Y-42149569D01*
X141247247Y-42136412D01*
X141247508Y-42122842D01*
X140696789Y-42122842D01*
X140695852Y-42111927D01*
X140694888Y-42098828D01*
X140694064Y-42085336D01*
X140693470Y-42073459D01*
X140692979Y-42061293D01*
X140692907Y-42059235D01*
X140692466Y-42045503D01*
X140692138Y-42032949D01*
X140691899Y-42020044D01*
X140691807Y-42007364D01*
X140691901Y-41997231D01*
X140692393Y-41982224D01*
X140692978Y-41972780D01*
X140896091Y-41972780D01*
X141243991Y-41972780D01*
X141242701Y-41961764D01*
X141240186Y-41945832D01*
X141236975Y-41930611D01*
X141233069Y-41916101D01*
X141228467Y-41902303D01*
X141223170Y-41889215D01*
X141217178Y-41876838D01*
X141210489Y-41865172D01*
X141203106Y-41854217D01*
X141195027Y-41843973D01*
X141186252Y-41834441D01*
X141180064Y-41828478D01*
X141170382Y-41820255D01*
X141160222Y-41812898D01*
X141149582Y-41806407D01*
X141138463Y-41800781D01*
X141126865Y-41796020D01*
X141114788Y-41792125D01*
X141102232Y-41789096D01*
X141089196Y-41786932D01*
X141075682Y-41785634D01*
X141061688Y-41785201D01*
X141057383Y-41785245D01*
X141044689Y-41785897D01*
X141032324Y-41787333D01*
X141020289Y-41789552D01*
X141008584Y-41792554D01*
X140997208Y-41796339D01*
X140993464Y-41797778D01*
X140982590Y-41802658D01*
X140972252Y-41808384D01*
X140962449Y-41814955D01*
X140953182Y-41822370D01*
X140944451Y-41830630D01*
X140941633Y-41833574D01*
X140933644Y-41842995D01*
X140926355Y-41853303D01*
X140919768Y-41864496D01*
X140913881Y-41876576D01*
X140908694Y-41889542D01*
X140906342Y-41896299D01*
X140902961Y-41908043D01*
X140900252Y-41920388D01*
X140898215Y-41933334D01*
X140896851Y-41946881D01*
X140896160Y-41961029D01*
X140896091Y-41972780D01*
X140692978Y-41972780D01*
X140693309Y-41967449D01*
X140694647Y-41952906D01*
X140696407Y-41938594D01*
X140698590Y-41924515D01*
X140701195Y-41910667D01*
X140704222Y-41897051D01*
X140707673Y-41883667D01*
X140711545Y-41870515D01*
X140715840Y-41857595D01*
X140718896Y-41849132D01*
X140723810Y-41836712D01*
X140729121Y-41824622D01*
X140734828Y-41812862D01*
X140740933Y-41801431D01*
X140747434Y-41790330D01*
X140754331Y-41779559D01*
X140761626Y-41769118D01*
X140769317Y-41759006D01*
X140777405Y-41749224D01*
X140785889Y-41739772D01*
X140791729Y-41733666D01*
X140800820Y-41724830D01*
X140810307Y-41716380D01*
X140820191Y-41708316D01*
X140830472Y-41700639D01*
X140841150Y-41693348D01*
X140852224Y-41686443D01*
X140863695Y-41679925D01*
X140875562Y-41673793D01*
X140887827Y-41668048D01*
X140900488Y-41662689D01*
X140909105Y-41659353D01*
X140922337Y-41654752D01*
X140935933Y-41650636D01*
X140949896Y-41647003D01*
X140964225Y-41643856D01*
X140978919Y-41641192D01*
X140993979Y-41639013D01*
X141009405Y-41637318D01*
X141025197Y-41636107D01*
X141041355Y-41635381D01*
X141057878Y-41635138D01*
X141069023Y-41635267D01*
G37*
G36*
X139821032Y-42479242D02*
G01*
X139835971Y-42483849D01*
X139847259Y-42487100D01*
X139858619Y-42490175D01*
X139870051Y-42493076D01*
X139881555Y-42495801D01*
X139893132Y-42498352D01*
X139904781Y-42500727D01*
X139916501Y-42502927D01*
X139928294Y-42504951D01*
X139940159Y-42506801D01*
X139944130Y-42507378D01*
X139956052Y-42509055D01*
X139968077Y-42510566D01*
X139980205Y-42511912D01*
X139992436Y-42513094D01*
X140004769Y-42514110D01*
X140017206Y-42514962D01*
X140029746Y-42515649D01*
X140042389Y-42516171D01*
X140055135Y-42516528D01*
X140067984Y-42516721D01*
X140076608Y-42516757D01*
X140088984Y-42516650D01*
X140101200Y-42516327D01*
X140113256Y-42515789D01*
X140125151Y-42515035D01*
X140136886Y-42514067D01*
X140154188Y-42512210D01*
X140171130Y-42509870D01*
X140187711Y-42507045D01*
X140203931Y-42503735D01*
X140219790Y-42499942D01*
X140235289Y-42495664D01*
X140250428Y-42490902D01*
X140255394Y-42489207D01*
X140270023Y-42483752D01*
X140284234Y-42477828D01*
X140298029Y-42471435D01*
X140311406Y-42464573D01*
X140324366Y-42457243D01*
X140336908Y-42449444D01*
X140349034Y-42441176D01*
X140360742Y-42432439D01*
X140372032Y-42423233D01*
X140382905Y-42413558D01*
X140389923Y-42406848D01*
X140400027Y-42396397D01*
X140409679Y-42385488D01*
X140418877Y-42374120D01*
X140427621Y-42362294D01*
X140435913Y-42350009D01*
X140443751Y-42337265D01*
X140451135Y-42324063D01*
X140458066Y-42310403D01*
X140464544Y-42296284D01*
X140470568Y-42281706D01*
X140474333Y-42271733D01*
X140479571Y-42256349D01*
X140484293Y-42240532D01*
X140488501Y-42224283D01*
X140492193Y-42207601D01*
X140495370Y-42190486D01*
X140497202Y-42178836D01*
X140498805Y-42166993D01*
X140500179Y-42154958D01*
X140501324Y-42142730D01*
X140502239Y-42130311D01*
X140502926Y-42117699D01*
X140503384Y-42104894D01*
X140503613Y-42091897D01*
X140503642Y-42085327D01*
X140503518Y-42072581D01*
X140503147Y-42059988D01*
X140502529Y-42047549D01*
X140501664Y-42035263D01*
X140500551Y-42023131D01*
X140499191Y-42011152D01*
X140497583Y-41999326D01*
X140495729Y-41987654D01*
X140492483Y-41970434D01*
X140488681Y-41953558D01*
X140484322Y-41937028D01*
X140479407Y-41920843D01*
X140473936Y-41905003D01*
X140471988Y-41899800D01*
X140465774Y-41884409D01*
X140459112Y-41869451D01*
X140452001Y-41854926D01*
X140444442Y-41840834D01*
X140436435Y-41827174D01*
X140427980Y-41813947D01*
X140419076Y-41801153D01*
X140409724Y-41788792D01*
X140399925Y-41776863D01*
X140389676Y-41765367D01*
X140382595Y-41757944D01*
X140371563Y-41747135D01*
X140360119Y-41736800D01*
X140348262Y-41726939D01*
X140335994Y-41717552D01*
X140323313Y-41708639D01*
X140310220Y-41700200D01*
X140296715Y-41692235D01*
X140282798Y-41684744D01*
X140268468Y-41677727D01*
X140253727Y-41671184D01*
X140243670Y-41667085D01*
X140228233Y-41661376D01*
X140212476Y-41656228D01*
X140196400Y-41651642D01*
X140180005Y-41647618D01*
X140163290Y-41644155D01*
X140146256Y-41641253D01*
X140128902Y-41638913D01*
X140117156Y-41637665D01*
X140105267Y-41636667D01*
X140093237Y-41635918D01*
X140081064Y-41635419D01*
X140068750Y-41635170D01*
X140062539Y-41635138D01*
X140047489Y-41635234D01*
X140032891Y-41635520D01*
X140018747Y-41635996D01*
X140005057Y-41636663D01*
X139991820Y-41637521D01*
X139979036Y-41638570D01*
X139966705Y-41639809D01*
X139954828Y-41641238D01*
X139939697Y-41643441D01*
X139925373Y-41645983D01*
X139911625Y-41648708D01*
X139898225Y-41651606D01*
X139885173Y-41654679D01*
X139872470Y-41657926D01*
X139860114Y-41661347D01*
X139848106Y-41664942D01*
X139836447Y-41668711D01*
X139825135Y-41672654D01*
X139825135Y-41860233D01*
X139838022Y-41853684D01*
X139851184Y-41847520D01*
X139864620Y-41841740D01*
X139878331Y-41836346D01*
X139892317Y-41831336D01*
X139906578Y-41826710D01*
X139921114Y-41822470D01*
X139935924Y-41818614D01*
X139950775Y-41815179D01*
X139965435Y-41812202D01*
X139979901Y-41809683D01*
X139994176Y-41807623D01*
X140008258Y-41806020D01*
X140022148Y-41804875D01*
X140035845Y-41804188D01*
X140049350Y-41803959D01*
X140063167Y-41804270D01*
X140076626Y-41805205D01*
X140089728Y-41806762D01*
X140102473Y-41808942D01*
X140114861Y-41811744D01*
X140126891Y-41815170D01*
X140138565Y-41819218D01*
X140149881Y-41823889D01*
X140160798Y-41829115D01*
X140171276Y-41834825D01*
X140181315Y-41841021D01*
X140193244Y-41849449D01*
X140204487Y-41858635D01*
X140215043Y-41868580D01*
X140224912Y-41879284D01*
X140232308Y-41888388D01*
X140239255Y-41897968D01*
X140245754Y-41908025D01*
X140251803Y-41918558D01*
X140257404Y-41929567D01*
X140262556Y-41941053D01*
X140267259Y-41953014D01*
X140271514Y-41965452D01*
X140275292Y-41978284D01*
X140278566Y-41991428D01*
X140281337Y-42004882D01*
X140283604Y-42018648D01*
X140285367Y-42032726D01*
X140286626Y-42047115D01*
X140287382Y-42061815D01*
X140287634Y-42076827D01*
X140287482Y-42088584D01*
X140286806Y-42103907D01*
X140285590Y-42118827D01*
X140283834Y-42133345D01*
X140281537Y-42147459D01*
X140278700Y-42161170D01*
X140275323Y-42174478D01*
X140271405Y-42187383D01*
X140270341Y-42190547D01*
X140265794Y-42202843D01*
X140260797Y-42214672D01*
X140255352Y-42226034D01*
X140249458Y-42236928D01*
X140243116Y-42247356D01*
X140236324Y-42257316D01*
X140229084Y-42266810D01*
X140221395Y-42275836D01*
X140213216Y-42284304D01*
X140202451Y-42294180D01*
X140191085Y-42303269D01*
X140179118Y-42311571D01*
X140166550Y-42319086D01*
X140156063Y-42324531D01*
X140145191Y-42329472D01*
X140133898Y-42333800D01*
X140122293Y-42337550D01*
X140110377Y-42340724D01*
X140098150Y-42343321D01*
X140085611Y-42345340D01*
X140072761Y-42346783D01*
X140059599Y-42347648D01*
X140046126Y-42347937D01*
X140032754Y-42347680D01*
X140020753Y-42347035D01*
X140008471Y-42345997D01*
X139995909Y-42344567D01*
X139990439Y-42343833D01*
X139977616Y-42341856D01*
X139964793Y-42339514D01*
X139951971Y-42336807D01*
X139939148Y-42333735D01*
X139931821Y-42331817D01*
X139919040Y-42328256D01*
X139906343Y-42324500D01*
X139893731Y-42320547D01*
X139881203Y-42316397D01*
X139874082Y-42313938D01*
X139861826Y-42309366D01*
X139849935Y-42304626D01*
X139838408Y-42299717D01*
X139827247Y-42294640D01*
X139821032Y-42291663D01*
X139821032Y-42479242D01*
G37*
G36*
X138885191Y-42498000D02*
G01*
X138898829Y-42500069D01*
X138912485Y-42502030D01*
X138926160Y-42503880D01*
X138939853Y-42505620D01*
X138953564Y-42507250D01*
X138967293Y-42508771D01*
X138981041Y-42510181D01*
X138994807Y-42511482D01*
X139008496Y-42512718D01*
X139022010Y-42513790D01*
X139035350Y-42514697D01*
X139048516Y-42515438D01*
X139061509Y-42516015D01*
X139074327Y-42516428D01*
X139086971Y-42516675D01*
X139099441Y-42516757D01*
X139114685Y-42516603D01*
X139129532Y-42516139D01*
X139143983Y-42515366D01*
X139158036Y-42514284D01*
X139171693Y-42512893D01*
X139184954Y-42511193D01*
X139197818Y-42509184D01*
X139210285Y-42506866D01*
X139222355Y-42504238D01*
X139234028Y-42501301D01*
X139241590Y-42499172D01*
X139256217Y-42494487D01*
X139270203Y-42489225D01*
X139283548Y-42483386D01*
X139296252Y-42476970D01*
X139308314Y-42469977D01*
X139319736Y-42462407D01*
X139330516Y-42454260D01*
X139340655Y-42445536D01*
X139350085Y-42436148D01*
X139358882Y-42426155D01*
X139367047Y-42415558D01*
X139374581Y-42404357D01*
X139381482Y-42392551D01*
X139387751Y-42380140D01*
X139393389Y-42367125D01*
X139398394Y-42353505D01*
X139402722Y-42339181D01*
X139406473Y-42324196D01*
X139408907Y-42312525D01*
X139411017Y-42300483D01*
X139412802Y-42288070D01*
X139414262Y-42275287D01*
X139415398Y-42262132D01*
X139416210Y-42248606D01*
X139416697Y-42234710D01*
X139416859Y-42220442D01*
X139416859Y-41803959D01*
X139641953Y-41803959D01*
X139641953Y-41653896D01*
X139416859Y-41653896D01*
X139416859Y-41443750D01*
X139210816Y-41391286D01*
X139210816Y-41653896D01*
X138885191Y-41653896D01*
X138885191Y-41803959D01*
X139210816Y-41803959D01*
X139210816Y-42201684D01*
X139210527Y-42214896D01*
X139209662Y-42227496D01*
X139208219Y-42239482D01*
X139205398Y-42254510D01*
X139201551Y-42268447D01*
X139196679Y-42281295D01*
X139190780Y-42293053D01*
X139183856Y-42303721D01*
X139177989Y-42311007D01*
X139169018Y-42319663D01*
X139158664Y-42327164D01*
X139146926Y-42333511D01*
X139133806Y-42338704D01*
X139119303Y-42342743D01*
X139107517Y-42345016D01*
X139094954Y-42346638D01*
X139081613Y-42347612D01*
X139067494Y-42347937D01*
X139055152Y-42347850D01*
X139042893Y-42347589D01*
X139030716Y-42347154D01*
X139018621Y-42346545D01*
X139006609Y-42345761D01*
X138994679Y-42344804D01*
X138982832Y-42343673D01*
X138971067Y-42342368D01*
X138959403Y-42340880D01*
X138945196Y-42338955D01*
X138931405Y-42336958D01*
X138918028Y-42334890D01*
X138905066Y-42332751D01*
X138892520Y-42330540D01*
X138885191Y-42329179D01*
X138885191Y-42498000D01*
G37*
G36*
X138301499Y-41635170D02*
G01*
X138313399Y-41635419D01*
X138325145Y-41635918D01*
X138342477Y-41637135D01*
X138359464Y-41638913D01*
X138376106Y-41641253D01*
X138392403Y-41644155D01*
X138408354Y-41647618D01*
X138423961Y-41651642D01*
X138439222Y-41656228D01*
X138454138Y-41661376D01*
X138468708Y-41667085D01*
X138478180Y-41671182D01*
X138492048Y-41677713D01*
X138505510Y-41684707D01*
X138518564Y-41692166D01*
X138531211Y-41700088D01*
X138543451Y-41708474D01*
X138555285Y-41717323D01*
X138566711Y-41726636D01*
X138577730Y-41736413D01*
X138588343Y-41746653D01*
X138598548Y-41757357D01*
X138605083Y-41764707D01*
X138614525Y-41776086D01*
X138623534Y-41787894D01*
X138632110Y-41800129D01*
X138640254Y-41812792D01*
X138647965Y-41825882D01*
X138655243Y-41839400D01*
X138662088Y-41853346D01*
X138668500Y-41867719D01*
X138674480Y-41882520D01*
X138680027Y-41897748D01*
X138685108Y-41913350D01*
X138689689Y-41929272D01*
X138693770Y-41945512D01*
X138697352Y-41962073D01*
X138700433Y-41978952D01*
X138703015Y-41996151D01*
X138704459Y-42007795D01*
X138705681Y-42019580D01*
X138706680Y-42031508D01*
X138707458Y-42043577D01*
X138708013Y-42055789D01*
X138708346Y-42068142D01*
X138708457Y-42080637D01*
X138708351Y-42094124D01*
X138708031Y-42107400D01*
X138707499Y-42120466D01*
X138706753Y-42133321D01*
X138705795Y-42145965D01*
X138704624Y-42158398D01*
X138703240Y-42170621D01*
X138701643Y-42182633D01*
X138699833Y-42194435D01*
X138697810Y-42206025D01*
X138694376Y-42223017D01*
X138690463Y-42239534D01*
X138686071Y-42255577D01*
X138681200Y-42271147D01*
X138677700Y-42281262D01*
X138672102Y-42296035D01*
X138666087Y-42310329D01*
X138659655Y-42324144D01*
X138652805Y-42337480D01*
X138645538Y-42350337D01*
X138637854Y-42362715D01*
X138629753Y-42374613D01*
X138621234Y-42386033D01*
X138612298Y-42396973D01*
X138602944Y-42407434D01*
X138596482Y-42414143D01*
X138586463Y-42423812D01*
X138576053Y-42433006D01*
X138565251Y-42441727D01*
X138554057Y-42449974D01*
X138542472Y-42457746D01*
X138530496Y-42465045D01*
X138518127Y-42471870D01*
X138505368Y-42478220D01*
X138492216Y-42484097D01*
X138478673Y-42489500D01*
X138469402Y-42492801D01*
X138455212Y-42497352D01*
X138440681Y-42501425D01*
X138425811Y-42505019D01*
X138410601Y-42508133D01*
X138395050Y-42510768D01*
X138379160Y-42512924D01*
X138362929Y-42514601D01*
X138346359Y-42515799D01*
X138329448Y-42516518D01*
X138312197Y-42516757D01*
X138306082Y-42516726D01*
X138293978Y-42516474D01*
X138282044Y-42515970D01*
X138264460Y-42514742D01*
X138247258Y-42512948D01*
X138230436Y-42510586D01*
X138213996Y-42507658D01*
X138197938Y-42504164D01*
X138182260Y-42500102D01*
X138166964Y-42495474D01*
X138152049Y-42490279D01*
X138137515Y-42484517D01*
X138128010Y-42480348D01*
X138114105Y-42473707D01*
X138100622Y-42466602D01*
X138087562Y-42459034D01*
X138074924Y-42451002D01*
X138062709Y-42442506D01*
X138050916Y-42433547D01*
X138039545Y-42424124D01*
X138028597Y-42414237D01*
X138018072Y-42403887D01*
X138007969Y-42393073D01*
X138001471Y-42385581D01*
X137992090Y-42373999D01*
X137983147Y-42362005D01*
X137974642Y-42349599D01*
X137966575Y-42336781D01*
X137958946Y-42323551D01*
X137951755Y-42309908D01*
X137945001Y-42295853D01*
X137938686Y-42281387D01*
X137932808Y-42266508D01*
X137927368Y-42251217D01*
X137923961Y-42240819D01*
X137919263Y-42224973D01*
X137915059Y-42208828D01*
X137911349Y-42192385D01*
X137908134Y-42175642D01*
X137905414Y-42158601D01*
X137903188Y-42141261D01*
X137901979Y-42129536D01*
X137900990Y-42117677D01*
X137900221Y-42105685D01*
X137899671Y-42093561D01*
X137899342Y-42081304D01*
X137899276Y-42073896D01*
X138108499Y-42073896D01*
X138108682Y-42088216D01*
X138109232Y-42102308D01*
X138110148Y-42116170D01*
X138111430Y-42129803D01*
X138113078Y-42143208D01*
X138115093Y-42156383D01*
X138117475Y-42169330D01*
X138120223Y-42182047D01*
X138120948Y-42185167D01*
X138124081Y-42197394D01*
X138127580Y-42209219D01*
X138131445Y-42220640D01*
X138135676Y-42231658D01*
X138141481Y-42244865D01*
X138147858Y-42257441D01*
X138154807Y-42269388D01*
X138157721Y-42273941D01*
X138165496Y-42284773D01*
X138173973Y-42294818D01*
X138183151Y-42304076D01*
X138193029Y-42312547D01*
X138203610Y-42320231D01*
X138214891Y-42327127D01*
X138224334Y-42332004D01*
X138236730Y-42337186D01*
X138249785Y-42341352D01*
X138263498Y-42344502D01*
X138277869Y-42346636D01*
X138289840Y-42347612D01*
X138302232Y-42347937D01*
X138313512Y-42347669D01*
X138329864Y-42346262D01*
X138345537Y-42343650D01*
X138360529Y-42339833D01*
X138374841Y-42334809D01*
X138388473Y-42328581D01*
X138401425Y-42321146D01*
X138413698Y-42312506D01*
X138425290Y-42302661D01*
X138436201Y-42291610D01*
X138446433Y-42279353D01*
X138452822Y-42270520D01*
X138461632Y-42256297D01*
X138469514Y-42240903D01*
X138474254Y-42229991D01*
X138478582Y-42218560D01*
X138482497Y-42206608D01*
X138486001Y-42194137D01*
X138489092Y-42181146D01*
X138491771Y-42167635D01*
X138494038Y-42153604D01*
X138495892Y-42139054D01*
X138497335Y-42123984D01*
X138498365Y-42108394D01*
X138498984Y-42092284D01*
X138499190Y-42075655D01*
X138499016Y-42061696D01*
X138498494Y-42047958D01*
X138497624Y-42034439D01*
X138496405Y-42021140D01*
X138494839Y-42008061D01*
X138492925Y-41995201D01*
X138490663Y-41982562D01*
X138488052Y-41970142D01*
X138485071Y-41957956D01*
X138481696Y-41946163D01*
X138477927Y-41934765D01*
X138472662Y-41921071D01*
X138466781Y-41907992D01*
X138460286Y-41895528D01*
X138453174Y-41883680D01*
X138450120Y-41879090D01*
X138442043Y-41868166D01*
X138433336Y-41858030D01*
X138423999Y-41848680D01*
X138414033Y-41840118D01*
X138403437Y-41832343D01*
X138392211Y-41825355D01*
X138389870Y-41824038D01*
X138377707Y-41818084D01*
X138364785Y-41813173D01*
X138351105Y-41809308D01*
X138339615Y-41806968D01*
X138327640Y-41805296D01*
X138315179Y-41804293D01*
X138302232Y-41803959D01*
X138290471Y-41804223D01*
X138273511Y-41805612D01*
X138257371Y-41808191D01*
X138242050Y-41811959D01*
X138227548Y-41816918D01*
X138213865Y-41823067D01*
X138201001Y-41830406D01*
X138188957Y-41838935D01*
X138177731Y-41848654D01*
X138167325Y-41859564D01*
X138157738Y-41871663D01*
X138154709Y-41875960D01*
X138146198Y-41889633D01*
X138138552Y-41904481D01*
X138131772Y-41920504D01*
X138127733Y-41931838D01*
X138124079Y-41943695D01*
X138120809Y-41956073D01*
X138117924Y-41968974D01*
X138115423Y-41982397D01*
X138113307Y-41996341D01*
X138111576Y-42010808D01*
X138110230Y-42025797D01*
X138109268Y-42041308D01*
X138108691Y-42057341D01*
X138108499Y-42073896D01*
X137899276Y-42073896D01*
X137899232Y-42068914D01*
X137899258Y-42062289D01*
X137899469Y-42049189D01*
X137899890Y-42036289D01*
X137900522Y-42023587D01*
X137901365Y-42011085D01*
X137902418Y-41998782D01*
X137903682Y-41986678D01*
X137905156Y-41974774D01*
X137906842Y-41963068D01*
X137909765Y-41945884D01*
X137913162Y-41929148D01*
X137917032Y-41912860D01*
X137921377Y-41897020D01*
X137926196Y-41881628D01*
X137929625Y-41871583D01*
X137935125Y-41856902D01*
X137941052Y-41842684D01*
X137947407Y-41828930D01*
X137954190Y-41815639D01*
X137961400Y-41802812D01*
X137969038Y-41790449D01*
X137977103Y-41778550D01*
X137985596Y-41767114D01*
X137994517Y-41756142D01*
X138003865Y-41745634D01*
X138010328Y-41738888D01*
X138020353Y-41729165D01*
X138030775Y-41719915D01*
X138041593Y-41711139D01*
X138052808Y-41702838D01*
X138064420Y-41695010D01*
X138076428Y-41687657D01*
X138088833Y-41680777D01*
X138101635Y-41674371D01*
X138114834Y-41668440D01*
X138128429Y-41662982D01*
X138137668Y-41659610D01*
X138151828Y-41654961D01*
X138166348Y-41650800D01*
X138181229Y-41647130D01*
X138196470Y-41643948D01*
X138212072Y-41641256D01*
X138228034Y-41639054D01*
X138244358Y-41637341D01*
X138261042Y-41636117D01*
X138278086Y-41635383D01*
X138295491Y-41635138D01*
X138301499Y-41635170D01*
G37*
G36*
X137043112Y-42498000D02*
G01*
X137266740Y-42498000D01*
X137355547Y-42216339D01*
X137382805Y-42118446D01*
X137410062Y-42218976D01*
X137495645Y-42498000D01*
X137719860Y-42498000D01*
X137838562Y-41653896D01*
X137647466Y-41653896D01*
X137587382Y-42153910D01*
X137573314Y-42269681D01*
X137539608Y-42147169D01*
X137455491Y-41878990D01*
X137302204Y-41878990D01*
X137212225Y-42145411D01*
X137173537Y-42271440D01*
X137158003Y-42135739D01*
X137107592Y-41653896D01*
X136925289Y-41653896D01*
X137043112Y-42498000D01*
G37*
G36*
X136475736Y-41635181D02*
G01*
X136491546Y-41635403D01*
X136507249Y-41635816D01*
X136522843Y-41636420D01*
X136538329Y-41637214D01*
X136553707Y-41638199D01*
X136568977Y-41639374D01*
X136584138Y-41640741D01*
X136599191Y-41642297D01*
X136614137Y-41644045D01*
X136628973Y-41645983D01*
X136638720Y-41647323D01*
X136653069Y-41649416D01*
X136667094Y-41651606D01*
X136680794Y-41653895D01*
X136694169Y-41656281D01*
X136707220Y-41658765D01*
X136719946Y-41661347D01*
X136732348Y-41664027D01*
X136744425Y-41666805D01*
X136756178Y-41669681D01*
X136767606Y-41672654D01*
X136767606Y-41841475D01*
X136759125Y-41838188D01*
X136746341Y-41833433D01*
X136733479Y-41828890D01*
X136720540Y-41824558D01*
X136707523Y-41820437D01*
X136694429Y-41816528D01*
X136681258Y-41812830D01*
X136668010Y-41809343D01*
X136654684Y-41806067D01*
X136641281Y-41803002D01*
X136627801Y-41800149D01*
X136618781Y-41798339D01*
X136605220Y-41795843D01*
X136591623Y-41793609D01*
X136577990Y-41791639D01*
X136564320Y-41789931D01*
X136550615Y-41788486D01*
X136536874Y-41787303D01*
X136523097Y-41786384D01*
X136509283Y-41785727D01*
X136495434Y-41785333D01*
X136481548Y-41785201D01*
X136467259Y-41785437D01*
X136453699Y-41786146D01*
X136440869Y-41787326D01*
X136428769Y-41788979D01*
X136415212Y-41791586D01*
X136402707Y-41794873D01*
X136392925Y-41798096D01*
X136381962Y-41802492D01*
X136370239Y-41808351D01*
X136359666Y-41814995D01*
X136350244Y-41822424D01*
X136348990Y-41823549D01*
X136339749Y-41833106D01*
X136331900Y-41843653D01*
X136325442Y-41855189D01*
X136320934Y-41866094D01*
X136318805Y-41872565D01*
X136315761Y-41884352D01*
X136313588Y-41896728D01*
X136312283Y-41909693D01*
X136311849Y-41923247D01*
X136311849Y-41972780D01*
X136421465Y-41972780D01*
X136427923Y-41972800D01*
X136440684Y-41972965D01*
X136453237Y-41973295D01*
X136465581Y-41973789D01*
X136477717Y-41974449D01*
X136489644Y-41975273D01*
X136507145Y-41976819D01*
X136524176Y-41978735D01*
X136540739Y-41981023D01*
X136556833Y-41983681D01*
X136572458Y-41986711D01*
X136587615Y-41990111D01*
X136602302Y-41993882D01*
X136611838Y-41996582D01*
X136625768Y-42000863D01*
X136639250Y-42005423D01*
X136652284Y-42010260D01*
X136664869Y-42015376D01*
X136677006Y-42020771D01*
X136688695Y-42026443D01*
X136699936Y-42032393D01*
X136710729Y-42038622D01*
X136721073Y-42045129D01*
X136730969Y-42051914D01*
X136743384Y-42061376D01*
X136754984Y-42071295D01*
X136765769Y-42081672D01*
X136775739Y-42092508D01*
X136784893Y-42103801D01*
X136793233Y-42115552D01*
X136800757Y-42127761D01*
X136807466Y-42140428D01*
X136813374Y-42153397D01*
X136818494Y-42166660D01*
X136822826Y-42180215D01*
X136826371Y-42194064D01*
X136829127Y-42208205D01*
X136831097Y-42222640D01*
X136832278Y-42237368D01*
X136832672Y-42252389D01*
X136832411Y-42266961D01*
X136831628Y-42281222D01*
X136830323Y-42295171D01*
X136828495Y-42308809D01*
X136826146Y-42322135D01*
X136823275Y-42335151D01*
X136819881Y-42347854D01*
X136815966Y-42360247D01*
X136811469Y-42372190D01*
X136806477Y-42383694D01*
X136800991Y-42394758D01*
X136795010Y-42405383D01*
X136788534Y-42415568D01*
X136781564Y-42425313D01*
X136774099Y-42434618D01*
X136766140Y-42443484D01*
X136757618Y-42451893D01*
X136748610Y-42459824D01*
X136739116Y-42467280D01*
X136729137Y-42474259D01*
X136718673Y-42480762D01*
X136707723Y-42486789D01*
X136696288Y-42492339D01*
X136684368Y-42497413D01*
X136681311Y-42498603D01*
X136668777Y-42502986D01*
X136655748Y-42506764D01*
X136642225Y-42509938D01*
X136628207Y-42512507D01*
X136613694Y-42514472D01*
X136598687Y-42515832D01*
X136583185Y-42516587D01*
X136571234Y-42516757D01*
X136562234Y-42516672D01*
X136550442Y-42516295D01*
X136536036Y-42515397D01*
X136522003Y-42514028D01*
X136508341Y-42512186D01*
X136495052Y-42509872D01*
X136482135Y-42507085D01*
X136477031Y-42505881D01*
X136464491Y-42502589D01*
X136452267Y-42498897D01*
X136440357Y-42494804D01*
X136428762Y-42490310D01*
X136417482Y-42485416D01*
X136406517Y-42480121D01*
X136395852Y-42474482D01*
X136385474Y-42468558D01*
X136375382Y-42462347D01*
X136365576Y-42455849D01*
X136354187Y-42447675D01*
X136343209Y-42439088D01*
X136339593Y-42436102D01*
X136330641Y-42428477D01*
X136321818Y-42420623D01*
X136313124Y-42412540D01*
X136304559Y-42404229D01*
X136296123Y-42395688D01*
X136287815Y-42386918D01*
X136282832Y-42498000D01*
X136110788Y-42498000D01*
X136110788Y-42122842D01*
X136311849Y-42122842D01*
X136311849Y-42241838D01*
X136321990Y-42252861D01*
X136331972Y-42263400D01*
X136341795Y-42273455D01*
X136351457Y-42283026D01*
X136360960Y-42292113D01*
X136370303Y-42300715D01*
X136379487Y-42308832D01*
X136388510Y-42316466D01*
X136400293Y-42325891D01*
X136411793Y-42334454D01*
X136423026Y-42342011D01*
X136434159Y-42348560D01*
X136445191Y-42354101D01*
X136458840Y-42359611D01*
X136472331Y-42363546D01*
X136485665Y-42365907D01*
X136498841Y-42366695D01*
X136502371Y-42366667D01*
X136516030Y-42366000D01*
X136528947Y-42364446D01*
X136541121Y-42362003D01*
X136552554Y-42358671D01*
X136565802Y-42353257D01*
X136577891Y-42346455D01*
X136588820Y-42338265D01*
X136598277Y-42328751D01*
X136606131Y-42317977D01*
X136612382Y-42305944D01*
X136617030Y-42292652D01*
X136619595Y-42281112D01*
X136621133Y-42268765D01*
X136621646Y-42255613D01*
X136621005Y-42242314D01*
X136619082Y-42229381D01*
X136615876Y-42216815D01*
X136611388Y-42204615D01*
X136610059Y-42201634D01*
X136603803Y-42190167D01*
X136596045Y-42179432D01*
X136588025Y-42170640D01*
X136578855Y-42162410D01*
X136568478Y-42154710D01*
X136556840Y-42147768D01*
X136545859Y-42142420D01*
X136533951Y-42137629D01*
X136521116Y-42133394D01*
X136512007Y-42130921D01*
X136499939Y-42128293D01*
X136487111Y-42126181D01*
X136473526Y-42124584D01*
X136459182Y-42123502D01*
X136447161Y-42123007D01*
X136434654Y-42122842D01*
X136311849Y-42122842D01*
X136110788Y-42122842D01*
X136110788Y-41921196D01*
X136110808Y-41916743D01*
X136111113Y-41903596D01*
X136111784Y-41890764D01*
X136112820Y-41878245D01*
X136114222Y-41866041D01*
X136115990Y-41854151D01*
X136118917Y-41838787D01*
X136122493Y-41823981D01*
X136126720Y-41809734D01*
X136131597Y-41796046D01*
X136137084Y-41782916D01*
X136143284Y-41770345D01*
X136150199Y-41758333D01*
X136157829Y-41746879D01*
X136166173Y-41735985D01*
X136175231Y-41725649D01*
X136185004Y-41715871D01*
X136195491Y-41706653D01*
X136206633Y-41697993D01*
X136218517Y-41689892D01*
X136231143Y-41682349D01*
X136244511Y-41675365D01*
X136258620Y-41668940D01*
X136269689Y-41664488D01*
X136281176Y-41660350D01*
X136293080Y-41656526D01*
X136305401Y-41653017D01*
X136313821Y-41650852D01*
X136326843Y-41647866D01*
X136340333Y-41645195D01*
X136354293Y-41642838D01*
X136368721Y-41640795D01*
X136383618Y-41639067D01*
X136398984Y-41637653D01*
X136414818Y-41636553D01*
X136431122Y-41635767D01*
X136447894Y-41635296D01*
X136465135Y-41635138D01*
X136475736Y-41635181D01*
G37*
G36*
X135194584Y-42498000D02*
G01*
X135208222Y-42500069D01*
X135221878Y-42502030D01*
X135235553Y-42503880D01*
X135249246Y-42505620D01*
X135262957Y-42507250D01*
X135276686Y-42508771D01*
X135290434Y-42510181D01*
X135304200Y-42511482D01*
X135317889Y-42512718D01*
X135331403Y-42513790D01*
X135344743Y-42514697D01*
X135357909Y-42515438D01*
X135370901Y-42516015D01*
X135383720Y-42516428D01*
X135396364Y-42516675D01*
X135408834Y-42516757D01*
X135424078Y-42516603D01*
X135438925Y-42516139D01*
X135453375Y-42515366D01*
X135467429Y-42514284D01*
X135481086Y-42512893D01*
X135494347Y-42511193D01*
X135507210Y-42509184D01*
X135519677Y-42506866D01*
X135531748Y-42504238D01*
X135543421Y-42501301D01*
X135550983Y-42499172D01*
X135565610Y-42494487D01*
X135579596Y-42489225D01*
X135592941Y-42483386D01*
X135605645Y-42476970D01*
X135617707Y-42469977D01*
X135629129Y-42462407D01*
X135639909Y-42454260D01*
X135650048Y-42445536D01*
X135659477Y-42436148D01*
X135668275Y-42426155D01*
X135676440Y-42415558D01*
X135683973Y-42404357D01*
X135690875Y-42392551D01*
X135697144Y-42380140D01*
X135702782Y-42367125D01*
X135707787Y-42353505D01*
X135712115Y-42339181D01*
X135715865Y-42324196D01*
X135718300Y-42312525D01*
X135720410Y-42300483D01*
X135722195Y-42288070D01*
X135723655Y-42275287D01*
X135724791Y-42262132D01*
X135725603Y-42248606D01*
X135726090Y-42234710D01*
X135726252Y-42220442D01*
X135726252Y-41803959D01*
X135951346Y-41803959D01*
X135951346Y-41653896D01*
X135726252Y-41653896D01*
X135726252Y-41443750D01*
X135520209Y-41391286D01*
X135520209Y-41653896D01*
X135194584Y-41653896D01*
X135194584Y-41803959D01*
X135520209Y-41803959D01*
X135520209Y-42201684D01*
X135519920Y-42214896D01*
X135519055Y-42227496D01*
X135517612Y-42239482D01*
X135514791Y-42254510D01*
X135510944Y-42268447D01*
X135506072Y-42281295D01*
X135500173Y-42293053D01*
X135493249Y-42303721D01*
X135487382Y-42311007D01*
X135478411Y-42319663D01*
X135468057Y-42327164D01*
X135456319Y-42333511D01*
X135443199Y-42338704D01*
X135428695Y-42342743D01*
X135416910Y-42345016D01*
X135404347Y-42346638D01*
X135391006Y-42347612D01*
X135376887Y-42347937D01*
X135364545Y-42347850D01*
X135352286Y-42347589D01*
X135340109Y-42347154D01*
X135328014Y-42346545D01*
X135316002Y-42345761D01*
X135304072Y-42344804D01*
X135292225Y-42343673D01*
X135280460Y-42342368D01*
X135268796Y-42340880D01*
X135254589Y-42338955D01*
X135240797Y-42336958D01*
X135227421Y-42334890D01*
X135214459Y-42332751D01*
X135201913Y-42330540D01*
X135194584Y-42329179D01*
X135194584Y-42498000D01*
G37*
G36*
X134285121Y-42479242D02*
G01*
X134300060Y-42483849D01*
X134311348Y-42487100D01*
X134322708Y-42490175D01*
X134334140Y-42493076D01*
X134345645Y-42495801D01*
X134357221Y-42498352D01*
X134368870Y-42500727D01*
X134380591Y-42502927D01*
X134392384Y-42504951D01*
X134404249Y-42506801D01*
X134408220Y-42507378D01*
X134420142Y-42509055D01*
X134432166Y-42510566D01*
X134444294Y-42511912D01*
X134456525Y-42513094D01*
X134468859Y-42514110D01*
X134481296Y-42514962D01*
X134493836Y-42515649D01*
X134506479Y-42516171D01*
X134519225Y-42516528D01*
X134532074Y-42516721D01*
X134540697Y-42516757D01*
X134553073Y-42516650D01*
X134565289Y-42516327D01*
X134577345Y-42515789D01*
X134589240Y-42515035D01*
X134600975Y-42514067D01*
X134618278Y-42512210D01*
X134635219Y-42509870D01*
X134651800Y-42507045D01*
X134668020Y-42503735D01*
X134683880Y-42499942D01*
X134699379Y-42495664D01*
X134714517Y-42490902D01*
X134719483Y-42489207D01*
X134734112Y-42483752D01*
X134748324Y-42477828D01*
X134762118Y-42471435D01*
X134775495Y-42464573D01*
X134788455Y-42457243D01*
X134800998Y-42449444D01*
X134813123Y-42441176D01*
X134824831Y-42432439D01*
X134836122Y-42423233D01*
X134846995Y-42413558D01*
X134854012Y-42406848D01*
X134864117Y-42396397D01*
X134873768Y-42385488D01*
X134882966Y-42374120D01*
X134891711Y-42362294D01*
X134900002Y-42350009D01*
X134907840Y-42337265D01*
X134915224Y-42324063D01*
X134922156Y-42310403D01*
X134928633Y-42296284D01*
X134934658Y-42281706D01*
X134938422Y-42271733D01*
X134943660Y-42256349D01*
X134948383Y-42240532D01*
X134952590Y-42224283D01*
X134956282Y-42207601D01*
X134959459Y-42190486D01*
X134961291Y-42178836D01*
X134962894Y-42166993D01*
X134964268Y-42154958D01*
X134965413Y-42142730D01*
X134966329Y-42130311D01*
X134967016Y-42117699D01*
X134967474Y-42104894D01*
X134967703Y-42091897D01*
X134967731Y-42085327D01*
X134967608Y-42072581D01*
X134967237Y-42059988D01*
X134966618Y-42047549D01*
X134965753Y-42035263D01*
X134964640Y-42023131D01*
X134963280Y-42011152D01*
X134961673Y-41999326D01*
X134959818Y-41987654D01*
X134956572Y-41970434D01*
X134952770Y-41953558D01*
X134948411Y-41937028D01*
X134943496Y-41920843D01*
X134938025Y-41905003D01*
X134936077Y-41899800D01*
X134929863Y-41884409D01*
X134923201Y-41869451D01*
X134916090Y-41854926D01*
X134908531Y-41840834D01*
X134900524Y-41827174D01*
X134892069Y-41813947D01*
X134883166Y-41801153D01*
X134873814Y-41788792D01*
X134864014Y-41776863D01*
X134853766Y-41765367D01*
X134846685Y-41757944D01*
X134835652Y-41747135D01*
X134824208Y-41736800D01*
X134812352Y-41726939D01*
X134800083Y-41717552D01*
X134787402Y-41708639D01*
X134774309Y-41700200D01*
X134760804Y-41692235D01*
X134746887Y-41684744D01*
X134732557Y-41677727D01*
X134717816Y-41671184D01*
X134707759Y-41667085D01*
X134692322Y-41661376D01*
X134676566Y-41656228D01*
X134660490Y-41651642D01*
X134644094Y-41647618D01*
X134627379Y-41644155D01*
X134610345Y-41641253D01*
X134592992Y-41638913D01*
X134581245Y-41637665D01*
X134569357Y-41636667D01*
X134557326Y-41635918D01*
X134545154Y-41635419D01*
X134532839Y-41635170D01*
X134526629Y-41635138D01*
X134511578Y-41635234D01*
X134496981Y-41635520D01*
X134482837Y-41635996D01*
X134469146Y-41636663D01*
X134455909Y-41637521D01*
X134443125Y-41638570D01*
X134430795Y-41639809D01*
X134418918Y-41641238D01*
X134403787Y-41643441D01*
X134389462Y-41645983D01*
X134375714Y-41648708D01*
X134362314Y-41651606D01*
X134349263Y-41654679D01*
X134336559Y-41657926D01*
X134324203Y-41661347D01*
X134312196Y-41664942D01*
X134300536Y-41668711D01*
X134289225Y-41672654D01*
X134289225Y-41860233D01*
X134302112Y-41853684D01*
X134315273Y-41847520D01*
X134328710Y-41841740D01*
X134342421Y-41836346D01*
X134356407Y-41831336D01*
X134370667Y-41826710D01*
X134385203Y-41822470D01*
X134400013Y-41818614D01*
X134414865Y-41815179D01*
X134429524Y-41812202D01*
X134443991Y-41809683D01*
X134458265Y-41807623D01*
X134472347Y-41806020D01*
X134486237Y-41804875D01*
X134499934Y-41804188D01*
X134513440Y-41803959D01*
X134527256Y-41804270D01*
X134540715Y-41805205D01*
X134553818Y-41806762D01*
X134566562Y-41808942D01*
X134578950Y-41811744D01*
X134590981Y-41815170D01*
X134602654Y-41819218D01*
X134613970Y-41823889D01*
X134624888Y-41829115D01*
X134635366Y-41834825D01*
X134645404Y-41841021D01*
X134657334Y-41849449D01*
X134668577Y-41858635D01*
X134679132Y-41868580D01*
X134689001Y-41879284D01*
X134696397Y-41888388D01*
X134703345Y-41897968D01*
X134709843Y-41908025D01*
X134715892Y-41918558D01*
X134721493Y-41929567D01*
X134726645Y-41941053D01*
X134731348Y-41953014D01*
X134735603Y-41965452D01*
X134739381Y-41978284D01*
X134742655Y-41991428D01*
X134745426Y-42004882D01*
X134747693Y-42018648D01*
X134749456Y-42032726D01*
X134750715Y-42047115D01*
X134751471Y-42061815D01*
X134751723Y-42076827D01*
X134751571Y-42088584D01*
X134750895Y-42103907D01*
X134749680Y-42118827D01*
X134747923Y-42133345D01*
X134745627Y-42147459D01*
X134742790Y-42161170D01*
X134739412Y-42174478D01*
X134735494Y-42187383D01*
X134734431Y-42190547D01*
X134729883Y-42202843D01*
X134724887Y-42214672D01*
X134719442Y-42226034D01*
X134713548Y-42236928D01*
X134707205Y-42247356D01*
X134700414Y-42257316D01*
X134693173Y-42266810D01*
X134685484Y-42275836D01*
X134677305Y-42284304D01*
X134666540Y-42294180D01*
X134655174Y-42303269D01*
X134643208Y-42311571D01*
X134630640Y-42319086D01*
X134620152Y-42324531D01*
X134609280Y-42329472D01*
X134597987Y-42333800D01*
X134586383Y-42337550D01*
X134574467Y-42340724D01*
X134562239Y-42343321D01*
X134549701Y-42345340D01*
X134536850Y-42346783D01*
X134523689Y-42347648D01*
X134510216Y-42347937D01*
X134496843Y-42347680D01*
X134484842Y-42347035D01*
X134472560Y-42345997D01*
X134459998Y-42344567D01*
X134454528Y-42343833D01*
X134441705Y-42341856D01*
X134428883Y-42339514D01*
X134416060Y-42336807D01*
X134403237Y-42333735D01*
X134395910Y-42331817D01*
X134383129Y-42328256D01*
X134370433Y-42324500D01*
X134357820Y-42320547D01*
X134345292Y-42316397D01*
X134338171Y-42313938D01*
X134325915Y-42309366D01*
X134314024Y-42304626D01*
X134302498Y-42299717D01*
X134291336Y-42294640D01*
X134285121Y-42291663D01*
X134285121Y-42479242D01*
G37*
G36*
X133540669Y-42498000D02*
G01*
X133540669Y-41943764D01*
X133541069Y-41926834D01*
X133542267Y-41910997D01*
X133544265Y-41896252D01*
X133547062Y-41882599D01*
X133550658Y-41870039D01*
X133555054Y-41858570D01*
X133563145Y-41843416D01*
X133573034Y-41830719D01*
X133584721Y-41820479D01*
X133598207Y-41812697D01*
X133613490Y-41807372D01*
X133630572Y-41804505D01*
X133642958Y-41803959D01*
X133655639Y-41804614D01*
X133668182Y-41806579D01*
X133680588Y-41809853D01*
X133692857Y-41814437D01*
X133704988Y-41820331D01*
X133716982Y-41827535D01*
X133728838Y-41836048D01*
X133740558Y-41845871D01*
X133749342Y-41853992D01*
X133758219Y-41862639D01*
X133767188Y-41871811D01*
X133776251Y-41881509D01*
X133785406Y-41891732D01*
X133794654Y-41902481D01*
X133803994Y-41913756D01*
X133813427Y-41925555D01*
X133822953Y-41937881D01*
X133832572Y-41950731D01*
X133839036Y-41959591D01*
X133839036Y-42498000D01*
X134040097Y-42498000D01*
X134040097Y-41335013D01*
X133839036Y-41335013D01*
X133839036Y-41616674D01*
X133849001Y-41765564D01*
X133841011Y-41756104D01*
X133832979Y-41746960D01*
X133824903Y-41738130D01*
X133816784Y-41729615D01*
X133806985Y-41719812D01*
X133797124Y-41710463D01*
X133786988Y-41701519D01*
X133776585Y-41693152D01*
X133765913Y-41685362D01*
X133754974Y-41678150D01*
X133743767Y-41671514D01*
X133739971Y-41669430D01*
X133728366Y-41663443D01*
X133716410Y-41658013D01*
X133704103Y-41653139D01*
X133691446Y-41648822D01*
X133678439Y-41645061D01*
X133674026Y-41643931D01*
X133660469Y-41640943D01*
X133648778Y-41638925D01*
X133636730Y-41637337D01*
X133624324Y-41636177D01*
X133611560Y-41635447D01*
X133598438Y-41635147D01*
X133595770Y-41635138D01*
X133583880Y-41635326D01*
X133568474Y-41636162D01*
X133553581Y-41637667D01*
X133539201Y-41639840D01*
X133525335Y-41642681D01*
X133511981Y-41646191D01*
X133499140Y-41650370D01*
X133486811Y-41655218D01*
X133483809Y-41656534D01*
X133472045Y-41662084D01*
X133460783Y-41668184D01*
X133450026Y-41674834D01*
X133439772Y-41682033D01*
X133430023Y-41689782D01*
X133420776Y-41698080D01*
X133412034Y-41706927D01*
X133403795Y-41716325D01*
X133395987Y-41726175D01*
X133388683Y-41736530D01*
X133381882Y-41747388D01*
X133375585Y-41758750D01*
X133369792Y-41770615D01*
X133364503Y-41782985D01*
X133359717Y-41795858D01*
X133355435Y-41809235D01*
X133351657Y-41823065D01*
X133348383Y-41837298D01*
X133345612Y-41851934D01*
X133343345Y-41866974D01*
X133341582Y-41882416D01*
X133340591Y-41894262D01*
X133339882Y-41906335D01*
X133339457Y-41918634D01*
X133339315Y-41931161D01*
X133339315Y-42498000D01*
X133540669Y-42498000D01*
G37*
G36*
X131711779Y-42498000D02*
G01*
X131980544Y-42498000D01*
X132309392Y-41428802D01*
X132079315Y-41428802D01*
X131897306Y-42072724D01*
X131838687Y-42283750D01*
X131777724Y-42060414D01*
X131597180Y-41428802D01*
X131381172Y-41428802D01*
X131711779Y-42498000D01*
G37*
G36*
X130922876Y-41410192D02*
G01*
X130935412Y-41410635D01*
X130947780Y-41411373D01*
X130959981Y-41412407D01*
X130972015Y-41413736D01*
X130983882Y-41415361D01*
X130995581Y-41417281D01*
X131012817Y-41420715D01*
X131029677Y-41424813D01*
X131046161Y-41429576D01*
X131062269Y-41435004D01*
X131078000Y-41441096D01*
X131093356Y-41447853D01*
X131103332Y-41452676D01*
X131117928Y-41460414D01*
X131132081Y-41468754D01*
X131145790Y-41477697D01*
X131159056Y-41487243D01*
X131171880Y-41497391D01*
X131184260Y-41508143D01*
X131196197Y-41519497D01*
X131207691Y-41531454D01*
X131218742Y-41544014D01*
X131229350Y-41557176D01*
X131232769Y-41561677D01*
X131242723Y-41575563D01*
X131252223Y-41590020D01*
X131261270Y-41605050D01*
X131267049Y-41615387D01*
X131272627Y-41625978D01*
X131278003Y-41636824D01*
X131283178Y-41647923D01*
X131288152Y-41659277D01*
X131292924Y-41670885D01*
X131297494Y-41682747D01*
X131301863Y-41694864D01*
X131306030Y-41707234D01*
X131309996Y-41719859D01*
X131313761Y-41732738D01*
X131317310Y-41745817D01*
X131320630Y-41759116D01*
X131323721Y-41772635D01*
X131326583Y-41786374D01*
X131329217Y-41800332D01*
X131331621Y-41814510D01*
X131333796Y-41828908D01*
X131335742Y-41843526D01*
X131337460Y-41858364D01*
X131338948Y-41873422D01*
X131340208Y-41888699D01*
X131341238Y-41904196D01*
X131342039Y-41919913D01*
X131342612Y-41935850D01*
X131342955Y-41952007D01*
X131343070Y-41968383D01*
X131342951Y-41986323D01*
X131342593Y-42003944D01*
X131341998Y-42021246D01*
X131341165Y-42038231D01*
X131340093Y-42054897D01*
X131338783Y-42071245D01*
X131337235Y-42087274D01*
X131335449Y-42102986D01*
X131333425Y-42118379D01*
X131331163Y-42133453D01*
X131328662Y-42148210D01*
X131325924Y-42162648D01*
X131322947Y-42176768D01*
X131319732Y-42190570D01*
X131316279Y-42204053D01*
X131312588Y-42217218D01*
X131310660Y-42223667D01*
X131306664Y-42236347D01*
X131302483Y-42248740D01*
X131298117Y-42260843D01*
X131293564Y-42272659D01*
X131288827Y-42284185D01*
X131283904Y-42295424D01*
X131278795Y-42306373D01*
X131273501Y-42317034D01*
X131265213Y-42332485D01*
X131256507Y-42347287D01*
X131247383Y-42361440D01*
X131237843Y-42374943D01*
X131227885Y-42387797D01*
X131220990Y-42396011D01*
X131210348Y-42407807D01*
X131199345Y-42418975D01*
X131187981Y-42429514D01*
X131176257Y-42439425D01*
X131164172Y-42448707D01*
X131151727Y-42457361D01*
X131138921Y-42465386D01*
X131125754Y-42472782D01*
X131112226Y-42479550D01*
X131098338Y-42485690D01*
X131088905Y-42489452D01*
X131074548Y-42494640D01*
X131059943Y-42499282D01*
X131045092Y-42503378D01*
X131029993Y-42506927D01*
X131014647Y-42509931D01*
X130999054Y-42512388D01*
X130983213Y-42514300D01*
X130967125Y-42515665D01*
X130950790Y-42516484D01*
X130934207Y-42516757D01*
X130921403Y-42516611D01*
X130908782Y-42516171D01*
X130896343Y-42515438D01*
X130884089Y-42514413D01*
X130872017Y-42513094D01*
X130860128Y-42511482D01*
X130848423Y-42509577D01*
X130831208Y-42506169D01*
X130814406Y-42502103D01*
X130798016Y-42497377D01*
X130782038Y-42491991D01*
X130766472Y-42485946D01*
X130751318Y-42479242D01*
X130741411Y-42474384D01*
X130726908Y-42466604D01*
X130712832Y-42458231D01*
X130699183Y-42449265D01*
X130685962Y-42439708D01*
X130673169Y-42429557D01*
X130660803Y-42418814D01*
X130648865Y-42407479D01*
X130637355Y-42395551D01*
X130626272Y-42383031D01*
X130615617Y-42369919D01*
X130608761Y-42360818D01*
X130598873Y-42346699D01*
X130589458Y-42332018D01*
X130583445Y-42321919D01*
X130577643Y-42311570D01*
X130572052Y-42300972D01*
X130566671Y-42290124D01*
X130561500Y-42279027D01*
X130556541Y-42267680D01*
X130551792Y-42256083D01*
X130547253Y-42244237D01*
X130542926Y-42232142D01*
X130538809Y-42219796D01*
X130534902Y-42207201D01*
X130531207Y-42194357D01*
X130527693Y-42181242D01*
X130524406Y-42167910D01*
X130521346Y-42154360D01*
X130518512Y-42140593D01*
X130515905Y-42126608D01*
X130513525Y-42112406D01*
X130511371Y-42097986D01*
X130509444Y-42083348D01*
X130507744Y-42068493D01*
X130506271Y-42053421D01*
X130505024Y-42038131D01*
X130504004Y-42022624D01*
X130503211Y-42006898D01*
X130502644Y-41990956D01*
X130502304Y-41974796D01*
X130502227Y-41963694D01*
X130705010Y-41963694D01*
X130705026Y-41969787D01*
X130705154Y-41981825D01*
X130705410Y-41993663D01*
X130706036Y-42011046D01*
X130706949Y-42027982D01*
X130708151Y-42044469D01*
X130709642Y-42060508D01*
X130711421Y-42076099D01*
X130713489Y-42091242D01*
X130715845Y-42105936D01*
X130718490Y-42120182D01*
X130721423Y-42133980D01*
X130723525Y-42142932D01*
X130726867Y-42155995D01*
X130730435Y-42168620D01*
X130734231Y-42180807D01*
X130738253Y-42192556D01*
X130742501Y-42203867D01*
X130746977Y-42214740D01*
X130753297Y-42228557D01*
X130760019Y-42241595D01*
X130767145Y-42253854D01*
X130772736Y-42262493D01*
X130780487Y-42273363D01*
X130788577Y-42283491D01*
X130797005Y-42292876D01*
X130805773Y-42301520D01*
X130814879Y-42309422D01*
X130824325Y-42316582D01*
X130836608Y-42324489D01*
X130841614Y-42327329D01*
X130854341Y-42333626D01*
X130867369Y-42338778D01*
X130880697Y-42342785D01*
X130894325Y-42345647D01*
X130908254Y-42347364D01*
X130922484Y-42347937D01*
X130938136Y-42347360D01*
X130953295Y-42345629D01*
X130967959Y-42342743D01*
X130982128Y-42338704D01*
X130995802Y-42333511D01*
X131008982Y-42327164D01*
X131021668Y-42319663D01*
X131033858Y-42311007D01*
X131045467Y-42301161D01*
X131056408Y-42290088D01*
X131064175Y-42280977D01*
X131071565Y-42271177D01*
X131078580Y-42260685D01*
X131085218Y-42249504D01*
X131091480Y-42237632D01*
X131097366Y-42225070D01*
X131102876Y-42211817D01*
X131108010Y-42197874D01*
X130706768Y-41916506D01*
X130706548Y-41927937D01*
X130705889Y-41939953D01*
X130705230Y-41951897D01*
X130705010Y-41963694D01*
X130502227Y-41963694D01*
X130502190Y-41958418D01*
X130502310Y-41940374D01*
X130502667Y-41922656D01*
X130503262Y-41905267D01*
X130504096Y-41888204D01*
X130505167Y-41871470D01*
X130506477Y-41855062D01*
X130508025Y-41838982D01*
X130509811Y-41823230D01*
X130511835Y-41807805D01*
X130514097Y-41792707D01*
X130516598Y-41777937D01*
X130519336Y-41763494D01*
X130522313Y-41749379D01*
X130525528Y-41735591D01*
X130527237Y-41728928D01*
X130734612Y-41728928D01*
X131138492Y-42029053D01*
X131139261Y-42020590D01*
X131140003Y-42008033D01*
X131140250Y-41995641D01*
X131140250Y-41985154D01*
X131140250Y-41973089D01*
X131140250Y-41960470D01*
X131140234Y-41954377D01*
X131140104Y-41942347D01*
X131139843Y-41930522D01*
X131139206Y-41913172D01*
X131138276Y-41896286D01*
X131137053Y-41879863D01*
X131135536Y-41863904D01*
X131133725Y-41848408D01*
X131131620Y-41833376D01*
X131129222Y-41818808D01*
X131126530Y-41804704D01*
X131123544Y-41791063D01*
X131122470Y-41786617D01*
X131119102Y-41773560D01*
X131115518Y-41760926D01*
X131111718Y-41748714D01*
X131107701Y-41736924D01*
X131103468Y-41725557D01*
X131097487Y-41711058D01*
X131091121Y-41697310D01*
X131084371Y-41684314D01*
X131077236Y-41672068D01*
X131073532Y-41666229D01*
X131065884Y-41655128D01*
X131057916Y-41644797D01*
X131049627Y-41635235D01*
X131041017Y-41626442D01*
X131032087Y-41618418D01*
X131020474Y-41609471D01*
X131008359Y-41601726D01*
X131003387Y-41598958D01*
X130990726Y-41592818D01*
X130977736Y-41587795D01*
X130964417Y-41583888D01*
X130950768Y-41581097D01*
X130936790Y-41579423D01*
X130922484Y-41578865D01*
X130918488Y-41578901D01*
X130906698Y-41579442D01*
X130891434Y-41581173D01*
X130876693Y-41584058D01*
X130862473Y-41588097D01*
X130848776Y-41593290D01*
X130835600Y-41599638D01*
X130822947Y-41607139D01*
X130810816Y-41615794D01*
X130799239Y-41625576D01*
X130788248Y-41636604D01*
X130780389Y-41645692D01*
X130772860Y-41655481D01*
X130765661Y-41665970D01*
X130758792Y-41677160D01*
X130752252Y-41689051D01*
X130746043Y-41701643D01*
X130740162Y-41714935D01*
X130734612Y-41728928D01*
X130527237Y-41728928D01*
X130528981Y-41722130D01*
X130532672Y-41708997D01*
X130534600Y-41702531D01*
X130538596Y-41689821D01*
X130542777Y-41677406D01*
X130547144Y-41665286D01*
X130551696Y-41653461D01*
X130556433Y-41641932D01*
X130561356Y-41630699D01*
X130566465Y-41619761D01*
X130571759Y-41609118D01*
X130580047Y-41593707D01*
X130588753Y-41578961D01*
X130597877Y-41564880D01*
X130607417Y-41551463D01*
X130617375Y-41538711D01*
X130624199Y-41530533D01*
X130634743Y-41518786D01*
X130645659Y-41507662D01*
X130656945Y-41497161D01*
X130668602Y-41487284D01*
X130680630Y-41478030D01*
X130693030Y-41469400D01*
X130705800Y-41461393D01*
X130718941Y-41454009D01*
X130732453Y-41447249D01*
X130746336Y-41441112D01*
X130755768Y-41437350D01*
X130770119Y-41432162D01*
X130784712Y-41427520D01*
X130799547Y-41423424D01*
X130814625Y-41419874D01*
X130829944Y-41416871D01*
X130845506Y-41414413D01*
X130861310Y-41412502D01*
X130877355Y-41411136D01*
X130893644Y-41410317D01*
X130910174Y-41410044D01*
X130922876Y-41410192D01*
G37*
G36*
X130004814Y-42197874D02*
G01*
X129992020Y-42198317D01*
X129979576Y-42199646D01*
X129967483Y-42201862D01*
X129955740Y-42204963D01*
X129944347Y-42208951D01*
X129940627Y-42210477D01*
X129929705Y-42215522D01*
X129919360Y-42221207D01*
X129908020Y-42228646D01*
X129897465Y-42236955D01*
X129889043Y-42244769D01*
X129879889Y-42254508D01*
X129871660Y-42265004D01*
X129864357Y-42276258D01*
X129857980Y-42288270D01*
X129854752Y-42295473D01*
X129850568Y-42306609D01*
X129847250Y-42318032D01*
X129844798Y-42329744D01*
X129843211Y-42341745D01*
X129842490Y-42354034D01*
X129842442Y-42358195D01*
X129842874Y-42370271D01*
X129844173Y-42382100D01*
X129846337Y-42393682D01*
X129849366Y-42405016D01*
X129853261Y-42416103D01*
X129854752Y-42419744D01*
X129860600Y-42431974D01*
X129867374Y-42443530D01*
X129875074Y-42454414D01*
X129883699Y-42464624D01*
X129889043Y-42470156D01*
X129898925Y-42479096D01*
X129909592Y-42487194D01*
X129921044Y-42494451D01*
X129931485Y-42500001D01*
X129940627Y-42504154D01*
X129951903Y-42508437D01*
X129963530Y-42511834D01*
X129975506Y-42514345D01*
X129987833Y-42515970D01*
X130000511Y-42516708D01*
X130004814Y-42516757D01*
X130017080Y-42516314D01*
X130029036Y-42514985D01*
X130040683Y-42512770D01*
X130052020Y-42509668D01*
X130063049Y-42505681D01*
X130066657Y-42504154D01*
X130078886Y-42498220D01*
X130090443Y-42491444D01*
X130101326Y-42483826D01*
X130111536Y-42475367D01*
X130117068Y-42470156D01*
X130125994Y-42460330D01*
X130134050Y-42449832D01*
X130141237Y-42438660D01*
X130147554Y-42426815D01*
X130150774Y-42419744D01*
X130154957Y-42408739D01*
X130158275Y-42397487D01*
X130160728Y-42385988D01*
X130162314Y-42374242D01*
X130163036Y-42362248D01*
X130163084Y-42358195D01*
X130162651Y-42345809D01*
X130161353Y-42333713D01*
X130159189Y-42321904D01*
X130156159Y-42310384D01*
X130152265Y-42299153D01*
X130150774Y-42295473D01*
X130145838Y-42284761D01*
X130139273Y-42272966D01*
X130131837Y-42261928D01*
X130123533Y-42251648D01*
X130117068Y-42244769D01*
X130107243Y-42235714D01*
X130096744Y-42227530D01*
X130085572Y-42220215D01*
X130073727Y-42213770D01*
X130066657Y-42210477D01*
X130055731Y-42206194D01*
X130044496Y-42202797D01*
X130032952Y-42200286D01*
X130021099Y-42198662D01*
X130008937Y-42197923D01*
X130004814Y-42197874D01*
G37*
G36*
X129415994Y-42498000D02*
G01*
X129415994Y-42310421D01*
X129141660Y-42310421D01*
X129141660Y-41637190D01*
X129380823Y-41766443D01*
X129446768Y-41597623D01*
X129104438Y-41428802D01*
X128935617Y-41428802D01*
X128935617Y-42310421D01*
X128699092Y-42310421D01*
X128699092Y-42498000D01*
X129415994Y-42498000D01*
G37*
D12*
G36*
X142603056Y-44498000D02*
G01*
X143215617Y-44498000D01*
X143215617Y-43428802D01*
X142603056Y-43428802D01*
X142603056Y-43550728D01*
X143068778Y-43550728D01*
X143068778Y-43888369D01*
X142621227Y-43888369D01*
X142621227Y-44010295D01*
X143068778Y-44010295D01*
X143068778Y-44371384D01*
X142603056Y-44371384D01*
X142603056Y-44498000D01*
G37*
G36*
X141810537Y-43674706D02*
G01*
X141815194Y-43673373D01*
X141826878Y-43670242D01*
X141838618Y-43667397D01*
X141850416Y-43664838D01*
X141862272Y-43662565D01*
X141874184Y-43660579D01*
X141886154Y-43658879D01*
X141890923Y-43658275D01*
X141902894Y-43656937D01*
X141914937Y-43655843D01*
X141927051Y-43654991D01*
X141939237Y-43654383D01*
X141951494Y-43654018D01*
X141963823Y-43653896D01*
X141975224Y-43654012D01*
X141992076Y-43654619D01*
X142008630Y-43655746D01*
X142024884Y-43657394D01*
X142040840Y-43659562D01*
X142056497Y-43662251D01*
X142071855Y-43665460D01*
X142086914Y-43669189D01*
X142101675Y-43673438D01*
X142116136Y-43678208D01*
X142130299Y-43683498D01*
X142139523Y-43687306D01*
X142153048Y-43693422D01*
X142166203Y-43700021D01*
X142178987Y-43707105D01*
X142191400Y-43714674D01*
X142203442Y-43722726D01*
X142215113Y-43731263D01*
X142226413Y-43740284D01*
X142237342Y-43749790D01*
X142247900Y-43759780D01*
X142258087Y-43770254D01*
X142264623Y-43777500D01*
X142274071Y-43788751D01*
X142283092Y-43800460D01*
X142291684Y-43812628D01*
X142299849Y-43825255D01*
X142307587Y-43838340D01*
X142314897Y-43851884D01*
X142321779Y-43865886D01*
X142328233Y-43880347D01*
X142334260Y-43895266D01*
X142339860Y-43910644D01*
X142344993Y-43926405D01*
X142349621Y-43942583D01*
X142353744Y-43959179D01*
X142357363Y-43976191D01*
X142359495Y-43987765D01*
X142361402Y-43999524D01*
X142363085Y-44011469D01*
X142364543Y-44023599D01*
X142365778Y-44035915D01*
X142366787Y-44048416D01*
X142367573Y-44061102D01*
X142368134Y-44073974D01*
X142368470Y-44087032D01*
X142368583Y-44100274D01*
X142368513Y-44111896D01*
X142368146Y-44129084D01*
X142367465Y-44145978D01*
X142366470Y-44162579D01*
X142365161Y-44178886D01*
X142363537Y-44194899D01*
X142361599Y-44210619D01*
X142359347Y-44226045D01*
X142356780Y-44241177D01*
X142353899Y-44256016D01*
X142350704Y-44270561D01*
X142348364Y-44280073D01*
X142344596Y-44294021D01*
X142340519Y-44307582D01*
X142336133Y-44320756D01*
X142331438Y-44333544D01*
X142326434Y-44345946D01*
X142321120Y-44357961D01*
X142315498Y-44369590D01*
X142309566Y-44380833D01*
X142303325Y-44391689D01*
X142296775Y-44402159D01*
X142289859Y-44412166D01*
X142282628Y-44421747D01*
X142275083Y-44430899D01*
X142267223Y-44439624D01*
X142256255Y-44450592D01*
X142244729Y-44460800D01*
X142232643Y-44470247D01*
X142219999Y-44478935D01*
X142206796Y-44486862D01*
X142193048Y-44493869D01*
X142178769Y-44499941D01*
X142167711Y-44503883D01*
X142156355Y-44507298D01*
X142144699Y-44510189D01*
X142132745Y-44512553D01*
X142120492Y-44514393D01*
X142107940Y-44515706D01*
X142095089Y-44516495D01*
X142081939Y-44516757D01*
X142071763Y-44516591D01*
X142056672Y-44515720D01*
X142041786Y-44514101D01*
X142027106Y-44511736D01*
X142012632Y-44508623D01*
X141998365Y-44504763D01*
X141984303Y-44500156D01*
X141970448Y-44494803D01*
X141956798Y-44488702D01*
X141943355Y-44481854D01*
X141930118Y-44474259D01*
X141917071Y-44465886D01*
X141904200Y-44456705D01*
X141891504Y-44446714D01*
X141878983Y-44435914D01*
X141866637Y-44424306D01*
X141854466Y-44411889D01*
X141846449Y-44403162D01*
X141838511Y-44394075D01*
X141830650Y-44384628D01*
X141822867Y-44374822D01*
X141815162Y-44364657D01*
X141807535Y-44354132D01*
X141799985Y-44343247D01*
X141795003Y-44498000D01*
X141666336Y-44498000D01*
X141666336Y-44197874D01*
X141810537Y-44197874D01*
X141814707Y-44203927D01*
X141823012Y-44215754D01*
X141831269Y-44227207D01*
X141839478Y-44238288D01*
X141847639Y-44248995D01*
X141855751Y-44259328D01*
X141863816Y-44269289D01*
X141871832Y-44278876D01*
X141879801Y-44288090D01*
X141891663Y-44301212D01*
X141903418Y-44313493D01*
X141915064Y-44324935D01*
X141926602Y-44335537D01*
X141938031Y-44345299D01*
X141941817Y-44348346D01*
X141953098Y-44356908D01*
X141964266Y-44364599D01*
X141975320Y-44371419D01*
X141986262Y-44377369D01*
X141997089Y-44382448D01*
X142011350Y-44387866D01*
X142025409Y-44391736D01*
X142039267Y-44394057D01*
X142052923Y-44394831D01*
X142062892Y-44394537D01*
X142077308Y-44392992D01*
X142091080Y-44390124D01*
X142104208Y-44385931D01*
X142116692Y-44380414D01*
X142128532Y-44373573D01*
X142139729Y-44365408D01*
X142150281Y-44355919D01*
X142160189Y-44345105D01*
X142169453Y-44332968D01*
X142178073Y-44319507D01*
X142180778Y-44314723D01*
X142188377Y-44299458D01*
X142193014Y-44288519D01*
X142197307Y-44276972D01*
X142201257Y-44264816D01*
X142204864Y-44252050D01*
X142208127Y-44238675D01*
X142211046Y-44224692D01*
X142213622Y-44210099D01*
X142215855Y-44194897D01*
X142217744Y-44179086D01*
X142219289Y-44162666D01*
X142220491Y-44145637D01*
X142221350Y-44127999D01*
X142221865Y-44109752D01*
X142222037Y-44090896D01*
X142221782Y-44070612D01*
X142221016Y-44051012D01*
X142219739Y-44032097D01*
X142217952Y-44013867D01*
X142215654Y-43996322D01*
X142212846Y-43979461D01*
X142209527Y-43963285D01*
X142205697Y-43947794D01*
X142201357Y-43932987D01*
X142196506Y-43918865D01*
X142191144Y-43905427D01*
X142185272Y-43892674D01*
X142178890Y-43880606D01*
X142171996Y-43869222D01*
X142164592Y-43858523D01*
X142156678Y-43848509D01*
X142148270Y-43839139D01*
X142139458Y-43830374D01*
X142130244Y-43822213D01*
X142120627Y-43814657D01*
X142110607Y-43807705D01*
X142100184Y-43801358D01*
X142089358Y-43795615D01*
X142078129Y-43790477D01*
X142066497Y-43785943D01*
X142054462Y-43782014D01*
X142042024Y-43778689D01*
X142029183Y-43775969D01*
X142015939Y-43773853D01*
X142002292Y-43772342D01*
X141988242Y-43771435D01*
X141973789Y-43771133D01*
X141968546Y-43771167D01*
X141955410Y-43771554D01*
X141942231Y-43772369D01*
X141929009Y-43773614D01*
X141915744Y-43775289D01*
X141902436Y-43777392D01*
X141889085Y-43779926D01*
X141883729Y-43781057D01*
X141870600Y-43784165D01*
X141857843Y-43787674D01*
X141845459Y-43791584D01*
X141833446Y-43795894D01*
X141821805Y-43800606D01*
X141810537Y-43805718D01*
X141810537Y-44197874D01*
X141666336Y-44197874D01*
X141666336Y-43335013D01*
X141810537Y-43335013D01*
X141810537Y-43674706D01*
G37*
G36*
X140605052Y-44498000D02*
G01*
X140452644Y-44498000D01*
X140376733Y-44272905D01*
X139928304Y-44272905D01*
X139853272Y-44498000D01*
X139693244Y-44498000D01*
X139810872Y-44141600D01*
X139970216Y-44141600D01*
X140334528Y-44141600D01*
X140152518Y-43564210D01*
X139970216Y-44141600D01*
X139810872Y-44141600D01*
X140046126Y-43428802D01*
X140247187Y-43428802D01*
X140605052Y-44498000D01*
G37*
G36*
X138891932Y-44498000D02*
G01*
X138904146Y-44500404D01*
X138916460Y-44502634D01*
X138928876Y-44504690D01*
X138941391Y-44506572D01*
X138954008Y-44508281D01*
X138966726Y-44509815D01*
X138979544Y-44511175D01*
X138992463Y-44512361D01*
X139005459Y-44513391D01*
X139018511Y-44514284D01*
X139031618Y-44515040D01*
X139044779Y-44515658D01*
X139057996Y-44516139D01*
X139071268Y-44516483D01*
X139084594Y-44516689D01*
X139097976Y-44516757D01*
X139117122Y-44516481D01*
X139135652Y-44515654D01*
X139153566Y-44514274D01*
X139170864Y-44512343D01*
X139187546Y-44509859D01*
X139203612Y-44506824D01*
X139219062Y-44503237D01*
X139233897Y-44499099D01*
X139248115Y-44494408D01*
X139261717Y-44489166D01*
X139274704Y-44483371D01*
X139287074Y-44477025D01*
X139298829Y-44470127D01*
X139309968Y-44462677D01*
X139320490Y-44454676D01*
X139330397Y-44446122D01*
X139339660Y-44436961D01*
X139348326Y-44427209D01*
X139356394Y-44416866D01*
X139363864Y-44405932D01*
X139370737Y-44394408D01*
X139377012Y-44382293D01*
X139382690Y-44369587D01*
X139387770Y-44356290D01*
X139392252Y-44342402D01*
X139396137Y-44327924D01*
X139399423Y-44312855D01*
X139402113Y-44297195D01*
X139404205Y-44280945D01*
X139405699Y-44264103D01*
X139406595Y-44246671D01*
X139406894Y-44228648D01*
X139406894Y-43794580D01*
X139638729Y-43794580D01*
X139638729Y-43672654D01*
X139406894Y-43672654D01*
X139406894Y-43446974D01*
X139263572Y-43410044D01*
X139263572Y-43672654D01*
X138891932Y-43672654D01*
X138891932Y-43794580D01*
X139263572Y-43794580D01*
X139263572Y-44216925D01*
X139263157Y-44233289D01*
X139261913Y-44248860D01*
X139259840Y-44263638D01*
X139256936Y-44277622D01*
X139253204Y-44290813D01*
X139248642Y-44303210D01*
X139243250Y-44314815D01*
X139237029Y-44325625D01*
X139229979Y-44335642D01*
X139222099Y-44344866D01*
X139216384Y-44350575D01*
X139207088Y-44358484D01*
X139197003Y-44365615D01*
X139186129Y-44371968D01*
X139174468Y-44377544D01*
X139162018Y-44382341D01*
X139148780Y-44386360D01*
X139134754Y-44389602D01*
X139119939Y-44392065D01*
X139104336Y-44393751D01*
X139087945Y-44394658D01*
X139076580Y-44394831D01*
X139064036Y-44394724D01*
X139051135Y-44394402D01*
X139037875Y-44393865D01*
X139024258Y-44393114D01*
X139010284Y-44392148D01*
X138995951Y-44390967D01*
X138990118Y-44390435D01*
X138978261Y-44389185D01*
X138966286Y-44387779D01*
X138954191Y-44386217D01*
X138941978Y-44384500D01*
X138929645Y-44382627D01*
X138917193Y-44380598D01*
X138904622Y-44378414D01*
X138891932Y-44376073D01*
X138891932Y-44498000D01*
G37*
G36*
X137891611Y-44498000D02*
G01*
X138088569Y-44498000D01*
X138474570Y-44055138D01*
X138474570Y-44498000D01*
X138617892Y-44498000D01*
X138617892Y-43335013D01*
X138474570Y-43335013D01*
X138474570Y-44049570D01*
X138102637Y-43672654D01*
X137913007Y-43672654D01*
X138301353Y-44052794D01*
X137891611Y-44498000D01*
G37*
G36*
X137431458Y-43789891D02*
G01*
X137676189Y-43789891D01*
X137676189Y-43672654D01*
X137286377Y-43672654D01*
X137286377Y-44376073D01*
X137039888Y-44376073D01*
X137039888Y-44498000D01*
X137703447Y-44498000D01*
X137703447Y-44376073D01*
X137431458Y-44376073D01*
X137431458Y-43789891D01*
G37*
G36*
X137381339Y-43335013D02*
G01*
X137369542Y-43335562D01*
X137356796Y-43337494D01*
X137344607Y-43340817D01*
X137336789Y-43343806D01*
X137325524Y-43349143D01*
X137315141Y-43355593D01*
X137305638Y-43363156D01*
X137300739Y-43367839D01*
X137292699Y-43376948D01*
X137285726Y-43386798D01*
X137279819Y-43397391D01*
X137276999Y-43403596D01*
X137272748Y-43415250D01*
X137269889Y-43427460D01*
X137268420Y-43440227D01*
X137268206Y-43447560D01*
X137268901Y-43460257D01*
X137270988Y-43472629D01*
X137274466Y-43484677D01*
X137276999Y-43491230D01*
X137282313Y-43502377D01*
X137288694Y-43512735D01*
X137296141Y-43522305D01*
X137300739Y-43527281D01*
X137309752Y-43535485D01*
X137319647Y-43542623D01*
X137330422Y-43548695D01*
X137336789Y-43551607D01*
X137348608Y-43555716D01*
X137360983Y-43558480D01*
X137373915Y-43559899D01*
X137381339Y-43560107D01*
X137394461Y-43559435D01*
X137407120Y-43557418D01*
X137419314Y-43554056D01*
X137425889Y-43551607D01*
X137437012Y-43546128D01*
X137447301Y-43539583D01*
X137456755Y-43531970D01*
X137461646Y-43527281D01*
X137469709Y-43518149D01*
X137476752Y-43508229D01*
X137482775Y-43497520D01*
X137485680Y-43491230D01*
X137489788Y-43479363D01*
X137492552Y-43467171D01*
X137493972Y-43454654D01*
X137494179Y-43447560D01*
X137493507Y-43434484D01*
X137491490Y-43421965D01*
X137488128Y-43410002D01*
X137485680Y-43403596D01*
X137480224Y-43392591D01*
X137473748Y-43382329D01*
X137466251Y-43372808D01*
X137461646Y-43367839D01*
X137452656Y-43359658D01*
X137442831Y-43352589D01*
X137432172Y-43346633D01*
X137425889Y-43343806D01*
X137413952Y-43339555D01*
X137401551Y-43336696D01*
X137388686Y-43335227D01*
X137381339Y-43335013D01*
G37*
G36*
X136790760Y-43672654D02*
G01*
X136662972Y-43672654D01*
X136657110Y-43805718D01*
X136648134Y-43794960D01*
X136639232Y-43784670D01*
X136630402Y-43774847D01*
X136621646Y-43765491D01*
X136612963Y-43756602D01*
X136604354Y-43748180D01*
X136593695Y-43738310D01*
X136587354Y-43732738D01*
X136576766Y-43723949D01*
X136566248Y-43715719D01*
X136555803Y-43708047D01*
X136545429Y-43700933D01*
X136535126Y-43694377D01*
X136524895Y-43688379D01*
X136520823Y-43686136D01*
X136508582Y-43679813D01*
X136496258Y-43674252D01*
X136483852Y-43669454D01*
X136471364Y-43665418D01*
X136458793Y-43662145D01*
X136454584Y-43661224D01*
X136441752Y-43658733D01*
X136428755Y-43656758D01*
X136415594Y-43655299D01*
X136402267Y-43654354D01*
X136388776Y-43653925D01*
X136384242Y-43653896D01*
X136368512Y-43654192D01*
X136353271Y-43655078D01*
X136338516Y-43656555D01*
X136324250Y-43658622D01*
X136310471Y-43661281D01*
X136297180Y-43664530D01*
X136284377Y-43668370D01*
X136272061Y-43672801D01*
X136260234Y-43677822D01*
X136248893Y-43683434D01*
X136238041Y-43689637D01*
X136227676Y-43696431D01*
X136217799Y-43703816D01*
X136208410Y-43711791D01*
X136199509Y-43720357D01*
X136191095Y-43729514D01*
X136183145Y-43739264D01*
X136175708Y-43749609D01*
X136168783Y-43760549D01*
X136162372Y-43772085D01*
X136156473Y-43784217D01*
X136151088Y-43796943D01*
X136146215Y-43810265D01*
X136141856Y-43824182D01*
X136138009Y-43838695D01*
X136134675Y-43853803D01*
X136131854Y-43869506D01*
X136129546Y-43885805D01*
X136127750Y-43902699D01*
X136126468Y-43920188D01*
X136125699Y-43938273D01*
X136125442Y-43956953D01*
X136125442Y-44498000D01*
X136269057Y-44498000D01*
X136269057Y-43967211D01*
X136269199Y-43955175D01*
X136269944Y-43937872D01*
X136271329Y-43921470D01*
X136273352Y-43905971D01*
X136276014Y-43891372D01*
X136279314Y-43877676D01*
X136283254Y-43864881D01*
X136287832Y-43852987D01*
X136293049Y-43841996D01*
X136301000Y-43828742D01*
X136305401Y-43822717D01*
X136314972Y-43811726D01*
X136325660Y-43802200D01*
X136337467Y-43794140D01*
X136350390Y-43787546D01*
X136364431Y-43782417D01*
X136379589Y-43778753D01*
X136391691Y-43776967D01*
X136404422Y-43776005D01*
X136413258Y-43775822D01*
X136426374Y-43776317D01*
X136439343Y-43777801D01*
X136452166Y-43780274D01*
X136464842Y-43783736D01*
X136477445Y-43788407D01*
X136488713Y-43793666D01*
X136500206Y-43800019D01*
X136510235Y-43806336D01*
X136517013Y-43810993D01*
X136527399Y-43818742D01*
X136538115Y-43827480D01*
X136547297Y-43835517D01*
X136556708Y-43844241D01*
X136566348Y-43853652D01*
X136576217Y-43863750D01*
X136584254Y-43872286D01*
X136592539Y-43881335D01*
X136601070Y-43890897D01*
X136609849Y-43900972D01*
X136618876Y-43911560D01*
X136628149Y-43922661D01*
X136637670Y-43934275D01*
X136647438Y-43946401D01*
X136647438Y-44498000D01*
X136790760Y-44498000D01*
X136790760Y-43672654D01*
G37*
G36*
X135212756Y-44274664D02*
G01*
X135213121Y-44288181D01*
X135214215Y-44301254D01*
X135216040Y-44313883D01*
X135218595Y-44326069D01*
X135221879Y-44337812D01*
X135225893Y-44349110D01*
X135227703Y-44353505D01*
X135233590Y-44366207D01*
X135240261Y-44378372D01*
X135247714Y-44390002D01*
X135255950Y-44401096D01*
X135264969Y-44411654D01*
X135268150Y-44415055D01*
X135278001Y-44424888D01*
X135288428Y-44434165D01*
X135299433Y-44442886D01*
X135309044Y-44449728D01*
X135319056Y-44456184D01*
X135327354Y-44461070D01*
X135338002Y-44466866D01*
X135348878Y-44472347D01*
X135359984Y-44477513D01*
X135371318Y-44482365D01*
X135382882Y-44486902D01*
X135394674Y-44491123D01*
X135399455Y-44492724D01*
X135411503Y-44496413D01*
X135423652Y-44499788D01*
X135435901Y-44502848D01*
X135448250Y-44505592D01*
X135460699Y-44508022D01*
X135473249Y-44510138D01*
X135478297Y-44510896D01*
X135490816Y-44512584D01*
X135503278Y-44513987D01*
X135515683Y-44515103D01*
X135528030Y-44515933D01*
X135540321Y-44516477D01*
X135552554Y-44516734D01*
X135557431Y-44516757D01*
X135573082Y-44516690D01*
X135588491Y-44516489D01*
X135603658Y-44516155D01*
X135618582Y-44515686D01*
X135633264Y-44515083D01*
X135647705Y-44514346D01*
X135661903Y-44513476D01*
X135675858Y-44512471D01*
X135689572Y-44511332D01*
X135703044Y-44510060D01*
X135711890Y-44509137D01*
X135725056Y-44507681D01*
X135738176Y-44506060D01*
X135751249Y-44504273D01*
X135764276Y-44502323D01*
X135777256Y-44500207D01*
X135790190Y-44497926D01*
X135803078Y-44495481D01*
X135815920Y-44492870D01*
X135828715Y-44490095D01*
X135841463Y-44487155D01*
X135849936Y-44485103D01*
X135849936Y-44352919D01*
X135836368Y-44356681D01*
X135822809Y-44360273D01*
X135809261Y-44363695D01*
X135795724Y-44366946D01*
X135782196Y-44370028D01*
X135768679Y-44372940D01*
X135755172Y-44375682D01*
X135741676Y-44378253D01*
X135728190Y-44380655D01*
X135714714Y-44382887D01*
X135705735Y-44384280D01*
X135692279Y-44386166D01*
X135678839Y-44387866D01*
X135665413Y-44389381D01*
X135652004Y-44390710D01*
X135638609Y-44391853D01*
X135625230Y-44392812D01*
X135611867Y-44393585D01*
X135598519Y-44394172D01*
X135585186Y-44394574D01*
X135571869Y-44394790D01*
X135563000Y-44394831D01*
X135550349Y-44394721D01*
X135538115Y-44394392D01*
X135526297Y-44393842D01*
X135509352Y-44392606D01*
X135493345Y-44390875D01*
X135478275Y-44388649D01*
X135464143Y-44385929D01*
X135450949Y-44382714D01*
X135438693Y-44379004D01*
X135427374Y-44374800D01*
X135413740Y-44368426D01*
X135410592Y-44366695D01*
X135398983Y-44359216D01*
X135388922Y-44350996D01*
X135380409Y-44342034D01*
X135373443Y-44332330D01*
X135368025Y-44321884D01*
X135364156Y-44310696D01*
X135361834Y-44298766D01*
X135361060Y-44286094D01*
X135361686Y-44273913D01*
X135363850Y-44261193D01*
X135367559Y-44249332D01*
X135368973Y-44245941D01*
X135375150Y-44234939D01*
X135382814Y-44225330D01*
X135391300Y-44217023D01*
X135397403Y-44211942D01*
X135407473Y-44204719D01*
X135417846Y-44198462D01*
X135429826Y-44192142D01*
X135441037Y-44186828D01*
X135453365Y-44181471D01*
X135461297Y-44178237D01*
X135472636Y-44173831D01*
X135484964Y-44169261D01*
X135498282Y-44164526D01*
X135512588Y-44159625D01*
X135523967Y-44155842D01*
X135535903Y-44151966D01*
X135548395Y-44147997D01*
X135561443Y-44143936D01*
X135575048Y-44139782D01*
X135579706Y-44138376D01*
X135593568Y-44134200D01*
X135607165Y-44129877D01*
X135620496Y-44125407D01*
X135633562Y-44120791D01*
X135646362Y-44116028D01*
X135658896Y-44111119D01*
X135671164Y-44106063D01*
X135683167Y-44100861D01*
X135694772Y-44095393D01*
X135705992Y-44089687D01*
X135716827Y-44083742D01*
X135727278Y-44077560D01*
X135737344Y-44071139D01*
X135747025Y-44064481D01*
X135758585Y-44055822D01*
X135765233Y-44050449D01*
X135775683Y-44041138D01*
X135785417Y-44031341D01*
X135794436Y-44021057D01*
X135802740Y-44010286D01*
X135810327Y-43999029D01*
X135817200Y-43987285D01*
X135819748Y-43982452D01*
X135825405Y-43969927D01*
X135830104Y-43956715D01*
X135833843Y-43942816D01*
X135836144Y-43931202D01*
X135837832Y-43919149D01*
X135838906Y-43906656D01*
X135839366Y-43893723D01*
X135839385Y-43890421D01*
X135838818Y-43877115D01*
X135837118Y-43863356D01*
X135834836Y-43851543D01*
X135831766Y-43839416D01*
X135827909Y-43826974D01*
X135823265Y-43814217D01*
X135817677Y-43801354D01*
X135810986Y-43788778D01*
X135803194Y-43776487D01*
X135796166Y-43766861D01*
X135788434Y-43757418D01*
X135779996Y-43748158D01*
X135770853Y-43739082D01*
X135768457Y-43736841D01*
X135758290Y-43728094D01*
X135747281Y-43719732D01*
X135735429Y-43711754D01*
X135722735Y-43704161D01*
X135709198Y-43696953D01*
X135698492Y-43691799D01*
X135687312Y-43686862D01*
X135675658Y-43682141D01*
X135663530Y-43677637D01*
X135650877Y-43673394D01*
X135637647Y-43669569D01*
X135623839Y-43666161D01*
X135609455Y-43663170D01*
X135594494Y-43660596D01*
X135578955Y-43658440D01*
X135562840Y-43656701D01*
X135546147Y-43655380D01*
X135528878Y-43654476D01*
X135517044Y-43654105D01*
X135504954Y-43653919D01*
X135498813Y-43653896D01*
X135486485Y-43653983D01*
X135473827Y-43654244D01*
X135460839Y-43654679D01*
X135447522Y-43655288D01*
X135433875Y-43656072D01*
X135419898Y-43657029D01*
X135405592Y-43658160D01*
X135390955Y-43659465D01*
X135376008Y-43660912D01*
X135360913Y-43662616D01*
X135345673Y-43664576D01*
X135330285Y-43666792D01*
X135318649Y-43668623D01*
X135306930Y-43670598D01*
X135295128Y-43672717D01*
X135283244Y-43674980D01*
X135271278Y-43677388D01*
X135267271Y-43678223D01*
X135267271Y-43808062D01*
X135279851Y-43805060D01*
X135292313Y-43802206D01*
X135304656Y-43799502D01*
X135316881Y-43796948D01*
X135328987Y-43794543D01*
X135340975Y-43792287D01*
X135352845Y-43790181D01*
X135364595Y-43788224D01*
X135376228Y-43786416D01*
X135391553Y-43784239D01*
X135395352Y-43783736D01*
X135410267Y-43781881D01*
X135424679Y-43780274D01*
X135438587Y-43778913D01*
X135451992Y-43777801D01*
X135464892Y-43776935D01*
X135477289Y-43776317D01*
X135489182Y-43775946D01*
X135500571Y-43775822D01*
X135513651Y-43775950D01*
X135526217Y-43776335D01*
X135538270Y-43776976D01*
X135552616Y-43778138D01*
X135566160Y-43779701D01*
X135578902Y-43781665D01*
X135590844Y-43784029D01*
X135604088Y-43787323D01*
X135616343Y-43791049D01*
X135627608Y-43795209D01*
X135639501Y-43800608D01*
X135650048Y-43806597D01*
X135660544Y-43813961D01*
X135669465Y-43821984D01*
X135677618Y-43831799D01*
X135682581Y-43840009D01*
X135687398Y-43851099D01*
X135690639Y-43862606D01*
X135692303Y-43874530D01*
X135692546Y-43881335D01*
X135691874Y-43893563D01*
X135689857Y-43905189D01*
X135686039Y-43917399D01*
X135684047Y-43922075D01*
X135677942Y-43932204D01*
X135669518Y-43942147D01*
X135660084Y-43950830D01*
X135651807Y-43957246D01*
X135640665Y-43964683D01*
X135629708Y-43971058D01*
X135617453Y-43977433D01*
X135606249Y-43982745D01*
X135594144Y-43988057D01*
X135586447Y-43991244D01*
X135575498Y-43995540D01*
X135563751Y-43999927D01*
X135551208Y-44004406D01*
X135537867Y-44008976D01*
X135523730Y-44013638D01*
X135508796Y-44018392D01*
X135497073Y-44022017D01*
X135484901Y-44025694D01*
X135476538Y-44028174D01*
X135463003Y-44032259D01*
X135449875Y-44036379D01*
X135437154Y-44040536D01*
X135424839Y-44044729D01*
X135412932Y-44048958D01*
X135401432Y-44053223D01*
X135390339Y-44057524D01*
X135376181Y-44063315D01*
X135362747Y-44069170D01*
X135353147Y-44073603D01*
X135340841Y-44079552D01*
X135329131Y-44085675D01*
X135318017Y-44091972D01*
X135307498Y-44098443D01*
X135297574Y-44105088D01*
X135286006Y-44113638D01*
X135275369Y-44122461D01*
X135271374Y-44126066D01*
X135262010Y-44135320D01*
X135253519Y-44144946D01*
X135245902Y-44154943D01*
X135239157Y-44165313D01*
X135233285Y-44176055D01*
X135228286Y-44187169D01*
X135226531Y-44191719D01*
X135222563Y-44203327D01*
X135219267Y-44215435D01*
X135216643Y-44228045D01*
X135214693Y-44241155D01*
X135213415Y-44254767D01*
X135212810Y-44268879D01*
X135212756Y-44274664D01*
G37*
G36*
X134616458Y-43654021D02*
G01*
X134633531Y-43654676D01*
X134650258Y-43655893D01*
X134666641Y-43657671D01*
X134682678Y-43660011D01*
X134698370Y-43662913D01*
X134713717Y-43666376D01*
X134728719Y-43670400D01*
X134743376Y-43674986D01*
X134757687Y-43680134D01*
X134771653Y-43685843D01*
X134780726Y-43689937D01*
X134794014Y-43696456D01*
X134806916Y-43703429D01*
X134819431Y-43710854D01*
X134831559Y-43718734D01*
X134843302Y-43727066D01*
X134854658Y-43735852D01*
X134865627Y-43745091D01*
X134876210Y-43754784D01*
X134886407Y-43764930D01*
X134896217Y-43775529D01*
X134902499Y-43782799D01*
X134911574Y-43794039D01*
X134920232Y-43805681D01*
X134928473Y-43817725D01*
X134936296Y-43830170D01*
X134943702Y-43843017D01*
X134950691Y-43856267D01*
X134957262Y-43869918D01*
X134963416Y-43883971D01*
X134969153Y-43898425D01*
X134974472Y-43913282D01*
X134977738Y-43923350D01*
X134982240Y-43938702D01*
X134986269Y-43954352D01*
X134989824Y-43970300D01*
X134992905Y-43986548D01*
X134995512Y-44003095D01*
X134997645Y-44019940D01*
X134999304Y-44037084D01*
X135000489Y-44054527D01*
X135001015Y-44066322D01*
X135001331Y-44078249D01*
X135001437Y-44090309D01*
X135001336Y-44103185D01*
X135001034Y-44115872D01*
X135000530Y-44128372D01*
X134999825Y-44140684D01*
X134998918Y-44152809D01*
X134997810Y-44164745D01*
X134996500Y-44176494D01*
X134994158Y-44193765D01*
X134991362Y-44210614D01*
X134988113Y-44227040D01*
X134984410Y-44243044D01*
X134980254Y-44258626D01*
X134975645Y-44273785D01*
X134972295Y-44283613D01*
X134966935Y-44297983D01*
X134961173Y-44311905D01*
X134955010Y-44325378D01*
X134948445Y-44338403D01*
X134941477Y-44350980D01*
X134934108Y-44363109D01*
X134926337Y-44374789D01*
X134918164Y-44386021D01*
X134909590Y-44396805D01*
X134900613Y-44407141D01*
X134894376Y-44413780D01*
X134884711Y-44423357D01*
X134874675Y-44432475D01*
X134864268Y-44441135D01*
X134853490Y-44449336D01*
X134842341Y-44457079D01*
X134830821Y-44464363D01*
X134818930Y-44471188D01*
X134806668Y-44477555D01*
X134794036Y-44483464D01*
X134781032Y-44488914D01*
X134772132Y-44492285D01*
X134758515Y-44496935D01*
X134744579Y-44501095D01*
X134730323Y-44504766D01*
X134715748Y-44507947D01*
X134700854Y-44510639D01*
X134685640Y-44512842D01*
X134670107Y-44514555D01*
X134654254Y-44515778D01*
X134638082Y-44516513D01*
X134621590Y-44516757D01*
X134610018Y-44516633D01*
X134592951Y-44515977D01*
X134576234Y-44514761D01*
X134559868Y-44512982D01*
X134543852Y-44510643D01*
X134528187Y-44507741D01*
X134512872Y-44504278D01*
X134497907Y-44500253D01*
X134483292Y-44495667D01*
X134469028Y-44490520D01*
X134455114Y-44484810D01*
X134446007Y-44480717D01*
X134432676Y-44474204D01*
X134419742Y-44467243D01*
X134407205Y-44459834D01*
X134395064Y-44451976D01*
X134383320Y-44443670D01*
X134371973Y-44434916D01*
X134361022Y-44425714D01*
X134350468Y-44416063D01*
X134340311Y-44405965D01*
X134330551Y-44395418D01*
X134324234Y-44388110D01*
X134315116Y-44376809D01*
X134306425Y-44365101D01*
X134298163Y-44352986D01*
X134290327Y-44340464D01*
X134282919Y-44327535D01*
X134275939Y-44314199D01*
X134269387Y-44300456D01*
X134263262Y-44286306D01*
X134257565Y-44271749D01*
X134252295Y-44256785D01*
X134247424Y-44241474D01*
X134243032Y-44225873D01*
X134239119Y-44209985D01*
X134235685Y-44193807D01*
X134232730Y-44177341D01*
X134230255Y-44160587D01*
X134228259Y-44143544D01*
X134226741Y-44126213D01*
X134225996Y-44114499D01*
X134225464Y-44102656D01*
X134225144Y-44090685D01*
X134225094Y-44085034D01*
X134371583Y-44085034D01*
X134371799Y-44100476D01*
X134372444Y-44115735D01*
X134373521Y-44130811D01*
X134375027Y-44145704D01*
X134376964Y-44160413D01*
X134379332Y-44174939D01*
X134382130Y-44189283D01*
X134385359Y-44203443D01*
X134388976Y-44217227D01*
X134393089Y-44230590D01*
X134397696Y-44243532D01*
X134402798Y-44256053D01*
X134408394Y-44268152D01*
X134414485Y-44279830D01*
X134421070Y-44291086D01*
X134428150Y-44301921D01*
X134435734Y-44312212D01*
X134443830Y-44321980D01*
X134452440Y-44331226D01*
X134461562Y-44339950D01*
X134471198Y-44348152D01*
X134481346Y-44355832D01*
X134492007Y-44362990D01*
X134503181Y-44369625D01*
X134506057Y-44371176D01*
X134517928Y-44376887D01*
X134530384Y-44381810D01*
X134543427Y-44385945D01*
X134557055Y-44389293D01*
X134571270Y-44391853D01*
X134586071Y-44393625D01*
X134601459Y-44394610D01*
X134613384Y-44394831D01*
X134627200Y-44394529D01*
X134640660Y-44393622D01*
X134653762Y-44392111D01*
X134666507Y-44389995D01*
X134678894Y-44387275D01*
X134690925Y-44383950D01*
X134702598Y-44380021D01*
X134713914Y-44375487D01*
X134724846Y-44370280D01*
X134735365Y-44364478D01*
X134745472Y-44358080D01*
X134755167Y-44351087D01*
X134764449Y-44343499D01*
X134773320Y-44335315D01*
X134781779Y-44326536D01*
X134789825Y-44317162D01*
X134797372Y-44307188D01*
X134804479Y-44296609D01*
X134811147Y-44285426D01*
X134817375Y-44273638D01*
X134823164Y-44261246D01*
X134828513Y-44248249D01*
X134833422Y-44234648D01*
X134837892Y-44220442D01*
X134838938Y-44216778D01*
X134842789Y-44201757D01*
X134845329Y-44190107D01*
X134847570Y-44178127D01*
X134849512Y-44165817D01*
X134851156Y-44153177D01*
X134852501Y-44140208D01*
X134853546Y-44126909D01*
X134854293Y-44113280D01*
X134854742Y-44099322D01*
X134854891Y-44085034D01*
X134854680Y-44069733D01*
X134854048Y-44054607D01*
X134852995Y-44039655D01*
X134851521Y-44024877D01*
X134849625Y-44010272D01*
X134847307Y-43995842D01*
X134844569Y-43981586D01*
X134841409Y-43967504D01*
X134837722Y-43953655D01*
X134833550Y-43940247D01*
X134828893Y-43927277D01*
X134823750Y-43914748D01*
X134818122Y-43902658D01*
X134812008Y-43891007D01*
X134805409Y-43879796D01*
X134798324Y-43869025D01*
X134790741Y-43858671D01*
X134782644Y-43848857D01*
X134774035Y-43839583D01*
X134764912Y-43830850D01*
X134755277Y-43822657D01*
X134745128Y-43815005D01*
X134734467Y-43807893D01*
X134723293Y-43801321D01*
X134720417Y-43799752D01*
X134708554Y-43793975D01*
X134696114Y-43788995D01*
X134683096Y-43784812D01*
X134669502Y-43781425D01*
X134655330Y-43778835D01*
X134640582Y-43777042D01*
X134625257Y-43776046D01*
X134613384Y-43775822D01*
X134599700Y-43776129D01*
X134586346Y-43777050D01*
X134573322Y-43778584D01*
X134560627Y-43780732D01*
X134548263Y-43783493D01*
X134536227Y-43786868D01*
X134524522Y-43790857D01*
X134513147Y-43795459D01*
X134502146Y-43800598D01*
X134491568Y-43806340D01*
X134481410Y-43812688D01*
X134471674Y-43819639D01*
X134462359Y-43827196D01*
X134453466Y-43835356D01*
X134444994Y-43844122D01*
X134436943Y-43853491D01*
X134429327Y-43863461D01*
X134422160Y-43874026D01*
X134415442Y-43885187D01*
X134409172Y-43896942D01*
X134403352Y-43909293D01*
X134397980Y-43922240D01*
X134393057Y-43935781D01*
X134388583Y-43949919D01*
X134387537Y-43953546D01*
X134383685Y-43968441D01*
X134381145Y-43980015D01*
X134378904Y-43991935D01*
X134376962Y-44004199D01*
X134375319Y-44016808D01*
X134373974Y-44029763D01*
X134372928Y-44043063D01*
X134372181Y-44056708D01*
X134371733Y-44070698D01*
X134371583Y-44085034D01*
X134225094Y-44085034D01*
X134225038Y-44078586D01*
X134225140Y-44065818D01*
X134225445Y-44053233D01*
X134225955Y-44040832D01*
X134226668Y-44028614D01*
X134227585Y-44016579D01*
X134228706Y-44004727D01*
X134230031Y-43993058D01*
X134232400Y-43975898D01*
X134235227Y-43959151D01*
X134238513Y-43942816D01*
X134242258Y-43926893D01*
X134246461Y-43911382D01*
X134251123Y-43896283D01*
X134254438Y-43886421D01*
X134259755Y-43872014D01*
X134265484Y-43858071D01*
X134271625Y-43844592D01*
X134278179Y-43831576D01*
X134285144Y-43819024D01*
X134292522Y-43806936D01*
X134300312Y-43795311D01*
X134308514Y-43784150D01*
X134317128Y-43773453D01*
X134326154Y-43763219D01*
X134332357Y-43756616D01*
X134341979Y-43747088D01*
X134351983Y-43738013D01*
X134362368Y-43729392D01*
X134373134Y-43721225D01*
X134384281Y-43713511D01*
X134395809Y-43706250D01*
X134407719Y-43699442D01*
X134420010Y-43693088D01*
X134432682Y-43687187D01*
X134445735Y-43681740D01*
X134454600Y-43678368D01*
X134468168Y-43673719D01*
X134482060Y-43669558D01*
X134496277Y-43665887D01*
X134510819Y-43662706D01*
X134525685Y-43660014D01*
X134540876Y-43657812D01*
X134556391Y-43656099D01*
X134572231Y-43654875D01*
X134588395Y-43654141D01*
X134604884Y-43653896D01*
X134616458Y-43654021D01*
G37*
G36*
X134022805Y-43672654D02*
G01*
X133895017Y-43672654D01*
X133889155Y-43805718D01*
X133880179Y-43794960D01*
X133871276Y-43784670D01*
X133862447Y-43774847D01*
X133853691Y-43765491D01*
X133845008Y-43756602D01*
X133836398Y-43748180D01*
X133825740Y-43738310D01*
X133819399Y-43732738D01*
X133808810Y-43723949D01*
X133798293Y-43715719D01*
X133787847Y-43708047D01*
X133777473Y-43700933D01*
X133767171Y-43694377D01*
X133756940Y-43688379D01*
X133752867Y-43686136D01*
X133740626Y-43679813D01*
X133728303Y-43674252D01*
X133715897Y-43669454D01*
X133703408Y-43665418D01*
X133690837Y-43662145D01*
X133686629Y-43661224D01*
X133673797Y-43658733D01*
X133660800Y-43656758D01*
X133647638Y-43655299D01*
X133634312Y-43654354D01*
X133620821Y-43653925D01*
X133616287Y-43653896D01*
X133600557Y-43654192D01*
X133585315Y-43655078D01*
X133570561Y-43656555D01*
X133556295Y-43658622D01*
X133542516Y-43661281D01*
X133529225Y-43664530D01*
X133516422Y-43668370D01*
X133504106Y-43672801D01*
X133492278Y-43677822D01*
X133480938Y-43683434D01*
X133470086Y-43689637D01*
X133459721Y-43696431D01*
X133449844Y-43703816D01*
X133440455Y-43711791D01*
X133431553Y-43720357D01*
X133423140Y-43729514D01*
X133415189Y-43739264D01*
X133407752Y-43749609D01*
X133400828Y-43760549D01*
X133394417Y-43772085D01*
X133388518Y-43784217D01*
X133383133Y-43796943D01*
X133378260Y-43810265D01*
X133373900Y-43824182D01*
X133370053Y-43838695D01*
X133366719Y-43853803D01*
X133363898Y-43869506D01*
X133361590Y-43885805D01*
X133359795Y-43902699D01*
X133358513Y-43920188D01*
X133357744Y-43938273D01*
X133357487Y-43956953D01*
X133357487Y-44498000D01*
X133501102Y-44498000D01*
X133501102Y-43967211D01*
X133501244Y-43955175D01*
X133501989Y-43937872D01*
X133503373Y-43921470D01*
X133505396Y-43905971D01*
X133508058Y-43891372D01*
X133511359Y-43877676D01*
X133515298Y-43864881D01*
X133519877Y-43852987D01*
X133525094Y-43841996D01*
X133533044Y-43828742D01*
X133537445Y-43822717D01*
X133547016Y-43811726D01*
X133557705Y-43802200D01*
X133569511Y-43794140D01*
X133582435Y-43787546D01*
X133596476Y-43782417D01*
X133611634Y-43778753D01*
X133623736Y-43776967D01*
X133636467Y-43776005D01*
X133645303Y-43775822D01*
X133658419Y-43776317D01*
X133671388Y-43777801D01*
X133684211Y-43780274D01*
X133696887Y-43783736D01*
X133709490Y-43788407D01*
X133720758Y-43793666D01*
X133732250Y-43800019D01*
X133742279Y-43806336D01*
X133749057Y-43810993D01*
X133759444Y-43818742D01*
X133770160Y-43827480D01*
X133779342Y-43835517D01*
X133788753Y-43844241D01*
X133798393Y-43853652D01*
X133808262Y-43863750D01*
X133816299Y-43872286D01*
X133824583Y-43881335D01*
X133833115Y-43890897D01*
X133841894Y-43900972D01*
X133850920Y-43911560D01*
X133860194Y-43922661D01*
X133869715Y-43934275D01*
X133879483Y-43946401D01*
X133879483Y-44498000D01*
X134022805Y-44498000D01*
X134022805Y-43672654D01*
G37*
G36*
X131478478Y-44498000D02*
G01*
X132188345Y-44498000D01*
X132188345Y-44370212D01*
X131909615Y-44094120D01*
X131901143Y-44085764D01*
X131888813Y-44073497D01*
X131876936Y-44061550D01*
X131865512Y-44049922D01*
X131854542Y-44038613D01*
X131844025Y-44027624D01*
X131833961Y-44016954D01*
X131824351Y-44006604D01*
X131815194Y-43996573D01*
X131806491Y-43986861D01*
X131798241Y-43977469D01*
X131790385Y-43968311D01*
X131782864Y-43959303D01*
X131773357Y-43947525D01*
X131764445Y-43936012D01*
X131756128Y-43924764D01*
X131748407Y-43913782D01*
X131741281Y-43903066D01*
X131734751Y-43892616D01*
X131731709Y-43887490D01*
X131724585Y-43874873D01*
X131718234Y-43862486D01*
X131712655Y-43850327D01*
X131707849Y-43838397D01*
X131703817Y-43826697D01*
X131700557Y-43815225D01*
X131699469Y-43810700D01*
X131696680Y-43796975D01*
X131694797Y-43785223D01*
X131693314Y-43773184D01*
X131692232Y-43760860D01*
X131691551Y-43748249D01*
X131691270Y-43735352D01*
X131691262Y-43732738D01*
X131691527Y-43720550D01*
X131692321Y-43708535D01*
X131693645Y-43696691D01*
X131695498Y-43685019D01*
X131697881Y-43673518D01*
X131701440Y-43659945D01*
X131702107Y-43657706D01*
X131706476Y-43644607D01*
X131711669Y-43632125D01*
X131717686Y-43620262D01*
X131724528Y-43609017D01*
X131732194Y-43598390D01*
X131734933Y-43594985D01*
X131743750Y-43585175D01*
X131753494Y-43576190D01*
X131764165Y-43568030D01*
X131775764Y-43560693D01*
X131786138Y-43555209D01*
X131792672Y-43552193D01*
X131804014Y-43547718D01*
X131816056Y-43544002D01*
X131828800Y-43541044D01*
X131842246Y-43538844D01*
X131856392Y-43537403D01*
X131868214Y-43536796D01*
X131877375Y-43536660D01*
X131890124Y-43536935D01*
X131902651Y-43537762D01*
X131914957Y-43539140D01*
X131927041Y-43541070D01*
X131938903Y-43543550D01*
X131950544Y-43546582D01*
X131961963Y-43550166D01*
X131973161Y-43554300D01*
X131984138Y-43558986D01*
X131994892Y-43564223D01*
X132001939Y-43568020D01*
X132012356Y-43574063D01*
X132022612Y-43580430D01*
X132032710Y-43587121D01*
X132042647Y-43594138D01*
X132052425Y-43601478D01*
X132062042Y-43609144D01*
X132071501Y-43617134D01*
X132080799Y-43625448D01*
X132089938Y-43634087D01*
X132098917Y-43643051D01*
X132104814Y-43649207D01*
X132183949Y-43553366D01*
X132172356Y-43541395D01*
X132160439Y-43529883D01*
X132148197Y-43518829D01*
X132135630Y-43508234D01*
X132122739Y-43498098D01*
X132109523Y-43488420D01*
X132095983Y-43479200D01*
X132082118Y-43470439D01*
X132067929Y-43462137D01*
X132053415Y-43454293D01*
X132043558Y-43449318D01*
X132028436Y-43442300D01*
X132012856Y-43435971D01*
X131996817Y-43430333D01*
X131980319Y-43425386D01*
X131963363Y-43421128D01*
X131951804Y-43418674D01*
X131940042Y-43416526D01*
X131928075Y-43414685D01*
X131915905Y-43413151D01*
X131903531Y-43411923D01*
X131890953Y-43411003D01*
X131878172Y-43410389D01*
X131865187Y-43410083D01*
X131858618Y-43410044D01*
X131845267Y-43410232D01*
X131832143Y-43410796D01*
X131819246Y-43411737D01*
X131806576Y-43413053D01*
X131794132Y-43414745D01*
X131781915Y-43416814D01*
X131769924Y-43419259D01*
X131758160Y-43422079D01*
X131746623Y-43425276D01*
X131735313Y-43428849D01*
X131727899Y-43431440D01*
X131713423Y-43437082D01*
X131699451Y-43443310D01*
X131685982Y-43450124D01*
X131673017Y-43457525D01*
X131660556Y-43465512D01*
X131648599Y-43474085D01*
X131637146Y-43483244D01*
X131626196Y-43492989D01*
X131615732Y-43503311D01*
X131605881Y-43514202D01*
X131596644Y-43525660D01*
X131588021Y-43537685D01*
X131580011Y-43550279D01*
X131572615Y-43563441D01*
X131565833Y-43577170D01*
X131559664Y-43591468D01*
X131555474Y-43602535D01*
X131551696Y-43613865D01*
X131548330Y-43625458D01*
X131545376Y-43637314D01*
X131542834Y-43649432D01*
X131540705Y-43661813D01*
X131538988Y-43674457D01*
X131537682Y-43687364D01*
X131536789Y-43700533D01*
X131536309Y-43713965D01*
X131536217Y-43723066D01*
X131536473Y-43738316D01*
X131537243Y-43753291D01*
X131538525Y-43767991D01*
X131540320Y-43782417D01*
X131542628Y-43796568D01*
X131545449Y-43810444D01*
X131548783Y-43824045D01*
X131552630Y-43837371D01*
X131556999Y-43850483D01*
X131561899Y-43863585D01*
X131567330Y-43876678D01*
X131573293Y-43889762D01*
X131579787Y-43902836D01*
X131586812Y-43915902D01*
X131594368Y-43928958D01*
X131602456Y-43942005D01*
X131608872Y-43951820D01*
X131615593Y-43961703D01*
X131622618Y-43971652D01*
X131629947Y-43981669D01*
X131637579Y-43991752D01*
X131645516Y-44001902D01*
X131653757Y-44012119D01*
X131662301Y-44022404D01*
X131671150Y-44032755D01*
X131680302Y-44043173D01*
X131686573Y-44050156D01*
X131696242Y-44060693D01*
X131706236Y-44071420D01*
X131716555Y-44082338D01*
X131727198Y-44093446D01*
X131738166Y-44104746D01*
X131749458Y-44116235D01*
X131761075Y-44127916D01*
X131773017Y-44139787D01*
X131785283Y-44151849D01*
X131797873Y-44164101D01*
X131806447Y-44172375D01*
X132001939Y-44362005D01*
X131478478Y-44362005D01*
X131478478Y-44498000D01*
G37*
G36*
X130926673Y-43410201D02*
G01*
X130938874Y-43410672D01*
X130950880Y-43411456D01*
X130962692Y-43412554D01*
X130980045Y-43414789D01*
X130996960Y-43417730D01*
X131013437Y-43421377D01*
X131029476Y-43425729D01*
X131045077Y-43430788D01*
X131060240Y-43436552D01*
X131074965Y-43443022D01*
X131089253Y-43450198D01*
X131098533Y-43455310D01*
X131112085Y-43463463D01*
X131125193Y-43472198D01*
X131137858Y-43481515D01*
X131150080Y-43491415D01*
X131161860Y-43501897D01*
X131173196Y-43512960D01*
X131184089Y-43524607D01*
X131194539Y-43536835D01*
X131204546Y-43549645D01*
X131214110Y-43563038D01*
X131220242Y-43572239D01*
X131229079Y-43586475D01*
X131237484Y-43601231D01*
X131245455Y-43616508D01*
X131252995Y-43632305D01*
X131257780Y-43643125D01*
X131262373Y-43654177D01*
X131266774Y-43665460D01*
X131270983Y-43676974D01*
X131274999Y-43688719D01*
X131278823Y-43700696D01*
X131282455Y-43712904D01*
X131285894Y-43725343D01*
X131289141Y-43738013D01*
X131292158Y-43750882D01*
X131294980Y-43763915D01*
X131297607Y-43777114D01*
X131300040Y-43790477D01*
X131302279Y-43804005D01*
X131304322Y-43817698D01*
X131306171Y-43831555D01*
X131307826Y-43845578D01*
X131309285Y-43859765D01*
X131310550Y-43874118D01*
X131311621Y-43888635D01*
X131312497Y-43903317D01*
X131313178Y-43918164D01*
X131313664Y-43933176D01*
X131313956Y-43948352D01*
X131314054Y-43963694D01*
X131313948Y-43981493D01*
X131313632Y-43998988D01*
X131313106Y-44016179D01*
X131312368Y-44033065D01*
X131311420Y-44049646D01*
X131310262Y-44065923D01*
X131308893Y-44081896D01*
X131307313Y-44097563D01*
X131305522Y-44112927D01*
X131303521Y-44127985D01*
X131301309Y-44142740D01*
X131298886Y-44157189D01*
X131296253Y-44171334D01*
X131293409Y-44185175D01*
X131290355Y-44198711D01*
X131287089Y-44211942D01*
X131285363Y-44218446D01*
X131281778Y-44231237D01*
X131278013Y-44243739D01*
X131274070Y-44255952D01*
X131269949Y-44267878D01*
X131265648Y-44279514D01*
X131261170Y-44290862D01*
X131256512Y-44301922D01*
X131251676Y-44312693D01*
X131244087Y-44328309D01*
X131236097Y-44343275D01*
X131227704Y-44357593D01*
X131218909Y-44371261D01*
X131209713Y-44384280D01*
X131203332Y-44392570D01*
X131193459Y-44404494D01*
X131183225Y-44415806D01*
X131172631Y-44426504D01*
X131161676Y-44436589D01*
X131150360Y-44446061D01*
X131138684Y-44454920D01*
X131126647Y-44463165D01*
X131114250Y-44470798D01*
X131101492Y-44477818D01*
X131088373Y-44484224D01*
X131079447Y-44488164D01*
X131065829Y-44493597D01*
X131051938Y-44498457D01*
X131037775Y-44502746D01*
X131023338Y-44506464D01*
X131008628Y-44509609D01*
X130993645Y-44512182D01*
X130978389Y-44514184D01*
X130962860Y-44515614D01*
X130947058Y-44516471D01*
X130930983Y-44516757D01*
X130918518Y-44516602D01*
X130906254Y-44516135D01*
X130894191Y-44515356D01*
X130882330Y-44514266D01*
X130864916Y-44512047D01*
X130847956Y-44509128D01*
X130831449Y-44505508D01*
X130815395Y-44501187D01*
X130799795Y-44496165D01*
X130784648Y-44490443D01*
X130769955Y-44484020D01*
X130755715Y-44476897D01*
X130746468Y-44471751D01*
X130732960Y-44463555D01*
X130719884Y-44454787D01*
X130707241Y-44445447D01*
X130695031Y-44435536D01*
X130683253Y-44425052D01*
X130671909Y-44413997D01*
X130660997Y-44402370D01*
X130650518Y-44390170D01*
X130640471Y-44377400D01*
X130630858Y-44364057D01*
X130624657Y-44354822D01*
X130615734Y-44340549D01*
X130607264Y-44325772D01*
X130599247Y-44310489D01*
X130591684Y-44294702D01*
X130586894Y-44283896D01*
X130582305Y-44272866D01*
X130577918Y-44261612D01*
X130573732Y-44250133D01*
X130569748Y-44238430D01*
X130565965Y-44226503D01*
X130562384Y-44214351D01*
X130559004Y-44201975D01*
X130555826Y-44189374D01*
X130552845Y-44176540D01*
X130550056Y-44163536D01*
X130547459Y-44150363D01*
X130545055Y-44137021D01*
X130542843Y-44123509D01*
X130540824Y-44109827D01*
X130538996Y-44095977D01*
X130537361Y-44081956D01*
X130535919Y-44067766D01*
X130534669Y-44053407D01*
X130533611Y-44038879D01*
X130532745Y-44024181D01*
X130532072Y-44009313D01*
X130531591Y-43994276D01*
X130531303Y-43979070D01*
X130531258Y-43971900D01*
X130676287Y-43971900D01*
X130676354Y-43984809D01*
X130676557Y-43997523D01*
X130676895Y-44010042D01*
X130677368Y-44022367D01*
X130677975Y-44034497D01*
X130678719Y-44046433D01*
X130679597Y-44058173D01*
X130681167Y-44075420D01*
X130683042Y-44092228D01*
X130685220Y-44108599D01*
X130687702Y-44124531D01*
X130690489Y-44140026D01*
X130693579Y-44155083D01*
X130695799Y-44164874D01*
X130699348Y-44179182D01*
X130703160Y-44193038D01*
X130707234Y-44206440D01*
X130711571Y-44219389D01*
X130716171Y-44231884D01*
X130721034Y-44243926D01*
X130726159Y-44255514D01*
X130731547Y-44266650D01*
X130737198Y-44277331D01*
X130743112Y-44287560D01*
X130751314Y-44300419D01*
X130759946Y-44312473D01*
X130769009Y-44323720D01*
X130778502Y-44334161D01*
X130788426Y-44343797D01*
X130798781Y-44352626D01*
X130809566Y-44360650D01*
X130820781Y-44367867D01*
X130832376Y-44374187D01*
X130844301Y-44379664D01*
X130856556Y-44384298D01*
X130869141Y-44388090D01*
X130882055Y-44391039D01*
X130895299Y-44393146D01*
X130908873Y-44394410D01*
X130922777Y-44394831D01*
X130925497Y-44394817D01*
X130938823Y-44394326D01*
X130951692Y-44393134D01*
X130964103Y-44391241D01*
X130976055Y-44388646D01*
X130987550Y-44385351D01*
X131000739Y-44380470D01*
X131004961Y-44378593D01*
X131017299Y-44372428D01*
X131029141Y-44365459D01*
X131040489Y-44357687D01*
X131051343Y-44349110D01*
X131061702Y-44339730D01*
X131065006Y-44336429D01*
X131073006Y-44327827D01*
X131080634Y-44318724D01*
X131087890Y-44309120D01*
X131094773Y-44299014D01*
X131101285Y-44288409D01*
X131107424Y-44277302D01*
X131109744Y-44272732D01*
X131115322Y-44261079D01*
X131120586Y-44249096D01*
X131125535Y-44236784D01*
X131130169Y-44224143D01*
X131134488Y-44211173D01*
X131138492Y-44197874D01*
X130682735Y-43864922D01*
X130682589Y-43866535D01*
X130681439Y-43879523D01*
X130680326Y-43892657D01*
X130679250Y-43905938D01*
X130678338Y-43917678D01*
X130677858Y-43924424D01*
X130677170Y-43936251D01*
X130676679Y-43948106D01*
X130676385Y-43959989D01*
X130676287Y-43971900D01*
X130531258Y-43971900D01*
X130531207Y-43963694D01*
X130531313Y-43945930D01*
X130531632Y-43928468D01*
X130532165Y-43911308D01*
X130532910Y-43894451D01*
X130533868Y-43877896D01*
X130535040Y-43861643D01*
X130536424Y-43845692D01*
X130538021Y-43830044D01*
X130539831Y-43814698D01*
X130541854Y-43799654D01*
X130544090Y-43784913D01*
X130546539Y-43770473D01*
X130549201Y-43756336D01*
X130552076Y-43742501D01*
X130555163Y-43728969D01*
X130555173Y-43728928D01*
X130709992Y-43728928D01*
X131165749Y-44057190D01*
X131166791Y-44047246D01*
X131167801Y-44034256D01*
X131168387Y-44022514D01*
X131168680Y-44010588D01*
X131168809Y-43998443D01*
X131168900Y-43986335D01*
X131168955Y-43974263D01*
X131168973Y-43962228D01*
X131168906Y-43949102D01*
X131168703Y-43936175D01*
X131168366Y-43923448D01*
X131167893Y-43910919D01*
X131167285Y-43898590D01*
X131166542Y-43886460D01*
X131165664Y-43874529D01*
X131164093Y-43857006D01*
X131162219Y-43839931D01*
X131160040Y-43823305D01*
X131157558Y-43807127D01*
X131154771Y-43791397D01*
X131151681Y-43776115D01*
X131149462Y-43766178D01*
X131145919Y-43751649D01*
X131142119Y-43737574D01*
X131138061Y-43723952D01*
X131133745Y-43710783D01*
X131129172Y-43698068D01*
X131124341Y-43685807D01*
X131119253Y-43673998D01*
X131113907Y-43662643D01*
X131108303Y-43651742D01*
X131102442Y-43641293D01*
X131094171Y-43628090D01*
X131085479Y-43615739D01*
X131076366Y-43604240D01*
X131066831Y-43593593D01*
X131056875Y-43583797D01*
X131046498Y-43574853D01*
X131035699Y-43566761D01*
X131024479Y-43559521D01*
X131012889Y-43553064D01*
X131000977Y-43547467D01*
X130988745Y-43542732D01*
X130976193Y-43538858D01*
X130963319Y-43535844D01*
X130950126Y-43533692D01*
X130936611Y-43532401D01*
X130922777Y-43531970D01*
X130920147Y-43531985D01*
X130907249Y-43532485D01*
X130894765Y-43533702D01*
X130882696Y-43535634D01*
X130871043Y-43538281D01*
X130859804Y-43541644D01*
X130846866Y-43546625D01*
X130842646Y-43548467D01*
X130830343Y-43554557D01*
X130818576Y-43561491D01*
X130807344Y-43569271D01*
X130796649Y-43577895D01*
X130786489Y-43587364D01*
X130784848Y-43589005D01*
X130775313Y-43599254D01*
X130767777Y-43608330D01*
X130760613Y-43617892D01*
X130753821Y-43627942D01*
X130747401Y-43638477D01*
X130741353Y-43649500D01*
X130738998Y-43654000D01*
X130733341Y-43665522D01*
X130728013Y-43677431D01*
X130723014Y-43689725D01*
X130718344Y-43702406D01*
X130714004Y-43715474D01*
X130709992Y-43728928D01*
X130555173Y-43728928D01*
X130558464Y-43715739D01*
X130560172Y-43709235D01*
X130563726Y-43696442D01*
X130567463Y-43683935D01*
X130571383Y-43671714D01*
X130575486Y-43659780D01*
X130579773Y-43648132D01*
X130584242Y-43636770D01*
X130588895Y-43625694D01*
X130593731Y-43614905D01*
X130601329Y-43599258D01*
X130609338Y-43584254D01*
X130617760Y-43569895D01*
X130626594Y-43556179D01*
X130635840Y-43543108D01*
X130642186Y-43534747D01*
X130652010Y-43522724D01*
X130662200Y-43511326D01*
X130672756Y-43500550D01*
X130683677Y-43490398D01*
X130694964Y-43480870D01*
X130706617Y-43471964D01*
X130718636Y-43463682D01*
X130731020Y-43456024D01*
X130743771Y-43448989D01*
X130756887Y-43442577D01*
X130765814Y-43438638D01*
X130779431Y-43433205D01*
X130793322Y-43428344D01*
X130807486Y-43424055D01*
X130821922Y-43420338D01*
X130836632Y-43417193D01*
X130851615Y-43414619D01*
X130866871Y-43412618D01*
X130882400Y-43411188D01*
X130898202Y-43410330D01*
X130914277Y-43410044D01*
X130926673Y-43410201D01*
G37*
G36*
X129633174Y-44498000D02*
G01*
X130343042Y-44498000D01*
X130343042Y-44370212D01*
X130064312Y-44094120D01*
X130055840Y-44085764D01*
X130043509Y-44073497D01*
X130031632Y-44061550D01*
X130020209Y-44049922D01*
X130009238Y-44038613D01*
X129998721Y-44027624D01*
X129988658Y-44016954D01*
X129979047Y-44006604D01*
X129969891Y-43996573D01*
X129961187Y-43986861D01*
X129952937Y-43977469D01*
X129945081Y-43968311D01*
X129937560Y-43959303D01*
X129928053Y-43947525D01*
X129919141Y-43936012D01*
X129910825Y-43924764D01*
X129903104Y-43913782D01*
X129895978Y-43903066D01*
X129889447Y-43892616D01*
X129886405Y-43887490D01*
X129879281Y-43874873D01*
X129872930Y-43862486D01*
X129867352Y-43850327D01*
X129862546Y-43838397D01*
X129858513Y-43826697D01*
X129855253Y-43815225D01*
X129854165Y-43810700D01*
X129851376Y-43796975D01*
X129849493Y-43785223D01*
X129848010Y-43773184D01*
X129846929Y-43760860D01*
X129846247Y-43748249D01*
X129845967Y-43735352D01*
X129845959Y-43732738D01*
X129846224Y-43720550D01*
X129847018Y-43708535D01*
X129848342Y-43696691D01*
X129850195Y-43685019D01*
X129852578Y-43673518D01*
X129856136Y-43659945D01*
X129856803Y-43657706D01*
X129861172Y-43644607D01*
X129866365Y-43632125D01*
X129872383Y-43620262D01*
X129879225Y-43609017D01*
X129886891Y-43598390D01*
X129889629Y-43594985D01*
X129898446Y-43585175D01*
X129908190Y-43576190D01*
X129918862Y-43568030D01*
X129930461Y-43560693D01*
X129940835Y-43555209D01*
X129947368Y-43552193D01*
X129958710Y-43547718D01*
X129970753Y-43544002D01*
X129983497Y-43541044D01*
X129996942Y-43538844D01*
X130011089Y-43537403D01*
X130022911Y-43536796D01*
X130032072Y-43536660D01*
X130044820Y-43536935D01*
X130057348Y-43537762D01*
X130069653Y-43539140D01*
X130081737Y-43541070D01*
X130093600Y-43543550D01*
X130105241Y-43546582D01*
X130116660Y-43550166D01*
X130127858Y-43554300D01*
X130138834Y-43558986D01*
X130149589Y-43564223D01*
X130156636Y-43568020D01*
X130167052Y-43574063D01*
X130177309Y-43580430D01*
X130187406Y-43587121D01*
X130197343Y-43594138D01*
X130207121Y-43601478D01*
X130216739Y-43609144D01*
X130226197Y-43617134D01*
X130235496Y-43625448D01*
X130244634Y-43634087D01*
X130253613Y-43643051D01*
X130259511Y-43649207D01*
X130338645Y-43553366D01*
X130327053Y-43541395D01*
X130315135Y-43529883D01*
X130302893Y-43518829D01*
X130290327Y-43508234D01*
X130277435Y-43498098D01*
X130264220Y-43488420D01*
X130250679Y-43479200D01*
X130236815Y-43470439D01*
X130222625Y-43462137D01*
X130208111Y-43454293D01*
X130198255Y-43449318D01*
X130183133Y-43442300D01*
X130167552Y-43435971D01*
X130151513Y-43430333D01*
X130135016Y-43425386D01*
X130118060Y-43421128D01*
X130106501Y-43418674D01*
X130094738Y-43416526D01*
X130082772Y-43414685D01*
X130070602Y-43413151D01*
X130058228Y-43411923D01*
X130045650Y-43411003D01*
X130032868Y-43410389D01*
X130019883Y-43410083D01*
X130013314Y-43410044D01*
X129999963Y-43410232D01*
X129986840Y-43410796D01*
X129973942Y-43411737D01*
X129961272Y-43413053D01*
X129948828Y-43414745D01*
X129936611Y-43416814D01*
X129924621Y-43419259D01*
X129912857Y-43422079D01*
X129901320Y-43425276D01*
X129890010Y-43428849D01*
X129882595Y-43431440D01*
X129868119Y-43437082D01*
X129854147Y-43443310D01*
X129840679Y-43450124D01*
X129827714Y-43457525D01*
X129815253Y-43465512D01*
X129803296Y-43474085D01*
X129791842Y-43483244D01*
X129780892Y-43492989D01*
X129770428Y-43503311D01*
X129760578Y-43514202D01*
X129751341Y-43525660D01*
X129742717Y-43537685D01*
X129734708Y-43550279D01*
X129727312Y-43563441D01*
X129720529Y-43577170D01*
X129714361Y-43591468D01*
X129710170Y-43602535D01*
X129706392Y-43613865D01*
X129703026Y-43625458D01*
X129700073Y-43637314D01*
X129697531Y-43649432D01*
X129695401Y-43661813D01*
X129693684Y-43674457D01*
X129692379Y-43687364D01*
X129691486Y-43700533D01*
X129691005Y-43713965D01*
X129690913Y-43723066D01*
X129691170Y-43738316D01*
X129691939Y-43753291D01*
X129693222Y-43767991D01*
X129695017Y-43782417D01*
X129697325Y-43796568D01*
X129700146Y-43810444D01*
X129703480Y-43824045D01*
X129707327Y-43837371D01*
X129711695Y-43850483D01*
X129716596Y-43863585D01*
X129722027Y-43876678D01*
X129727989Y-43889762D01*
X129734483Y-43902836D01*
X129741508Y-43915902D01*
X129749065Y-43928958D01*
X129757152Y-43942005D01*
X129763569Y-43951820D01*
X129770290Y-43961703D01*
X129777314Y-43971652D01*
X129784643Y-43981669D01*
X129792276Y-43991752D01*
X129800212Y-44001902D01*
X129808453Y-44012119D01*
X129816998Y-44022404D01*
X129825846Y-44032755D01*
X129834999Y-44043173D01*
X129841269Y-44050156D01*
X129850939Y-44060693D01*
X129860933Y-44071420D01*
X129871251Y-44082338D01*
X129881895Y-44093446D01*
X129892862Y-44104746D01*
X129904155Y-44116235D01*
X129915772Y-44127916D01*
X129927713Y-44139787D01*
X129939979Y-44151849D01*
X129952570Y-44164101D01*
X129961144Y-44172375D01*
X130156636Y-44362005D01*
X129633174Y-44362005D01*
X129633174Y-44498000D01*
G37*
G36*
X129505973Y-44127532D02*
G01*
X129505973Y-44254147D01*
X128987494Y-44254147D01*
X128987494Y-44498000D01*
X128840655Y-44498000D01*
X128840655Y-44254147D01*
X128656887Y-44254147D01*
X128656887Y-44127532D01*
X128840655Y-44127532D01*
X128840655Y-43565090D01*
X128987494Y-43565090D01*
X128987494Y-44127532D01*
X129362651Y-44127532D01*
X128987494Y-43565090D01*
X128840655Y-43565090D01*
X128840655Y-43428802D01*
X129046698Y-43428802D01*
X129505973Y-44127532D01*
G37*
D10*
%TO.C,C14*%
X142360000Y-48392164D02*
X142360000Y-48607836D01*
X141640000Y-48392164D02*
X141640000Y-48607836D01*
%TO.C,C20*%
X131392164Y-59890000D02*
X131607836Y-59890000D01*
X131392164Y-60610000D02*
X131607836Y-60610000D01*
%TO.C,R1*%
X118880000Y-67096359D02*
X118880000Y-67403641D01*
X118120000Y-67096359D02*
X118120000Y-67403641D01*
%TO.C,C15*%
X123912164Y-54140000D02*
X124127836Y-54140000D01*
X123912164Y-54860000D02*
X124127836Y-54860000D01*
%TO.C,C12*%
X133392164Y-66890000D02*
X133607836Y-66890000D01*
X133392164Y-67610000D02*
X133607836Y-67610000D01*
%TO.C,Q2*%
X121062500Y-68010000D02*
X121712500Y-68010000D01*
X121062500Y-68010000D02*
X120412500Y-68010000D01*
X121062500Y-64890000D02*
X122737500Y-64890000D01*
X121062500Y-64890000D02*
X120412500Y-64890000D01*
%TO.C,R12*%
X131346359Y-58620000D02*
X131653641Y-58620000D01*
X131346359Y-59380000D02*
X131653641Y-59380000D01*
%TO.C,C19*%
X137687164Y-68220000D02*
X137902836Y-68220000D01*
X137687164Y-68940000D02*
X137902836Y-68940000D01*
%TO.C,R10*%
X123606359Y-60870000D02*
X123913641Y-60870000D01*
X123606359Y-61630000D02*
X123913641Y-61630000D01*
%TO.C,U3*%
X125000000Y-53810000D02*
X125800000Y-53810000D01*
X125000000Y-53810000D02*
X124200000Y-53810000D01*
X125000000Y-50690000D02*
X126800000Y-50690000D01*
X125000000Y-50690000D02*
X124200000Y-50690000D01*
%TO.C,R11*%
X131346359Y-61120000D02*
X131653641Y-61120000D01*
X131346359Y-61880000D02*
X131653641Y-61880000D01*
%TO.C,R3*%
X119403641Y-51880000D02*
X119096359Y-51880000D01*
X119403641Y-51120000D02*
X119096359Y-51120000D01*
%TO.C,Y2*%
X118825000Y-68625000D02*
X120175000Y-68625000D01*
X118825000Y-70375000D02*
X120175000Y-70375000D01*
%TO.C,C5*%
X133142164Y-68390000D02*
X133357836Y-68390000D01*
X133142164Y-69110000D02*
X133357836Y-69110000D01*
%TO.C,U1*%
X126390000Y-68610000D02*
X126865000Y-68610000D01*
X126390000Y-68135000D02*
X126390000Y-68610000D01*
X131610000Y-68135000D02*
X131610000Y-68610000D01*
X126390000Y-63865000D02*
X126390000Y-63390000D01*
X131610000Y-63865000D02*
X131610000Y-63390000D01*
X126390000Y-63390000D02*
X126865000Y-63390000D01*
X131610000Y-63390000D02*
X131135000Y-63390000D01*
%TO.C,R4*%
X123596359Y-59370000D02*
X123903641Y-59370000D01*
X123596359Y-60130000D02*
X123903641Y-60130000D01*
%TO.C,J1*%
X114071000Y-62365000D02*
X115776000Y-62365000D01*
X119706000Y-62365000D02*
X117786000Y-62365000D01*
X114071000Y-53205000D02*
X114071000Y-62365000D01*
X115776000Y-53205000D02*
X114071000Y-53205000D01*
X117786000Y-53205000D02*
X119706000Y-53205000D01*
%TO.C,J2*%
X120440000Y-41440000D02*
X116190000Y-41440000D01*
X116190000Y-41440000D02*
X116190000Y-42460000D01*
X117790000Y-42460000D02*
X117790000Y-43740000D01*
X116190000Y-42460000D02*
X117790000Y-42460000D01*
X124010000Y-43160000D02*
X124010000Y-47840000D01*
X117790000Y-43740000D02*
X114900000Y-43740000D01*
X117790000Y-48540000D02*
X117790000Y-47260000D01*
X116190000Y-48540000D02*
X117790000Y-48540000D01*
X120440000Y-49560000D02*
X116190000Y-49560000D01*
X116190000Y-49560000D02*
X116190000Y-48540000D01*
%TO.C,R5*%
X131903641Y-56130000D02*
X131596359Y-56130000D01*
X131903641Y-55370000D02*
X131596359Y-55370000D01*
%TO.C,R6*%
X135235000Y-48272936D02*
X135235000Y-48727064D01*
X133765000Y-48272936D02*
X133765000Y-48727064D01*
%TO.C,C21*%
X131392164Y-57390000D02*
X131607836Y-57390000D01*
X131392164Y-58110000D02*
X131607836Y-58110000D01*
%TO.C,C1*%
X137642164Y-66890000D02*
X137857836Y-66890000D01*
X137642164Y-67610000D02*
X137857836Y-67610000D01*
%TO.C,Y1*%
X138850000Y-65600000D02*
X142150000Y-65600000D01*
X138850000Y-68400000D02*
X138850000Y-65600000D01*
%TO.C,C3*%
X117110000Y-69392164D02*
X117110000Y-69607836D01*
X116390000Y-69392164D02*
X116390000Y-69607836D01*
%TO.C,C11*%
X135360000Y-66642164D02*
X135360000Y-66857836D01*
X134640000Y-66642164D02*
X134640000Y-66857836D01*
%TO.C,C13*%
X135890000Y-66857836D02*
X135890000Y-66642164D01*
X136610000Y-66857836D02*
X136610000Y-66642164D01*
%TO.C,R9*%
X120653641Y-64380000D02*
X120346359Y-64380000D01*
X120653641Y-63620000D02*
X120346359Y-63620000D01*
%TO.C,C16*%
X129860000Y-58142164D02*
X129860000Y-58357836D01*
X129140000Y-58142164D02*
X129140000Y-58357836D01*
%TO.C,U2*%
X140600000Y-48900000D02*
X140600000Y-48750000D01*
X140000701Y-46102607D02*
X140900701Y-46102607D01*
X140000000Y-48900000D02*
X140600000Y-48900000D01*
X137800000Y-48900000D02*
X139200000Y-48900000D01*
X137800000Y-46100000D02*
X139200000Y-46100000D01*
X137000000Y-46100000D02*
X136400000Y-46100000D01*
X136400000Y-48900000D02*
X137000000Y-48900000D01*
X136400000Y-48900000D02*
X136400000Y-48750000D01*
X136400000Y-46100000D02*
X136400000Y-46250000D01*
%TO.C,U4*%
X130510000Y-55000000D02*
X130510000Y-54200000D01*
X130510000Y-55000000D02*
X130510000Y-55800000D01*
X127390000Y-55000000D02*
X127390000Y-53200000D01*
X127390000Y-55000000D02*
X127390000Y-55800000D01*
%TO.C,C22*%
X131642164Y-54140000D02*
X131857836Y-54140000D01*
X131642164Y-54860000D02*
X131857836Y-54860000D01*
%TO.C,R7*%
X134653641Y-46380000D02*
X134346359Y-46380000D01*
X134653641Y-45620000D02*
X134346359Y-45620000D01*
%TO.C,C4*%
X123107836Y-69860000D02*
X122892164Y-69860000D01*
X123107836Y-69140000D02*
X122892164Y-69140000D01*
%TO.C,Q1*%
X126655000Y-57000000D02*
X126655000Y-56350000D01*
X126655000Y-57000000D02*
X126655000Y-57650000D01*
X123535000Y-57000000D02*
X123535000Y-55325000D01*
X123535000Y-57000000D02*
X123535000Y-57650000D01*
%TO.C,R13*%
X131596359Y-52870000D02*
X131903641Y-52870000D01*
X131596359Y-53630000D02*
X131903641Y-53630000D01*
%TO.C,C6*%
X116890000Y-67357836D02*
X116890000Y-67142164D01*
X117610000Y-67357836D02*
X117610000Y-67142164D01*
D13*
%TO.C,J4*%
X134250000Y-63000000D02*
X141500000Y-63000000D01*
X141500000Y-62250000D02*
X141500000Y-63000000D01*
X145250000Y-56000000D02*
X145250000Y-60000000D01*
X134250000Y-53000000D02*
X134250000Y-63000000D01*
X134250000Y-53000000D02*
X141500000Y-53000000D01*
X141500000Y-53000000D02*
X141500000Y-53750000D01*
X141500000Y-62250000D02*
G75*
G03*
X145250000Y-60000000I0J4250000D01*
G01*
X145250000Y-56000000D02*
G75*
G03*
X141500000Y-53750000I-3750000J-2000000D01*
G01*
X136250000Y-63000000D02*
G75*
G03*
X136250000Y-53000000I5250000J5000000D01*
G01*
D10*
%TO.C,C10*%
X128642164Y-61890000D02*
X128857836Y-61890000D01*
X128642164Y-62610000D02*
X128857836Y-62610000D01*
%TO.C,C7*%
X134390000Y-69107836D02*
X134390000Y-68892164D01*
X135110000Y-69107836D02*
X135110000Y-68892164D01*
%TO.C,R2*%
X137903641Y-66380000D02*
X137596359Y-66380000D01*
X137903641Y-65620000D02*
X137596359Y-65620000D01*
%TO.C,C2*%
X143110000Y-66892164D02*
X143110000Y-67107836D01*
X142390000Y-66892164D02*
X142390000Y-67107836D01*
%TO.C,C8*%
X130107836Y-70110000D02*
X129892164Y-70110000D01*
X130107836Y-69390000D02*
X129892164Y-69390000D01*
%TO.C,C9*%
X124610000Y-66892164D02*
X124610000Y-67107836D01*
X123890000Y-66892164D02*
X123890000Y-67107836D01*
%TO.C,C17*%
X129357836Y-52610000D02*
X129142164Y-52610000D01*
X129357836Y-51890000D02*
X129142164Y-51890000D01*
%TO.C,R8*%
X121346359Y-51120000D02*
X121653641Y-51120000D01*
X121346359Y-51880000D02*
X121653641Y-51880000D01*
%TO.C,D1*%
X128850000Y-57390000D02*
X128850000Y-60050000D01*
X127150000Y-57390000D02*
X128850000Y-57390000D01*
X127150000Y-57390000D02*
X127150000Y-60050000D01*
%TD*%
%LPC*%
D14*
%TO.C,C14*%
X142000000Y-48020000D03*
X142000000Y-48980000D03*
%TD*%
D15*
%TO.C,C20*%
X131020000Y-60250000D03*
X131980000Y-60250000D03*
%TD*%
D16*
%TO.C,R1*%
X118500000Y-66740000D03*
X118500000Y-67760000D03*
%TD*%
D15*
%TO.C,C15*%
X123540000Y-54500000D03*
X124500000Y-54500000D03*
%TD*%
%TO.C,C12*%
X133020000Y-67250000D03*
X133980000Y-67250000D03*
%TD*%
D17*
%TO.C,Q2*%
X122000000Y-65500000D03*
X122000000Y-67400000D03*
X120125000Y-66450000D03*
%TD*%
D18*
%TO.C,R12*%
X130990000Y-59000000D03*
X132010000Y-59000000D03*
%TD*%
D15*
%TO.C,C19*%
X137315000Y-68580000D03*
X138275000Y-68580000D03*
%TD*%
D18*
%TO.C,R10*%
X123250000Y-61250000D03*
X124270000Y-61250000D03*
%TD*%
D19*
%TO.C,U3*%
X126137500Y-51300000D03*
X126137500Y-52250000D03*
X126137500Y-53200000D03*
X123862500Y-53200000D03*
X123862500Y-51300000D03*
%TD*%
D18*
%TO.C,R11*%
X130990000Y-61500000D03*
X132010000Y-61500000D03*
%TD*%
D20*
%TO.C,R3*%
X119760000Y-51500000D03*
X118740000Y-51500000D03*
%TD*%
D21*
%TO.C,Y2*%
X120750000Y-69500000D03*
X118250000Y-69500000D03*
%TD*%
D15*
%TO.C,C5*%
X132770000Y-68750000D03*
X133730000Y-68750000D03*
%TD*%
D22*
%TO.C,U1*%
X130750000Y-68450000D03*
X130250000Y-68450000D03*
X129750000Y-68450000D03*
X129250000Y-68450000D03*
X128750000Y-68450000D03*
X128250000Y-68450000D03*
X127750000Y-68450000D03*
X127250000Y-68450000D03*
D23*
X126550000Y-67750000D03*
X126550000Y-67250000D03*
X126550000Y-66750000D03*
X126550000Y-66250000D03*
X126550000Y-65750000D03*
X126550000Y-65250000D03*
X126550000Y-64750000D03*
X126550000Y-64250000D03*
D22*
X127250000Y-63550000D03*
X127750000Y-63550000D03*
X128250000Y-63550000D03*
X128750000Y-63550000D03*
X129250000Y-63550000D03*
X129750000Y-63550000D03*
X130250000Y-63550000D03*
X130750000Y-63550000D03*
D23*
X131450000Y-64250000D03*
X131450000Y-64750000D03*
X131450000Y-65250000D03*
X131450000Y-65750000D03*
X131450000Y-66250000D03*
X131450000Y-66750000D03*
X131450000Y-67250000D03*
X131450000Y-67750000D03*
D24*
X129000000Y-66000000D03*
%TD*%
D25*
%TO.C,L1*%
X132485000Y-69750000D03*
X131515000Y-69750000D03*
%TD*%
D18*
%TO.C,R4*%
X123240000Y-59750000D03*
X124260000Y-59750000D03*
%TD*%
D26*
%TO.C,J1*%
X120461000Y-60675000D03*
X120461000Y-54895000D03*
D27*
X121581000Y-60985000D03*
X121581000Y-60185000D03*
D28*
X121581000Y-59035000D03*
X121581000Y-58035000D03*
X121581000Y-57535000D03*
X121581000Y-56535000D03*
D27*
X121581000Y-55385000D03*
X121581000Y-54585000D03*
X121581000Y-54585000D03*
X121581000Y-55385000D03*
D28*
X121581000Y-56035000D03*
X121581000Y-57035000D03*
X121581000Y-58535000D03*
X121581000Y-59535000D03*
D27*
X121581000Y-60185000D03*
X121581000Y-60985000D03*
D29*
X116781000Y-62105000D03*
D30*
X120981000Y-62105000D03*
D29*
X116781000Y-53465000D03*
D30*
X120981000Y-53465000D03*
%TD*%
D31*
%TO.C,J2*%
X116650000Y-44500000D03*
X116650000Y-46500000D03*
D32*
X122400000Y-42150000D03*
X122400000Y-48850000D03*
%TD*%
D20*
%TO.C,R5*%
X132260000Y-55750000D03*
X131240000Y-55750000D03*
%TD*%
D33*
%TO.C,R6*%
X134500000Y-47587500D03*
X134500000Y-49412500D03*
%TD*%
D15*
%TO.C,C21*%
X131020000Y-57750000D03*
X131980000Y-57750000D03*
%TD*%
%TO.C,C1*%
X137270000Y-67250000D03*
X138230000Y-67250000D03*
%TD*%
D34*
%TO.C,Y1*%
X139625000Y-66300000D03*
X141375000Y-66300000D03*
X141375000Y-67700000D03*
X139625000Y-67700000D03*
%TD*%
D14*
%TO.C,C3*%
X116750000Y-69020000D03*
X116750000Y-69980000D03*
%TD*%
%TO.C,C11*%
X135000000Y-66270000D03*
X135000000Y-67230000D03*
%TD*%
D35*
%TO.C,C13*%
X136250000Y-67230000D03*
X136250000Y-66270000D03*
%TD*%
D20*
%TO.C,R9*%
X121010000Y-64000000D03*
X119990000Y-64000000D03*
%TD*%
D14*
%TO.C,C16*%
X129500000Y-57770000D03*
X129500000Y-58730000D03*
%TD*%
D36*
%TO.C,U2*%
X140800000Y-46500000D03*
D37*
X140475000Y-46500000D03*
D36*
X140800000Y-46900000D03*
D37*
X140475000Y-46900000D03*
D36*
X140800000Y-47300000D03*
D37*
X140475000Y-47300000D03*
D36*
X140800000Y-47700000D03*
D37*
X140475000Y-47700000D03*
D36*
X140800000Y-48100000D03*
D37*
X140475000Y-48100000D03*
D36*
X140800000Y-48500000D03*
D37*
X140475000Y-48500000D03*
X136525000Y-48500000D03*
D36*
X136200000Y-48500000D03*
D37*
X136525000Y-48100000D03*
D36*
X136200000Y-48100000D03*
D37*
X136525000Y-47700000D03*
D36*
X136200000Y-47700000D03*
D37*
X136525000Y-47300000D03*
D36*
X136200000Y-47300000D03*
D37*
X136525000Y-46900000D03*
D36*
X136200000Y-46900000D03*
D37*
X136525000Y-46500000D03*
D36*
X136200000Y-46500000D03*
D38*
X139600000Y-48865000D03*
D39*
X139600000Y-48812500D03*
X139600000Y-46187500D03*
D38*
X139600000Y-46135000D03*
D40*
X138500000Y-47500000D03*
X138500000Y-47500000D03*
D38*
X137400000Y-48865000D03*
D39*
X137400000Y-48812500D03*
X137400000Y-46187500D03*
D38*
X137400000Y-46135000D03*
%TD*%
D41*
%TO.C,U4*%
X128000000Y-53862500D03*
X129900000Y-53862500D03*
X128950000Y-56137500D03*
%TD*%
D15*
%TO.C,C22*%
X131270000Y-54500000D03*
X132230000Y-54500000D03*
%TD*%
D20*
%TO.C,R7*%
X135010000Y-46000000D03*
X133990000Y-46000000D03*
%TD*%
D42*
%TO.C,C4*%
X123480000Y-69500000D03*
X122520000Y-69500000D03*
%TD*%
D43*
%TO.C,Q1*%
X124145000Y-56062500D03*
X126045000Y-56062500D03*
X125095000Y-57937500D03*
%TD*%
D18*
%TO.C,R13*%
X131240000Y-53250000D03*
X132260000Y-53250000D03*
%TD*%
D35*
%TO.C,C6*%
X117250000Y-67730000D03*
X117250000Y-66770000D03*
%TD*%
D44*
%TO.C,L2*%
X136000000Y-68515000D03*
X136000000Y-69485000D03*
%TD*%
D45*
%TO.C,J4*%
X136000000Y-62750000D03*
X140250000Y-62750000D03*
D46*
X137000000Y-61000000D03*
D47*
X144500000Y-61000000D03*
D46*
X137000000Y-55000000D03*
D48*
X144500000Y-55000000D03*
D45*
X136000000Y-53250000D03*
X140250000Y-53250000D03*
D49*
X133750000Y-62000000D03*
X133750000Y-59333334D03*
X133750000Y-56666668D03*
X133750000Y-54000000D03*
%TD*%
D15*
%TO.C,C10*%
X128270000Y-62250000D03*
X129230000Y-62250000D03*
%TD*%
D35*
%TO.C,C7*%
X134750000Y-69480000D03*
X134750000Y-68520000D03*
%TD*%
D20*
%TO.C,R2*%
X138260000Y-66000000D03*
X137240000Y-66000000D03*
%TD*%
D14*
%TO.C,C2*%
X142750000Y-66520000D03*
X142750000Y-67480000D03*
%TD*%
D42*
%TO.C,C8*%
X130480000Y-69750000D03*
X129520000Y-69750000D03*
%TD*%
D14*
%TO.C,C9*%
X124250000Y-66520000D03*
X124250000Y-67480000D03*
%TD*%
D42*
%TO.C,C17*%
X129730000Y-52250000D03*
X128770000Y-52250000D03*
%TD*%
D18*
%TO.C,R8*%
X120990000Y-51500000D03*
X122010000Y-51500000D03*
%TD*%
D50*
%TO.C,D1*%
X128000000Y-57950000D03*
X128000000Y-60050000D03*
%TD*%
M02*
