%TF.GenerationSoftware,KiCad,Pcbnew,7.0.1*%
%TF.CreationDate,2024-01-11T23:21:17+00:00*%
%TF.ProjectId,Hardware,48617264-7761-4726-952e-6b696361645f,rev?*%
%TF.SameCoordinates,Original*%
%TF.FileFunction,Profile,NP*%
%FSLAX46Y46*%
G04 Gerber Fmt 4.6, Leading zero omitted, Abs format (unit mm)*
G04 Created by KiCad (PCBNEW 7.0.1) date 2024-01-11 23:21:17*
%MOMM*%
%LPD*%
G01*
G04 APERTURE LIST*
%TA.AperFunction,Profile*%
%ADD10C,0.100000*%
%TD*%
G04 APERTURE END LIST*
D10*
X116500000Y-79250000D02*
G75*
G03*
X117500000Y-80250000I1000000J0D01*
G01*
X146000000Y-36500000D02*
X146000000Y-79750000D01*
X116500000Y-38750000D02*
G75*
G03*
X117500000Y-39750000I1000000J0D01*
G01*
X143500000Y-37250000D02*
G75*
G03*
X142500000Y-36250000I-1000000J0D01*
G01*
X144000000Y-81750000D02*
G75*
G03*
X146000000Y-79750000I0J2000000D01*
G01*
X117500000Y-76750000D02*
G75*
G03*
X116500000Y-77750000I0J-1000000D01*
G01*
X143500000Y-38750000D02*
X143500000Y-37250000D01*
X142500000Y-39750000D02*
X117500000Y-39750000D01*
X142500000Y-39750000D02*
G75*
G03*
X143500000Y-38750000I0J1000000D01*
G01*
X142500000Y-76750000D02*
X117500000Y-76750000D01*
X142500000Y-80250000D02*
G75*
G03*
X143500000Y-79250000I0J1000000D01*
G01*
X114000000Y-79750000D02*
G75*
G03*
X116000000Y-81750000I2000000J0D01*
G01*
X117500000Y-36250000D02*
G75*
G03*
X116500000Y-37250000I0J-1000000D01*
G01*
X116500000Y-79250000D02*
X116500000Y-77750000D01*
X117500000Y-80250000D02*
X142500000Y-80250000D01*
X114000000Y-79750000D02*
X114000000Y-36750000D01*
X116000000Y-34750000D02*
G75*
G03*
X114000000Y-36750000I0J-2000000D01*
G01*
X116500000Y-38750000D02*
X116500000Y-37250000D01*
X144000000Y-81750000D02*
X116000000Y-81750000D01*
X117500000Y-36250000D02*
X142500000Y-36250000D01*
X116000000Y-34750000D02*
X144250000Y-34750000D01*
X143500000Y-77750000D02*
G75*
G03*
X142500000Y-76750000I-1000000J0D01*
G01*
X143500000Y-79250000D02*
X143500000Y-77750000D01*
X146000000Y-36500000D02*
G75*
G03*
X144250000Y-34750000I-1750000J0D01*
G01*
M02*
