%TF.GenerationSoftware,KiCad,Pcbnew,7.0.1*%
%TF.CreationDate,2024-01-11T23:21:17+00:00*%
%TF.ProjectId,Hardware,48617264-7761-4726-952e-6b696361645f,rev?*%
%TF.SameCoordinates,Original*%
%TF.FileFunction,Soldermask,Bot*%
%TF.FilePolarity,Negative*%
%FSLAX46Y46*%
G04 Gerber Fmt 4.6, Leading zero omitted, Abs format (unit mm)*
G04 Created by KiCad (PCBNEW 7.0.1) date 2024-01-11 23:21:17*
%MOMM*%
%LPD*%
G01*
G04 APERTURE LIST*
G04 Aperture macros list*
%AMRoundRect*
0 Rectangle with rounded corners*
0 $1 Rounding radius*
0 $2 $3 $4 $5 $6 $7 $8 $9 X,Y pos of 4 corners*
0 Add a 4 corners polygon primitive as box body*
4,1,4,$2,$3,$4,$5,$6,$7,$8,$9,$2,$3,0*
0 Add four circle primitives for the rounded corners*
1,1,$1+$1,$2,$3*
1,1,$1+$1,$4,$5*
1,1,$1+$1,$6,$7*
1,1,$1+$1,$8,$9*
0 Add four rect primitives between the rounded corners*
20,1,$1+$1,$2,$3,$4,$5,0*
20,1,$1+$1,$4,$5,$6,$7,0*
20,1,$1+$1,$6,$7,$8,$9,0*
20,1,$1+$1,$8,$9,$2,$3,0*%
G04 Aperture macros list end*
%ADD10RoundRect,0.140000X-0.170000X0.140000X-0.170000X-0.140000X0.170000X-0.140000X0.170000X0.140000X0*%
%ADD11RoundRect,0.140000X-0.140000X-0.170000X0.140000X-0.170000X0.140000X0.170000X-0.140000X0.170000X0*%
%ADD12RoundRect,0.135000X-0.185000X0.135000X-0.185000X-0.135000X0.185000X-0.135000X0.185000X0.135000X0*%
%ADD13RoundRect,0.150000X0.587500X0.150000X-0.587500X0.150000X-0.587500X-0.150000X0.587500X-0.150000X0*%
%ADD14RoundRect,0.135000X-0.135000X-0.185000X0.135000X-0.185000X0.135000X0.185000X-0.135000X0.185000X0*%
%ADD15RoundRect,0.150000X0.512500X0.150000X-0.512500X0.150000X-0.512500X-0.150000X0.512500X-0.150000X0*%
%ADD16RoundRect,0.135000X0.135000X0.185000X-0.135000X0.185000X-0.135000X-0.185000X0.135000X-0.185000X0*%
%ADD17R,1.000000X1.800000*%
%ADD18RoundRect,0.062500X0.062500X-0.337500X0.062500X0.337500X-0.062500X0.337500X-0.062500X-0.337500X0*%
%ADD19RoundRect,0.062500X0.337500X-0.062500X0.337500X0.062500X-0.337500X0.062500X-0.337500X-0.062500X0*%
%ADD20R,3.600000X3.600000*%
%ADD21RoundRect,0.147500X0.147500X0.172500X-0.147500X0.172500X-0.147500X-0.172500X0.147500X-0.172500X0*%
%ADD22C,0.650000*%
%ADD23R,1.240000X0.600000*%
%ADD24R,1.240000X0.300000*%
%ADD25O,1.800000X1.000000*%
%ADD26O,2.100000X1.000000*%
%ADD27RoundRect,0.250000X-1.500000X0.250000X-1.500000X-0.250000X1.500000X-0.250000X1.500000X0.250000X0*%
%ADD28RoundRect,0.250001X-1.449999X0.499999X-1.449999X-0.499999X1.449999X-0.499999X1.449999X0.499999X0*%
%ADD29RoundRect,0.250000X-0.450000X0.262500X-0.450000X-0.262500X0.450000X-0.262500X0.450000X0.262500X0*%
%ADD30R,1.150000X1.000000*%
%ADD31RoundRect,0.140000X0.170000X-0.140000X0.170000X0.140000X-0.170000X0.140000X-0.170000X-0.140000X0*%
%ADD32RoundRect,0.050000X0.100000X0.100000X-0.100000X0.100000X-0.100000X-0.100000X0.100000X-0.100000X0*%
%ADD33O,0.950000X0.300000*%
%ADD34R,0.400000X0.575000*%
%ADD35R,0.400000X0.675000*%
%ADD36R,2.600000X1.950000*%
%ADD37RoundRect,0.150000X-0.150000X0.512500X-0.150000X-0.512500X0.150000X-0.512500X0.150000X0.512500X0*%
%ADD38RoundRect,0.140000X0.140000X0.170000X-0.140000X0.170000X-0.140000X-0.170000X0.140000X-0.170000X0*%
%ADD39RoundRect,0.150000X-0.150000X0.587500X-0.150000X-0.587500X0.150000X-0.587500X0.150000X0.587500X0*%
%ADD40RoundRect,0.147500X-0.172500X0.147500X-0.172500X-0.147500X0.172500X-0.147500X0.172500X0.147500X0*%
%ADD41RoundRect,0.350000X0.350000X-0.400000X0.350000X0.400000X-0.350000X0.400000X-0.350000X-0.400000X0*%
%ADD42C,1.800000*%
%ADD43RoundRect,0.250000X0.141421X-0.494975X0.494975X-0.141421X-0.141421X0.494975X-0.494975X0.141421X0*%
%ADD44RoundRect,0.250000X0.494975X0.141421X0.141421X0.494975X-0.494975X-0.141421X-0.141421X-0.494975X0*%
%ADD45RoundRect,0.350000X0.400000X-0.350000X0.400000X0.350000X-0.400000X0.350000X-0.400000X-0.350000X0*%
%ADD46RoundRect,0.112500X-0.112500X0.187500X-0.112500X-0.187500X0.112500X-0.187500X0.112500X0.187500X0*%
G04 APERTURE END LIST*
D10*
%TO.C,C14*%
X142000000Y-48020000D03*
X142000000Y-48980000D03*
%TD*%
D11*
%TO.C,C20*%
X131020000Y-60250000D03*
X131980000Y-60250000D03*
%TD*%
D12*
%TO.C,R1*%
X118500000Y-66740000D03*
X118500000Y-67760000D03*
%TD*%
D11*
%TO.C,C15*%
X123540000Y-54500000D03*
X124500000Y-54500000D03*
%TD*%
%TO.C,C12*%
X133020000Y-67250000D03*
X133980000Y-67250000D03*
%TD*%
D13*
%TO.C,Q2*%
X122000000Y-65500000D03*
X122000000Y-67400000D03*
X120125000Y-66450000D03*
%TD*%
D14*
%TO.C,R12*%
X130990000Y-59000000D03*
X132010000Y-59000000D03*
%TD*%
D11*
%TO.C,C19*%
X137315000Y-68580000D03*
X138275000Y-68580000D03*
%TD*%
D14*
%TO.C,R10*%
X123250000Y-61250000D03*
X124270000Y-61250000D03*
%TD*%
D15*
%TO.C,U3*%
X126137500Y-51300000D03*
X126137500Y-52250000D03*
X126137500Y-53200000D03*
X123862500Y-53200000D03*
X123862500Y-51300000D03*
%TD*%
D14*
%TO.C,R11*%
X130990000Y-61500000D03*
X132010000Y-61500000D03*
%TD*%
D16*
%TO.C,R3*%
X119760000Y-51500000D03*
X118740000Y-51500000D03*
%TD*%
D17*
%TO.C,Y2*%
X120750000Y-69500000D03*
X118250000Y-69500000D03*
%TD*%
D11*
%TO.C,C5*%
X132770000Y-68750000D03*
X133730000Y-68750000D03*
%TD*%
D18*
%TO.C,U1*%
X130750000Y-68450000D03*
X130250000Y-68450000D03*
X129750000Y-68450000D03*
X129250000Y-68450000D03*
X128750000Y-68450000D03*
X128250000Y-68450000D03*
X127750000Y-68450000D03*
X127250000Y-68450000D03*
D19*
X126550000Y-67750000D03*
X126550000Y-67250000D03*
X126550000Y-66750000D03*
X126550000Y-66250000D03*
X126550000Y-65750000D03*
X126550000Y-65250000D03*
X126550000Y-64750000D03*
X126550000Y-64250000D03*
D18*
X127250000Y-63550000D03*
X127750000Y-63550000D03*
X128250000Y-63550000D03*
X128750000Y-63550000D03*
X129250000Y-63550000D03*
X129750000Y-63550000D03*
X130250000Y-63550000D03*
X130750000Y-63550000D03*
D19*
X131450000Y-64250000D03*
X131450000Y-64750000D03*
X131450000Y-65250000D03*
X131450000Y-65750000D03*
X131450000Y-66250000D03*
X131450000Y-66750000D03*
X131450000Y-67250000D03*
X131450000Y-67750000D03*
D20*
X129000000Y-66000000D03*
%TD*%
D21*
%TO.C,L1*%
X132485000Y-69750000D03*
X131515000Y-69750000D03*
%TD*%
D14*
%TO.C,R4*%
X123240000Y-59750000D03*
X124260000Y-59750000D03*
%TD*%
D22*
%TO.C,J1*%
X120461000Y-60675000D03*
X120461000Y-54895000D03*
D23*
X121581000Y-60985000D03*
X121581000Y-60185000D03*
D24*
X121581000Y-59035000D03*
X121581000Y-58035000D03*
X121581000Y-57535000D03*
X121581000Y-56535000D03*
D23*
X121581000Y-55385000D03*
X121581000Y-54585000D03*
X121581000Y-54585000D03*
X121581000Y-55385000D03*
D24*
X121581000Y-56035000D03*
X121581000Y-57035000D03*
X121581000Y-58535000D03*
X121581000Y-59535000D03*
D23*
X121581000Y-60185000D03*
X121581000Y-60985000D03*
D25*
X116781000Y-62105000D03*
D26*
X120981000Y-62105000D03*
D25*
X116781000Y-53465000D03*
D26*
X120981000Y-53465000D03*
%TD*%
D27*
%TO.C,J2*%
X116650000Y-44500000D03*
X116650000Y-46500000D03*
D28*
X122400000Y-42150000D03*
X122400000Y-48850000D03*
%TD*%
D16*
%TO.C,R5*%
X132260000Y-55750000D03*
X131240000Y-55750000D03*
%TD*%
D29*
%TO.C,R6*%
X134500000Y-47587500D03*
X134500000Y-49412500D03*
%TD*%
D11*
%TO.C,C21*%
X131020000Y-57750000D03*
X131980000Y-57750000D03*
%TD*%
%TO.C,C1*%
X137270000Y-67250000D03*
X138230000Y-67250000D03*
%TD*%
D30*
%TO.C,Y1*%
X139625000Y-66300000D03*
X141375000Y-66300000D03*
X141375000Y-67700000D03*
X139625000Y-67700000D03*
%TD*%
D10*
%TO.C,C3*%
X116750000Y-69020000D03*
X116750000Y-69980000D03*
%TD*%
%TO.C,C11*%
X135000000Y-66270000D03*
X135000000Y-67230000D03*
%TD*%
D31*
%TO.C,C13*%
X136250000Y-67230000D03*
X136250000Y-66270000D03*
%TD*%
D16*
%TO.C,R9*%
X121010000Y-64000000D03*
X119990000Y-64000000D03*
%TD*%
D10*
%TO.C,C16*%
X129500000Y-57770000D03*
X129500000Y-58730000D03*
%TD*%
D32*
%TO.C,U2*%
X140800000Y-46500000D03*
D33*
X140475000Y-46500000D03*
D32*
X140800000Y-46900000D03*
D33*
X140475000Y-46900000D03*
D32*
X140800000Y-47300000D03*
D33*
X140475000Y-47300000D03*
D32*
X140800000Y-47700000D03*
D33*
X140475000Y-47700000D03*
D32*
X140800000Y-48100000D03*
D33*
X140475000Y-48100000D03*
D32*
X140800000Y-48500000D03*
D33*
X140475000Y-48500000D03*
X136525000Y-48500000D03*
D32*
X136200000Y-48500000D03*
D33*
X136525000Y-48100000D03*
D32*
X136200000Y-48100000D03*
D33*
X136525000Y-47700000D03*
D32*
X136200000Y-47700000D03*
D33*
X136525000Y-47300000D03*
D32*
X136200000Y-47300000D03*
D33*
X136525000Y-46900000D03*
D32*
X136200000Y-46900000D03*
D33*
X136525000Y-46500000D03*
D32*
X136200000Y-46500000D03*
D34*
X139600000Y-48865000D03*
D35*
X139600000Y-48812500D03*
X139600000Y-46187500D03*
D34*
X139600000Y-46135000D03*
D36*
X138500000Y-47500000D03*
X138500000Y-47500000D03*
D34*
X137400000Y-48865000D03*
D35*
X137400000Y-48812500D03*
X137400000Y-46187500D03*
D34*
X137400000Y-46135000D03*
%TD*%
D37*
%TO.C,U4*%
X128000000Y-53862500D03*
X129900000Y-53862500D03*
X128950000Y-56137500D03*
%TD*%
D11*
%TO.C,C22*%
X131270000Y-54500000D03*
X132230000Y-54500000D03*
%TD*%
D16*
%TO.C,R7*%
X135010000Y-46000000D03*
X133990000Y-46000000D03*
%TD*%
D38*
%TO.C,C4*%
X123480000Y-69500000D03*
X122520000Y-69500000D03*
%TD*%
D39*
%TO.C,Q1*%
X124145000Y-56062500D03*
X126045000Y-56062500D03*
X125095000Y-57937500D03*
%TD*%
D14*
%TO.C,R13*%
X131240000Y-53250000D03*
X132260000Y-53250000D03*
%TD*%
D31*
%TO.C,C6*%
X117250000Y-67730000D03*
X117250000Y-66770000D03*
%TD*%
D40*
%TO.C,L2*%
X136000000Y-68515000D03*
X136000000Y-69485000D03*
%TD*%
D41*
%TO.C,J4*%
X136000000Y-62750000D03*
X140250000Y-62750000D03*
D42*
X137000000Y-61000000D03*
D43*
X144500000Y-61000000D03*
D42*
X137000000Y-55000000D03*
D44*
X144500000Y-55000000D03*
D41*
X136000000Y-53250000D03*
X140250000Y-53250000D03*
D45*
X133750000Y-62000000D03*
X133750000Y-59333334D03*
X133750000Y-56666668D03*
X133750000Y-54000000D03*
%TD*%
D11*
%TO.C,C10*%
X128270000Y-62250000D03*
X129230000Y-62250000D03*
%TD*%
D31*
%TO.C,C7*%
X134750000Y-69480000D03*
X134750000Y-68520000D03*
%TD*%
D16*
%TO.C,R2*%
X138260000Y-66000000D03*
X137240000Y-66000000D03*
%TD*%
D10*
%TO.C,C2*%
X142750000Y-66520000D03*
X142750000Y-67480000D03*
%TD*%
D38*
%TO.C,C8*%
X130480000Y-69750000D03*
X129520000Y-69750000D03*
%TD*%
D10*
%TO.C,C9*%
X124250000Y-66520000D03*
X124250000Y-67480000D03*
%TD*%
D38*
%TO.C,C17*%
X129730000Y-52250000D03*
X128770000Y-52250000D03*
%TD*%
D14*
%TO.C,R8*%
X120990000Y-51500000D03*
X122010000Y-51500000D03*
%TD*%
D46*
%TO.C,D1*%
X128000000Y-57950000D03*
X128000000Y-60050000D03*
%TD*%
M02*
