%TF.GenerationSoftware,KiCad,Pcbnew,7.0.1*%
%TF.CreationDate,2024-08-16T22:45:35+01:00*%
%TF.ProjectId,Frontlight,46726f6e-746c-4696-9768-742e6b696361,rev?*%
%TF.SameCoordinates,Original*%
%TF.FileFunction,Copper,L1,Top*%
%TF.FilePolarity,Positive*%
%FSLAX46Y46*%
G04 Gerber Fmt 4.6, Leading zero omitted, Abs format (unit mm)*
G04 Created by KiCad (PCBNEW 7.0.1) date 2024-08-16 22:45:35*
%MOMM*%
%LPD*%
G01*
G04 APERTURE LIST*
G04 Aperture macros list*
%AMRoundRect*
0 Rectangle with rounded corners*
0 $1 Rounding radius*
0 $2 $3 $4 $5 $6 $7 $8 $9 X,Y pos of 4 corners*
0 Add a 4 corners polygon primitive as box body*
4,1,4,$2,$3,$4,$5,$6,$7,$8,$9,$2,$3,0*
0 Add four circle primitives for the rounded corners*
1,1,$1+$1,$2,$3*
1,1,$1+$1,$4,$5*
1,1,$1+$1,$6,$7*
1,1,$1+$1,$8,$9*
0 Add four rect primitives between the rounded corners*
20,1,$1+$1,$2,$3,$4,$5,0*
20,1,$1+$1,$4,$5,$6,$7,0*
20,1,$1+$1,$6,$7,$8,$9,0*
20,1,$1+$1,$8,$9,$2,$3,0*%
G04 Aperture macros list end*
%TA.AperFunction,SMDPad,CuDef*%
%ADD10RoundRect,0.218750X-0.218750X-0.256250X0.218750X-0.256250X0.218750X0.256250X-0.218750X0.256250X0*%
%TD*%
%TA.AperFunction,SMDPad,CuDef*%
%ADD11RoundRect,0.218750X0.218750X0.256250X-0.218750X0.256250X-0.218750X-0.256250X0.218750X-0.256250X0*%
%TD*%
%TA.AperFunction,SMDPad,CuDef*%
%ADD12RoundRect,0.200000X0.200000X0.275000X-0.200000X0.275000X-0.200000X-0.275000X0.200000X-0.275000X0*%
%TD*%
%TA.AperFunction,ViaPad*%
%ADD13C,0.800000*%
%TD*%
%TA.AperFunction,Conductor*%
%ADD14C,0.250000*%
%TD*%
G04 APERTURE END LIST*
D10*
%TO.P,D2,1,K*%
%TO.N,GND*%
X71962500Y-83750000D03*
%TO.P,D2,2,A*%
%TO.N,Net-(D1-A)*%
X73537500Y-83750000D03*
%TD*%
D11*
%TO.P,D1,1,K*%
%TO.N,GND*%
X87037500Y-83750000D03*
%TO.P,D1,2,A*%
%TO.N,Net-(D1-A)*%
X85462500Y-83750000D03*
%TD*%
D12*
%TO.P,R1,1*%
%TO.N,+3V3*%
X80325000Y-83750000D03*
%TO.P,R1,2*%
%TO.N,Net-(D1-A)*%
X78675000Y-83750000D03*
%TD*%
D13*
%TO.N,GND*%
X74750000Y-84500000D03*
X77500000Y-84500000D03*
X84000000Y-84500000D03*
X71000000Y-84000000D03*
%TO.N,+3V3*%
X88074500Y-84000000D03*
X81500000Y-84000000D03*
%TD*%
D14*
%TO.N,+3V3*%
X88074500Y-84000000D02*
X88750000Y-84000000D01*
%TO.N,Net-(D1-A)*%
X78425000Y-83750000D02*
X78675000Y-84000000D01*
X73287500Y-84000000D02*
X73537500Y-83750000D01*
X73537500Y-83750000D02*
X78425000Y-83750000D01*
X79475000Y-84800000D02*
X78675000Y-84000000D01*
X81950000Y-84800000D02*
X79475000Y-84800000D01*
X83000000Y-83750000D02*
X81950000Y-84800000D01*
X85462500Y-83750000D02*
X83000000Y-83750000D01*
X85712500Y-84000000D02*
X85462500Y-83750000D01*
%TO.N,+3V3*%
X80325000Y-84000000D02*
X81500000Y-84000000D01*
%TD*%
%TA.AperFunction,Conductor*%
%TO.N,+3V3*%
G36*
X90937500Y-83266613D02*
G01*
X90982887Y-83312000D01*
X90999500Y-83374000D01*
X90999500Y-84875500D01*
X90982887Y-84937500D01*
X90937500Y-84982887D01*
X90875500Y-84999500D01*
X88624000Y-84999500D01*
X88562000Y-84982887D01*
X88516613Y-84937500D01*
X88500000Y-84875500D01*
X88500000Y-83374500D01*
X88516613Y-83312500D01*
X88562000Y-83267113D01*
X88624000Y-83250500D01*
X90475240Y-83250500D01*
X90475383Y-83250528D01*
X90475384Y-83250524D01*
X90499998Y-83250540D01*
X90500000Y-83250541D01*
X90500001Y-83250540D01*
X90523073Y-83250556D01*
X90525885Y-83250000D01*
X90875500Y-83250000D01*
X90937500Y-83266613D01*
G37*
%TD.AperFunction*%
%TD*%
%TA.AperFunction,Conductor*%
%TO.N,GND*%
G36*
X87225500Y-83516613D02*
G01*
X87270887Y-83562000D01*
X87287500Y-83624000D01*
X87287500Y-84475000D01*
X87312722Y-84475000D01*
X87344378Y-84472031D01*
X87477807Y-84425341D01*
X87542691Y-84420712D01*
X87600989Y-84449566D01*
X87629699Y-84475000D01*
X87702260Y-84539283D01*
X87842134Y-84612695D01*
X87842135Y-84612696D01*
X87900174Y-84627001D01*
X87948923Y-84651346D01*
X87982528Y-84694240D01*
X87994500Y-84747398D01*
X87994500Y-84875500D01*
X87977887Y-84937500D01*
X87932500Y-84982887D01*
X87870500Y-84999500D01*
X82580899Y-84999500D01*
X82524604Y-84985985D01*
X82480581Y-84948385D01*
X82458426Y-84894898D01*
X82462968Y-84837182D01*
X82493218Y-84787819D01*
X83119218Y-84161819D01*
X83159446Y-84134939D01*
X83206899Y-84125500D01*
X84701306Y-84125500D01*
X84750118Y-84135512D01*
X84791049Y-84163930D01*
X84817487Y-84206166D01*
X84827663Y-84233449D01*
X84908527Y-84341472D01*
X85016547Y-84422334D01*
X85016550Y-84422336D01*
X85142978Y-84469491D01*
X85198870Y-84475500D01*
X85726127Y-84475500D01*
X85726130Y-84475500D01*
X85782022Y-84469491D01*
X85908450Y-84422336D01*
X86016472Y-84341472D01*
X86097336Y-84233450D01*
X86134436Y-84133980D01*
X86168462Y-84084435D01*
X86221792Y-84056712D01*
X86281894Y-84057325D01*
X86334648Y-84086130D01*
X86367658Y-84136359D01*
X86399640Y-84227757D01*
X86483549Y-84341450D01*
X86597243Y-84425359D01*
X86730620Y-84472031D01*
X86762278Y-84475000D01*
X86787500Y-84475000D01*
X86787500Y-83624000D01*
X86804113Y-83562000D01*
X86849500Y-83516613D01*
X86911500Y-83500000D01*
X87163500Y-83500000D01*
X87225500Y-83516613D01*
G37*
%TD.AperFunction*%
%TA.AperFunction,Conductor*%
G36*
X68437500Y-83016613D02*
G01*
X68482887Y-83062000D01*
X68499500Y-83124000D01*
X68499500Y-83225240D01*
X68499459Y-83225446D01*
X68499459Y-83250000D01*
X68499500Y-83250099D01*
X68499617Y-83250383D01*
X68499618Y-83250384D01*
X68499808Y-83250462D01*
X68500000Y-83250541D01*
X68500002Y-83250539D01*
X68524616Y-83250524D01*
X68524616Y-83250528D01*
X68524760Y-83250500D01*
X71157486Y-83250500D01*
X71214398Y-83264332D01*
X71258613Y-83302742D01*
X71280268Y-83357160D01*
X71277004Y-83390315D01*
X71279383Y-83390539D01*
X71275000Y-83437278D01*
X71275000Y-83500000D01*
X72088500Y-83500000D01*
X72150500Y-83516613D01*
X72195887Y-83562000D01*
X72212500Y-83624000D01*
X72212500Y-84475000D01*
X72237722Y-84475000D01*
X72269379Y-84472031D01*
X72402756Y-84425359D01*
X72516450Y-84341450D01*
X72600359Y-84227757D01*
X72632341Y-84136360D01*
X72665350Y-84086130D01*
X72718104Y-84057325D01*
X72778206Y-84056712D01*
X72831536Y-84084435D01*
X72865564Y-84133981D01*
X72902665Y-84233452D01*
X72983527Y-84341472D01*
X73091547Y-84422334D01*
X73091550Y-84422336D01*
X73217978Y-84469491D01*
X73273870Y-84475500D01*
X73801127Y-84475500D01*
X73801130Y-84475500D01*
X73857022Y-84469491D01*
X73983450Y-84422336D01*
X74091472Y-84341472D01*
X74172336Y-84233450D01*
X74181625Y-84208546D01*
X74182513Y-84206166D01*
X74208951Y-84163930D01*
X74249882Y-84135512D01*
X74298694Y-84125500D01*
X77944900Y-84125500D01*
X77994487Y-84135846D01*
X78035799Y-84165159D01*
X78061942Y-84208546D01*
X78072207Y-84237884D01*
X78152849Y-84347150D01*
X78262115Y-84427792D01*
X78262118Y-84427793D01*
X78390301Y-84472646D01*
X78402474Y-84473787D01*
X78420731Y-84475500D01*
X78420734Y-84475500D01*
X78568101Y-84475500D01*
X78615554Y-84484939D01*
X78655782Y-84511819D01*
X78931781Y-84787819D01*
X78962031Y-84837182D01*
X78966573Y-84894898D01*
X78944418Y-84948385D01*
X78900395Y-84985985D01*
X78844100Y-84999500D01*
X68124500Y-84999500D01*
X68062500Y-84982887D01*
X68017113Y-84937500D01*
X68000500Y-84875500D01*
X68000500Y-84000000D01*
X71275000Y-84000000D01*
X71275000Y-84062722D01*
X71277968Y-84094379D01*
X71324640Y-84227756D01*
X71408549Y-84341450D01*
X71522243Y-84425359D01*
X71655620Y-84472031D01*
X71687278Y-84475000D01*
X71712500Y-84475000D01*
X71712500Y-84000000D01*
X71275000Y-84000000D01*
X68000500Y-84000000D01*
X68000500Y-83124000D01*
X68017113Y-83062000D01*
X68062500Y-83016613D01*
X68124500Y-83000000D01*
X68375500Y-83000000D01*
X68437500Y-83016613D01*
G37*
%TD.AperFunction*%
%TD*%
M02*
