STARTFONT 2.1
COMMENT 
COMMENT This file has been produced by ttf2bdf written by Subhabrata Biswas
COMMENT 
COMMENT For comments, questions, bug reports, send a mail to
COMMENT                                           subhabrata.biswas@usa.net
COMMENT 
FONT -*-Comic Sans MS-Medium-R-Normal--32-240-96-96-c-15--fontspecific
SIZE 24 96 96
FONTBOUNDINGBOX 103 45 -11 -10
STARTPROPERTIES 15
FOUNDRY "Misc"
FAMILY_NAME "Comic Sans MS"
WEIGHT_NAME "Medium"
SLANT "R"
SETWIDTH_NAME "Normal"
PIXEL_SIZE 17
POINT_SIZE 240
RESOLUTION_X 96
RESOLUTION_Y 96
SPACING "C"
CHARSET_ENCODING "fontspecific"
FONT_ASCENT 36
FONT_DESCENT 9
DEFAULT_CHAR 31
COPYRIGHT "You may wish to put your copyright here"
ENDPROPERTIES
CHARS 226
STARTCHAR C0030
ENCODING 30
SWIDTH 500 0
DWIDTH 16 0
BBX 12 26 2 0
BITMAP
FFF0
FFF0
C030
C030
C030
C030
C030
C030
C030
C030
C030
C030
C030
C030
C030
C030
C030
C030
C030
C030
C030
C030
C030
C030
FFF0
FFF0
ENDCHAR
STARTCHAR C0031
ENCODING 31
SWIDTH 500 0
DWIDTH 16 0
BBX 12 26 2 0
BITMAP
FFF0
FFF0
C030
C030
C030
C030
C030
C030
C030
C030
C030
C030
C030
C030
C030
C030
C030
C030
C030
C030
C030
C030
C030
C030
FFF0
FFF0
ENDCHAR
STARTCHAR C0032- 
ENCODING 32
SWIDTH 312 0
DWIDTH 10 0
BBX 1 1 0 -1
BITMAP
00
ENDCHAR
STARTCHAR C0033-!
ENCODING 33
SWIDTH 250 0
DWIDTH 8 0
BBX 3 27 2 -1
BITMAP
E0
E0
E0
E0
E0
E0
E0
E0
E0
E0
E0
E0
E0
E0
E0
E0
E0
E0
E0
E0
E0
00
00
C0
E0
E0
60
ENDCHAR
STARTCHAR C0034-"
ENCODING 34
SWIDTH 437 0
DWIDTH 14 0
BBX 9 10 2 14
BITMAP
E380
E380
E380
E380
E380
E380
E380
E380
E380
E380
ENDCHAR
STARTCHAR C0035-#
ENCODING 35
SWIDTH 843 0
DWIDTH 27 0
BBX 27 25 0 0
BITMAP
00380700
00380700
00380700
00700E00
00700E00
00700E00
7FFFFFE0
7FFFFFE0
7FFFFFE0
00E01C00
01C03800
01C03800
01C03800
03803800
03807000
FFFFFF80
FFFFFF80
FFFFFF80
0F00E000
0E00E000
0E00E000
1E01C000
1C01C000
1C01C000
1C018000
ENDCHAR
STARTCHAR C0036-$
ENCODING 36
SWIDTH 687 0
DWIDTH 22 0
BBX 17 33 2 -5
BITMAP
01C000
01C000
01C000
01C000
03F800
0FFE00
1FFF00
3DCF00
39C000
71C000
71C000
71C000
71C000
79C000
3FF000
1FFC00
07FF00
01DF00
01C780
01C380
01C380
01C380
01C780
E1C700
F1DF00
FFFE00
7FFC00
1FF000
01C000
01C000
01C000
01C000
01C000
ENDCHAR
STARTCHAR C0037-%
ENCODING 37
SWIDTH 812 0
DWIDTH 26 0
BBX 22 26 2 0
BITMAP
1E0000
7F8180
618380
C0C300
C0C700
C0C600
61CE00
7F8E00
3E1C00
001C00
003800
003800
003000
007000
007000
00E000
00E1E0
01C7F8
01C618
038C0C
038C0C
078C0C
070C0C
0F0E18
0E07F0
0E03E0
ENDCHAR
STARTCHAR C0038-&
ENCODING 38
SWIDTH 656 0
DWIDTH 21 0
BBX 18 26 1 -2
BITMAP
007000
00F800
01DC00
039C00
039C00
039C00
03B800
03F800
01F000
03E000
07C000
0FE000
1EE380
3C7380
787380
703B80
E03F80
E01F00
E01F00
E00F00
F01F00
787F80
7FFB80
3FE3C0
0FC1C0
0001C0
ENDCHAR
STARTCHAR C0039-'
ENCODING 39
SWIDTH 375 0
DWIDTH 12 0
BBX 3 8 4 18
BITMAP
E0
E0
E0
E0
E0
E0
E0
E0
ENDCHAR
STARTCHAR C0040-(
ENCODING 40
SWIDTH 375 0
DWIDTH 12 0
BBX 9 33 2 -7
BITMAP
0180
0780
0780
0F00
1E00
1C00
3800
3800
7000
7000
7000
7000
E000
E000
E000
E000
E000
E000
E000
E000
E000
E000
F000
7000
7000
7000
3800
3800
1C00
1E00
0F00
0780
0380
ENDCHAR
STARTCHAR C0041-)
ENCODING 41
SWIDTH 375 0
DWIDTH 12 0
BBX 9 33 2 -7
BITMAP
C000
F000
F000
7800
3C00
1C00
0E00
0E00
0700
0700
0700
0700
0380
0380
0380
0380
0380
0380
0380
0380
0380
0380
0780
0700
0700
0700
0E00
0E00
1C00
3C00
7800
F000
E000
ENDCHAR
STARTCHAR C0042-*
ENCODING 42
SWIDTH 531 0
DWIDTH 17 0
BBX 14 13 1 12
BITMAP
0380
0380
0380
E380
FBFC
7FFC
0FF8
0FC0
1FE0
3CF0
7878
7038
0018
ENDCHAR
STARTCHAR C0043-+
ENCODING 43
SWIDTH 468 0
DWIDTH 15 0
BBX 13 13 1 4
BITMAP
0700
0700
0700
0700
0700
FFF8
FFF8
FFF8
0700
0700
0700
0700
0700
ENDCHAR
STARTCHAR C0044-,
ENCODING 44
SWIDTH 281 0
DWIDTH 9 0
BBX 5 8 3 -6
BITMAP
18
38
38
70
70
E0
E0
C0
ENDCHAR
STARTCHAR C0045--
ENCODING 45
SWIDTH 375 0
DWIDTH 12 0
BBX 10 3 1 7
BITMAP
FFC0
FFC0
FFC0
ENDCHAR
STARTCHAR C0046-.
ENCODING 46
SWIDTH 250 0
DWIDTH 8 0
BBX 4 4 2 0
BITMAP
60
F0
F0
60
ENDCHAR
STARTCHAR C0047-/
ENCODING 47
SWIDTH 500 0
DWIDTH 16 0
BBX 14 27 1 -1
BITMAP
0008
001C
001C
003C
0038
0078
0070
0070
00E0
00E0
01E0
01C0
03C0
0380
0700
0700
0E00
0E00
1C00
1C00
3800
3800
7000
7000
E000
E000
C000
ENDCHAR
STARTCHAR C0048-0
ENCODING 48
SWIDTH 625 0
DWIDTH 20 0
BBX 17 24 2 0
BITMAP
03F000
0FF800
1FFC00
3E1E00
380F00
780700
700700
F00380
E00380
E00380
E00380
E00380
E00380
E00380
E00380
E00380
F00700
700700
700700
780E00
3C1E00
1FFC00
0FF800
07E000
ENDCHAR
STARTCHAR C0049-1
ENCODING 49
SWIDTH 437 0
DWIDTH 14 0
BBX 9 24 3 0
BITMAP
0C00
1C00
3C00
7C00
FC00
FC00
DC00
1C00
1C00
1C00
1C00
1C00
1C00
1C00
1C00
1C00
1C00
1C00
1C00
1C00
1C00
FF80
FF80
FF80
ENDCHAR
STARTCHAR C0050-2
ENCODING 50
SWIDTH 625 0
DWIDTH 20 0
BBX 14 24 3 0
BITMAP
07C0
1FF0
3FF8
787C
F01C
E01C
001C
001C
0038
0078
00F0
01F0
07C0
0F80
1E00
3C00
7800
7000
E000
E000
E000
FFF8
FFFC
7FFC
ENDCHAR
STARTCHAR C0051-3
ENCODING 51
SWIDTH 625 0
DWIDTH 20 0
BBX 15 24 2 0
BITMAP
07C0
3FF0
7FF8
7878
601C
001C
001C
001C
007C
07F8
0FF0
0FC0
00F0
003C
001C
000E
000E
000E
E00E
E01E
F83C
7FF8
3FF0
0FC0
ENDCHAR
STARTCHAR C0052-4
ENCODING 52
SWIDTH 625 0
DWIDTH 20 0
BBX 18 24 2 0
BITMAP
001C00
003C00
007C00
00FC00
00FC00
01DC00
03DC00
039C00
079C00
0F1C00
0E1C00
1E1C00
3C1C00
781C00
7FFF80
FFFFC0
FFFFC0
001C00
001C00
001C00
001C00
001C00
001C00
001C00
ENDCHAR
STARTCHAR C0053-5
ENCODING 53
SWIDTH 625 0
DWIDTH 20 0
BBX 16 24 2 0
BITMAP
FFFE
FFFE
7FFC
7000
7000
7000
73F0
EFF8
FFFC
FC1E
F80E
F007
E007
0007
0007
0007
0007
000F
E00E
E01E
F07C
7FF8
3FF0
0FC0
ENDCHAR
STARTCHAR C0054-6
ENCODING 54
SWIDTH 625 0
DWIDTH 20 0
BBX 16 24 2 0
BITMAP
00E0
01E0
03C0
0780
0F00
1E00
1C00
3800
7800
73F0
7FFC
FFFE
F81E
E00F
E007
E007
E007
E007
F00F
700E
7C3E
3FFC
1FF8
07E0
ENDCHAR
STARTCHAR C0055-7
ENCODING 55
SWIDTH 625 0
DWIDTH 20 0
BBX 18 24 1 0
BITMAP
FFFFC0
FFFFC0
7FFF80
000780
000F00
001E00
003C00
003800
007800
007000
00F000
00E000
01E000
01E000
01C000
03C000
038000
078000
070000
070000
0F0000
0E0000
1E0000
0C0000
ENDCHAR
STARTCHAR C0056-8
ENCODING 56
SWIDTH 625 0
DWIDTH 20 0
BBX 15 24 3 0
BITMAP
0FE0
1FF0
7FF8
783C
F01C
E01C
E01C
E03C
F878
7FF0
3FE0
3FF8
7C7C
783C
F01E
E00E
E00E
E00E
E00E
F01E
783C
7FFC
3FF8
0FE0
ENDCHAR
STARTCHAR C0057-9
ENCODING 57
SWIDTH 625 0
DWIDTH 20 0
BBX 16 25 1 -1
BITMAP
07E0
1FF8
3FFC
7C3E
701E
F00F
E007
E007
E007
E007
E007
F00F
7C3F
3FFE
1FFE
07CE
001C
003C
0038
00F0
01F0
0FC0
3F80
7E00
7800
ENDCHAR
STARTCHAR C0058-:
ENCODING 58
SWIDTH 312 0
DWIDTH 10 0
BBX 3 16 3 2
BITMAP
E0
E0
E0
E0
00
00
00
00
00
00
00
00
E0
E0
E0
E0
ENDCHAR
STARTCHAR C0059-;
ENCODING 59
SWIDTH 312 0
DWIDTH 10 0
BBX 5 21 2 -3
BITMAP
70
70
70
70
00
00
00
00
00
00
00
00
00
00
18
38
78
70
E0
E0
C0
ENDCHAR
STARTCHAR C0060-<
ENCODING 60
SWIDTH 375 0
DWIDTH 12 0
BBX 10 14 1 3
BITMAP
01C0
03C0
07C0
0F00
1E00
3C00
F800
F800
7C00
1E00
0F00
0780
0380
0180
ENDCHAR
STARTCHAR C0061-=
ENCODING 61
SWIDTH 500 0
DWIDTH 16 0
BBX 12 12 2 4
BITMAP
FFF0
FFF0
FFF0
0000
0000
0000
0000
0000
0000
FFF0
FFF0
FFF0
ENDCHAR
STARTCHAR C0062->
ENCODING 62
SWIDTH 406 0
DWIDTH 13 0
BBX 11 15 1 3
BITMAP
6000
7000
7800
3C00
1F00
0F80
07E0
03E0
01C0
0780
0F00
1E00
3C00
F000
E000
ENDCHAR
STARTCHAR C0063-?
ENCODING 63
SWIDTH 500 0
DWIDTH 16 0
BBX 14 24 1 -1
BITMAP
0F80
3FC0
FFE0
F0F0
E078
003C
001C
001C
001C
003C
007C
00F8
01F0
07E0
0FC0
1F00
1C00
1800
0000
0000
1800
3800
3800
3000
ENDCHAR
STARTCHAR C0064-@
ENCODING 64
SWIDTH 906 0
DWIDTH 29 0
BBX 26 27 1 -1
BITMAP
007F8000
01FFF000
07FFF800
0F807E00
1E001F00
3C000F00
381E0780
787E0380
70FE01C0
71F001C0
E1C181C0
E38381C0
E38781C0
E38781C0
E38F8380
E1FFFF80
E1FFFF00
F078FC00
70000000
78000000
38000000
1C000000
1F001800
0FC0FC00
03FFFC00
01FFF800
003FC000
ENDCHAR
STARTCHAR C0065-A
ENCODING 65
SWIDTH 718 0
DWIDTH 23 0
BBX 19 24 2 0
BITMAP
001800
003800
003C00
007C00
00FC00
00FC00
01EE00
01EE00
03CE00
03CE00
078700
078700
0F1F00
0FFF00
3FFF80
3FE380
3F0380
3C0380
7801C0
7801C0
7001C0
F001E0
E000E0
E00060
ENDCHAR
STARTCHAR C0066-B
ENCODING 66
SWIDTH 625 0
DWIDTH 20 0
BBX 16 25 3 -1
BITMAP
7F00
FFC0
FFF0
E0F8
E038
E01C
E01C
E01C
E01C
E03C
E078
E0F8
FFF0
FFE0
FFF8
E07E
E01F
E007
E007
E00F
E03E
E1FC
FFF8
FFE0
7F00
ENDCHAR
STARTCHAR C0067-C
ENCODING 67
SWIDTH 593 0
DWIDTH 19 0
BBX 17 25 1 0
BITMAP
000300
007F80
00FF80
03FF80
07C780
078380
0F0380
1E0000
3C0000
380000
780000
700000
700000
F00000
E00000
E00000
E00000
E00000
E00000
F00700
700F00
783F00
3FFC00
1FF800
07C000
ENDCHAR
STARTCHAR C0068-D
ENCODING 68
SWIDTH 718 0
DWIDTH 23 0
BBX 18 26 3 -2
BITMAP
600000
F80000
FE0000
EFC000
E3E000
E0F800
E03C00
E01E00
E00F00
E00700
E00380
E00380
E001C0
E001C0
E001C0
E001C0
E001C0
E001C0
E003C0
E00380
E00780
E00F00
F03E00
FFFC00
7FF800
0FE000
ENDCHAR
STARTCHAR C0069-E
ENCODING 69
SWIDTH 625 0
DWIDTH 20 0
BBX 17 26 2 -2
BITMAP
FFFE00
FFFF80
FFFF80
E00000
E00000
E00000
E00000
E00000
E00000
E00000
E0FF00
FFFF00
FFFF00
FF8000
E00000
E00000
E00000
E00000
E00000
E00000
E00000
E00000
F00000
7FFF00
7FFF00
1FFE00
ENDCHAR
STARTCHAR C0070-F
ENCODING 70
SWIDTH 593 0
DWIDTH 19 0
BBX 16 26 3 -2
BITMAP
FFF8
FFFE
FFFF
F807
E000
E000
E000
E000
E000
E7FC
FFFC
FFFC
F800
E000
E000
E000
E000
E000
E000
E000
E000
E000
E000
E000
E000
E000
ENDCHAR
STARTCHAR C0071-G
ENCODING 71
SWIDTH 687 0
DWIDTH 22 0
BBX 20 24 1 0
BITMAP
007C00
01FF00
03FFC0
07C7C0
0F01C0
1E0000
1E0000
3C0000
380000
780000
700000
701FF0
E0FFF0
E3FFF0
E3C0E0
E000E0
E001C0
E003C0
E00380
F00780
781F00
3FFE00
3FF800
0FE000
ENDCHAR
STARTCHAR C0072-H
ENCODING 72
SWIDTH 781 0
DWIDTH 25 0
BBX 21 24 2 0
BITMAP
E00018
E00038
E00038
E00038
E00038
E00038
E00038
E00038
E00038
E00038
E00038
E00FF8
E3FFF8
FFFFF8
FFF038
F80038
E00038
E00038
E00038
E00038
E00038
E00038
E00038
E00038
ENDCHAR
STARTCHAR C0073-I
ENCODING 73
SWIDTH 531 0
DWIDTH 17 0
BBX 15 24 0 0
BITMAP
FFF8
FFFE
FFFE
0384
0380
0380
0380
0380
0380
0380
0380
0380
0380
0380
0380
0380
0380
0380
0380
0380
0380
7FFE
FFFE
FFFE
ENDCHAR
STARTCHAR C0074-J
ENCODING 74
SWIDTH 656 0
DWIDTH 21 0
BBX 18 26 2 -2
BITMAP
0FFF80
0FFFC0
0FFFC0
003800
003800
003800
003800
003800
003800
003800
003800
003800
003800
003800
003800
003800
003800
E03800
E07800
E07000
F07000
787000
7C7000
3FF000
0FE000
03C000
ENDCHAR
STARTCHAR C0075-K
ENCODING 75
SWIDTH 625 0
DWIDTH 20 0
BBX 16 26 3 -2
BITMAP
E00E
E01E
E03E
E03C
E078
E0F8
E1F0
E3E0
E3C0
E780
EF00
FE00
FC00
FC00
FC00
FF00
EF80
E7C0
E3E0
E1F0
E0FC
E07F
E01F
E007
E000
6000
ENDCHAR
STARTCHAR C0076-L
ENCODING 76
SWIDTH 562 0
DWIDTH 18 0
BBX 15 24 2 0
BITMAP
E000
E000
E000
E000
E000
E000
E000
E000
E000
E000
E000
E000
E000
E000
E000
E000
E000
E000
E000
E00E
E0FE
FFFE
FFF8
7F00
ENDCHAR
STARTCHAR C0077-M
ENCODING 77
SWIDTH 843 0
DWIDTH 27 0
BBX 25 25 1 -1
BITMAP
0600E000
0E00F000
0F00F000
0F01F000
1F01F800
1F81F800
1F81F800
1F81F800
1D81D800
3DC3D800
3DC3DC00
3DC3DC00
3CC3DC00
38E38C00
78E78C00
78E78E00
78778E00
70778E00
F07F8700
F03F0700
F03F0700
F03F0700
E01F0380
E01F0380
E00E0180
ENDCHAR
STARTCHAR C0078-N
ENCODING 78
SWIDTH 812 0
DWIDTH 26 0
BBX 22 24 2 0
BITMAP
E00038
F00038
F00038
F8003C
FC003C
FC001C
FE001C
EF001C
E7801C
E3C01C
E1C01C
E1E01C
E0F01C
E0781C
E03C1C
E01E1C
E00F1C
E0079C
E003DC
E001FC
E000FC
E0007C
E0003C
C00018
ENDCHAR
STARTCHAR C0079-O
ENCODING 79
SWIDTH 812 0
DWIDTH 26 0
BBX 22 24 2 0
BITMAP
007F00
01FFC0
07FFF0
0F80F0
1F0078
1C0038
3C001C
38001C
70001C
70001C
F0001C
E0001C
E0001C
E0003C
E00038
E00038
E00078
F00070
7000F0
7C01E0
3E07C0
1FFF80
07FF00
01FC00
ENDCHAR
STARTCHAR C0080-P
ENCODING 80
SWIDTH 531 0
DWIDTH 17 0
BBX 14 24 2 0
BITMAP
7F00
FFE0
FFF0
E0F8
E038
E01C
E01C
E01C
E01C
E03C
E078
E0F8
FFF0
FFC0
FF00
E000
E000
E000
E000
E000
E000
E000
E000
E000
ENDCHAR
STARTCHAR C0081-Q
ENCODING 81
SWIDTH 875 0
DWIDTH 28 0
BBX 26 31 1 -7
BITMAP
003F8000
01FFE000
03FFF800
07C07C00
1F003C00
1E001E00
3C000F00
78000700
70000700
70000780
E0000380
E0000380
E0000380
E0000380
E0000380
E0000380
E0000380
701C0780
701E0700
381F0F00
3C0FBE00
1E07FC00
0F83F800
07FFF000
03FFF800
007F3C00
00001F00
00000F80
000007C0
000003C0
000001C0
ENDCHAR
STARTCHAR C0082-R
ENCODING 82
SWIDTH 625 0
DWIDTH 20 0
BBX 17 24 2 0
BITMAP
7E0000
FFC000
FFF000
E1F800
E07C00
E01E00
E00E00
E00700
E00700
E00700
E00F00
E01F00
E07E00
FFFC00
FFF800
FFE000
FFE000
E3F000
E0FC00
E03E00
E01F00
E00F80
E00780
E00380
ENDCHAR
STARTCHAR C0083-S
ENCODING 83
SWIDTH 687 0
DWIDTH 22 0
BBX 19 24 1 0
BITMAP
007E00
03FF80
07FFC0
0F03C0
1C0000
380000
380000
380000
3E0000
1FFC00
0FFF00
03FF80
000FC0
0003E0
0001E0
0000E0
0000E0
0000E0
E001E0
F003C0
F80F80
7FFF00
3FFE00
07F000
ENDCHAR
STARTCHAR C0084-T
ENCODING 84
SWIDTH 687 0
DWIDTH 22 0
BBX 20 24 2 0
BITMAP
FFFFE0
FFFFF0
7FFFF0
00E000
00E000
00E000
00E000
00E000
00E000
00E000
00E000
00E000
00E000
00E000
00E000
00E000
00E000
00E000
00E000
00E000
00E000
00E000
00E000
00C000
ENDCHAR
STARTCHAR C0085-U
ENCODING 85
SWIDTH 750 0
DWIDTH 24 0
BBX 19 24 3 0
BITMAP
600060
E000E0
E000E0
E000E0
E000E0
E000E0
E000E0
E000E0
E000E0
E000E0
E000E0
E000E0
E000E0
E001E0
E001C0
E001C0
F001C0
7003C0
780380
780780
3E0F00
1FFE00
0FFC00
03F800
ENDCHAR
STARTCHAR C0086-V
ENCODING 86
SWIDTH 656 0
DWIDTH 21 0
BBX 18 24 2 0
BITMAP
C000C0
C001C0
E003C0
E00380
600380
700700
700700
700700
380E00
380E00
380E00
1C1C00
1C1C00
1C1C00
0E3800
0E3800
0E3800
077000
077000
07F000
03E000
03E000
03E000
01C000
ENDCHAR
STARTCHAR C0087-W
ENCODING 87
SWIDTH 1062 0
DWIDTH 34 0
BBX 31 25 2 -1
BITMAP
E003000E
F003801E
7007801C
70078038
780F8038
380F8038
380F8070
381DC070
1C1DC070
1C1DC0E0
1C39C0E0
1C39C1C0
0C39C1C0
0E71C180
0E71C380
0E70E380
0EE0E700
06E0E700
07C0EE00
07C0EE00
0780FE00
0780FC00
03807C00
03807800
00007800
ENDCHAR
STARTCHAR C0088-X
ENCODING 88
SWIDTH 718 0
DWIDTH 23 0
BBX 21 24 1 0
BITMAP
700038
780078
7C0078
3E00F0
1E01E0
0F03C0
078780
03C780
03EF00
01FE00
00FC00
007C00
00F800
01FC00
01FE00
03CF00
078700
0F0780
1E03C0
3C01E0
7C00F0
F800F8
F00078
E00038
ENDCHAR
STARTCHAR C0089-Y
ENCODING 89
SWIDTH 656 0
DWIDTH 21 0
BBX 19 25 1 -1
BITMAP
E000E0
E000E0
F001E0
7801C0
780380
3C0380
1E0700
1E0700
0F0F00
0F0E00
078E00
079E00
03DC00
03FC00
01F800
00F800
007800
007000
00F000
00E000
01E000
01C000
038000
038000
030000
ENDCHAR
STARTCHAR C0090-Z
ENCODING 90
SWIDTH 718 0
DWIDTH 23 0
BBX 21 24 1 0
BITMAP
FFFFF0
FFFFF8
FFFFF8
0003F0
0007C0
000F80
001F00
003E00
007C00
00F800
00F000
01F000
03E000
07C000
078000
0F0000
1F0000
1E0000
3C0000
780000
F00000
FFFFF0
FFFFF8
FFFFF8
ENDCHAR
STARTCHAR C0091-[
ENCODING 91
SWIDTH 375 0
DWIDTH 12 0
BBX 8 31 3 -7
BITMAP
FF
FF
FF
E0
E0
E0
E0
E0
E0
E0
E0
E0
E0
E0
E0
E0
E0
E0
E0
E0
E0
E0
E0
E0
E0
E0
E0
E0
FF
FF
FF
ENDCHAR
STARTCHAR C0092-\
ENCODING 92
SWIDTH 562 0
DWIDTH 18 0
BBX 13 26 3 -2
BITMAP
C000
E000
F000
7000
7800
3800
1C00
1C00
0E00
0E00
0E00
0700
0700
0380
0380
0380
01C0
01C0
00E0
00E0
00E0
0070
0070
0038
0038
0018
ENDCHAR
STARTCHAR C0093-]
ENCODING 93
SWIDTH 375 0
DWIDTH 12 0
BBX 8 31 2 -7
BITMAP
FF
FF
FF
07
07
07
07
07
07
07
07
07
07
07
07
07
07
07
07
07
07
07
07
07
07
07
07
07
FF
FF
FF
ENDCHAR
STARTCHAR C0094-^
ENCODING 94
SWIDTH 562 0
DWIDTH 18 0
BBX 13 8 3 18
BITMAP
0700
0F80
1FC0
1DE0
3CF0
7878
F038
C038
ENDCHAR
STARTCHAR C0095-_
ENCODING 95
SWIDTH 625 0
DWIDTH 20 0
BBX 22 3 -1 -5
BITMAP
FFFFFC
FFFFFC
FFFFFC
ENDCHAR
STARTCHAR C0096-`
ENCODING 96
SWIDTH 562 0
DWIDTH 18 0
BBX 7 8 2 18
BITMAP
E0
F0
F8
38
3C
1E
0E
0E
ENDCHAR
STARTCHAR C0097-a
ENCODING 97
SWIDTH 500 0
DWIDTH 16 0
BBX 15 16 1 0
BITMAP
03E0
0FF8
1FFC
3C38
7838
7038
E038
E038
E038
E038
E038
F038
787C
7FFC
3FEE
0F86
ENDCHAR
STARTCHAR C0098-b
ENCODING 98
SWIDTH 593 0
DWIDTH 19 0
BBX 15 26 2 0
BITMAP
6000
E000
E000
E000
E000
E000
E000
E000
E000
E000
E7C0
EFF0
FFF8
F83C
F01C
E01E
E00E
E00E
E00E
E00E
E01E
E01C
F07C
FFF8
FFF0
DFC0
ENDCHAR
STARTCHAR C0099-c
ENCODING 99
SWIDTH 500 0
DWIDTH 16 0
BBX 14 16 1 0
BITMAP
03E0
0FF8
1FFC
3C3C
380C
7000
7000
E000
E000
E000
E000
F00C
783C
3FFC
1FF0
07C0
ENDCHAR
STARTCHAR C0100-d
ENCODING 100
SWIDTH 593 0
DWIDTH 19 0
BBX 16 26 2 0
BITMAP
0006
000E
000E
000E
000E
000E
000E
000E
000E
000E
07CE
1FFE
3FFE
7C3E
700E
F00E
E00E
E00E
E00E
E00E
E00E
701E
7C3E
3FFE
1FFF
07E6
ENDCHAR
STARTCHAR C0101-e
ENCODING 101
SWIDTH 562 0
DWIDTH 18 0
BBX 15 16 1 0
BITMAP
07E0
1FF8
3FFC
3C3C
703C
70F8
E3F0
FFC0
FE00
F000
E006
F00E
7C3E
7FFC
1FF8
0FE0
ENDCHAR
STARTCHAR C0102-f
ENCODING 102
SWIDTH 500 0
DWIDTH 16 0
BBX 13 28 1 -2
BITMAP
00F8
01F8
03F8
0780
0700
0700
0E00
0E00
0E00
0E00
7FF8
FFF8
FFF0
0E00
0E00
0E00
0E00
0E00
0E00
0E00
0E00
0E00
0E00
0E00
0E00
0E00
0E00
0C00
ENDCHAR
STARTCHAR C0103-g
ENCODING 103
SWIDTH 531 0
DWIDTH 17 0
BBX 14 25 1 -9
BITMAP
07E0
0FF0
3FFC
3C3C
781C
701C
E01C
E01C
E03C
E03C
E03C
E07C
70FC
7FDC
3FDC
0F1C
001C
0018
0038
0038
0078
40F0
FFF0
FFE0
7F80
ENDCHAR
STARTCHAR C0104-h
ENCODING 104
SWIDTH 562 0
DWIDTH 18 0
BBX 14 26 2 0
BITMAP
E000
E000
E000
E000
E000
E000
E000
E000
E000
E000
E3E0
E7F0
EFF8
FE38
F838
F838
F038
E038
E038
E038
E038
E038
E03C
E01C
E01C
E01C
ENDCHAR
STARTCHAR C0105-i
ENCODING 105
SWIDTH 281 0
DWIDTH 9 0
BBX 3 23 3 0
BITMAP
E0
E0
E0
00
00
00
00
E0
E0
E0
E0
E0
E0
E0
E0
E0
E0
E0
E0
E0
E0
E0
E0
ENDCHAR
STARTCHAR C0106-j
ENCODING 106
SWIDTH 406 0
DWIDTH 13 0
BBX 10 31 0 -9
BITMAP
01C0
01C0
01C0
0000
0000
0000
01C0
01C0
01C0
01C0
01C0
01C0
01C0
01C0
01C0
01C0
01C0
01C0
01C0
01C0
01C0
01C0
01C0
01C0
C1C0
E1C0
F1C0
73C0
7F80
3F00
0E00
ENDCHAR
STARTCHAR C0107-k
ENCODING 107
SWIDTH 531 0
DWIDTH 17 0
BBX 14 26 2 -1
BITMAP
E000
E000
E000
E000
E000
E000
E000
E000
E018
E038
E078
E0F0
E1E0
E3C0
EF80
FF00
FF80
FFC0
F3C0
E1E0
E0F0
E078
E038
E03C
E01C
E008
ENDCHAR
STARTCHAR C0108-l
ENCODING 108
SWIDTH 281 0
DWIDTH 9 0
BBX 3 27 4 -1
BITMAP
E0
E0
E0
E0
E0
E0
E0
E0
E0
E0
E0
E0
E0
E0
E0
E0
E0
E0
E0
E0
E0
E0
E0
E0
E0
E0
E0
ENDCHAR
STARTCHAR C0109-m
ENCODING 109
SWIDTH 781 0
DWIDTH 25 0
BBX 21 17 2 -1
BITMAP
E1C3C0
E7EFE0
EFFFF0
FF3EF0
FC3C70
F83870
F03870
E03870
E03878
E03878
E03838
E03838
E03838
E03838
E03838
E03838
003800
ENDCHAR
STARTCHAR C0110-n
ENCODING 110
SWIDTH 531 0
DWIDTH 17 0
BBX 13 16 2 0
BITMAP
C1E0
E7F0
EFF0
FE38
FC38
F838
F038
F038
E038
E038
E038
E038
E038
E038
E038
6038
ENDCHAR
STARTCHAR C0111-o
ENCODING 111
SWIDTH 531 0
DWIDTH 17 0
BBX 14 16 1 0
BITMAP
07C0
1FF0
3FF8
7C78
703C
F01C
E01C
E01C
E01C
E01C
E01C
F038
7878
3FF0
1FE0
0F80
ENDCHAR
STARTCHAR C0112-p
ENCODING 112
SWIDTH 531 0
DWIDTH 17 0
BBX 13 26 3 -9
BITMAP
6000
E7C0
FFE0
FFF0
F870
F070
E038
E038
E038
E038
E038
E038
E038
E070
E0F0
FFE0
FFC0
FF80
E000
E000
E000
E000
E000
E000
E000
E000
ENDCHAR
STARTCHAR C0113-q
ENCODING 113
SWIDTH 531 0
DWIDTH 17 0
BBX 14 25 1 -9
BITMAP
03FC
0FFC
1FFC
3E1C
781C
701C
F01C
E01C
E01C
E01C
E01C
E03C
F03C
787C
3FF8
1FF8
07F8
0038
0038
0038
0038
0038
0038
0038
0038
ENDCHAR
STARTCHAR C0114-r
ENCODING 114
SWIDTH 468 0
DWIDTH 15 0
BBX 12 16 2 0
BITMAP
C1E0
E7F0
FFF0
FE70
F870
F070
E070
E000
E000
E000
E000
E000
E000
E000
E000
E000
ENDCHAR
STARTCHAR C0115-s
ENCODING 115
SWIDTH 500 0
DWIDTH 16 0
BBX 13 18 1 0
BITMAP
0078
03F8
1FF8
3F38
7C38
7018
7000
7F00
3FC0
1FF0
01F0
0078
0038
C038
F078
FFF0
7FE0
1FC0
ENDCHAR
STARTCHAR C0116-t
ENCODING 116
SWIDTH 468 0
DWIDTH 15 0
BBX 13 22 1 0
BITMAP
0600
0700
0700
0700
0700
0700
FFF8
FFF8
7FF0
0700
0700
0700
0700
0700
0700
0700
0700
0700
0700
0700
0700
0600
ENDCHAR
STARTCHAR C0117-u
ENCODING 117
SWIDTH 531 0
DWIDTH 17 0
BBX 13 16 2 0
BITMAP
E038
E038
E038
E038
E038
E038
E038
E038
E038
E038
E038
E038
E038
FFF8
7FF8
3FB8
ENDCHAR
STARTCHAR C0118-v
ENCODING 118
SWIDTH 500 0
DWIDTH 16 0
BBX 14 17 1 -1
BITMAP
C00C
E01C
E01C
7038
7038
3030
3870
3870
1CE0
1CE0
0DC0
0FC0
0F80
0780
0700
0300
0200
ENDCHAR
STARTCHAR C0119-w
ENCODING 119
SWIDTH 687 0
DWIDTH 22 0
BBX 20 16 1 0
BITMAP
E06070
E0F070
E0F070
E1F0E0
E1F0E0
61F0E0
73B8E0
73B9C0
7339C0
7739C0
773B80
773B80
3E1B80
3E1F00
1E1F00
1C0E00
ENDCHAR
STARTCHAR C0120-x
ENCODING 120
SWIDTH 593 0
DWIDTH 19 0
BBX 17 17 1 -1
BITMAP
700380
780780
3C0F80
1E1F00
0F3C00
077800
07F000
03E000
03E000
07F000
0F7000
1E7800
3C3C00
F81E00
F00F00
E00F00
000700
ENDCHAR
STARTCHAR C0121-y
ENCODING 121
SWIDTH 531 0
DWIDTH 17 0
BBX 16 25 0 -9
BITMAP
E007
E007
F00E
780E
381C
3C1C
1C38
1E38
0E78
0F70
0770
07E0
03E0
03C0
01C0
0380
0380
0700
0700
0E00
0E00
0E00
1C00
1C00
1800
ENDCHAR
STARTCHAR C0122-z
ENCODING 122
SWIDTH 531 0
DWIDTH 17 0
BBX 14 16 2 0
BITMAP
7FFC
7FFC
7FFC
0078
0070
00E0
01E0
01C0
0380
0700
0F00
1E00
3C00
7FFC
FFFC
FFFC
ENDCHAR
STARTCHAR C0123-{
ENCODING 123
SWIDTH 375 0
DWIDTH 12 0
BBX 11 33 1 -7
BITMAP
03C0
07E0
0FE0
0E00
1C00
1C00
1C00
1C00
1C00
1C00
1C00
1C00
1C00
1C00
3C00
7800
F800
F000
F800
3800
1C00
1C00
1C00
1C00
1C00
1C00
1C00
1E00
0E00
0F00
07E0
07E0
01E0
ENDCHAR
STARTCHAR C0124-|
ENCODING 124
SWIDTH 437 0
DWIDTH 14 0
BBX 3 32 6 -6
BITMAP
E0
E0
E0
E0
E0
E0
E0
E0
E0
E0
E0
E0
E0
E0
E0
E0
E0
E0
E0
E0
E0
E0
E0
E0
E0
E0
E0
E0
E0
E0
E0
60
ENDCHAR
STARTCHAR C0125-}
ENCODING 125
SWIDTH 375 0
DWIDTH 12 0
BBX 11 33 1 -7
BITMAP
7800
FC00
FE00
0F00
0700
0700
0700
0700
0700
0700
0700
0700
0700
0700
0780
03C0
03E0
01E0
03E0
0380
0700
0700
0700
0700
0700
0700
0700
0F00
0E00
1E00
FC00
FC00
F000
ENDCHAR
STARTCHAR C0126-~
ENCODING 126
SWIDTH 562 0
DWIDTH 18 0
BBX 16 8 1 7
BITMAP
0E00
3F03
3F87
7BC7
F1E7
E0FE
C07E
003C
ENDCHAR
STARTCHAR C0127
ENCODING 127
SWIDTH 500 0
DWIDTH 16 0
BBX 12 26 2 0
BITMAP
FFF0
FFF0
C030
C030
C030
C030
C030
C030
C030
C030
C030
C030
C030
C030
C030
C030
C030
C030
C030
C030
C030
C030
C030
C030
FFF0
FFF0
ENDCHAR
STARTCHAR C0128
ENCODING 128
SWIDTH 625 0
DWIDTH 20 0
BBX 20 25 0 0
BITMAP
000060
000FF0
003FF0
00FFF0
01F0F0
01C070
038070
070000
FFFF00
FFFF00
FFFF00
0E0000
1C0000
1C0000
FFF800
FFF800
FFF800
1C0000
1C0000
1C01C0
0E03C0
0F07C0
07FF80
03FE00
01F800
ENDCHAR
STARTCHAR C0129
ENCODING 129
SWIDTH 500 0
DWIDTH 16 0
BBX 12 26 2 0
BITMAP
FFF0
FFF0
C030
C030
C030
C030
C030
C030
C030
C030
C030
C030
C030
C030
C030
C030
C030
C030
C030
C030
C030
C030
C030
C030
FFF0
FFF0
ENDCHAR
STARTCHAR C0130
ENCODING 130
SWIDTH 312 0
DWIDTH 10 0
BBX 5 7 2 -3
BITMAP
18
38
78
70
E0
E0
E0
ENDCHAR
STARTCHAR C0131
ENCODING 131
SWIDTH 437 0
DWIDTH 14 0
BBX 20 30 -2 -6
BITMAP
0003F0
000FF0
001FE0
003E00
003C00
007800
007800
007000
00F000
00F000
00E000
07FF80
0FFF80
0FFF00
01C000
01C000
01C000
01C000
01C000
03C000
038000
038000
038000
038000
070000
0F0000
1E0000
FE0000
F80000
E00000
ENDCHAR
STARTCHAR C0132
ENCODING 132
SWIDTH 406 0
DWIDTH 13 0
BBX 11 7 1 -3
BITMAP
1860
38E0
79E0
71C0
E380
E380
E380
ENDCHAR
STARTCHAR C0133
ENCODING 133
SWIDTH 687 0
DWIDTH 22 0
BBX 17 3 3 -1
BITMAP
E1C380
E1C380
E1C380
ENDCHAR
STARTCHAR C0134
ENCODING 134
SWIDTH 593 0
DWIDTH 19 0
BBX 17 30 1 -3
BITMAP
01C000
01C000
01C000
01C000
01C000
01C000
01C000
01C000
01C000
FFFF80
FFFF80
7FFF00
01C000
01C000
01C000
01C000
01C000
01C000
01C000
01C000
01C000
01C000
01C000
01C000
01C000
01C000
01C000
01C000
01C000
01C000
ENDCHAR
STARTCHAR C0135
ENCODING 135
SWIDTH 593 0
DWIDTH 19 0
BBX 17 30 1 -3
BITMAP
038000
038000
038000
038000
038000
038000
FFFF00
FFFF80
FFFF00
038000
038000
038000
038000
038000
038000
038000
038000
3FFE00
7FFE00
7FFE00
038000
038000
038000
038000
038000
038000
038000
038000
038000
038000
ENDCHAR
STARTCHAR C0136
ENCODING 136
SWIDTH 562 0
DWIDTH 18 0
BBX 13 8 3 19
BITMAP
0700
0F80
1FC0
1DE0
3CF0
7878
F038
C018
ENDCHAR
STARTCHAR C0137
ENCODING 137
SWIDTH 1250 0
DWIDTH 40 0
BBX 33 26 2 0
BITMAP
1E00000000
7F83800000
6183800000
C0C7000000
C0C7000000
C0C6000000
61CE000000
7F8E000000
3E1C000000
001C000000
0038000000
0038000000
0070000000
0070000000
0070000000
00E0000000
00E1E03C00
01C7F8FF00
01C618C300
038C0D8180
038C0D8180
078C0D8180
070C0D8180
0F0E19C300
0E07F0FE00
0E03E07C00
ENDCHAR
STARTCHAR C0138
ENCODING 138
SWIDTH 687 0
DWIDTH 22 0
BBX 19 33 1 0
BITMAP
018000
01C180
00C380
00E700
007E00
003C00
001800
000000
000000
007E00
03FF80
07FFC0
0F03C0
1C0000
380000
380000
380000
3E0000
1FFC00
0FFF00
03FF80
000FC0
0003E0
0001E0
0000E0
0000E0
0000E0
E001E0
F003C0
F80F80
7FFF00
3FFE00
07F000
ENDCHAR
STARTCHAR C0139
ENCODING 139
SWIDTH 375 0
DWIDTH 12 0
BBX 10 14 1 3
BITMAP
01C0
03C0
0780
0F00
1E00
3C00
F800
F800
7C00
1E00
0F00
0780
0380
0180
ENDCHAR
STARTCHAR C0140
ENCODING 140
SWIDTH 1187 0
DWIDTH 38 0
BBX 36 25 2 -1
BITMAP
007F18FFF0
03FFDFFFF0
07FFFFFFF0
0F80FC0000
1F007C0000
1C003C0000
3C001C0000
38001C0000
70001C0000
70001C0000
F0001C1FE0
E0001FFFE0
E0001FFFE0
E0003FF000
E0003C0000
E0003C0000
E0007C0000
F0007C0000
7000FC0000
7C01FC0000
3E07DC0000
1FFF8E0000
07FF0FFFE0
01FC07FFE0
000001FFC0
ENDCHAR
STARTCHAR C0141
ENCODING 141
SWIDTH 500 0
DWIDTH 16 0
BBX 12 26 2 0
BITMAP
FFF0
FFF0
C030
C030
C030
C030
C030
C030
C030
C030
C030
C030
C030
C030
C030
C030
C030
C030
C030
C030
C030
C030
C030
C030
FFF0
FFF0
ENDCHAR
STARTCHAR C0142
ENCODING 142
SWIDTH 718 0
DWIDTH 23 0
BBX 21 35 1 0
BITMAP
060000
070600
030E00
039C00
01F800
00F000
006000
000000
000000
000000
000000
FFFFF0
FFFFF8
FFFFF8
0003F0
0007C0
000F80
001F00
003E00
007C00
00F800
00F000
01F000
03E000
07C000
078000
0F0000
1F0000
1E0000
3C0000
780000
F00000
FFFFF0
FFFFF8
FFFFF8
ENDCHAR
STARTCHAR C0143
ENCODING 143
SWIDTH 500 0
DWIDTH 16 0
BBX 12 26 2 0
BITMAP
FFF0
FFF0
C030
C030
C030
C030
C030
C030
C030
C030
C030
C030
C030
C030
C030
C030
C030
C030
C030
C030
C030
C030
C030
C030
FFF0
FFF0
ENDCHAR
STARTCHAR C0144
ENCODING 144
SWIDTH 500 0
DWIDTH 16 0
BBX 12 26 2 0
BITMAP
FFF0
FFF0
C030
C030
C030
C030
C030
C030
C030
C030
C030
C030
C030
C030
C030
C030
C030
C030
C030
C030
C030
C030
C030
C030
FFF0
FFF0
ENDCHAR
STARTCHAR C0145
ENCODING 145
SWIDTH 187 0
DWIDTH 6 0
BBX 4 8 1 16
BITMAP
E0
E0
E0
E0
70
70
70
70
ENDCHAR
STARTCHAR C0146
ENCODING 146
SWIDTH 187 0
DWIDTH 6 0
BBX 4 8 1 16
BITMAP
30
30
70
70
70
E0
E0
C0
ENDCHAR
STARTCHAR C0147
ENCODING 147
SWIDTH 406 0
DWIDTH 13 0
BBX 9 8 1 16
BITMAP
E700
E700
E700
E700
F380
7380
7380
7380
ENDCHAR
STARTCHAR C0148
ENCODING 148
SWIDTH 406 0
DWIDTH 13 0
BBX 9 8 3 16
BITMAP
7380
7380
7380
F780
E700
E700
E700
E700
ENDCHAR
STARTCHAR C0149
ENCODING 149
SWIDTH 375 0
DWIDTH 12 0
BBX 6 6 3 9
BITMAP
78
FC
FC
FC
FC
78
ENDCHAR
STARTCHAR C0150
ENCODING 150
SWIDTH 437 0
DWIDTH 14 0
BBX 12 3 1 9
BITMAP
7FF0
FFF0
FFF0
ENDCHAR
STARTCHAR C0151
ENCODING 151
SWIDTH 875 0
DWIDTH 28 0
BBX 26 3 1 9
BITMAP
FFFFFFC0
FFFFFFC0
FFFFFF80
ENDCHAR
STARTCHAR C0152
ENCODING 152
SWIDTH 531 0
DWIDTH 17 0
BBX 14 6 2 18
BITMAP
3C0C
7E0C
E71C
C318
C1F8
00F0
ENDCHAR
STARTCHAR C0153
ENCODING 153
SWIDTH 875 0
DWIDTH 28 0
BBX 26 11 1 15
BITMAP
FFFD8400
FFFF8E00
0603CE00
0603CE00
0607DB00
0606DB00
0606D980
060E7180
060C7180
071C60C0
061860C0
ENDCHAR
STARTCHAR C0154
ENCODING 154
SWIDTH 500 0
DWIDTH 16 0
BBX 13 26 1 0
BITMAP
3000
3830
1870
1CE0
0FC0
0780
0300
0000
0078
03F8
1FF8
3F38
7C38
7018
7000
7F00
3FC0
1FF0
01F0
0078
0038
C038
F078
FFF0
7FE0
1FC0
ENDCHAR
STARTCHAR C0155
ENCODING 155
SWIDTH 375 0
DWIDTH 12 0
BBX 10 14 1 3
BITMAP
E000
F000
F800
7C00
3E00
1F00
0FC0
07C0
0F80
1E00
3C00
7800
F000
E000
ENDCHAR
STARTCHAR C0156
ENCODING 156
SWIDTH 906 0
DWIDTH 29 0
BBX 27 17 1 -1
BITMAP
07C0FC00
1FF3FF00
3FF7FF80
3C3F8380
781F0180
701F0780
F00E0F00
E00E3E00
E00EF800
E00FE000
E00F8000
E01F0000
703E0060
787F81E0
3FF7FFE0
1FE3FF80
0FC0FE00
ENDCHAR
STARTCHAR C0157
ENCODING 157
SWIDTH 500 0
DWIDTH 16 0
BBX 12 26 2 0
BITMAP
FFF0
FFF0
C030
C030
C030
C030
C030
C030
C030
C030
C030
C030
C030
C030
C030
C030
C030
C030
C030
C030
C030
C030
C030
C030
FFF0
FFF0
ENDCHAR
STARTCHAR C0158
ENCODING 158
SWIDTH 531 0
DWIDTH 17 0
BBX 14 26 2 0
BITMAP
C000
E0C0
61C0
7380
3F00
1E00
0C00
0000
0000
0000
7FFC
7FFC
7FFC
0078
0070
00E0
01E0
01C0
0380
0700
0F00
1E00
3C00
7FFC
FFFC
FFFC
ENDCHAR
STARTCHAR C0159
ENCODING 159
SWIDTH 656 0
DWIDTH 21 0
BBX 19 30 1 -1
BITMAP
070E00
0F0F00
0E0F00
000000
000000
E000E0
E000E0
F001E0
7801C0
780380
3C0380
1E0700
1E0700
0F0F00
0F0E00
078E00
079E00
03DC00
03FC00
01F800
00F800
007800
007000
00F000
00E000
01E000
01C000
038000
038000
030000
ENDCHAR
STARTCHAR C0160
ENCODING 160
SWIDTH 312 0
DWIDTH 10 0
BBX 1 1 0 -1
BITMAP
00
ENDCHAR
STARTCHAR C0161
ENCODING 161
SWIDTH 218 0
DWIDTH 7 0
BBX 3 26 2 -1
BITMAP
C0
E0
E0
60
00
00
E0
E0
E0
E0
E0
E0
E0
E0
E0
E0
E0
E0
E0
E0
E0
E0
E0
E0
E0
E0
ENDCHAR
STARTCHAR C0162
ENCODING 162
SWIDTH 625 0
DWIDTH 20 0
BBX 15 26 2 1
BITMAP
0380
0380
0380
0380
07E6
1FFE
3FFE
3B9C
738C
7380
E380
E380
E380
E380
E380
E386
E38E
738E
7B9C
3FFC
1FF8
07E0
0380
0380
0380
0300
ENDCHAR
STARTCHAR C0163
ENCODING 163
SWIDTH 781 0
DWIDTH 25 0
BBX 22 29 1 -3
BITMAP
003F00
00FFC0
01FFE0
03E0F0
038070
070030
070000
0F0000
0E0000
0E0000
0E0000
0E0000
FFFF80
FFFF80
FFFF80
070000
070000
030000
038000
038000
038000
038000
03800C
07001C
07E01C
0FF83C
1FFFF8
1C1FF0
0007E0
ENDCHAR
STARTCHAR C0164
ENCODING 164
SWIDTH 625 0
DWIDTH 20 0
BBX 18 17 1 3
BITMAP
700000
7801C0
7C07C0
3FEFC0
1FFF00
0FFC00
1E3C00
1C1C00
1C1C00
1C1C00
1E3800
1FF800
3FFC00
79FE00
F01F00
E00F00
E00700
ENDCHAR
STARTCHAR C0165
ENCODING 165
SWIDTH 625 0
DWIDTH 20 0
BBX 17 24 2 0
BITMAP
E00380
E00380
700780
780700
380E00
380E00
1C1C00
1C1C00
0E3800
7F3F00
7F7F00
7FFE00
03E000
03E000
01C000
1FFC00
1FFC00
0FFC00
01C000
01C000
01C000
01C000
01C000
01C000
ENDCHAR
STARTCHAR C0166
ENCODING 166
SWIDTH 406 0
DWIDTH 13 0
BBX 3 26 5 0
BITMAP
E0
E0
E0
E0
E0
E0
E0
E0
E0
E0
E0
00
00
00
E0
E0
E0
E0
E0
E0
E0
E0
E0
E0
E0
E0
ENDCHAR
STARTCHAR C0167
ENCODING 167
SWIDTH 625 0
DWIDTH 20 0
BBX 15 26 2 0
BITMAP
07E0
0FF8
1FFC
3C1E
3806
3800
3800
1E00
3F80
7FE0
71F8
707C
701E
380E
3F0E
1FEE
03FC
003C
E01E
E00E
F00E
F00E
781E
7FFC
3FF8
0FE0
ENDCHAR
STARTCHAR C0168
ENCODING 168
SWIDTH 562 0
DWIDTH 18 0
BBX 12 3 3 19
BITMAP
70E0
F0F0
E0F0
ENDCHAR
STARTCHAR C0169
ENCODING 169
SWIDTH 750 0
DWIDTH 24 0
BBX 22 22 1 4
BITMAP
007F00
01FFC0
07FFE0
0F80F0
1E0078
3C7838
78FC38
73FC1C
E3C01C
E7801C
E7001C
E7061C
E78E1C
E3FE3C
E1FC38
70F078
7000F0
7801E0
3E03C0
1FFF80
0FFF00
01FC00
ENDCHAR
STARTCHAR C0170
ENCODING 170
SWIDTH 500 0
DWIDTH 16 0
BBX 13 12 1 14
BITMAP
0FE0
3FF0
7FF0
7070
E070
E070
E0F0
E0F8
73F8
7FF8
3FB8
1E38
ENDCHAR
STARTCHAR C0171
ENCODING 171
SWIDTH 562 0
DWIDTH 18 0
BBX 14 14 0 3
BITMAP
030C
071C
0F3C
0E38
1C70
38E0
F3C0
E380
71C0
38E0
1C70
0E38
071C
030C
ENDCHAR
STARTCHAR C0172
ENCODING 172
SWIDTH 500 0
DWIDTH 16 0
BBX 14 8 1 4
BITMAP
FFFC
FFFC
FFFC
001C
001C
001C
001C
001C
ENDCHAR
STARTCHAR C0173
ENCODING 173
SWIDTH 375 0
DWIDTH 12 0
BBX 10 3 1 7
BITMAP
FFC0
FFC0
FFC0
ENDCHAR
STARTCHAR C0174
ENCODING 174
SWIDTH 781 0
DWIDTH 25 0
BBX 23 22 1 4
BITMAP
007F00
03FFC0
0FFFF0
1F80F8
3E0078
38FE3C
71FF1C
71FF9E
F1C38E
E1C78E
E1FF0E
E3FE0E
E3F00E
E3B81E
E39E1C
F70F3C
730778
7800F0
3E03E0
1FFFC0
0FFF80
01FC00
ENDCHAR
STARTCHAR C0175
ENCODING 175
SWIDTH 625 0
DWIDTH 20 0
BBX 22 3 -1 27
BITMAP
FFFFFC
FFFFFC
FFFFFC
ENDCHAR
STARTCHAR C0176
ENCODING 176
SWIDTH 406 0
DWIDTH 13 0
BBX 11 11 1 15
BITMAP
1F00
3F80
7FC0
F1E0
E0E0
E0E0
E0E0
F1E0
7FC0
7F80
1F00
ENDCHAR
STARTCHAR C0177
ENCODING 177
SWIDTH 468 0
DWIDTH 15 0
BBX 13 19 1 -2
BITMAP
0700
0700
0700
0700
0700
FFF8
FFF8
FFF8
0700
0700
0700
0700
0700
0000
0000
0000
7FF8
FFF8
FFF8
ENDCHAR
STARTCHAR C0178
ENCODING 178
SWIDTH 656 0
DWIDTH 21 0
BBX 10 13 6 14
BITMAP
1E00
7F00
F380
E180
C180
0380
0F00
3E00
7C00
F800
E000
FFC0
7FC0
ENDCHAR
STARTCHAR C0179
ENCODING 179
SWIDTH 656 0
DWIDTH 21 0
BBX 8 14 7 13
BITMAP
3C
7E
03
03
03
1F
3E
3F
07
03
03
07
FE
FC
ENDCHAR
STARTCHAR C0180
ENCODING 180
SWIDTH 500 0
DWIDTH 16 0
BBX 7 7 3 19
BITMAP
0E
1E
3C
38
78
F0
E0
ENDCHAR
STARTCHAR C0181
ENCODING 181
SWIDTH 531 0
DWIDTH 17 0
BBX 18 22 0 -6
BITMAP
0300C0
0701C0
0701C0
0F0380
0E0380
0E0380
0E0780
0E0700
1C0700
1C0700
1C0700
1C0F00
1C0F00
1C1E00
3FFE00
3FFE00
3FEE00
780000
700000
F00000
E00000
E00000
ENDCHAR
STARTCHAR C0182
ENCODING 182
SWIDTH 687 0
DWIDTH 22 0
BBX 20 29 1 -3
BITMAP
000E60
007F70
03FE70
07FE70
1FCE70
3F0E70
3C0E70
780E70
700E70
F00E70
E00E70
E00E60
E00EE0
E00EE0
F01CE0
781CE0
7E1CE0
3FFCE0
0FFDC0
03FDC0
003DC0
0039C0
003BC0
003B80
003B80
007B80
007780
007700
007700
ENDCHAR
STARTCHAR C0183
ENCODING 183
SWIDTH 250 0
DWIDTH 8 0
BBX 4 4 2 11
BITMAP
60
F0
F0
60
ENDCHAR
STARTCHAR C0184
ENCODING 184
SWIDTH 562 0
DWIDTH 18 0
BBX 8 9 5 -7
BITMAP
70
7C
3E
07
03
03
E3
FE
3C
ENDCHAR
STARTCHAR C0185
ENCODING 185
SWIDTH 656 0
DWIDTH 21 0
BBX 8 13 6 14
BITMAP
18
38
F8
D8
18
18
18
18
18
18
18
FF
FF
ENDCHAR
STARTCHAR C0186
ENCODING 186
SWIDTH 468 0
DWIDTH 15 0
BBX 13 12 1 14
BITMAP
0F80
1FE0
3FF0
7870
F038
E038
E038
F078
78F0
7FF0
3FE0
0F80
ENDCHAR
STARTCHAR C0187
ENCODING 187
SWIDTH 562 0
DWIDTH 18 0
BBX 14 14 2 3
BITMAP
C300
E380
F3C0
71C0
38E0
1C70
0F3C
071C
0E38
1C70
38E0
71C0
E380
C300
ENDCHAR
STARTCHAR C0188
ENCODING 188
SWIDTH 656 0
DWIDTH 21 0
BBX 16 32 3 -5
BITMAP
0180
0380
0F80
0F80
0180
0180
0180
0180
0180
0180
0180
0FF8
0FF8
0000
0000
0000
FFFF
FFFF
0000
00C0
01C0
03C0
07C0
07C0
0EC0
1CC0
3FF8
3FF8
00C0
00C0
00C0
00C0
ENDCHAR
STARTCHAR C0189
ENCODING 189
SWIDTH 656 0
DWIDTH 21 0
BBX 16 33 3 -6
BITMAP
0180
0380
0F80
0F80
0180
0180
0180
0180
0180
0180
0180
0FF0
0FF0
0000
0000
0000
FFFF
FFFF
0000
0000
03C0
0FE0
1E70
1C30
1830
0070
01E0
07C0
0F80
1F00
1C00
1FF8
0FF0
ENDCHAR
STARTCHAR C0190
ENCODING 190
SWIDTH 656 0
DWIDTH 21 0
BBX 16 31 3 -5
BITMAP
0780
07C0
0060
0060
00E0
03C0
03E0
01F0
0030
0030
0070
0FE0
0FC0
0000
0000
FFFF
FFFF
0000
00C0
01C0
03C0
07C0
07C0
0EC0
1CC0
3FF8
3FF8
00C0
00C0
00C0
00C0
ENDCHAR
STARTCHAR C0191
ENCODING 191
SWIDTH 500 0
DWIDTH 16 0
BBX 14 24 1 -1
BITMAP
0030
0070
0070
0060
0000
0000
0060
01E0
03E0
07C0
1F00
3E00
7C00
7800
F000
E000
E000
E000
F000
781C
3C3C
3FFC
0FF0
07C0
ENDCHAR
STARTCHAR C0192
ENCODING 192
SWIDTH 718 0
DWIDTH 23 0
BBX 19 33 2 0
BITMAP
00E000
00F000
00F800
003800
003C00
001E00
000E00
000E00
000000
001800
003800
003C00
007C00
00FC00
00FC00
01EE00
01EE00
03CE00
03CE00
078700
078700
0F1F00
0FFF00
3FFF80
3FE380
3F0380
3C0380
7801C0
7801C0
7001C0
F001E0
E000E0
E00060
ENDCHAR
STARTCHAR C0193
ENCODING 193
SWIDTH 718 0
DWIDTH 23 0
BBX 19 33 2 0
BITMAP
0001C0
0003C0
000780
000700
000F00
001E00
001C00
000000
000000
001800
003800
003C00
007C00
00FC00
00FC00
01EE00
01EE00
03CE00
03CE00
078700
078700
0F1F00
0FFF00
3FFF80
3FE380
3F0380
3C0380
7801C0
7801C0
7001C0
F001E0
E000E0
E00060
ENDCHAR
STARTCHAR C0194
ENCODING 194
SWIDTH 718 0
DWIDTH 23 0
BBX 19 33 2 0
BITMAP
001C00
003E00
007F00
007780
00F3C0
01E1E0
03C0E0
030060
000000
001800
003800
003C00
007C00
00FC00
00FC00
01EE00
01EE00
03CE00
03CE00
078700
078700
0F1F00
0FFF00
3FFF80
3FE380
3F0380
3C0380
7801C0
7801C0
7001C0
F001E0
E000E0
E00060
ENDCHAR
STARTCHAR C0195
ENCODING 195
SWIDTH 718 0
DWIDTH 23 0
BBX 19 31 2 0
BITMAP
01E060
03F060
0738E0
0618C0
060FC0
000780
000000
001800
003800
003C00
007C00
00FC00
00FC00
01EE00
01EE00
03CE00
03CE00
078700
078700
0F1F00
0FFF00
3FFF80
3FE380
3F0380
3C0380
7801C0
7801C0
7001C0
F001E0
E000E0
E00060
ENDCHAR
STARTCHAR C0196
ENCODING 196
SWIDTH 718 0
DWIDTH 23 0
BBX 19 29 2 0
BITMAP
00E1C0
01E1E0
01C1E0
000000
000000
001800
003800
003C00
007C00
00FC00
00FC00
01EE00
01EE00
03CE00
03CE00
078700
078700
0F1F00
0FFF00
3FFF80
3FE380
3F0380
3C0380
7801C0
7801C0
7001C0
F001E0
E000E0
E00060
ENDCHAR
STARTCHAR C0197
ENCODING 197
SWIDTH 718 0
DWIDTH 23 0
BBX 19 32 2 0
BITMAP
001F80
007FC0
00E0E0
00C060
00C060
00E0E0
007FC0
003F00
001800
003800
003C00
007C00
00FC00
00FC00
01EE00
01EE00
03CE00
03CE00
078700
078700
0F1F00
0FFF00
3FFF80
3FE380
3F0380
3C0380
7801C0
7801C0
7001C0
F001E0
E000E0
E00060
ENDCHAR
STARTCHAR C0198
ENCODING 198
SWIDTH 1125 0
DWIDTH 36 0
BBX 34 27 1 -2
BITMAP
000001FE00
00007FFF80
0000FFFFC0
0001FFFFC0
0003FC0380
0007F00000
000F700000
001E700000
001E700000
003C700000
0078700000
00F8701F00
01F3FFFF80
01FFFFFF80
03FFFFE000
07FC700000
0F80700000
0F00700000
1E00700000
3E00700000
3C00700000
7800700000
F000700000
F000780000
E0003FFF80
00003FFF80
00000FFF00
ENDCHAR
STARTCHAR C0199
ENCODING 199
SWIDTH 593 0
DWIDTH 19 0
BBX 17 30 1 -6
BITMAP
000300
007F80
01FF80
03FF80
07C780
0F8380
0F0380
1E0100
3C0000
380000
780000
700000
700000
F00000
E00000
E00000
E00000
E00000
E00000
700700
700F00
383E00
1FFC00
0FF000
03E000
006000
006000
00E000
1FC000
1F8000
ENDCHAR
STARTCHAR C0200
ENCODING 200
SWIDTH 625 0
DWIDTH 20 0
BBX 17 37 2 -2
BITMAP
038000
03C000
03E000
00E000
00F000
007800
003800
003800
000000
000000
000000
FFFE00
FFFF80
FFFF80
E00000
E00000
E00000
E00000
E00000
E00000
E00000
E0FF00
FFFF00
FFFF00
FF8000
E00000
E00000
E00000
E00000
E00000
E00000
E00000
E00000
F00000
7FFF00
7FFF00
1FFE00
ENDCHAR
STARTCHAR C0201
ENCODING 201
SWIDTH 625 0
DWIDTH 20 0
BBX 17 37 2 -2
BITMAP
000E00
001E00
003C00
003800
007800
00F000
00E000
000000
000000
000000
000000
FFFE00
FFFF80
FFFF80
E00000
E00000
E00000
E00000
E00000
E00000
E00000
E0FF00
FFFF00
FFFF00
FF8000
E00000
E00000
E00000
E00000
E00000
E00000
E00000
E00000
F00000
7FFF00
7FFF00
1FFE00
ENDCHAR
STARTCHAR C0202
ENCODING 202
SWIDTH 625 0
DWIDTH 20 0
BBX 17 38 2 -2
BITMAP
007000
00F800
01FC00
01DE00
03CF00
078780
0F0380
0C0180
000000
000000
000000
000000
FFFE00
FFFF80
FFFF80
E00000
E00000
E00000
E00000
E00000
E00000
E00000
E0FF00
FFFF00
FFFF00
FF8000
E00000
E00000
E00000
E00000
E00000
E00000
E00000
E00000
F00000
7FFF00
7FFF00
1FFE00
ENDCHAR
STARTCHAR C0203
ENCODING 203
SWIDTH 625 0
DWIDTH 20 0
BBX 17 33 2 -2
BITMAP
070E00
0F0F00
0E0F00
000000
000000
000000
000000
FFFE00
FFFF80
FFFF80
E00000
E00000
E00000
E00000
E00000
E00000
E00000
E0FF00
FFFF00
FFFF00
FF8000
E00000
E00000
E00000
E00000
E00000
E00000
E00000
E00000
F00000
7FFF00
7FFF00
1FFE00
ENDCHAR
STARTCHAR C0204
ENCODING 204
SWIDTH 531 0
DWIDTH 17 0
BBX 15 34 0 0
BITMAP
0700
0780
07C0
01C0
01E0
00F0
0070
0070
0000
0000
FFF8
FFFE
FFFE
0384
0380
0380
0380
0380
0380
0380
0380
0380
0380
0380
0380
0380
0380
0380
0380
0380
0380
7FFE
FFFE
FFFE
ENDCHAR
STARTCHAR C0205
ENCODING 205
SWIDTH 531 0
DWIDTH 17 0
BBX 15 33 0 0
BITMAP
0038
0078
00F0
00E0
01E0
03C0
0380
0000
0000
FFF8
FFFE
FFFE
0384
0380
0380
0380
0380
0380
0380
0380
0380
0380
0380
0380
0380
0380
0380
0380
0380
0380
7FFE
FFFE
FFFE
ENDCHAR
STARTCHAR C0206
ENCODING 206
SWIDTH 531 0
DWIDTH 17 0
BBX 16 35 0 0
BITMAP
00E0
01F0
03F8
03BC
079E
0F0F
1E07
1803
0000
0000
0000
FFF8
FFFE
FFFE
0384
0380
0380
0380
0380
0380
0380
0380
0380
0380
0380
0380
0380
0380
0380
0380
0380
0380
7FFE
FFFE
FFFE
ENDCHAR
STARTCHAR C0207
ENCODING 207
SWIDTH 531 0
DWIDTH 17 0
BBX 15 29 0 0
BITMAP
1C38
3C3C
383C
0000
0000
FFF8
FFFE
FFFE
0384
0380
0380
0380
0380
0380
0380
0380
0380
0380
0380
0380
0380
0380
0380
0380
0380
0380
7FFE
FFFE
FFFE
ENDCHAR
STARTCHAR C0208
ENCODING 208
SWIDTH 718 0
DWIDTH 23 0
BBX 22 26 -1 -2
BITMAP
060000
0F8000
0FE000
0EFC00
0E3E00
0E0F80
0E03C0
0E01E0
0E00F0
0E0070
0E0038
0E0038
FFF01C
FFF81C
FFF81C
0E001C
0E001C
0E001C
0E003C
0E0038
0E0078
0E00F0
0F03E0
0FFFC0
07FF80
00FE00
ENDCHAR
STARTCHAR C0209
ENCODING 209
SWIDTH 812 0
DWIDTH 26 0
BBX 22 31 2 0
BITMAP
078180
0FC180
1CE380
186300
183F00
001E00
000000
E00038
F00038
F00038
F8003C
FC003C
FC001C
FE001C
EF001C
E7801C
E3C01C
E1C01C
E1E01C
E0F01C
E0781C
E03C1C
E01E1C
E00F1C
E0079C
E003DC
E001FC
E000FC
E0007C
E0003C
C00018
ENDCHAR
STARTCHAR C0210
ENCODING 210
SWIDTH 812 0
DWIDTH 26 0
BBX 22 33 2 0
BITMAP
003800
003C00
003E00
000E00
000F00
000780
000380
000380
000000
007F00
01FFC0
07FFF0
0F80F0
1F0078
1C0038
3C001C
38001C
70001C
70001C
F0001C
E0001C
E0001C
E0003C
E00038
E00038
E00078
F00070
7000F0
7C01E0
3E07C0
1FFF80
07FF00
01FC00
ENDCHAR
STARTCHAR C0211
ENCODING 211
SWIDTH 812 0
DWIDTH 26 0
BBX 22 33 2 0
BITMAP
0001C0
0003C0
000780
000700
000F00
001E00
001C00
000000
000000
007F00
01FFC0
07FFF0
0F80F0
1F0078
1C0038
3C001C
38001C
70001C
70001C
F0001C
E0001C
E0001C
E0003C
E00038
E00038
E00078
F00070
7000F0
7C01E0
3E07C0
1FFF80
07FF00
01FC00
ENDCHAR
STARTCHAR C0212
ENCODING 212
SWIDTH 812 0
DWIDTH 26 0
BBX 22 34 2 0
BITMAP
000E00
001F00
003F80
003BC0
0079E0
00F0F0
01E070
018030
000000
000000
007F00
01FFC0
07FFF0
0F80F0
1F0078
1C0038
3C001C
38001C
70001C
70001C
F0001C
E0001C
E0001C
E0003C
E00038
E00038
E00078
F00070
7000F0
7C01E0
3E07C0
1FFF80
07FF00
01FC00
ENDCHAR
STARTCHAR C0213
ENCODING 213
SWIDTH 812 0
DWIDTH 26 0
BBX 22 31 2 0
BITMAP
00F030
01F830
039C70
030C60
0307E0
0003C0
000000
007F00
01FFC0
07FFF0
0F80F0
1F0078
1C0038
3C001C
38001C
70001C
70001C
F0001C
E0001C
E0001C
E0003C
E00038
E00038
E00078
F00070
7000F0
7C01E0
3E07C0
1FFF80
07FF00
01FC00
ENDCHAR
STARTCHAR C0214
ENCODING 214
SWIDTH 812 0
DWIDTH 26 0
BBX 22 29 2 0
BITMAP
01C380
03C3C0
0383C0
000000
000000
007F00
01FFC0
07FFF0
0F80F0
1F0078
1C0038
3C001C
38001C
70001C
70001C
F0001C
E0001C
E0001C
E0003C
E00038
E00038
E00078
F00070
7000F0
7C01E0
3E07C0
1FFF80
07FF00
01FC00
ENDCHAR
STARTCHAR C0215
ENCODING 215
SWIDTH 468 0
DWIDTH 15 0
BBX 12 11 1 4
BITMAP
E070
F0F0
F9F0
3FC0
1F80
0F80
1FC0
3DE0
78F0
7870
7000
ENDCHAR
STARTCHAR C0216
ENCODING 216
SWIDTH 812 0
DWIDTH 26 0
BBX 24 25 1 -1
BITMAP
003F83
00FFEF
03FFFE
07C0FE
0F803C
0F007C
1E00FE
1C01EE
3C03CE
38078E
380F0E
701E0E
703C0E
70780E
70F01E
71E01C
73C01C
77803C
3F0038
3E0070
3E00F0
7F83E0
7FFFC0
F3FF80
E0FE00
ENDCHAR
STARTCHAR C0217
ENCODING 217
SWIDTH 750 0
DWIDTH 24 0
BBX 19 33 3 0
BITMAP
0E0000
0F0000
0F8000
038000
03C000
01E000
00E000
00E000
000000
600060
E000E0
E000E0
E000E0
E000E0
E000E0
E000E0
E000E0
E000E0
E000E0
E000E0
E000E0
E000E0
E001E0
E001C0
E001C0
F001C0
7003C0
780380
780780
3E0F00
1FFE00
0FFC00
03F800
ENDCHAR
STARTCHAR C0218
ENCODING 218
SWIDTH 750 0
DWIDTH 24 0
BBX 19 33 3 0
BITMAP
001C00
003C00
007800
007000
00F000
01E000
01C000
000000
000000
600060
E000E0
E000E0
E000E0
E000E0
E000E0
E000E0
E000E0
E000E0
E000E0
E000E0
E000E0
E000E0
E001E0
E001C0
E001C0
F001C0
7003C0
780380
780780
3E0F00
1FFE00
0FFC00
03F800
ENDCHAR
STARTCHAR C0219
ENCODING 219
SWIDTH 750 0
DWIDTH 24 0
BBX 19 34 3 0
BITMAP
007000
00F800
01FC00
01DE00
03CF00
078780
0F0380
0C0180
000000
000000
600060
E000E0
E000E0
E000E0
E000E0
E000E0
E000E0
E000E0
E000E0
E000E0
E000E0
E000E0
E000E0
E001E0
E001C0
E001C0
F001C0
7003C0
780380
780780
3E0F00
1FFE00
0FFC00
03F800
ENDCHAR
STARTCHAR C0220
ENCODING 220
SWIDTH 750 0
DWIDTH 24 0
BBX 19 29 3 0
BITMAP
070E00
0F0F00
0E0F00
000000
000000
600060
E000E0
E000E0
E000E0
E000E0
E000E0
E000E0
E000E0
E000E0
E000E0
E000E0
E000E0
E000E0
E001E0
E001C0
E001C0
F001C0
7003C0
780380
780780
3E0F00
1FFE00
0FFC00
03F800
ENDCHAR
STARTCHAR C0221
ENCODING 221
SWIDTH 656 0
DWIDTH 21 0
BBX 19 35 1 -1
BITMAP
000E00
001E00
003C00
003800
007800
00F000
00E000
000000
000000
000000
E000E0
E000E0
F001E0
7801C0
780380
3C0380
1E0700
1E0700
0F0F00
0F0E00
078E00
079E00
03DC00
03FC00
01F800
00F800
007800
007000
00F000
00E000
01E000
01C000
038000
038000
030000
ENDCHAR
STARTCHAR C0222
ENCODING 222
SWIDTH 531 0
DWIDTH 17 0
BBX 14 24 2 0
BITMAP
E000
E000
E000
FF80
FFE0
FFF0
E0F8
E03C
E01C
E01C
E01C
E01C
E03C
E078
E0F8
FFF0
FFC0
FF00
E000
E000
E000
E000
E000
E000
ENDCHAR
STARTCHAR C0223
ENCODING 223
SWIDTH 468 0
DWIDTH 15 0
BBX 13 28 1 -2
BITMAP
0F80
1FC0
3FE0
78E0
7070
7070
F070
E070
E070
E0E0
E1E0
E3C0
E780
E700
E3C0
E1E0
E0F0
E070
E038
E038
E038
E038
EC78
EFF8
EFF0
E3E0
E000
C000
ENDCHAR
STARTCHAR C0224
ENCODING 224
SWIDTH 500 0
DWIDTH 16 0
BBX 15 26 1 0
BITMAP
0E00
0F00
0F80
0380
03C0
01E0
00E0
00E0
0000
0000
03E0
0FF8
1FFC
3C38
7838
7038
E038
E038
E038
E038
E038
F038
787C
7FFC
3FEE
0F86
ENDCHAR
STARTCHAR C0225
ENCODING 225
SWIDTH 500 0
DWIDTH 16 0
BBX 15 26 1 0
BITMAP
0038
0078
00F0
00E0
01E0
03C0
0380
0000
0000
0000
03E0
0FF8
1FFC
3C38
7838
7038
E038
E038
E038
E038
E038
F038
787C
7FFC
3FEE
0F86
ENDCHAR
STARTCHAR C0226
ENCODING 226
SWIDTH 500 0
DWIDTH 16 0
BBX 15 27 1 0
BITMAP
01C0
03E0
07F0
0778
0F3C
1E1E
3C0E
3006
0000
0000
0000
03E0
0FF8
1FFC
3C38
7838
7038
E038
E038
E038
E038
E038
F038
787C
7FFC
3FEE
0F86
ENDCHAR
STARTCHAR C0227
ENCODING 227
SWIDTH 500 0
DWIDTH 16 0
BBX 15 24 1 0
BITMAP
1E06
3F06
738E
618C
60FC
0078
0000
0000
03E0
0FF8
1FFC
3C38
7838
7038
E038
E038
E038
E038
E038
F038
787C
7FFC
3FEE
0F86
ENDCHAR
STARTCHAR C0228
ENCODING 228
SWIDTH 500 0
DWIDTH 16 0
BBX 15 22 1 0
BITMAP
1C38
3C3C
383C
0000
0000
0000
03E0
0FF8
1FFC
3C38
7838
7038
E038
E038
E038
E038
E038
F038
787C
7FFC
3FEE
0F86
ENDCHAR
STARTCHAR C0229
ENCODING 229
SWIDTH 500 0
DWIDTH 16 0
BBX 15 28 1 0
BITMAP
03F0
0FF8
1C1C
180C
180C
1C1C
0FF8
07E0
0000
0000
0000
0000
03E0
0FF8
1FFC
3C38
7838
7038
E038
E038
E038
E038
E038
F038
787C
7FFC
3FEE
0F86
ENDCHAR
STARTCHAR C0230
ENCODING 230
SWIDTH 906 0
DWIDTH 29 0
BBX 27 17 1 -1
BITMAP
03F07C00
0FFDFF00
1FFFFF80
3E0F8380
780F0380
700E0780
F00E3F00
E00EFC00
E00FF000
E00FC000
E00F0000
F00E0060
780F00E0
7C1F83E0
3FFFFFC0
1FFFFF80
07CE7E00
ENDCHAR
STARTCHAR C0231
ENCODING 231
SWIDTH 500 0
DWIDTH 16 0
BBX 14 23 1 -7
BITMAP
03E0
0FF8
1FFC
3C1C
3800
7800
7000
F000
E000
E000
E000
E000
F000
781C
3FFC
1FF8
0FF0
01C0
0060
0060
0C60
0FE0
07C0
ENDCHAR
STARTCHAR C0232
ENCODING 232
SWIDTH 562 0
DWIDTH 18 0
BBX 15 26 1 0
BITMAP
1C00
1E00
1F00
0700
0780
03C0
01C0
01C0
0000
0000
07E0
1FF8
3FFC
3C3C
703C
70F8
E3F0
FFC0
FE00
F000
E006
F00E
7C3E
7FFC
1FF8
0FE0
ENDCHAR
STARTCHAR C0233
ENCODING 233
SWIDTH 562 0
DWIDTH 18 0
BBX 15 26 1 0
BITMAP
001C
003C
0078
0070
00F0
01E0
01C0
0000
0000
0000
07E0
1FF8
3FFC
3C3C
703C
70F8
E3F0
FFC0
FE00
F000
E006
F00E
7C3E
7FFC
1FF8
0FE0
ENDCHAR
STARTCHAR C0234
ENCODING 234
SWIDTH 562 0
DWIDTH 18 0
BBX 15 27 1 0
BITMAP
01C0
03E0
07F0
0778
0F3C
1E1E
3C0E
3006
0000
0000
0000
07E0
1FF8
3FFC
3C3C
703C
70F8
E3F0
FFC0
FE00
F000
E006
F00E
7C3E
7FFC
1FF8
0FE0
ENDCHAR
STARTCHAR C0235
ENCODING 235
SWIDTH 562 0
DWIDTH 18 0
BBX 15 24 1 0
BITMAP
0E1C
1E1E
1C1E
0000
0000
0000
0000
0000
07E0
1FF8
3FFC
3C3C
703C
70F8
E3F0
FFC0
FE00
F000
E006
F00E
7C3E
7FFC
1FF8
0FE0
ENDCHAR
STARTCHAR C0236
ENCODING 236
SWIDTH 281 0
DWIDTH 9 0
BBX 7 26 0 0
BITMAP
E0
F0
F8
38
3C
1E
0E
0E
00
00
1C
1C
1C
1C
1C
1C
1C
1C
1C
1C
1C
1C
1C
1C
1C
1C
ENDCHAR
STARTCHAR C0237
ENCODING 237
SWIDTH 281 0
DWIDTH 9 0
BBX 7 26 1 0
BITMAP
0E
1E
3C
38
78
F0
E0
00
00
00
38
38
38
38
38
38
38
38
38
38
38
38
38
38
38
38
ENDCHAR
STARTCHAR C0238
ENCODING 238
SWIDTH 281 0
DWIDTH 9 0
BBX 13 26 -2 0
BITMAP
0700
0F80
1FC0
1DE0
3CF0
7878
F038
C018
0000
0000
0700
0700
0700
0700
0700
0700
0700
0700
0700
0700
0700
0700
0700
0700
0700
0700
ENDCHAR
STARTCHAR C0239
ENCODING 239
SWIDTH 281 0
DWIDTH 9 0
BBX 12 22 -2 0
BITMAP
70E0
F0F0
E0F0
0000
0000
0000
0700
0700
0700
0700
0700
0700
0700
0700
0700
0700
0700
0700
0700
0700
0700
0700
ENDCHAR
STARTCHAR C0240
ENCODING 240
SWIDTH 500 0
DWIDTH 16 0
BBX 13 24 2 0
BITMAP
3800
3C70
3FF0
0FF0
0FC0
3F80
7BC0
71C0
01E0
00E0
01F0
0FF0
1FF8
3E78
7838
7038
E038
E038
E038
E070
70F0
7FE0
3FC0
0F80
ENDCHAR
STARTCHAR C0241
ENCODING 241
SWIDTH 531 0
DWIDTH 17 0
BBX 14 24 2 0
BITMAP
3C0C
7E0C
E71C
C318
C1F8
00F0
0000
0000
C1E0
E7F0
EFF0
FE38
FC38
F838
F038
F038
E038
E038
E038
E038
E038
E038
E038
6038
ENDCHAR
STARTCHAR C0242
ENCODING 242
SWIDTH 531 0
DWIDTH 17 0
BBX 14 26 1 0
BITMAP
0700
0780
07C0
01C0
01E0
00F0
0070
0070
0000
0000
07C0
1FF0
3FF8
7C78
703C
F01C
E01C
E01C
E01C
E01C
E01C
F038
7878
3FF0
1FE0
0F80
ENDCHAR
STARTCHAR C0243
ENCODING 243
SWIDTH 531 0
DWIDTH 17 0
BBX 14 26 1 0
BITMAP
0038
0078
00F0
00E0
01E0
03C0
0380
0000
0000
0000
07C0
1FF0
3FF8
7C78
703C
F01C
E01C
E01C
E01C
E01C
E01C
F038
7878
3FF0
1FE0
0F80
ENDCHAR
STARTCHAR C0244
ENCODING 244
SWIDTH 531 0
DWIDTH 17 0
BBX 15 27 1 0
BITMAP
01C0
03E0
07F0
0778
0F3C
1E1E
3C0E
3006
0000
0000
0000
07C0
1FF0
3FF8
7C78
703C
F01C
E01C
E01C
E01C
E01C
E01C
F038
7878
3FF0
1FE0
0F80
ENDCHAR
STARTCHAR C0245
ENCODING 245
SWIDTH 531 0
DWIDTH 17 0
BBX 15 24 1 0
BITMAP
1E06
3F06
738E
618C
60FC
0078
0000
0000
07C0
1FF0
3FF8
7C78
703C
F01C
E01C
E01C
E01C
E01C
E01C
F038
7878
3FF0
1FE0
0F80
ENDCHAR
STARTCHAR C0246
ENCODING 246
SWIDTH 531 0
DWIDTH 17 0
BBX 15 22 1 0
BITMAP
0E1C
1E1E
1C1E
0000
0000
0000
07C0
1FF0
3FF8
7C78
703C
F01C
E01C
E01C
E01C
E01C
E01C
F038
7878
3FF0
1FE0
0F80
ENDCHAR
STARTCHAR C0247
ENCODING 247
SWIDTH 500 0
DWIDTH 16 0
BBX 14 16 1 3
BITMAP
0700
0700
0700
0000
0000
0000
0000
FFFC
FFFC
FFFC
0000
0000
0000
0700
0700
0700
ENDCHAR
STARTCHAR C0248
ENCODING 248
SWIDTH 531 0
DWIDTH 17 0
BBX 15 16 1 0
BITMAP
07C6
1FFE
3FFC
3C78
707C
70FC
E1DC
E19C
E31C
E61C
EC1C
F838
7878
7FF0
FFE0
CFC0
ENDCHAR
STARTCHAR C0249
ENCODING 249
SWIDTH 531 0
DWIDTH 17 0
BBX 13 26 2 0
BITMAP
1C00
1E00
1F00
0700
0780
03C0
01C0
01C0
0000
0000
E038
E038
E038
E038
E038
E038
E038
E038
E038
E038
E038
E038
E038
FFF8
7FF8
3FB8
ENDCHAR
STARTCHAR C0250
ENCODING 250
SWIDTH 531 0
DWIDTH 17 0
BBX 13 26 2 0
BITMAP
0070
00F0
01E0
01C0
03C0
0780
0700
0000
0000
0000
E038
E038
E038
E038
E038
E038
E038
E038
E038
E038
E038
E038
E038
FFF8
7FF8
3FB8
ENDCHAR
STARTCHAR C0251
ENCODING 251
SWIDTH 531 0
DWIDTH 17 0
BBX 13 27 2 0
BITMAP
0700
0F80
1FC0
1DE0
3CF0
7878
F038
C018
0000
0000
0000
E038
E038
E038
E038
E038
E038
E038
E038
E038
E038
E038
E038
E038
FFF8
7FF8
3FB8
ENDCHAR
STARTCHAR C0252
ENCODING 252
SWIDTH 531 0
DWIDTH 17 0
BBX 13 23 2 0
BITMAP
3870
7878
7078
0000
0000
0000
0000
E038
E038
E038
E038
E038
E038
E038
E038
E038
E038
E038
E038
E038
FFF8
7FF8
3FB8
ENDCHAR
STARTCHAR C0253
ENCODING 253
SWIDTH 531 0
DWIDTH 17 0
BBX 16 35 0 -9
BITMAP
0070
00F0
01E0
01C0
03C0
0780
0700
0000
0000
0000
E007
E007
F00E
780E
381C
3C1C
1C38
1E38
0E78
0F70
0770
07E0
03E0
03C0
01C0
0380
0380
0700
0700
0E00
0E00
0E00
1C00
1C00
1800
ENDCHAR
STARTCHAR C0254
ENCODING 254
SWIDTH 531 0
DWIDTH 17 0
BBX 13 32 2 -9
BITMAP
6000
E000
E000
E000
E000
E000
E000
E7C0
FFE0
FFF0
F870
F078
E038
E038
E038
E038
E038
E038
E078
E0F0
FFE0
FFE0
FF80
E000
E000
E000
E000
E000
E000
E000
E000
E000
ENDCHAR
STARTCHAR C0255
ENCODING 255
SWIDTH 531 0
DWIDTH 17 0
BBX 16 31 0 -9
BITMAP
1C38
3C3C
383C
0000
0000
0000
E007
E007
F00E
780E
381C
3C1C
1C38
1E38
0E78
0F70
0770
07E0
03E0
03C0
01C0
0380
0380
0700
0700
0E00
0E00
0E00
1C00
1C00
1800
ENDCHAR
ENDFONT

