STARTFONT 2.1
COMMENT 
COMMENT This file has been produced by ttf2bdf written by Subhabrata Biswas
COMMENT 
COMMENT For comments, questions, bug reports, send a mail to
COMMENT                                           subhabrata.biswas@usa.net
COMMENT 
FONT -*-Cooper Black-Medium-R-Normal--24-180-96-96-c-12--fontspecific
SIZE 18 96 96
FONTBOUNDINGBOX 34 27 -4 -6
STARTPROPERTIES 15
FOUNDRY "Misc"
FAMILY_NAME "Cooper Black"
WEIGHT_NAME "Medium"
SLANT "R"
SETWIDTH_NAME "Normal"
PIXEL_SIZE 11
POINT_SIZE 180
RESOLUTION_X 96
RESOLUTION_Y 96
SPACING "C"
CHARSET_ENCODING "fontspecific"
FONT_ASCENT 22
FONT_DESCENT 5
DEFAULT_CHAR 31
COPYRIGHT "You may wish to put your copyright here"
ENDPROPERTIES
CHARS 226
STARTCHAR C0030
ENCODING 30
SWIDTH 250 0
DWIDTH 6 0
BBX 4 16 1 0
BITMAP
F0
90
90
90
90
90
90
90
90
90
90
90
90
90
90
F0
ENDCHAR
STARTCHAR C0031
ENCODING 31
SWIDTH 250 0
DWIDTH 6 0
BBX 4 16 1 0
BITMAP
F0
90
90
90
90
90
90
90
90
90
90
90
90
90
90
F0
ENDCHAR
STARTCHAR C0032- 
ENCODING 32
SWIDTH 250 0
DWIDTH 6 0
BBX 1 1 0 -1
BITMAP
00
ENDCHAR
STARTCHAR C0033-!
ENCODING 33
SWIDTH 291 0
DWIDTH 7 0
BBX 5 16 1 0
BITMAP
70
F8
F8
F8
F8
F8
78
70
70
20
00
70
F8
F8
F8
70
ENDCHAR
STARTCHAR C0034-"
ENCODING 34
SWIDTH 416 0
DWIDTH 10 0
BBX 9 7 1 9
BITMAP
6300
F780
F780
F780
F780
6300
6300
ENDCHAR
STARTCHAR C0035-#
ENCODING 35
SWIDTH 583 0
DWIDTH 14 0
BBX 13 15 1 0
BITMAP
06E0
0EE0
0EE0
3FF8
7FF8
7FF0
1DC0
1DC0
7FF0
7FF0
FFE0
1980
3B80
3B80
3300
ENDCHAR
STARTCHAR C0036-$
ENCODING 36
SWIDTH 583 0
DWIDTH 14 0
BBX 12 18 1 -2
BITMAP
0E00
0E00
0E00
3FE0
7FF0
FFF0
F870
FE00
FFC0
7FE0
3FF0
0FF0
C1F0
FFF0
FFE0
3F80
0E00
0E00
ENDCHAR
STARTCHAR C0037-%
ENCODING 37
SWIDTH 791 0
DWIDTH 19 0
BBX 19 16 0 0
BITMAP
1E0600
7F0600
E78C00
E39800
E39800
F3B000
7F2000
3C6000
00C780
00DFC0
01B9E0
0338E0
0338E0
063CE0
0E1FC0
0C0F00
ENDCHAR
STARTCHAR C0038-&
ENCODING 38
SWIDTH 875 0
DWIDTH 21 0
BBX 21 16 0 0
BITMAP
07C000
0FF1E0
1FF3F8
3E33F8
3E00F8
3E01F0
1F8FE0
3FBFC0
7F7FC0
F863E0
F863E0
FC03E0
7F0FC0
7FFF80
1FFF00
07FC00
ENDCHAR
STARTCHAR C0039-'
ENCODING 39
SWIDTH 208 0
DWIDTH 5 0
BBX 4 7 1 9
BITMAP
60
F0
F0
F0
F0
60
60
ENDCHAR
STARTCHAR C0040-(
ENCODING 40
SWIDTH 500 0
DWIDTH 12 0
BBX 10 20 2 -4
BITMAP
07C0
1FC0
3FC0
7E00
7C00
7C00
F800
F800
F800
F800
F800
F800
F800
F800
7C00
7C00
3E00
1FC0
0FC0
07C0
ENDCHAR
STARTCHAR C0041-)
ENCODING 41
SWIDTH 500 0
DWIDTH 12 0
BBX 10 20 0 -4
BITMAP
F800
FC00
FE00
1F00
0F80
0F80
07C0
07C0
07C0
07C0
07C0
07C0
07C0
07C0
0F80
0F80
1F80
FF00
FE00
F800
ENDCHAR
STARTCHAR C0042-*
ENCODING 42
SWIDTH 583 0
DWIDTH 14 0
BBX 11 10 2 6
BITMAP
0E00
0E00
EEE0
FFE0
FFE0
1F00
1F00
3B80
7BC0
3180
ENDCHAR
STARTCHAR C0043-+
ENCODING 43
SWIDTH 583 0
DWIDTH 14 0
BBX 11 11 2 2
BITMAP
0600
0E00
0E00
0E00
7FE0
FFE0
FFC0
0E00
0E00
0E00
0C00
ENDCHAR
STARTCHAR C0044-,
ENCODING 44
SWIDTH 291 0
DWIDTH 7 0
BBX 5 10 1 -5
BITMAP
70
F0
F8
F8
78
38
38
30
70
60
ENDCHAR
STARTCHAR C0045--
ENCODING 45
SWIDTH 291 0
DWIDTH 7 0
BBX 7 4 0 4
BITMAP
7E
7E
FE
FC
ENDCHAR
STARTCHAR C0046-.
ENCODING 46
SWIDTH 291 0
DWIDTH 7 0
BBX 5 5 1 0
BITMAP
70
F8
F8
F8
70
ENDCHAR
STARTCHAR C0047-/
ENCODING 47
SWIDTH 458 0
DWIDTH 11 0
BBX 11 20 -1 -4
BITMAP
00E0
00E0
01C0
01C0
0380
0380
0380
0700
0700
0E00
0E00
1C00
1C00
1C00
3800
3800
7000
7000
E000
E000
ENDCHAR
STARTCHAR C0048-0
ENCODING 48
SWIDTH 583 0
DWIDTH 14 0
BBX 12 13 1 0
BITMAP
1F00
3FC0
7FE0
FBE0
F9F0
F9F0
F9F0
F9F0
F9F0
7DE0
7FE0
3FC0
0F00
ENDCHAR
STARTCHAR C0049-1
ENCODING 49
SWIDTH 583 0
DWIDTH 14 0
BBX 11 13 1 0
BITMAP
0FC0
3FC0
FF80
FF00
1F00
1F00
1F00
1F00
1F00
1F00
FFE0
FFE0
7FC0
ENDCHAR
STARTCHAR C0050-2
ENCODING 50
SWIDTH 583 0
DWIDTH 14 0
BBX 13 14 0 -1
BITMAP
0FC0
3FE0
7FF0
FFF0
E1F0
01E0
03E0
03C0
0780
1F18
3FF8
7FF8
FFF0
0030
ENDCHAR
STARTCHAR C0051-3
ENCODING 51
SWIDTH 583 0
DWIDTH 14 0
BBX 13 15 0 -2
BITMAP
1F80
7FE0
FFE0
C3E0
0380
07E0
3FF0
3FF8
01F8
00F8
00F8
01F0
FFF0
FFC0
3F00
ENDCHAR
STARTCHAR C0052-4
ENCODING 52
SWIDTH 583 0
DWIDTH 14 0
BBX 13 16 0 -2
BITMAP
0070
00F0
01F0
03F0
07F0
0DF0
19F0
31F0
61F0
61F0
FFF8
FFF8
FFF8
01F0
01F0
01F0
ENDCHAR
STARTCHAR C0053-5
ENCODING 53
SWIDTH 583 0
DWIDTH 14 0
BBX 12 15 1 -2
BITMAP
3FF0
3FF0
7FF0
7FE0
7000
FF00
FFC0
FFE0
1FF0
03F0
01F0
03F0
FFE0
FFC0
7F00
ENDCHAR
STARTCHAR C0054-6
ENCODING 54
SWIDTH 583 0
DWIDTH 14 0
BBX 12 15 1 0
BITMAP
0E00
1F00
3E00
3C00
7FC0
7FE0
FFF0
FBF0
F9F0
F9F0
F9F0
7DE0
7FE0
3FC0
0F80
ENDCHAR
STARTCHAR C0055-7
ENCODING 55
SWIDTH 583 0
DWIDTH 14 0
BBX 12 17 1 -3
BITMAP
6000
FFF0
FFF0
FFF0
FFE0
E0E0
00E0
01C0
01C0
03C0
0780
0780
0F80
0F80
1F00
1F00
0F00
ENDCHAR
STARTCHAR C0056-8
ENCODING 56
SWIDTH 583 0
DWIDTH 14 0
BBX 12 15 1 0
BITMAP
1F80
7FE0
F8F0
F8F0
FCF0
FFE0
7FC0
3FE0
7FF0
F7F0
F3F0
F1F0
79E0
7FE0
1F80
ENDCHAR
STARTCHAR C0057-9
ENCODING 57
SWIDTH 583 0
DWIDTH 14 0
BBX 12 16 1 -3
BITMAP
1F80
3FC0
7FE0
FBF0
F9F0
F9F0
F9F0
FDF0
7FE0
7FE0
3FE0
07C0
0F80
1F00
3E00
1C00
ENDCHAR
STARTCHAR C0058-:
ENCODING 58
SWIDTH 291 0
DWIDTH 7 0
BBX 5 11 1 0
BITMAP
70
F8
F8
F8
70
00
70
F8
F8
F8
70
ENDCHAR
STARTCHAR C0059-;
ENCODING 59
SWIDTH 291 0
DWIDTH 7 0
BBX 5 16 1 -5
BITMAP
70
F8
F8
F8
70
00
70
F0
F8
F8
78
38
38
30
70
60
ENDCHAR
STARTCHAR C0060-<
ENCODING 60
SWIDTH 500 0
DWIDTH 12 0
BBX 10 17 1 0
BITMAP
0040
00C0
03C0
0FC0
1FC0
7FC0
FF80
FE00
FC00
FE00
FF80
7FC0
1FC0
0FC0
03C0
00C0
0040
ENDCHAR
STARTCHAR C0061-=
ENCODING 61
SWIDTH 583 0
DWIDTH 14 0
BBX 12 7 1 4
BITMAP
7FF0
FFF0
FFE0
0000
7FF0
FFF0
FFE0
ENDCHAR
STARTCHAR C0062->
ENCODING 62
SWIDTH 500 0
DWIDTH 12 0
BBX 10 17 1 0
BITMAP
8000
C000
F000
FC00
FE00
FF80
7FC0
1FC0
0FC0
1FC0
7FC0
FF80
FE00
FC00
F000
C000
8000
ENDCHAR
STARTCHAR C0063-?
ENCODING 63
SWIDTH 500 0
DWIDTH 12 0
BBX 12 16 0 0
BITMAP
1F80
7FC0
7FE0
F1F0
F1F0
E3F0
07E0
0F80
0E00
0E00
0000
0E00
1F00
1F00
1F00
0E00
ENDCHAR
STARTCHAR C0064-@
ENCODING 64
SWIDTH 791 0
DWIDTH 19 0
BBX 17 16 1 0
BITMAP
01F800
07FE00
1E0700
380300
31FD80
63FD80
67BD80
CF3980
CE7900
CEFB00
CFFE00
C73C00
E00000
701800
3FF800
0FE000
ENDCHAR
STARTCHAR C0065-A
ENCODING 65
SWIDTH 833 0
DWIDTH 20 0
BBX 20 16 0 0
BITMAP
01E000
03F000
03F800
03F800
03FC00
03FE00
073E00
073F00
0E1F00
0FFF80
1FFF80
1FFFC0
3807C0
FE1FF0
FE1FF0
FC0FE0
ENDCHAR
STARTCHAR C0066-B
ENCODING 66
SWIDTH 708 0
DWIDTH 17 0
BBX 15 16 1 0
BITMAP
FFF0
FFF8
FFFC
7C7C
7C7C
7C7C
7FF8
7FF8
7FFC
7C7E
7C3E
7C3E
7C7E
FFFC
FFFC
FFF0
ENDCHAR
STARTCHAR C0067-C
ENCODING 67
SWIDTH 708 0
DWIDTH 17 0
BBX 15 16 1 0
BITMAP
07E0
1FFC
3FFE
7C7E
781E
F81E
F80C
F800
F800
FC00
FE06
7F0E
7FFE
3FFC
1FF8
07E0
ENDCHAR
STARTCHAR C0068-D
ENCODING 68
SWIDTH 791 0
DWIDTH 19 0
BBX 17 16 1 0
BITMAP
FFF000
FFFC00
FFFE00
7C3F00
7C1F00
7C0F80
7C0F80
7C0F80
7C0F80
7C0F80
7C0F80
7C1F00
7C3F00
FFFE00
FFFC00
FFF000
ENDCHAR
STARTCHAR C0069-E
ENCODING 69
SWIDTH 708 0
DWIDTH 17 0
BBX 16 16 1 0
BITMAP
FFFC
FFFE
FFFE
7C0E
7C66
7C70
7FF0
7FF0
7FF0
7C70
7C63
7C07
7C0F
FFFF
FFFE
FFFE
ENDCHAR
STARTCHAR C0070-F
ENCODING 70
SWIDTH 666 0
DWIDTH 16 0
BBX 14 16 1 0
BITMAP
FFF8
FFFC
FFFC
7C1C
7CCC
7CE0
7FE0
7FE0
7FE0
7CE0
7CE0
7CC0
7C00
FE00
FE00
FE00
ENDCHAR
STARTCHAR C0071-G
ENCODING 71
SWIDTH 791 0
DWIDTH 19 0
BBX 18 16 1 0
BITMAP
03FE00
0FFE00
3FFF00
7E3F00
7C0F00
F80600
F80000
F80000
F83F80
F8FFC0
FC7FC0
7E1F00
3F1F00
3FFE00
0FFC00
03F000
ENDCHAR
STARTCHAR C0072-H
ENCODING 72
SWIDTH 791 0
DWIDTH 19 0
BBX 17 16 1 0
BITMAP
7C1F00
FE3F80
FE3F80
7C1F00
7C1F00
7C1F00
7FFF00
7FFF00
7FFF00
7C1F00
7C1F00
7C1F00
7C1F00
FE3F80
FE3F80
7C1F00
ENDCHAR
STARTCHAR C0073-I
ENCODING 73
SWIDTH 375 0
DWIDTH 9 0
BBX 7 16 1 0
BITMAP
7C
FE
FE
7C
7C
7C
7C
7C
7C
7C
7C
7C
7C
FE
FE
7C
ENDCHAR
STARTCHAR C0074-J
ENCODING 74
SWIDTH 625 0
DWIDTH 15 0
BBX 14 16 0 0
BITMAP
00F8
01FC
01FC
00F8
00F8
00F8
00F8
00F8
00F8
70F8
F8F8
F8F8
F9F8
7FF0
7FE0
1F80
ENDCHAR
STARTCHAR C0075-K
ENCODING 75
SWIDTH 833 0
DWIDTH 20 0
BBX 19 16 1 0
BITMAP
7C3F00
FE7F80
FE7F80
7C3C00
7CF800
7DE000
7FC000
7FC000
7FE000
7FF000
7FF800
7CFC00
7C7E00
FE3FC0
FE3FE0
FC1FE0
ENDCHAR
STARTCHAR C0076-L
ENCODING 76
SWIDTH 625 0
DWIDTH 15 0
BBX 14 16 1 0
BITMAP
7E00
FE00
FE00
7C00
7C00
7C00
7C00
7C00
7C00
7C00
7C18
7C1C
7C3C
FFFC
FFF8
FFF8
ENDCHAR
STARTCHAR C0077-M
ENCODING 77
SWIDTH 875 0
DWIDTH 21 0
BBX 19 16 1 0
BITMAP
7C03C0
FE07E0
FE0FE0
7F0FC0
7F1FC0
7F9FC0
7FFFC0
7FFFC0
77FFC0
77F7C0
73E7C0
73E7C0
71C7C0
F98FE0
F88FE0
F807C0
ENDCHAR
STARTCHAR C0078-N
ENCODING 78
SWIDTH 833 0
DWIDTH 20 0
BBX 16 16 2 0
BITMAP
F81F
FC1F
FE1F
7E0E
7F0E
7F8E
7FCE
7FFE
73FE
71FE
70FE
707E
703E
F81E
F80E
F806
ENDCHAR
STARTCHAR C0079-O
ENCODING 79
SWIDTH 791 0
DWIDTH 19 0
BBX 17 16 1 0
BITMAP
07F000
1FFC00
3FFE00
7C7E00
783F00
F81F00
F81F80
F81F80
FC0F80
FC0F80
FC0F80
7E0F00
7F1F00
3FFE00
1FFC00
07E000
ENDCHAR
STARTCHAR C0080-P
ENCODING 80
SWIDTH 666 0
DWIDTH 16 0
BBX 14 16 1 0
BITMAP
FFE0
FFF8
FFF8
7CFC
7C7C
7C7C
7CFC
7FF8
7FF0
7FE0
7C00
7C00
7C00
FE00
FE00
7C00
ENDCHAR
STARTCHAR C0081-Q
ENCODING 81
SWIDTH 791 0
DWIDTH 19 0
BBX 17 20 1 -4
BITMAP
03E000
0FF800
3FFE00
7C7E00
783F00
F81F00
F81F80
F81F80
FC0F80
FC0F80
FC0F80
7E0F00
7F1F00
3FFE00
1FFC00
7FF000
FFF000
0FFF80
03FF80
007E00
ENDCHAR
STARTCHAR C0082-R
ENCODING 82
SWIDTH 791 0
DWIDTH 19 0
BBX 17 16 1 0
BITMAP
FFF000
FFF800
FFFC00
7C7C00
7C7C00
7C7C00
7FF800
7FF000
7FF000
7CF800
7CFC00
7C7C00
7C7C00
FE7F80
FE3F80
7C1F00
ENDCHAR
STARTCHAR C0083-S
ENCODING 83
SWIDTH 625 0
DWIDTH 15 0
BBX 13 16 1 0
BITMAP
1FA0
3FF0
7FF8
F8F8
F878
FE38
FFC0
7FF0
3FF0
DFF8
C3F8
E0F8
F0F8
7FF0
7FE0
1F80
ENDCHAR
STARTCHAR C0084-T
ENCODING 84
SWIDTH 708 0
DWIDTH 17 0
BBX 17 16 0 0
BITMAP
3FFE00
7FFF00
FFFF80
F3E780
F3E780
E3E380
03E000
03E000
03E000
03E000
03E000
03E000
03E000
07F000
07F000
03E000
ENDCHAR
STARTCHAR C0085-U
ENCODING 85
SWIDTH 833 0
DWIDTH 20 0
BBX 18 16 1 0
BITMAP
7E07C0
FE07C0
FE07C0
7C0380
7C0380
7C0380
7C0380
7C0380
7C0380
7C0380
7C0380
7E0380
7F0F80
3FFF00
1FFE00
07F800
ENDCHAR
STARTCHAR C0086-V
ENCODING 86
SWIDTH 791 0
DWIDTH 19 0
BBX 19 16 0 0
BITMAP
7E07E0
FF0FE0
FF0FE0
3E0780
3F0700
1F0F00
1F8E00
0F9E00
0FFC00
07FC00
07F800
03F000
03F000
03E000
01E000
00C000
ENDCHAR
STARTCHAR C0087-W
ENCODING 87
SWIDTH 1041 0
DWIDTH 25 0
BBX 25 16 0 0
BITMAP
7E3F8F80
FF7FDF80
7F7F9F00
3E3F0700
3F1F0E00
1F1F8E00
1F3F9E00
1FFFFC00
0FFFFC00
0FF7FC00
0FF3F800
07E3F800
07E3F000
03E1F000
03C1F000
01C0E000
ENDCHAR
STARTCHAR C0088-X
ENCODING 88
SWIDTH 791 0
DWIDTH 19 0
BBX 19 16 0 0
BITMAP
3F87C0
7FCFC0
7FCFC0
1FCE00
0FDC00
07F800
03F000
01F800
01FC00
03FE00
067E00
0E3F00
1C3F80
FE3FE0
FE3FE0
7C1FC0
ENDCHAR
STARTCHAR C0089-Y
ENCODING 89
SWIDTH 791 0
DWIDTH 19 0
BBX 19 16 0 0
BITMAP
7F87E0
FFCFE0
FFCFE0
3F8700
1FCE00
07FC00
03F800
03F000
01F000
01F000
01F000
01F000
01F000
03F800
03F800
01F000
ENDCHAR
STARTCHAR C0090-Z
ENCODING 90
SWIDTH 666 0
DWIDTH 16 0
BBX 15 16 1 0
BITMAP
7FFC
7FFC
FFF8
F3F8
E3F0
67F0
07E0
0FC0
0FC0
1F80
3F8E
3F0E
7F1E
7FFE
FFFC
FFFC
ENDCHAR
STARTCHAR C0091-[
ENCODING 91
SWIDTH 500 0
DWIDTH 12 0
BBX 8 20 3 -4
BITMAP
7F
FF
F8
F8
F8
F8
F8
F8
F8
F8
F8
F8
F8
F8
F8
F8
F8
F8
FF
7F
ENDCHAR
STARTCHAR C0092-\
ENCODING 92
SWIDTH 458 0
DWIDTH 11 0
BBX 11 20 1 -4
BITMAP
E000
E000
7000
7000
3800
3800
1800
1C00
1C00
0E00
0E00
0700
0700
0300
0380
0380
01C0
01C0
00E0
00E0
ENDCHAR
STARTCHAR C0093-]
ENCODING 93
SWIDTH 500 0
DWIDTH 12 0
BBX 8 20 1 -4
BITMAP
FE
FF
1F
1F
1F
1F
1F
1F
1F
1F
1F
1F
1F
1F
1F
1F
1F
1F
FF
FE
ENDCHAR
STARTCHAR C0094-^
ENCODING 94
SWIDTH 500 0
DWIDTH 12 0
BBX 12 8 0 8
BITMAP
1F80
1F80
3FC0
3FC0
7FE0
79E0
79E0
F9F0
ENDCHAR
STARTCHAR C0095-_
ENCODING 95
SWIDTH 500 0
DWIDTH 12 0
BBX 12 3 0 -4
BITMAP
FFF0
FFF0
FFF0
ENDCHAR
STARTCHAR C0096-`
ENCODING 96
SWIDTH 500 0
DWIDTH 12 0
BBX 6 4 2 13
BITMAP
78
F8
7C
3C
ENDCHAR
STARTCHAR C0097-a
ENCODING 97
SWIDTH 583 0
DWIDTH 14 0
BBX 12 12 1 0
BITMAP
0F80
3FC0
73E0
63E0
03E0
3FE0
7FE0
F3E0
F3E0
FFF0
7FF0
39E0
ENDCHAR
STARTCHAR C0098-b
ENCODING 98
SWIDTH 625 0
DWIDTH 15 0
BBX 13 16 1 0
BITMAP
1C00
7C00
FC00
FC00
7DE0
7FF0
7FF8
7DF8
7CF8
7CF8
7CF8
7CF8
7CF0
7CF0
7FE0
0F80
ENDCHAR
STARTCHAR C0099-c
ENCODING 99
SWIDTH 541 0
DWIDTH 13 0
BBX 11 12 1 0
BITMAP
0F80
3FC0
7FE0
79E0
F9E0
F8C0
F800
FC60
FFE0
7FE0
3FC0
0F00
ENDCHAR
STARTCHAR C0100-d
ENCODING 100
SWIDTH 666 0
DWIDTH 16 0
BBX 14 16 1 0
BITMAP
0038
00F8
01F8
00F8
1EF8
3FF8
7FF8
7CF8
F8F8
F8F8
F8F8
F8F8
7CF8
7FF8
3FFC
1EF8
ENDCHAR
STARTCHAR C0101-e
ENCODING 101
SWIDTH 541 0
DWIDTH 13 0
BBX 11 12 1 0
BITMAP
1F00
3FC0
79C0
79E0
FFE0
FFE0
F800
F800
FC60
7FE0
3FC0
1F80
ENDCHAR
STARTCHAR C0102-f
ENCODING 102
SWIDTH 416 0
DWIDTH 10 0
BBX 10 16 0 0
BITMAP
1F00
3F80
7FC0
7BC0
79C0
3E00
FF80
FF80
FF80
3E00
3E00
3E00
3E00
FF80
FF80
7F00
ENDCHAR
STARTCHAR C0103-g
ENCODING 103
SWIDTH 583 0
DWIDTH 14 0
BBX 13 17 1 -4
BITMAP
0008
1FF8
79F8
F9F0
F9F0
F9F0
79E0
3F80
F000
F000
FFF0
7FF8
7FF8
E0F8
F0F0
7FE0
3F80
ENDCHAR
STARTCHAR C0104-h
ENCODING 104
SWIDTH 666 0
DWIDTH 16 0
BBX 14 16 1 0
BITMAP
1C00
FC00
FC00
7C00
7CE0
7DF0
7FF8
7CF8
7CF8
7CF8
7CF8
7CF8
7CF8
FEFC
FEFC
7CF8
ENDCHAR
STARTCHAR C0105-i
ENCODING 105
SWIDTH 375 0
DWIDTH 9 0
BBX 7 16 1 0
BITMAP
3C
7C
78
00
1C
7C
FC
7C
7C
7C
7C
7C
7C
FE
FE
FC
ENDCHAR
STARTCHAR C0106-j
ENCODING 106
SWIDTH 375 0
DWIDTH 9 0
BBX 7 20 0 -4
BITMAP
1E
3E
3C
00
0E
7E
7E
3E
3E
3E
3E
3E
3E
3E
3E
3E
3E
3E
FC
78
ENDCHAR
STARTCHAR C0107-k
ENCODING 107
SWIDTH 750 0
DWIDTH 18 0
BBX 17 16 1 0
BITMAP
1C0000
7C0000
FC0000
7C0000
7C7C00
7CFE00
7CFE00
7DF000
7FE000
7FE000
7FF000
7FF800
7CFE00
FE7F80
FE3F80
FC1F80
ENDCHAR
STARTCHAR C0108-l
ENCODING 108
SWIDTH 375 0
DWIDTH 9 0
BBX 7 16 1 0
BITMAP
1C
FC
FC
FC
7C
7C
7C
7C
7C
7C
7C
7C
7C
FE
FE
7E
ENDCHAR
STARTCHAR C0109-m
ENCODING 109
SWIDTH 958 0
DWIDTH 23 0
BBX 21 12 1 0
BITMAP
1CF1E0
7DFFF0
FFFFF0
7CF9F0
7CF9F0
7CF9F0
7CF9F0
7CF9F0
7CF9F0
FEFDF8
FEFDF8
7CF8F0
ENDCHAR
STARTCHAR C0110-n
ENCODING 110
SWIDTH 666 0
DWIDTH 16 0
BBX 14 12 1 0
BITMAP
1CE0
7DF0
FFF8
7CF8
7CF8
7CF8
7CF8
7CF8
7CF8
FEFC
FEFC
7CFC
ENDCHAR
STARTCHAR C0111-o
ENCODING 111
SWIDTH 583 0
DWIDTH 14 0
BBX 12 12 1 0
BITMAP
0F80
3FC0
7FE0
7BF0
F9F0
F9F0
F9F0
F9F0
FDE0
7FE0
3FC0
1F00
ENDCHAR
STARTCHAR C0112-p
ENCODING 112
SWIDTH 666 0
DWIDTH 16 0
BBX 14 16 1 -4
BITMAP
1DE0
7FF8
FFF8
FCFC
7C7C
7C7C
7C7C
7C7C
7CF8
7FF8
7FF0
7DE0
FC00
FE00
FE00
3C00
ENDCHAR
STARTCHAR C0113-q
ENCODING 113
SWIDTH 666 0
DWIDTH 16 0
BBX 14 16 1 -4
BITMAP
0FB8
3FF8
7FF8
FCF8
F8F8
F8F8
F8F8
F8F8
FCF8
7FF8
3FF8
1EF8
00F8
01FC
01FC
0078
ENDCHAR
STARTCHAR C0114-r
ENCODING 114
SWIDTH 541 0
DWIDTH 13 0
BBX 12 12 1 0
BITMAP
1CE0
FDF0
FFF0
7FF0
7CE0
7C00
7C00
7C00
7C00
FF00
FF00
7E00
ENDCHAR
STARTCHAR C0115-s
ENCODING 115
SWIDTH 458 0
DWIDTH 11 0
BBX 9 12 1 0
BITMAP
3F00
7F80
FB80
F980
FE00
FF00
7F80
BF80
CF80
EF80
FF00
7E00
ENDCHAR
STARTCHAR C0116-t
ENCODING 116
SWIDTH 458 0
DWIDTH 11 0
BBX 11 15 0 0
BITMAP
0600
1E00
3E00
7FC0
FFC0
FFC0
3E00
3E00
3E00
3E00
3E00
3E60
3FE0
1FC0
0F80
ENDCHAR
STARTCHAR C0117-u
ENCODING 117
SWIDTH 666 0
DWIDTH 16 0
BBX 14 12 1 0
BITMAP
7CF8
FDF8
7CF8
7CF8
7CF8
7CF8
7CF8
7CF8
7CF8
7FF8
3FFC
1CF8
ENDCHAR
STARTCHAR C0118-v
ENCODING 118
SWIDTH 625 0
DWIDTH 15 0
BBX 15 12 0 0
BITMAP
7E3E
FF3E
FF3C
3E18
3F30
1FF0
1FE0
0FE0
07C0
07C0
0380
0300
ENDCHAR
STARTCHAR C0119-w
ENCODING 119
SWIDTH 1000 0
DWIDTH 24 0
BBX 24 12 0 0
BITMAP
7E3F3E
FF7FBF
FF7F1E
3F3F0C
3F1F98
1FBFF8
0FFFF0
0FE7F0
07E7E0
03C3E0
03C1C0
018180
ENDCHAR
STARTCHAR C0120-x
ENCODING 120
SWIDTH 583 0
DWIDTH 14 0
BBX 14 12 0 0
BITMAP
7F3C
FFBC
FFB8
3FB0
1FE0
0FC0
1FE0
1FF0
33F8
F3FC
F7FC
F7F8
ENDCHAR
STARTCHAR C0121-y
ENCODING 121
SWIDTH 625 0
DWIDTH 15 0
BBX 15 16 0 -4
BITMAP
7E3E
FF7E
FF3C
7E38
3F30
1F70
1FE0
0FE0
0FE0
07C0
07C0
7380
F380
FF00
FE00
3C00
ENDCHAR
STARTCHAR C0122-z
ENCODING 122
SWIDTH 500 0
DWIDTH 12 0
BBX 10 12 1 0
BITMAP
7F80
FF80
FF80
9F00
BF00
3F00
3E00
7E40
7CC0
FFC0
FFC0
FF80
ENDCHAR
STARTCHAR C0123-{
ENCODING 123
SWIDTH 500 0
DWIDTH 12 0
BBX 10 20 1 -4
BITMAP
1FC0
3FC0
3E00
3E00
3E00
3E00
3E00
3E00
3E00
FC00
FC00
3E00
3E00
3E00
3E00
3E00
3E00
3E00
3FC0
1FC0
ENDCHAR
STARTCHAR C0124-|
ENCODING 124
SWIDTH 500 0
DWIDTH 12 0
BBX 5 20 3 -4
BITMAP
F8
F8
F8
F8
F8
F8
F8
F8
F8
F8
F8
F8
F8
F8
F8
F8
F8
F8
F8
F8
ENDCHAR
STARTCHAR C0125-}
ENCODING 125
SWIDTH 500 0
DWIDTH 12 0
BBX 10 20 1 -4
BITMAP
FE00
FF00
1F00
1F00
1F00
1F00
1F00
1F00
1F00
0FC0
0FC0
1F00
1F00
1F00
1F00
1F00
1F00
1F00
FF00
FE00
ENDCHAR
STARTCHAR C0126-~
ENCODING 126
SWIDTH 666 0
DWIDTH 16 0
BBX 12 6 2 5
BITMAP
3C40
7FE0
7FF0
FFE0
7FE0
23C0
ENDCHAR
STARTCHAR C0127
ENCODING 127
SWIDTH 250 0
DWIDTH 6 0
BBX 4 16 1 0
BITMAP
F0
90
90
90
90
90
90
90
90
90
90
90
90
90
90
F0
ENDCHAR
STARTCHAR C0128
ENCODING 128
SWIDTH 583 0
DWIDTH 14 0
BBX 14 14 0 0
BITMAP
03C8
0FFC
1FFC
1F1C
3E00
FFE0
FFE0
3E00
FFE0
FFE0
1F04
1FFC
0FF8
03F0
ENDCHAR
STARTCHAR C0129
ENCODING 129
SWIDTH 250 0
DWIDTH 6 0
BBX 4 16 1 0
BITMAP
F0
90
90
90
90
90
90
90
90
90
90
90
90
90
90
F0
ENDCHAR
STARTCHAR C0130
ENCODING 130
SWIDTH 291 0
DWIDTH 7 0
BBX 5 10 1 -5
BITMAP
70
F0
F8
F8
78
38
38
30
70
60
ENDCHAR
STARTCHAR C0131
ENCODING 131
SWIDTH 583 0
DWIDTH 14 0
BBX 14 19 -1 -4
BITMAP
00F8
01FC
03DC
03DC
03C0
0FF0
0FE0
0780
0780
0780
0780
0780
0780
0780
0780
EF00
EF00
FE00
7C00
ENDCHAR
STARTCHAR C0132
ENCODING 132
SWIDTH 541 0
DWIDTH 13 0
BBX 11 10 1 -5
BITMAP
71C0
FBE0
FBE0
FBE0
79E0
38E0
30C0
71C0
E380
C300
ENDCHAR
STARTCHAR C0133
ENCODING 133
SWIDTH 916 0
DWIDTH 22 0
BBX 19 5 1 0
BITMAP
70E1C0
F9F3E0
F9F3E0
F9F3E0
70E1C0
ENDCHAR
STARTCHAR C0134
ENCODING 134
SWIDTH 708 0
DWIDTH 17 0
BBX 17 20 0 -4
BITMAP
03E000
07F000
07F000
03E000
03E000
63E300
FFFF80
FFFF80
FFFF80
FFFF80
63E300
03E000
03E000
03E000
03E000
03E000
03E000
07F000
07F000
03E000
ENDCHAR
STARTCHAR C0135
ENCODING 135
SWIDTH 708 0
DWIDTH 17 0
BBX 17 20 0 -4
BITMAP
03E000
07F000
07F000
03E000
63E300
FFFF80
FFFF80
FFFF80
63E300
03E000
63E380
FFFF80
FFFF80
FFFF80
63E300
03E000
03E000
07F000
07F000
03E000
ENDCHAR
STARTCHAR C0136
ENCODING 136
SWIDTH 500 0
DWIDTH 12 0
BBX 8 4 2 13
BITMAP
18
7E
FF
C3
ENDCHAR
STARTCHAR C0137
ENCODING 137
SWIDTH 1250 0
DWIDTH 30 0
BBX 30 16 0 0
BITMAP
1E030000
7F070000
E7860000
E38C0000
E3880000
F3980000
7F300000
3C600000
0063C0F0
00CFE3F8
019CF73C
019C771C
031C771C
061E779C
060FE3F8
0C0781E0
ENDCHAR
STARTCHAR C0138
ENCODING 138
SWIDTH 625 0
DWIDTH 15 0
BBX 13 21 1 0
BITMAP
1860
1FE0
0FC0
0300
0000
1FA0
3FF0
7FF8
F8F8
F878
FE38
FFC0
7FF0
3FF0
DFF8
C3F8
E0F8
F0F8
7FF0
7FE0
1F80
ENDCHAR
STARTCHAR C0139
ENCODING 139
SWIDTH 291 0
DWIDTH 7 0
BBX 6 10 1 2
BITMAP
0C
1C
38
78
F0
F0
78
38
1C
0C
ENDCHAR
STARTCHAR C0140
ENCODING 140
SWIDTH 1083 0
DWIDTH 26 0
BBX 25 16 1 0
BITMAP
07FFFF00
1FFFFF80
3FFFFF80
7CFF0780
787F3380
F83F3800
F83FF800
F81FF800
F81FF800
FC1F3800
FC1F3180
7E1F0380
7F3F0780
3FFFFF80
1FFFFF00
07FFFE00
ENDCHAR
STARTCHAR C0141
ENCODING 141
SWIDTH 250 0
DWIDTH 6 0
BBX 4 16 1 0
BITMAP
F0
90
90
90
90
90
90
90
90
90
90
90
90
90
90
F0
ENDCHAR
STARTCHAR C0142
ENCODING 142
SWIDTH 250 0
DWIDTH 6 0
BBX 4 16 1 0
BITMAP
F0
90
90
90
90
90
90
90
90
90
90
90
90
90
90
F0
ENDCHAR
STARTCHAR C0143
ENCODING 143
SWIDTH 250 0
DWIDTH 6 0
BBX 4 16 1 0
BITMAP
F0
90
90
90
90
90
90
90
90
90
90
90
90
90
90
F0
ENDCHAR
STARTCHAR C0144
ENCODING 144
SWIDTH 250 0
DWIDTH 6 0
BBX 4 16 1 0
BITMAP
F0
90
90
90
90
90
90
90
90
90
90
90
90
90
90
F0
ENDCHAR
STARTCHAR C0145
ENCODING 145
SWIDTH 291 0
DWIDTH 7 0
BBX 5 10 1 6
BITMAP
18
38
70
60
E0
F0
F8
F8
F8
70
ENDCHAR
STARTCHAR C0146
ENCODING 146
SWIDTH 291 0
DWIDTH 7 0
BBX 5 10 1 6
BITMAP
70
F8
F8
F8
78
38
30
70
E0
C0
ENDCHAR
STARTCHAR C0147
ENCODING 147
SWIDTH 541 0
DWIDTH 13 0
BBX 11 10 1 6
BITMAP
1860
38E0
71C0
6180
E380
F3C0
FBE0
FBE0
FBE0
71C0
ENDCHAR
STARTCHAR C0148
ENCODING 148
SWIDTH 541 0
DWIDTH 13 0
BBX 11 10 1 6
BITMAP
71C0
FBE0
FBE0
FBE0
79E0
38E0
30C0
71C0
E380
C300
ENDCHAR
STARTCHAR C0149
ENCODING 149
SWIDTH 666 0
DWIDTH 16 0
BBX 7 7 5 4
BITMAP
38
7C
FE
FE
FE
7C
38
ENDCHAR
STARTCHAR C0150
ENCODING 150
SWIDTH 583 0
DWIDTH 14 0
BBX 12 4 1 4
BITMAP
7FF0
7FF0
FFF0
FFE0
ENDCHAR
STARTCHAR C0151
ENCODING 151
SWIDTH 875 0
DWIDTH 21 0
BBX 21 4 0 4
BITMAP
7FFFF8
7FFFF8
FFFFF8
FFFFF0
ENDCHAR
STARTCHAR C0152
ENCODING 152
SWIDTH 500 0
DWIDTH 12 0
BBX 10 4 1 13
BITMAP
71C0
FDC0
EFC0
E380
ENDCHAR
STARTCHAR C0153
ENCODING 153
SWIDTH 958 0
DWIDTH 23 0
BBX 23 10 0 6
BITMAP
7F1E1E
FF9F1E
DD8F3C
1C0FBC
1C0FFC
1C0DDC
1C0DDC
1C0C9C
3E1EBE
3E1EBE
ENDCHAR
STARTCHAR C0154
ENCODING 154
SWIDTH 458 0
DWIDTH 11 0
BBX 9 17 1 0
BITMAP
6180
7F80
3F00
0C00
0000
3F00
7F80
FB80
F980
FE00
FF00
7F80
BF80
CF80
EF80
FF00
7E00
ENDCHAR
STARTCHAR C0155
ENCODING 155
SWIDTH 291 0
DWIDTH 7 0
BBX 6 10 1 2
BITMAP
C0
E0
70
78
3C
3C
78
70
E0
C0
ENDCHAR
STARTCHAR C0156
ENCODING 156
SWIDTH 875 0
DWIDTH 21 0
BBX 19 12 1 0
BITMAP
0FCF00
3FFFC0
7FF9E0
79F9E0
F9FFE0
F8FFE0
F8F800
FCF800
FCFC60
7FFFE0
3FFFC0
1F9F80
ENDCHAR
STARTCHAR C0157
ENCODING 157
SWIDTH 250 0
DWIDTH 6 0
BBX 4 16 1 0
BITMAP
F0
90
90
90
90
90
90
90
90
90
90
90
90
90
90
F0
ENDCHAR
STARTCHAR C0158
ENCODING 158
SWIDTH 250 0
DWIDTH 6 0
BBX 4 16 1 0
BITMAP
F0
90
90
90
90
90
90
90
90
90
90
90
90
90
90
F0
ENDCHAR
STARTCHAR C0159
ENCODING 159
SWIDTH 791 0
DWIDTH 19 0
BBX 19 21 0 0
BITMAP
079E00
0FBE00
0FBE00
0F3C00
000000
7F87E0
FFCFE0
FFCFE0
3F8700
1FCE00
07FC00
03F800
03F000
01F000
01F000
01F000
01F000
01F000
03F800
03F800
01F000
ENDCHAR
STARTCHAR C0160
ENCODING 160
SWIDTH 250 0
DWIDTH 6 0
BBX 1 1 0 -1
BITMAP
00
ENDCHAR
STARTCHAR C0161
ENCODING 161
SWIDTH 291 0
DWIDTH 7 0
BBX 5 16 1 -4
BITMAP
70
F8
F8
F8
70
00
20
70
70
F8
F8
F8
F8
F8
F8
70
ENDCHAR
STARTCHAR C0162
ENCODING 162
SWIDTH 583 0
DWIDTH 14 0
BBX 10 14 2 0
BITMAP
0C00
0C00
1F00
7F80
7FC0
F9C0
F980
F800
FC40
7FC0
7F80
3F00
0C00
0C00
ENDCHAR
STARTCHAR C0163
ENCODING 163
SWIDTH 583 0
DWIDTH 14 0
BBX 14 15 0 0
BITMAP
07E0
1FF0
3E78
3E78
3E70
3E00
7FC0
7FC0
0F00
0F0C
7F1C
FFFC
FFF8
FFF8
78F0
ENDCHAR
STARTCHAR C0164
ENCODING 164
SWIDTH 583 0
DWIDTH 14 0
BBX 12 13 1 0
BITMAP
6060
FFF0
7FE0
71E0
F1F0
F0F0
F0F0
F8F0
F8F0
78E0
7FE0
FF70
6060
ENDCHAR
STARTCHAR C0165
ENCODING 165
SWIDTH 583 0
DWIDTH 14 0
BBX 14 15 0 0
BITMAP
FEFC
FEFC
3C70
1FE0
7FF8
7FF8
0F80
0F80
7FF8
7FF8
0F80
0F80
1FC0
1FC0
0F80
ENDCHAR
STARTCHAR C0166
ENCODING 166
SWIDTH 500 0
DWIDTH 12 0
BBX 5 20 3 -4
BITMAP
F8
F8
F8
F8
F8
F8
F8
F8
F8
00
00
00
F8
F8
F8
F8
F8
F8
F8
F8
ENDCHAR
STARTCHAR C0167
ENCODING 167
SWIDTH 708 0
DWIDTH 17 0
BBX 13 20 2 -4
BITMAP
1FC0
7FF0
FFF8
F870
FF80
FFE0
7FF8
3FF8
7FF8
F8F8
FFF0
FFF0
7FF0
3FF8
0FF8
F0F8
F8F8
FFF0
7FE0
1FC0
ENDCHAR
STARTCHAR C0168
ENCODING 168
SWIDTH 500 0
DWIDTH 12 0
BBX 11 4 1 13
BITMAP
79E0
FBE0
FBE0
71C0
ENDCHAR
STARTCHAR C0169
ENCODING 169
SWIDTH 791 0
DWIDTH 19 0
BBX 17 16 1 0
BITMAP
03E000
0FF800
3C1E00
700700
63C300
E7F380
CE7180
CE3180
CE0180
CF1180
E7F380
63C300
700700
3C1E00
0FF800
03E000
ENDCHAR
STARTCHAR C0170
ENCODING 170
SWIDTH 375 0
DWIDTH 9 0
BBX 8 7 1 6
BITMAP
7C
CE
0E
7E
EE
FF
76
ENDCHAR
STARTCHAR C0171
ENCODING 171
SWIDTH 541 0
DWIDTH 13 0
BBX 12 10 1 2
BITMAP
0C30
1C70
38E0
79E0
F3C0
F3C0
79E0
38E0
1C70
0C30
ENDCHAR
STARTCHAR C0172
ENCODING 172
SWIDTH 500 0
DWIDTH 12 0
BBX 10 7 1 0
BITMAP
FFC0
FFC0
FFC0
FFC0
FFC0
07C0
07C0
ENDCHAR
STARTCHAR C0173
ENCODING 173
SWIDTH 291 0
DWIDTH 7 0
BBX 7 4 0 4
BITMAP
7E
7E
FE
FC
ENDCHAR
STARTCHAR C0174
ENCODING 174
SWIDTH 791 0
DWIDTH 19 0
BBX 17 16 1 0
BITMAP
03E000
0FF800
3C1E00
700700
6FE300
E77380
C77180
C77180
C7E180
C77180
E77B80
6FBF00
700700
3C1E00
0FF800
03E000
ENDCHAR
STARTCHAR C0175
ENCODING 175
SWIDTH 500 0
DWIDTH 12 0
BBX 12 3 0 17
BITMAP
FFF0
FFF0
FFF0
ENDCHAR
STARTCHAR C0176
ENCODING 176
SWIDTH 416 0
DWIDTH 10 0
BBX 8 7 1 9
BITMAP
3C
6E
E7
E7
E7
F6
3C
ENDCHAR
STARTCHAR C0177
ENCODING 177
SWIDTH 583 0
DWIDTH 14 0
BBX 11 15 2 0
BITMAP
0600
0E00
0E00
0E00
7FE0
FFE0
FFC0
0E00
0E00
0E00
0C00
0000
7FE0
FFE0
FFC0
ENDCHAR
STARTCHAR C0178
ENCODING 178
SWIDTH 416 0
DWIDTH 10 0
BBX 9 9 0 5
BITMAP
3E00
FF00
E700
0700
0E00
1C80
7F80
FF80
0100
ENDCHAR
STARTCHAR C0179
ENCODING 179
SWIDTH 416 0
DWIDTH 10 0
BBX 9 10 0 4
BITMAP
7E00
FF00
0700
0600
1F00
3F80
0380
0380
FF00
7C00
ENDCHAR
STARTCHAR C0180
ENCODING 180
SWIDTH 500 0
DWIDTH 12 0
BBX 6 4 4 13
BITMAP
78
7C
F8
F0
ENDCHAR
STARTCHAR C0181
ENCODING 181
SWIDTH 583 0
DWIDTH 14 0
BBX 15 14 -1 -4
BITMAP
3E7C
7EFC
3E7C
3E7C
3E7C
3E7C
3E7C
3FFC
3FFE
3F7C
3E00
3E00
FC00
7800
ENDCHAR
STARTCHAR C0182
ENCODING 182
SWIDTH 583 0
DWIDTH 14 0
BBX 12 20 1 -4
BITMAP
3FF0
7FF0
FFE0
FCE0
FCE0
FCE0
FCE0
7CE0
7CE0
1CE0
1CE0
1CE0
1CE0
1CE0
1CE0
1CE0
1CE0
1CE0
1CE0
18C0
ENDCHAR
STARTCHAR C0183
ENCODING 183
SWIDTH 291 0
DWIDTH 7 0
BBX 5 5 1 4
BITMAP
70
F8
F8
F8
70
ENDCHAR
STARTCHAR C0184
ENCODING 184
SWIDTH 500 0
DWIDTH 12 0
BBX 5 4 4 -4
BITMAP
60
30
F8
F0
ENDCHAR
STARTCHAR C0185
ENCODING 185
SWIDTH 416 0
DWIDTH 10 0
BBX 7 8 1 6
BITMAP
7C
F8
38
38
38
38
FE
7E
ENDCHAR
STARTCHAR C0186
ENCODING 186
SWIDTH 416 0
DWIDTH 10 0
BBX 9 7 0 6
BITMAP
3E00
7F00
E780
E380
F380
7F00
3E00
ENDCHAR
STARTCHAR C0187
ENCODING 187
SWIDTH 541 0
DWIDTH 13 0
BBX 12 10 1 2
BITMAP
C300
E380
71C0
79E0
3CF0
3CF0
79E0
71C0
E380
C300
ENDCHAR
STARTCHAR C0188
ENCODING 188
SWIDTH 916 0
DWIDTH 22 0
BBX 20 16 1 -2
BITMAP
7C0600
F80600
380C00
381800
381800
383060
FE21E0
7E63E0
00C6E0
008CE0
018CE0
031FF0
031FF0
0600E0
0C00E0
0C0000
ENDCHAR
STARTCHAR C0189
ENCODING 189
SWIDTH 916 0
DWIDTH 22 0
BBX 20 16 1 -2
BITMAP
7C0600
F80600
380C00
381800
381800
383000
FE27C0
7E7FE0
00DCE0
0080E0
0181C0
030390
030FF0
061FF0
0C0020
0C0000
ENDCHAR
STARTCHAR C0190
ENCODING 190
SWIDTH 916 0
DWIDTH 22 0
BBX 20 16 1 -2
BITMAP
7E0600
FF0600
070C00
060800
1F1800
3FB060
03B1E0
03E3E0
FF66E0
7CCCE0
008CE0
019FF0
011FF0
0300E0
0600E0
060000
ENDCHAR
STARTCHAR C0191
ENCODING 191
SWIDTH 500 0
DWIDTH 12 0
BBX 12 16 0 -4
BITMAP
0700
0F80
0F80
0F80
0700
0000
0700
0700
1F00
7E00
FC70
F8F0
F8F0
7FE0
3FE0
1F80
ENDCHAR
STARTCHAR C0192
ENCODING 192
SWIDTH 833 0
DWIDTH 20 0
BBX 20 21 0 0
BITMAP
01E000
03E000
01F000
00F000
000000
01E000
03F000
03F800
03F800
03FC00
03FE00
073E00
073F00
0E1F00
0FFF80
1FFF80
1FFFC0
3807C0
FE1FF0
FE1FF0
FC0FE0
ENDCHAR
STARTCHAR C0193
ENCODING 193
SWIDTH 833 0
DWIDTH 20 0
BBX 20 21 0 0
BITMAP
00F000
00F800
01F000
01E000
000000
01E000
03F000
03F800
03F800
03FC00
03FE00
073E00
073F00
0E1F00
0FFF80
1FFF80
1FFFC0
3807C0
FE1FF0
FE1FF0
FC0FE0
ENDCHAR
STARTCHAR C0194
ENCODING 194
SWIDTH 833 0
DWIDTH 20 0
BBX 20 21 0 0
BITMAP
006000
01F800
03FC00
030C00
000000
01E000
03F000
03F800
03F800
03FC00
03FE00
073E00
073F00
0E1F00
0FFF80
1FFF80
1FFFC0
3807C0
FE1FF0
FE1FF0
FC0FE0
ENDCHAR
STARTCHAR C0195
ENCODING 195
SWIDTH 833 0
DWIDTH 20 0
BBX 20 21 0 0
BITMAP
038E00
07EE00
077E00
071C00
000000
01E000
03F000
03F800
03F800
03FC00
03FE00
073E00
073F00
0E1F00
0FFF80
1FFF80
1FFFC0
3807C0
FE1FF0
FE1FF0
FC0FE0
ENDCHAR
STARTCHAR C0196
ENCODING 196
SWIDTH 833 0
DWIDTH 20 0
BBX 20 21 0 0
BITMAP
079E00
0FBE00
0FBE00
0F3C00
000000
01E000
03F000
03F800
03F800
03FC00
03FE00
073E00
073F00
0E1F00
0FFF80
1FFF80
1FFFC0
3807C0
FE1FF0
FE1FF0
FC0FE0
ENDCHAR
STARTCHAR C0197
ENCODING 197
SWIDTH 833 0
DWIDTH 20 0
BBX 20 22 0 0
BITMAP
00F800
018C00
018C00
018C00
00F800
000000
01E000
03F000
03F800
03F800
03FC00
03FE00
073E00
073F00
0E1F00
0FFF80
1FFF80
1FFFC0
3807C0
FE1FF0
FE1FF0
FC0FE0
ENDCHAR
STARTCHAR C0198
ENCODING 198
SWIDTH 1041 0
DWIDTH 25 0
BBX 25 16 0 0
BITMAP
007FFE00
00FFFF00
00FFFF00
00FF0700
01FF3300
01DF3800
039FF800
071FF800
071FF800
0FFF3800
1FFF3180
1FFF0380
381F0780
FC3FFF80
FE3FFF00
7C3FFF00
ENDCHAR
STARTCHAR C0199
ENCODING 199
SWIDTH 708 0
DWIDTH 17 0
BBX 15 21 1 -5
BITMAP
07E0
1FFC
3FFE
7C7E
781E
F81E
F80C
F800
F800
FC00
FE06
7F0E
3FFE
3FFC
0FF8
03C0
0180
0080
00C0
07C0
07C0
0380
ENDCHAR
STARTCHAR C0200
ENCODING 200
SWIDTH 708 0
DWIDTH 17 0
BBX 16 21 1 0
BITMAP
0780
0F80
07C0
03C0
0000
FFFC
FFFE
FFFE
7C0E
7C66
7C70
7FF0
7FF0
7FF0
7C70
7C63
7C07
7C0F
FFFF
FFFE
FFFE
ENDCHAR
STARTCHAR C0201
ENCODING 201
SWIDTH 708 0
DWIDTH 17 0
BBX 16 21 1 0
BITMAP
03C0
03E0
07C0
0780
0000
FFFC
FFFE
FFFE
7C0E
7C66
7C70
7FF0
7FF0
7FF0
7C70
7C63
7C07
7C0F
FFFF
FFFE
FFFE
ENDCHAR
STARTCHAR C0202
ENCODING 202
SWIDTH 708 0
DWIDTH 17 0
BBX 16 21 1 0
BITMAP
0180
07E0
0FF0
0C30
0000
FFFC
FFFE
FFFE
7C0E
7C66
7C70
7FF0
7FF0
7FF0
7C70
7C63
7C07
7C0F
FFFF
FFFE
FFFE
ENDCHAR
STARTCHAR C0203
ENCODING 203
SWIDTH 708 0
DWIDTH 17 0
BBX 16 21 1 0
BITMAP
1E78
3EF8
3EF8
3CF0
0000
FFFC
FFFE
FFFE
7C0E
7C66
7C70
7FF0
7FF0
7FF0
7C70
7C63
7C07
7C0F
FFFF
FFFE
FFFE
ENDCHAR
STARTCHAR C0204
ENCODING 204
SWIDTH 375 0
DWIDTH 9 0
BBX 7 21 1 0
BITMAP
3C
7C
3E
1E
00
7C
FE
FE
7C
7C
7C
7C
7C
7C
7C
7C
7C
7C
FE
FE
7C
ENDCHAR
STARTCHAR C0205
ENCODING 205
SWIDTH 375 0
DWIDTH 9 0
BBX 7 21 1 0
BITMAP
3C
3E
7C
78
00
7C
FE
FE
7C
7C
7C
7C
7C
7C
7C
7C
7C
7C
FE
FE
7C
ENDCHAR
STARTCHAR C0206
ENCODING 206
SWIDTH 375 0
DWIDTH 9 0
BBX 8 21 1 0
BITMAP
18
7E
FF
C3
00
7C
FE
FE
7C
7C
7C
7C
7C
7C
7C
7C
7C
7C
FE
FE
7C
ENDCHAR
STARTCHAR C0207
ENCODING 207
SWIDTH 375 0
DWIDTH 9 0
BBX 11 21 -1 0
BITMAP
79E0
FBE0
FBE0
F3C0
0000
1F00
3F80
3F80
1F00
1F00
1F00
1F00
1F00
1F00
1F00
1F00
1F00
1F00
3F80
3F80
1F00
ENDCHAR
STARTCHAR C0208
ENCODING 208
SWIDTH 791 0
DWIDTH 19 0
BBX 17 16 1 0
BITMAP
FFF000
FFFC00
FFFE00
7C3F00
7C1F00
7C0F80
7C0F80
FF8F80
FF8F80
7C0F80
7C0F80
7C1F00
7C3F00
FFFE00
FFFC00
FFF000
ENDCHAR
STARTCHAR C0209
ENCODING 209
SWIDTH 833 0
DWIDTH 20 0
BBX 16 21 2 0
BITMAP
0E38
1FB8
1DF8
1C70
0000
F81F
FC1F
FE1F
7E0E
7F0E
7F8E
7FCE
7FFE
73FE
71FE
70FE
707E
703E
F81E
F80E
F806
ENDCHAR
STARTCHAR C0210
ENCODING 210
SWIDTH 791 0
DWIDTH 19 0
BBX 17 21 1 0
BITMAP
03C000
07C000
03E000
01E000
000000
07F000
1FFC00
3FFE00
7C7E00
783F00
F81F00
F81F80
F81F80
FC0F80
FC0F80
FC0F80
7E0F00
7F1F00
3FFE00
1FFC00
07E000
ENDCHAR
STARTCHAR C0211
ENCODING 211
SWIDTH 791 0
DWIDTH 19 0
BBX 17 21 1 0
BITMAP
01E000
01F000
03E000
03C000
000000
07F000
1FFC00
3FFE00
7C7E00
783F00
F81F00
F81F80
F81F80
FC0F80
FC0F80
FC0F80
7E0F00
7F1F00
3FFE00
1FFC00
07E000
ENDCHAR
STARTCHAR C0212
ENCODING 212
SWIDTH 791 0
DWIDTH 19 0
BBX 17 21 1 0
BITMAP
00C000
03F000
07F800
061800
000000
07F000
1FFC00
3FFE00
7C7E00
783F00
F81F00
F81F80
F81F80
FC0F80
FC0F80
FC0F80
7E0F00
7F1F00
3FFE00
1FFC00
07E000
ENDCHAR
STARTCHAR C0213
ENCODING 213
SWIDTH 791 0
DWIDTH 19 0
BBX 17 21 1 0
BITMAP
071C00
0FDC00
0EFC00
0E3800
000000
07F000
1FFC00
3FFE00
7C7E00
783F00
F81F00
F81F80
F81F80
FC0F80
FC0F80
FC0F80
7E0F00
7F1F00
3FFE00
1FFC00
07E000
ENDCHAR
STARTCHAR C0214
ENCODING 214
SWIDTH 791 0
DWIDTH 19 0
BBX 17 21 1 0
BITMAP
0F3C00
1F7C00
1F7C00
1E7800
000000
07F000
1FFC00
3FFE00
7C7E00
783F00
F81F00
F81F80
F81F80
FC0F80
FC0F80
FC0F80
7E0F00
7F1F00
3FFE00
1FFC00
07E000
ENDCHAR
STARTCHAR C0215
ENCODING 215
SWIDTH 583 0
DWIDTH 14 0
BBX 9 9 2 2
BITMAP
4100
E380
7700
3E00
1C00
3E00
7700
E380
4100
ENDCHAR
STARTCHAR C0216
ENCODING 216
SWIDTH 791 0
DWIDTH 19 0
BBX 17 16 1 0
BITMAP
07E000
1FF980
3FFE00
7C7E00
783F00
F81F80
F83F80
F8DF80
FD0F80
FE0F80
FC0F80
7E0F00
7F1F00
3FFE00
CFF800
07E000
ENDCHAR
STARTCHAR C0217
ENCODING 217
SWIDTH 833 0
DWIDTH 20 0
BBX 18 21 1 0
BITMAP
01E000
03E000
01F000
00F000
000000
7E07C0
FE07C0
FE07C0
7C0380
7C0380
7C0380
7C0380
7C0380
7C0380
7C0380
7C0380
7E0380
7F0F80
3FFF00
1FFE00
07F800
ENDCHAR
STARTCHAR C0218
ENCODING 218
SWIDTH 833 0
DWIDTH 20 0
BBX 18 21 1 0
BITMAP
01E000
01F000
03E000
03C000
000000
7E07C0
FE07C0
FE07C0
7C0380
7C0380
7C0380
7C0380
7C0380
7C0380
7C0380
7C0380
7E0380
7F0F80
3FFF00
1FFE00
07F800
ENDCHAR
STARTCHAR C0219
ENCODING 219
SWIDTH 833 0
DWIDTH 20 0
BBX 18 21 1 0
BITMAP
00C000
03F000
07F800
061800
000000
7E07C0
FE07C0
FE07C0
7C0380
7C0380
7C0380
7C0380
7C0380
7C0380
7C0380
7C0380
7E0380
7F0F80
3FFF00
1FFE00
07F800
ENDCHAR
STARTCHAR C0220
ENCODING 220
SWIDTH 833 0
DWIDTH 20 0
BBX 18 21 1 0
BITMAP
079E00
0FBE00
0FBE00
0F3C00
000000
7E07C0
FE07C0
FE07C0
7C0380
7C0380
7C0380
7C0380
7C0380
7C0380
7C0380
7C0380
7E0380
7F0F80
3FFF00
1FFE00
07F800
ENDCHAR
STARTCHAR C0221
ENCODING 221
SWIDTH 791 0
DWIDTH 19 0
BBX 19 21 0 0
BITMAP
00F000
00F800
01F000
01E000
000000
7F87E0
FFCFE0
FFCFE0
3F8700
1FCE00
07FC00
03F800
03F000
01F000
01F000
01F000
01F000
01F000
03F800
03F800
01F000
ENDCHAR
STARTCHAR C0222
ENCODING 222
SWIDTH 666 0
DWIDTH 16 0
BBX 14 16 1 0
BITMAP
FC00
FC00
FFE0
7FF8
7FF8
7CFC
7C7C
7C7C
7CFC
7FF8
7FF0
7FE0
7C00
FE00
FE00
7C00
ENDCHAR
STARTCHAR C0223
ENCODING 223
SWIDTH 666 0
DWIDTH 16 0
BBX 14 16 1 0
BITMAP
07C0
1FF0
3E70
3C70
7CE0
7DF0
7DF0
7DF8
7DF8
7CF8
7CFC
7C7C
7C7C
FC7C
FCF8
7C70
ENDCHAR
STARTCHAR C0224
ENCODING 224
SWIDTH 583 0
DWIDTH 14 0
BBX 12 17 1 0
BITMAP
0F00
1F00
0F80
0780
0000
0F80
3FC0
73E0
63E0
03E0
3FE0
7FE0
F3E0
F3E0
FFF0
7FF0
39E0
ENDCHAR
STARTCHAR C0225
ENCODING 225
SWIDTH 583 0
DWIDTH 14 0
BBX 12 17 1 0
BITMAP
0F00
0F80
1F00
1E00
0000
0F80
3FC0
73E0
63E0
03E0
3FE0
7FE0
F3E0
F3E0
FFF0
7FF0
39E0
ENDCHAR
STARTCHAR C0226
ENCODING 226
SWIDTH 583 0
DWIDTH 14 0
BBX 12 17 1 0
BITMAP
0600
1F80
3FC0
30C0
0000
0F80
3FC0
73E0
63E0
03E0
3FE0
7FE0
F3E0
F3E0
FFF0
7FF0
39E0
ENDCHAR
STARTCHAR C0227
ENCODING 227
SWIDTH 583 0
DWIDTH 14 0
BBX 12 17 1 0
BITMAP
38E0
7EE0
77E0
71C0
0000
0F80
3FC0
73E0
63E0
03E0
3FE0
7FE0
F3E0
F3E0
FFF0
7FF0
39E0
ENDCHAR
STARTCHAR C0228
ENCODING 228
SWIDTH 583 0
DWIDTH 14 0
BBX 12 17 1 0
BITMAP
79E0
FBE0
FBE0
71C0
0000
0F80
3FC0
73E0
63E0
03E0
3FE0
7FE0
F3E0
F3E0
FFF0
7FF0
39E0
ENDCHAR
STARTCHAR C0229
ENCODING 229
SWIDTH 583 0
DWIDTH 14 0
BBX 12 18 1 0
BITMAP
1F00
3180
3180
3180
1F00
0000
0F80
3FC0
73E0
63E0
03E0
3FE0
7FE0
F3E0
F3E0
FFF0
7FF0
39E0
ENDCHAR
STARTCHAR C0230
ENCODING 230
SWIDTH 791 0
DWIDTH 19 0
BBX 17 12 1 0
BITMAP
0FFC00
3FFF00
73E700
63E780
03FF80
3FFF80
7FE000
F3E000
F3F180
FFFF80
FFFF00
7C7C00
ENDCHAR
STARTCHAR C0231
ENCODING 231
SWIDTH 541 0
DWIDTH 13 0
BBX 11 16 1 -4
BITMAP
0F80
3FC0
7FE0
79E0
F9E0
F8C0
F800
FC60
7FE0
7FE0
3FC0
0F00
0700
0380
0F80
0F00
ENDCHAR
STARTCHAR C0232
ENCODING 232
SWIDTH 541 0
DWIDTH 13 0
BBX 11 17 1 0
BITMAP
0F00
1F00
0F80
0780
0000
1F00
3FC0
79C0
79E0
FFE0
FFE0
F800
F800
FC60
7FE0
3FC0
1F80
ENDCHAR
STARTCHAR C0233
ENCODING 233
SWIDTH 541 0
DWIDTH 13 0
BBX 11 17 1 0
BITMAP
0F00
0F80
1F00
1E00
0000
1F00
3FC0
79C0
79E0
FFE0
FFE0
F800
F800
FC60
7FE0
3FC0
1F80
ENDCHAR
STARTCHAR C0234
ENCODING 234
SWIDTH 541 0
DWIDTH 13 0
BBX 11 17 1 0
BITMAP
0600
1F80
3FC0
30C0
0000
1F00
3FC0
79C0
79E0
FFE0
FFE0
F800
F800
FC60
7FE0
3FC0
1F80
ENDCHAR
STARTCHAR C0235
ENCODING 235
SWIDTH 541 0
DWIDTH 13 0
BBX 11 17 1 0
BITMAP
79E0
FBE0
FBE0
71C0
0000
1F00
3FC0
79C0
79E0
FFE0
FFE0
F800
F800
FC60
7FE0
3FC0
1F80
ENDCHAR
STARTCHAR C0236
ENCODING 236
SWIDTH 375 0
DWIDTH 9 0
BBX 7 17 1 0
BITMAP
78
F8
7C
3C
00
1C
7C
FC
7C
7C
7C
7C
7C
7C
FE
FE
FC
ENDCHAR
STARTCHAR C0237
ENCODING 237
SWIDTH 375 0
DWIDTH 9 0
BBX 7 17 1 0
BITMAP
3C
3E
7C
78
00
1C
7C
FC
7C
7C
7C
7C
7C
7C
FE
FE
FC
ENDCHAR
STARTCHAR C0238
ENCODING 238
SWIDTH 375 0
DWIDTH 9 0
BBX 8 17 1 0
BITMAP
18
7E
FF
C3
00
1C
7C
FC
7C
7C
7C
7C
7C
7C
FE
FE
FC
ENDCHAR
STARTCHAR C0239
ENCODING 239
SWIDTH 375 0
DWIDTH 9 0
BBX 11 17 -1 0
BITMAP
79E0
FBE0
FBE0
71C0
0000
0700
1F00
3F00
1F00
1F00
1F00
1F00
1F00
1F00
3F80
3F80
3F00
ENDCHAR
STARTCHAR C0240
ENCODING 240
SWIDTH 583 0
DWIDTH 14 0
BBX 12 17 1 0
BITMAP
0300
3B00
1E00
1F00
3F80
3780
1FC0
3FE0
7FE0
FBF0
F9F0
F9F0
F9F0
F9F0
7DE0
7FC0
1F00
ENDCHAR
STARTCHAR C0241
ENCODING 241
SWIDTH 666 0
DWIDTH 16 0
BBX 14 17 1 0
BITMAP
1C70
3F70
3BF0
38E0
0000
1CE0
7DF0
FFF8
7CF8
7CF8
7CF8
7CF8
7CF8
7CF8
FEFC
FEFC
7CFC
ENDCHAR
STARTCHAR C0242
ENCODING 242
SWIDTH 583 0
DWIDTH 14 0
BBX 12 17 1 0
BITMAP
0F00
1F00
0F80
0780
0000
0F80
3FC0
7FE0
7BF0
F9F0
F9F0
F9F0
F9F0
FDE0
7FE0
3FC0
1F00
ENDCHAR
STARTCHAR C0243
ENCODING 243
SWIDTH 583 0
DWIDTH 14 0
BBX 12 17 1 0
BITMAP
0F00
0F80
1F00
1E00
0000
0F80
3FC0
7FE0
7BF0
F9F0
F9F0
F9F0
F9F0
FDE0
7FE0
3FC0
1F00
ENDCHAR
STARTCHAR C0244
ENCODING 244
SWIDTH 583 0
DWIDTH 14 0
BBX 12 17 1 0
BITMAP
0600
1F80
3FC0
30C0
0000
0F80
3FC0
7FE0
7BF0
F9F0
F9F0
F9F0
F9F0
FDE0
7FE0
3FC0
1F00
ENDCHAR
STARTCHAR C0245
ENCODING 245
SWIDTH 583 0
DWIDTH 14 0
BBX 12 17 1 0
BITMAP
38E0
7EE0
77E0
71C0
0000
0F80
3FC0
7FE0
7BF0
F9F0
F9F0
F9F0
F9F0
FDE0
7FE0
3FC0
1F00
ENDCHAR
STARTCHAR C0246
ENCODING 246
SWIDTH 583 0
DWIDTH 14 0
BBX 12 17 1 0
BITMAP
3CF0
7DF0
7DF0
38E0
0000
0F80
3FC0
7FE0
7BF0
F9F0
F9F0
F9F0
F9F0
FDE0
7FE0
3FC0
1F00
ENDCHAR
STARTCHAR C0247
ENCODING 247
SWIDTH 583 0
DWIDTH 14 0
BBX 12 13 1 1
BITMAP
0600
0F00
0F00
0600
0000
7FF0
FFF0
FFE0
0000
0600
0F00
0F00
0600
ENDCHAR
STARTCHAR C0248
ENCODING 248
SWIDTH 583 0
DWIDTH 14 0
BBX 12 12 1 0
BITMAP
0F80
3FD0
7FE0
7BE0
F9F0
FBF0
FDF0
F9F0
7DE0
7FE0
BFC0
0F00
ENDCHAR
STARTCHAR C0249
ENCODING 249
SWIDTH 666 0
DWIDTH 16 0
BBX 14 17 1 0
BITMAP
0780
0F80
07C0
03C0
0000
7CF8
FDF8
7CF8
7CF8
7CF8
7CF8
7CF8
7CF8
7CF8
7FF8
3FFC
1CF8
ENDCHAR
STARTCHAR C0250
ENCODING 250
SWIDTH 666 0
DWIDTH 16 0
BBX 14 17 1 0
BITMAP
0780
07C0
0F80
0F00
0000
7CF8
FDF8
7CF8
7CF8
7CF8
7CF8
7CF8
7CF8
7CF8
7FF8
3FFC
1CF8
ENDCHAR
STARTCHAR C0251
ENCODING 251
SWIDTH 666 0
DWIDTH 16 0
BBX 14 17 1 0
BITMAP
0300
0FC0
1FE0
1860
0000
7CF8
FDF8
7CF8
7CF8
7CF8
7CF8
7CF8
7CF8
7CF8
7FF8
3FFC
1CF8
ENDCHAR
STARTCHAR C0252
ENCODING 252
SWIDTH 666 0
DWIDTH 16 0
BBX 14 17 1 0
BITMAP
1E78
3EF8
3EF8
1C70
0000
7CF8
FDF8
7CF8
7CF8
7CF8
7CF8
7CF8
7CF8
7CF8
7FF8
3FFC
1CF8
ENDCHAR
STARTCHAR C0253
ENCODING 253
SWIDTH 625 0
DWIDTH 15 0
BBX 15 21 0 -4
BITMAP
03C0
03E0
07C0
0780
0000
7E3E
FF7E
FF3C
7E38
3F30
1F70
1FE0
0FE0
0FE0
07C0
07C0
7380
F380
FF00
FE00
3C00
ENDCHAR
STARTCHAR C0254
ENCODING 254
SWIDTH 666 0
DWIDTH 16 0
BBX 14 20 1 -4
BITMAP
1C00
7C00
FC00
7C00
7DE0
7FF8
7FF8
7CFC
7C7C
7C7C
7C7C
7C7C
7CF8
7FF8
7FF0
7DE0
FC00
FE00
FE00
3C00
ENDCHAR
STARTCHAR C0255
ENCODING 255
SWIDTH 625 0
DWIDTH 15 0
BBX 15 21 0 -4
BITMAP
1E78
3EF8
3EF8
1C70
0000
7E3E
FF7E
FF3C
7E38
3F30
1F70
1FE0
0FE0
0FE0
07C0
07C0
7380
F380
FF00
FE00
3C00
ENDCHAR
ENDFONT

